<?xml version="1.0" encoding="UTF-8" standalone="no"?>
<!-- Created with Inkscape (http://www.inkscape.org/) -->

<svg
   xmlns:dc="http://purl.org/dc/elements/1.1/"
   xmlns:cc="http://creativecommons.org/ns#"
   xmlns:rdf="http://www.w3.org/1999/02/22-rdf-syntax-ns#"
   xmlns:svg="http://www.w3.org/2000/svg"
   xmlns="http://www.w3.org/2000/svg"
   xmlns:sodipodi="http://sodipodi.sourceforge.net/DTD/sodipodi-0.dtd"
   xmlns:inkscape="http://www.inkscape.org/namespaces/inkscape"
   width="138.61922"
   height="223.4257"
   id="svg5598"
   sodipodi:version="0.32"
   inkscape:version="0.91 r13725"
   version="1.0"
   sodipodi:docname="Alabama_Presidential_Election_Results_2016f.svg"
   inkscape:output_extension="org.inkscape.output.svg.inkscape">
  <defs
     id="defs5600">
    <inkscape:perspective
       sodipodi:type="inkscape:persp3d"
       inkscape:vp_x="0 : 526.18109 : 1"
       inkscape:vp_y="0 : 1000 : 0"
       inkscape:vp_z="744.09448 : 526.18109 : 1"
       inkscape:persp3d-origin="372.04724 : 350.78739 : 1"
       id="perspective5606" />
  </defs>
  <sodipodi:namedview
     id="base"
     pagecolor="#ffffff"
     bordercolor="#666666"
     borderopacity="1.0"
     gridtolerance="10000"
     guidetolerance="10"
     objecttolerance="10"
     inkscape:pageopacity="0.0"
     inkscape:pageshadow="2"
     inkscape:zoom="2.3721532"
     inkscape:cx="69.309608"
     inkscape:cy="112.42233"
     inkscape:document-units="px"
     inkscape:current-layer="layer1"
     showgrid="false"
     inkscape:window-width="1366"
     inkscape:window-height="705"
     inkscape:window-x="-8"
     inkscape:window-y="-8"
     inkscape:window-maximized="1" />
  <metadata
     id="metadata5603">
    <rdf:RDF>
      <cc:Work
         rdf:about="">
        <dc:format>image/svg+xml</dc:format>
        <dc:type
           rdf:resource="http://purl.org/dc/dcmitype/StillImage" />
        <dc:title></dc:title>
      </cc:Work>
    </rdf:RDF>
  </metadata>
  <g
     inkscape:label="Layer 1"
     inkscape:groupmode="layer"
     id="layer1"
     transform="translate(-334.78816,-371.10943)">
    <path
       style="font-size:12px;fill:#d40000;fill-opacity:1;fill-rule:nonzero;stroke:#ffffff;stroke-width:1.06222224"
       d="M 450.92652,534.42742 L 462.45614,534.26741 L 462.00198,535.32231 L 461.67968,536.36189 L 461.941,539.298 L 462.23211,540.15221 L 462.51991,540.34648 L 462.82087,540.36967 L 463.07503,540.46255 L 464.5857,542.40502 L 464.80959,542.89075 L 465.12386,543.73398 L 465.91912,546.77179 L 448.88474,547.52423 L 448.86179,544.26549 L 448.68628,539.2231 L 445.2006,539.54407 L 440.82523,539.66582 L 442.29636,536.66243 L 442.50596,536.50649 L 443.3409,536.29994 L 443.92919,536.3166 L 444.48141,536.38783 L 445.64453,536.76109 L 446.52861,537.07461 L 448.08872,537.34142 L 448.62146,537.33468 L 450.97899,535.60743 L 450.92652,534.42742"
       id="AL_Houston"
       inkscape:label="Houston, AL" />
    <path
       style="font-size:12px;fill:#d40000;fill-opacity:1;fill-rule:nonzero;stroke:#ffffff;stroke-width:1.06222224"
       d="M 450.52462,521.94221 L 450.41227,518.35471 L 457.36794,518.28838 L 457.57584,517.9889 L 458.22696,516.44567 L 459.23164,515.35987 L 459.41369,515.27193 L 459.61011,515.28706 L 460.18204,515.51597 L 460.4893,515.82965 L 463.55811,525.59164 L 462.45614,534.26741 L 450.92652,534.42742 L 450.52462,521.94221"
       id="AL_Henry"
       inkscape:label="Henry, AL" />
    <path
       style="font-size:12px;fill:#aa0000;fill-opacity:1;fill-rule:nonzero;stroke:#ffffff;stroke-width:1.06222224"
       d="M 438.00809,539.70686 L 440.82523,539.66582 L 445.2006,539.54407 L 448.68628,539.2231 L 448.86179,544.26549 L 448.88474,547.52423 L 448.53163,547.55756 L 429.70874,548.27735 L 424.36807,548.39482 L 423.94856,540.27424 L 438.00809,539.70686"
       id="AL_Geneva"
       inkscape:label="Geneva, AL" />
    <path
       style="font-size:12px;fill:#d40000;fill-opacity:1;fill-rule:nonzero;stroke:#ffffff;stroke-width:1.06222224"
       d="M 438.9835,522.37541 L 450.52462,521.94221 L 450.92652,534.42742 L 450.97899,535.60743 L 448.62146,537.33468 L 448.08872,537.34142 L 446.52861,537.07461 L 445.64453,536.76109 L 444.48141,536.38783 L 443.92919,536.3166 L 443.3409,536.29994 L 442.50596,536.50649 L 442.29636,536.66243 L 440.82523,539.66582 L 438.00809,539.70686 L 437.56175,522.422 L 438.9835,522.37541"
       id="AL_Dale"
       inkscape:label="Dale, AL" />
    <path
       style="font-size:12px;fill:#d40000;fill-opacity:1;fill-rule:nonzero;stroke:#ffffff;stroke-width:1.06222224"
       d="M 437.56175,522.422 L 438.00809,539.70686 L 423.94856,540.27424 L 423.65431,530.11418 L 423.53394,526.42409 L 424.85942,526.38601 L 425.29763,526.07559 L 425.13674,522.7871 L 437.56175,522.422"
       id="AL_Coffee"
       inkscape:label="Coffee, AL" />
    <path
       style="font-size:12px;fill:#aa0000;fill-opacity:1;fill-rule:nonzero;stroke:#ffffff;stroke-width:1.06222224"
       d="M 412.9274,526.88786 L 416.38841,526.72116 L 419.89867,526.57735 L 420.54594,526.57306 L 420.64577,527.17989 L 420.73682,529.55474 L 421.2819,530.13213 L 423.65431,530.11418 L 423.94856,540.27424 L 424.36807,548.39482 L 417.30226,548.56739 L 406.74181,548.76384 L 406.20067,540.69126 L 405.874,527.106 L 412.9274,526.88786"
       id="AL_Covington"
       inkscape:label="Covington, AL" />
    <path
       style="font-size:12px;fill:#e27f90;fill-opacity:1;fill-rule:nonzero;stroke:#ffffff;stroke-width:1.06222224"
       d="M 361.66187,542.54296 L 361.90305,543.13518 L 362.41461,546.42201 L 363.02943,552.04957 L 361.32856,554.6847 L 360.04643,558.46112 L 359.91277,559.3272 L 360.39728,560.81456 L 361.04507,562.33363 L 360.55477,562.12057 L 360.41829,562.19608 L 358.67709,563.78281 L 357.24336,569.69231 L 353.71701,575.38 L 351.72708,574.57016 L 348.87388,574.29294 L 348.08138,574.36253 L 347.70095,574.46068 L 346.98828,575.10687 L 346.98706,575.12272 L 346.32013,560.12178 L 345.82956,549.36656 L 345.58797,544.60271 L 349.16425,544.59467 L 352.7494,543.76828 L 359.92297,543.31402 L 361.66187,542.54296"
       id="AL_Mobile"
       inkscape:label="Mobile, AL" />
    <path
       style="font-size:12px;fill:#d40000;fill-opacity:1;fill-rule:nonzero;stroke:#ffffff;stroke-width:1.06222224"
       d="M 368.88706,536.95227 L 374.12897,539.06756 L 374.84043,549.18966 L 373.63021,554.59693 L 374.02953,555.41166 L 377.28551,559.56008 L 378.3445,560.4161 L 378.5353,560.50409 L 379.11359,560.65064 L 380.25132,561.35338 L 381.74772,562.44706 L 382.12146,563.18015 L 382.21083,563.67463 L 382.21609,564.35065 L 381.17357,573.24768 L 380.35732,577.67825 L 378.02331,578.52138 L 373.13844,579.83718 L 368.05818,580.71088 L 366.7144,580.82085 L 362.32443,580.75982 L 362.17094,580.51855 L 364.03383,579.99923 L 369.00663,577.3358 L 363.707,564.1003 L 363.30011,563.42521 L 363.10104,563.23778 L 361.51782,562.5262 L 361.04507,562.33363 L 360.39728,560.81456 L 359.91277,559.3272 L 360.04643,558.46112 L 361.32856,554.6847 L 363.02943,552.04957 L 362.41461,546.42201 L 361.90305,543.13518 L 361.66187,542.54296 L 362.58054,541.2912 L 368.88706,536.95227"
       id="AL_Baldwin"
       inkscape:label="Baldwin, AL" />
    <path
       style="font-size:12px;fill:#cc2f4a;fill-opacity:1;fill-rule:nonzero;stroke:#ffffff;stroke-width:1.06222224"
       d="M 406.20067,540.69126 L 406.74181,548.76384 L 403.3705,548.759 L 390.14228,548.91877 L 374.84043,549.18966 L 374.12897,539.06756 L 376.12549,539.75041 L 376.4818,539.63447 L 378.52611,538.41527 L 380.7155,538.33223 L 403.91614,537.91474 L 403.83836,538.17962 L 403.66289,539.96031 L 403.67235,540.3339 L 403.77711,540.5045 L 404.04052,540.767 L 405.62112,540.93342 L 406.20067,540.69126"
       id="AL_Escambia"
       inkscape:label="Escambia, AL" />
    <path
       style="font-size:12px;fill:#e27f90;fill-opacity:1;fill-rule:nonzero;stroke:#ffffff;stroke-width:1.06222224"
       d="M 405.874,527.106 L 406.20067,540.69126 L 405.62112,540.93342 L 404.04052,540.767 L 403.77711,540.5045 L 403.67235,540.3339 L 403.66289,539.96031 L 403.83836,538.17962 L 403.91614,537.91474 L 380.7155,538.33223 L 380.74941,538.09901 L 381.02364,537.55926 L 385.20229,532.50502 L 387.49799,530.29816 L 390.52688,523.24961 L 390.68539,522.51609 L 394.48747,519.5776 L 397.53584,518.19039 L 398.35448,517.86467 L 398.56893,517.85252 L 398.63918,522.77206 L 400.21275,526.37975 L 401.07217,527.13752 L 405.874,527.106"
       id="AL_Conecuh"
       inkscape:label="Conecuh, AL" />
    <path
       style="font-size:12px;fill:#d40000;fill-opacity:1;fill-rule:nonzero;stroke:#ffffff;stroke-width:1.06222224"
       d="M 344.40123,520.67357 L 357.48248,520.55983 L 357.39038,522.29275 L 357.83554,524.58017 L 359.50123,526.24777 L 359.95131,526.56927 L 361.3542,527.1809 L 362.61552,527.60315 L 363.87551,528.95268 L 364.55171,532.99792 L 364.57629,533.25796 L 364.37554,534.58097 L 363.94623,535.80988 L 363.19311,536.48482 L 362.51478,537.26431 L 361.90338,538.87118 L 362.58054,541.2912 L 361.66187,542.54296 L 359.92297,543.31402 L 352.7494,543.76828 L 349.16425,544.59467 L 345.58797,544.60271 L 344.40123,520.67357"
       id="AL_Washington"
       inkscape:label="Washington, AL" />
    <path
       style="font-size:12px;fill:#e27f90;fill-opacity:1;fill-rule:nonzero;stroke:#ffffff;stroke-width:1.06222224"
       d="M 345.81781,495.59062 L 362.76949,495.415 L 361.15206,495.51982 L 360.21887,496.0088 L 359.71046,496.48589 L 356.34954,506.02331 L 356.39222,507.53717 L 356.53156,507.96219 L 356.76328,508.26369 L 357.03595,508.44722 L 357.91519,508.61696 L 357.48248,520.55983 L 344.40123,520.67357 L 344.19151,512.60104 L 345.47814,498.92339 L 345.81781,495.59062"
       id="AL_Choctaw"
       inkscape:label="Choctaw, AL" />
    <path
       style="font-size:12px;fill:#e27f90;fill-opacity:1;fill-rule:nonzero;stroke:#ffffff;stroke-width:1.06222224"
       d="M 371.97587,508.44802 L 377.8452,515.03501 L 377.25292,515.64905 L 375.62852,520.47625 L 375.71989,525.99018 L 375.85875,530.01951 L 375.50644,531.2416 L 374.69967,532.1578 L 374.26586,532.36976 L 373.81528,532.26175 L 373.12983,531.64485 L 372.70262,531.64698 L 372.30514,531.75977 L 368.90278,534.22554 L 368.1961,535.66252 L 368.1817,535.84944 L 368.23745,536.28397 L 368.34562,536.5345 L 368.88706,536.95227 L 362.58054,541.2912 L 361.90338,538.87118 L 362.51478,537.26431 L 363.19311,536.48482 L 363.94623,535.80988 L 364.37554,534.58097 L 364.57629,533.25796 L 364.55171,532.99792 L 363.87551,528.95268 L 362.61552,527.60315 L 361.3542,527.1809 L 359.95131,526.56927 L 359.50123,526.24777 L 357.83554,524.58017 L 357.39038,522.29275 L 357.48248,520.55983 L 357.91519,508.61696 L 371.97587,508.44802"
       id="AL_Clarke"
       inkscape:label="Clarke, AL" />
    <path
       style="font-size:12px;fill:#e27f90;fill-opacity:1;fill-rule:nonzero;stroke:#ffffff;stroke-width:1.06222224"
       d="M 398.4709,514.65811 L 398.56893,517.85252 L 398.35448,517.86467 L 397.53584,518.19039 L 394.48747,519.5776 L 390.68539,522.51609 L 390.52688,523.24961 L 387.49799,530.29816 L 385.20229,532.50502 L 381.02364,537.55926 L 380.74941,538.09901 L 380.7155,538.33223 L 378.52611,538.41527 L 376.4818,539.63447 L 376.12549,539.75041 L 374.12897,539.06756 L 368.88706,536.95227 L 368.34562,536.5345 L 368.23745,536.28397 L 368.1817,535.84944 L 368.1961,535.66252 L 368.90278,534.22554 L 372.30514,531.75977 L 372.70262,531.64698 L 373.12983,531.64485 L 373.81528,532.26175 L 374.26586,532.36976 L 374.69967,532.1578 L 375.50644,531.2416 L 375.85875,530.01951 L 375.71989,525.99018 L 375.62852,520.47625 L 377.25292,515.64905 L 377.8452,515.03501 L 387.1589,514.80622 L 392.21198,514.82273 L 398.4709,514.65811"
       id="AL_Monroe"
       inkscape:label="Monroe, AL" />
    <path
       style="font-size:12px;fill:#1666cb;fill-opacity:1;fill-rule:nonzero;stroke:#ffffff;stroke-width:1.06222224"
       d="M 378.62282,497.12741 L 379.56692,496.95161 L 379.77235,497.09809 L 383.80974,500.41123 L 388.91887,505.90391 L 398.31176,505.72263 L 400.08176,509.22117 L 398.4709,514.65811 L 392.21198,514.82273 L 387.1589,514.80622 L 377.8452,515.03501 L 371.97587,508.44802 L 373.45985,507.84214 L 373.42691,502.64503 L 376.84888,497.56755 L 377.17501,497.09871 L 377.49426,497.00858 L 378.0962,497.01355 L 378.62282,497.12741"
       id="AL_Wilcox"
       inkscape:label="Wilcox, AL" />
    <path
       style="font-size:12px;fill:#e27f90;fill-opacity:1;fill-rule:nonzero;stroke:#ffffff;stroke-width:1.06222224"
       d="M 400.08176,509.22117 L 414.27822,508.82049 L 414.60267,518.96059 L 414.56333,521.49748 L 412.79408,521.54599 L 412.9274,526.88786 L 405.874,527.106 L 401.07217,527.13752 L 400.21275,526.37975 L 398.63918,522.77206 L 398.56893,517.85252 L 398.4709,514.65811 L 400.08176,509.22117"
       id="AL_Butler"
       inkscape:label="Butler, AL" />
    <path
       style="font-size:12px;fill:#d40000;fill-opacity:1;fill-rule:nonzero;stroke:#ffffff;stroke-width:1.06222224"
       d="M 423.17714,508.51512 L 425.13674,522.7871 L 425.29763,526.07559 L 424.85942,526.38601 L 423.53394,526.42409 L 423.65431,530.11418 L 421.2819,530.13213 L 420.73682,529.55474 L 420.64577,527.17989 L 420.54594,526.57306 L 419.89867,526.57735 L 416.38841,526.72116 L 412.9274,526.88786 L 412.79408,521.54599 L 414.56333,521.49748 L 414.60267,518.96059 L 414.27822,508.82049 L 415.64341,505.24806 L 419.2002,505.1206 L 419.34643,508.68203 L 423.17714,508.51512"
       id="AL_Crenshaw"
       inkscape:label="Crenshaw, AL" />
    <path
       style="font-size:12px;fill:#e27f90;fill-opacity:1;fill-rule:nonzero;stroke:#ffffff;stroke-width:1.06222224"
       d="M 429.8194,504.86493 L 431.27775,504.38456 L 432.76939,504.63016 L 433.39176,504.90758 L 434.8077,508.16212 L 437.15111,511.6634 L 441.78993,511.51416 L 438.9835,522.37541 L 437.56175,522.422 L 425.13674,522.7871 L 423.17714,508.51512 L 429.8194,504.86493"
       id="AL_Pike"
       inkscape:label="Pike, AL" />
    <path
       style="font-size:12px;fill:#1666cb;fill-opacity:1;fill-rule:nonzero;stroke:#ffffff;stroke-width:1.06222224"
       d="M 449.06267,496.70436 L 449.99336,500.30074 L 449.41161,500.61284 L 449.43428,504.20619 L 449.54691,505.72225 L 446.66117,506.44637 L 443.87413,507.25459 L 442.06524,510.21602 L 441.78633,511.18882 L 441.78993,511.51416 L 437.15111,511.6634 L 434.8077,508.16212 L 433.39176,504.90758 L 432.76939,504.63016 L 431.27775,504.38456 L 429.8194,504.86493 L 432.24056,495.61203 L 434.23746,497.15857 L 434.51162,497.28168 L 449.06267,496.70436"
       id="AL_Bullock"
       inkscape:label="Bullock, AL" />
    <path
       style="font-size:12px;fill:#0645b4;fill-opacity:1;fill-rule:nonzero;stroke:#ffffff;stroke-width:1.06222224"
       d="M 439.53871,482.16817 L 439.56739,482.74721 L 446.77067,486.00156 L 448.51581,485.93526 L 448.80046,489.5201 L 449.06267,496.70436 L 434.51162,497.28168 L 434.23746,497.15857 L 432.24056,495.61203 L 428.48353,489.73596 L 433.12275,486.60384 L 436.18021,486.46341 L 437.4957,482.83296 L 439.53871,482.16817"
       id="AL_Macon"
       inkscape:label="Macon, AL" />
    <path
       style="font-size:12px;fill:#1666cb;fill-opacity:1;fill-rule:nonzero;stroke:#ffffff;stroke-width:1.06222224"
       d="M 401.25362,493.64169 L 402.35199,491.58796 L 402.47436,491.40616 L 404.00626,491.25334 L 408.14306,491.08452 L 412.22716,493.25398 L 415.64341,505.24806 L 414.27822,508.82049 L 400.08176,509.22117 L 398.31176,505.72263 L 401.25362,493.64169"
       id="AL_Lowndes"
       inkscape:label="Lowndes, AL" />
    <path
       style="font-size:12px;fill:#4389e3;fill-opacity:1;fill-rule:nonzero;stroke:#ffffff;stroke-width:1.06222224"
       d="M 415.129,490.50107 L 420.1658,486.59332 L 420.54888,486.66746 L 421.03918,486.88052 L 421.29455,487.08184 L 422.78743,488.96559 L 422.60804,489.22584 L 425.28033,489.94803 L 427.63782,490.33048 L 428.48353,489.73596 L 432.24056,495.61203 L 429.8194,504.86493 L 423.17714,508.51512 L 419.34643,508.68203 L 419.2002,505.1206 L 415.64341,505.24806 L 412.22716,493.25398 L 415.129,490.50107"
       id="AL_Montgomery"
       inkscape:label="Montgomery, AL" />
    <path
       style="font-size:12px;fill:#d40000;fill-opacity:1;fill-rule:nonzero;stroke:#ffffff;stroke-width:1.06222224"
       d="M 428.6433,475.95873 L 432.88976,475.85572 L 432.9848,475.90449 L 433.01567,476.45501 L 432.60659,477.62812 L 432.932,486.14299 L 433.01774,486.47783 L 433.12275,486.60384 L 428.48353,489.73596 L 427.63782,490.33048 L 425.28033,489.94803 L 422.60804,489.22584 L 422.78743,488.96559 L 421.29455,487.08184 L 421.03918,486.88052 L 420.54888,486.66746 L 420.1658,486.59332 L 415.129,490.50107 L 414.76096,478.27979 L 415.94804,476.31575 L 428.6433,475.95873"
       id="AL_Elmore"
       inkscape:label="Elmore, AL" />
    <path
       style="font-size:12px;fill:#d40000;fill-opacity:1;fill-rule:nonzero;stroke:#ffffff;stroke-width:1.06222224"
       d="M 414.76096,478.27979 L 415.129,490.50107 L 412.22716,493.25398 L 408.14306,491.08452 L 404.00626,491.25334 L 402.47436,491.40616 L 402.35199,491.58796 L 401.25362,493.64169 L 397.49172,480.42591 L 400.94247,480.51655 L 404.4866,480.38811 L 404.43177,478.57694 L 414.76096,478.27979"
       id="AL_Autauga"
       inkscape:label="Autauga, AL" />
    <path
       style="font-size:12px;fill:#4389e3;fill-opacity:1;fill-rule:nonzero;stroke:#ffffff;stroke-width:1.06222224"
       d="M 393.97112,477.80909 L 397.49172,480.42591 L 401.25362,493.64169 L 398.31176,505.72263 L 388.91887,505.90391 L 383.80974,500.41123 L 379.77235,497.09809 L 379.56692,496.95161 L 378.62282,497.12741 L 378.57358,495.36767 L 380.33845,495.33477 L 380.19077,488.15296 L 386.16091,488.01388 L 390.87505,487.7557 L 391.19558,487.19402 L 392.37235,484.04049 L 393.08915,481.60359 L 393.97112,477.80909"
       id="AL_Dallas"
       inkscape:label="Dallas, AL" />
    <path
       style="font-size:12px;fill:#86b6f2;fill-opacity:1;fill-rule:nonzero;stroke:#ffffff;stroke-width:1.06222224"
       d="M 366.7671,486.58953 L 369.6118,486.56335 L 369.65785,488.36428 L 376.70783,488.23193 L 378.57358,495.36767 L 378.62282,497.12741 L 378.0962,497.01355 L 377.49426,497.00858 L 377.17501,497.09871 L 376.84888,497.56755 L 373.42691,502.64503 L 373.45985,507.84214 L 371.97587,508.44802 L 357.91519,508.61696 L 357.03595,508.44722 L 356.76328,508.26369 L 356.53156,507.96219 L 356.39222,507.53717 L 356.34954,506.02331 L 359.71046,496.48589 L 360.21887,496.0088 L 361.15206,495.51982 L 362.76949,495.415 L 361.36159,494.04133 L 358.81559,492.83809 L 358.76128,492.5917 L 358.94794,490.9553 L 359.17122,490.45624 L 363.28071,486.87857 L 363.58121,486.70096 L 365.34954,486.29226 L 366.7671,486.58953"
       id="AL_Marengo"
       inkscape:label="Marengo, AL" />
    <path
       style="font-size:12px;fill:#1666cb;fill-opacity:1;fill-rule:nonzero;stroke:#ffffff;stroke-width:1.06222224"
       d="M 348.51569,467.5279 L 354.28869,467.30032 L 353.64973,470.75346 L 354.10407,473.79048 L 357.55362,482.74686 L 358.29067,483.8107 L 358.39935,483.84777 L 359.89279,483.53262 L 361.07087,483.09119 L 361.35044,482.8546 L 362.04478,482.44602 L 362.64966,482.20581 L 362.94967,482.24167 L 363.28788,482.48444 L 365.34954,486.29226 L 363.58121,486.70096 L 363.28071,486.87857 L 359.17122,490.45624 L 358.94794,490.9553 L 358.76128,492.5917 L 358.81559,492.83809 L 361.36159,494.04133 L 362.76949,495.415 L 345.81781,495.59062 L 346.91692,484.51174 L 348.27116,470.08085 L 348.51569,467.5279"
       id="AL_Sumter"
       inkscape:label="Sumter, AL" />
    <path
       style="font-size:12px;fill:#1666cb;fill-opacity:1;fill-rule:nonzero;stroke:#ffffff;stroke-width:1.06222224"
       d="M 380.03844,472.05715 L 383.53088,471.97889 L 383.56427,473.77886 L 385.94205,473.73263 L 393.85327,473.38301 L 393.97112,477.80909 L 393.08915,481.60359 L 392.37235,484.04049 L 391.19558,487.19402 L 390.87505,487.7557 L 386.16091,488.01388 L 380.19077,488.15296 L 380.33845,495.33477 L 378.57358,495.36767 L 376.70783,488.23193 L 376.58498,481.09984 L 378.35054,475.88834 L 380.03844,472.05715"
       id="AL_Perry"
       inkscape:label="Perry, AL" />
    <path
       style="font-size:12px;fill:#aa0000;fill-opacity:1;fill-rule:nonzero;stroke:#ffffff;stroke-width:1.06222224"
       d="M 410.89032,465.48267 L 415.94804,476.31575 L 414.76096,478.27979 L 404.43177,478.57694 L 404.4866,480.38811 L 400.94247,480.51655 L 397.49172,480.42591 L 393.97112,477.80909 L 393.85327,473.38301 L 398.75576,473.3274 L 398.634,467.2566 L 398.40992,464.54006 L 398.38128,463.62961 L 403.89423,463.63376 L 407.654,463.7259 L 408.17637,464.5565 L 409.22296,465.3255 L 410.89032,465.48267"
       id="AL_Chilton"
       inkscape:label="Chilton, AL" />
    <path
       style="font-size:12px;fill:#cc2f4a;fill-opacity:1;fill-rule:nonzero;stroke:#ffffff;stroke-width:1.06222224"
       d="M 422.52693,461.74249 L 428.18189,462.17825 L 428.6433,475.95873 L 415.94804,476.31575 L 410.89032,465.48267 L 411.69839,462.06807 L 422.52693,461.74249"
       id="AL_Coosa"
       inkscape:label="Coosa, AL" />
    <path
       style="font-size:12px;fill:#d40000;fill-opacity:1;fill-rule:nonzero;stroke:#ffffff;stroke-width:1.06222224"
       d="M 440.31212,461.13078 L 442.37747,461.04455 L 442.88592,476.61329 L 439.53871,482.16817 L 437.4957,482.83296 L 436.18021,486.46341 L 433.12275,486.60384 L 433.01774,486.47783 L 432.932,486.14299 L 432.60659,477.62812 L 433.01567,476.45501 L 432.9848,475.90449 L 432.88976,475.85572 L 428.6433,475.95873 L 428.18189,462.17825 L 440.31212,461.13078"
       id="AL_Tallapoosa"
       inkscape:label="Tallapoosa, AL" />
    <path
       style="font-size:12px;fill:#d40000;fill-opacity:1;fill-rule:nonzero;stroke:#ffffff;stroke-width:1.06222224"
       d="M 433.06766,445.21825 L 431.87316,446.16193 L 431.87556,446.46168 L 435.44916,446.36418 L 436.01537,445.7577 L 436.00228,445.14162 L 440.15369,445.11417 L 440.31212,461.13078 L 428.18189,462.17825 L 422.52693,461.74249 L 422.48772,457.99173 L 425.61152,453.8059 L 429.44027,450.14923 L 431.25306,445.276 L 433.06766,445.21825"
       id="AL_Clay"
       inkscape:label="Clay, AL" />
    <path
       style="font-size:12px;fill:#cc2f4a;fill-opacity:1;fill-rule:nonzero;stroke:#ffffff;stroke-width:1.06222224"
       d="M 422.87155,438.08113 L 426.09908,438.1737 L 426.98305,439.31578 L 427.18195,440.87035 L 428.09278,441.74681 L 434.89881,441.59567 L 434.8889,442.79954 L 433.06766,445.21825 L 431.25306,445.276 L 429.44027,450.14923 L 425.61152,453.8059 L 422.48772,457.99173 L 422.52693,461.74249 L 411.69839,462.06807 L 411.75699,459.44663 L 416.06729,454.0488 L 416.57451,451.60214 L 416.15202,450.8812 L 415.26312,450.13392 L 419.21989,445.97404 L 420.86402,443.04135 L 420.72418,442.82979 L 420.44037,442.04627 L 420.44088,441.83279 L 422.2898,438.3518 L 422.87155,438.08113"
       id="AL_Talladega"
       inkscape:label="Talladega, AL" />
    <path
       style="font-size:12px;fill:#d40000;fill-opacity:1;fill-rule:nonzero;stroke:#ffffff;stroke-width:1.06222224"
       d="M 410.41706,443.87436 L 415.26312,450.13392 L 416.15202,450.8812 L 416.57451,451.60214 L 416.06729,454.0488 L 411.75699,459.44663 L 411.69839,462.06807 L 410.89032,465.48267 L 409.22296,465.3255 L 408.17637,464.5565 L 407.654,463.7259 L 403.89423,463.63376 L 398.38128,463.62961 L 398.40992,464.54006 L 393.296,456.54533 L 394.93909,456.10787 L 395.96585,455.64523 L 396.70578,455.18278 L 398.15096,453.05379 L 405.12737,447.2591 L 407.50758,447.18119 L 410.42157,444.76702 L 410.41706,443.87436"
       id="AL_Shelby"
       inkscape:label="Shelby, AL" />
    <path
       style="font-size:12px;fill:#d40000;fill-opacity:1;fill-rule:nonzero;stroke:#ffffff;stroke-width:1.06222224"
       d="M 391.95981,456.5571 L 393.296,456.54533 L 398.40992,464.54006 L 398.634,467.2566 L 398.75576,473.3274 L 393.85327,473.38301 L 385.94205,473.73263 L 383.56427,473.77886 L 383.53088,471.97889 L 380.03844,472.05715 L 379.9407,466.74986 L 383.48726,466.58975 L 383.66735,462.97061 L 384.65261,461.35112 L 387.44501,458.69494 L 389.02366,457.19129 L 389.32195,457.04219 L 391.59964,456.55802 L 391.95981,456.5571"
       id="AL_Bibb"
       inkscape:label="Bibb, AL" />
    <path
       style="font-size:12px;fill:#86b6f2;fill-opacity:1;fill-rule:nonzero;stroke:#ffffff;stroke-width:1.06222224"
       d="M 369.89057,466.73389 L 379.9407,466.74986 L 380.03844,472.05715 L 378.35054,475.88834 L 376.58498,481.09984 L 376.70783,488.23193 L 369.65785,488.36428 L 369.6118,486.56335 L 366.7671,486.58953 L 368.87729,482.90241 L 367.34399,480.75741 L 366.31102,476.66874 L 365.92982,473.50988 L 365.94308,472.63452 L 369.89057,466.73389"
       id="AL_Hale"
       inkscape:label="Hale, AL" />
    <path
       style="font-size:12px;fill:#0645b4;fill-opacity:1;fill-rule:nonzero;stroke:#ffffff;stroke-width:1.06222224"
       d="M 365.66809,460.7359 L 369.89057,466.73389 L 365.94308,472.63452 L 365.92982,473.50988 L 366.31102,476.66874 L 367.34399,480.75741 L 368.87729,482.90241 L 366.7671,486.58953 L 365.34954,486.29226 L 363.28788,482.48444 L 362.94967,482.24167 L 362.64966,482.20581 L 362.04478,482.44602 L 361.35044,482.8546 L 361.07087,483.09119 L 359.89279,483.53262 L 358.39935,483.84777 L 358.29067,483.8107 L 357.55362,482.74686 L 354.10407,473.79048 L 353.64973,470.75346 L 354.28869,467.30032 L 354.26167,467.11341 L 357.35785,465.35384 L 360.05088,464.11134 L 361.22554,463.79712 L 365.66809,460.7359"
       id="AL_Greene"
       inkscape:label="Greene, AL" />
    <path
       style="font-size:12px;fill:#e27f90;fill-opacity:1;fill-rule:nonzero;stroke:#ffffff;stroke-width:1.06222224"
       d="M 365.42378,445.46158 L 365.66809,460.7359 L 361.22554,463.79712 L 360.05088,464.11134 L 357.35785,465.35384 L 354.26167,467.11341 L 354.28869,467.30032 L 348.51569,467.5279 L 349.70073,455.29245 L 350.66862,445.17227 L 361.82801,445.51593 L 365.42378,445.46158"
       id="AL_Pickens"
       inkscape:label="Pickens, AL" />
    <path
       style="font-size:12px;fill:#e27f90;fill-opacity:1;fill-rule:nonzero;stroke:#ffffff;stroke-width:1.06222224"
       d="M 379.56043,442.11484 L 380.1709,442.13319 L 383.1342,442.67703 L 383.18936,445.68331 L 384.9396,445.71621 L 383.67419,446.67036 L 384.12013,448.69969 L 386.21508,451.37237 L 387.48921,452.66244 L 390.47496,454.77595 L 391.95981,456.5571 L 391.59964,456.55802 L 389.32195,457.04219 L 389.02366,457.19129 L 387.44501,458.69494 L 384.65261,461.35112 L 383.66735,462.97061 L 383.48726,466.58975 L 379.9407,466.74986 L 369.89057,466.73389 L 365.66809,460.7359 L 365.42378,445.46158 L 368.81824,445.62118 L 371.33663,445.52843 L 371.32399,443.41775 L 372.49371,441.88578 L 379.56043,442.11484"
       id="AL_Tuscaloosa"
       inkscape:label="Tuscaloosa, AL" />
    <path
       style="font-size:12px;fill:#86b6f2;fill-opacity:1;fill-rule:nonzero;stroke:#ffffff;stroke-width:1.06222224"
       d="M 395.36477,433.09013 L 397.69444,431.88974 L 401.9309,431.91664 L 405.59798,434.45233 L 408.13554,434.89645 L 409.32918,434.87369 L 409.96913,436.65985 L 410.02019,439.34711 L 409.73445,440.24291 L 409.44688,440.25262 L 409.17168,440.84648 L 409.20109,443.23571 L 409.50761,443.55889 L 410.41706,443.87436 L 410.42157,444.76702 L 407.50758,447.18119 L 405.12737,447.2591 L 398.15096,453.05379 L 396.70578,455.18278 L 395.96585,455.64523 L 394.93909,456.10787 L 393.296,456.54533 L 391.95981,456.5571 L 390.47496,454.77595 L 387.48921,452.66244 L 386.21508,451.37237 L 384.12013,448.69969 L 383.67419,446.67036 L 384.9396,445.71621 L 385.72972,445.34687 L 386.75406,444.70876 L 390.78267,440.89859 L 391.59581,439.69287 L 392.3027,438.50129 L 394.79802,434.28296 L 395.36477,433.09013"
       id="AL_Jefferson"
       inkscape:label="Jefferson, AL" />
    <path
       style="font-size:12px;fill:#aa0000;fill-opacity:1;fill-rule:nonzero;stroke:#ffffff;stroke-width:1.06222224"
       d="M 388.56558,425.87379 L 394.99726,431.32496 L 395.36477,433.09013 L 394.79802,434.28296 L 392.3027,438.50129 L 391.59581,439.69287 L 390.78267,440.89859 L 386.75406,444.70876 L 385.72972,445.34687 L 384.9396,445.71621 L 383.18936,445.68331 L 383.1342,442.67703 L 380.1709,442.13319 L 379.56043,442.11484 L 379.50512,438.53173 L 375.96053,438.45936 L 375.76168,431.23855 L 372.21954,431.09306 L 372.21028,429.3109 L 372.15812,425.72805 L 388.56558,425.87379"
       id="AL_Walker"
       inkscape:label="Walker, AL" />
    <path
       style="font-size:12px;fill:#aa0000;fill-opacity:1;fill-rule:nonzero;stroke:#ffffff;stroke-width:1.06222224"
       d="M 352.84557,423.58016 L 360.28735,423.78075 L 361.48667,425.0077 L 361.54303,431.72037 L 361.79221,441.72081 L 361.82801,445.51593 L 350.66862,445.17227 L 351.51932,436.4899 L 352.84557,423.58016"
       id="AL_Lamar"
       inkscape:label="Lamar, AL" />
    <path
       style="font-size:12px;fill:#aa0000;fill-opacity:1;fill-rule:nonzero;stroke:#ffffff;stroke-width:1.06222224"
       d="M 361.519,429.22002 L 372.21028,429.3109 L 372.21954,431.09306 L 375.76168,431.23855 L 375.96053,438.45936 L 379.50512,438.53173 L 379.56043,442.11484 L 372.49371,441.88578 L 371.32399,443.41775 L 371.33663,445.52843 L 368.81824,445.62118 L 365.42378,445.46158 L 361.82801,445.51593 L 361.79221,441.72081 L 361.54303,431.72037 L 361.519,429.22002"
       id="AL_Fayette"
       inkscape:label="Fayette, AL" />
    <path
       style="font-size:12px;fill:#d40000;fill-opacity:1;fill-rule:nonzero;stroke:#ffffff;stroke-width:1.06222224"
       d="M 354.99911,402.00218 L 375.47775,402.41703 L 375.60618,413.23995 L 372.06064,413.18025 L 369.22887,413.07994 L 361.79168,413.02631 L 353.92612,412.74207 L 354.50764,406.89118 L 354.99911,402.00218"
       id="AL_Franklin"
       inkscape:label="Franklin, AL" />
    <path
       style="font-size:12px;fill:#aa0000;fill-opacity:1;fill-rule:nonzero;stroke:#ffffff;stroke-width:1.06222224"
       d="M 353.92612,412.74207 L 361.79168,413.02631 L 369.22887,413.07994 L 372.06064,413.18025 L 372.15812,425.72805 L 372.21028,429.3109 L 361.519,429.22002 L 361.48667,425.0077 L 360.28735,423.78075 L 352.84557,423.58016 L 352.96733,422.41359 L 353.92612,412.74207"
       id="AL_Marion"
       inkscape:label="Marion, AL" />
    <path
       style="font-size:12px;fill:#aa0000;fill-opacity:1;fill-rule:nonzero;stroke:#ffffff;stroke-width:1.06222224"
       d="M 375.60618,413.23995 L 389.739,413.25183 L 388.56558,425.87379 L 372.15812,425.72805 L 372.06064,413.18025 L 375.60618,413.23995"
       id="AL_Winston"
       inkscape:label="Winston, AL" />
    <path
       style="font-size:12px;fill:#aa0000;fill-opacity:1;fill-rule:nonzero;stroke:#ffffff;stroke-width:1.06222224"
       d="M 389.73127,412.64892 L 407.50809,412.68349 L 411.89685,414.45577 L 410.83653,414.44418 L 409.8193,414.70041 L 409.67233,414.78787 L 407.42336,419.36619 L 407.21519,419.66883 L 402.28689,425.06366 L 399.05585,427.498 L 396.37924,429.76793 L 394.99726,431.32496 L 388.56558,425.87379 L 389.739,413.25183 L 389.73127,412.64892"
       id="AL_Cullman"
       inkscape:label="Cullman, AL" />
    <path
       style="font-size:12px;fill:#aa0000;fill-opacity:1;fill-rule:nonzero;stroke:#ffffff;stroke-width:1.06222224"
       d="M 411.89685,414.45577 L 417.08311,420.93277 L 416.46493,422.04834 L 414.99665,427.53767 L 416.50758,427.49157 L 415.06131,430.54468 L 414.1066,431.60245 L 413.08415,432.54663 L 412.81488,432.52588 L 412.52708,432.33162 L 408.10869,433.38381 L 408.13554,434.89645 L 405.59798,434.45233 L 401.9309,431.91664 L 397.69444,431.88974 L 395.36477,433.09013 L 394.99726,431.32496 L 396.37924,429.76793 L 399.05585,427.498 L 402.28689,425.06366 L 407.21519,419.66883 L 407.42336,419.36619 L 409.67233,414.78787 L 409.8193,414.70041 L 410.83653,414.44418 L 411.89685,414.45577"
       id="AL_Blount"
       inkscape:label="Blount, AL" />
    <path
       style="font-size:12px;fill:#aa0000;fill-opacity:1;fill-rule:nonzero;stroke:#ffffff;stroke-width:1.06222224"
       d="M 416.50758,427.49157 L 416.4898,427.34999 L 416.73624,426.92281 L 417.58911,425.7393 L 418.07484,425.43255 L 420.73676,425.37953 L 421.04891,425.58842 L 421.26818,426.05148 L 421.87938,427.83861 L 422.70149,428.74966 L 423.10843,429.0519 L 423.83029,428.82389 L 425.41789,431.29814 L 425.80654,431.71369 L 425.90058,431.98225 L 425.74351,434.59932 L 422.98871,436.72619 L 422.82975,437.1346 L 422.87155,438.08113 L 422.2898,438.3518 L 420.44088,441.83279 L 420.44037,442.04627 L 420.72418,442.82979 L 420.86402,443.04135 L 419.21989,445.97404 L 415.26312,450.13392 L 410.41706,443.87436 L 409.50761,443.55889 L 409.20109,443.23571 L 409.17168,440.84648 L 409.44688,440.25262 L 409.73445,440.24291 L 410.02019,439.34711 L 409.96913,436.65985 L 409.32918,434.87369 L 408.13554,434.89645 L 408.10869,433.38381 L 412.52708,432.33162 L 412.81488,432.52588 L 413.08415,432.54663 L 414.1066,431.60245 L 415.06131,430.54468 L 416.50758,427.49157"
       id="AL_St._Clair"
       inkscape:label="St. Clair, AL" />
    <path
       style="font-size:12px;fill:#cc2f4a;fill-opacity:1;fill-rule:nonzero;stroke:#ffffff;stroke-width:1.06222224"
       d="M 436.30294,425.77277 L 443.38665,426.65007 L 439.86799,429.46699 L 439.97221,433.69759 L 440.12091,438.83991 L 439.56467,439.73079 L 436.64865,442.75031 L 434.8889,442.79954 L 434.89881,441.59567 L 428.09278,441.74681 L 427.18195,440.87035 L 426.98305,439.31578 L 426.09908,438.1737 L 422.87155,438.08113 L 422.82975,437.1346 L 422.98871,436.72619 L 425.74351,434.59932 L 425.90058,431.98225 L 425.80654,431.71369 L 425.41789,431.29814 L 425.96621,431.29578 L 426.88843,430.86649 L 427.76826,430.28418 L 429.77219,428.51373 L 430.89413,426.98127 L 431.49197,426.66723 L 433.52223,426.62291 L 436.26815,427.13406 L 436.30294,425.77277"
       id="AL_Calhoun"
       inkscape:label="Calhoun, AL" />
    <path
       style="font-size:12px;fill:#d40000;fill-opacity:1;fill-rule:nonzero;stroke:#ffffff;stroke-width:1.06222224"
       d="M 423.63992,416.57168 L 432.47547,416.3443 L 432.667,420.02075 L 434.1438,420.25247 L 436.34035,424.91519 L 436.30294,425.77277 L 436.26815,427.13406 L 433.52223,426.62291 L 431.49197,426.66723 L 430.89413,426.98127 L 429.77219,428.51373 L 427.76826,430.28418 L 426.88843,430.86649 L 425.96621,431.29578 L 425.41789,431.29814 L 423.83029,428.82389 L 423.10843,429.0519 L 422.70149,428.74966 L 421.87938,427.83861 L 421.26818,426.05148 L 421.04891,425.58842 L 420.73676,425.37953 L 418.07484,425.43255 L 417.58911,425.7393 L 416.73624,426.92281 L 416.4898,427.34999 L 416.50758,427.49157 L 414.99665,427.53767 L 416.46493,422.04834 L 417.08311,420.93277 L 423.63992,416.57168"
       id="AL_Etowah"
       inkscape:label="Etowah, AL" />
    <path
       style="font-size:12px;fill:#aa0000;fill-opacity:1;fill-rule:nonzero;stroke:#ffffff;stroke-width:1.06222224"
       d="M 415.78405,400.32204 L 421.76931,400.19368 L 421.99951,402.58245 L 424.94816,405.1775 L 423.63992,416.57168 L 417.08311,420.93277 L 411.89685,414.45577 L 407.50809,412.68349 L 408.34605,402.71903 L 408.94677,404.47666 L 410.04818,405.27858 L 411.14552,405.55435 L 412.33164,405.25695 L 415.77237,403.8235 L 416.33791,402.6465 L 416.71755,401.11102 L 416.56824,400.56731 L 416.14424,400.32112 L 415.78405,400.32204"
       id="AL_Marshall"
       inkscape:label="Marshall, AL" />
    <path
       style="font-size:12px;fill:#d40000;fill-opacity:1;fill-rule:nonzero;stroke:#ffffff;stroke-width:1.06222224"
       d="M 400.29182,402.69113 L 408.34605,402.71903 L 407.50809,412.68349 L 389.73127,412.64892 L 389.63197,397.31249 L 400.29182,402.69113"
       id="AL_Morgan"
       inkscape:label="Morgan, AL" />
    <path
       style="font-size:12px;fill:#d40000;fill-opacity:1;fill-rule:nonzero;stroke:#ffffff;stroke-width:1.06222224"
       d="M 378.8053,392.77507 L 384.38188,394.39349 L 389.63197,397.31249 L 389.73127,412.64892 L 389.739,413.25183 L 375.60618,413.23995 L 375.47775,402.41703 L 378.8053,392.77507"
       id="AL_Lawrence"
       inkscape:label="Lawrence, AL" />
    <path
       style="font-size:12px;fill:#cc2f4a;fill-opacity:1;fill-rule:nonzero;stroke:#ffffff;stroke-width:1.06222224"
       d="M 356.3307,389.18845 L 357.64699,388.69075 L 358.23138,388.59238 L 360.49668,389.5509 L 361.19576,390.1561 L 361.647,390.87605 L 361.84214,391.32132 L 362.04087,392.25763 L 362.39365,392.89033 L 364.87615,395.16583 L 365.13348,395.34181 L 366.11138,395.71991 L 367.64671,395.56415 L 368.55551,395.14341 L 368.74074,394.97284 L 369.38692,394.03153 L 373.4321,392.03277 L 374.7898,391.5765 L 375.51798,391.47327 L 375.7724,391.52156 L 378.8053,392.77507 L 375.47775,402.41703 L 354.99911,402.00218 L 356.3307,389.18845"
       id="AL_Colbert"
       inkscape:label="Colbert, AL" />
    <path
       style="font-size:12px;fill:#d40000;fill-opacity:1;fill-rule:nonzero;stroke:#ffffff;stroke-width:1.06222224"
       d="M 385.48205,384.45878 L 385.89634,384.45884 L 384.38188,394.39349 L 378.8053,392.77507 L 375.7724,391.52156 L 375.51798,391.47327 L 374.7898,391.5765 L 373.4321,392.03277 L 369.38692,394.03153 L 368.74074,394.97284 L 368.55551,395.14341 L 367.64671,395.56415 L 366.11138,395.71991 L 365.13348,395.34181 L 364.87615,395.16583 L 362.39365,392.89033 L 362.04087,392.25763 L 361.84214,391.32132 L 361.647,390.87605 L 361.19576,390.1561 L 360.49668,389.5509 L 358.23138,388.59238 L 357.64699,388.69075 L 356.3307,389.18845 L 352.89074,384.94618 L 360.06942,384.46681 L 372.70885,384.46242 L 385.48205,384.45878"
       id="AL_Lauderdale"
       inkscape:label="Lauderdale, AL" />
    <path
       style="font-size:12px;fill:#d40000;fill-opacity:1;fill-rule:nonzero;stroke:#ffffff;stroke-width:1.06222224"
       d="M 398.38855,384.5451 L 400.13757,384.51096 L 400.29182,402.69113 L 389.63197,397.31249 L 384.38188,394.39349 L 385.89634,384.45884 L 398.38855,384.5451"
       id="AL_Limestone"
       inkscape:label="Limestone, AL" />
    <path
       style="font-size:12px;fill:#e27f90;fill-opacity:1;fill-rule:nonzero;stroke:#ffffff;stroke-width:1.06222224"
       d="M 415.90565,384.18679 L 416.46736,386.07845 L 415.23849,390.61107 L 414.60554,394.77213 L 414.66834,399.00275 L 415.78405,400.32204 L 416.14424,400.32112 L 416.56824,400.56731 L 416.71755,401.11102 L 416.33791,402.6465 L 415.77237,403.8235 L 412.33164,405.25695 L 411.14552,405.55435 L 410.04818,405.27858 L 408.94677,404.47666 L 408.34605,402.71903 L 400.29182,402.69113 L 400.13757,384.51096 L 415.65439,384.18017 L 415.90565,384.18679"
       id="AL_Madison"
       inkscape:label="Madison, AL" />
    <path
       style="font-size:12px;fill:#aa0000;fill-opacity:1;fill-rule:nonzero;stroke:#ffffff;stroke-width:1.06222224"
       d="M 439.46596,383.7747 L 440.3672,388.86982 L 437.93255,393.2936 L 433.89738,398.80185 L 427.71887,404.41583 L 426.72962,404.9706 L 425.94927,405.21322 L 424.94816,405.1775 L 421.99951,402.58245 L 421.76931,400.19368 L 415.78405,400.32204 L 414.66834,399.00275 L 414.60554,394.77213 L 415.23849,390.61107 L 416.46736,386.07845 L 415.90565,384.18679 L 430.82733,383.88661 L 439.46596,383.7747"
       id="AL_Jackson"
       inkscape:label="Jackson, AL" />
    <path
       style="font-size:12px;fill:#aa0000;fill-opacity:1;fill-rule:nonzero;stroke:#ffffff;stroke-width:1.06222224"
       d="M 440.3672,388.86982 L 442.32207,398.57148 L 442.61309,400.00568 L 443.13936,402.64672 L 442.9454,402.55847 L 442.81525,402.63449 L 441.08621,404.35281 L 440.70403,406.70713 L 439.48891,408.86979 L 434.73708,413.83523 L 433.56976,413.88869 L 432.70283,414.59311 L 432.43714,415.02198 L 432.47547,416.3443 L 423.63992,416.57168 L 424.94816,405.1775 L 425.94927,405.21322 L 426.72962,404.9706 L 427.71887,404.41583 L 433.89738,398.80185 L 437.93255,393.2936 L 440.3672,388.86982"
       id="AL_DeKalb"
       inkscape:label="DeKalb, AL" />
    <path
       style="font-size:12px;fill:#aa0000;fill-opacity:1;fill-rule:nonzero;stroke:#ffffff;stroke-width:1.06222224"
       d="M 443.13936,402.64672 L 445.20729,412.36983 L 446.85551,420.79861 L 447.79456,425.56839 L 443.38665,426.65007 L 436.30294,425.77277 L 436.34035,424.91519 L 434.1438,420.25247 L 432.667,420.02075 L 432.47547,416.3443 L 432.43714,415.02198 L 432.70283,414.59311 L 433.56976,413.88869 L 434.73708,413.83523 L 439.48891,408.86979 L 440.70403,406.70713 L 441.08621,404.35281 L 442.81525,402.63449 L 442.9454,402.55847 L 443.13936,402.64672"
       id="AL_Cherokee"
       inkscape:label="Cherokee, AL" />
    <path
       style="font-size:12px;fill:#aa0000;fill-opacity:1;fill-rule:nonzero;stroke:#ffffff;stroke-width:1.06222224"
       d="M 447.79456,425.56839 L 448.30233,428.11875 L 450.30295,438.30197 L 451.69181,445.25755 L 440.15369,445.11417 L 436.00228,445.14162 L 436.01537,445.7577 L 435.44916,446.36418 L 431.87556,446.46168 L 431.87316,446.16193 L 433.06766,445.21825 L 434.8889,442.79954 L 436.64865,442.75031 L 439.56467,439.73079 L 440.12091,438.83991 L 439.97221,433.69759 L 439.86799,429.46699 L 443.38665,426.65007 L 447.79456,425.56839"
       id="AL_Cleburne"
       inkscape:label="Cleburne, AL" />
    <path
       style="font-size:12px;fill:#d40000;fill-opacity:1;fill-rule:nonzero;stroke:#ffffff;stroke-width:1.06222224"
       d="M 440.15369,445.11417 L 451.69181,445.25755 L 452.13675,447.5067 L 454.52652,459.71169 L 454.70454,460.58586 L 442.37747,461.04455 L 440.31212,461.13078 L 440.15369,445.11417"
       id="AL_Randolph"
       inkscape:label="Randolph, AL" />
    <path
       style="font-size:12px;fill:#e27f90;fill-opacity:1;fill-rule:nonzero;stroke:#ffffff;stroke-width:1.06222224"
       d="M 454.70454,460.58586 L 456.71643,470.29191 L 458.52471,475.31989 L 454.70374,475.52579 L 453.46299,476.15998 L 442.88592,476.61329 L 442.37747,461.04455 L 454.70454,460.58586"
       id="AL_Chambers"
       inkscape:label="Chambers, AL" />
    <path
       style="font-size:12px;fill:#e27f90;fill-opacity:1;fill-rule:nonzero;stroke:#ffffff;stroke-width:1.06222224"
       d="M 442.88592,476.61329 L 453.46299,476.15998 L 454.70374,475.52579 L 458.52471,475.31989 L 460.5737,480.94644 L 463.56872,484.84211 L 461.61501,486.45708 L 455.3942,487.61576 L 452.37334,489.34926 L 448.80046,489.5201 L 448.51581,485.93526 L 446.77067,486.00156 L 439.56739,482.74721 L 439.53871,482.16817 L 442.88592,476.61329"
       id="AL_Lee"
       inkscape:label="Lee, AL" />
    <path
       style="font-size:12px;fill:#86b6f2;fill-opacity:1;fill-rule:nonzero;stroke:#ffffff;stroke-width:1.06222224"
       d="M 464.08459,490.55447 L 463.58896,491.98223 L 463.63521,492.33317 L 463.83209,492.59054 L 466.05329,493.37676 L 466.84179,494.14501 L 467.13145,494.85251 L 466.74721,496.11676 L 466.65581,496.22763 L 462.37771,503.27553 L 457.90143,503.50742 L 457.67139,503.3909 L 456.37002,501.79279 L 456.26869,501.41212 L 455.26825,500.04436 L 449.99336,500.30074 L 449.06267,496.70436 L 448.80046,489.5201 L 452.37334,489.34926 L 455.3942,487.61576 L 461.61501,486.45708 L 463.56872,484.84211 L 464.08459,490.55447"
       id="AL_Russell"
       inkscape:label="Russell, AL" />
    <path
       style="font-size:12px;fill:#e27f90;fill-opacity:1;fill-rule:nonzero;stroke:#ffffff;stroke-width:1.06222224"
       d="M 462.37771,503.27553 L 462.23742,506.33685 L 459.9489,514.98492 L 460.4893,515.82965 L 460.18204,515.51597 L 459.61011,515.28706 L 459.41369,515.27193 L 459.23164,515.35987 L 458.22696,516.44567 L 457.57584,517.9889 L 457.36794,518.28838 L 450.41227,518.35471 L 450.52462,521.94221 L 438.9835,522.37541 L 441.78993,511.51416 L 441.78633,511.18882 L 442.06524,510.21602 L 443.87413,507.25459 L 446.66117,506.44637 L 449.54691,505.72225 L 449.43428,504.20619 L 449.41161,500.61284 L 449.99336,500.30074 L 455.26825,500.04436 L 456.26869,501.41212 L 456.37002,501.79279 L 457.67139,503.3909 L 457.90143,503.50742 L 462.37771,503.27553"
       id="AL_Barbour"
       inkscape:label="Barbour, AL" />
  </g>
</svg>