<?xml version="1.0" encoding="utf-8"?>
<!-- Generator: Adobe Illustrator 16.0.0, SVG Export Plug-In . SVG Version: 6.00 Build 0)  -->
<!DOCTYPE svg PUBLIC "-//W3C//DTD SVG 1.1//EN" "http://www.w3.org/Graphics/SVG/1.1/DTD/svg11.dtd">
<svg version="1.1"
	 id="svg5598" xmlns:dc="http://purl.org/dc/elements/1.1/" xmlns:cc="http://creativecommons.org/ns#" xmlns:rdf="http://www.w3.org/1999/02/22-rdf-syntax-ns#" xmlns:svg="http://www.w3.org/2000/svg" xmlns:sodipodi="http://sodipodi.sourceforge.net/DTD/sodipodi-0.dtd" xmlns:inkscape="http://www.inkscape.org/namespaces/inkscape" inkscape:output_extension="org.inkscape.output.svg.inkscape" sodipodi:docname="Arkansas_Presidential_Election_Results_by_County,_2008[1].svg" inkscape:version="0.48.1 " sodipodi:version="0.32"
	 xmlns="http://www.w3.org/2000/svg" xmlns:xlink="http://www.w3.org/1999/xlink" x="0px" y="0px" width="197.949px"
	 height="180.768px" viewBox="0 0 197.949 180.768" enable-background="new 0 0 197.949 180.768" xml:space="preserve">
<defs>
	
	
		<inkscape:perspective  id="perspective5606" inkscape:vp_z="744.09448 : 526.18109 : 1" inkscape:vp_y="0 : 1000 : 0" inkscape:vp_x="0 : 526.18109 : 1" sodipodi:type="inkscape:persp3d" inkscape:persp3d-origin="372.04724 : 350.78739 : 1">
		</inkscape:perspective>
</defs>
<sodipodi:namedview  showgrid="false" inkscape:cy="105.50232" inkscape:cx="206.61982" inkscape:zoom="1.5719459" objecttolerance="10" guidetolerance="10" gridtolerance="10000" borderopacity="1.0" bordercolor="#666666" pagecolor="#ffffff" id="base" inkscape:window-maximized="1" inkscape:window-y="-8" inkscape:window-x="-8" inkscape:window-height="706" inkscape:window-width="1366" inkscape:current-layer="layer1" inkscape:document-units="px" inkscape:pageshadow="2" inkscape:pageopacity="0.0">
	</sodipodi:namedview>
<g id="layer1" transform="translate(-312.22404,-317.42865)" inkscape:label="Layer 1" inkscape:groupmode="layer">
	<path id="AR_Chicot" inkscape:label="Chicot, AR" fill="#86b6f2" stroke="#FFFFFF" stroke-width="1.1376" d="M451.75,463.23
		l0.536,1.483l0.051,0.028l1.979,1.35l1.616,1.09l0.309,1.092l-0.472,0.932l-2.012,0.587l1.961,5.608l1.323,2.398l1.015,1.077
		l0.112,3.552v0.041l-1.225,5.085l-0.033,0.032l-1.142,1.291l-0.315,0.359l-3.854,0.148l-6.666,0.271l-0.964,0.055l-0.732-17.954
		l-0.246-8.199l4.02-0.2l0.214,1.407l1.059,0.648l2.86-0.076L451.75,463.23"/>
	<path id="AR_Ashley" inkscape:label="Ashley, AR" fill="#cc2f4a" stroke="#FFFFFF" stroke-width="1.1376" d="M422.537,472.242
		l20.701-0.485l0.732,17.954l-23.739,0.964l-2.973-7.159l0.914-2.349l1.442-1.882l1.711-1.385l0.772-0.213l1.123-0.95l0.522-3.61
		L422.537,472.242"/>
	<path id="AR_Pope" inkscape:label="Pope, AR" fill="#d40000" stroke="#FFFFFF" stroke-width="1.1376" d="M387.053,364.236
		l0.099,6.304l-1.327,1.899l0.083,4.067l-1.258,13.792l-4.817,0.519l-9.889-6.975l-0.793-0.442l-0.088-6.713l0.689-0.018l2.04-2.153
		l1.943-3.976l-0.062-6.173l8.036-0.043L387.053,364.236"/>
	<path id="AR_Newton" inkscape:label="Newton, AR" fill="#d40000" stroke="#FFFFFF" stroke-width="1.1376" d="M381.365,345.923
		l0.345,18.4l-8.036,0.043l-13.416-1.254l-0.326-2.831l0.019-2.726l0.83-2.059l1.16-2.041l-0.635-7.402l6.728-0.015L381.365,345.923
		"/>
	<path id="AR_Madison" inkscape:label="Madison, AR" fill="#d40000" stroke="#FFFFFF" stroke-width="1.1376" d="M348.51,337.818
		l5.916,0.021l1.012,1.156l0.507,1.845v1.765l0.33,0.671l1.029,1.435l1.319,1.341h2.683l0.635,7.402l-1.16,2.041l-0.83,2.059
		l-0.019,2.726l0.326,2.831l-6.666-0.083l-8.068,0.605h-1.961v-3.415l0.358-12.158l1.957-6.815L348.51,337.818"/>
	<path id="AR_Franklin" inkscape:label="Franklin, AR" fill="#d40000" stroke="#FFFFFF" stroke-width="1.1376" d="M345.524,363.634
		l8.068-0.605l-0.079,18.526l-11.897,7.859l-1.976-10.849l0.588-0.312l0.703-2.251l0.525-2.679l0.112-4.973l3.955-3.346l0.685-0.681
		l0.015-0.689H345.524"/>
	<path id="AR_Johnson" inkscape:label="Johnson, AR" fill="#cc2f4a" stroke="#FFFFFF" stroke-width="1.1376" d="M353.592,363.029
		l6.666,0.083l13.416,1.254l0.062,6.173l-1.943,3.976l-2.04,2.153l-0.689,0.018l0.088,6.713l-6.797-3.9l-1.606,0.634l-2.878,0.917
		l-4.356,0.504L353.592,363.029"/>
	<path id="AR_Logan" inkscape:label="Logan, AR" fill="#d40000" stroke="#FFFFFF" stroke-width="1.1376" d="M353.513,381.556
		l4.356-0.504l2.878-0.917l1.606-0.634l6.797,3.9l0.793,0.442l0.069,4.934l-7.695,1.733l-6.75,1.682l-1.646,0.667v4.154l0.192,1.258
		l-8.022,0.047l-6.046-0.047l-2.577-1.323v-2.077l0.015-2.059l4.104,0.047l0.028-3.443L353.513,381.556"/>
	<path id="AR_Yell" inkscape:label="Yell, AR" fill="#d40000" stroke="#FFFFFF" stroke-width="1.1376" d="M369.944,383.843
		l9.889,6.975l4.817-0.519l-5.357,4.585l-3.073,2.846l-2.824,2.726l-1.294,1.443l-1.943,2.661l0.149,4.886l-4.017,1.52
		l-12.074,0.209l-0.102-12.904l-0.192-1.258v-4.154l1.646-0.667l6.75-1.682l7.695-1.733L369.944,383.843"/>
	<path id="AR_Perry" inkscape:label="Perry, AR" fill="#cc2f4a" stroke="#FFFFFF" stroke-width="1.1376" d="M379.292,394.884
		l12.238-0.163l3.183-0.308l0.604-0.116l0.49-0.177l1.899-1.57l0.177,0.185l0.359,0.96l0.051,0.438l-0.146,1.146l-0.166,0.41
		l-0.294,0.42l-0.424,0.446l-0.602,0.507l-0.265,0.326l-0.167,0.555l0.145,0.569l0.442,0.736l0.398,0.344l0.453,0.261l0.686,0.21
		l-1.139,0.786l-2.798,0.704l-3.951,0.768l0.029,2.712l0.591-0.019l-0.377,0.837l-3.056-0.805h-5.372l-3.937,0.163l0.079,4.052
		l-8.119,0.182l-0.149-4.886l1.943-2.661l1.294-1.443l2.824-2.726L379.292,394.884"/>
	<path id="AR_Conway" inkscape:label="Conway, AR" fill="#cc2f4a" stroke="#FFFFFF" stroke-width="1.1376" d="M385.907,376.506
		l14.054-0.145l0.08,4.1l-2.334,12.089l-1.899,1.57l-0.49,0.177l-0.604,0.116l-3.183,0.308l-12.238,0.163l5.357-4.585
		L385.907,376.506"/>
	<path id="AR_Faulkner" inkscape:label="Faulkner, AR" fill="#cc2f4a" stroke="#FFFFFF" stroke-width="1.1376" d="M414.04,380.185
		l0.265,13.934l0.044,2.544l-4.053,0.069l-1.189,4.104l-7.746,0.08l-3.005-0.852l-0.686-0.21l-0.453-0.261l-0.398-0.344
		l-0.442-0.736l-0.145-0.569l0.167-0.555l0.265-0.326l0.602-0.507l0.424-0.446l0.294-0.42l0.166-0.41l0.146-1.146l-0.051-0.438
		l-0.359-0.96l-0.177-0.185l2.334-12.089l8.66-0.112L414.04,380.185"/>
	<path id="AR_Van_Buren" inkscape:label="Van Buren, AR" fill="#d40000" stroke="#FFFFFF" stroke-width="1.1376" d="
		M401.741,360.593l6.774,3.349l0.186,16.406l-8.66,0.112l-0.08-4.1l-14.054,0.145l-0.083-4.067l1.327-1.899l-0.099-6.304
		l6.731-0.033l-0.064-3.411L401.741,360.593"/>
	<path id="AR_Searcy" inkscape:label="Searcy, AR" fill="#d40000" stroke="#FFFFFF" stroke-width="1.1376" d="M381.365,345.923
		l2.026-0.015l2.06,2.004l15.996-0.225l0.047,4.104l0.247,8.801l-8.021,0.199l0.064,3.411l-6.731,0.033l-5.343,0.087
		L381.365,345.923"/>
	<path id="AR_Stone" inkscape:label="Stone, AR" fill="#d40000" stroke="#FFFFFF" stroke-width="1.1376" d="M409.419,344.078
		l4.473,3.415l0.218,0.163l0.682,0.83l0.018,0.214l-0.946,3.07l7.282,3.614l1.784,0.638l0.801,7.627l-15.214,0.293l-6.774-3.349
		l-0.247-8.801l4.038-0.065l3.951-4.183L409.419,344.078"/>
	<path id="AR_Cleburne" inkscape:label="Cleburne, AR" fill="#d40000" stroke="#FFFFFF" stroke-width="1.1376" d="M423.73,363.649
		l1.976,7.957l0.102,3.694l-1.929,4.672l-9.838,0.214l-5.339,0.163l-0.186-16.406L423.73,363.649"/>
	<path id="AR_White" inkscape:label="White, AR" fill="#d40000" stroke="#FFFFFF" stroke-width="1.1376" d="M425.705,371.605
		l8.025-0.192l9.063,3.868l-3.07,3.792l-0.099,2.809l0.084,0.294l1.029,1.421l-0.819,7.257l-0.801,1.08l-12.694,3.364l-5.391-0.489
		l-1.779-0.624l-4.948-0.065l-0.265-13.934l9.838-0.214l1.929-4.672L425.705,371.605"/>
	<path id="AR_Independence" inkscape:label="Independence, AR" fill="#d40000" stroke="#FFFFFF" stroke-width="1.1376" d="
		M441.372,354.076l5.963-0.265l-0.211,0.819l-0.377,1.113l-1.044,2.432l-3.149,7.043l-0.805,6.014l-5.097,0.163l-2.922,0.018
		l-8.025,0.192l-1.976-7.957l-0.801-7.627l5.067-3.726l9.294-0.196l0.051,2.091L441.372,354.076"/>
	<path id="AR_Jackson" inkscape:label="Jackson, AR" fill="#cc2f4a" stroke="#FFFFFF" stroke-width="1.1376" d="M447.335,353.811
		l6.26-0.094l0.265,8.315l0.551,12.484l0.214,4.168l-8.018,0.258l-0.265-4.15l-3.68,0.228l0.131,0.261l-9.063-3.868l2.922-0.018
		l5.097-0.163l0.805-6.014l3.149-7.043l1.044-2.432l0.377-1.113L447.335,353.811"/>
	<path id="AR_Woodruff" inkscape:label="Woodruff, AR" fill="#e27f90" stroke="#FFFFFF" stroke-width="1.1376" d="M442.793,375.281
		l-0.131-0.261l3.68-0.228l0.265,4.15l8.018-0.258l0.392,9.682l-3.708,7.065l-3.346,0.094l-1.704,0.979l-0.308,1.439l0.047,1.99
		l-2.813,0.131l-0.127-6.55l-3.64,0.163l-0.185-0.518l-0.116-1.226l0.801-1.08l0.819-7.257l-1.029-1.421l-0.084-0.294l0.099-2.809
		L442.793,375.281"/>
	<path id="AR_St._Francis" inkscape:label="St. Francis, AR" fill="#86b6f2" stroke="#FFFFFF" stroke-width="1.1376" d="
		M475.486,387.439l3.89-0.41l0.326,6.847l0.032,4.622l-20.4,1.015l-3.879-0.036l-2.004,0.116l0.079,2.088l-2.222-6.249l3.708-7.065
		L475.486,387.439"/>
	<path id="AR_Crittenden" inkscape:label="Crittenden, AR" fill="#86b6f2" stroke="#FFFFFF" stroke-width="1.1376" d="
		M487.937,372.899l2.534,2.494l0.145,0.493l1.519,10.719l-0.014,0.051v0.043l-0.015,0.029l-0.069,0.105l-0.569,0.7l-4.005,3.077
		l-3.807,1.254l-0.456,1.458l0.065,0.652l0.96,6.307l-4.263,1.563l-0.229-3.346l-0.032-4.622l-0.326-6.847l-3.89,0.41l-0.783-13.985
		l8.156-0.326L487.937,372.899"/>
	<path id="AR_Cross" inkscape:label="Cross, AR" fill="#cc2f4a" stroke="#FFFFFF" stroke-width="1.1376" d="M474.702,373.454
		l0.783,13.985l-20.47,0.928l-0.392-9.682l-0.214-4.168l3.447-0.148l8.758-0.83l3.987-0.181L474.702,373.454"/>
	<path id="AR_Poinsett" inkscape:label="Poinsett, AR" fill="#e27f90" stroke="#FFFFFF" stroke-width="1.1376" d="M453.86,362.032
		l7.072-0.232l15.014-0.779l6.177-0.181l0.736,12.288l-8.156,0.326l-4.1-0.098l-3.987,0.181l-8.758,0.83l-3.447,0.148
		L453.86,362.032"/>
	<path id="AR_Mississippi" inkscape:label="Mississippi, AR" fill="#e27f90" stroke="#FFFFFF" stroke-width="1.1376" d="
		M502.034,345.401l1.997,4.411l-1.033-0.018l-0.682,0.116l-0.815,0.424l-0.123,0.083l-0.239,0.21l-3.299,7.043l-1.033,9.899
		l-8.87,5.329l-5.078,0.229l-0.736-12.288l-0.917-13.92l12.351-0.881L502.034,345.401"/>
	<path id="AR_Craighead" inkscape:label="Craighead, AR" fill="#cc2f4a" stroke="#FFFFFF" stroke-width="1.1376" d="M481.205,346.92
		l0.917,13.92l-6.177,0.181l-15.014,0.779l-7.072,0.232l-0.265-8.315l6.55-4.249l17.45-0.833l0.627-1.519L481.205,346.92"/>
	<path id="AR_Izard" inkscape:label="Izard, AR" fill="#d40000" stroke="#FFFFFF" stroke-width="1.1376" d="M428.043,337.608
		l-0.047,14.688l-5.067,3.726l-1.784-0.638l-7.282-3.614l0.946-3.07l-0.018-0.214l-0.682-0.83l-0.218-0.163l-4.473-3.415h-0.736
		l-0.032-1.957l2.012-0.838l-0.051-3.302L428.043,337.608"/>
	<path id="AR_Lawrence" inkscape:label="Lawrence, AR" fill="#d40000" stroke="#FFFFFF" stroke-width="1.1376" d="M444.199,336.625
		l4.546,4.005l2.548,2.222l1.175-1.635l8.808-0.377l2.24-0.098l0.015,0.182l-0.707,1.765l-1.029,0.993l-0.536,0.395l-1.468,4.1
		l0.354,1.291l-6.55,4.249l-6.26,0.094l-5.963,0.265l-0.146-6.271l-0.308-7.108l-0.051-2.632l0.656-0.703L444.199,336.625"/>
	<path id="AR_Sharp" inkscape:label="Sharp, AR" fill="#d40000" stroke="#FFFFFF" stroke-width="1.1376" d="M438.124,325.649
		l0.015,0.457l2.291,2.32l1.355,0.652l1.5,2.091l0.783,2.436l0.131,3.02l-2.675,0.736l-0.656,0.703l0.051,2.632l0.308,7.108
		l0.146,6.271l-4.031,0.116l-0.051-2.091l-9.294,0.196l0.047-14.688l4.709-0.051l3.918-5.568l-0.145-6.293L438.124,325.649"/>
	<path id="AR_Greene" inkscape:label="Greene, AR" fill="#d40000" stroke="#FFFFFF" stroke-width="1.1376" d="M461.095,335.324
		l3.386-0.25l12.183-0.294l2.679,1.226l0.084,1.392l4.57-0.33l-5.774,10.048l-0.627,1.519l-17.45,0.833l-0.354-1.291l1.468-4.1
		l0.536-0.395l1.029-0.993l0.707-1.765l-0.015-0.182l-2.24,0.098L461.095,335.324"/>
	<path id="AR_Clay" inkscape:label="Clay, AR" fill="#cc2f4a" stroke="#FFFFFF" stroke-width="1.1376" d="M469.084,323.953
		l13.249-0.754l0.996-0.065l1.472-0.047l3.332,4.705l0.362,0.485l0.242,3.712l-0.395,1.077l-0.261,0.41l-4.086,3.592l-4.57,0.33
		l-0.084-1.392l-2.679-1.226l-12.183,0.294l-3.386,0.25l0.225-10.951L469.084,323.953"/>
	<path id="AR_Randolph" inkscape:label="Randolph, AR" fill="#d40000" stroke="#FFFFFF" stroke-width="1.1376" d="M461.319,324.373
		l-0.225,10.951l0.181,5.517l-8.808,0.377l-1.175,1.635l-2.548-2.222l-4.546-4.005l-0.131-3.02l-0.783-2.436l-1.5-2.091
		l-1.355-0.652l-2.291-2.32l-0.015-0.457l10.457-0.555L461.319,324.373"/>
	<path id="AR_Fulton" inkscape:label="Fulton, AR" fill="#d40000" stroke="#FFFFFF" stroke-width="1.1376" d="M436.526,325.696
		l0.145,6.293l-3.918,5.568l-4.709,0.051l-17.432,0.374l-0.199-11.168l1.112-0.069l16.711-0.75L436.526,325.696"/>
	<path id="AR_Baxter" inkscape:label="Baxter, AR" fill="#d40000" stroke="#FFFFFF" stroke-width="1.1376" d="M396.282,327.396
		l14.13-0.583l0.199,11.168l0.051,3.302l-2.012,0.838l0.032,1.957h0.736l0.064,3.465l-3.951,4.183l-4.038,0.065l-0.047-4.104
		l-0.021-2.744l-0.942-2.193l-1.997-4.092l-1.729-2.044l-0.62-0.446l0.178-3.705L396.282,327.396"/>
	<path id="AR_Marion" inkscape:label="Marion, AR" fill="#d40000" stroke="#FFFFFF" stroke-width="1.1376" d="M387.216,327.708
		l9.066-0.312l0.032,5.068l-0.178,3.705l0.62,0.446l1.729,2.044l1.997,4.092l0.942,2.193l0.021,2.744l-15.996,0.225l-2.06-2.004
		l0.766-18.103L387.216,327.708"/>
	<path id="AR_Boone" inkscape:label="Boone, AR" fill="#d40000" stroke="#FFFFFF" stroke-width="1.1376" d="M384.157,327.806
		l-0.766,18.103l-2.026,0.015l-13.332,0.116l-0.341-17.743L384.157,327.806"/>
	<path id="AR_Carroll" inkscape:label="Carroll, AR" fill="#cc2f4a" stroke="#FFFFFF" stroke-width="1.1376" d="M367.693,328.296
		l0.341,17.743l-6.728,0.015h-2.683l-1.319-1.341l-1.029-1.435l-0.33-0.671v-1.765l-0.507-1.845l-1.012-1.156l-5.916-0.021
		l-2.105-9.001l10.522-0.261l10.045-0.247L367.693,328.296"/>
	<path id="AR_Benton" inkscape:label="Benton, AR" fill="#cc2f4a" stroke="#FFFFFF" stroke-width="1.1376" d="M338.545,328.98
		l7.859-0.163l2.105,9.001l-2.632,3.429l-4.64-0.029l-4.017,0.917l-8.003,0.41l-1.668,3.411L327.159,348l-6.046-0.033l-0.442-2.798
		l-2.306-15.866L338.545,328.98"/>
	<path id="AR_Washington" inkscape:label="Washington, AR" fill="#e27f90" stroke="#FFFFFF" stroke-width="1.1376" d="
		M321.113,347.968l6.046,0.033l0.392-2.044l1.668-3.411l8.003-0.41l4.017-0.917l4.64,0.029l-1.957,6.815l-0.358,12.158v3.415
		l-6.094-0.051l-4.658,0.577l-9.229-0.087L321.113,347.968"/>
	<path id="AR_Crawford" inkscape:label="Crawford, AR" fill="#d40000" stroke="#FFFFFF" stroke-width="1.1376" d="M343.563,363.634
		h2.66l-0.015,0.689l-0.685,0.681l-3.955,3.346l-0.112,4.973l-0.525,2.679l-0.703,2.251l-0.588,0.312l-2.24-0.225l-0.322,0.047
		l-0.232,0.13l-0.326,0.275l-0.159,0.359l0.178,0.392l0.555,0.493l0.163,0.293l0.145,0.504l-0.028,0.344l-0.116,0.297l-0.279,0.243
		l-2.385,1.077l-0.62,0.199l-2.613,0.196l-0.965-0.312l-0.881-1.095l-0.13-0.638l0.148-0.62v-0.178l-0.214-0.475l-1.243-0.964
		l-0.62-0.276l-0.508-0.098l-0.098,0.047l-0.688,2.45l-1.711-11.292l-0.866-5.669l9.229,0.087l4.658-0.577L343.563,363.634"/>
	<path id="AR_Sebastian" inkscape:label="Sebastian, AR" fill="#cc2f4a" stroke="#FFFFFF" stroke-width="1.1376" d="
		M326.159,381.034l0.688-2.45l0.098-0.047l0.508,0.098l0.62,0.276l1.243,0.964l0.214,0.475v0.178l-0.148,0.62l0.13,0.638
		l0.881,1.095l0.965,0.312l2.613-0.196l0.62-0.199l2.385-1.077l0.279-0.243l0.116-0.297l0.028-0.344l-0.145-0.504l-0.163-0.293
		l-0.555-0.493l-0.178-0.392l0.159-0.359l0.326-0.275l0.232-0.13l0.322-0.047l2.24,0.225l1.976,10.849l-0.028,3.443l-4.104-0.047
		l-0.015,2.059l-0.688,0.014l-2.418,1.019l-1.048,0.667v0.344l0.855,0.015v4.183l-1.294,0.537l-6.289,1.359l-0.671-0.131
		l0.229-21.024L326.159,381.034"/>
	<path id="AR_Scott" inkscape:label="Scott, AR" fill="#d40000" stroke="#FFFFFF" stroke-width="1.1376" d="M337.469,394.87v2.077
		l2.577,1.323l6.046,0.047l8.022-0.047l0.102,12.904l-1.327-0.01l-3.197,1.711l-1.802,2.174l-1.989,0.08v-0.685l-3.382-0.508
		l-11.437-0.019l-1.751-0.913l-3.513-0.475l0.098-9.653l0.671,0.131l6.289-1.359l1.294-0.537v-4.183l-0.855-0.015v-0.344
		l1.048-0.667l2.418-1.019L337.469,394.87"/>
	<path id="AR_Montgomery" inkscape:label="Montgomery, AR" fill="#d40000" stroke="#FFFFFF" stroke-width="1.1376" d="
		M366.29,410.965l-0.051,16.304l0.032,2.697h-20.244l-0.127-14.837l1.989-0.08l1.802-2.174l3.197-1.711l1.327,0.01L366.29,410.965"
		/>
	<path id="AR_Garland" inkscape:label="Garland, AR" fill="#cc2f4a" stroke="#FFFFFF" stroke-width="1.1376" d="M378.426,409.264
		l4.034-0.145l0.116,4.117l2.479,2.233l3.843,1.997l0.682,1.323l0.021,2.744l-4.658,0.036l-1.175,2.727l0.08,2.809l-17.609,0.163
		l0.051-16.304l4.017-1.52L378.426,409.264"/>
	<path id="AR_Saline" inkscape:label="Saline, AR" fill="#cc2f4a" stroke="#FFFFFF" stroke-width="1.1376" d="M391.088,405.016
		l3.396,2.469l4.02,3.871l5.604,3.875l6.147,1.889l0.322,4.121l-6.046,0.131l-5.717,2.143l-2.385,1.845l-1.91,0.21l-4.919-4.034
		l-0.021-2.744l-0.682-1.323l-3.843-1.997l-2.479-2.233l-0.116-4.117l-4.034,0.145l-0.079-4.052l3.937-0.163h5.372l3.056,0.805
		L391.088,405.016"/>
	<path id="AR_Pulaski" inkscape:label="Pulaski, AR" fill="#86b6f2" stroke="#FFFFFF" stroke-width="1.1376" d="M414.349,396.664
		l1.917-0.043l0.294,13.133l2.041,5.133l0.242,6.209l-6.807,0.109l-1.458,0.035l-0.322-4.121l-6.147-1.889l-5.604-3.875l-4.02-3.871
		l-3.396-2.469l-0.591,0.019l-0.029-2.712l3.951-0.768l2.798-0.704l1.139-0.786l3.005,0.852l7.746-0.08l1.189-4.104L414.349,396.664
		"/>
	<path id="AR_Lonoke" inkscape:label="Lonoke, AR" fill="#d40000" stroke="#FFFFFF" stroke-width="1.1376" d="M414.305,394.12
		l4.948,0.065l1.779,0.624l5.391,0.489l0.181,5.115l4.202-0.102l2.729,13.709l0.34,3.006l-0.018,0.717l-1.519,3.121h-1.044
		l-12.452,0.232l-0.242-6.209l-2.041-5.133l-0.294-13.133l-1.917,0.043L414.305,394.12"/>
	<path id="AR_Prairie" inkscape:label="Prairie, AR" fill="#d40000" stroke="#FFFFFF" stroke-width="1.1376" d="M426.423,395.297
		l12.694-3.364l0.116,1.226l0.185,0.518l3.64-0.163l0.127,6.55l0.46,16.42l-8.298,0.196l0.142,4.085l-1.123,0.098h-2.026
		l1.519-3.121l0.018-0.717l-0.34-3.006l-2.729-13.709l-4.202,0.102L426.423,395.297"/>
	<path id="AR_Monroe" inkscape:label="Monroe, AR" fill="#e27f90" stroke="#FFFFFF" stroke-width="1.1376" d="M443.185,400.064
		l2.813-0.131l-0.047-1.99l0.308-1.439l1.704-0.979l3.346-0.094l2.222,6.249l0.214,6.228l2.041-0.065l0.116,4.151l0.308,8.217
		l2.088-0.051l0.033,0.736l0.217,5.539l-2.063,0.079l-0.275,0.022l-1.211-0.461l-0.602-0.42l-3.479-3.764l-2.715-3.889l-1.255-1.599
		l-3.302,0.079L443.185,400.064"/>
	<path id="AR_Lee" inkscape:label="Lee, AR" fill="#86b6f2" stroke="#FFFFFF" stroke-width="1.1376" d="M453.529,401.681
		l-0.079-2.088l2.004-0.116l3.879,0.036l20.4-1.015l0.229,3.346l-5.88,9.363l-18.182,0.787l-0.116-4.151l-2.041,0.065
		L453.529,401.681"/>
	<path id="AR_Phillips" inkscape:label="Phillips, AR" fill="#4389e3" stroke="#FFFFFF" stroke-width="1.1376" d="M474.082,411.207
		l0.522,5.441l0.409,4.197l-0.275,0.898l-0.036,0.084l-0.083,0.064l-1.323,1.16l-1.664,0.798l-2.012,0.413l-2.005,0.392
		l-3.661,6.568l-1.735,3.577l-0.555,1.156l0.13,0.457l0.019,0.069l-7.17,0.358l1.841-10.327l2.063-0.079l-0.217-5.539l-0.033-0.736
		l-2.088,0.051l-0.308-8.217L474.082,411.207"/>
	<path id="AR_Jefferson" inkscape:label="Jefferson, AR" fill="#4389e3" stroke="#FFFFFF" stroke-width="1.1376" d="
		M418.843,421.096l12.452-0.232l0.275,11.697l4.578,0.037l2.012,0.094l0.388,0.279l3.596,4.184l0.508,1.783l-0.297,0.275
		l-0.211,0.098l-2.171,0.424l-2.896-0.945l-5.963-2.896l-0.881,3.303l-7.663,0.373l0.051,1.373l-10.77,0.522l-0.145-4.995
		l0.623-2.929l-0.293-12.335L418.843,421.096"/>
	<path id="AR_Grant" inkscape:label="Grant, AR" fill="#d40000" stroke="#FFFFFF" stroke-width="1.1376" d="M412.036,421.205
		l0.293,12.335l-0.623,2.929l0.145,4.995l-3.951,0.282l-3.592-2.957l-2.664-0.787h-7.062l-0.062-12.434l1.91-0.21l2.385-1.845
		l5.717-2.143l6.046-0.131L412.036,421.205"/>
	<path id="AR_Hot_Spring" inkscape:label="Hot Spring, AR" fill="#cc2f4a" stroke="#FFFFFF" stroke-width="1.1376" d="
		M389.602,421.534l4.919,4.034l0.062,12.434l-8.008-0.015l-3.918-0.019l-1.552-2.338l-12.773-2.939l-2.06-2.726l-0.032-2.697
		l17.609-0.163l-0.08-2.809l1.175-2.727L389.602,421.534"/>
	<path id="AR_Dallas" inkscape:label="Dallas, AR" fill="#e27f90" stroke="#FFFFFF" stroke-width="1.1376" d="M386.574,437.987
		l8.008,0.015h7.062l2.664,0.787l3.592,2.957l-5.194,0.522l-0.015,3.773l0.7,0.13l1.388,1.255l0.899,1.294l2.613,4.607l0.16,0.852
		l-9.621,0.015l-12.005,0.047l-0.87-3.918l0.619-4.22V437.987"/>
	<path id="AR_Cleveland" inkscape:label="Cleveland, AR" fill="#d40000" stroke="#FFFFFF" stroke-width="1.1376" d="
		M411.851,441.464l10.77-0.522l-0.312,12.825l0.182,4.104l-13.742,0.392l-0.297-4.082l-0.16-0.852l-2.613-4.607l-0.899-1.294
		l-1.388-1.255l-0.7-0.13l0.015-3.773l5.194-0.522L411.851,441.464"/>
	<path id="AR_Lincoln" inkscape:label="Lincoln, AR" fill="#cc2f4a" stroke="#FFFFFF" stroke-width="1.1376" d="M442.144,439.31
		l1.059,3.037l0.015,0.747l-1.613,1.146l-3.204,0.102l0.018,7.007l0.065,2.095l-16.174,0.323l0.312-12.825l-0.051-1.373l7.663-0.373
		l0.881-3.303l5.963,2.896l2.896,0.945L442.144,439.31"/>
	<path id="AR_Arkansas" inkscape:label="Arkansas, AR" fill="#cc2f4a" stroke="#FFFFFF" stroke-width="1.1376" d="M431.295,420.863
		h3.07l1.123-0.098l-0.142-4.085l8.298-0.196l3.302-0.079l1.255,1.599l2.715,3.889l3.479,3.764l0.602,0.42l1.211,0.461l0.275-0.022
		l-1.841,10.327l-1.899,1.291l-0.602,0.572l-0.315,0.508l-0.044,1.063l0.112,0.699l0.805,0.805l1.78,2.744l-0.689,0.917
		l-4.705-1.392l-2.302-1.407l-3.581-0.294l-1.059-3.037l0.211-0.098l0.297-0.275l-0.508-1.783l-3.596-4.184l-0.388-0.279
		l-2.012-0.094l-4.578-0.037L431.295,420.863"/>
	<path id="AR_Desha" inkscape:label="Desha, AR" fill="#86b6f2" stroke="#FFFFFF" stroke-width="1.1376" d="M461.813,436.483
		l1.732,1.388l0.409,1.016l-0.228,1.569l-7.551,3.803l-3.104,13.364l-0.214,1.063l0.051,0.094l0.232,0.414l1.156,0.866l1.095,0.884
		v0.048l-0.102,0.503l-0.685,0.588l-2.856,1.148l-0.605,2.106l-2.86,0.076l-1.059-0.648l-0.214-1.407l-4.02,0.2l-4.51-10.114
		l-0.065-2.095l-0.018-7.007l3.204-0.102l1.613-1.146l-0.015-0.747l3.581,0.294l2.302,1.407l4.705,1.392l0.689-0.917l-1.78-2.744
		l-0.805-0.805l-0.112-0.699l0.044-1.063l0.315-0.508l0.602-0.572l1.899-1.291L461.813,436.483"/>
	<path id="AR_Drew" inkscape:label="Drew, AR" fill="#cc2f4a" stroke="#FFFFFF" stroke-width="1.1376" d="M422.309,453.767
		l16.174-0.323l4.51,10.114l0.246,8.199l-20.701,0.485l-0.428-0.602l-0.635-1.877l-0.036-0.229l0.12-3.317l0.028-0.083l1.226-0.065
		l-0.322-8.199L422.309,453.767"/>
	<path id="AR_Bradley" inkscape:label="Bradley, AR" fill="#e27f90" stroke="#FFFFFF" stroke-width="1.1376" d="M408.748,458.262
		l13.742-0.392l0.322,8.199l-1.226,0.065l-0.028,0.083l-0.12,3.317l0.036,0.229l0.635,1.877l0.428,0.602l1.207,0.885l-0.522,3.61
		l-1.123,0.95l-0.772,0.213l-1.711,1.385l-1.442,1.882l-0.914,2.349l-3.433-2.609l-5.093-2.632l-0.102-0.504l0.102-0.298
		l-1.095-0.699l-0.232-1.457l0.167-1.457l0.326-0.192l0.163,0.062l0.652-1.649l0.881-2.624l0.294-1.457l-0.714-6.551
		L408.748,458.262"/>
	<path id="AR_Calhoun" inkscape:label="Calhoun, AR" fill="#cc2f4a" stroke="#FFFFFF" stroke-width="1.1376" d="M398.83,454.194
		l9.621-0.015l0.297,4.082l0.428,3.186l0.714,6.551l-0.294,1.457l-0.881,2.624l-0.652,1.649l-0.163-0.062l-0.326,0.192l-0.167,1.457
		l0.232,1.457l1.095,0.699l-1.146,0.998l-1.7,0.358l-0.75-0.032l-1.178-0.914l0.054-0.131l-0.362-1.453l-2.907-1.566l-0.555-0.148
		l-5.459-2.813l-2.446-2.795l-0.33-0.801l-0.131-1.664l1.696-4.934l0.265-0.214l2.581-0.442l0.178-0.141l1.258-1.979L398.83,454.194
		"/>
	<path id="AR_Ouachita" inkscape:label="Ouachita, AR" fill="#e27f90" stroke="#FFFFFF" stroke-width="1.1376" d="M386.825,454.241
		l12.005-0.047l-1.029,4.607l-1.258,1.979l-0.178,0.141l-2.581,0.442l-0.265,0.214l-1.696,4.934l0.131,1.664l0.33,0.801l2.446,2.795
		l5.459,2.813l-15.996,0.084l-5.456-3.4v-15.229L386.825,454.241"/>
	<path id="AR_Nevada" inkscape:label="Nevada, AR" fill="#cc2f4a" stroke="#FFFFFF" stroke-width="1.1376" d="M368.103,447.901
		l2.791,4.006l6.028,2.563l0.815,0.457l1,1.112v15.229l-9.656,0.682l-4.607-1.353l0.019-9.247l0.406-7.155v-6.21L368.103,447.901"/>
	<path id="AR_Hempstead" inkscape:label="Hempstead, AR" fill="#cc2f4a" stroke="#FFFFFF" stroke-width="1.1376" d="
		M350.718,445.896l14.181,2.088v6.21l-0.406,7.155l-0.019,9.247l-9.315-0.051l-4.129-5.912l-5.23-6.503l4.868,0.029L350.718,445.896
		"/>
	<path id="AR_Clark" inkscape:label="Clark, AR" fill="#e27f90" stroke="#FFFFFF" stroke-width="1.1376" d="M363.578,429.966h2.693
		l2.06,2.726l12.773,2.939l1.552,2.338l3.918,0.019v8.116l-0.619,4.22l0.87,3.918l-8.088,1.798l-1-1.112l-0.815-0.457l-6.028-2.563
		l-2.791-4.006l-2.255-4.197l-0.576-1.584l-1.664-8.04L363.578,429.966"/>
	<path id="AR_Pike" inkscape:label="Pike, AR" fill="#d40000" stroke="#FFFFFF" stroke-width="1.1376" d="M346.027,429.966h17.551
		l0.029,4.114l1.664,8.04l0.576,1.584l2.255,4.197l-3.204,0.083l-14.181-2.088l-0.098-8.221l-4.05-0.036l-0.507-3.593
		L346.027,429.966"/>
	<path id="AR_Howard" inkscape:label="Howard, AR" fill="#cc2f4a" stroke="#FFFFFF" stroke-width="1.1376" d="M346.027,429.966
		l0.036,4.081l0.507,3.593l4.05,0.036l0.098,8.221l-0.051,12.264l-4.868-0.029h-0.065l-4.31-7.742l-0.164-0.476l-0.754-4.966
		l-0.278-2.236l-0.116-3.549l0.148-1.421l-0.424-0.2l-5.507,0.066L333.793,434l-0.021-4.053L346.027,429.966"/>
	<path id="AR_Polk" inkscape:label="Polk, AR" fill="#aa0000" stroke="#FFFFFF" stroke-width="1.1376" d="M325.819,412.53
		l3.513,0.475l1.751,0.913l11.437,0.019l3.382,0.508v0.685l0.127,14.837l-12.256-0.019l0.021,4.053l0.536,3.607l-8.706,0.264
		L325.819,412.53"/>
	<path id="AR_Sevier" inkscape:label="Sevier, AR" fill="#d40000" stroke="#FFFFFF" stroke-width="1.1376" d="M334.329,437.607
		l5.507-0.066l0.424,0.2l-0.148,1.421l0.116,3.549l0.278,2.236l0.754,4.966l0.164,0.476l4.31,7.742l-3.201-0.047l-10.164-3.009
		l-6.829-5.491l0.084-11.713L334.329,437.607"/>
	<path id="AR_Little_River" inkscape:label="Little River, AR" fill="#cc2f4a" stroke="#FFFFFF" stroke-width="1.1376" d="
		M325.539,449.584l6.829,5.491l10.164,3.009l3.201,0.047h0.065l5.23,6.503l-8.366,2.89l-0.932-0.77l-0.718-0.293l-3.759-0.754
		l-2.175,0.315l-0.569,0.069l-0.195,0.177l-3.76,1.907l-2.091-1.143l-0.569-0.373l-1.588-1.015l-0.257-0.345l-0.298-0.682
		l-0.308-0.801L325.539,449.584"/>
	<path id="AR_Miller" inkscape:label="Miller, AR" fill="#d40000" stroke="#FFFFFF" stroke-width="1.1376" d="M351.029,464.634
		l4.129,5.912l-0.275,3.005l2.682,3.973v0.247l-0.638,2.073l-2.925,5.162l-0.279,0.358l-0.275,0.261l-0.457,0.069l-2.189,3.886
		l1.682,2.762h-0.377l-8.917,0.196l-0.525-25.015L351.029,464.634"/>
	<path id="AR_Lafayette" inkscape:label="Lafayette, AR" fill="#cc2f4a" stroke="#FFFFFF" stroke-width="1.1376" d="
		M355.158,470.546l9.315,0.051l4.607,1.353l-0.424,0.54l-3.857,8.235l-0.047,11.357l-1.196,0.014l-11.074,0.246l-1.682-2.762
		l2.189-3.886l0.457-0.069l0.275-0.261l0.279-0.358l2.925-5.162l0.638-2.073v-0.247l-2.682-3.973L355.158,470.546"/>
	<path id="AR_Columbia" inkscape:label="Columbia, AR" fill="#cc2f4a" stroke="#FFFFFF" stroke-width="1.1376" d="M369.081,471.949
		l9.656-0.682l5.456,3.4l0.145,16.888l-9.751,0.265l-9.834,0.262l0.047-11.357l3.857-8.235L369.081,471.949"/>
	<path id="AR_Union" inkscape:label="Union, AR" fill="#cc2f4a" stroke="#FFFFFF" stroke-width="1.1376" d="M384.194,474.668
		l15.996-0.084l0.555,0.148l2.907,1.566l0.362,1.453l-0.054,0.131l1.178,0.914l0.75,0.032l1.7-0.358l1.146-0.998l-0.102,0.298
		l0.102,0.504l5.093,2.632l3.433,2.609l2.973,7.159l-25.603,0.688l-10.291,0.192L384.194,474.668"/>
</g>
</svg>