<?xml version="1.0" encoding="utf-8"?>
<!-- Generator: Adobe Illustrator 16.0.0, SVG Export Plug-In . SVG Version: 6.00 Build 0)  -->
<!DOCTYPE svg PUBLIC "-//W3C//DTD SVG 1.1//EN" "http://www.w3.org/Graphics/SVG/1.1/DTD/svg11.dtd">
<svg version="1.1"
	 id="Map_of_the_counties_of_California_x2C__without_legend" xmlns:svg="http://www.w3.org/2000/svg" xmlns:rdf="http://www.w3.org/1999/02/22-rdf-syntax-ns#" xmlns:cc="http://creativecommons.org/ns#" xmlns:sodipodi="http://sodipodi.sourceforge.net/DTD/sodipodi-0.dtd" xmlns:dc="http://purl.org/dc/elements/1.1/" xmlns:inkscape="http://www.inkscape.org/namespaces/inkscape" inkscape:version="0.48.3.1 r9886" sodipodi:docname="CA2008Prop12 (copy).svg" sodipodi:version="0.32" inkscape:output_extension="org.inkscape.output.svg.inkscape"
	 xmlns="http://www.w3.org/2000/svg" xmlns:xlink="http://www.w3.org/1999/xlink" x="0px" y="0px" width="620.8px" height="733px"
	 viewBox="0 0 620.8 733" enable-background="new 0 0 620.8 733" xml:space="preserve">
<defs>
	
	
		<inkscape:perspective  id="perspective74" inkscape:vp_z="620.84302 : 366.513 : 1" inkscape:vp_y="0 : 1000 : 0" inkscape:vp_x="0 : 366.513 : 1" sodipodi:type="inkscape:persp3d" inkscape:persp3d-origin="310.42151 : 244.342 : 1">
		</inkscape:perspective>
</defs>
<sodipodi:namedview  bordercolor="#666666" pagecolor="#ffffff" objecttolerance="10.0" borderopacity="1.0" guidetolerance="10.0" inkscape:cx="89.6583" showgrid="false" inkscape:cy="381.46467" inkscape:zoom="0.47653255" gridtolerance="10.0" id="base" inkscape:window-width="1280" inkscape:window-y="24" inkscape:current-layer="Map_of_the_counties_of_California_x2C__without_legend" inkscape:pageopacity="0.0" inkscape:window-height="715" inkscape:window-maximized="0" inkscape:pageshadow="2" inkscape:window-x="55">
	</sodipodi:namedview>
<g id="_x30_95_Solano" transform="matrix(0.994824,0,0,0.995244,19.02283,-0.871276)">
</g>
<path id="Del_Norte_x2C__CA" inkscape:connector-curvature="0" fill="#E27F90" stroke="#FFFFFF" stroke-width="1.1376" d="
	M26.017,13.875l21.256,1.383l16.724,0.511l-0.869,3.202L61.4,22.718l-3.678,1.242l-3.844,5.93l0.576,19.775l1.013,1.409l1.786,4.538
	l-0.082,1.017l-1.805,3.434l-1.019,1.248l-3.048-0.242l-2.886-2.273l0.323-4.064l-6.408-0.407L32.247,53.83l-0.532-6.176
	l-0.692-4.145l-2.012-8.132l-0.155-0.627l-0.232-0.937l-0.545-0.862l-1.687-12.197L26.017,13.875"/>
<path id="Siskiyou_x2C__CA" inkscape:connector-curvature="0" fill="#E27F90" stroke="#FFFFFF" stroke-width="1.1376" d="
	M63.919,15.456l15.708,0.431l0,0l3.985,0.01l6.097,0.484l2.343,0.084l1.329,0.002l18.755,0.673l7.27-0.138l6.644,0.017l1.719,0.239
	l3.047,0.242l46.03,2.227l-0.478,3.437l-0.162,2.033l-0.339,10.706l0.077,0.313l0.391,0.235l0.09,25.87l-0.438,18.366l-30.789-1.015
	l-16.1-0.666l-11.645-0.108l-0.527-7.504l-7.263-2.521L99.484,76.04l-5.81,10.066l1.477,3.289l-0.316,1.404l-1.019,1.249
	L92.8,91.966l-4.608-1.185l-9.052-5.727l-5.537-4.938l-3.121-1.883l-3.045-1.571l-3.168-14.154l-1.324-1.333l-8.752-0.49l1.018-1.25
	l1.806-3.434l0.082-1.015l-1.786-4.538l-1.013-1.41l-0.576-19.774l3.845-5.93l3.678-1.241l1.728-3.747L63.919,15.456"/>
<path id="Imperial_x2C__CA" inkscape:connector-curvature="0" fill="#4389E3" stroke="#FFFFFF" stroke-width="1.1376" d="
	M491.457,658.283l38.145-1.469l31.186-1.414l8.132-0.683l12.509-0.435l-5.561,3.035l1.977,22.747l0,0l2.102,3.137l3.278,1.18
	l1.013,0.079l5.556-0.375l0.39,0.234l0.395,0.234l2.883,3.611l0.537,4.847l-0.161,2.03l0,0l-1.576,4.373l-7.128,7.407l-6.412,0.917
	l-0.32,0.079l-45.733,5.671l-0.938,0.231l-5.158,0.616l-19.313,2.448l-8.364,1.077l-6.101,0.841l-0.123-12.581l0.681-21.408
	l-0.138-8.603L491.457,658.283"/>
<path id="Riverside_x2C__CA" sodipodi:nodetypes="ccccccccccccccccccccccccccccccccccccccc" inkscape:connector-curvature="0" fill="#B9D7FF" stroke="#FFFFFF" stroke-width="1.1376" d="
	M590.302,605.619l-3.463,8.822l-0.868,3.195l-0.17,6.024l0.227,2.258l0.526,8.838l-0.178,8.68l-5.105,10.216l-12.505,0.441
	l-8.132,0.688l-31.188,1.405l-38.146,1.465l-13.206,0.289l-19.462,0.497l-13.522,0.355l-24.854,0.174l0.004-1.327l-7.649-4.086
	l-8.908,0.212l-0.23-2.268l5.964-9.439l-3.902-2.354l-3.748-0.396l-3.037-4.228l-5.844-7.518l1.023-3.914l5.96-8.114l8.914-0.203
	l2.343,0.084l0.936,1.093l8.517,0.878l18.133-0.501l7.585-1.544l15.324-1.132l44.473-1.374l30.953-1.016l-0.148-3.283l11.491-0.519
	L590.302,605.619"/>
<path id="San_Diego_x2C__CA" inkscape:connector-curvature="0" fill="#86B6F2" stroke="#FFFFFF" stroke-width="1.1376" d="
	M403.54,654.462l8.911-0.203l7.648,4.081v1.33l24.854-0.172l13.519-0.364l19.467-0.49l13.205-0.284l0.659,17.428l0.137,8.604
	l-0.68,21.404l0.125,12.587l-5.786,0.764l-11.886,1.614l-11.883,1.612l-17.045,2.216l-16.419,2.066l-0.313,0.078l-5.752-11.182
	l-3.159-18.143l-0.155-0.625l0,0l-0.927-3.752l-0.386-1.563l-2.175-6.101l-0.856-2.116l-2.102-3.13l-0.076-0.313l-5.143-7.363
	l-1.479-1.963l-0.391-0.233l-1.946-2.506l-2.572-2.344l-1.562-0.939l-1.482-0.632L403.54,654.462"/>
<path id="Orange_x2C__CA" inkscape:connector-curvature="0" fill="#B9D7FF" stroke="#FFFFFF" stroke-width="1.1376" d="
	M386.193,621.904l6.707,5.646l5.844,7.518l3.039,4.229l3.748,0.396l3.822,3.365l-5.967,9.443l0.229,2.269l-5.102,8.896l-0.702-1.486
	l-1.477-1.955l-0.861-0.786l-14.352-11.057l-11.468-8.784l-2.884-2.266l0.869-3.2l2.122-4.841l4.94-6.864l2.896-0.378l0.624-0.155
	L386.193,621.904"/>
<path id="Los_Angeles_x2C__CA" inkscape:connector-curvature="0" fill="#1666CB" stroke="#FFFFFF" stroke-width="1.1376" d="
	M351.906,706.076l-4.459,0.769l-3.667-2.754l-0.466-0.538l-2.335-4.074l-3.185-7.51l1.719,0.239l11.693,12.38L351.906,706.076
	L351.906,706.076 M336.709,658.047L336.709,658.047l-0.468-0.549l0,0l0.312-0.077l3.362,0.166l4.135,1.963l3.358,1.494l2.652,1.335
	l4.208,4.938l0.468,0.544l0.311,1.254l-0.162,0.694l-0.78,0.864l0,0l-0.626,0.154l-8.045-1.663l-0.707-0.166L336.709,658.047
	 M392.613,556.586l0.344,17.505l0.522,10.169l0.761,8.443l0.228,3.602l-1.667,9.366l-2.046,6.49l-0.714,2.485l-3.6,2.891
	l-1.099,2.265l0.152,0.623l0.622,1.176l0.78,0.462l-8.286,0.06l-0.625,0.154l-2.894,0.384l-4.942,6.858l-2.121,4.849l-0.868,3.197
	l-4.226,1.708l-4.69,1.161l-2.423-0.396l-1.094-0.395l-4.762-1.811l-0.78-0.465l-0.935-2.434l0.236-0.389l1.02-1.247l0.626-0.156
	l0.158-0.704l-0.154-1.957l-1.162-3.364l-0.7-1.486l-0.229-0.929l-0.777-1.798l-1.168-2.035l-1.479-1.957l0,0l-0.078-0.313l0,0
	l-0.937-1.098l0,0l-0.778-0.468l-0.079-0.315l-0.313,0.077l-1.17-0.705l-1.72-0.24l-5.94,0.145l-4.534,0.453l-2.424,0.939
	l-9.764-1.899l0.16-2.037l5.012-3.897l4.227-3.035l7.271-0.139l2.046-6.491l-0.307-2.576l-14.833-37.161l-0.853-2.109
	L392.613,556.586"/>
<path id="Ventura_x2C__CA" inkscape:connector-curvature="0" fill="#86B6F2" stroke="#FFFFFF" stroke-width="1.1376" d="
	M285.081,551.311l3.749,0.392l6.326,1.425l1.09,1.721l0.777,1.807l16.017,3.014l5.627-0.067l14.833,37.164l0.308,2.581l-2.051,6.477
	l-7.269,0.141l-4.225,3.044l-5.012,3.895l-0.164,2.03l-9.287-4.001l-12.472-12.849l-7.801-6.04l-1.716-1.564l-0.704-0.164
	l1.256-1.634l0.546-0.472l0.4-3.752L285.081,551.311"/>
<path id="Santa_Barbara_x2C__CA" inkscape:connector-curvature="0" fill="#4389E3" stroke="#FFFFFF" stroke-width="1.1376" d="
	M235.517,618.008l10.87-1.69l5.773,3.215l0.618,2.499l0.08,0.321l-0.313,0.077l-8.215,3.026l-0.625,0.154l-2.731-1.646l-0.469-0.553
	L235.517,618.008 M265.773,614.177l2.576,1.024l6.409,0.408l0.312-0.078l0,0l0,0l0.313-0.077l0.235-0.392l0.313-0.077l1.564-0.387
	l2.264,1.101l0.466,0.547l0,0l0,0l0,0l-1.488,2.029l-0.549,0.467l-0.313,0.077l-9.932,2.787l-2.344-0.08l-2.425-0.406l0,0
	l-0.702-0.158l-2.109-0.474l-1.872-0.859l-0.078-0.312l-2.878-6.269l0.161-0.692l0.311-0.077l3.437,0.472L265.773,614.177
	 M212.489,545.032l9.304-1.307l3.436,0.471l3.588,2.432l3.603-1.546l3.21-3.119l10.722-6.31l1.248,1.02l4.216,2.277l12.333,5.579
	l15.303,6.842l2.658,0.003l0.938-0.232l1.955-0.151l-0.083,33.217l-0.398,3.758l-0.549,0.47l-1.255,1.636l-4.995-2.749l-3.438-0.479
	l-3.204,0.463l-0.94,0.231l0,0l-3.441,0.852l-7.735-0.407l-3.121-1.887l-5.154-2.045l-1.719-0.236l-4.766-0.48l-3.986-0.013
	l-4.613,0.146l-5.158,0.61l-6.177,0.533l-9.908-7.849l-0.765-5.782l-0.967-20.012L212.489,545.032"/>
<path id="San_Luis_Obispo_x2C__CA" sodipodi:nodetypes="cccccccccccccccccccccccccccccccccccccccccccccccccccccc" inkscape:connector-curvature="0" fill="#86B6F2" stroke="#FFFFFF" stroke-width="1.1376" d="
	M171.926,483.029l67.444,1.576l1.329,0.003l-0.11,12.975l7.813,0.722l0.375,6.881l4.911,5.09l5.782,0.562l-0.33,6.722l4.767,0.481
	l-0.483,6.102l6.644,0.018l2.028,1.488l0.689,5.474l2.736-1.016l3.05,0.25l0.447,7.184l4.455,0.558l-0.11,12.975l-0.94,0.232
	l-2.656-0.005l-15.303-6.842l-12.333-5.58l-4.215-2.276l-1.248-1.021l-10.724,6.305l-3.212,3.121l-3.601,1.543l-3.589-2.431
	l-3.436-0.47l-9.305,1.307l0.474-2.114l0,0l0.473-2.112l0.161-2.039l0.006-1.319l0.003-1.326l-0.077-0.313l0,0l-0.388-1.565l0,0
	l-0.62-1.171l-0.469-0.552l-0.78-0.466l-2.342-1.417l-0.39-0.239l-0.706-0.165l-8.799-12.757l-14.104-15.423l-8.656-8.155
	l-1.171-0.706l-0.78-0.471l-1.714-2.896L171.926,483.029"/>
<path id="Kern_x2C__CA" sodipodi:nodetypes="ccccccccccccccccccccccccccccccccccccc" inkscape:connector-curvature="0" fill="#E27F90" stroke="#FFFFFF" stroke-width="1.1376" d="
	M279.619,484.94l28.919,0.151l32.823-0.155l26.107-0.478l3.674,0.089l22.354-0.881l-0.72,6.48l-0.084,2.341l1.463,8.602
	l0.719,55.254l-2.029-0.156l-74.098,1.063l0.857,2.113l-5.628,0.066l-16.015-3.012l-0.779-1.81l-1.09-1.719l-6.326-1.426
	l-3.75-0.392l-1.956,0.144l0.113-12.965l-4.454-0.56l-0.451-7.191l-3.048-0.242l-2.737,1.011l-0.691-5.478l-2.028-1.488
	l-6.644-0.016l0.485-6.095l-4.766-0.48l0.329-6.721l-5.784-0.569l-4.91-5.086l-0.373-6.883l-7.815-0.724l0.112-12.969
	L279.619,484.94"/>
<path id="San_Bernardino_x2C__CA" sodipodi:nodetypes="cccccccccccccccccccccccccccccccccccccccccccccccccccccccc" inkscape:connector-curvature="0" fill="#86B6F2" stroke="#FFFFFF" stroke-width="1.1376" d="
	M393.497,483.667l15.242-0.12l98.014-2.333l5.319-1.314l15.828,14.344l5.537,4.938l2.107,1.802l29.162,26.649l10.683,9.63
	l0.137,8.605l0.23,0.939l0.079,0.311l5.141,7.369l5.613,5.252l1.01,2.728l7.618,14.713l4.84,3.454l3.979,2.664l3.975,3.997
	l0.458,3.206l0,0l-6.42,6.237l-4.468,3.43l-6.808,4.668l-42.053,1.771l-11.49,0.521l0.148,3.284l-30.954,1.015l-44.474,1.379
	l-15.323,1.124l-7.584,1.545l-18.132,0.503l-8.518-0.876l-0.935-1.098l-2.346-0.081l-8.907,0.211l-5.963,8.112l-1.024,3.907
	l-6.71-5.647l-0.777-0.463l-0.623-1.175l-0.154-0.626l1.102-2.267l3.6-2.886l0.711-2.492l2.047-6.489l1.668-9.368l-0.229-3.603
	l-0.761-8.444l-0.522-10.167l-0.347-17.509l2.032,0.164l-0.721-55.26l-1.466-8.602l0.088-2.339L393.497,483.667"/>
<path id="Inyo_x2C__CA" inkscape:connector-curvature="0" fill="#E27F90" stroke="#FFFFFF" stroke-width="1.1376" d="
	M325.109,360.159l54.946-0.641l39.536,36.365l1.324,1.333l8.498,7.522l4.758,4.468l26.123,23.745l21.053,19.361l2.574,2.35
	l11.227,10.502l0.858,0.784l15.438,14.098l-5.32,1.316l-98.012,2.334l-15.244,0.111l-22.354,0.888l1.348-6.642l0.084-3.672
	l-1.473-4.616l-7.366-23.072l-9.945-22.769l-3.882-10.329l-0.216-7.58l-0.304-3.909l-0.695-2.816l-3.104-8.525l-1.014-1.409
	l-5.539-3.61l-1.252,0.311l-5.152-2.047l-0.313,0.078l-0.858-0.782l-6.297-13.383l-1.081-4.379L325.109,360.159"/>
<path id="Tulare_x2C__CA" sodipodi:nodetypes="ccccccccccccccccccccccccccc" inkscape:connector-curvature="0" fill="#E27F90" stroke="#FFFFFF" stroke-width="1.1376" d="
	M349.593,413.526l3.885,10.328l9.944,22.768l7.366,23.073l1.476,4.615l-0.091,3.673l-1.344,6.642l-3.673-0.088l-26.105,0.479
	l-32.826,0.152l-28.918-0.151l0.219-24.617l0.495-10.079l1.722-1.093l1.641-0.074l-0.132-9.926l-2.734-0.32l-0.533-6.178
	l-2.655-0.004l6.346-6.549l8.833-0.524l0.561-5.783l7.66,0.097l11.332,0.186l0.094-6.332l26.184-0.166L349.593,413.526"/>
<path id="Kings_x2C__CA" sodipodi:nodetypes="ccccccccccccccccc" inkscape:connector-curvature="0" fill="#E27F90" stroke="#FFFFFF" stroke-width="1.1376" d="
	M278.031,432.885l2.659,0.008l0.53,6.174l2.736,0.321l0.13,9.927l-1.642,0.071l-1.723,1.091l-0.493,10.082l-0.218,24.619
	l-39.235-0.256l-1.33-0.008l-5.838-8.845l21.545-20.268l-0.04-16.258l8.989,0.101l8.366-1.072L278.031,432.885"/>
<path id="Madera_x2C__CA" inkscape:connector-curvature="0" fill="#E27F90" stroke="#FFFFFF" stroke-width="1.1376" d="
	M296.088,339.454l4.376,0.245l3.75,0.401l0.857,0.784l2.729,2.979l2.482,7.351l-14.81,15.282l-2.115,2.183l-0.708,1.171
	l-0.314,1.406l0.147,3.283l0.31,1.253l0.155,0.622l-0.555,3.127l-0.708,1.17l-1.178,1.951l-1.332,1.324l-8.286,1.389l-2.427,0.93
	l-7.68,7.874l-2.114,2.183l-0.472,0.782l-2.982,5.387l-0.552,1.796l-1.255,1.635l-0.313,0.079l-24.318,5.018l-3.596,0.227
	l-4.84-2.123l-3.042-2.901l-0.935-1.095l-0.544-0.859l-0.623-1.177l-4.582-11.813l3.998-3.975l10.639-3.956l8.754-0.841l5.632-1.394
	l17.317-17.226l6.33,0.094l3.921-5.619l0.091-5.001l15.906-16.218L296.088,339.454"/>
<path id="Fresno_x2C__CA" sodipodi:nodetypes="ccccccccccccccccccccccccccccccccccccccccccccccccccccccccccccccccc" inkscape:connector-curvature="0" fill="#B9D7FF" stroke="#FFFFFF" stroke-width="1.1376" d="
	M325.109,360.159l-0.716,5.157l1.082,4.381l6.298,13.38l0.857,0.784l0.313-0.078l5.154,2.046l1.25-0.31l5.542,3.607l1.011,1.411
	l3.106,8.525l0.696,2.816l0.301,3.909l0.218,7.583l-10.632-0.027l-26.182,0.167l-0.094,6.331l-11.333-0.186l-7.658-0.098
	l-0.562,5.784l-8.834,0.525l-6.347,6.549l-5.642,5.376l-8.366,1.073l-8.987-0.102l0.038,16.26l-21.545,20.266l-14.744-11.29
	l-4.677-4.155l-1.319-3.99l-0.292-7.893l2.042-3.826l3.361,0.164l-0.828-12.742l-18.319-19.037l22.721-22.218l4.582,11.815
	l0.623,1.172l0.543,0.86l0.937,1.098l3.041,2.897l4.84,2.123l3.597-0.225l24.318-5.02l0.313-0.077l1.255-1.637l0.553-1.796
	l2.982-5.388l0.471-0.779l2.116-2.184l7.678-7.873l2.427-0.932l8.286-1.385l1.333-1.327l1.177-1.951l0.707-1.171l0.555-3.123
	l-0.155-0.626l-0.31-1.252l-0.147-3.285l0.315-1.402l0.707-1.174l2.115-2.183l14.81-15.281L325.109,360.159"/>
<path id="Monterey_x2C__CA" sodipodi:nodetypes="cccccccccccccccccccccccccccccccccccccccccccccccccccccccc" inkscape:connector-curvature="0" fill="#4389E3" stroke="#FFFFFF" stroke-width="1.1376" d="
	M156.189,400.612l0.074,1.641l1.167,2.036l6.627,6.66l7.638,8.069l4.447,3.214l0.915,9.068l2.815-0.697l11.299,13.475l0.539,3.517
	l3.908-0.303l12.878,6.439l1.719,0.239l0.313-0.076l0.236-0.39l1.81-4.763l0.292,7.893l1.319,3.989l4.68,4.156l14.744,11.291
	l5.838,8.847l-67.444-1.579l-2.497-2.037l-4.208-4.934l-0.696-2.816l-0.309-1.25l-0.542-2.19L162.897,468l-0.077-0.313
	l-10.129-12.765l-2.184-2.116l-3.588-2.431l-1.092-0.396l0,0l-0.627,0.155l-0.391-0.235l-0.779-0.471l-0.545-0.86l-2.338-2.741
	l-0.936-1.098l-0.309-1.25l-2.61-18.611l3.68-2.567l0,0l0.938-0.233l0.548-0.467l1.021-1.247l0.706-1.17l0.472-0.781l0.551-1.795
	l0.396-2.424l1.347-6.641l-0.233-0.939l-0.931-2.424l-0.077-0.312L156.189,400.612"/>
<path id="San_Benito_x2C__CA" sodipodi:nodetypes="ccccccccccccccccccccccccccccccc" inkscape:connector-curvature="0" fill="#86B6F2" stroke="#FFFFFF" stroke-width="1.1376" d="
	M156.189,400.612l3.596-0.227l4.31-4.053l5.236-0.301l12.035,0.344l-0.941,1.563l-0.159,0.702l0.078,0.313l0.545,0.86l4.753,5.798
	l12.254,6.594l0.857,0.783l18.319,19.039l0.826,12.74l-3.36-0.162l-2.041,3.823l-1.811,4.762l-0.235,0.393l-0.313,0.077
	l-1.719-0.239l-12.879-6.442l-3.908,0.305l-0.539-3.522l-11.298-13.468l-2.815,0.696l-0.916-9.07l-4.446-3.216l-7.638-8.069
	l-6.627-6.66l-1.168-2.035L156.189,400.612"/>
<path id="Merced_x2C__CA" inkscape:connector-curvature="0" fill="#86B6F2" stroke="#FFFFFF" stroke-width="1.1376" d="
	M230.885,346.949l6.22,13.068l0.232,0.938l0.078,0.314l-0.236,0.39l5.595,13.225l2.104,1.8l5.381,4.313l-5.63,1.392l-8.833,0.526
	l-10.64,3.96l-3.996,3.974l-22.722,22.218l-0.856-0.783l-12.253-6.594l-4.754-5.798l-0.544-0.86l-0.077-0.312l0.158-0.704
	l0.941-1.562l-0.857-0.784l-0.544-0.859l-0.078-0.315l0.242-3.046l1.41-1.011l0.789-2.188l0.009-3.986l-0.545-0.859l15.749-15.514
	l-0.619-2.505l-0.467-0.547l-0.39-0.236l7.515-4.514L230.885,346.949"/>
<path id="Santa_Cruz_x2C__CA" inkscape:connector-curvature="0" fill="#1666CB" stroke="#FFFFFF" stroke-width="1.1376" d="
	M127.426,370.213l0.232,0.939l0.077,0.312l2.337,2.743l4.286,5.248l2.106,1.802l4.605,2.512l2.966,1.257l6.244,3.77l9.277,9.323
	l0.467,0.55l-0.003,1.327l-3.596,0.225l-9.855,3.102l-0.855-2.112l-1.943-3.834l-1.013-1.409l-0.856-0.783l-0.781-0.472
	l-1.483-0.629l-0.626,0.154l-2.661,1.323l-2.501,0.619l-1.329-0.006l-1.018-0.079l-0.39-0.233l-0.312,0.077l-1.018-0.083
	l-0.701-0.157l-2.81-1.959l-2.964-2.586l-2.493-3.369l-2.257-3.758l-0.774-3.128l-0.383-2.894l4.538-1.786l5.315,0.016l0.081-1.019
	L127.426,370.213"/>
<path id="San_Mateo_x2C__CA" inkscape:connector-curvature="0" fill="#1666CB" stroke="#FFFFFF" stroke-width="1.1376" d="
	M114.533,338.214L114.533,338.214l0.528,7.505l0.935,1.096l11.004,6.905l0.702,0.159l1.719,0.239l0.862-0.545l0,0l1.557,2.27
	l-4.489,14.056l0.065,4.3l-0.079,1.015l-5.315-0.013l-4.537,1.787l0.383,2.892l0.773,3.128l-0.468-0.549l-2.183-2.114l-3.118-3.214
	l-0.468-0.549l-0.851-3.441l-3.704-19.001l0.021-7.972l0.334-8.049L114.533,338.214"/>
<path id="Alameda_x2C__CA" inkscape:connector-curvature="0" fill="#1666CB" stroke="#FFFFFF" stroke-width="1.1376" d="
	M119.413,324.394l2.501-0.619l0.391,0.235l2.183,2.115l1.789,3.21l0.701,1.486l12.173,7.613l19.865-5.578l3.991-1.319l-0.178,8.676
	l-0.343,12.035l0.544,0.86l4.29,3.918l0,0l-22.43-0.759l-0.625,0.154l-0.549,0.469l-0.235,0.39l-1.8,0.776l-0.938,0.231
	l-7.502-0.799l-1.247-1.02l-1.557-2.271l-3.094-12.514l-7.476-11.429L119.413,324.394"/>
<path id="Santa_Clara_x2C__CA" inkscape:connector-curvature="0" fill="#1666CB" stroke="#FFFFFF" stroke-width="1.1376" d="
	M131.916,356.157l1.247,1.019l7.502,0.802l0.938-0.232l1.8-0.778l0.235-0.39l0.549-0.468l0.625-0.155l22.429,0.759l-0.861,0.546
	l0.617,3.832l6.129,18.068l7.572,3.771l0.543,0.86l-0.009,3.987l-0.787,2.185l-1.409,1.014l-0.243,3.049l0.077,0.312l0.545,0.86
	l0.857,0.782l-12.035-0.342l-5.238,0.3l-4.309,4.055l0.004-1.33l-0.469-0.548l-9.276-9.325l-6.243-3.767l-2.967-1.257l-4.605-2.515
	l-2.105-1.802l-4.285-5.246l-2.337-2.743l-0.077-0.312l-0.232-0.94L131.916,356.157"/>
<path id="Stanislaus_x2C__CA" inkscape:connector-curvature="0" fill="#F2B3BE" stroke="#FFFFFF" stroke-width="1.1376" d="
	M200.256,313.031l15.584,18.719l15.359,15.123l0,0l-27.936,13.216l-7.515,4.514l0.39,0.236l0.467,0.547l0.619,2.505l-15.749,15.514
	l-7.572-3.771l-6.128-18.072l-0.616-3.83l0.861-0.545l0,0l12.537-12.395l2.116-2.183l1.098-0.937l5.869-3.111l1.406,0.317
	l2.97-0.071l3.205-0.462l2.897-1.71l-0.134-8.599L200.256,313.031"/>
<path id="Mariposa_x2C__CA" inkscape:connector-curvature="0" fill="#E27F90" stroke="#FFFFFF" stroke-width="1.1376" d="
	M230.885,346.949l-0.382-2.893l0.469-0.78l2.823-3.353l15.416-7.465l1.093,0.393l5.93,3.845l0.467,0.549l0.392,0.234l1.718,0.239
	l5.703,0.249l1.877-0.464l6.651-2.64l0.783-0.857l4.077-4.992l2.975-1.399l6.247,2.439l4.368,2.902l2.57,3.681l-15.907,16.218
	l-0.09,5.001l-3.923,5.616l-6.331-0.095l-17.316,17.231l-5.381-4.313l-2.105-1.804l-5.594-13.222l0.235-0.391l-0.078-0.313
	l-0.231-0.938L230.885,346.949L230.885,346.949"/>
<path id="Tuolumne_x2C__CA" sodipodi:nodetypes="cccccccccccccccccccccccccccccccccccccccccccccccccccccc" inkscape:connector-curvature="0" fill="#E27F90" stroke="#FFFFFF" stroke-width="1.1376" d="
	M274.94,295.555l-0.236,0.391l-0.084,2.345l0.687,6.8l3.119,3.213l1.95,1.177l1.484,0.628l2.811,0.634l2.264,1.1l1.483,0.628
	l2.731,1.649l2.416,3.053l-0.176,7.347l4.451,1.887l1.789,3.209l-0.33,6.72l-2.586,2.964l-0.783,0.857l-2.338-2.742l-2.57-3.679
	l-4.37-2.904l-6.246-2.437l-2.974,1.398l-4.075,4.992l-0.786,0.857l-6.648,2.641l-1.253,0.31l-5.704-0.249l-1.719-0.24l-0.391-0.235
	l-0.468-0.547l-5.93-3.846l-1.093-0.394l-15.417,7.464l-2.822,3.355l-0.47,0.78l0.383,2.892l-15.358-15.122l8.073-8.969l3.06-5.071
	l5.103-8.898l5.022-7.881l6.667-9.283l1.096-0.936l1.175-0.623l6.649-2.64l8.036,5.647l0.862-0.545l3.992-2.647l3.052-1.084
	l2.343,0.083l0.391,0.236l0.468,0.549L274.94,295.555"/>
<path id="Mono_x2C__CA" sodipodi:nodetypes="ccccccccccccccccccccccccccccccccccc" inkscape:connector-curvature="0" fill="#86B6F2" stroke="#FFFFFF" stroke-width="1.1376" d="
	M278.061,266.566l14.582,13.324l9.825,8.857l42.108,38.716l35.088,31.821l-54.945,0.641l-14.513-9.023l-2.483-7.353l-2.728-2.976
	l-0.857-0.784l-3.75-0.401l-4.376-0.245l0.783-0.858l2.587-2.963l0.33-6.721l-1.791-3.21l-4.449-1.886l0.176-7.347l-2.417-3.055
	l-2.732-1.648l-1.483-0.629l-2.264-1.099l-2.811-0.632l-1.485-0.628l-1.951-1.177l-3.117-3.213l-0.688-6.802l0.086-2.343
	l0.235-0.391l4.469-6.084l1.032-6.563l-4.278-7.906l-0.154-0.626l0.4-3.748L278.061,266.566"/>
<path id="Alpine_x2C__CA" inkscape:connector-curvature="0" fill="#86B6F2" stroke="#FFFFFF" stroke-width="1.1376" d="
	M260.049,250.109l18.09,16.771l-1.729,3.748l-0.401,3.751l0.154,0.625l4.28,7.906l-1.034,6.562l-4.469,6.084l-3.502-6.104
	l-0.468-0.548l-0.39-0.236l-2.344-0.084l-3.051,1.086l-3.993,2.647l-0.861,0.546l-8.036-5.647l-3.112-5.869l0.114-14.304
	l6.579-5.609l1.019-1.25l3.375-5.149l0.235-0.391l-0.151-1.954l-0.31-1.251L260.049,250.109"/>
<path id="Calaveras_x2C__CA" inkscape:connector-curvature="0" fill="#E27F90" stroke="#FFFFFF" stroke-width="1.1376" d="
	M252.998,287.371l-6.65,2.642l-1.175,0.622l-1.096,0.935l-6.667,9.285l-5.023,7.882l-5.102,8.896l-3.061,5.072l-8.072,8.968
	l-15.585-18.718l-3.723-11.03l0.39,0.236l0.703,0.158l4.611-0.145l12.446-7.393l8.926-6.857l2.194-1.87l2.58-0.306l21.582-4.01
	L252.998,287.371"/>
<path id="Amador_x2C__CA" sodipodi:nodetypes="cccccccccccccccccccc" inkscape:connector-curvature="0" fill="#CC2F4A" stroke="#FFFFFF" stroke-width="1.1376" d="
	M250.313,267.123l-0.114,14.301l-21.582,4.011l-2.58,0.305l-2.193,1.872l-8.927,6.854l-12.446,7.393l-4.612,0.146l-0.703-0.158
	l-0.39-0.236l-1.706-5.553l0.118-15.631l5.472-0.689l6.105-3.502l11.555,5.11l2.658,0.006l4.144-0.693l11.104-2.083l2.974-1.398
	L250.313,267.123"/>
<path id="San_Joaquin_x2C__CA" inkscape:connector-curvature="0" fill="#86B6F2" stroke="#FFFFFF" stroke-width="1.1376" d="
	M196.532,302l3.724,11.03l-0.114,14.301l0.134,8.599l-2.896,1.711l-3.205,0.462l-2.97,0.07l-1.407-0.316l-5.87,3.112l-1.097,0.935
	l-2.115,2.184l-12.538,12.395l-4.289-3.919l-0.545-0.86l0.343-12.036l0.18-8.676l-0.731-20.399l1.729-3.748l4.319-8.039l1.251-0.31
	l1.017,0.08l1.012,1.411l1.171,0.706l2.969-0.07l10.319-1.224l0.313-0.077l3.444-2.18l4.693-1.161L196.532,302"/>
<path id="Contra_Costa_x2C__CA" inkscape:connector-curvature="0" fill="#4389E3" stroke="#FFFFFF" stroke-width="1.1376" d="
	M122.727,312.289l5.701,1.577l3.047,0.242l12.583-0.124l0.939-0.232l0.625-0.154l0.549-0.468l0.159-0.704l2.024,2.819l0.781,0.471
	l1.719,0.238l0.702,0.159l2.19-0.542l2.348-1.243l1.018-1.249l0.159-0.703l-0.232-0.939l0.237-0.391l0.235-0.389l0.625-0.155
	l3.283-0.149l1.094,0.394l0.391,0.235l0.728,20.401l-3.988,1.319l-19.866,5.578l-12.173-7.614l-0.701-1.486l-1.789-3.209
	l-2.183-2.116l-0.391-0.235l-2.503,0.619l-2.576-1.022l-3.351-4.151l6.809-3.343l1.096-0.937l1.255-1.638l-0.154-0.625
	L122.727,312.289"/>
<path id="El_Dorado_x2C__CA" sodipodi:nodetypes="ccccccccccccccccccccccccccccccccccccccccccc" inkscape:connector-curvature="0" fill="#E27F90" stroke="#FFFFFF" stroke-width="1.1376" d="
	M254.525,239.856l5.445,9.94l0.935,1.096l0.309,1.25l0.152,1.955l-0.235,0.39l-3.375,5.149l-1.019,1.249l-6.581,5.609L238.8,276.941
	l-2.974,1.399l-11.104,2.083l-4.146,0.693l-2.657-0.008l-11.554-5.109l-6.105,3.502l-5.473,0.688l-6.136-15.41l4.871-9.836
	l0.713-3.828l1.02-1.247l5.556-3.034l7.198-3.11l2.502-0.619l0.391,0.235l1.405,0.317l2.342,1.413l0.934,1.097l0.467,0.546
	l0.859,0.785l4.292,2.591l0.703,0.156l0.313-0.077l2.661-1.321l1.096-0.935l2.196-3.198l11.965-2.628l3.206-0.461l1.174-0.622
	l0.548-0.467l0.08-1.017l0.472-0.778L254.525,239.856"/>
<path id="Sacramento_x2C__CA" inkscape:connector-curvature="0" fill="#86B6F2" stroke="#FFFFFF" stroke-width="1.1376" d="
	M169.04,263.321l19.768,2.083l6.136,15.413l-0.118,15.631l-4.692,1.161l-3.444,2.18l-0.313,0.078l-10.32,1.223l-2.97,0.071
	l-1.169-0.706l-1.014-1.409l-1.016-0.082l-1.251,0.31l-4.319,8.041l-1.729,3.746l-0.391-0.235l-1.092-0.394l-3.283,0.149
	l-0.625,0.154l-0.237,0.389l-0.236,0.391l0.233,0.939l-0.157,0.703l-1.02,1.249l-2.348,1.244l-2.19,0.542l-0.702-0.159l-1.718-0.237
	l-0.782-0.472l-2.024-2.818l3.438,0.478l5.164-1.94l4.709-7.803l2.758-8.981l3.367-2.492l0.784-0.859l1.423-6.326l0.025-10.629
	l-0.155-0.625l-0.077-0.313l-3.117-3.213l-2.093-7.117L169.04,263.321"/>
<path id="Solano_x2C__CA" inkscape:connector-curvature="0" fill="#4389E3" stroke="#FFFFFF" stroke-width="1.1376" d="
	M114.616,304.998l12.112,0.656l0.157-0.702l-0.077-0.313l0,0l-0.389-0.236l-0.468-0.549l-0.155-0.624l0.962-9.534l8.049,0.333
	l0.159-0.704l-0.154-0.624l-0.31-1.251l-0.155-0.626l-0.7-1.487l-2.179-3.445l-0.078-0.312l-0.154-0.627l1.341-5.31l0.236-0.391
	l2.58-0.305l20.011-0.965l0.858,0.782l0.077,0.314l-0.007,2.657l-0.424,13.051l6.018,0.171l-2.757,8.981l-4.709,7.804l-5.164,1.941
	l-3.437-0.477l-0.159,0.703l-0.547,0.468l-0.626,0.155l-0.938,0.231l-12.585,0.125l-3.046-0.241l-5.703-1.579l-7.719-7.052
	L114.616,304.998"/>
<path id="San_Franciso_x2C__CA" inkscape:connector-curvature="0" fill="#0645B4" stroke="#FFFFFF" stroke-width="1.1376" d="
	M114.533,338.214l-6.33-0.094l0,0l-0.31-1.251l-0.381-4.22l0.548-0.469l2.348-1.245l2.269-0.229l1.014,0.082l0.468,0.548
	l0.623,1.174l0.77,4.457l-0.082,1.015L114.533,338.214"/>
<path id="Marin_x2C__CA" sodipodi:nodetypes="cccccccccccccccccccccccc" inkscape:connector-curvature="0" fill="#1666CB" stroke="#FFFFFF" stroke-width="1.1376" d="
	M80.804,293.112l0.548-0.468l4.693-1.161l0.313-0.077l15.368,11.137l4.609,1.184l3.426,4.464l-0.562,5.782l-0.563,7.112l0.154,0.624
	l0.467,0.549l1.247,1.019l1.326,1.333l0.544,0.86l0.077,0.313l-2.667,3.979l-1.641,0.074l-1.092-0.393l-0.781-0.471l-22.859-15.923
	l-1.053-16.337l-0.622-1.174l-1.09-1.723L80.804,293.112"/>
<path id="Napa_x2C__CA" inkscape:connector-curvature="0" fill="#4389E3" stroke="#FFFFFF" stroke-width="1.1376" d="
	M117.484,252.172l6.17,2.126l6.451,14.006l1.633,3.913l0.387,1.564l1.314,5.317l-0.235,0.391l-1.344,5.311l0.155,0.627l0.077,0.312
	l2.182,3.444l0.697,1.487l0.155,0.626l0.31,1.251l0.154,0.625l-0.156,0.703l-8.05-0.333l-0.962,9.534l0.154,0.624l0.468,0.549
	l0.391,0.236l0.313-0.078l0.077,0.313l-0.159,0.703l-12.114-0.656l2.269-0.229l1.181-3.279l-0.387-1.564l-0.386-1.565l-2.097-5.787
	l-7.158-12.836l-3.659-5.403l-0.847-4.77l0.164-3.361l9.385-2.321l5.255-6.942l0.392-1.094L117.484,252.172"/>
<path id="Sonoma_x2C__CA" sodipodi:nodetypes="ccccccccccccccccccccccccccc" inkscape:connector-curvature="0" fill="#1666CB" stroke="#FFFFFF" stroke-width="1.1376" d="
	M51.822,256.461l8.362,0.256l0.633-2.813l13.441,0.659l0.478-3.437l18.129,0.828l10.439,14.016l-0.167,3.36l0.849,4.77l3.659,5.401
	l7.159,12.837l2.095,5.788l0.387,1.564l0.386,1.564l-1.179,3.279l-2.268,0.23l0.077,0.312l-5.243,2.957l-3.429-4.462l-4.608-1.185
	l-15.369-11.136l-0.313,0.078l-4.692,1.16l-0.547,0.468l-6.614-11.975l-17.068-19.348L51.822,256.461"/>
<path id="Yolo_x2C__CA" inkscape:connector-curvature="0" fill="#4389E3" stroke="#FFFFFF" stroke-width="1.1376" d="
	M120.701,247.725l28.759,0.854l12.86,14.414l2.093,7.116l3.117,3.214l0.077,0.312l0.155,0.626l-0.025,10.63l-1.423,6.327
	l-0.785,0.858l-3.367,2.492l-6.019-0.17l0.424-13.052l0.007-2.658l-0.078-0.313l-0.858-0.784l-20.011,0.965l-2.58,0.306
	l-1.315-5.317l-0.387-1.564l-1.632-3.913l-6.452-14.005l-6.169-2.126L120.701,247.725"/>
<path id="Placer_x2C__CA" inkscape:connector-curvature="0" fill="#E27F90" stroke="#FFFFFF" stroke-width="1.1376" d="
	M173.544,243.95l7.666-2.559l3.356,1.492l0.703,0.158l8.127,0.647l1.799-0.777l2.591-4.292l0.47-0.781l0.004-1.329l0.471-0.779
	l2.038-2.496l2.194-1.871l3.602-2.882l6.656-5.298l2.66-1.323l2.19-0.542l36.578,0.25l-0.185,11.333l-0.011,3.986l0.15,3.283
	l-7.972-0.021l-0.472,0.78l-0.08,1.016l-0.548,0.468l-1.175,0.621l-3.206,0.463l-11.964,2.626l-2.197,3.198l-1.096,0.936
	l-2.662,1.321l-0.311,0.078l-0.704-0.158l-4.293-2.59l-0.857-0.784l-0.467-0.548l-0.936-1.096l-2.342-1.413l-1.405-0.317
	l-0.391-0.236l-2.502,0.619l-7.197,3.109l-5.557,3.034l-1.021,1.248l-0.713,3.828l-4.87,9.836l-19.769-2.082l1.131-14.223
	l3.047,0.243L173.544,243.95"/>
<path id="Nevada_x2C__CA" inkscape:connector-curvature="0" fill="#B9D7FF" stroke="#FFFFFF" stroke-width="1.1376" d="
	M254.908,211.877l-0.259,9.69l-36.578-0.25l-2.19,0.542l-2.66,1.323l-6.656,5.298l-3.602,2.882l-2.194,1.871l-2.038,2.496
	l-0.471,0.779l-0.004,1.329l-0.47,0.781l-2.591,4.292l-1.799,0.777l-8.127-0.647l-0.703-0.158l-3.356-1.492l0.35-14.692l1.022-2.578
	l4.155-4.679l4.073-3.664l3.05-1.086l1.328,0.003l1.719,0.238l0.393-1.092l1.174-0.624l9.227-1.617l6.73-3.656l0.235-0.391
	l0.785-0.857l1.645-1.402l0.939-0.233l4.375,0.245l1.638,1.255l1.164,3.364l1.561,0.941l0.704,0.158L254.908,211.877"/>
<path id="Sierra_x2C__CA" inkscape:connector-curvature="0" fill="#E27F90" stroke="#FFFFFF" stroke-width="1.1376" d="
	M197.97,196.414l4.232-4.366l0.007-2.657l1.332-1.325l2.347-1.245l12.336,5.58l11.646,0.108l17.036,0.433l8.366-1.071l-0.208,20.631
	l-27.666-0.46l-0.704-0.158l-1.56-0.94l-1.164-3.365l-1.638-1.254l-4.376-0.246l-0.939,0.233l-1.644,1.402l-0.784,0.859
	l-0.236,0.389l-6.73,3.656l-9.226,1.619l-1.174,0.621l-0.394,1.093L197.97,196.414"/>
<path id="Yuba_x2C__CA" sodipodi:nodetypes="ccccccccccccccccccccccccccc" inkscape:connector-curvature="0" fill="#E27F90" stroke="#FFFFFF" stroke-width="1.1376" d="
	M194.055,199.375l3.915-2.961l-1.062,18.521l-1.719-0.238l-1.328-0.003l-3.05,1.086l-4.073,3.664l-4.155,4.679l-1.022,2.578
	l-0.35,14.692l-7.666,2.559l-2.657-0.006l-1.25,0.31l-3.6,1.553l-1.02,1.249l-0.394,1.092l-1.856-7.507l-1.211-15.633l0.08-1.017
	l0.476-2.109l0.236-0.389l6.958-1.39l5.555-1.705l1.879-1.794l4.403-10.383l9.308-2.634L194.055,199.375"/>
<path id="Sutter_x2C__CA" inkscape:connector-curvature="0" fill="#E27F90" stroke="#FFFFFF" stroke-width="1.1376" d="
	M162.27,221.179l-0.236,0.391l-0.475,2.108l-0.08,1.016l1.21,15.634l1.857,7.507l0.394-1.093l1.02-1.247l3.599-1.555l1.251-0.31
	l2.657,0.008l-0.013,5.313l-3.048-0.242l-1.129,14.223l-6.721-0.331l-12.861-14.414l1.185-4.607l-3.967-7.983l-2.415-3.053
	l-0.224-3.597l2.367-9.216L162.27,221.179"/>
<path id="Colusa_x2C__CA" sodipodi:nodetypes="cccccccccccccccccccccccc" inkscape:connector-curvature="0" fill="#E27F90" stroke="#FFFFFF" stroke-width="1.1376" d="
	M147.281,214.263l-1.189,5.938l-2.367,9.217l0.225,3.595l2.416,3.054l3.965,7.982l-1.182,4.608l-28.761-0.854l-3.588-2.432
	l-0.468-0.548l-3.656-6.73l-0.925-5.083l0.719-6.485l-8.282-1.271l-2.341-1.412l-4.211-3.605l-0.853-2.114l0.787-2.185l1.569-3.045
	l34.153,1.18l0.319-2.733l7.424,0.487l-0.475,2.108L147.281,214.263"/>
<path id="Lake_x2C__CA" sodipodi:nodetypes="cccccccccccccccccccccccccccccccccccccccccc" inkscape:connector-curvature="0" fill="#B9D7FF" stroke="#FFFFFF" stroke-width="1.1376" d="
	M99.06,212.578l-1.569,3.044l-0.787,2.187l0.853,2.112l4.211,3.606l2.341,1.413l8.282,1.271l-0.719,6.485l0.925,5.084l3.657,6.731
	l0.467,0.547l3.589,2.432l-3.216,4.447l1.241,3.677l-0.393,1.092l-5.253,6.944l-9.384,2.321l-10.439-14.016l-6.007-4.157
	l-1.792-1.882l-5.14-7.358l-1.945-3.836l-0.154-0.624l0.081-1.017l0.555-3.125l0.71-2.5l2.348-1.244l1.571-3.045l-0.149-3.283
	l-2.789-9.932l0.162-2.031l0.082-1.016l0.713-3.828l2.034-1.167l5.078,0.403l2.74-1.01l0.319-2.732l0.081-1.016l8.362,0.255
	l-0.097,7.66l-0.162,2.031L99.06,212.578"/>
<path id="Butte_x2C__CA" sodipodi:nodetypes="cccccccccccccccccccccccccccccccccccc" inkscape:connector-curvature="0" fill="#F2B3BE" stroke="#FFFFFF" stroke-width="1.1376" d="
	M139.544,182.979l-0.937-1.096l-0.227-2.268l1.569-3.042l13.365,0.346l1.564-0.386l1.332-1.327l0.004-1.328l0.081-1.016l0.706-1.17
	l1.803-2.107l8.228-8.341l2.97-0.07l3.286-1.478l0.548-0.467l0.239-1.72l1.719,0.24l1.477,3.287l0.387,1.564l-0.081,1.015
	l-0.942,1.56l-1.208,13.91l11.38,12.456l6.234,7.752l-3.684,3.899l-9.308,2.633l-4.403,10.385l-1.881,1.792l-5.553,1.706
	l-6.96,1.389l-16.175-0.979l1.187-5.938l2.217-11.17l-6.957,0.062l1.209-13.91L139.544,182.979"/>
<path id="Glenn_x2C__CA" sodipodi:nodetypes="cccccccccccccccc" inkscape:connector-curvature="0" fill="#CC2F4A" stroke="#FFFFFF" stroke-width="1.1376" d="
	M88.981,181.212l50.25,1.846l4.439,5.874l-1.207,13.909l6.957-0.062l-2.217,11.17l-6.721-0.328l0.474-2.109l-7.424-0.488
	l-0.319,2.735l-34.153-1.181l0.404-5.08l0.162-2.031l0.097-7.66l-8.362-0.255L88.981,181.212"/>
<path id="Plumas_x2C__CA" inkscape:connector-curvature="0" fill="#E27F90" stroke="#FFFFFF" stroke-width="1.1376" d="
	M171.628,135.542l9.379,0.336l15.006,0.272l-0.115,14.302l1.089,1.723l6.166,3.454l2.032,0.163l1.173-0.622l-0.074-1.642
	l4.236-5.695l1.721-1.09l2.032,0.163l11.086,4.56l15.758,11.373l2.106,1.803l5.679,10.877l0.542,2.19l-0.162,2.033l-0.881,8.516
	l-2.277,4.215l-17.039-0.435l-11.645-0.107l-12.333-5.581l-2.349,1.246l-1.333,1.325l-0.006,2.658l-4.232,4.366l-3.915,2.96
	l-6.234-7.754l-11.38-12.456l1.207-13.907l0.943-1.563l0.08-1.015l-0.387-1.564l-1.476-3.287l-1.719-0.238l3.919-4.288l0.235-0.391
	l0.157-0.704l0.325-5.391l-1.475-3.286l-0.626,0.155l-3.751-0.401l-0.389-0.235l-0.467-0.548l-0.155-0.625l-0.848-4.77
	L171.628,135.542"/>
<path id="Tehama_x2C__CA" inkscape:connector-curvature="0" fill="#CC2F4A" stroke="#FFFFFF" stroke-width="1.1376" d="
	M171.628,135.542l-0.081,1.015l0.849,4.77l0.155,0.626l0.466,0.549l0.39,0.235l4.219,0.948l0.625-0.155l1.478,3.287l-0.327,5.393
	l-0.159,0.703l-0.235,0.39l-3.919,4.289l-0.237,1.719l-0.55,0.468l-3.286,1.478l-2.97,0.069l-8.228,8.342l-1.802,2.105l-0.708,1.171
	l-0.08,1.015l-0.003,1.328l-1.331,1.326L154.33,177l-13.364-0.347l-1.571,3.044l0.229,2.268l0.935,1.096l-50.25-1.845l-0.39-0.236
	l-0.774-3.128l0.713-3.829l1.567-1.715l0.317-1.406l-0.23-2.268l-0.466-0.549l-0.623-1.173l-1.147-10.008l0.009-3.984l0.235-0.391
	l-0.146-3.283l-0.155-0.626l-0.468-0.548l-4.37-2.903l4.539-1.786l7.429-2.169l5.946-1.47l12.899-1.531l3.982,1.338l5.706,0.249
	l2.031,0.162l6.959-1.389l5.241-1.629l4.77-0.847l9.068-0.915l7.896-0.293L171.628,135.542"/>
<path id="Mendocino_x2C__CA" sodipodi:nodetypes="ccccccccccccccccccccccccccccccccccccccccccccccccccccccccccc" inkscape:connector-curvature="0" fill="#4389E3" stroke="#FFFFFF" stroke-width="1.1376" d="
	M28.454,163.318l26.883,1.318l-0.239,1.718l34.541,1.417l0.466,0.547l0.229,2.268l-0.315,1.406l-1.568,1.715l-0.713,3.829
	l0.773,3.127l0.391,0.236l2.382,16.34l-0.081,1.017l-0.319,2.734l-2.741,1.009l-5.078-0.403l-2.034,1.167l-0.714,3.828l-0.081,1.016
	l-0.162,2.032l2.79,9.934l0.148,3.282l-1.572,3.044l-2.347,1.245l-0.711,2.5l-0.555,3.123l-0.082,1.018l0.155,0.625l1.946,3.834
	l5.14,7.361l1.792,1.879l6.008,4.159l-18.13-0.828l-0.478,3.438l-13.441-0.661l-0.633,2.813l-8.362-0.256l-3.664-4.073l-5.842-7.516
	l-4.686-32.37l0.004-1.328l-0.155-0.627l0.32-2.733l0.632-2.813l0.787-2.186l0.395-1.093l0.706-1.169l0.158-0.705l0.236-0.391l0,0
	l0.787-2.186l-0.154-0.625l-0.842-7.428l-0.151-1.953l-2.785-11.262l-0.078-0.314l-4.126-5.95l-2.104-3.131L28.454,163.318"/>
<path id="Humboldt_x2C__CA" inkscape:connector-curvature="0" fill="#86B6F2" stroke="#FFFFFF" stroke-width="1.1376" d="
	M54.034,61.388l8.752,0.491l1.325,1.333l3.168,14.153l-0.706,1.17l-0.628,1.482l-0.713,3.829l0.541,2.191l0.467,0.547l0.54,3.519
	l-3.062,5.073l-1.49,2.028l-4.783,6.163l0.525,8.833l-2.477,53.062l-26.884-1.318l-1.793-1.878L11.15,144.36l-0.545-0.862
	l-1.997-13.447l0.234-0.39l3.068-7.73l2.123-4.839l0.942-1.563l1.57-3.043l2.667-3.979l2.75-4.996l1.647-2.731l1.1-2.263
	l1.417-3.671l0.952-5.546l0.633-2.812l-0.701-1.487l2.935-17.656l2.066-13.125l10.081,0.494l6.407,0.408l-0.323,4.062l2.888,2.275
	L54.034,61.388"/>
<path id="Trinity_x2C__CA" inkscape:connector-curvature="0" fill="#E27F90" stroke="#FFFFFF" stroke-width="1.1376" d="
	M67.202,77.052l3.045,1.57l3.122,1.884l5.537,4.938l9.052,5.729l4.607,1.184l1.017,0.081l1.019-1.248l0.317-1.406l-1.478-3.287
	l5.809-10.068l10.178-7.165l7.263,2.52l0.528,7.503l1.093,0.394l1.17,0.707l0.154,0.626l0.071,2.969l-0.158,0.703l-0.472,0.781
	l-4.628,6.789l-1.723,1.088l-0.312,0.077l-10.058,21.077l-6.521,13.896l-7.441,6.156l-5.253,6.943l-0.007,2.656l4.37,2.905
	l0.467,0.547l0.154,0.626l0.149,3.283l-0.235,0.39l-0.009,3.985l1.146,10.008l0.622,1.174l-34.541-1.417l0.238-1.718l2.479-53.062
	l-0.524-8.833l4.783-6.163l1.49-2.029l3.06-5.071l-0.538-3.52l-0.468-0.548l-0.541-2.188l0.713-3.829l0.629-1.483L67.202,77.052"/>
<path id="Shasta_x2C__CA" inkscape:connector-curvature="0" fill="#CC2F4A" stroke="#FFFFFF" stroke-width="1.1376" d="
	M175.986,80.686l6.333,0.095l-0.441,19.695l0.619,2.501l-0.535,26.025l-0.566,7.11l-9.378-0.335l-11.799-0.734l-7.894,0.293
	l-9.07,0.916l-4.771,0.848l-5.24,1.628l-6.96,1.389l-2.032-0.162l-5.704-0.249l-3.982-1.338l-12.9,1.531l-5.943,1.471l-7.43,2.169
	l-4.538,1.786l0.005-2.657l5.254-6.943l7.521-7.171l6.522-13.894l10.058-21.078l0.314-0.078l1.721-1.09l4.629-6.788l0.471-0.781
	l0.157-0.702l-0.07-2.971l-0.154-0.625l-1.17-0.708l-1.094-0.392l11.645,0.107l16.1,0.666L175.986,80.686"/>
<path id="Lassen_x2C__CA" inkscape:connector-curvature="0" fill="#D40000" stroke="#FFFFFF" stroke-width="1.1376" d="
	M256.329,82.063l-0.137,23.601l-0.225,27.277l-0.034,13.286l0.068,4.298l0,0l-0.114,14.304l-0.289,21.649l-0.247,4.376l-8.365,1.073
	l2.277-4.215l0.88-8.517l0.163-2.032l-0.542-2.189l-5.678-10.878l-2.105-1.804l-15.759-11.371l-11.087-4.562l-2.031-0.162
	l-1.723,1.091l-4.235,5.694l0.075,1.641l-1.175,0.624l-2.031-0.163l-6.166-3.455l-1.09-1.721l0.114-14.303l-15.005-0.271
	l0.566-7.112l0.534-26.025l-0.619-2.501l0.44-19.694L256.329,82.063"/>
<path id="Modoc_x2C__CA_2_" inkscape:connector-curvature="0" fill="#D40000" stroke="#FFFFFF" stroke-width="1.1376" d="
	M256.951,21.492l-0.622,60.571l-74.01-1.282l-6.333-0.095l0.438-18.366l0.535-26.023l-0.391-0.235l-0.078-0.313l0.341-10.707
	l0.161-2.032l0.555-3.124"/>
<path id="Modoc_x2C__CA" inkscape:connector-curvature="0" fill="#D40000" stroke="#FFFFFF" stroke-width="1.1376" d="
	M177.547,19.886l31.105,0.938l10.316,0.103l0,0l20.007,0.363l2.344,0.083l15.631,0.119"/>
<path id="Washoe_x2C__NV_2_" inkscape:connector-curvature="0" fill="#B9D7FF" stroke="#FFFFFF" stroke-width="1.1376" d="
	M256.643,81.985l0.622-60.569"/>
<polyline fill="none" stroke="#FFFFFF" stroke-width="1.1376" points="256.551,22.571 240.919,22.452 238.576,22.369 
	218.568,22.005 208.251,21.902 177.148,20.963 131.118,18.737 128.071,18.495 126.354,18.249 119.711,18.232 112.441,18.371 
	93.685,17.698 92.357,17.693 90.013,17.611 83.916,17.126 79.932,17.116 64.223,16.685 47.499,16.175 26.243,14.792 "/>
<polyline fill="none" stroke="#FFFFFF" stroke-width="1.1376" points="577.535,707.009 583.947,706.093 591.077,698.681 
	592.655,694.315 592.812,692.279 592.28,687.433 589.394,683.828 589.002,683.594 589.002,683.594 583.45,683.963 582.435,683.883 
	579.158,682.704 577.055,679.567 577.055,679.567 575.08,656.817 580.637,653.784 585.741,643.554 585.92,634.88 585.398,626.051 
	585.168,623.779 585.339,617.765 586.209,614.567 589.669,605.744 596.481,601.07 600.945,597.651 607.371,591.412 606.909,588.208 
	602.932,584.213 598.956,581.546 594.119,578.094 586.494,563.381 585.484,560.643 579.871,555.391 574.73,548.033 574.652,547.722 
	574.419,546.78 574.29,538.185 563.606,528.545 534.441,501.895 532.336,500.101 526.796,495.161 510.968,480.813 495.527,466.705 
	494.67,465.925 483.443,455.425 480.869,453.078 459.815,433.718 433.694,409.974 428.937,405.506 420.436,397.979 419.112,396.647 
	379.576,360.284 344.488,328.464 302.38,289.748 292.555,280.891 277.973,267.567 259.882,250.797 254.437,240.857 254.29,237.574 
	254.299,233.587 254.484,222.255 254.744,212.565 254.95,191.932 255.197,187.556 255.485,165.908 255.6,151.604 255.532,147.307 
	255.566,134.019 255.791,106.743 255.93,83.141 256.551,22.571 "/>
</svg>
