<?xml version="1.0" encoding="utf-8"?>
<!-- Generator: Adobe Illustrator 18.1.1, SVG Export Plug-In . SVG Version: 6.00 Build 0)  -->
<svg version="1.1"
	 id="svg8605" sodipodi:version="0.32" inkscape:version="0.48.1 " sodipodi:docname="Colorado Republican Presidential Caucuses Election Results by County, 2012.svg" inkscape:output_extension="org.inkscape.output.svg.inkscape" xmlns:dc="http://purl.org/dc/elements/1.1/" xmlns:cc="http://creativecommons.org/ns#" xmlns:rdf="http://www.w3.org/1999/02/22-rdf-syntax-ns#" xmlns:svg="http://www.w3.org/2000/svg" xmlns:sodipodi="http://sodipodi.sourceforge.net/DTD/sodipodi-0.dtd" xmlns:inkscape="http://www.inkscape.org/namespaces/inkscape"
	 xmlns="http://www.w3.org/2000/svg" xmlns:xlink="http://www.w3.org/1999/xlink" x="0px" y="0px" width="274.9px" height="217.3px"
	 viewBox="-118 113 274.9 217.3" enable-background="new -118 113 274.9 217.3" xml:space="preserve">
<defs>
	
	
		<inkscape:perspective  inkscape:persp3d-origin="372.04724 : 350.78739 : 1" sodipodi:type="inkscape:persp3d" inkscape:vp_x="0 : 526.18109 : 1" inkscape:vp_y="0 : 1000 : 0" inkscape:vp_z="744.09448 : 526.18109 : 1" id="perspective8613">
		</inkscape:perspective>
</defs>
<sodipodi:namedview  inkscape:window-maximized="1" showguides="true" pagecolor="#ffffff" bordercolor="#666666" borderopacity="1.0" gridtolerance="10000" guidetolerance="10" objecttolerance="10" inkscape:zoom="1.691197" inkscape:cx="132.58106" inkscape:cy="110.03251" showgrid="false" id="base" inkscape:guide-bbox="true" inkscape:document-units="px" inkscape:pageopacity="0.0" inkscape:pageshadow="2" inkscape:current-layer="layer1" inkscape:window-width="1366" inkscape:window-height="706" inkscape:window-x="-8" inkscape:window-y="-8">
	</sodipodi:namedview>
<g id="layer1" transform="translate(-87.199211,-165.55391)" inkscape:label="Layer 1" inkscape:groupmode="layer">
	<path id="CO_Montezuma" inkscape:label="Montezuma, CO" fill="#cc2f4a" stroke="#FFFFFF" stroke-width="0.9247" d="M24.8,445.2
		l-1.4,1.4l-6.9,10.8l-0.2,0.4l-2.5,5.1l-3.9,8.7l-0.3,1.3l-23.1-1.1l1.2-21.5l4.7-6.3l21,1l3.9,0.1l3-0.1L24.8,445.2"/>
	<path id="CO_La_Plata" inkscape:label="La Plata, CO" fill="#b9d7ff" stroke="#FFFFFF" stroke-width="0.9247" d="M24.8,445.2
		l16.9,0.6l-1,28.3l-31.2-1.2l0.3-1.3l3.9-8.7l2.5-5.1l0.2-0.4l6.9-10.8L24.8,445.2"/>
	<path id="CO_Prowers" inkscape:label="Prowers, CO" fill="#d40000" stroke="#FFFFFF" stroke-width="0.9247" d="M204.7,419.8
		l23.9-0.5l0,0.3l0.6,23.2l0.1,4.2l-24.4,0.5l-0.1-7.9l0.2,0l0-0.6L204.7,419.8"/>
	<path id="CO_Bent" inkscape:label="Bent, CO" fill="#cc2f4a" stroke="#FFFFFF" stroke-width="0.9247" d="M204.7,419.8l0.4,19l0,0.6
		l-0.2,0l0.1,7.9l-11.3,0.2l-11.3,0.1l-0.1-27.5L204.7,419.8"/>
	<path id="CO_Kiowa" inkscape:label="Kiowa, CO" fill="#aa0000" stroke="#FFFFFF" stroke-width="0.9247" d="M189.8,404.7l3.8-0.2
		l15.3-0.1l8.4-0.2l10.9-0.2l0.4,15.3l-23.9,0.5l-22.5,0.3l-3.5,0.1l-0.2-11.1l1.4-0.3l7.2-0.1l2.7-0.1L189.8,404.7"/>
	<path id="CO_Cheyenne" inkscape:label="Cheyenne, CO" fill="#aa0000" stroke="#FFFFFF" stroke-width="0.9247" d="M227.8,384.9
		l0.4,15.4l0.1,3.6l-10.9,0.2l-8.4,0.2l-15.3,0.1l-3.8,0.2l0.1-18.8l3.8-0.1l11.3-0.1l7.3-0.2l5-0.3L227.8,384.9"/>
	<path id="CO_Kit_Carson" inkscape:label="Kit Carson, CO" fill="#aa0000" stroke="#FFFFFF" stroke-width="0.9247" d="M190,362.5
		l11.8-0.2l25.3-0.7l0,0.3l0.5,19.2l0.1,3.8l-10.4,0.3l-5,0.3l-7.3,0.2l-11.3,0.1l-3.8,0.1l0-3.9l0.2-7.1L190,362.5"/>
	<path id="CO_Yuma" inkscape:label="Yuma, CO" fill="#aa0000" stroke="#FFFFFF" stroke-width="0.9247" d="M205.9,323.7l20.4-0.4
		l0.1,4l0.3,15.3l0.5,19l-25.3,0.7l-0.1-13.2l-0.2-6l0.1-15.4l0.4-3.9L205.9,323.7"/>
	<path id="CO_Washington" inkscape:label="Washington, CO" fill="#aa0000" stroke="#FFFFFF" stroke-width="0.9247" d="M171.4,343.4
		l7.8-0.1l-0.1-7.3l0-8.1l0.2-3.8l22.8-0.3l-0.4,3.9l-0.1,15.4l0.2,6l0.1,13.2l-11.8,0.2l-18.6,0.1L171.4,343.4"/>
	<path id="CO_Phillips" inkscape:label="Phillips, CO" fill="#d40000" stroke="#FFFFFF" stroke-width="0.9247" d="M225.9,309.6
		l0,2.3l0.2,11.4l-20.4,0.4l0.3-13.7L225.9,309.6"/>
	<path id="CO_Sedgwick" inkscape:label="Sedgwick, CO" fill="#d40000" stroke="#FFFFFF" stroke-width="0.9247" d="M206.9,298.8
		l18.7-0.4l0.3,11.2l-19.8,0.4l-0.3-11.2L206.9,298.8"/>
	<path id="CO_Logan" inkscape:label="Logan, CO" fill="#d40000" stroke="#FFFFFF" stroke-width="0.9247" d="M175.5,299.2l6.3-0.1
		l24-0.3l0.3,11.2l-0.3,13.7l-3.8,0.1l-22.8,0.3l-3.9-3.8l0-7.9l0.2,0l0-12.2L175.5,299.2"/>
	<path id="CO_Morgan" inkscape:label="Morgan, CO" fill="#cc2f4a" stroke="#FFFFFF" stroke-width="0.9247" d="M171.4,343.4l-14.8,0
		l0.1-23.1l10.8,0l4.2,0.1l3.8-0.1l3.9,3.8l-0.2,3.8l0,8.1l0.1,7.3L171.4,343.4"/>
	<path id="CO_Baca" inkscape:label="Baca, CO" fill="#aa0000" stroke="#FFFFFF" stroke-width="0.9247" d="M193.6,447.5l11.3-0.2
		l24.4-0.5l0.2,11.3l0.4,17.5l-10.9,0.2l-18.1,0.1l-4.4,0l-2.9,0l-0.1-5.5l0-11.3l0.3,0L193.6,447.5"/>
	<path id="CO_Otero" inkscape:label="Otero, CO" fill="#e27f90" stroke="#FFFFFF" stroke-width="0.9247" d="M182.2,420.1l0.1,27.5
		l-22.6,0.1l-0.1-4l0.1-18.2l0.9,0.3l3.3,0.7l3.6,0.5l7.3,0l3.7-2.6l0.2-4.1L182.2,420.1"/>
	<path id="CO_Crowley" inkscape:label="Crowley, CO" fill="#d40000" stroke="#FFFFFF" stroke-width="0.9247" d="M159.9,408.8
		l18.7,0.2l0.2,11.1l-0.2,4.1l-3.7,2.6l-7.3,0l-3.6-0.5l-3.3-0.7l-0.9-0.3L159.9,408.8"/>
	<path id="CO_Lincoln" inkscape:label="Lincoln, CO" fill="#d40000" stroke="#FFFFFF" stroke-width="0.9247" d="M190,362.5l0.1,12.4
		l-0.2,7.1l0,3.9l-0.1,18.8l0,3.9l-2.7,0.1l-7.2,0.1l-1.4,0.3l-18.7-0.2l-0.1-15.3l11.4,0.1l0.1-11.5l-0.1-19.4l0.2,0L190,362.5"/>
	<path id="CO_Elbert" inkscape:label="Elbert, CO" fill="#d40000" stroke="#FFFFFF" stroke-width="0.9247" d="M159.8,393.5l0.1-11.5
		l-20.7-0.1l0.2-19.3l31.8,0l0.1,19.4l-0.1,11.5L159.8,393.5"/>
	
		<path id="CO_Arapahoe" inkscape:label="Arapahoe, CO" sodipodi:nodetypes="cccccccccccccccccc" fill="#86b6f2" stroke="#FFFFFF" stroke-width="0.9247" d="
		M131.9,354.8l2.8,0l2.2,0l8.8,0.1l18.5-0.1l7.1,0l0,7.7l-0.2,0l-31.8,0l-13-0.1l-0.1-2.5l0-0.4l0-0.1l0,0l5.6-0.5l0.5-1.4l-0.4-2.3
		l0-0.4"/>
	
		<path id="CO_Weld" inkscape:label="Weld, CO" sodipodi:nodetypes="ccccccccccccccccccccc" fill="#e27f90" stroke="#FFFFFF" stroke-width="0.9247" d="
		M159.8,299.2l15.8-0.1l0.1,1l0,12.2l-0.2,0l0,7.9l-3.8,0.1l-4.2-0.1l-10.8,0l-0.1,23.1l-27.6-0.1l0-1.1l-1.4,0l-0.1,1.1l-1,0
		l0-11.6l0-3.8l3.7,0l0.1-3.9l0.2-24.8L159.8,299.2"/>
	
		<path id="CO_Adams" inkscape:label="Adams, CO" sodipodi:nodetypes="ccccccccccccccccccc" fill="#b9d7ff" stroke="#FFFFFF" stroke-width="0.9247" d="
		M128.2,343.4l28.4,0.1l14.8,0l0,11.6l-7.1,0l-18.5,0.1l-8.8-0.1l-2.2,0l-2.8-0.1l2.9-3.4l2.5-0.2l0.1-2.3l-1.9-0.1l-3.9,3.5
		l-5.3,0.2l0.1-5.4l1-0.6l0.1-2.3l0.6,0"/>
	
		<path id="CO_Denver" inkscape:label="Denver, CO" sodipodi:nodetypes="cccccccccccccc" fill="#1666cb" stroke="#FFFFFF" stroke-width="0.9247" d="
		M126.3,352.6l5.3-0.2l4-3.5l1.8,0.1l-0.1,2.3l-2.5,0.1l-2.9,3.4l0,0.7l0.4,2.3l-0.5,1.4l-5.6,0.5l0-1.6l0-0.6L126.3,352.6"/>
	<path id="CO_Douglas" inkscape:label="Douglas, CO" fill="#e27f90" stroke="#FFFFFF" stroke-width="0.9247" d="M126.4,362.5l13,0.1
		l-0.2,19.3l-12.5-0.1l-10-0.1L126.4,362.5"/>
	<path id="CO_El_Paso" inkscape:label="El Paso, CO" fill="#e27f90" stroke="#FFFFFF" stroke-width="0.9247" d="M159.8,393.5
		l0.1,15.3l-30.3,0l0-5.8l0.1-2.7l0-3.8l-3-3.2l0.1-7.1l-0.2-4.4l12.5,0.1l20.7,0.1L159.8,393.5"/>
	<path id="CO_Teller" inkscape:label="Teller, CO" fill="#cc2f4a" stroke="#FFFFFF" stroke-width="0.9247" d="M116.7,381.7
		L116.7,381.7l10,0.1l0.2,4.4l-0.1,7.1l3,3.2l0,3.8l-0.1,2.7l-5.7,0l-4.4-0.1l0-1.1l-1.5-1.1l-1.5,0L116.7,381.7"/>
	<path id="CO_Pueblo" inkscape:label="Pueblo, CO" fill="#b9d7ff" stroke="#FFFFFF" stroke-width="0.9247" d="M129.6,408.8l30.3,0
		l-0.1,16.6l-0.1,18.2l-10-3.7l-10.2-3.7l-11.7,0.7l-1.5-1l-0.6-0.5l0.2-15.1l3.7,0L129.6,408.8"/>
	<path id="CO_Las_Animas" inkscape:label="Las Animas, CO" fill="#e27f90" stroke="#FFFFFF" stroke-width="0.9247" d="M149.7,440
		l10,3.7l0.1,4l22.6-0.1l11.3-0.1l0.2,11.6l-0.3,0l0,11.3l0.1,5.5l-32.1,0.4l-25.2,0.1l-9.3-0.1l-5.4-0.1l0.2-13.2l1.3-0.1l12.7-4.8
		l1.4-1.3l5.6-7.6l3.6-6.5L149.7,440"/>
	<path id="CO_Huerfano" inkscape:label="Huerfano, CO" fill="#f2b3be" stroke="#FFFFFF" stroke-width="0.9247" d="M111.1,436.2
		l1.9,0.3l0.2,0l3.9-1.4l5.1-3l3.5,3.4l0.6,0.5l1.5,1l11.7-0.7l10.2,3.7l-3.2,2.7l-3.6,6.5l-5.6,7.6l-1.4,1.3l-12.7,4.8l-1.3,0.1
		l0.7-5.2l-2-8.7l-3.4-2l-0.2,0l-2.4,0.6l-2.5,1.2l-1.5,1.5l1.1-7.7L111.1,436.2"/>
	<path id="CO_Costilla" inkscape:label="Costilla, CO" fill="#4389e3" stroke="#FFFFFF" stroke-width="0.9247" d="M101.4,459.9
		l9.1-9.6l1.5-1.5l2.5-1.2l2.4-0.6l0.2,0l3.4,2l2,8.7l-0.7,5.2l-0.2,13.2l-2.3,0l-17.3-0.3l-1.5-1.4l-0.2-0.5l-0.1-0.4l0.1-0.9
		l0.8-1.7l0.5-2.2l0.4-5.3L101.4,459.9"/>
	<path id="CO_Conejos" inkscape:label="Conejos, CO" fill="#f2b3be" stroke="#FFFFFF" stroke-width="0.9247" d="M91.2,457.8
		l10.2,2.1l0.6,3.6l-0.4,5.3l-0.5,2.2l-0.8,1.7l-0.1,0.9l0.1,0.4l0.2,0.5l1.5,1.4l-10-0.2l-16.3-0.3l-0.4-1l-5.3-9l-1-0.6l0.2-7.7
		L91.2,457.8"/>
	<path id="CO_Alamosa" inkscape:label="Alamosa, CO" fill="#b9d7ff" stroke="#FFFFFF" stroke-width="0.9247" d="M111.6,442.6
		l-1.1,7.7l-9.1,9.6l-10.2-2.1l0.3-15.4L111.6,442.6"/>
	<path id="CO_Rio_Grande" inkscape:label="Rio Grande, CO" fill="#e27f90" stroke="#FFFFFF" stroke-width="0.9247" d="M69.1,438.1
		l3.7,0.1l-0.1,3.8l18.9,0.4l-0.3,15.4l-22.1-0.6l-1.1-0.1l0.1-5.2l0.7-6.3L69.1,438.1"/>
	<path id="CO_Custer" inkscape:label="Custer, CO" fill="#cc2f4a" stroke="#FFFFFF" stroke-width="0.9247" d="M100.3,419.7l8.5,0.2
		l7,0.3l10,0.2l-0.2,15.1l-3.5-3.4l-5.1,3l-3.9,1.4l-0.2,0l-1.9-0.3l-1-1.3l-3.6-4.9l-2.2-5l-0.5-0.9L100.3,419.7"/>
	<path id="CO_Fremont" inkscape:label="Fremont, CO" fill="#cc2f4a" stroke="#FFFFFF" stroke-width="0.9247" d="M116.5,400.8l1.5,0
		l1.5,1.1l0,1.1l4.4,0.1l5.7,0l-0.1,17.3l-3.7,0l-10-0.2l-7-0.3l-8.5-0.2l-7.1-8.2l3.6-3l0.8-2.1l0.3-1.7l0-0.2l-0.2-0.6l-1.2-2.6
		l-0.1-0.1l-0.6-0.4l-0.8-0.3l7.9,0.1l9.8,0L116.5,400.8"/>
	<path id="CO_Saguache" inkscape:label="Saguache, CO" fill="#b9d7ff" stroke="#FFFFFF" stroke-width="0.9247" d="M85,412.5l8.1-0.9
		l7.1,8.2l3.5,4.4l0.5,0.9l2.2,5l3.6,4.9l1,1.3l0.5,6.4l-20-0.2L72.7,442l0.1-3.8l-3.7-0.1l-0.4-1.8l-6-4l-0.4-0.3l-2.5-0.4l-1,0.6
		l-0.1,0.2l0.2-8.4l0.4-12.3L85,412.5"/>
	<path id="CO_Chaffee" inkscape:label="Chaffee, CO" fill="#f2b3be" stroke="#FFFFFF" stroke-width="0.9247" d="M74.4,384.1
		l13.1,0.4l0.3,0.8l2.3,4.3l1.4,0.4l0.2,0l0.2-0.2l0.1-0.2l0.2-0.1l0.8,0l2,1.6l0.7,1.1l0.8,4.2l-0.9,3.2l-0.8,1l0.8,0.3l0.6,0.4
		l0.1,0.1l1.2,2.6l0.2,0.6l0,0.2l-0.3,1.7l-0.8,2.1l-3.6,3l-8.1,0.9l-2.8-3.2l-3.2-7l-0.3-1.6l0.7-5.4l0.3-0.7l0.3-0.2l-0.3-4.2
		l-6.1-3.4L74.4,384.1"/>
	<path id="CO_Gunnison" inkscape:label="Gunnison, CO" fill="#86b6f2" stroke="#FFFFFF" stroke-width="0.9247" d="M47.1,374.5
		l0.5,2.6l0.7,1.2l2.3,2.5l6.9,0.2l0.5,0l2.3,2.2l0,0.8l0.7,1l2.2,1.7l2.7,0.7l0.9,0l0.6-0.4l1.2-1.7l0.1-0.7l1.6-0.5l0.2,0l3.2,2.6
		l6.1,3.4l0.3,4.2l-0.3,0.2l-0.3,0.7l-0.7,5.4l0.3,1.6l3.2,7l2.8,3.2l-25.7-0.8L58.9,424l-19.4-0.7l-2-6.9l4.6,0.2l0.5-16.2
		l0.9-24.3L47.1,374.5"/>
	<path id="CO_Pitkin" inkscape:label="Pitkin, CO" fill="#4389e3" stroke="#FFFFFF" stroke-width="0.9247" d="M56.8,370l23.1,0.8
		l-5.4,13.3l-0.8,2.6l-3.2-2.6l-0.2,0l-1.6,0.5l-0.1,0.7l-1.2,1.7l-0.6,0.4l-0.9,0l-2.7-0.7L61,385l-0.7-1l0-0.8l-2.3-2.2l-0.5,0
		l-6.9-0.2l-2.3-2.5l-0.7-1.2l-0.5-2.6l-1.1-4.9L56.8,370"/>
	<path id="CO_Lake" inkscape:label="Lake, CO" fill="#86b6f2" stroke="#FFFFFF" stroke-width="0.9247" d="M87.3,370.2l2.4,0.1
		l-0.6,0.7l-1.1,2.3l-0.1,1.3l0.1,3.1l0.2,3.2l-0.3,2.7l-0.4,0.9l-13.1-0.4l5.4-13.3L87.3,370.2"/>
	<path id="CO_Park" inkscape:label="Park, CO" fill="#e27f90" stroke="#FFFFFF" stroke-width="0.9247" d="M114.6,362.4l-0.2,19.3
		l2.3,0l-0.2,19.1l-4.1-0.1l-9.8,0l-7.9-0.1l0.8-1l0.9-3.2l-0.8-4.2l-0.7-1.1l-2-1.6l-0.8,0l-0.2,0.1l-0.1,0.2l-0.2,0.2l-0.2,0
		l-1.4-0.4l-2.3-4.3l-0.3-0.8l0.4-0.9l0.3-2.7l-0.2-3.2l-0.1-3.1l0.1-1.3l1.1-2.3l0.6-0.7l4,0.7l5.3-6.4l1.1-2.3L114.6,362.4"/>
	
		<path id="CO_Jefferson" inkscape:label="Jefferson, CO" sodipodi:nodetypes="ccccccccccccccccccc" fill="#b9d7ff" stroke="#FFFFFF" stroke-width="0.9247" d="
		M126.4,347.1l0,2.7l0,2.7l0,4.8l0,0.6l0,1.6l0,0l0,0.1l0,0.4l0.1,2.5l-9.6,19.2l0,0l-2.3,0l0.2-19.3l0.1-8l0.1-7.3l9.5,0.1
		l-0.1,0.4l1.3,0"/>
	<path id="CO_Gilpin" inkscape:label="Gilpin, CO" fill="#b9d7ff" stroke="#FFFFFF" stroke-width="0.9247" d="M105.6,346.1l5.9,0.1
		l2.1-0.2l1.3,0.1l0,1l-0.1,7.3l-5-1.6l-1-1.1l-1.8-1.5l-2-0.6L105.6,346.1"/>
	<path id="CO_Clear_Creek" inkscape:label="Clear Creek, CO" fill="#b9d7ff" stroke="#FFFFFF" stroke-width="0.9247" d="M105,349.6
		l2,0.6l1.8,1.5l1,1.1l5,1.6l-0.1,8l-14.5-0.2l1.8-1.7l0-0.2l-0.2-0.9l-0.3-0.3l-0.8,0.1l-3.1-1.3l-0.5-0.5l0.1-1.1l0.6-1.2l2.9-2.6
		l2-0.4l0.7-0.4l1.6-1.5L105,349.6"/>
	<path id="CO_Summit" inkscape:label="Summit, CO" fill="#86b6f2" stroke="#FFFFFF" stroke-width="0.9247" d="M80.2,345.9l1.3,0.1
		l5.5,1.5l3.4,2.4l1.3,1.6l0.5,1.9l0.3,1.7l1,1.6l1,0.3l1.7-0.2l0.7-0.4l-0.1,1.1l0.5,0.5l3.1,1.3l0.8-0.1l0.3,0.3l0.2,0.9l0,0.2
		l-1.8,1.7l-1.1,2.3l-5.3,6.4l-4-0.7l-2.4-0.1l-1.5-6.3l-5.3-14.4l-0.3-1.3L80.2,345.9"/>
	<path id="CO_Eagle" inkscape:label="Eagle, CO" fill="#86b6f2" stroke="#FFFFFF" stroke-width="0.9247" d="M73.8,345.7l6.4,0.2
		l0,2.3l0.3,1.3l5.3,14.4l1.5,6.3l-7.4,0.6L56.8,370l0.7-24.5l2.8,0.1L73.8,345.7"/>
	
		<path id="CO_Boulder" inkscape:label="Boulder, CO" sodipodi:nodetypes="cccccccccccccc" fill="#1666cb" stroke="#FFFFFF" stroke-width="0.9247" d="
		M105.6,346.1l1-14.5l3.4,0l5,0.2l11.6-0.1l0,11.6l-0.1,2.5l-1.2,0l-0.8,1.3l-9.6-0.1l0-1l-1.3-0.1l-2.1,0.2L105.6,346.1"/>
	<path id="CO_Grand" inkscape:label="Grand, CO" fill="#e27f90" stroke="#FFFFFF" stroke-width="0.9247" d="M73.8,345.7l0.1-3.3
		l0.2-15.1l-0.5-4.6l1.3,2.8l0.3,0.3l5.3,1.4l7,1.1l1.4-0.1l7.2-1l2.3-2l1.7-3.8l6.5,10.1l-1,14.5l-0.5,3.6l-0.2,0.6l-1.6,1.5
		l-0.7,0.4l-2,0.4l-2.9,2.6l-0.6,1.2l-0.7,0.4l-1.7,0.2l-1-0.3l-1-1.6l-0.3-1.7l-0.5-1.9l-1.3-1.6l-3.4-2.4l-5.5-1.5l-1.3-0.1
		L73.8,345.7"/>
	<path id="CO_Larimer" inkscape:label="Larimer, CO" fill="#b9d7ff" stroke="#FFFFFF" stroke-width="0.9247" d="M89.4,298.6
		l30.1,0.5l11,0.1l-0.2,24.8l-0.1,3.9l-3.7,0l0,3.8l-11.6,0.1l-5-0.2l-3.4,0l-6.5-10.1l-2-3.8l-1.7-5.6l-1.9-3.9l-0.4-0.7l-3.6-5
		L89.4,298.6"/>
	<path id="CO_Jackson" inkscape:label="Jackson, CO" fill="#d40000" stroke="#FFFFFF" stroke-width="0.9247" d="M67.5,297.9
		l17.6,0.6l4.3,0.1l1,3.9l3.6,5l0.4,0.7l1.9,3.9l1.7,5.6l2,3.8l-1.7,3.8l-2.3,2l-7.2,1l-1.4,0.1l-7-1.1l-5.3-1.4l-0.3-0.3l-1.3-2.8
		l-0.5-1.4l-1-4.6l-0.1-1.6l1.7-6.8l0.3-0.2l0.5-0.6l0.1-0.6l-0.1-0.6l-0.9-1.8l-0.5-0.5l-0.6-0.6l-2.4-1.1l-0.3-0.1l-0.2,0.2
		l-0.5,0.3l-1.7-1.3l-0.5-1.4l-0.1-0.7l0.4-1.2L67.5,297.9"/>
	<path id="CO_Routt" inkscape:label="Routt, CO" fill="#86b6f2" stroke="#FFFFFF" stroke-width="0.9247" d="M52.3,297.4l15.2,0.5
		l-0.1,0.1l-0.4,1.2l0.1,0.7l0.5,1.4l1.7,1.3l0.5-0.3l0.2-0.2l0.3,0.1l2.4,1.1l0.6,0.6l0.5,0.5l0.9,1.8l0.1,0.6l-0.1,0.6l-0.5,0.6
		l-0.3,0.2l-1.7,6.8l0.1,1.6l1,4.6l0.5,1.4l0.5,4.6l-0.2,15.1l-0.1,3.3l-13.5-0.1l0-7.6l0.2-5.9l-13.4-0.4l0.1-4.9l0.8-9.1l2-2.3
		l1.1-0.1l0.8,0l0.1-4.1L52.3,297.4"/>
	<path id="CO_Moffat" inkscape:label="Moffat, CO" fill="#aa0000" stroke="#FFFFFF" stroke-width="0.9247" d="M32.5,296.7l19.8,0.7
		L52,311.1l-0.1,4.1l-0.8,0l-1.1,0.1l-2,2.3l-0.8,9.1l-0.1,4.9l0,0.1l-0.3,0l-9.1-0.5l-13.5-0.5l-30.8-1.5l1.1-19l0.7-15.3l26.3,1.3
		L32.5,296.7"/>
	<path id="CO_Rio_Blanco" inkscape:label="Rio Blanco, CO" fill="#aa0000" stroke="#FFFFFF" stroke-width="0.9247" d="M47.1,331.7
		l13.4,0.4l-0.2,5.9l-9.3-0.3l-0.2,4l-0.1,3.8l-3.9,3.7l-9.9-0.4l-7.1-0.1l-0.2,5.8l-9.4-0.4l-7.6,0.4l-3.8,1.1L-2.6,355l-0.2-0.5
		l-5-0.2l1.3-24.8l30.8,1.5l13.5,0.5l9.1,0.5l0.3,0L47.1,331.7"/>
	<path id="CO_Garfield" inkscape:label="Garfield, CO" fill="#f2b3be" stroke="#FFFFFF" stroke-width="0.9247" d="M60.3,338l0,7.6
		l-2.8-0.1L56.8,370l-10.7-0.4l-54.5-2.4l0.3-5.8l0.4-7.2l5,0.2l0.2,0.5l11.4,0.6l3.8-1.1l7.6-0.4l9.4,0.4l0.2-5.8l7.1,0.1l9.9,0.4
		l3.9-3.7l0.1-3.8l0.2-4L60.3,338"/>
	<path id="CO_Delta" inkscape:label="Delta, CO" fill="#cc2f4a" stroke="#FFFFFF" stroke-width="0.9247" d="M43.5,376.1l-0.9,24.3
		l-29.8-1.2l0.3-7.1l13.9-9.6l4-0.6l6.3-0.8l1.5-1.8l1.1-0.8L43.5,376.1"/>
	<path id="CO_Mesa" inkscape:label="Mesa, CO" fill="#cc2f4a" stroke="#FFFFFF" stroke-width="0.9247" d="M-8.5,367.2l54.5,2.4
		l1.1,4.9l-3.7,1.6l-3.7,2.4l-1.1,0.8l-1.5,1.8l-6.3,0.8l-4,0.6l-13.9,9.6l-0.3,7.1l-0.3,7.4l-23.2-1.1l0.5-9.7l0.6-8.2l0.1-1.7
		l0.5-8L-8.5,367.2"/>
	<path id="CO_Montrose" inkscape:label="Montrose, CO" fill="#cc2f4a" stroke="#FFFFFF" stroke-width="0.9247" d="M12.8,399.2
		l29.8,1.2l-0.5,16.2l-4.6-0.2l0.2-1l-0.2-0.3l-17-0.7l0,0.5l1.4,3l2.6,0.1l0.9,0.3l1.2,1l0.3,0.3l-0.1,2l-0.3,0.9l-0.6,0l-36.8-1.7
		l0.2-15.4l23.2,1.1L12.8,399.2"/>
	<path id="CO_San_Juan" inkscape:label="San Juan, CO" fill="#86b6f2" stroke="#FFFFFF" stroke-width="0.9247" d="M33.3,433.8
		l0.5,0.3l0.8,0.3l0.2,0l1.1-0.5l0.5-0.3l0.4-0.5l0-0.1l-0.1-0.4l0-0.2l0.1-1.3l2.5,0.1l2.5,14.5l-16.9-0.6l0.3-1.2l1.1-1.6l1.8-0.5
		l0.7-1.6l0.1-0.9L33.3,433.8"/>
	<path id="CO_Dolores" inkscape:label="Dolores, CO" fill="#d40000" stroke="#FFFFFF" stroke-width="0.9247" d="M28.9,439.4
		l-0.1,0.9l-0.7,1.6l-1.8,0.5l-1.1,1.6l-0.3,1.2l-4.7-0.2l-3,0.1l-3.9-0.1l-21-1l-4.7,6.3l0.9-17.5l7.6,0.4l0.1-0.4l0.8-0.2
		l18.5,0.9l0.6,0.8l0.2,0.7l0.1,0.8l0.6,1l5.3-0.7l1.5-0.6l0.9,0.2l2.3,1.6L28.9,439.4"/>
	<path id="CO_San_Miguel" inkscape:label="San Miguel, CO" fill="#4389e3" stroke="#FFFFFF" stroke-width="0.9247" d="M-10.9,420.9
		l36.8,1.7l0,0.3l0.4,1.3l1.6,4l0.3,0.7l0.2,0.2l1.1,0.6l1.2,0.3l1,0.5l1.3,1.2l0.5,1l-0.1,0.8l-0.1,0.2l-4.4,5.6l-1.9-2l-2.3-1.6
		l-0.9-0.2l-1.5,0.6l-5.3,0.7l-0.6-1l-0.1-0.8l-0.2-0.7l-0.6-0.8L-3,432.7l-0.8,0.2l-0.1,0.4l-7.6-0.4L-10.9,420.9"/>
	<path id="CO_Ouray" inkscape:label="Ouray, CO" fill="#86b6f2" stroke="#FFFFFF" stroke-width="0.9247" d="M37.5,416.4l2,6.9
		l-0.3,8.1l-2.5-0.1l-0.1,1.3l0,0.2l0.1,0.4l0,0.1l-0.4,0.5l-0.5,0.3l-1.1,0.5l-0.2,0l-0.8-0.3l-0.5-0.3l0.1-0.2l0.1-0.8l-0.5-1
		l-1.3-1.2l-1-0.5l-1.2-0.3l-1.1-0.6l-0.2-0.2l-0.3-0.7l-1.6-4l-0.4-1.3l0-0.3l0.6,0l0.3-0.9l0.1-2l-0.3-0.3l-1.2-1l-0.9-0.3
		l-2.6-0.1l-1.4-3l0-0.5l17,0.7l0.2,0.3L37.5,416.4"/>
	<path id="CO_Hinsdale" inkscape:label="Hinsdale, CO" fill="#e27f90" stroke="#FFFFFF" stroke-width="0.9247" d="M39.5,423.3
		l19.4,0.7l-0.2,8.4l-2.5,0l-2.3,0.7l-0.5,9.8l0.4,5.4l-0.3,7.6l-12.2-0.4l0.3-9.6l-2.5-14.5L39.5,423.3"/>
	<path id="CO_Mineral" inkscape:label="Mineral, CO" fill="#e27f90" stroke="#FFFFFF" stroke-width="0.9247" d="M58.7,432.4l0.1-0.2
		l1-0.6l2.5,0.4l0.4,0.3l6,4l0.4,1.8l-0.3,7.5l-0.7,6.3l-0.1,5.2l0,0.4l-14.5-0.3l0.1-1.4l0.3-7.6l-0.4-5.4l0.5-9.8l2.3-0.7
		L58.7,432.4"/>
	<path id="CO_Archuleta" inkscape:label="Archuleta, CO" fill="#e27f90" stroke="#FFFFFF" stroke-width="0.9247" d="M41.3,455.5
		l12.2,0.4l-0.1,1.4l14.5,0.3l0-0.4l1.1,0.1l-0.2,7.7l1,0.6l5.3,9l0.4,1l-4.9-0.1l-8.8-0.2l-4.5-0.5l-14.6-0.5l-2.1-0.1L41.3,455.5"
		/>
	
		<path id="CO_Broomfield" inkscape:label="Broomfield, CO" sodipodi:nodetypes="ccccccccccccccc" fill="#86b6f2" stroke="#FFFFFF" stroke-width="0.9247" d="
		M124.3,347.6l0.1-0.4l0.8-1.3l1.2,0l0-2.5l1,0l0.1-1.1l1.4,0l0,1.1l-0.8,0l0,0.9l-0.6,0l-0.1,2.3l-1.7,1L124.3,347.6z"/>
</g>
</svg>