<?xml version="1.0" encoding="utf-8"?>
<!-- Generator: Adobe Illustrator 16.0.0, SVG Export Plug-In . SVG Version: 6.00 Build 0)  -->
<!DOCTYPE svg PUBLIC "-//W3C//DTD SVG 1.1//EN" "http://www.w3.org/Graphics/SVG/1.1/DTD/svg11.dtd">
<svg version="1.1"
	 id="svg5598" xmlns:svg="http://www.w3.org/2000/svg" xmlns:rdf="http://www.w3.org/1999/02/22-rdf-syntax-ns#" xmlns:cc="http://creativecommons.org/ns#" xmlns:sodipodi="http://sodipodi.sourceforge.net/DTD/sodipodi-0.dtd" xmlns:dc="http://purl.org/dc/elements/1.1/" xmlns:inkscape="http://www.inkscape.org/namespaces/inkscape" inkscape:version="0.48.1 " sodipodi:docname="Connecticut_Election_Results_by_County,_all_Democratic[1].svg" sodipodi:version="0.32" inkscape:output_extension="org.inkscape.output.svg.inkscape"
	 xmlns="http://www.w3.org/2000/svg" xmlns:xlink="http://www.w3.org/1999/xlink" x="0px" y="0px" width="155.8px" height="127.4px"
	 viewBox="0 0 155.8 127.4" enable-background="new 0 0 155.8 127.4" xml:space="preserve">
<defs>
	
	
		<inkscape:perspective  id="perspective5606" inkscape:vp_z="744.09448 : 526.18109 : 1" inkscape:vp_y="0 : 1000 : 0" inkscape:vp_x="0 : 526.18109 : 1" sodipodi:type="inkscape:persp3d" inkscape:persp3d-origin="372.04724 : 350.78739 : 1">
		</inkscape:perspective>
</defs>
<sodipodi:namedview  bordercolor="#666666" pagecolor="#ffffff" objecttolerance="10" borderopacity="1.0" guidetolerance="10" inkscape:cx="77.896103" showgrid="false" inkscape:cy="63.682968" inkscape:zoom="4.0591701" gridtolerance="10000" id="base" inkscape:window-width="1366" inkscape:window-y="-8" inkscape:current-layer="layer1" inkscape:pageopacity="0.0" inkscape:window-height="706" inkscape:window-maximized="1" inkscape:pageshadow="2" inkscape:window-x="-8" inkscape:document-units="px">
	</sodipodi:namedview>
<g id="layer1" transform="translate(-366.05311,-413.92913)" inkscape:label="Layer 1" inkscape:groupmode="layer">
	<path id="CT_Hartford" inkscape:label="Hartford, CT" fill="#86B6F2" stroke="#FFFFFF" stroke-width="1.6323" d="M411.303,439.629
		l35.5-6.8l3.301,6.6l13.6,23.7l0.199,0.4l0.4,1.899l-3.6,2.301l-4.301-4.4l-8.6,2.3l-5.8,2.3l-1.6,4.4l-17.9-1.4l-6.2-12l4.6-1.6
		l0.4-14l-9.9,2.6L411.303,439.629"/>
	<path id="CT_Litchfield" inkscape:label="Litchfield, CT" fill="#E27F90" stroke="#FFFFFF" stroke-width="1.6323" d="
		M408.203,440.23l3.2-0.601l0.2,6l9.9-2.6l-0.4,14l-4.6,1.6l6.2,12l-7.6,7.8l-13.2,7.601l-0.2,1.1l0.2,0.7l0.6,0.5l0.9,0.5l-0.1,0.2
		h-1l-3.9-0.9l-5.8-1.6l-0.6-0.9l-1.4-1.9l-3.9-6.6l-0.6-0.6l-2-0.3l-6.8-30.7L408.203,440.23"/>
	<path id="CT_Fairfield" inkscape:label="Fairfield, CT" fill="#86B6F2" stroke="#FFFFFF" stroke-width="1.6323" d="
		M386.203,487.429l-2.3-11.199l2,0.3l0.6,0.6l3.9,6.6l1.4,1.9l0.6,0.9l5.8,1.6l3.9,0.9h1l0.1-0.2l2.7,0.8l5.8,1.6l12.8,7.4l-0.2,3.9
		l-0.9,1.7l-0.2,0.699l0.2,3.801l0.2,0.399l1.2,0.601l-5,1.1l-12.5,7.7l-17.1,11.899l-0.4,0.7l-0.2,0.9l-7.7-8.101l5.4-4.5
		l0.5-0.399l2.3-13l-1.2-5.7L386.203,487.429"/>
	<path id="CT_New_Haven" inkscape:label="New Haven, CT" fill="#86B6F2" stroke="#FFFFFF" stroke-width="1.6323" d="M440.603,472.23
		l2.5,6.3l5.2,4.399l2.7-1.1l1,0.5l3.2,3l8.6,8.7l-3.8-0.2l-2.399,0.5l-9.9,2.5l-6.2,2.1l-3.4,0.4l-1.6-1.6l-0.6,0.199l-8.4,8
		l-1.1,1.301l-1.3,2.1l-0.1,0.3v0.101l-1.2-0.601l-0.2-0.399l-0.2-3.801l0.2-0.6l0.9-1.7l0.2-3.899l-12.8-7.4l-5.8-1.6l-2.7-0.801
		l-0.9-0.5l-0.6-0.5l-0.2-0.699l0.2-1.101l13.2-7.6l7.6-7.8L440.603,472.23"/>
	<path id="CT_Middlesex" inkscape:label="Middlesex, CT" fill="#86B6F2" stroke="#FFFFFF" stroke-width="1.6323" d="
		M460.803,467.629l16.7,21.8l-13.601,4.601l-8.6-8.7l-3.199-3l-1-0.5l-2.701,1.1l-5.199-4.399l-2.5-6.301l1.6-4.399l5.801-2.3
		l8.6-2.301L460.803,467.629"/>
	<path id="CT_New_London" inkscape:label="New London, CT" fill="#86B6F2" stroke="#FFFFFF" stroke-width="1.6323" d="
		M508.703,456.53l1.9,22.6l-9.101,2.1l-18.601,7l-3.899,1.2l-0.7,0.101l-0.699-0.101l-16.701-21.8l3.601-2.3l9.399-11.4l4.701,2.2
		l2.5,1l15.199-1.2l6.5-2.2l5-0.699L508.703,456.53"/>
	<path id="CT_Tolland" inkscape:label="Tolland, CT" fill="#86B6F2" stroke="#FFFFFF" stroke-width="1.6323" d="M475.703,427.23
		l1.9,5.399l-6.801,1.4l-1.5,0.399l3,9.7l3.4,1.601l3,3.899l-2.1,2l-2.801,2.3l-9.4,11.4l-0.399-1.9l-0.2-0.399l-13.6-23.7
		l-3.301-6.6l26.5-5.101L475.703,427.23"/>
	<path id="CT_Windham" inkscape:label="Windham, CT" fill="#E27F90" stroke="#FFFFFF" stroke-width="1.6323" d="M497.703,424.329
		l7.8,22.1l2.101,6.7l-5,0.7l-6.5,2.2l-15.201,1.2l-2.5-1l-4.699-2.2l2.8-2.3l2.101-2l-3-3.9l-3.4-1.6l-3-9.7l1.5-0.4l6.8-1.4
		l-1.899-5.399l3-0.5l18.399-3.601L497.703,424.329"/>
</g>
</svg>
