<?xml version="1.0" encoding="UTF-8" standalone="no"?>
<!-- Generator: Adobe Illustrator 18.1.1, SVG Export Plug-In . SVG Version: 6.00 Build 0)  -->

<svg
   xmlns:dc="http://purl.org/dc/elements/1.1/"
   xmlns:cc="http://creativecommons.org/ns#"
   xmlns:rdf="http://www.w3.org/1999/02/22-rdf-syntax-ns#"
   xmlns:svg="http://www.w3.org/2000/svg"
   xmlns="http://www.w3.org/2000/svg"
   xmlns:sodipodi="http://sodipodi.sourceforge.net/DTD/sodipodi-0.dtd"
   xmlns:inkscape="http://www.inkscape.org/namespaces/inkscape"
   version="1.1"
   id="svg6570"
   sodipodi:version="0.32"
   inkscape:version="0.91 r13725"
   sodipodi:docname="Delaware_Presidential_Election_Results_2016.svg"
   inkscape:output_extension="org.inkscape.output.svg.inkscape"
   x="0px"
   y="0px"
   width="108.2px"
   height="211.3px"
   viewBox="-201 116 108.2 211.3"
   enable-background="new -201 116 108.2 211.3"
   xml:space="preserve"><metadata
     id="metadata11"><rdf:RDF><cc:Work
         rdf:about=""><dc:format>image/svg+xml</dc:format><dc:type
           rdf:resource="http://purl.org/dc/dcmitype/StillImage" /><dc:title></dc:title></cc:Work></rdf:RDF></metadata><defs
     id="defs3"><inkscape:perspective
       inkscape:persp3d-origin="372.04724 : 350.78739 : 1"
       sodipodi:type="inkscape:persp3d"
       inkscape:vp_x="0 : 526.18109 : 1"
       inkscape:vp_y="0 : 1000 : 0"
       inkscape:vp_z="744.09448 : 526.18109 : 1"
       id="perspective6578" /></defs><sodipodi:namedview
     inkscape:window-maximized="1"
     showguides="true"
     pagecolor="#ffffff"
     bordercolor="#666666"
     borderopacity="1.0"
     gridtolerance="10000"
     guidetolerance="10"
     objecttolerance="10"
     inkscape:zoom="2.4464905"
     inkscape:cx="-11.277924"
     inkscape:cy="105.66156"
     showgrid="false"
     id="base"
     inkscape:guide-bbox="true"
     inkscape:document-units="px"
     inkscape:pageopacity="0.0"
     inkscape:pageshadow="2"
     inkscape:current-layer="layer1"
     inkscape:window-width="1920"
     inkscape:window-height="1017"
     inkscape:window-x="-8"
     inkscape:window-y="-8" /><g
     id="layer1"
     transform="translate(-378.0172,-381.55925)"
     inkscape:label="Layer 1"
     inkscape:groupmode="layer"><path
       id="DE_New_Castle"
       inkscape:label="New Castle, DE"
       fill="#CCCCCC"
       stroke="#FFFFFF"
       stroke-width="0.8944"
       d="M217.4,516   l-5.1,12.7l-2.1-0.6l-5.3,6.3l-2.3,4.3l-0.1,0.7l0.2,1.3l0.3,1.2l3.9,13.5l9.8,16.9l-24.6,12.1l-1.8-10.9l-7.3-46.5l18.1-17.8   l19.1,2.7L217.4,516"
       style="fill:#4389e3;fill-opacity:1" /><path
       id="DE_Sussex"
       inkscape:label="Sussex, DE"
       fill="#CCCCCC"
       stroke="#FFFFFF"
       stroke-width="0.8944"
       d="M207.5,673.6   l-4.5-26.3l14.6-2.2l6.4-4.7l0.6-2l2.1-3.9l8.8-5l8.3-3.5l0.5,3.7l1,1.5l8.6,8.5l4.9,4.6l3.6,1.8l2.7,0.8l2.1-0.3l1.6-1l0.3-0.8   l2,5.8l4.4,19.1l2.9,16.4l0.6,4.7l-30.6,3.4l-1.6,0.2l-4.1,0.5l-1.7,0.1l-1.5,0.1l-0.4,0l-5.4,0.4l-2.2,0.2l-6.2,0.5l-3.1,0.2   l-0.4,0l-7.3,0.5l-3.2,0.2l-0.8-4.4l-0.7-4l-0.9-5.2L207.5,673.6"
       style="fill:#e27f90;fill-opacity:1" /><path
       id="DE_Kent"
       inkscape:label="Kent, DE"
       fill="#CCCCCC"
       stroke="#FFFFFF"
       stroke-width="0.8944"
       d="M192.3,584.4l24.6-12.1   l8.3,6.2l3.9,6.3l0.7,1.3l1.8,6.7l0.1,2.2l8.1,22.2l4,8.9l-8.3,3.5l-8.8,5l-2.1,3.9l-0.6,2l-6.4,4.7l-14.6,2.2l-9.5-56.1   L192.3,584.4"
       style="fill:#f2b3be;fill-opacity:1" /></g></svg>