<?xml version="1.0" encoding="UTF-8" standalone="no"?>
<!-- Generator: Adobe Illustrator 18.1.1, SVG Export Plug-In . SVG Version: 6.00 Build 0)  -->

<svg
   xmlns:dc="http://purl.org/dc/elements/1.1/"
   xmlns:cc="http://creativecommons.org/ns#"
   xmlns:rdf="http://www.w3.org/1999/02/22-rdf-syntax-ns#"
   xmlns:svg="http://www.w3.org/2000/svg"
   xmlns="http://www.w3.org/2000/svg"
   xmlns:sodipodi="http://sodipodi.sourceforge.net/DTD/sodipodi-0.dtd"
   xmlns:inkscape="http://www.inkscape.org/namespaces/inkscape"
   version="1.1"
   id="svg6520"
   sodipodi:version="0.32"
   inkscape:version="0.91 r"
   sodipodi:docname="Florida_Presidential_Election_Results_2016.svg"
   inkscape:output_extension="org.inkscape.output.svg.inkscape"
   x="0px"
   y="0px"
   width="322.7px"
   height="285.8px"
   viewBox="-94 79.5 322.7 285.8"
   enable-background="new -94 79.5 322.7 285.8"
   xml:space="preserve"><metadata
     id="metadata4639"><rdf:RDF><cc:Work
         rdf:about=""><dc:format>image/svg+xml</dc:format><dc:type
           rdf:resource="http://purl.org/dc/dcmitype/StillImage" /><dc:title></dc:title></cc:Work></rdf:RDF></metadata><defs
     id="defs4566"><inkscape:perspective
       inkscape:persp3d-origin="372.04724 : 350.78739 : 1"
       sodipodi:type="inkscape:persp3d"
       inkscape:vp_x="0 : 526.18109 : 1"
       inkscape:vp_y="0 : 1000 : 0"
       inkscape:vp_z="744.09448 : 526.18109 : 1"
       id="perspective6528" /></defs><sodipodi:namedview
     inkscape:window-maximized="0"
     pagecolor="#ffffff"
     bordercolor="#666666"
     borderopacity="1.0"
     gridtolerance="10000"
     guidetolerance="10"
     objecttolerance="10"
     inkscape:zoom="1.4508979"
     inkscape:cx="150.95976"
     inkscape:cy="144.47614"
     showgrid="false"
     id="base"
     inkscape:document-units="px"
     inkscape:pageopacity="0.0"
     inkscape:pageshadow="2"
     inkscape:current-layer="layer1"
     inkscape:window-width="1598"
     inkscape:window-height="682"
     inkscape:window-x="1920"
     inkscape:window-y="124" /><g
     id="layer1"
     transform="translate(-320.68149,-376.2632)"
     inkscape:label="Layer 1"
     inkscape:groupmode="layer"><path
       id="FL_Bay"
       inkscape:label="Bay, FL"
       fill="#999999"
       stroke="#FFFFFF"
       stroke-width="1.039"
       d="M320.5,484.3l0.7,15.9   l0.7,12.1l-3.9-1.4l-0.8-0.4l-0.3-0.2l-1-0.8l-1.2-1.3l-8-5.3l-0.6-0.4l-0.4-0.3l-0.4-0.3l-0.6-0.4l-1.4-0.8l-0.6-0.3l-0.5-0.3   l-0.6-0.3l-0.7-0.4l-0.6-0.3l-2.2-1l-0.1-5.3l1-1l4.1-1.5l11.5-0.5l2.3-0.1l-0.2-5.7l1.9-0.1L320.5,484.3"
       style="fill:#d40000;fill-opacity:1" /><path
       id="FL_Jackson"
       inkscape:label="Jackson, FL"
       fill="#999999"
       stroke="#FFFFFF"
       stroke-width="1.039"
       d="M315.6,465.8   l18.1-1.2l5.9,12.3l-2.3,4.7l-6.2,0.3l-2.8,1.8l-2.9,0.3l-5,0.2l-1.9,0.1l-0.4-9.5l-2.8-1.8l-3.6,0.2l3.4-7.5L315.6,465.8"
       style="fill:#cc2f4a;fill-opacity:1" /><path
       id="FL_Charlotte"
       inkscape:label="Charlotte, FL"
       fill="#999999"
       stroke="#FFFFFF"
       stroke-width="1.039"
       d="M459.2,628.3   l19.3-1.9l1,11.4l-19.4,1.8l0.1-1.4l-0.3-2.4l-0.5-3.4l-0.1-0.5l-0.5-0.3l-1.2,0.1l-0.3,0.2l-1.9,1.5l-0.2,0.3l0.5,6.1l-0.1,0.2   l-1.7,0.2l-0.4-0.4l-0.1,0l-0.3,0.4l-0.3,0.8l-0.5,0l-0.1-0.6l-0.2-0.6l-0.1-0.2l0,0l-4.7-6.4l4.7-0.4l-0.2-2.6l-0.1-1.2   L459.2,628.3"
       style="fill:#cc2f4a;fill-opacity:1" /><path
       id="FL_Lee"
       inkscape:label="Lee, FL"
       fill="#999999"
       stroke="#FFFFFF"
       stroke-width="1.039"
       d="M452.7,643.2l3.9,8.4l0.5,0.5   l0.7,0.5l2.5,0.8l0.4-0.5l0.6-0.2l2,0.5l0,0.1l-1.8,1.3l-0.5,0.2l-0.3,0l-0.6-0.1l-1.2-0.4l-1.9-1.2l-0.2-0.2l-0.2-0.2l-0.3-0.6   l-3.6-7.6L452.7,643.2 M460,639.6l19.4-1.8l1.2,11l0.4,3.9l-3.3,4.9l-6.3,0.7l-1.1-0.5l-1.1-2l-1.9-1.9l-4.1-3l-3.9-6.6L460,639.6"
       style="fill:#e27f90;fill-opacity:1" /><path
       id="FL_Hendry"
       inkscape:label="Hendry, FL"
       fill="#999999"
       stroke="#FFFFFF"
       stroke-width="1.039"
       d="M479.5,637.8l15.5-1.5   l8.9-0.9l1.5-8.4l3,26.9l0.4,3.2l-15.3,1.8l-0.8-7.3l-0.4-4.1l-11.5,1.3L479.5,637.8"
       style="fill:#e27f90;fill-opacity:1" /><path
       id="FL_Collier"
       inkscape:label="Collier, FL"
       fill="#999999"
       stroke="#FFFFFF"
       stroke-width="1.039"
       d="M508.6,657.1l1.5,12   l0.8,7.5l-18.6,2L492,678l-0.2-0.2l-1.8-1.1l-1-0.5l-0.3-0.1l-3.8-1l-0.5,0l-4.6,0.6l-0.4,0.2l-0.3,0.4l-0.1,0.5l-0.2,0.8l-0.2,0.5   l-0.3,0l-0.2-0.2l-2.3-3.6l-3.1-6l-0.3-1.6l-0.2-1.1l-0.8-3.6l-0.7-2.4l-0.6-1.4l0-0.1l1.1,0.5l6.3-0.7l3.3-4.9l-0.4-3.9l11.5-1.3   l0.4,4.1l0.8,7.3L508.6,657.1"
       style="fill:#cc2f4a;fill-opacity:1" /><path
       id="FL_Monroe"
       inkscape:label="Monroe, FL"
       sodipodi:nodetypes="ccccccccccccccccccccccccc"
       fill="#999999"
       stroke="#FFFFFF"
       stroke-width="1.039"
       d="   M510.9,676.5l1.9,18.9l1.4,7.3l0.4,0.6l0,0l-2.5,1.8l-3.2,1.1l-3.2,0.6l-0.6-0.3l-1.7-1.1l-0.3-0.3l-1.5-2.4l0-1l0.2-1.9l0.3-1.5   l0.1-0.4l0.3-0.4l0.2-0.1l0.5,0.1l0.1-0.3l0-0.4l-2.5-4.5l-4.1-7.1l-4.3-6.7L510.9,676.5"
       style="fill:#e27f90;fill-opacity:1" /><path
       id="FL_Miami-Dade"
       inkscape:label="Miami-Dade, FL"
       fill="#999999"
       stroke="#FFFFFF"
       stroke-width="1.039"
       d="M538,693.6   l-0.9-0.2l0.5-2l1.8-4.9l0.3-0.5l0.2,0l0.2,1.5l-0.9,3.2L538,693.6 M510.1,669.1l3.8-0.4l3.9,0.5l9.5-1l5.7-0.9l1.2-0.5l1.3-0.2   l1.5-0.2l2.9-0.4l0,0.1l0.3,2.4l0.3,3.2l0,1l0,2l-0.3,1l-0.2,0.4l-0.8,0.6l-0.3-0.4l-0.5-0.3l-0.5,0.1l-1.2,0.6l-0.4,0.4l-0.1,0.3   l-2.5,8.3l-0.3,1.5l0.1,0.9l0.9,3.4l0.2,0.3l0.4,0l0.2,0.2l-0.1,0.5l-0.8,1.6l-1.8,2.4l-0.1,0.1l-1.1,1.1l-2.3,2.3l-5.2,2.3   l-1.2,0.5l-1.5,0.3l-2.5,0.3l-4-0.1l0,0l-0.4-0.6l-1.4-7.3l-1.9-18.9L510.1,669.1"
       style="fill:#4389e3;fill-opacity:1" /><path
       id="FL_Broward"
       inkscape:label="Broward, FL"
       fill="#999999"
       stroke="#FFFFFF"
       stroke-width="1.039"
       d="M508.2,653.9   l22.9-2.5l1.9-0.2l6.9-0.2l0,15l-2.9,0.4l-1.5,0.2l-1.3,0.2l-1.2,0.5l-5.7,0.9l-9.5,1l-3.9-0.5l-3.8,0.4l-1.5-12L508.2,653.9"
       style="fill:#4389e3;fill-opacity:1" /><path
       id="FL_Palm_Beach"
       inkscape:label="Palm Beach, FL"
       fill="#999999"
       stroke="#FFFFFF"
       stroke-width="1.039"
       d="M505.3,627   l19.6-2l0.4,0l9.1-0.9l2.4-0.9l0.6,1.5l0.7,1.6l0.6,1.5l0.9,2.6l0.4,4.1l0.3,3.8l0.1,1.9l-0.1,10.1l-0.1,0.7l-6.9,0.2l-1.9,0.2   l-22.9,2.5L505.3,627"
       style="fill:#86b6f2;fill-opacity:1" /><path
       id="FL_Sarasota"
       inkscape:label="Sarasota, FL"
       fill="#999999"
       stroke="#FFFFFF"
       stroke-width="1.039"
       d="M458.5,620.7   l0.6,7.6l-7.7,0.7l0.1,1.2l0.2,2.6l-4.7,0.4l-6.3-10.8l-0.4-0.6l-0.5-0.8l-0.3-0.5l-1.6-2.2l-0.9-1.1l-2-2.2l15.2-1.2l0.6,7.7   L458.5,620.7"
       style="fill:#e27f90;fill-opacity:1" /><path
       id="FL_Desoto"
       inkscape:label="Desoto, FL"
       fill="#999999"
       stroke="#FFFFFF"
       stroke-width="1.039"
       d="M477.2,613.2l1.3,13.2   l-19.3,1.9l-1.1-13.2l7.7-0.6l4.2-0.5L477.2,613.2"
       style="fill:#cc2f4a;fill-opacity:1" /><path
       id="FL_Glades"
       inkscape:label="Glades, FL"
       fill="#999999"
       stroke="#FFFFFF"
       stroke-width="1.039"
       d="M501.9,616.4l3.4,10.6   l-1.5,8.4l-8.9,0.9l-15.5,1.5l-1-11.4l11.5-1.1l-0.4-3.8l3.5-4.2L501.9,616.4"
       style="fill:#cc2f4a;fill-opacity:1" /><path
       id="FL_Martin"
       inkscape:label="Martin, FL"
       fill="#999999"
       stroke="#FFFFFF"
       stroke-width="1.039"
       d="M530.6,611.1l6.1,12.1   l-2.4,0.9l-9.1,0.9l-0.4,0l-19.6,2l7-11.5l10.2-1.1l5.1-0.6l-0.2-2.5L530.6,611.1"
       style="fill:#cc2f4a;fill-opacity:1" /><path
       id="FL_St._Lucie"
       inkscape:label="St. Lucie, FL"
       fill="#999999"
       stroke="#FFFFFF"
       stroke-width="1.039"
       d="M510.6,600.4   l13.9-1.5l6.1,12.2l-3.3,0.3l0.2,2.5l-5.1,0.6l-10.2,1.1L510.6,600.4"
       style="fill:#f2b3be;fill-opacity:1" /><path
       id="FL_Indian_River"
       inkscape:label="Indian River, FL"
       fill="#999999"
       stroke="#FFFFFF"
       stroke-width="1.039"
       d="   M502.1,589.7l13.9-1.4l2-1.7l0.2-0.3l6.3,12.5l-13.9,1.5l-3.8,0.4l-0.4-3.6l-3.7,0.4L502.1,589.7"
       style="fill:#cc2f4a;fill-opacity:1" /><path
       id="FL_Okeechobee"
       inkscape:label="Okeechobee, FL"
       fill="#999999"
       stroke="#FFFFFF"
       stroke-width="1.039"
       d="M492.3,598.6   l10.4-1l3.7-0.4l0.4,3.6l3.8-0.4l1.7,15.2l-7,11.5l-3.4-10.6l-3.1-3.5l-3.7-3.2l-3.8-7.4L492.3,598.6"
       style="fill:#cc2f4a;fill-opacity:1" /><path
       id="FL_Highlands"
       inkscape:label="Highlands, FL"
       fill="#999999"
       stroke="#FFFFFF"
       stroke-width="1.039"
       d="M476,600   l16.3-1.4l-1,3.8l3.8,7.4l3.7,3.2l3.1,3.5l-8.8,0.9l-3.5,4.2l0.4,3.8l-11.5,1.1l-1.3-13.2L476,600"
       style="fill:#cc2f4a;fill-opacity:1" /><path
       id="FL_Hardee"
       inkscape:label="Hardee, FL"
       fill="#999999"
       stroke="#FFFFFF"
       stroke-width="1.039"
       d="M456.9,601.8l19-1.8   l1.3,13.2l-7.2,0.7l-4.2,0.5l-7.7,0.6L456.9,601.8"
       style="fill:#cc2f4a;fill-opacity:1" /><path
       id="FL_Manatee"
       inkscape:label="Manatee, FL"
       fill="#999999"
       stroke="#FFFFFF"
       stroke-width="1.039"
       d="M437.5,603.6   l19.4-1.8l1.1,13.3l0.5,5.6l-7.7,0.6l-0.6-7.7l-15.2,1.2l-2.1-2.2l-1.1-2.3l1-0.4l1.4-0.8l2.8-4l0.2-0.3L437.5,603.6"
       style="fill:#e27f90;fill-opacity:1" /><path
       id="FL_Pinellas"
       inkscape:label="Pinellas, FL"
       fill="#999999"
       stroke="#FFFFFF"
       stroke-width="1.039"
       d="M431.8,581.1   l0.9,8.9l-2.6,0.6l-0.1,0.1l-0.1,0.3l0.2,0.5l0.4,0.3l4.1,2l1.6-0.6l0.1,1.1l-0.6,1.8l-3.7,8.1l-1.8-2.8l-3.6-10.6l0-0.1l0.3-2.2   l0.2-2l-0.2-3.1l-0.3-0.7l-0.2-0.3l-0.6-0.8L431.8,581.1"
       style="fill:#f2b3be;fill-opacity:1" /><path
       id="FL_Hillsborough"
       inkscape:label="Hillsborough, FL"
       fill="#999999"
       stroke="#FFFFFF"
       stroke-width="1.039"
       d="   M431.8,581.1l21-1.8l1.9-0.2l1.3,13.2l0.8,9.4l-19.4,1.8l4.2-5.6l0.1-0.2l1-2l0.3-1.1l-0.5-1.9L442,592l-5.7-2.4l-1.4-0.1l-1.2,0.2   l-1.1,0.2L431.8,581.1"
       style="fill:#86b6f2;fill-opacity:1" /><path
       id="FL_Hernando"
       inkscape:label="Hernando, FL"
       fill="#999999"
       stroke="#FFFFFF"
       stroke-width="1.039"
       d="M430.1,558.5   l8.7-0.8l0.1,1.2l5.9-0.6l0,0.9l0.5,0.7l1.4,1.8l0.8,0.5l4.8,1.5l1.2,2.1l-7.6,0.7l0.2,1.9l-14.9,1.3l-1.5,0.1L430.1,558.5"
       style="fill:#cc2f4a;fill-opacity:1" /><path
       id="FL_Pasco"
       inkscape:label="Pasco, FL"
       fill="#999999"
       stroke="#FFFFFF"
       stroke-width="1.039"
       d="M453.6,565.8l0.6,7.2   l-1.4,6.2l-21,1.8l-5.9,0.5l3.9-11.7l1.5-0.1l14.9-1.3l-0.2-1.9L453.6,565.8"
       style="fill:#e27f90;fill-opacity:1" /><path
       id="FL_Osceola"
       inkscape:label="Osceola, FL"
       fill="#999999"
       stroke="#FFFFFF"
       stroke-width="1.039"
       d="M469.4,570.1l30.5-3   l0.5,4.4l0.7,7l-0.2,0l1.2,11.3l0.6,7.8l-10.4,1L492,597l-0.2-1.1l-1.8-3.1l-1-1.7l-8.1-8.3l-2.6-2.3l-8.5-6.8L469.4,570.1"
       style="fill:#4389e3;fill-opacity:1" /><path
       id="FL_Polk"
       inkscape:label="Polk, FL"
       fill="#999999"
       stroke="#FFFFFF"
       stroke-width="1.039"
       d="M469.4,570.1l0.4,3.8   l8.5,6.8l2.6,2.3l8.1,8.3l1,1.7l1.8,3.1l0.2,1.1l0.2,1.5L476,600l-19,1.8l-0.8-9.4l-1.3-13.2l-1.9,0.2l1.4-6.2l3.6-1.8L469.4,570.1   "
       style="fill:#cc2f4a;fill-opacity:1" /><path
       id="FL_Orange"
       inkscape:label="Orandge, FL"
       fill="#999999"
       stroke="#FFFFFF"
       stroke-width="1.039"
       d="M477,550.2l-1.4,3.5   l0.1,1l1.9,1.9l3.7,1l12.9-1.4l5.9,11l-30.5,3l-1.8-18.7l0.4-0.3l0.4-0.1l0.5,0L477,550.2"
       style="fill:#4389e3;fill-opacity:1" /><path
       id="FL_Seminole"
       inkscape:label="Seminole, FL"
       fill="#999999"
       stroke="#FFFFFF"
       stroke-width="1.039"
       d="M477,550.2l1.4-4.2   l2,1.7l4.9,1.4l0.8,0.2l0.2,0l1.3-0.5l0.4-0.8l2.7,2.5l1.2,1.6l2.3,4l-12.9,1.4l-3.7-1l-1.9-1.9l-0.1-1L477,550.2"
       style="fill:#f2b3be;fill-opacity:1" /><path
       id="FL_Lake"
       inkscape:label="Lake FL"
       fill="#999999"
       stroke="#FFFFFF"
       stroke-width="1.039"
       d="M466.2,529.8l6.6,7.4   l2.5,1.8l1.5,1l1.5,1.3l0.1,0.1l0.3,2.3l-0.3,2.4l-1.4,4.2l-8,0.8l-0.5,0l-0.4,0.1l-0.4,0.3l1.8,18.7l-11.6,1.2l-2.3-26.6l11.3-1.1   l0.3-4.5L466.2,529.8"
       style="fill:#cc2f4a;fill-opacity:1" /><path
       id="FL_Sumter"
       inkscape:label="Sumter, FL"
       fill="#999999"
       stroke="#FFFFFF"
       stroke-width="1.039"
       d="M441.9,545.8l13.7-1.2   l2.3,26.6l-3.6,1.8l-0.6-7.2l-1.2-2.1l-4.8-1.5l-0.8-0.5l-1.4-1.8l-0.5-0.7l0-0.9l0.3-1.9l0.2-0.4l0.5-0.8l0.8-1l0.7-0.1l0.1-0.1   l0.5-1.4l0-0.2l-4.6-4.6L441.9,545.8"
       style="fill:#cc2f4a;fill-opacity:1" /><path
       id="FL_Citrus"
       inkscape:label="Citrus, FL"
       fill="#999999"
       stroke="#FFFFFF"
       stroke-width="1.039"
       d="M433.1,542.9l8.9,2.9   l1.5,2l4.6,4.6l0,0.2l-0.5,1.4l-0.1,0.1l-0.7,0.1l-0.8,1l-0.5,0.8l-0.2,0.4l-0.3,1.9L439,559l-0.1-1.2l-8.7,0.8l-0.3-6.5l-0.2-1.4   l-0.2-0.5l-4.8-4.1l0.3-0.4l0.4-0.4l1-0.9l0.7-0.1l0.6,0l2.3,0.7l2.3-1.2L433.1,542.9L433.1,542.9"
       style="fill:#cc2f4a;fill-opacity:1" /><path
       id="FL_Levy"
       inkscape:label="Levy, FL"
       fill="#999999"
       stroke="#FFFFFF"
       stroke-width="1.039"
       d="M426.5,520.8l9.8,2.7   l1.1,11.7l-5.1,0.5l0.6,7.4l0,0.1l-0.7,0.5l-2.3,1.2l-2.3-0.7l-0.6,0l-0.7,0.1l-1,0.9l-0.4,0.4l-0.3,0.4l0.2-1.5l-0.3-1.2l-2.1-3.9   l-0.9-0.4l-13.4-4.6l3.2-2.5l1.8-2.8l1-2.7l1.7-5.8L426.5,520.8"
       style="fill:#d40000;fill-opacity:1" /><path
       id="FL_Marion"
       inkscape:label="Marion, FL"
       fill="#999999"
       stroke="#FFFFFF"
       stroke-width="1.039"
       d="M436.3,523.4l6.8-0.6   l0.6,0.8l-0.1,0.5l2.7,1.4l2.9-1l0.5-0.3l0-0.1l-0.1-1.3l1-1.1l0.8-0.4l2.6-0.9l6.1,0.7l0.9,2.5l1.7,2.4l1.6,1.9l1.7,1.9l1,9.3   l-0.3,4.5l-11.3,1.1l-13.7,1.2l-8.9-2.9l-0.6-7.4l5.1-0.5L436.3,523.4"
       style="fill:#cc2f4a;fill-opacity:1" /><path
       id="FL_Volusia"
       inkscape:label="Volusia, FL"
       fill="#999999"
       stroke="#FFFFFF"
       stroke-width="1.039"
       d="M464.5,527.9l9.1-4.1   l0.6,1l0.6,4.9l3.2-0.4l0.2,0l6.8-0.8l-0.6-4.7l1.7-2.4l2.6,5l2.1,3.7l1.6,2.9l1,1.5l3,4.1l6.6,8.9l-9,1l0.9,7.6l-0.9,0.1l-2.3-4   l-1.2-1.6l-2.7-2.5l-0.4,0.8l-1.3,0.5l-0.2,0l-0.8-0.2l-4.9-1.4l-2-1.7l0.3-2.4l-0.3-2.3l-0.1-0.1l-1.5-1.3l-1.5-1l-2.5-1.8   l-6.6-7.4L464.5,527.9"
       style="fill:#e27f90;fill-opacity:1" /><path
       id="FL_Brevard"
       inkscape:label="Brevard, FL"
       fill="#999999"
       stroke="#FFFFFF"
       stroke-width="1.039"
       d="M494,556.1l0.9-0.1   l-0.9-7.6l9-1l6.5,7.8l0.1,0.1l0.3,0.3l0,0.1l2.5,5.2l0,0.4l-1.3,0.7l-0.4,0.5l-0.5,0.8l0,0.2l0,0l-0.2,0.6l-0.2,1.2l0,1.2l0.1,1.1   l0.4,2.3l0.9,3.4l1.3,3.5l0.9,1.9l0.8,1.3l1,1.8l0.1,0.1l2.9,4.5l-0.2,0.3l-2,1.7l-13.9,1.4l-1.2-11.3l0.2,0l-0.7-7l-0.5-4.4   L494,556.1"
       style="fill:#e27f90;fill-opacity:1" /><path
       id="FL_Washington"
       inkscape:label="Washington, FL"
       fill="#999999"
       stroke="#FFFFFF"
       stroke-width="1.039"
       d="M302.9,479.3   l0.4-2.9l0.3-1l2.6-0.1l0.7,0.6l0,1.3l4.4-0.1l0.6-3l0-0.4l-0.1-0.5l3.6-0.2l2.8,1.8l0.4,9.5l-1.9,0.1l0.2,5.7l-2.3,0.1l-11.5,0.5   l-4.1,1.5l-1,1l1.5-2.5l1.7-6.3l-0.6-0.7l-0.1-1.3l1.9-2.9L302.9,479.3"
       style="fill:#d40000;fill-opacity:1" /><path
       id="FL_Holmes"
       inkscape:label="Holmes, FL"
       fill="#999999"
       stroke="#FFFFFF"
       stroke-width="1.039"
       d="M295.1,467l20.1-1.2   l-3.4,7.5l0.1,0.5l0,0.4l-0.6,3l-4.4,0.1l0-1.3l-0.7-0.6l-2.6,0.1l-0.3,1l-0.4,2.9l-7.2,0.3L295.1,467"
       style="fill:#aa0000;fill-opacity:1" /><path
       id="FL_Walton"
       inkscape:label="Walton, FL"
       fill="#999999"
       stroke="#FFFFFF"
       stroke-width="1.039"
       d="M289.4,467.3l5.7-0.2   l0.5,12.6l7.2-0.3l-0.5,0.3l-1.9,2.9l0.1,1.3l0.6,0.7l-1.7,6.3l-1.5,2.5l0.1,5.3l-15.4-4.1l-0.9-26.9L289.4,467.3"
       style="fill:#d40000;fill-opacity:1" /><path
       id="FL_Okaloosa"
       inkscape:label="Okaloosa, FL"
       fill="#999999"
       stroke="#FFFFFF"
       stroke-width="1.039"
       d="M281.9,467.6   l0.9,26.9l-15.2,0.3l-0.5-26.7l3.6-0.1L281.9,467.6"
       style="fill:#d40000;fill-opacity:1" /><path
       id="FL_Santa_Rosa"
       inkscape:label="Santa Rosa, FL"
       fill="#999999"
       stroke="#FFFFFF"
       stroke-width="1.039"
       d="M253,468.6   l14.1-0.5l0.5,26.7l-4.5,0.9l-6.2,0.6l-2.7-1.8l-4.2-8.8l-1.7-4.7l-0.5-1.6l-0.1-0.7l-0.3-3.3l0.2-0.6l0.8-2.5l0.3-0.4l1.8-1.4   L253,468.6"
       style="fill:#d40000;fill-opacity:1" /><path
       id="FL_Escambia"
       inkscape:label="Escambia, FL"
       fill="#999999"
       stroke="#FFFFFF"
       stroke-width="1.039"
       d="M236.7,469.2   l16.3-0.6l-2.4,1.7l-1.8,1.4l-0.3,0.4l-0.8,2.5l-0.2,0.6l0.3,3.3l0.1,0.7l0.5,1.6l1.7,4.7l4.2,8.8l2.7,1.8l6.2-0.6l-8.8,2.2   l-0.3,0.1l-0.2,0l-1.3,0.3l-0.9,0.1l-1.4,0.2l-5.9,1.1l-3.5,0.8l2.5-1l0.8-4.7l0.9-9.5l0-0.7l-0.1-0.5l-0.4-0.8l-1.6-1.1l-1.2-0.7   l-0.6-0.1l-0.2-0.1l-1.1-0.9l-3.6-4.4l-0.4-0.9L236.7,469.2"
       style="fill:#e27f90;fill-opacity:1" /><path
       id="FL_Calhoun"
       inkscape:label="Calhoun, FL"
       fill="#999999"
       stroke="#FFFFFF"
       stroke-width="1.039"
       d="M320.5,484.3l5-0.2   l2.9-0.3l2.8-1.8l6.2-0.3l-2,4l-1.7,8l-2.1,6.2l-10.3,0.5L320.5,484.3"
       style="fill:#d40000;fill-opacity:1" /><path
       id="FL_Gulf"
       inkscape:label="Gulf, FL"
       fill="#999999"
       stroke="#FFFFFF"
       stroke-width="1.039"
       d="M321.2,500.3l10.3-0.5   l4,9.8l0.1,6l-2.2,2.8l-0.6-0.1l-3.5,3.1l-0.4,0.7l-3.6,0.1l0.1-4.3l-0.1-0.5l-0.5-1l-2-2.9l-0.9-0.9l-0.1-0.1L321.2,500.3"
       style="fill:#d40000;fill-opacity:1" /><path
       id="FL_Franklin"
       inkscape:label="Franklin, FL"
       fill="#999999"
       stroke="#FFFFFF"
       stroke-width="1.039"
       d="M353.6,506.7   l7.8,1.7l0.2,0.8l0.1,0.4l0.1,0.3l0,0.1l-0.1,0.5l-0.2,0.6l-0.2,0.1l-1.1,0.2l-1.7-0.3l-0.4-0.1l-0.4-0.3l-0.3-0.6l-2.2,0.7   l-0.9,0.4l-5.7,3.9l-2.6,1.9l-2.2,1.5l-2.1,1.2l-4.2,1.1l-1.7,0.3l-1.3-0.3l-1.1,0.1l-0.7,0.2l-3.6,1.1l0.4-0.7l3.5-3.1l0.6,0.1   l2.2-2.8l-0.1-6l0.6-1.9L353.6,506.7"
       style="fill:#cc2f4a;fill-opacity:1" /><path
       id="FL_Dixie"
       inkscape:label="Dixie, FL"
       fill="#999999"
       stroke="#FFFFFF"
       stroke-width="1.039"
       d="M415.6,510.3l0.2,10.2   l-1.7,5.8l-1,2.7l-1.8,2.8l-3.2,2.5l-0.6-2.4l-1.2-2.1l-0.7-1.1l-0.9-0.5l-0.9-0.1l-1.7-0.9l-2.9-1.7l-0.8-0.5l-0.1-0.2l-0.9-6.2   l3-7.1L415.6,510.3"
       style="fill:#aa0000;fill-opacity:1" /><path
       id="FL_Gilchrist"
       inkscape:label="Gilchrist, FL"
       fill="#999999"
       stroke="#FFFFFF"
       stroke-width="1.039"
       d="M416.9,507.5   l2.9-2.2l5.7,4l1,11.5l-10.8-0.3l-0.2-10.2L416.9,507.5"
       style="fill:#aa0000;fill-opacity:1" /><path
       id="FL_Alachua"
       inkscape:label="Alachua, FL"
       fill="#999999"
       stroke="#FFFFFF"
       stroke-width="1.039"
       d="M430,504l4.2,0.4   l1,1.5l0.4,0.2l4.7,1.1l2.1,0l0.4-0.2l0.2,0l1.7,0.3l0.5,0.2l3.2,3.3l0.4,0.9l-0.1,0.5l0.9,10.7l0.1,1.3l0,0.1l-0.5,0.3l-2.9,1   l-2.7-1.4l0.1-0.5l-0.6-0.8l-6.8,0.6l-9.8-2.7l-1-11.5L430,504"
       style="fill:#86b6f2;fill-opacity:1" /><path
       id="FL_Putnam"
       inkscape:label="Putnam, FL"
       fill="#999999"
       stroke="#FFFFFF"
       stroke-width="1.039"
       d="M466.2,505.2l3.1,9.2   l4.3,9.4l-9.1,4.1l-1.6-1.9l-1.7-2.4l-0.9-2.5l-6.1-0.7l-2.6,0.9l-0.8,0.4l-1,1.1l-0.9-10.7l0.2,0l0.9-0.4l3.5-2.2l0.2-0.8l0.3-0.3   l3.6-2.3l0.6-0.1L466.2,505.2"
       style="fill:#cc2f4a;fill-opacity:1" /><path
       id="FL_Flagler"
       inkscape:label="Flagler, FL"
       fill="#999999"
       stroke="#FFFFFF"
       stroke-width="1.039"
       d="M469.3,514.4   l11.6-3.2l5.3,10.1l-1.7,2.4l0.6,4.7l-6.8,0.8l-0.2,0l-3.2,0.4l-0.6-4.9l-0.6-1L469.3,514.4"
       style="fill:#e27f90;fill-opacity:1" /><path
       id="FL_St._Johns"
       inkscape:label="St. Johns, FL"
       fill="#999999"
       stroke="#FFFFFF"
       stroke-width="1.039"
       d="M461.3,493.3   l2.1-0.7l0.9,0l2.5,0.9l4-0.4l-0.7-6.4l2.1-0.2l3.9,12l2.8,7.8l0.1,0.1l0.4,1l0.3,0.8l1.4,2.9l-11.6,3.2l-3.1-9.2L461.3,493.3"
       style="fill:#cc2f4a;fill-opacity:1" /><path
       id="FL_Clay"
       inkscape:label="Clay, FL"
       fill="#999999"
       stroke="#FFFFFF"
       stroke-width="1.039"
       d="M461.3,493.3l4.9,11.9   l-8.2,0.9l-0.6,0.1l-3.6,2.3l-0.3,0.3l-0.2,0.8l-3.5,2.2l-0.9,0.4l-1.7-18.4l-0.2-1.9l3.8-0.3l7.9-0.9l1.1-0.2l1.2-0.1L461.3,493.3   "
       style="fill:#d40000;fill-opacity:1" /><path
       id="FL_Bradford"
       inkscape:label="Bradford, FL"
       fill="#999999"
       stroke="#FFFFFF"
       stroke-width="1.039"
       d="M443.8,493.9   l3.5-0.3l1.7,18.4l-0.2,0l0.1-0.5l-0.4-0.9l-3.2-3.3l-0.5-0.2l-1.7-0.3l-0.2,0l-0.4,0.2l-2.1,0l-4.7-1.1l-0.4-0.2l-1-1.5l1.7-0.7   l2.4-1.1l4.4-5.5l1.2-2.1l0.1-0.5L443.8,493.9"
       style="fill:#d40000;fill-opacity:1" /><path
       id="FL_Union"
       inkscape:label="Union, FL"
       fill="#999999"
       stroke="#FFFFFF"
       stroke-width="1.039"
       d="M443.8,493.9l0.2,0.6   l-0.1,0.5l-1.2,2.1l-4.4,5.5l-2.4,1.1l-1.7,0.7L430,504l2-8.7L443.8,493.9"
       style="fill:#aa0000;fill-opacity:1" /><path
       id="FL_Suwannee"
       inkscape:label="Suwannee, FL"
       fill="#999999"
       stroke="#FFFFFF"
       stroke-width="1.039"
       d="M418.5,487.6   l1.2,17.6l-2.9,2.2l-2.2-2.9l-1.4-1.5l-0.6-0.5l-3.7-2.7l-1.7-0.9l-1.9-0.3l-0.2,0.4l-0.6,0.3l-1.1-0.3l-0.5-0.4l-1.2-3.2l-0.4-2.8   l0-0.2l0.2-0.1l2.4-5.6l0.4-1.3l0.1-0.2l1.2-0.8l1.4-0.4l3,0.2l1.9,0.5L418.5,487.6"
       style="fill:#d40000;fill-opacity:1" /><path
       id="FL_Lafayette"
       inkscape:label="Lafayette, FL"
       fill="#999999"
       stroke="#FFFFFF"
       stroke-width="1.039"
       d="M401.7,492.3   l-0.2,0.1l0,0.2l0.4,2.8l1.2,3.2l0.5,0.4l1.1,0.3l0.6-0.3l0.2-0.4l1.9,0.3l1.7,0.9l3.7,2.7l0.6,0.5l1.4,1.5l2.2,2.9l-1.3,2.9   l-15.1,1.3l-1.3,0.1l-0.9-3.2l-1.1-15.9L401.7,492.3"
       style="fill:#aa0000;fill-opacity:1" /><path
       id="FL_Taylor"
       inkscape:label="Taylor, FL"
       fill="#999999"
       stroke="#FFFFFF"
       stroke-width="1.039"
       d="M397.2,492.7l1.1,15.9   l0.9,3.2l1.3-0.1l-3,7.1l-1.3-0.4l-3.7-1.7l-0.4-0.4l-0.3-0.4l-1.2-1.9l0-0.2l-0.2-0.8l-0.4-0.7l-1.8-2.4l-1.7-1.3l-0.3-0.2l-4-2   l-2.2-0.8l-3.4-1.8l-2.4-1.6l5.8-10l13.2-1l0.1,1.9L397.2,492.7"
       style="fill:#d40000;fill-opacity:1" /><path
       id="FL_Wakulla"
       inkscape:label="Wakulla, FL"
       fill="#999999"
       stroke="#FFFFFF"
       stroke-width="1.039"
       d="M346.4,494.5   l17.5-1.3l0.3,1.2l6.2-0.4l0.5,7.8l-6.4,0.5l-3.6,1.5l-0.6,0.3l-0.2,1.5l0.3,1.6l0.1,0.1l0.8,1l-7.8-1.7l-2.4-1.6l-1.1-0.9   l-1.5-2.2l-3-6l0.3-1L346.4,494.5"
       style="fill:#cc2f4a;fill-opacity:1" /><path
       id="FL_Liberty"
       inkscape:label="Liberty, FL"
       fill="#999999"
       stroke="#FFFFFF"
       stroke-width="1.039"
       d="M348.7,490.5l-2.3,4   l-0.5,0.5l-0.3,1l3,6l1.5,2.2l1.1,0.9l2.4,1.6l-17.5,0.9l-0.6,1.9l-4-9.8l2.1-6.2l1.7-8l2-4L348.7,490.5"
       style="fill:#d40000;fill-opacity:1" /><path
       id="FL_Gadsden"
       inkscape:label="Gadsden, FL"
       fill="#999999"
       stroke="#FFFFFF"
       stroke-width="1.039"
       d="M357.8,476.7l3.8,0   l-1.8,4l-2,5l-0.2,0.4l-0.6,0.5l-0.8,0.3l-5.1,2.2l-2.4,1.4l-11.3-8.8l2.3-4.7l0,0L357.8,476.7"
       style="fill:#4389e3;fill-opacity:1" /><path
       id="FL_Leon"
       inkscape:label="Leon, FL"
       fill="#999999"
       stroke="#FFFFFF"
       stroke-width="1.039"
       d="M371.9,476.5l-0.8,6.6   l-1,3.9l0.5,7l-6.2,0.4l-0.3-1.2l-17.5,1.3l2.3-4l2.4-1.4l5.1-2.2l0.8-0.3l0.6-0.5l0.2-0.4l2-5l1.8-4l7.4-0.1L371.9,476.5"
       style="fill:#4389e3;fill-opacity:1" /><path
       id="FL_Jefferson"
       inkscape:label="Jefferson, FL"
       fill="#999999"
       stroke="#FFFFFF"
       stroke-width="1.039"
       d="M381.8,476.4l5,0   l0.3,0.5l0.2,2.5l-1.1,1.4l-3.2,3l-2.5,6.2l-0.4,2.1l-5.8,10l-3.2-0.3l-1-14.8l1-3.9l0.8-6.6L381.8,476.4"
       style="fill:#e27f90;fill-opacity:1" /><path
       id="FL_Madison"
       inkscape:label="Madison, FL"
       fill="#999999"
       stroke="#FFFFFF"
       stroke-width="1.039"
       d="M396.4,476.2l1.8,0   l1.6,0.8l1.4,6l0.9,2.1l0.2,0.2l1.8,1.3l-2.4,5.6l-4.5,0.4l-3.9,0.3l-0.1-1.9l-13.2,1l0.4-2.1l2.5-6.2l3.2-3l1.1-1.4l-0.2-2.5   l-0.3-0.5L396.4,476.2"
       style="fill:#e27f90;fill-opacity:1" /><path
       id="FL_Hamilton"
       inkscape:label="Hamilton, FL"
       fill="#999999"
       stroke="#FFFFFF"
       stroke-width="1.039"
       d="M404.7,476.2   l16.8-0.2l-0.9,1.6l-0.1,0.8l0.1,1.2l0.7,0.9l2,2.4l0.2,0.4l0.3,1.1l0,0.4l-1.2,2.6l-0.2,0.3l-2.1,0.9l-1.8-0.3l-0.1-0.5l-6.3-2.8   l-1.9-0.5l-3-0.2l-1.4,0.4l-1.2,0.8l-0.1,0.2l-0.4,1.3l-1.8-1.3l-0.2-0.2l-0.9-2.1l-1.4-6l-1.6-0.8L404.7,476.2"
       style="fill:#cc2f4a;fill-opacity:1" /><path
       id="FL_Columbia"
       inkscape:label="Columbia, FL"
       fill="#999999"
       stroke="#FFFFFF"
       stroke-width="1.039"
       d="M425.5,475.9   l4.7-0.1l1.7,19.5l-2,8.7l-4.5,5.2l-5.7-4l-1.2-17.6l0.1,0.5l1.8,0.3l2.1-0.9l0.2-0.3l1.2-2.6l0-0.4l-0.3-1.1l-0.2-0.4l-2-2.4   l-0.7-0.9l-0.1-1.2l0.1-0.8l0.9-1.6L425.5,475.9"
       style="fill:#d40000;fill-opacity:1" /><path
       id="FL_Baker"
       inkscape:label="Baker, FL"
       fill="#999999"
       stroke="#FFFFFF"
       stroke-width="1.039"
       d="M431.7,475.8l7.7,0   l0.8,6.2l0.3,1l0.6,1l0.7,0.7l0.2,0.1l4.3-0.6l0.4,3.9l0.5,5.7l-3.5,0.3l-11.9,1.3l-1.7-19.5L431.7,475.8"
       style="fill:#aa0000;fill-opacity:1" /><path
       id="FL_Duval"
       inkscape:label="Duval, FL"
       fill="#999999"
       stroke="#FFFFFF"
       stroke-width="1.039"
       d="M446.8,488l7.3-9l3.4-4.1   l0.8-0.7l0.4-0.2l2.7-1l4.2,0.4l0.6,0.1l2.3,2.1l0.7,0.5l0.6,0.6l0.9,3.5l0.3,2.6l0.3,1.6l0.4,1.3l0.3,0.9l-2.1,0.2l0.7,6.4l-4,0.4   l-2.5-0.9l-0.9,0l-2.1,0.7l-0.3-3l-1.2,0.1l-1.1,0.2l-7.9,0.9l-3.8,0.3L446.8,488"
       style="fill:#f2b3be;fill-opacity:1" /><path
       id="FL_Nassau"
       inkscape:label="Nassau, FL"
       fill="#999999"
       stroke="#FFFFFF"
       stroke-width="1.039"
       d="M467.7,466.9l0.9,8.7   l-2.3-2.1l-0.6-0.1l-4.2-0.4l-2.7,1l-0.4,0.2l-0.8,0.7l-3.4,4.1l-7.3,9l-0.4-3.9l0.4-3l0.4-3l0.1-2.9l-0.4-1.4l-1.1-1.6l-0.5-0.9   l-0.1-0.9l0.6-4.7l4.2-2.1l1.5,1.2l5.7,1.6l4.4,0.7l2.3,0l3.2-0.2L467.7,466.9"
       style="fill:#d40000;fill-opacity:1" /><path
       id="path6608"
       inkscape:label="Monroe, FL"
       sodipodi:nodetypes="cccccccccccccccccccccccccccccccccccccccccccccccccccccccccccccccccccccccccc"
       fill="#999999"
       d="   M522.2,715.2l-0.5,0.9l-1.7,1.3l-1.7,1.3l-2,0.6l-0.2,0l0,0l0,0l0.2-0.2l2-1.8l3.5-2.4L522.2,715.2 M538,693.6l-0.3,0.2l-0.6,1   l-2.7,5.9l-0.1,0.3l0.2,0.6l-0.3,0.7l-0.6,1.1l-6.7,8.2l-0.2,0.2l-3.3,2.8l-0.1-0.1l0,0l0-0.2l1.4-1.8l0.9-0.7l1.9-2l1.3-1.4l2.3-3   l0.4-0.6l2.5-4.6l3.1-6.7L538,693.6 M511.8,722.1l-1.8,1.5l-2.4,1.4l-1.2,0.3l-0.6-0.5l-0.1-0.1l-0.1-0.1l3.5-1.7l4.8-2.3l0,0   l0.2,0.5l-0.2,0.2L511.8,722.1 M487.5,728.5l0.1-0.5l0.6-1.1l5.5-2.5l1.5,0.3l2.8,0.8l1,1.8l0,0.1l-0.2,0.1l-0.4,0.2l-0.7,0.4   l-2.4,1l-15.4,4.7l-1,0.2l-0.1-0.1l-0.1-0.7l0.1-0.3l0.6-0.8l1.8-0.4l0.4,0l0.2,0.2l0.2,0.1l1.4-0.6l0.6-0.3l1.6-1.2L487.5,728.5"
       style="fill:#e27f90;fill-opacity:1" /></g></svg>