<?xml version="1.0" encoding="UTF-8" standalone="no"?>
<!-- Created with Inkscape (http://www.inkscape.org/) -->

<svg
   xmlns:dc="http://purl.org/dc/elements/1.1/"
   xmlns:cc="http://creativecommons.org/ns#"
   xmlns:rdf="http://www.w3.org/1999/02/22-rdf-syntax-ns#"
   xmlns:svg="http://www.w3.org/2000/svg"
   xmlns="http://www.w3.org/2000/svg"
   xmlns:sodipodi="http://sodipodi.sourceforge.net/DTD/sodipodi-0.dtd"
   xmlns:inkscape="http://www.inkscape.org/namespaces/inkscape"
   width="274.2113"
   height="160.40067"
   id="svg5821"
   sodipodi:version="0.32"
   inkscape:version="0.48.1 "
   version="1.0"
   sodipodi:docname="Hawaii Republican Presidential Caucuses Election Results by County, 2012.svg"
   inkscape:output_extension="org.inkscape.output.svg.inkscape">
  <defs
     id="defs5823">
    <inkscape:perspective
       sodipodi:type="inkscape:persp3d"
       inkscape:vp_x="0 : 526.18109 : 1"
       inkscape:vp_y="0 : 1000 : 0"
       inkscape:vp_z="744.09448 : 526.18109 : 1"
       inkscape:persp3d-origin="372.04724 : 350.78739 : 1"
       id="perspective5829" />
  </defs>
  <sodipodi:namedview
     id="base"
     pagecolor="#ffffff"
     bordercolor="#666666"
     borderopacity="1.0"
     gridtolerance="10000"
     guidetolerance="10"
     objecttolerance="10"
     inkscape:pageopacity="0.0"
     inkscape:pageshadow="2"
     inkscape:zoom="3.1508548"
     inkscape:cx="137.10565"
     inkscape:cy="79.853875"
     inkscape:document-units="px"
     inkscape:current-layer="layer1"
     showgrid="false"
     inkscape:window-width="1366"
     inkscape:window-height="706"
     inkscape:window-x="-8"
     inkscape:window-y="-8"
     inkscape:window-maximized="1" />
  <metadata
     id="metadata5826">
    <rdf:RDF>
      <cc:Work
         rdf:about="">
        <dc:format>image/svg+xml</dc:format>
        <dc:type
           rdf:resource="http://purl.org/dc/dcmitype/StillImage" />
      </cc:Work>
    </rdf:RDF>
  </metadata>
  <g
     inkscape:label="Layer 1"
     inkscape:groupmode="layer"
     id="layer1"
     transform="translate(-260.30998,-416.36556)">
    <path
       style="font-size:12px;fill:#4389e3;fill-opacity:1;fill-rule:nonzero;stroke:none"
       d="M 303.46576,421.55052 L 308.46161,421.55052 L 310.61242,422.98061 L 311.31798,425.12007 L 311.31798,426.55395 L 309.8879,430.1197 L 309.8879,434.40998 L 307.03151,437.26257 L 304.89585,438.70024 L 297.75296,437.97952 L 294.89278,435.12693 L 290.6063,433.69303 L 289.17622,432.26674 L 289.17622,430.1197 L 291.32325,427.2633 L 298.46991,421.55052 L 303.46576,421.55052 M 269.88703,444.41683 L 269.17387,443.6923 L 269.88703,439.40961 L 274.17351,436.54942 L 274.89046,434.40998 L 277.03371,434.40998 L 276.32055,439.40961 L 272.74721,440.8397 L 270.60397,444.41683 L 269.88703,444.41683"
       id="HI_Kauai"
       inkscape:label="Kauai, HI" />
    <path
       style="font-size:12px;fill:#4389e3;fill-opacity:1;fill-rule:nonzero;stroke:none"
       d="M 388.48988,461.55139 L 385.6259,463.70602 L 385.6259,462.98907 L 381.33943,464.41536 L 377.76608,462.27212 L 370.62321,462.98907 L 367.76302,463.70602 L 366.33672,460.12508 L 364.18968,458.69879 L 363.48033,456.55934 L 361.3333,454.41231 L 361.3333,452.26906 L 359.19005,450.84656 L 366.33672,449.40889 L 369.91006,444.41683 L 372.05331,442.98294 L 374.19275,443.6923 L 377.76608,450.12202 L 378.47924,450.12202 L 379.19239,451.55592 L 378.47924,452.9822 L 379.19239,455.12166 L 382.05257,457.27249 L 382.76571,455.12166 L 384.19581,455.12166 L 384.19581,457.27249 L 385.6259,457.98943 L 386.33906,460.84583 L 388.48988,461.55139"
       id="HI_Honolulu"
       inkscape:label="Honolulu, HI" />
    <path
       style="font-size:12px;fill:#4389e3;fill-opacity:1;fill-rule:nonzero;stroke:none"
       d="M 420.63093,467.27176 L 421.35167,467.27176 L 422.78177,467.98111 L 423.49112,467.98111 L 422.78177,466.55481 L 429.20389,465.12852 L 432.06409,465.84546 L 430.63399,468.70564 L 426.34752,471.55823 L 424.20428,471.55823 L 415.63888,470.13574 L 405.63581,470.84511 L 404.91509,470.84511 L 407.06592,465.12852 L 407.77905,465.12852 L 417.78213,465.84546 L 419.92537,466.55481 L 420.63093,467.27176 M 437.77687,472.27139 L 439.92011,472.98834 L 443.49345,478.70492 L 450.63632,475.13537 L 454.92281,475.84852 L 454.92281,476.56167 L 460.63938,480.13881 L 465.63902,481.5651 L 466.35217,482.99139 L 466.35217,485.84398 L 463.49577,488.70418 L 459.92244,490.13427 L 452.77956,492.99825 L 447.77614,492.99825 L 446.34604,492.27752 L 444.91974,483.70834 L 442.78031,482.99139 L 441.3502,484.41391 L 437.06371,482.27445 L 434.20733,479.41427 L 433.49039,476.56167 L 434.92048,473.70148 L 435.63364,472.27139 L 437.77687,472.27139 M 419.20843,478.70492 L 424.20428,478.70492 L 427.06445,480.84815 L 428.49076,482.99139 L 427.77381,485.84398 L 421.35167,487.99482 L 420.63093,485.13464 L 419.92537,482.99139 L 417.06897,480.13881 L 417.06897,479.41427 L 419.20843,478.70492 M 440.63706,492.99825 L 441.3502,493.70761 L 442.06336,496.56401 L 436.34676,497.99409 L 434.20733,497.27336 L 435.63364,495.14149 L 440.63706,492.99825"
       id="HI_Maui"
       inkscape:label="Maui, HI" />
    <path
       style="font-size:12px;fill:#4389e3;fill-opacity:1;fill-rule:nonzero;stroke:none"
       d="M 489.22227,570.1512 L 487.79598,571.58127 L 484.9358,569.43804 L 477.79291,566.58164 L 476.35523,564.43461 L 475.64209,563.0083 L 476.35523,551.57514 L 471.3556,539.42506 L 468.49541,536.57245 L 466.35217,533.71607 L 467.06911,531.56523 L 471.3556,527.28255 L 476.35523,520.8566 L 476.35523,518.00023 L 472.7857,512.9968 L 472.06874,510.1404 L 472.7857,507.27641 L 474.21198,506.56328 L 478.50227,507.27641 L 479.92857,509.41966 L 486.36209,512.28364 L 494.2257,513.70994 L 502.79867,517.28707 L 508.51525,520.8566 L 511.37165,524.42615 L 512.08478,530.14651 L 515.65434,529.42958 L 517.08442,531.56523 L 517.08442,534.42921 L 520.65777,537.28561 L 525.6574,539.42506 L 524.22729,542.28523 L 516.37127,549.42811 L 509.94155,553.00905 L 504.22497,553.7222 L 497.79524,558.71802 L 494.2257,560.85748 L 489.22227,570.1512"
       id="HI_Hawaii"
       inkscape:label="Hawaii, HI" />
    <path
       style="font-size:12px;fill:#4389e3;fill-opacity:1;fill-rule:nonzero;stroke:none"
       d="M 419.92537,466.55481 L 417.78213,465.84546 L 422.78177,466.55481 L 423.49112,467.98111 L 422.78177,467.98111 L 421.35167,467.27176 L 420.63093,467.27176 L 419.92537,466.55481"
       id="HI_Kalawao"
       inkscape:label="Kalawao, HI" />
  </g>
</svg>