<?xml version="1.0" encoding="UTF-8" standalone="no"?>
<!-- Generator: Adobe Illustrator 16.0.0, SVG Export Plug-In . SVG Version: 6.00 Build 0)  -->

<svg
   xmlns:dc="http://purl.org/dc/elements/1.1/"
   xmlns:cc="http://creativecommons.org/ns#"
   xmlns:rdf="http://www.w3.org/1999/02/22-rdf-syntax-ns#"
   xmlns:svg="http://www.w3.org/2000/svg"
   xmlns="http://www.w3.org/2000/svg"
   xmlns:sodipodi="http://sodipodi.sourceforge.net/DTD/sodipodi-0.dtd"
   xmlns:inkscape="http://www.inkscape.org/namespaces/inkscape"
   version="1.1"
   id="svg5730"
   inkscape:output_extension="org.inkscape.output.svg.inkscape"
   sodipodi:docname="Illinois_Presidential_Election_Results_2016.svg"
   inkscape:version="0.91 r"
   sodipodi:version="0.32"
   x="0px"
   y="0px"
   width="186.816px"
   height="337.484px"
   viewBox="0 0 186.816 337.484"
   enable-background="new 0 0 186.816 337.484"
   xml:space="preserve"><metadata
     id="metadata4373"><rdf:RDF><cc:Work
         rdf:about=""><dc:format>image/svg+xml</dc:format><dc:type
           rdf:resource="http://purl.org/dc/dcmitype/StillImage" /></cc:Work></rdf:RDF></metadata><defs
     id="defs4266"><inkscape:perspective
       id="perspective5738"
       inkscape:vp_z="744.09448 : 526.18109 : 1"
       inkscape:vp_y="0 : 1000 : 0"
       inkscape:vp_x="0 : 526.18109 : 1"
       sodipodi:type="inkscape:persp3d"
       inkscape:persp3d-origin="372.04724 : 350.78739 : 1" /></defs><sodipodi:namedview
     showguides="true"
     showgrid="false"
     inkscape:cy="163.06575"
     inkscape:cx="85.991817"
     inkscape:zoom="1.1146633"
     objecttolerance="10"
     guidetolerance="10"
     gridtolerance="10000"
     borderopacity="1.0"
     bordercolor="#666666"
     pagecolor="#ffffff"
     id="base"
     inkscape:window-maximized="0"
     inkscape:window-y="120"
     inkscape:window-x="1920"
     inkscape:window-height="686"
     inkscape:window-width="1598"
     inkscape:current-layer="layer1"
     inkscape:document-units="px"
     inkscape:pageshadow="2"
     inkscape:pageopacity="0.0"
     inkscape:guide-bbox="true" /><g
     id="layer1"
     transform="translate(-289.90804,-415.40968)"
     inkscape:label="Layer 1"
     inkscape:groupmode="layer"><path
       id="IL_Vermilion"
       inkscape:label="Vermilion, IL"
       fill="#CCCCCC"
       stroke="#FFFFFF"
       stroke-width="0.9697"
       d="   M469.945,540.145l0.181,19.425l0.237,15.628l-18.047,0.521l-0.552-20.388l0.598-0.019l-0.337-10.26l-0.205-5.103l18.114-0.645   L469.945,540.145"
       style="fill:#cc2f4a;fill-opacity:1" /><path
       id="IL_Iroquois"
       inkscape:label="Iroquois, IL"
       fill="#CCCCCC"
       stroke="#FFFFFF"
       stroke-width="0.9697"
       d="M442.706,509.907   l26.605-1.213l0.623,30.611l-18.114,0.645l-8.085,0.018L442.706,509.907"
       style="fill:#d40000;fill-opacity:1" /><path
       id="IL_Alexander"
       inkscape:label="Alexander, IL"
       fill="#CCCCCC"
       stroke="#FFFFFF"
       stroke-width="0.9697"
       d="   M383.243,726.514l10.913-0.033l-0.58,6.382l-0.553,5.93l0.367,0.949l0.336,0.46l1.094,0.585l2.916,1.47l1.844,5.047l-8.818-1.565   l-2.912-2.727l-1.356-4.112l-2.472-5.504l-1.053-1.752L383.243,726.514"
       style="fill:#e27f90;fill-opacity:1" /><path
       id="IL_Pulaski"
       inkscape:label="Pulaski, IL"
       fill="#CCCCCC"
       stroke="#FFFFFF"
       stroke-width="0.9697"
       d="M394.156,726.481   l9.416,0.278l5.354,1.578l0.08,4.521l-0.254,0.063l-11.016,9.334l-2.916-1.47l-1.094-0.585l-0.336-0.46l-0.367-0.949l0.553-5.93   L394.156,726.481"
       style="fill:#cc2f4a;fill-opacity:1" /><path
       id="IL_Massac"
       inkscape:label="Massac, IL"
       fill="#CCCCCC"
       stroke="#FFFFFF"
       stroke-width="0.9697"
       d="M408.926,728.337   l10.088-2.092l10.283,10.383l0.079,5.481l-3.341-0.59l-17.029-8.661L408.926,728.337"
       style="fill:#d40000;fill-opacity:1" /><path
       id="IL_Hardin"
       inkscape:label="Hardin, IL"
       fill="#CCCCCC"
       stroke="#FFFFFF"
       stroke-width="0.9697"
       d="M434.332,710.598   l11.173,1.337l3.388,4.028l-0.065,0.942l-0.942,0.937l-0.475,0.072l-6.467,0.912l-0.975,0.138l-0.807,0.168l-0.297,0.065   l-0.101,0.012l-1.151,0.595l-0.232,0.13l-0.041,0.015l-0.829,0.667l-1.267,1.465l-2.617-1.058l0.02-10.418L434.332,710.598"
       style="fill:#d40000;fill-opacity:1" /><path
       id="IL_Pope"
       inkscape:label="Pope, IL"
       fill="#CCCCCC"
       stroke="#FFFFFF"
       stroke-width="0.9697"
       d="M432.646,710.605   l-0.02,10.418l-0.293,0.103l-0.818,0.308l-0.343,0.227l-0.433,0.262l-0.646,0.729l-0.279,0.559l-1.705,5.664l-0.001,0.022   l-0.054,0.388l0.307,1.291l1.779,2.462l0.592,0.391l0.533,0.588l1.105,2.988l-0.897,3.197l-0.652,1.476l-1.097,0.398l-0.349,0.035   l-0.079-5.481l-10.283-10.383l-0.02-15.473L432.646,710.605"
       style="fill:#d40000;fill-opacity:1" /><path
       id="IL_Johnson"
       inkscape:label="Johnson, IL"
       fill="#CCCCCC"
       stroke="#FFFFFF"
       stroke-width="0.9697"
       d="M418.994,710.773   l0.02,15.473l-10.088,2.092l-5.354-1.578l0.079-15.729L418.994,710.773"
       style="fill:#d40000;fill-opacity:1" /><path
       id="IL_Union"
       inkscape:label="Union, IL"
       fill="#CCCCCC"
       stroke="#FFFFFF"
       stroke-width="0.9697"
       d="M403.651,711.03   l-0.079,15.729l-9.416-0.278l-10.913,0.033l1.702-0.334l0.549-0.235l0.045-0.057l0.049-0.037l0.039-0.057l0.225-0.54l0.305-1.786   l0.027-0.075l-0.018-0.064l-0.195-1.002l-0.016-0.097l-0.016-0.046l-0.62-1.704l-0.522-0.755l-1.127-1.271l-0.768-1.341   l-1.137-2.522l-0.018-0.015l-0.209-1.188l-0.004-0.533l0.024-0.349l16.939-1.689L403.651,711.03"
       style="fill:#cc2f4a;fill-opacity:1" /><path
       id="IL_Gallatin"
       inkscape:label="Gallatin, IL"
       fill="#CCCCCC"
       stroke="#FFFFFF"
       stroke-width="0.9697"
       d="M448.199,693.267   l1.95,5.328l-0.747,2.184l-0.262,0.578l-0.389,0.605l-0.594,0.561l-2.23,1.398l-0.037,0.021l-0.834,1.34l-0.415,0.604l-0.067,0.122   l-0.29,0.636l-0.091,0.403l0.018,0.065l0.149,1.339l0.022,0.065l0.797,2.722l0.325,0.696l-11.173-1.337l-0.166-18.19l0.003-0.041   L448.199,693.267"
       style="fill:#d40000;fill-opacity:1" /><path
       id="IL_Saline"
       inkscape:label="Saline, IL"
       fill="#CCCCCC"
       stroke="#FFFFFF"
       stroke-width="0.9697"
       d="M434.166,692.407   l0.166,18.19l-1.686,0.007l-13.652,0.168l-0.057-15.598l-0.006-2.563L434.166,692.407"
       style="fill:#d40000;fill-opacity:1" /><path
       id="IL_Williamson"
       inkscape:label="Williamson, IL"
       fill="#CCCCCC"
       stroke="#FFFFFF"
       stroke-width="0.9697"
       d="   M418.937,695.175l0.057,15.598l-15.343,0.257l-5.155-0.213l0.055-15.444L418.937,695.175"
       style="fill:#cc2f4a;fill-opacity:1" /><path
       id="IL_Jackson"
       inkscape:label="Jackson, IL"
       fill="#CCCCCC"
       stroke="#FFFFFF"
       stroke-width="0.9697"
       d="M378.19,689.895   l19.121,0.267l1.239,5.211l-0.055,15.444l-16.939,1.689l-7.018-13.654L378.19,689.895"
       style="fill:#b9d7ff;fill-opacity:1" /><path
       id="IL_Monroe"
       inkscape:label="Monroe, IL"
       fill="#CCCCCC"
       stroke="#FFFFFF"
       stroke-width="0.9697"
       d="M347.834,656.403   l5.317,5.555l10.079,9.445l1.066,2.763l-6.252-0.156l-0.023,5.169l-7.701,2.712l-2.2-1.895l-3.585-4.002l-0.109-0.135l-0.131-0.214   l-0.759-1.204l-0.44-1.345l-0.431-2.67l0.082-2.457l0.082-0.591l0.103-0.238l0.822-2.22l0.232-0.394l0.138-0.154L347.834,656.403"
       style="fill:#cc2f4a;fill-opacity:1" /><path
       id="IL_Randolph"
       inkscape:label="Randolph, IL"
       fill="#CCCCCC"
       stroke="#FFFFFF"
       stroke-width="0.9697"
       d="M378.301,674.313   l-0.11,15.582l-3.651,8.957l-12.101-4.272L350.32,681.89l7.701-2.712l0.023-5.169l6.252,0.156l8.954,0.128L378.301,674.313"
       style="fill:#d40000;fill-opacity:1" /><path
       id="IL_Perry"
       inkscape:label="Perry, IL"
       fill="#CCCCCC"
       stroke="#FFFFFF"
       stroke-width="0.9697"
       d="M378.301,674.313   l20.34,0.347l0.863,5.188l-2.192,10.313l-19.121-0.267L378.301,674.313"
       style="fill:#d40000;fill-opacity:1" /><path
       id="IL_Franklin"
       inkscape:label="Franklin, IL"
       fill="#CCCCCC"
       stroke="#FFFFFF"
       stroke-width="0.9697"
       d="M418.912,679.707   l0.025,15.468l-20.387,0.197l-1.239-5.211l2.192-10.313L418.912,679.707"
       style="fill:#d40000;fill-opacity:1" /><path
       id="IL_Hamilton"
       inkscape:label="Hamilton, IL"
       fill="#CCCCCC"
       stroke="#FFFFFF"
       stroke-width="0.9697"
       d="M434.115,671.89   l0.054,20.477l-0.003,0.041l-15.234,0.205l-0.02-12.905l0.037-7.753L434.115,671.89"
       style="fill:#d40000;fill-opacity:1" /><path
       id="IL_White"
       inkscape:label="White, IL"
       fill="#CCCCCC"
       stroke="#FFFFFF"
       stroke-width="0.9697"
       d="M451.445,671.379   l1.564,2.015l-0.684,6.106l-1.582,13.486l-0.14,0.241l-0.03,0.039l-0.104,0.061l-0.078,0.009l-2.193-0.069l-14.03-0.9   l-0.054-20.477l10.025-0.171L451.445,671.379"
       style="fill:#d40000;fill-opacity:1" /><path
       id="IL_Jefferson"
       inkscape:label="Jefferson, IL"
       fill="#CCCCCC"
       stroke="#FFFFFF"
       stroke-width="0.9697"
       d="   M418.996,659.076l-0.047,12.878l-0.037,7.753l-19.408,0.141l-0.863-5.188l0.095-15.419L418.996,659.076"
       style="fill:#cc2f4a;fill-opacity:1" /><path
       id="IL_Washington"
       inkscape:label="Washington, IL"
       fill="#CCCCCC"
       stroke="#FFFFFF"
       stroke-width="0.9697"
       d="   M398.754,657.522l-0.019,1.719l-0.095,15.419l-20.34-0.347l-5.051-0.02l-0.012-11.757l1.656-1.447l2.462-1.779l1.887-0.566   L393,657.326L398.754,657.522"
       style="fill:#d40000;fill-opacity:1" /><path
       id="IL_Clinton"
       inkscape:label="Clinton, IL"
       fill="#CCCCCC"
       stroke="#FFFFFF"
       stroke-width="0.9697"
       d="M393.691,643.423   l5.248,0.324l-0.186,13.774L393,657.326l-13.757,1.417l-1.887,0.566l-2.462,1.779l-1.656,1.447l-0.086-13.975l4.973-5.198   L393.691,643.423"
       style="fill:#d40000;fill-opacity:1" /><path
       id="IL_St._Clair"
       inkscape:label="St. Clair, IL"
       fill="#CCCCCC"
       stroke="#FFFFFF"
       stroke-width="0.9697"
       d="   M351.615,648.147l21.537,0.415l0.086,13.975l0.012,11.757l-8.954-0.128l-1.066-2.763l-10.079-9.445l-5.317-5.555l0.253-0.706   L351.615,648.147"
       style="fill:#86b6f2;fill-opacity:1" /><path
       id="IL_Madison"
       inkscape:label="Madison, IL"
       fill="#CCCCCC"
       stroke="#FFFFFF"
       stroke-width="0.9697"
       d="M376.249,628.26   l0.105,4.764l0.54,2.6l1.182,3.673l0.048,4.067l-4.973,5.198l-21.537-0.415l-0.61-4.767l3.565-3.788l0.137-0.546l0.256-1.339   l-0.017-0.347l-0.163-0.339l-4.247-2.981l-0.826-0.567l-1.104-0.626l-1.14-0.434l5.899-4.314l20.216,0.165L376.249,628.26"
       style="fill:#e27f90;fill-opacity:1" /><path
       id="IL_Bond"
       inkscape:label="Bond, IL"
       fill="#CCCCCC"
       stroke="#FFFFFF"
       stroke-width="0.9697"
       d="M393.822,626.555   l-0.131,16.868l-15.567-0.06l-0.048-4.067l-1.182-3.673l-0.54-2.6l-0.105-4.764L393.822,626.555"
       style="fill:#cc2f4a;fill-opacity:1" /><path
       id="IL_Marion"
       inkscape:label="Marion, IL"
       fill="#CCCCCC"
       stroke="#FFFFFF"
       stroke-width="0.9697"
       d="M398.939,643.747   l0.006-5.188l6.261,0.039l13.8-0.263l-0.027,12.984l0.018,7.757l-20.261,0.164l0.019-1.719L398.939,643.747"
       style="fill:#d40000;fill-opacity:1" /><path
       id="IL_Wayne"
       inkscape:label="Wayne, IL"
       fill="#CCCCCC"
       stroke="#FFFFFF"
       stroke-width="0.9697"
       d="M439.171,651.496   l4.864,1.754l0.105,18.469l-10.025,0.171l-15.166,0.064l0.047-12.878l-0.018-7.757L439.171,651.496"
       style="fill:#aa0000;fill-opacity:1" /><path
       id="IL_Wabash"
       inkscape:label="Wabash, IL"
       fill="#CCCCCC"
       stroke="#FFFFFF"
       stroke-width="0.9697"
       d="M454.718,652.979   l11.866-0.072l-3.891,9.127l-9.601,11.079l-0.083,0.281l-1.564-2.015l1.345-18.369L454.718,652.979"
       style="fill:#d40000;fill-opacity:1" /><path
       id="IL_Edwards"
       inkscape:label="Edwards, IL"
       fill="#CCCCCC"
       stroke="#FFFFFF"
       stroke-width="0.9697"
       d="M452.79,653.01   l-1.345,18.369l-7.305,0.34l-0.105-18.469L452.79,653.01"
       style="fill:#aa0000;fill-opacity:1" /><path
       id="IL_Lawrence"
       inkscape:label="Lawrence, IL"
       fill="#CCCCCC"
       stroke="#FFFFFF"
       stroke-width="0.9697"
       d="M471.658,636.023   l0.185,0.035l0.089,0.17l1.482,3.857l-0.116,1.426l-0.894,3.671l-0.506,0.789l-0.383,0.278l-3.889,4.325l-1.043,2.332   l-11.866,0.072l-0.075-16.523L471.658,636.023"
       style="fill:#d40000;fill-opacity:1" /><path
       id="IL_Richland"
       inkscape:label="Richland, IL"
       fill="#CCCCCC"
       stroke="#FFFFFF"
       stroke-width="0.9697"
       d="M454.642,636.455   l0.075,16.523l-1.928,0.031l-8.755,0.24l-4.864-1.754l-1.487-5.255l-0.066-0.883l0.101-1.654l1.189,0.04l-0.15-6.883l14.181-0.359   L454.642,636.455"
       style="fill:#d40000;fill-opacity:1" /><path
       id="IL_Clay"
       inkscape:label="Clay, IL"
       sodipodi:nodetypes="cccccccccccc"
       fill="#CCCCCC"
       stroke="#FFFFFF"
       stroke-width="0.9697"
       d="   M419.037,633.108l15.034,0.068l0.039,3.8l4.646-0.114l0.15,6.883l-1.189-0.04l-0.101,1.654l0.066,0.883l1.487,5.255l-20.192-0.177   l0.027-12.984L419.037,633.108"
       style="fill:#d40000;fill-opacity:1" /><path
       id="IL_Jasper"
       inkscape:label="Jasper, IL"
       sodipodi:nodetypes="cccccc"
       fill="#CCCCCC"
       stroke="#FFFFFF"
       stroke-width="0.9697"
       d="   M449.818,617.436l2.592-0.104l0.527,19.171l-18.828,0.478l-0.193-19.158L449.818,617.436"
       style="fill:#d40000;fill-opacity:1" /><path
       id="IL_Crawford"
       inkscape:label="Crawford, IL"
       fill="#CCCCCC"
       stroke="#FFFFFF"
       stroke-width="0.9697"
       d="M452.41,617.331   l14.512,0.788l0.703,3.202l1.953,2.643l2.846,6.017l-0.25,1.854l-0.39,0.902l-0.292,0.348l0.166,2.938l-17.016,0.433l-1.705,0.047   L452.41,617.331"
       style="fill:#d40000;fill-opacity:1" /><path
       id="IL_Clark"
       inkscape:label="Clark, IL"
       fill="#CCCCCC"
       stroke="#FFFFFF"
       stroke-width="0.9697"
       d="M451.681,599.266   l12.184-0.578l-0.017,0.632l7.066-0.17l-2.981,12.926l-1.012,6.044l-14.512-0.788l-2.592,0.104l-0.38-12.088L451.681,599.266"
       style="fill:#d40000;fill-opacity:1" /><path
       id="IL_Cumberland"
       inkscape:label="Cumberland, IL"
       sodipodi:nodetypes="ccccc"
       fill="#CCCCCC"
       stroke="#FFFFFF"
       stroke-width="0.9697"
       d="   M449.438,605.348l0.38,12.088l-20.867,0.503l-0.127-12.055L449.438,605.348"
       style="fill:#d40000;fill-opacity:1" /><path
       id="IL_Effingham"
       inkscape:label="Effingham, IL"
       sodipodi:nodetypes="ccccccc"
       fill="#CCCCCC"
       stroke="#FFFFFF"
       stroke-width="0.9697"
       d="   M428.914,615.302l0.033,2.642l4.969-0.122l0.155,15.354l-15.034-0.068l-5.12,0.203l-0.058-17.978"
       style="fill:#d40000;fill-opacity:1" /><path
       id="IL_Fayette"
       inkscape:label="Fayette, IL"
       fill="#CCCCCC"
       stroke="#FFFFFF"
       stroke-width="0.9697"
       d="M413.859,615.333   l0.058,17.978l5.12-0.203l-0.031,5.228l-13.8,0.263l-6.261-0.039l-0.006,5.188l-5.248-0.324l0.131-16.868l4.954-11.229   L413.859,615.333"
       style="fill:#d40000;fill-opacity:1" /><path
       id="IL_Shelby"
       inkscape:label="Shelby, IL"
       fill="#CCCCCC"
       stroke="#FFFFFF"
       stroke-width="0.9697"
       d="M403.793,589.553   l9.621,0.006l0.114,4.3l10.139,6.787l2.089,0.939l3.041-0.014l0.027,4.313l0.09,9.418l-15.055,0.031l-15.083-0.008l-0.02-7.734   l5.143,0.144l0.021-10.436L403.793,589.553"
       style="fill:#d40000;fill-opacity:1" /><path
       id="IL_Montgomery"
       inkscape:label="Montgomery, IL"
       fill="#CCCCCC"
       stroke="#FFFFFF"
       stroke-width="0.9697"
       d="   M373.514,597.322l7.529-0.083l0.137,10.392l12.554,0.002l5.022-0.041l0.02,7.734l-4.954,11.229l-17.573,1.705l-2.667,0.004   L373.514,597.322"
       style="fill:#cc2f4a;fill-opacity:1" /><path
       id="IL_Jersey"
       inkscape:label="Jersey, IL"
       fill="#CCCCCC"
       stroke="#FFFFFF"
       stroke-width="0.9697"
       d="M353.381,612.638   l-0.016,15.461l-5.899,4.314l-7.907-2.51l-6.788-8.919l1.064-3.968l2.012-0.336l1.235,0.309l0.243,0.248l0.019,0.125l0.74,0.496   l7.784-0.074l-0.002-3.019l5.404-2.137L353.381,612.638"
       style="fill:#d40000;fill-opacity:1" /><path
       id="IL_Macoupin"
       inkscape:label="Macoupin, IL"
       fill="#CCCCCC"
       stroke="#FFFFFF"
       stroke-width="0.9697"
       d="M363.435,597.344   l10.079-0.022l0.068,30.942l-20.216-0.165l0.016-15.461l-0.164-15.236L363.435,597.344"
       style="fill:#cc2f4a;fill-opacity:1" /><path
       id="IL_Calhoun"
       inkscape:label="Calhoun, IL"
       fill="#CCCCCC"
       stroke="#FFFFFF"
       stroke-width="0.9697"
       d="M317.353,604.127   l15.146,0.426l0.273,16.432l6.788,8.919l-9.746,1.87l-1.981-6.677l0.001-0.022l-0.085-0.415l0.058-0.183l1.358-1.814l0.086-0.731   l-1.609-7.311L317.353,604.127"
       style="fill:#cc2f4a;fill-opacity:1" /><path
       id="IL_Greene"
       inkscape:label="Greene, IL"
       fill="#CCCCCC"
       stroke="#FFFFFF"
       stroke-width="0.9697"
       d="M353.218,597.402   l0.164,15.236l-2.111-0.009l-5.404,2.137l0.002,3.019l-7.784,0.074l-0.74-0.496l-0.019-0.125l-0.243-0.248l-1.235-0.309   l-2.012,0.336l-1.064,3.968l-0.273-16.432l1.557-7.421l12.52,0.223L353.218,597.402"
       style="fill:#d40000;fill-opacity:1" /><path
       id="IL_Christian"
       inkscape:label="Christian, IL"
       fill="#CCCCCC"
       stroke="#FFFFFF"
       stroke-width="0.9697"
       d="   M395.181,580.204l3.4,0.721l0.143,8.585l5.068,0.043l0.127,7.746l-0.021,10.436l-5.143-0.144l-5.022,0.041l-12.554-0.002   l-0.137-10.392l-0.056-6.872l6.213-5.973l6.309-4.305L395.181,580.204"
       style="fill:#cc2f4a;fill-opacity:1" /><path
       id="IL_Coles"
       inkscape:label="Coles, IL"
       fill="#CCCCCC"
       stroke="#FFFFFF"
       stroke-width="0.9697"
       d="M428.592,589.514   l18.304-0.28l-0.024-1.704l1.673-0.235l2.652-0.114l0.485,12.086l-2.243,6.082l-20.614,0.536l-0.027-4.313L428.592,589.514"
       style="fill:#cc2f4a;fill-opacity:1" /><path
       id="IL_Edgar"
       inkscape:label="Edgar, IL"
       fill="#CCCCCC"
       stroke="#FFFFFF"
       stroke-width="0.9697"
       d="M452.316,575.719   l18.047-0.521l0.379,16.271l0.173,7.682l-7.066,0.17l0.017-0.632l-12.184,0.578l-0.485-12.086l-0.132-4.306l1.242-1.99   L452.316,575.719"
       style="fill:#d40000;fill-opacity:1" /><path
       id="IL_Douglas"
       inkscape:label="Douglas, IL"
       fill="#CCCCCC"
       stroke="#FFFFFF"
       stroke-width="0.9697"
       d="M428.883,576.074   l23.434-0.355l-0.01,5.165l-1.242,1.99l0.132,4.306l-2.652,0.114l-1.673,0.235l0.024,1.704l-18.304,0.28l-0.146-8.275   L428.883,576.074"
       style="fill:#d40000;fill-opacity:1" /><path
       id="IL_Moultrie"
       inkscape:label="Moultrie, IL"
       fill="#CCCCCC"
       stroke="#FFFFFF"
       stroke-width="0.9697"
       d="M428.446,581.239   l0.146,8.275l0.205,12.058l-3.041,0.014l-2.089-0.939l-10.139-6.787l-0.114-4.3l2.858-8.211L428.446,581.239"
       style="fill:#d40000;fill-opacity:1" /><path
       id="IL_Macon"
       inkscape:label="Macon, IL"
       fill="#CCCCCC"
       stroke="#FFFFFF"
       stroke-width="0.9697"
       d="M416.169,565.829   l0.104,15.519l-2.858,8.211l-9.621-0.006l-5.068-0.043l-0.143-8.585l-3.4-0.721l-0.029-6.138l3.243-7.779l5.157-0.073l10.013-0.386   L416.169,565.829"
       style="fill:#e27f90;fill-opacity:1" /><path
       id="IL_Sangamon"
       inkscape:label="Sangamon, IL"
       fill="#CCCCCC"
       stroke="#FFFFFF"
       stroke-width="0.9697"
       d="M379.059,570.603   l4.231-0.037l0.011,2.563l3.507,0.896l8.344,0.041l0.029,6.138l-1.672-0.115l-6.309,4.305l-6.213,5.973l0.056,6.872l-7.529,0.083   l-10.079,0.022l0.077-1.715l-0.216-1.285l-2.424-8.582l-0.387-3.964l0.009-5.17l-0.004-1.726l10.052,0.035l3.014-0.936   l-0.018-1.193l0.185-2.163L379.059,570.603"
       style="fill:#e27f90;fill-opacity:1" /><path
       id="IL_Morgan"
       inkscape:label="Morgan, IL"
       fill="#CCCCCC"
       stroke="#FFFFFF"
       stroke-width="0.9697"
       d="M334.185,576.176   l26.309,0.452l-0.009,5.17l0.387,3.964l2.424,8.582l0.216,1.285l-0.077,1.715l-10.218,0.058l-6.642-0.047l0.125-6.864l-3.091-6.939   l-4.982-2.149l-5.182-0.105l1.242-2.909L334.185,576.176"
       style="fill:#cc2f4a;fill-opacity:1" /><path
       id="IL_Scott"
       inkscape:label="Scott, IL"
       fill="#CCCCCC"
       stroke="#FFFFFF"
       stroke-width="0.9697"
       d="M346.576,597.355   l-12.52-0.223l0.398-1.02l-0.003-0.224l-0.268-1.206l-1.266-4.497l-0.371-6.266l0.899-2.624l5.182,0.105l4.982,2.149l3.091,6.939   L346.576,597.355"
       style="fill:#d40000;fill-opacity:1" /><path
       id="IL_Pike"
       inkscape:label="Pike, IL"
       fill="#CCCCCC"
       stroke="#FFFFFF"
       stroke-width="0.9697"
       d="M334.688,578.387   l-1.242,2.909l-0.899,2.624l0.371,6.266l1.266,4.497l0.268,1.206l0.003,0.224l-0.398,1.02l-1.557,7.421l-15.146-0.426   l-9.992-11.911l-5.968-5.226l-2.361-4.391l7.348,0.241l12.844,0.204l0.069-5.184L334.688,578.387"
       style="fill:#d40000;fill-opacity:1" /><path
       id="IL_Brown"
       inkscape:label="Brown, IL"
       fill="#CCCCCC"
       stroke="#FFFFFF"
       stroke-width="0.9697"
       d="M319.651,562.537   l5.233,0.015l4.458,0.16l3.048,4.665l0.883,2.046l4.103,0.241l-3.192,6.512l0.503,2.211l-15.394-0.525L319.651,562.537"
       style="fill:#d40000;fill-opacity:1" /><path
       id="IL_Adams"
       inkscape:label="Adams, IL"
       fill="#CCCCCC"
       stroke="#FFFFFF"
       stroke-width="0.9697"
       d="M319.81,557.315   l-0.159,5.223l-0.356,15.324l-0.069,5.184l-12.844-0.204l-7.348-0.241l-3.711-11.102l-2.103-15.101L319.81,557.315"
       style="fill:#d40000;fill-opacity:1" /><path
       id="IL_Hancock"
       inkscape:label="Hancock, IL"
       fill="#CCCCCC"
       stroke="#FFFFFF"
       stroke-width="0.9697"
       d="M308.104,530.875   l12.444,0.132l-0.574,20.93l-0.165,5.378l-26.591-0.917l0.468-2.84l3.796-7.555l1.383-0.383l0.066-0.032l0.494-0.357l0.139-0.504   l0.021-0.035l0.479-5.247l0.004-0.592l-0.196-0.728l-0.661-1.115l-0.872-0.488l-0.111-0.499l0.098-0.43l2.054-2.727l0.176-0.175   l0.174-0.147l0.146-0.14l0.406-0.218l1.149-0.554l0.273-0.132l0.066-0.036l2.366-0.652l0.018,0.001l0.35,0.006l1.17-0.006   L308.104,530.875"
       style="fill:#d40000;fill-opacity:1" /><path
       id="IL_McDonough"
       inkscape:label="Donough, IL"
       fill="#CCCCCC"
       stroke="#FFFFFF"
       stroke-width="0.9697"
       d="M325.618,531.278   l15.171,0.651l-0.414,20.731l-20.401-0.724l0.574-20.93L325.618,531.278"
       style="fill:#e27f90;fill-opacity:1" /><path
       id="IL_Schuyler"
       inkscape:label="Schuyler, IL"
       fill="#CCCCCC"
       stroke="#FFFFFF"
       stroke-width="0.9697"
       d="M319.974,551.937   l20.401,0.724l11.083,5.559l-6.947,3.465l-7.135,7.98l-4.103-0.241l-0.883-2.046l-3.048-4.665l-4.458-0.16l-5.233-0.015   L319.974,551.937"
       style="fill:#cc2f4a;fill-opacity:1" /><path
       id="IL_Cass"
       inkscape:label="Cass, IL"
       fill="#CCCCCC"
       stroke="#FFFFFF"
       stroke-width="0.9697"
       d="M344.512,561.684   l3.064,4.088l3.964,0.209l0.084-0.035l4.536-1.495l4.183-1.393l0.204-0.313l-0.057,12.158l0.004,1.726l-26.309-0.452l3.192-6.512   L344.512,561.684"
       style="fill:#cc2f4a;fill-opacity:1" /><path
       id="IL_Menard"
       inkscape:label="Menard, IL"
       fill="#CCCCCC"
       stroke="#FFFFFF"
       stroke-width="0.9697"
       d="M360.547,562.744   l2.063-1.415l12.417-1.586l1.571,0.39l1.458,1.825l1.003,8.645l-5.337,0.043l-0.185,2.163l0.018,1.193l-3.014,0.936l-10.052-0.035   L360.547,562.744"
       style="fill:#cc2f4a;fill-opacity:1" /><path
       id="IL_Mason"
       inkscape:label="Mason, IL"
       fill="#CCCCCC"
       stroke="#FFFFFF"
       stroke-width="0.9697"
       d="M363.764,543.416   l9.182,0.058l0.083,6.874l4.965-0.05l0.063,11.66l-1.458-1.825l-1.571-0.39l-12.417,1.586l-2.063,1.415l-0.204,0.313l-4.183,1.393   l-4.536,1.495l-0.084,0.035l-3.964-0.209l-3.064-4.088l6.947-3.465l3.232-2.522l0.311-0.352l2.331-3.713l0.776-3.288l0.308-0.907   l0.3-0.457l4.381-3.222L363.764,543.416"
       style="fill:#cc2f4a;fill-opacity:1" /><path
       id="IL_Logan"
       inkscape:label="Logan, IL"
       fill="#CCCCCC"
       stroke="#FFFFFF"
       stroke-width="0.9697"
       d="M393.056,550.004   l5.093,2.525l0.247,13.758l-3.243,7.779l-8.344-0.041l-3.507-0.896l-0.011-2.563l-4.231,0.037l-1.003-8.645l-0.063-11.66   L393.056,550.004"
       style="fill:#cc2f4a;fill-opacity:1" /><path
       id="IL_De_Witt"
       inkscape:label="De Witt, IL"
       fill="#CCCCCC"
       stroke="#FFFFFF"
       stroke-width="0.9697"
       d="M423.646,552.393   l-7.478,13.437l-2.604-0.001l-10.013,0.386l-5.157,0.073l-0.247-13.758L423.646,552.393"
       style="fill:#cc2f4a;fill-opacity:1" /><path
       id="IL_Piatt"
       inkscape:label="Piatt, IL"
       fill="#CCCCCC"
       stroke="#FFFFFF"
       stroke-width="0.9697"
       d="M423.646,552.393   l5.106-0.059l0.13,23.74l-0.437,5.164l-12.174,0.109l-0.104-15.519L423.646,552.393"
       style="fill:#cc2f4a;fill-opacity:1" /><path
       id="IL_Champaign"
       inkscape:label="Champaign, IL"
       fill="#CCCCCC"
       stroke="#FFFFFF"
       stroke-width="0.9697"
       d="   M428.655,545.413l23.37-0.36l0.337,10.26l-0.598,0.019l0.552,20.388l-23.434,0.355l-0.13-23.74L428.655,545.413"
       style="fill:#86b6f2;fill-opacity:1" /><path
       id="IL_Ford"
       inkscape:label="Ford, IL"
       fill="#CCCCCC"
       stroke="#FFFFFF"
       stroke-width="0.9697"
       d="M437.637,510.156   l5.069-0.248l1.029,30.061l8.085-0.018l0.205,5.103l-23.37,0.36l-0.097-12.893l9.914-0.155L437.637,510.156"
       style="fill:#d40000;fill-opacity:1" /><path
       id="IL_McLean"
       inkscape:label="McLean, IL"
       fill="#CCCCCC"
       stroke="#FFFFFF"
       stroke-width="0.9697"
       d="M407.736,524.668   l15.232-0.364l0.115,5.138l0.396,3.182l5.078-0.103l0.097,12.893l0.098,6.921l-5.106,0.059l-25.498,0.137l-5.093-2.525   l-0.283-15.878l5.987-0.166l3.955-1.841l2.614-2.219L407.736,524.668"
       style="fill:#f2b3be;fill-opacity:1" /><path
       id="IL_Tazewell"
       inkscape:label="Tazewell, IL"
       fill="#CCCCCC"
       stroke="#FFFFFF"
       stroke-width="0.9697"
       d="M380.14,525.071   l9.93-0.037l0.008,3.451l0.131,4.4l2.563,1.241l0.283,15.878l-15.063,0.294l-4.965,0.05l-0.083-6.874l-9.182-0.058l2.315-4.542   l9.492-5.192l4.57-5.967l0.379-1.017l-0.166-1.1L380.14,525.071"
       style="fill:#cc2f4a;fill-opacity:1" /><path
       id="IL_Woodford"
       inkscape:label="Woodford, IL"
       fill="#CCCCCC"
       stroke="#FFFFFF"
       stroke-width="0.9697"
       d="M402.49,514.527   l5.094-0.142l0.152,10.283l-2.407,5.232l-2.614,2.219l-3.955,1.841l-5.987,0.166l-2.563-1.241l-0.131-4.4l-0.008-3.451l-9.93,0.037   l3.657-10.231L402.49,514.527"
       style="fill:#cc2f4a;fill-opacity:1" /><path
       id="IL_Peoria"
       inkscape:label="Peoria, IL"
       fill="#CCCCCC"
       stroke="#FFFFFF"
       stroke-width="0.9697"
       d="M376.482,511.733   l7.315,3.106l-3.657,10.231l0.214,0.528l0.166,1.1l-0.379,1.017l-4.57,5.967l-9.492,5.192l0.049-3.952l-0.062-2.612l-5.104-0.101   l0.164-5.101l0.104-15.481L376.482,511.733"
       style="fill:#b9d7ff;fill-opacity:1" /><path
       id="IL_Fulton"
       inkscape:label="Fulton, IL"
       fill="#CCCCCC"
       stroke="#FFFFFF"
       stroke-width="0.9697"
       d="M361.125,527.109   l-0.164,5.101l5.104,0.101l0.062,2.612l-0.049,3.952l-2.315,4.542l-0.665,0.342l-4.381,3.222l-0.3,0.457l-0.308,0.907l-0.776,3.288   l-2.331,3.713l-0.311,0.352l-3.232,2.522l-11.083-5.559l0.414-20.731l0.106-5.122L361.125,527.109"
       style="fill:#e27f90;fill-opacity:1" /><path
       id="IL_Warren"
       inkscape:label="Warren, IL"
       fill="#CCCCCC"
       stroke="#FFFFFF"
       stroke-width="0.9697"
       d="M326.143,505.752   l15.189,0.447l-0.543,25.729l-15.171-0.651L326.143,505.752"
       style="fill:#e27f90;fill-opacity:1" /><path
       id="IL_Henderson"
       inkscape:label="Henderson, IL"
       fill="#CCCCCC"
       stroke="#FFFFFF"
       stroke-width="0.9697"
       d="   M318.975,505.546l7.168,0.206l-0.525,25.525l-5.07-0.271l-12.444-0.132l3.314-3.386l0.758-6.594l0.215-0.745l3.746-4.631   l0.502-0.43l1.313-0.629l0.27-0.351l0.491-1.709l0.504-4.745l-0.114-1.592L318.975,505.546"
       style="fill:#cc2f4a;fill-opacity:1" /><path
       id="IL_Mercer"
       inkscape:label="Mercer, IL"
       fill="#CCCCCC"
       stroke="#FFFFFF"
       stroke-width="0.9697"
       d="M313.479,489.944   l28.246,0.753l-0.392,15.503l-15.189-0.447l-7.168-0.206l-0.031-0.147l0.138-1.406l-1.825-3.512l-0.345-0.41l-0.342-0.188   l-0.59,0.041l-1.348-0.789l-2.713-3.759l-0.016-0.042l-0.012-0.488L313.479,489.944"
       style="fill:#e27f90;fill-opacity:1" /><path
       id="IL_Knox"
       inkscape:label="Knox, IL"
       fill="#CCCCCC"
       stroke="#FFFFFF"
       stroke-width="0.9697"
       d="M361.318,501.32   l-0.089,10.308l-0.104,15.481l-20.229-0.302l0.438-20.607l0.126-5.139L361.318,501.32"
       style="fill:#f2b3be;fill-opacity:1" /><path
       id="IL_Stark"
       inkscape:label="Stark, IL"
       fill="#CCCCCC"
       stroke="#FFFFFF"
       stroke-width="0.9697"
       d="M366.912,496.347   l9.577,5.091l-0.007,10.295l-15.254-0.105l0.089-10.308L366.912,496.347"
       style="fill:#cc2f4a;fill-opacity:1" /><path
       id="IL_Marshall"
       inkscape:label="Marshall, IL"
       fill="#CCCCCC"
       stroke="#FFFFFF"
       stroke-width="0.9697"
       d="M376.489,501.438   l7.577,0.007l5.998,0.021l-0.176,1.426l-0.112,0.384l-0.283,0.345l-0.446,0.202l-0.264,0.264l8.624-0.049l5.083,10.49   l-18.693,0.313l-7.315-3.106L376.489,501.438"
       style="fill:#cc2f4a;fill-opacity:1" /><path
       id="IL_Putnam"
       inkscape:label="Putnam, IL"
       fill="#CCCCCC"
       stroke="#FFFFFF"
       stroke-width="0.9697"
       d="M397.295,491.885   l0.112,12.151l-8.624,0.049l0.264-0.264l0.446-0.202l0.283-0.345l0.112-0.384l0.176-1.426l-5.998-0.021l-0.03-5.05l6.209-4.048   l2.459-1.142l0.534-0.022L397.295,491.885"
       style="fill:#e27f90;fill-opacity:1" /><path
       id="IL_Livingston"
       inkscape:label="Livingston, IL"
       fill="#CCCCCC"
       stroke="#FFFFFF"
       stroke-width="0.9697"
       d="   M422.685,503.648l14.678-0.512l0.273,7.02l0.836,22.21l-9.914,0.155l-5.078,0.103l-0.396-3.182l-0.115-5.138l-15.232,0.364   l-0.152-10.283l-0.038-10.513L422.685,503.648"
       style="fill:#cc2f4a;fill-opacity:1" /><path
       id="IL_Kankakee"
       inkscape:label="Kankakee, IL"
       fill="#CCCCCC"
       stroke="#FFFFFF"
       stroke-width="0.9697"
       d="M469.1,499.509   l0.211,9.186l-26.605,1.213l-5.069,0.248l-0.273-7.02l0.251-5.172l7.637-0.321l2.439-3.237l-0.075-1.948l21.324-0.733   L469.1,499.509"
       style="fill:#e27f90;fill-opacity:1" /><path
       id="IL_Grundy"
       inkscape:label="Grundy, IL"
       fill="#CCCCCC"
       stroke="#FFFFFF"
       stroke-width="0.9697"
       d="M437.075,482.561   l0.539,15.403l-0.251,5.172l-14.678,0.512l-0.625-20.58L437.075,482.561"
       style="fill:#e27f90;fill-opacity:1" /><path
       id="IL_Will"
       inkscape:label="Will, IL"
       fill="#CCCCCC"
       stroke="#FFFFFF"
       stroke-width="0.9697"
       d="M436.451,467.129   l10.152,2.154l0.108,2.598l10.499,9.952l11.559-0.23l0.17,10.121l-21.324,0.733l0.075,1.948l-2.439,3.237l-7.637,0.321   l-0.539-15.403L436.451,467.129"
       style="fill:#86b6f2;fill-opacity:1" /><path
       id="IL_Kendall"
       inkscape:label="Kendall, IL"
       fill="#CCCCCC"
       stroke="#FFFFFF"
       stroke-width="0.9697"
       d="M436.433,467.128   l0.018,0.001l0.624,15.432l-15.015,0.507l-0.376-10.285l-0.03-5.19L436.433,467.128"
       style="fill:#f2b3be;fill-opacity:1" /><path
       id="IL_La_Salle"
       inkscape:label="La Salle, IL"
       fill="#CCCCCC"
       stroke="#FFFFFF"
       stroke-width="0.9697"
       d="M407.039,473.092   l14.646-0.31l0.376,10.285l0.625,20.58l-15.14,0.225l0.038,10.513l-5.094,0.142l-5.083-10.49l-0.112-12.151l-0.201-18.78   l5.008,0.099L407.039,473.092"
       style="fill:#e27f90;fill-opacity:1" /><path
       id="IL_Bureau"
       inkscape:label="Bureau, IL"
       fill="#CCCCCC"
       stroke="#FFFFFF"
       stroke-width="0.9697"
       d="M397.112,475.673   l0.183,16.212l-4.057-0.702l-0.534,0.022l-2.459,1.142l-6.209,4.048l0.03,5.05l-7.577-0.007l-9.577-5.091l-0.123-20.609   l10.053-0.046L397.112,475.673"
       style="fill:#e27f90;fill-opacity:1" /><path
       id="IL_Henry"
       inkscape:label="Henry, IL"
       fill="#CCCCCC"
       stroke="#FFFFFF"
       stroke-width="0.9697"
       d="M366.789,475.738   l0.123,20.609l-5.594,4.973l-19.859-0.259l0.266-10.364l0.169-7.635l2.975-2.695l0.539-0.354l0.793-0.292l2.1-0.347l1.631-0.152   l2.329-1.032l0.45-0.856l0.256-1.007l-0.043-0.367l-0.222-0.348L366.789,475.738"
       style="fill:#e27f90;fill-opacity:1" /><path
       id="IL_Rock_Island"
       inkscape:label="Rock Island, IL"
       fill="#CCCCCC"
       stroke="#FFFFFF"
       stroke-width="0.9697"
       d="   M350.334,463.838l-0.24,1.112l-0.032,1.071l0.328,2.376l0.561,1.372l0.79,0.833l0.831,0.366l0.689,0.498l0.528,0.655l0.045,0.8   l-0.027,0.717l-0.213,1.319l-0.117,0.179l-0.774,0.475l0.222,0.348l0.043,0.367l-0.256,1.007l-0.45,0.856l-2.329,1.032   l-1.631,0.152l-2.1,0.347l-0.793,0.292l-0.539,0.354l-2.975,2.695l-0.169,7.635l-28.246-0.753l0.001-0.018l0.654-1.967l0.778-2.455   l0.049-0.11l0.338-0.413l0.001-0.019l0.042-0.02l0.488-0.271l1.681-0.481l6.24-1.25l2.674,0.16l0.624,0.125l1.493,0.062   l3.577-0.655l8.53-3.52l2.799-2.843l2.474-2.889l1.112-6.318L350.334,463.838"
       style="fill:#86b6f2;fill-opacity:1" /><path
       id="IL_Lee"
       inkscape:label="Lee, IL"
       fill="#CCCCCC"
       stroke="#FFFFFF"
       stroke-width="0.9697"
       d="M376.96,457.033l2.91-0.023   l8.765-0.039l0.004,0.865l18.194-0.289l0.206,15.545l-4.938,0.111l-5.008-0.099l0.019,2.568l-20.27,0.019L376.96,457.033"
       style="fill:#e27f90;fill-opacity:1" /><path
       id="IL_Whiteside"
       inkscape:label="Whiteside, IL"
       fill="#CCCCCC"
       stroke="#FFFFFF"
       stroke-width="0.9697"
       d="   M374.492,455.325l2.468,1.708l-0.117,18.658l-10.053,0.046l-14.087-0.126l0.774-0.475l0.117-0.179l0.213-1.319l0.027-0.717   l-0.045-0.8l-0.528-0.655l-0.689-0.498l-0.831-0.366l-0.79-0.833l-0.561-1.372l-0.328-2.376l0.032-1.071l0.24-1.112l3.971-8.503   L374.492,455.325"
       style="fill:#e27f90;fill-opacity:1" /><path
       id="IL_Carroll"
       inkscape:label="Carroll, IL"
       fill="#CCCCCC"
       stroke="#FFFFFF"
       stroke-width="0.9697"
       d="M374.446,439.5   l0.046,15.825l-20.187,0.01l-0.051-6.144l-6.934-9.516l17.153-0.037L374.446,439.5"
       style="fill:#cc2f4a;fill-opacity:1" /><path
       id="IL_Ogle"
       inkscape:label="Ogle, IL"
       fill="#CCCCCC"
       stroke="#FFFFFF"
       stroke-width="0.9697"
       d="M387.079,439.331   l9.654-0.138l0.005,3.173l10.08-0.168l0.015,15.349l-18.194,0.289l-0.004-0.865l-8.765,0.039l-2.91,0.023l-2.468-1.708   l-0.046-15.825L387.079,439.331"
       style="fill:#cc2f4a;fill-opacity:1" /><path
       id="IL_DeKalb"
       inkscape:label="DeKalb, IL"
       fill="#CCCCCC"
       stroke="#FFFFFF"
       stroke-width="0.9697"
       d="M421.996,442.013   l-0.342,25.579l0.03,5.19l-14.646,0.31l-0.206-15.545l-0.015-15.349l10.127-0.142L421.996,442.013"
       style="fill:#b9d7ff;fill-opacity:1" /><path
       id="IL_Kane"
       inkscape:label="Kane, IL"
       fill="#CCCCCC"
       stroke="#FFFFFF"
       stroke-width="0.9697"
       d="M437.148,441.824   l-0.949,9.903l0.234,15.4l-14.779,0.464l0.342-25.579L437.148,441.824"
       style="fill:#86b6f2;fill-opacity:1" /><path
       id="IL_DuPage"
       inkscape:label="DuPage, IL"
       fill="#CCCCCC"
       stroke="#FFFFFF"
       stroke-width="0.9697"
       d="M436.433,467.128   l-0.234-15.4l10.045-0.516l4.337-0.135l0.493,2.104l0.504,14.186l-4.975,1.916l-10.152-2.154L436.433,467.128"
       style="fill:#86b6f2;fill-opacity:1" /><path
       id="IL_Cook"
       inkscape:label="Cook, IL"
       fill="#CCCCCC"
       stroke="#FFFFFF"
       stroke-width="0.9697"
       d="M438.83,441.795   l19.012-0.209l3.91,6.094l1.895,6.735l0.391,1.815l0.316,1.947l0.336,1.393l0.139,0.378l0.262,0.696l1.105,2.379l2.357,4.527   l0.217,14.052l-11.559,0.23l-10.499-9.952l-0.108-2.598l4.975-1.916l-0.504-14.186l-0.493-2.104l-4.337,0.135l-10.045,0.516   l0.949-9.903L438.83,441.795"
       style="fill:#1666cb;fill-opacity:1" /><path
       id="IL_Lake"
       inkscape:label="Lake, IL"
       fill="#CCCCCC"
       stroke="#FFFFFF"
       stroke-width="0.9697"
       d="M438.512,421.651   l17.196-0.007l0.019,0.002l0.123,1.174l-0.229,5.132l-0.473,1.183l-0.178,0.192l-0.412,1.833l-0.119,1.722l0.283,1.845l0.753,2.223   l0.556,1.395l1.811,3.243l-19.012,0.209L438.512,421.651"
       style="fill:#86b6f2;fill-opacity:1" /><path
       id="IL_McHenry"
       inkscape:label="McHenry, IL"
       fill="#CCCCCC"
       stroke="#FFFFFF"
       stroke-width="0.9697"
       d="M434.027,421.793   l4.484-0.143l0.318,20.145l-1.682,0.029l-15.152,0.188l-5.051,0.044l-0.244-20.017L434.027,421.793"
       style="fill:#e27f90;fill-opacity:1" /><path
       id="IL_Boone"
       inkscape:label="Boone, IL"
       fill="#CCCCCC"
       stroke="#FFFFFF"
       stroke-width="0.9697"
       d="M413.724,422.041   l2.977-0.001l0.244,20.017l-10.127,0.142l-0.148-20.174L413.724,422.041"
       style="fill:#e27f90;fill-opacity:1" /><path
       id="IL_Winnebago"
       inkscape:label="Winnebago, IL"
       fill="#CCCCCC"
       stroke="#FFFFFF"
       stroke-width="0.9697"
       d="M406.67,422.025   l0.148,20.174l-10.08,0.168l-0.005-3.173l-9.654,0.138l-0.254-17.568l1.538,0.01L406.67,422.025"
       style="fill:#f2b3be;fill-opacity:1" /><path
       id="IL_Stephenson"
       inkscape:label="Stephenson, IL"
       fill="#CCCCCC"
       stroke="#FFFFFF"
       stroke-width="0.9697"
       d="   M368.081,421.445l18.744,0.318l0.254,17.568l-12.633,0.169l-9.973,0.139l-0.226-18.235L368.081,421.445"
       style="fill:#e27f90;fill-opacity:1" /><path
       id="IL_Jo_Daviess"
       inkscape:label="Jo Daviess, IL"
       fill="#CCCCCC"
       stroke="#FFFFFF"
       stroke-width="0.9697"
       d="   M364.247,421.404l0.226,18.235l-17.153,0.037l-1.759-0.699l-0.757-0.566l-0.698-0.645l-0.038-0.039l-1.123-1.615l-0.027-0.065   l-0.506-1.387l0.026-0.371l0.282-0.531l0.358-1.637l-0.008-0.224l-0.109-0.199l-2.364-3.152l-0.102-0.112l-0.017-0.019   l-3.494-2.808l-2.783-1.688l-0.948-0.784l-0.324-0.387l-0.08-0.302l-0.018-0.328l0.027-0.135l0.668-0.983l9.214,0.179   L364.247,421.404"
       style="fill:#e27f90;fill-opacity:1" /></g></svg>