<?xml version="1.0" encoding="utf-8"?>
<!-- Generator: Adobe Illustrator 18.1.1, SVG Export Plug-In . SVG Version: 6.00 Build 0)  -->
<svg version="1.1"
	 id="svg6550" sodipodi:version="0.32" inkscape:version="0.48.1 " sodipodi:docname="Indiana_Presidential_Election_Results_by_County,_2008[1].svg" inkscape:output_extension="org.inkscape.output.svg.inkscape" xmlns:dc="http://purl.org/dc/elements/1.1/" xmlns:cc="http://creativecommons.org/ns#" xmlns:rdf="http://www.w3.org/1999/02/22-rdf-syntax-ns#" xmlns:svg="http://www.w3.org/2000/svg" xmlns:sodipodi="http://sodipodi.sourceforge.net/DTD/sodipodi-0.dtd" xmlns:inkscape="http://www.inkscape.org/namespaces/inkscape"
	 xmlns="http://www.w3.org/2000/svg" xmlns:xlink="http://www.w3.org/1999/xlink" x="0px" y="0px" width="266.3px" height="420.4px"
	 viewBox="-122 11.9 266.3 420.4" enable-background="new -122 11.9 266.3 420.4" xml:space="preserve">
<sodipodi:namedview  inkscape:window-maximized="1" pagecolor="#ffffff" bordercolor="#666666" borderopacity="1.0" gridtolerance="10.0" guidetolerance="10.0" objecttolerance="10.0" inkscape:zoom="1.2084092" inkscape:cx="11.506261" inkscape:cy="210.1937" showgrid="false" id="base" inkscape:pageopacity="0.0" inkscape:pageshadow="2" inkscape:current-layer="svg6550" inkscape:window-width="1366" inkscape:window-height="706" inkscape:window-x="-8" inkscape:window-y="-8">
	</sodipodi:namedview>
<defs>
	
	
		<inkscape:perspective  inkscape:persp3d-origin="133.15379 : 140.12913 : 1" sodipodi:type="inkscape:persp3d" inkscape:vp_x="0 : 210.1937 : 1" inkscape:vp_y="0 : 1000 : 0" inkscape:vp_z="266.30759 : 210.1937 : 1" id="perspective2985">
		</inkscape:perspective>
	
		<inkscape:perspective  inkscape:persp3d-origin="372.04724 : 350.78739 : 1" sodipodi:type="inkscape:persp3d" inkscape:vp_x="0 : 526.18109 : 1" inkscape:vp_y="0 : 1000 : 0" inkscape:vp_z="744.09448 : 526.18109 : 1" id="perspective2994">
		</inkscape:perspective>
</defs>
<path id="IN_Porter" fill="#e27f90" stroke="#FFFFFF" stroke-width="1.3906" d="M-29.3,36.5l0.5,45.7l-0.7,0.7l-2.1,1l-0.6-0.2
	l-5.2-4l-3.7-1.7l-1.4-0.5l-0.8,0.1l-4.2,2l-1.9,2.2L-49.9,45L-29.3,36.5"/>
<path id="IN_Lake" fill="#86b6f2" stroke="#FFFFFF" stroke-width="1.3906" d="M-71.4,36.9l21.5,8.1l0.3,36.8l-4.1,2.3l-18,5.1
	l0-12.7L-71.4,36.9"/>
<path id="IN_Perry" fill="#e27f90" stroke="#FFFFFF" stroke-width="1.3906" d="M-8.6,369.1l8.2-0.4l8.3,5.7l0.3,10.7L6.2,390l-0.4,0
	l-1.6,0.1l-0.4,0.2l-0.3,0.4l-0.2,1l0,5.7l-5.9,10.7l-2.2,1.4l-1,0.2l-0.6-0.1l-12-15l1.6-20l-0.1-4.2l8.5,0.1L-8.6,369.1"/>
<path id="IN_Spencer" fill="#cc2f4a" stroke="#FFFFFF" stroke-width="1.3906" d="M-16.9,374.8l-1.6,20l-12.3,6.6l-5,3.9l-6.5,9.6
	l-10.2-8.2l0.1-4.6l0.2-0.4l14.4-17.9l4.1-8.7L-16.9,374.8"/>
<path id="IN_Warrick" fill="#cc2f4a" stroke="#FFFFFF" stroke-width="1.3906" d="M-56.1,371l18.2,1.2l4.1,2.8l-4.1,8.7l-14.4,17.9
	l-0.2,0.4l-0.1,4.6l-2.5-2.1l-11.2-4.1l0.1-9.1l-1.8,0l0.1-8.4l0.3-4.2l0.1-3.5l11.2-0.1L-56.1,371"/>
<path id="IN_Vanderburgh" fill="#e27f90" stroke="#FFFFFF" stroke-width="1.3906" d="M-83.9,378.5l16.5,0.3l-0.3,4.2l-0.1,8.4l1.8,0
	l-0.1,9.1l-18.7,3.9L-83.9,378.5"/>
<path id="IN_Posey" fill="#cc2f4a" stroke="#FFFFFF" stroke-width="1.3906" d="M-103.8,372.5l19.9,6l-1,25.8l-17-0.2l-7.6,9.9
	l-3-8.8l3.6,0.2l0.1,0l0.2-0.1l0.1-0.1l0.2-0.4l3.1-22l1.3-10L-103.8,372.5"/>
<path id="IN_Gibson" fill="#d40000" stroke="#FFFFFF" stroke-width="1.3906" d="M-87.7,354.7l20.7-11.4l0,6.5l1.4,2.8l3.9,5.7
	l1.1-0.3l4-0.3l0.6,0.3l0,17.2l-11.2,0.1l-0.1,3.5l-16.5-0.3l-19.9-6L-87.7,354.7"/>
<path id="IN_Pike" fill="#d40000" stroke="#FFFFFF" stroke-width="1.3906" d="M-50.6,342.1L-38,345l0.1,27.2l-18.2-1.2l0-12.9
	l-0.6-0.3l-4,0.3l-1.1,0.3l-3.9-5.7l-1.4-2.8l0-6.5l2.8-0.7l5-0.3l0.5,0.2l3.8,3.1l1-0.2l1.4-1l1.1-0.9L-50.6,342.1"/>
<path id="IN_DuBois" fill="#cc2f4a" stroke="#FFFFFF" stroke-width="1.3906" d="M-9,343.7l0.2,12.7l0.2,12.7l0.1,1.5l-8.5-0.1
	l0.1,4.2l-16.9,0.3l-4.1-2.8L-38,345l11,0.9L-9,343.7"/>
<path id="IN_Crawford" fill="#cc2f4a" stroke="#FFFFFF" stroke-width="1.3906" d="M19,353.4l4,0l-0.9,28.3L6.2,390l1.9-4.9
	l-0.3-10.7l-8.3-5.7l-8.2,0.4l-0.2-12.7l17.1-0.3l10.7,0.1L19,353.4"/>
<path id="IN_Harrison" fill="#d40000" stroke="#FFFFFF" stroke-width="1.3906" d="M39.5,353.6l0.2,8.4l1.4,2.8l0.2,0l2.8,2.5
	l1.4,1.4l4.2,7.1l0,0.7l-3.3,16.6l-3.7,0.9l-2.3,0.5l-10.7-1.5l-0.5-0.1l-3.1-1.6l-3.2-2.5l-0.3-0.3l-0.1-0.3l-0.4-0.7l-0.4-1.9
	l-0.1-0.2l0-0.4l0-0.7l0-0.2l0.5-2.7l0.9-28.3L39.5,353.6"/>
<path id="IN_Floyd" fill="#e27f90" stroke="#FFFFFF" stroke-width="1.3906" d="M42.3,353.5l0,0.7l2.1,0.7l11.8-0.3l3.6,5.2l-2.2,6
	l-8,10.8l0-0.7l-4.2-7.1l-1.4-1.4l-2.8-2.5l-0.2,0l-1.4-2.8l-0.2-8.4L42.3,353.5"/>
<path id="IN_Clark" fill="#e27f90" stroke="#FFFFFF" stroke-width="1.3906" d="M73.6,334.8l10.7,1.7l-0.3,6l-15,14.2l-11.3,9.1
	l2.2-6l-3.6-5.2l-11.8,0.3l-2.1-0.7l0-0.7l0-6.8l3.4-1.3l4.7-0.2l1.4-1.5l1.3-2.8l-0.1-1.3L73.6,334.8"/>
<path id="IN_Ohio" fill="#d40000" stroke="#FFFFFF" stroke-width="1.3906" d="M105.3,301.1l18.6-8.4l6.3,12.4l-25.1-2.2L105.3,301.1
	"/>
<path id="IN_Switzerland" fill="#d40000" stroke="#FFFFFF" stroke-width="1.3906" d="M105.1,302.9l25.1,2.2l0.6,4.3l-17.1,9.5
	l-12.9,7.2l-0.7-21.4L105.1,302.9"/>
<path id="IN_Jefferson" fill="#cc2f4a" stroke="#FFFFFF" stroke-width="1.3906" d="M82.3,305l17.9-0.5l0.7,21.4l-10-4.5l-6.6,15
	l-10.7-1.7l-0.2-7l-2.8-1.3l-2.1-1.4l-2.2-2.8l-1.5-2.2l-0.1-5.3l5.4-1l2.7-3.5l0.9-2.2l1.6-2.9L82.3,305"/>
<path id="IN_Scott" fill="#cc2f4a" stroke="#FFFFFF" stroke-width="1.3906" d="M64.8,314.8l0.1,5.3l1.5,2.2l2.2,2.8l2.1,1.4l2.8,1.3
	l0.2,7L53,339.6l-3.3-16.7l6.8-7.2L64.8,314.8"/>
<path id="IN_Washington" fill="#d40000" stroke="#FFFFFF" stroke-width="1.3906" d="M21,320.5l28.7,2.4l3.3,16.7l0.1,1.3l-1.3,2.8
	l-1.4,1.5l-4.7,0.2l-3.4,1.3l0,6.8l-2.8,0.1L23,353.4l-4,0l-0.3-25.6L21,320.5"/>
<path id="IN_Orange" fill="#d40000" stroke="#FFFFFF" stroke-width="1.3906" d="M18.7,327.8l0.3,25.6l0,2.8l-10.7-0.1l-17.1,0.3
	L-9,343.7l-0.2-15.5L18.7,327.8"/>
<path id="IN_Martin" fill="#d40000" stroke="#FFFFFF" stroke-width="1.3906" d="M-25.7,307.3l16.4-0.2l0.2,21.1l0.2,15.5l-18,2.2
	L-25.7,307.3"/>
<path id="IN_Daviess" fill="#d40000" stroke="#FFFFFF" stroke-width="1.3906" d="M-40.1,307.4l14.4-0.1l-1.3,38.6l-11-0.9l-12.6-2.9
	l-2-14.9l1.7-7.7l1.5-2.5l7-8.1L-40.1,307.4"/>
<path id="IN_Knox" fill="#d40000" stroke="#FFFFFF" stroke-width="1.3906" d="M-50.6,307.1l10.5,0.3l-2.3,1.5l-7,8.1l-1.5,2.5
	l-1.7,7.7l2,14.9l-1,1.3l-1.1,0.9l-1.4,1l-1,0.2l-3.8-3.1l-0.5-0.2l-5,0.3l-2.8,0.7l-20.7,11.4l6.7-14.8l1.8-3.8l6.5-6.9l0.6-0.4
	l0.9-1.3l1.6-6l0.2-2.3l-2.3-6.4l-0.1-0.3l-0.3-0.1l-0.2-4.8L-50.6,307.1"/>
<path id="IN_Sullivan" fill="#d40000" stroke="#FFFFFF" stroke-width="1.3906" d="M-50.6,273.2l0,8.4l0.1,25.5l-21.7,0.6l0.5-0.6
	l0.7-1.5l0.5-3l-4.4-9.9l-3.1-4.4l-1-5.3l1.9-9.8L-50.6,273.2"/>
<path id="IN_Greene" fill="#d40000" stroke="#FFFFFF" stroke-width="1.3906" d="M-36.9,281.9l27.4,0.1l0.2,16.7l0,8.5l-16.4,0.2
	l-14.4,0.1l-10.5-0.3l-0.1-25.5L-36.9,281.9"/>
<path id="IN_Lawrence" fill="#d40000" stroke="#FFFFFF" stroke-width="1.3906" d="M-9.3,298.7l27-0.1l3.4,21.9l-2.4,7.3l-27.8,0.5
	l-0.2-21.1L-9.3,298.7"/>
<path id="IN_Jackson" fill="#d40000" stroke="#FFFFFF" stroke-width="1.3906" d="M35.1,292.6l20.7-2.1l0.7,25.2l-6.8,7.2L21,320.5
	l-3.4-21.9l-0.1-5.6L35.1,292.6"/>
<path id="IN_Jennings" fill="#d40000" stroke="#FFFFFF" stroke-width="1.3906" d="M82.1,277.8l0.2,27.3l-6.9,0.2l-1.6,2.9l-0.9,2.2
	l-2.7,3.5l-5.4,1l-8.2,0.9l-0.7-25.2l8.2-6.2L82.1,277.8"/>
<path id="IN_Ripley" fill="#d40000" stroke="#FFFFFF" stroke-width="1.3906" d="M109.4,266.3l-4.1,34.8l-0.2,1.8l-5,1.6L82.3,305
	l-0.2-27.3l10.4-7.3L109.4,266.3"/>
<path id="IN_Dearborn" fill="#d40000" stroke="#FFFFFF" stroke-width="1.3906" d="M109.4,266.3l18.1-0.3l0.5,19.3l-4.1,7.4
	l-18.6,8.4L109.4,266.3"/>
<path id="IN_Franklin" fill="#d40000" stroke="#FFFFFF" stroke-width="1.3906" d="M127.2,245.1l0.3,20.9l-18.1,0.3l-16.9,4.2
	L92,252.6l-0.2-6.9l19.2-0.6L127.2,245.1"/>
<path id="IN_Decatur" fill="#d40000" stroke="#FFFFFF" stroke-width="1.3906" d="M67.6,253.2l24.4-0.6l0.5,17.8l-10.4,7.3L64,284.4
	l-0.2-21.2L67.6,253.2"/>
<path id="IN_Bartholomew" fill="#cc2f4a" stroke="#FFFFFF" stroke-width="1.3906" d="M63.8,263.2l0.2,21.2l-8.2,6.2l-20.7,2.1
	l-0.8-28.4l9.8-0.4L63.8,263.2"/>
<path id="IN_Brown" fill="#cc2f4a" stroke="#FFFFFF" stroke-width="1.3906" d="M22.1,264.7l12.2-0.4l0.8,28.4L17.5,293l-5-28
	L22.1,264.7"/>
<path id="IN_Owen" fill="#d40000" stroke="#FFFFFF" stroke-width="1.3906" d="M-28.6,252.4l18.6,0.2l4.3,11.8L-9.5,282l-27.4-0.1
	l0-16.9l8.2,0L-28.6,252.4"/>
<path id="IN_Clay" fill="#d40000" stroke="#FFFFFF" stroke-width="1.3906" d="M-47.7,239.6l13.7,0.1l5.4,12.7l-0.1,12.7l-8.2,0
	l0,16.9l-13.7-0.3l0-8.4l0.1-25.3l2.8,0.1L-47.7,239.6"/>
<path id="IN_Vigo" fill="#e27f90" stroke="#FFFFFF" stroke-width="1.3906" d="M-47.7,239.6l-0.1,8.4l-2.8-0.1l-0.1,25.3l-26.8,0
	l5.3-21l0-12.6l11-0.1L-47.7,239.6"/>
<path id="IN_Vermillion" fill="#cc2f4a" stroke="#FFFFFF" stroke-width="1.3906" d="M-62.9,189.4l-1,16.9l2.9,4.7l0.8,1.3l1.1,2.8
	l-2.2,17l0.1,7.5l-11,0.1l-0.1-26.6l0.2-25.6L-62.9,189.4"/>
<path id="IN_Parke" fill="#d40000" stroke="#FFFFFF" stroke-width="1.3906" d="M-39.9,206.2l6,8.3l-0.1,25.3l-13.7-0.1l-13.4-0.1
	l-0.1-7.5l2.2-17l-1.1-2.8l-0.8-1.3l-2.9-4.7L-39.9,206.2"/>
<path id="IN_Putnam" fill="#d40000" stroke="#FFFFFF" stroke-width="1.3906" d="M-33.9,214.5l23,0l0.6,0l0.1,13.2l1.3,9.4l1,2.8
	l-2.1,12.6l-18.6-0.2l-5.4-12.7L-33.9,214.5"/>
<path id="IN_Morgan" fill="#d40000" stroke="#FFFFFF" stroke-width="1.3906" d="M21.8,236.5l0.2,28.2l-9.5,0.3l-18.3-0.6l-4.3-11.8
	l2.1-12.6l14-0.1L6,237l9.5-0.3l0.7,0L21.8,236.5"/>
<path id="IN_Johnson" fill="#cc2f4a" stroke="#FFFFFF" stroke-width="1.3906" d="M43.7,235.7l0.5,28.1l-9.8,0.4l-12.2,0.4l-0.2-28.2
	L43.7,235.7"/>
<path id="IN_Shelby" fill="#d40000" stroke="#FFFFFF" stroke-width="1.3906" d="M43.6,230l23.3-0.5l0.7,23.7l-3.9,10l-19.6,0.6
	l-0.5-28.1L43.6,230"/>
<path id="IN_Rush" fill="#d40000" stroke="#FFFFFF" stroke-width="1.3906" d="M69.4,220.9l21.6-0.5l1,32.3l-24.4,0.6l-0.7-23.7
	L69.4,220.9"/>
<path id="IN_Fayette" fill="#d40000" stroke="#FFFFFF" stroke-width="1.3906" d="M91,220.4l5.9-0.2l2.8,0l0.1,7l11-0.2l0.3,18.2
	l-19.2,0.6L91,220.4"/>
<path id="IN_Union" fill="#d40000" stroke="#FFFFFF" stroke-width="1.3906" d="M110.7,227l16.1-1.6l0.4,15.4l0.1,4.4l-16.2,0
	L110.7,227"/>
<path id="IN_Wayne" fill="#cc2f4a" stroke="#FFFFFF" stroke-width="1.3906" d="M126.3,198.5l0.1,8.5l0.4,18.4l-16.1,1.6l-11,0.2
	l-0.1-7l-2.8,0l0.9-20.9L126.3,198.5"/>
<path id="IN_Henry" fill="#cc2f4a" stroke="#FFFFFF" stroke-width="1.3906" d="M70.3,192.9l26.4-0.6l1.1,7l-0.9,20.9l-5.9,0.2
	l-21.6,0.5l1.2-15.4L70.3,192.9"/>
<path id="IN_Hancock" fill="#cc2f4a" stroke="#FFFFFF" stroke-width="1.3906" d="M70.6,205.5l-1.2,15.4l-2.5,8.6L43.6,230l0.7-22.2
	l5.5-1.7L70.6,205.5"/>
<path id="IN_Hendricks" fill="#cc2f4a" stroke="#FFFFFF" stroke-width="1.3906" d="M15.9,208.5l0.3,28.2l-0.7,0L6,237l0.1,2.8
	l-14,0.1l-1-2.8l-1.3-9.4l-0.1-13.2l-0.6,0l0-5.6L15.9,208.5"/>
<path id="IN_Randolph" fill="#d40000" stroke="#FFFFFF" stroke-width="1.3906" d="M95.8,170.1l30.1-1.1l0.3,29.4l-28.5,0.8l-1.1-7
	L95.8,170.1"/>
<path id="IN_Delaware" fill="#e27f90" stroke="#FFFFFF" stroke-width="1.3906" d="M95.6,163.2l0.2,7l0.9,22.2l-26.4,0.6l-0.7-29.2
	l9.7-0.2L95.6,163.2"/>
<path id="IN_Madison" fill="#cc2f4a" stroke="#FFFFFF" stroke-width="1.3906" d="M69.6,163.7l0.7,29.2l0.2,12.7l-20.9,0.6l-0.4-26.6
	L49,164.2L69.6,163.7"/>
<path id="IN_Tipton" fill="#d40000" stroke="#FFFFFF" stroke-width="1.3906" d="M49,164.2l0.3,15.4l-27.7,0.7L21.4,165l27.6-3.6
	L49,164.2"/>
<path id="IN_Clinton" fill="#d40000" stroke="#FFFFFF" stroke-width="1.3906" d="M-11.4,159.7l23.1-0.2l4.8,0l0.1,4.2l2.1,1.4
	l2.7-0.1l0.2,15.2l0.1,3.4l-33,0.6l0-3.5L-11.4,159.7"/>
<path id="IN_Montgomery" fill="#d40000" stroke="#FFFFFF" stroke-width="1.3906" d="M-11.3,180.8l0,3.5l0.3,24.7l0,5.6l-23,0l-6-8.3
	l-0.2-25.3L-11.3,180.8"/>
<path id="IN_Fountain" fill="#d40000" stroke="#FFFFFF" stroke-width="1.3906" d="M-40.1,180.9l0.2,25.3l-24,0.1l1-16.9l-2-2.6
	l-0.3-0.9l0.1-0.5l1.1-1.8l12.6-11l1.9-1.3l9.4-4.9L-40.1,180.9"/>
<path id="IN_Jay" fill="#d40000" stroke="#FFFFFF" stroke-width="1.3906" d="M125.3,143.8l0.5,21.2l0.1,4.1l-30.1,1.1l-0.2-7
	l0.9-18.2l9.6-0.3L125.3,143.8"/>
<path id="IN_Blackford" fill="#cc2f4a" stroke="#FFFFFF" stroke-width="1.3906" d="M78.7,145.5l17.8-0.5l-0.9,18.2l-16.3,0.4
	L78.7,145.5"/>
<path id="IN_Grant" fill="#cc2f4a" stroke="#FFFFFF" stroke-width="1.3906" d="M64.8,137.4l13.7-0.3l0.3,8.4l0.6,18.1l-9.7,0.2
	L49,164.2l0-2.7l-0.4-15.3l-0.2-8.3L64.8,137.4"/>
<path id="IN_Howard" fill="#cc2f4a" stroke="#FFFFFF" stroke-width="1.3906" d="M26.8,146.7l21.8-0.6l0.4,15.3L21.4,165l-2.7,0.1
	l-2.1-1.4l-0.1-4.2l-4.8,0l0-12.5L26.8,146.7"/>
<path id="IN_Warren" fill="#d40000" stroke="#FFFFFF" stroke-width="1.3906" d="M-71.6,155.6l31.3,0.1l0.2,10.5l-9.4,4.9l-1.9,1.3
	l-12.6,11l-1.1,1.8l-0.1,0.5l0.3,0.9l2,2.6l-9.1-2L-71.6,155.6"/>
<path id="IN_Benton" fill="#d40000" stroke="#FFFFFF" stroke-width="1.3906" d="M-52.9,130.6l12.2,0l0.5,25.2l-31.3-0.1l0-1.4
	l0-23.7L-52.9,130.6"/>
<path id="IN_Adams" fill="#d40000" stroke="#FFFFFF" stroke-width="1.3906" d="M124.4,110l0.6,18.7l0.4,15l-19.2,0.9l-1.2-33.7
	L124.4,110"/>
<path id="IN_Wells" fill="#d40000" stroke="#FFFFFF" stroke-width="1.3906" d="M86,111.5l18.8-0.5l1.2,33.7l-9.6,0.3l-17.8,0.5
	l-0.3-8.4l8.3-0.2L86,111.5"/>
<path id="IN_Huntington" fill="#d40000" stroke="#FFFFFF" stroke-width="1.3906" d="M63.7,103.7l22.2-0.8l0.1,8.5l0.7,25.3l-8.3,0.2
	l-13.7,0.3L63.7,103.7"/>
<path id="IN_Wabash" fill="#d40000" stroke="#FFFFFF" stroke-width="1.3906" d="M60.7,99.5l3,4.2l1,33.7l-16.3,0.4L43,138l-1-33.6
	l0-4.2L60.7,99.5"/>
<path id="IN_Miami" fill="#d40000" stroke="#FFFFFF" stroke-width="1.3906" d="M42,104.4l1,33.6l5.4-0.2l0.2,8.3l-21.8,0.6
	l-0.8-33.4L42,104.4"/>
<path id="IN_Cass" fill="#cc2f4a" stroke="#FFFFFF" stroke-width="1.3906" d="M4.6,113.5l21.5-0.2l0.8,33.4l-15.1,0.4l-0.1-12.7
	l-11-4l-4.1,0l-0.2-16.9L4.6,113.5"/>
<path id="IN_White" fill="#cc2f4a" stroke="#FFFFFF" stroke-width="1.3906" d="M-3.6,113.5l0.2,16.9l-12-0.1l-0.3,0.4l-0.3,0.6
	l-1.1,7.9l0.2,8l-23.4,0.1l-0.3-16.8l12-17L-3.6,113.5"/>
<path id="IN_Allen" fill="#e27f90" stroke="#FFFFFF" stroke-width="1.3906" d="M123.4,78.2l0.7,25.4l0.2,6.4l-19.5,1L86,111.5
	l-0.1-8.5l1.4-25l8.3-0.2l27.8-1.4L123.4,78.2"/>
<path id="IN_Whitley" fill="#d40000" stroke="#FFFFFF" stroke-width="1.3906" d="M62.6,75.5l8.3-0.2l0,2.8L87.3,78l-1.4,25
	l-22.2,0.8l-3-4.2l-0.4-12.7l2.4-0.1l0-7.3L62.6,75.5"/>
<path id="IN_Fulton" fill="#d40000" stroke="#FFFFFF" stroke-width="1.3906" d="M4.4,88.3l27.9-0.5l9.6,12.4l0,4.2l-15.9,8.9
	l-21.5,0.2L4.4,88.3"/>
<path id="IN_Pulaski" fill="#d40000" stroke="#FFFFFF" stroke-width="1.3906" d="M4.4,88.3l0.2,25.3l-8.2,0l-25.1,0l-0.1-25.1
	L4.4,88.3"/>
<path id="IN_De_Kalb" fill="#d40000" stroke="#FFFFFF" stroke-width="1.3906" d="M94.8,52.5l27.8-1.1l0.3,10l0.5,14.9l-27.8,1.4
	L94.8,52.5"/>
<path id="IN_Noble" fill="#d40000" stroke="#FFFFFF" stroke-width="1.3906" d="M94.8,52.5l0.7,25.3L87.3,78l-16.4,0.2l0-2.8
	l-8.3,0.2l-0.4-13.7L62,53.5L94.8,52.5"/>
<path id="IN_Kosciusko" fill="#d40000" stroke="#FFFFFF" stroke-width="1.3906" d="M33.3,62.4l29-0.6l0.4,13.7l0.2,3.9l0,7.3
	l-2.4,0.1l0.4,12.7L42,100.2l-9.6-12.4L33.3,62.4"/>
<path id="IN_Marshall" fill="#cc2f4a" stroke="#FFFFFF" stroke-width="1.3906" d="M33.3,62.4l-1,25.4L4.4,88.3L4.1,63l-0.1-4.2
	l12.9-0.4l16.2-0.3L33.3,62.4"/>
<path id="IN_Starke" fill="#cc2f4a" stroke="#FFFFFF" stroke-width="1.3906" d="M4.1,63l0.2,25.2l-33.2,0.2l0-6.2l8.2-3.6l2.2-1.2
	l1.9-2.4l1.5-2.2l0.6-1.2l2-5.5l4.1-3L0,63.1L4.1,63"/>
<path id="IN_Jasper" fill="#d40000" stroke="#FFFFFF" stroke-width="1.3906" d="M-28.8,82.2l0,6.2l0.1,25.1l-12,17l-12.2,0
	l-0.1-16.9l-0.4-0.2l-0.2-0.4l0-29l4.1-2.3l1.9-2.2l4.2-2l0.8-0.1l1.4,0.5l3.7,1.7l5.2,4l0.6,0.2l2.1-1L-28.8,82.2"/>
<path id="IN_Newton" fill="#d40000" stroke="#FFFFFF" stroke-width="1.3906" d="M-71.6,89.2l18-5.1l0,29l0.2,0.4l0.4,0.2l0.1,16.9
	l-18.7,0l0-26.4L-71.6,89.2"/>
<path id="IN_Steuben" fill="#cc2f4a" stroke="#FFFFFF" stroke-width="1.3906" d="M120.5,29.3l1.5,6.1l0.5,16l-27.8,1.1L94.1,30
	L120.5,29.3"/>
<path id="IN_LaGrange" fill="#d40000" stroke="#FFFFFF" stroke-width="1.3906" d="M87.3,30.1l6.8-0.1l0.7,22.4l-32.9,1l-0.8-22.7
	L87.3,30.1"/>
<path id="IN_Elkhart" fill="#cc2f4a" stroke="#FFFFFF" stroke-width="1.3906" d="M61.2,30.8L62,53.5l0.3,8.3l-29,0.6l-0.7-31.2
	l19.3-0.2L61.2,30.8"/>
<path id="IN_St._Joseph" fill="#b9d7ff" stroke="#FFFFFF" stroke-width="1.3906" d="M32.5,31.2l0.6,27.1l-16.2,0.3L4.1,58.9L4.1,63
	L0,63.1l-0.3-31.5l21.2-0.3L32.5,31.2"/>
<path id="IN_La_Porte" fill="#e27f90" stroke="#FFFFFF" stroke-width="1.3906" d="M-21.7,31.7l21.4-0.1L0,63.1l-8.4,0.1l-4.1,3
	l-2,5.5l-0.6,1.2l-1.5,2.2l-1.9,2.4l-2.2,1.2l-8.2,3.6l-0.5-45.7L-21.7,31.7"/>
<path id="State_Lines" fill="none" stroke="#FFFFFF" stroke-width="2.5594" stroke-linecap="round" d="M-109.5,414l7.6-9.9l17,0.2
	l18.7-3.9l11.2,4.1l2.5,2.1l10.2,8.2l6.5-9.6l5-3.9l12.3-6.6l12,15l0.6,0.1l1-0.2l2.2-1.4l5.9-10.7l0-5.7l0.2-1l0.3-0.4l0.4-0.2
	l1.6-0.1l0.4,0l15.9-8.3l-0.5,2.7l0,0.2l0,0.7l0,0.4l0.1,0.2l0.4,1.9l0.4,0.7l0.1,0.3l0.3,0.3l3.2,2.5l3.1,1.6l0.5,0.1l10.7,1.5
	l2.3-0.5l3.7-0.9l3.3-16.6l8-10.8l11.3-9.1l15-14.2l0.3-6l6.6-15l10,4.5l12.9-7.2l17.1-9.5l-0.6-4.3l-6.3-12.4l4.1-7.4 M122.1,35.4
	l0.5,16l0.3,10l0.5,14.9l0,1.8l0.7,25.4l0.2,6.4l0.6,18.7l0.4,15l0.5,21.2l0.1,4.1l0.3,29.4l0.1,8.5l0.4,18.4l0.4,15.4l0.1,4.4
	l0.3,20.9l0.5,19.3 M-21.7,31.7l21.4-0.1l21.2-0.3l11.6-0.2l19.3-0.2l9.4-0.2l26.1-0.6l6.8-0.1l26.4-0.7l1.5,6.1 M-109.5,414l-3-8.8
	l3.6,0.2l0.1,0l0.2-0.1l0.1-0.1l0.2-0.4l3.1-22l1.3-10l0.1-0.5l16.1-17.8l6.7-14.8l1.8-3.8l6.5-6.9l0.6-0.4l0.9-1.3l1.6-6l0.2-2.3
	l-2.3-6.4l-0.1-0.3l-0.3-0.1l-0.2-4.8l0.5-0.6l0.7-1.5l0.5-3l-4.4-9.9l-3.1-4.4l-1-5.3l1.9-9.8l5.3-21l0-12.6l-0.1-26.6l0.2-25.6
	l0.4-31.8l0-1.4l0-23.7l0-26.4l0-15l0-12.7l0.1-16.6l0.1-23c23.9,15.7,34.9,0.5,48.1-4.3"/>
<path id="IN_Tippecanoe" fill="#f2b3be" stroke="#FFFFFF" stroke-width="1.3906" d="M-40.4,147.3l23.4-0.1l5.3,0l0.3,12.5l0.1,21
	l-28.8,0.1l0-14.6l-0.2-10.5L-40.4,147.3"/>
<path id="IN_Carroll" fill="#d40000" stroke="#FFFFFF" stroke-width="1.3906" d="M11.7,147.1l0,12.5l-23.1,0.2l-0.4-12.5l-5.3,0
	l-0.2-8l1.1-7.9l0.3-0.6l0.3-0.4l12,0.1l4.1,0l11,4L11.7,147.1"/>
<path id="IN_Boone" fill="#cc2f4a" stroke="#FFFFFF" stroke-width="1.3906" d="M21.7,183.7l0.4,24.6l-6.2,0.2l-26.9,0.4l-0.3-24.7
	L21.7,183.7"/>
<path id="IN_Hamilton" fill="#e27f90" stroke="#FFFFFF" stroke-width="2.0859" d="M21.7,180.3l27.7-0.7l0.4,26.6l-5.5,1.7l-22.1,0.5
	l-0.4-24.6L21.7,180.3"/>
<path id="IN_Marion" fill="#86b6f2" stroke="#FFFFFF" stroke-width="1.3906" d="M44.3,207.8L43.6,230l0.1,5.7l-21.8,0.7l-5.6,0.2
	l-0.3-28.2l6.2-0.2L44.3,207.8"/>
<path id="IN_Monroe" fill="#86b6f2" stroke="#FFFFFF" stroke-width="1.3906" d="M-5.8,264.4l18.3,0.6l5,28l0.1,5.6l-27,0.1L-9.5,282
	L-5.8,264.4"/>
<path id="path3093" fill="none" stroke="#FFFFFF" stroke-width="2.5594" stroke-linecap="round" d="M-109.5,414l7.6-9.9l17,0.2
	l18.7-3.9l11.2,4.1l2.5,2.1l10.2,8.2l6.5-9.6l5-3.9l12.3-6.6l12,15l0.6,0.1l1-0.2l2.2-1.4l5.9-10.7l0-5.7l0.2-1l0.3-0.4l0.4-0.2
	l1.6-0.1l0.4,0l15.9-8.3l-0.5,2.7l0,0.2l0,0.7l0,0.4l0.1,0.2l0.4,1.9l0.4,0.7l0.1,0.3l0.3,0.3l3.2,2.5l3.1,1.6l0.5,0.1l10.7,1.5
	l2.3-0.5l3.7-0.9l3.3-16.6l8-10.8l11.3-9.1l15-14.2l0.3-6l6.6-15l10,4.5l12.9-7.2l17.1-9.5l-0.6-4.3l-6.3-12.4l4.1-7.4 M122.1,35.4
	l0.5,16l0.3,10l0.5,14.9l0,1.8l0.7,25.4l0.2,6.4l0.6,18.7l0.4,15l0.5,21.2l0.1,4.1l0.3,29.4l0.1,8.5l0.4,18.4l0.4,15.4l0.1,4.4
	l0.3,20.9l0.5,19.3 M-21.7,31.7l21.4-0.1l21.2-0.3l11.6-0.2l19.3-0.2l9.4-0.2l26.1-0.6l6.8-0.1l26.4-0.7l1.5,6.1 M-109.5,414l-3-8.8
	l3.6,0.2l0.1,0l0.2-0.1l0.1-0.1l0.2-0.4l3.1-22l1.3-10l0.1-0.5l16.1-17.8l6.7-14.8l1.8-3.8l6.5-6.9l0.6-0.4l0.9-1.3l1.6-6l0.2-2.3
	l-2.3-6.4l-0.1-0.3l-0.3-0.1l-0.2-4.8l0.5-0.6l0.7-1.5l0.5-3l-4.4-9.9l-3.1-4.4l-1-5.3l1.9-9.8l5.3-21l0-12.6l-0.1-26.6l0.2-25.6
	l0.4-31.8l0-1.4l0-23.7l0-26.4l0-15l0-12.7l0.1-16.6l0.1-23c23.9,15.7,34.9,0.5,48.1-4.3"/>
</svg>