<?xml version="1.0" encoding="UTF-8" standalone="no"?>
<!-- Created with Inkscape (http://www.inkscape.org/) -->

<svg
   xmlns:dc="http://purl.org/dc/elements/1.1/"
   xmlns:cc="http://creativecommons.org/ns#"
   xmlns:rdf="http://www.w3.org/1999/02/22-rdf-syntax-ns#"
   xmlns:svg="http://www.w3.org/2000/svg"
   xmlns="http://www.w3.org/2000/svg"
   xmlns:sodipodi="http://sodipodi.sourceforge.net/DTD/sodipodi-0.dtd"
   xmlns:inkscape="http://www.inkscape.org/namespaces/inkscape"
   width="294.63425"
   height="154.98427"
   id="svg5598"
   sodipodi:version="0.32"
   inkscape:version="0.91 r13725"
   version="1.0"
   sodipodi:docname="Kansas_Presidential_Election_Results_2016.svg"
   inkscape:output_extension="org.inkscape.output.svg.inkscape">
  <defs
     id="defs5600">
    <linearGradient
       id="linearGradient13418">
      <stop
         id="stop13420"
         offset="0"
         style="stop-color:#008000;stop-opacity:1;" />
      <stop
         id="stop13422"
         offset="1"
         style="stop-color:#000080;stop-opacity:1;" />
    </linearGradient>
    <inkscape:perspective
       sodipodi:type="inkscape:persp3d"
       inkscape:vp_x="0 : 526.18109 : 1"
       inkscape:vp_y="0 : 1000 : 0"
       inkscape:vp_z="744.09448 : 526.18109 : 1"
       inkscape:persp3d-origin="372.04724 : 350.78739 : 1"
       id="perspective5606" />
  </defs>
  <sodipodi:namedview
     id="base"
     pagecolor="#ffffff"
     bordercolor="#666666"
     borderopacity="1.0"
     gridtolerance="10000"
     guidetolerance="10"
     objecttolerance="10"
     inkscape:pageopacity="0.0"
     inkscape:pageshadow="2"
     inkscape:zoom="2.0126457"
     inkscape:cx="74.83529"
     inkscape:cy="82.21193"
     inkscape:document-units="px"
     inkscape:current-layer="layer1"
     showgrid="false"
     inkscape:window-width="1920"
     inkscape:window-height="1017"
     inkscape:window-x="-8"
     inkscape:window-y="-8"
     inkscape:window-maximized="1" />
  <metadata
     id="metadata5603">
    <rdf:RDF>
      <cc:Work
         rdf:about="">
        <dc:format>image/svg+xml</dc:format>
        <dc:type
           rdf:resource="http://purl.org/dc/dcmitype/StillImage" />
      </cc:Work>
    </rdf:RDF>
  </metadata>
  <g
     inkscape:label="Layer 1"
     inkscape:groupmode="layer"
     id="layer1"
     transform="translate(-181.44118,-342.08543)">
    <path
       style="font-size:12px;fill:#d40000;fill-opacity:1;fill-rule:nonzero;stroke:#ffffff;stroke-width:0.92968982"
       d="M 434.39007,349.2031 L 435.50829,349.17638 L 435.53666,349.61103 L 435.77102,349.93281 L 440.14223,353.70298 L 441.90193,354.77621 L 442.78338,355.07893 L 443.46913,355.32156 L 443.59967,355.36522 L 443.76114,355.34696 L 445.10638,355.18531 L 445.36654,355.08196 L 445.57043,354.88281 L 445.59843,354.84977 L 446.78083,353.44362 L 449.83626,357.10135 L 450.16039,358.47148 L 450.46784,359.74487 L 449.76316,361.4202 L 449.01838,361.56752 L 446.51247,363.89389 L 446.37259,364.06272 L 445.19623,365.87165 L 444.78989,366.48216 L 434.89268,365.41991 L 434.39007,349.2031"
       id="KS_Doniphan"
       inkscape:label="Doniphan, KS" />
    <path
       style="font-size:12px;fill:#d40000;fill-opacity:1;fill-rule:nonzero;stroke:#ffffff;stroke-width:0.92968982"
       d="M 418.57469,349.64216 L 434.39007,349.2031 L 434.89268,365.41991 L 426.93684,365.65677 L 418.96275,365.88328 L 418.57469,349.64216"
       id="KS_Brown"
       inkscape:label="Brown, KS" />
    <path
       style="font-size:12px;fill:#d40000;fill-opacity:1;fill-rule:nonzero;stroke:#ffffff;stroke-width:0.92968982"
       d="M 193.65179,453.81392 L 212.38567,454.61467 L 211.88161,470.8591 L 210.74387,470.82153 L 193.00538,470.12293 L 193.4978,458.21026 L 193.65179,453.81392"
       id="KS_Stanton"
       inkscape:label="Stanton, KS" />
    <path
       style="font-size:12px;fill:#aa0000;fill-opacity:1;fill-rule:nonzero;stroke:#ffffff;stroke-width:0.92968982"
       d="M 193.00538,470.12293 L 210.74387,470.82153 L 210.16106,489.19045 L 192.78246,488.64873 L 192.26392,488.62874 L 193.00538,470.12293"
       id="KS_Morton"
       inkscape:label="Morton, KS" />
    <path
       style="font-size:12px;fill:#aa0000;fill-opacity:1;fill-rule:nonzero;stroke:#ffffff;stroke-width:0.92968982"
       d="M 210.74387,470.82153 L 211.88161,470.8591 L 227.81754,471.39933 L 228.60975,471.43077 L 228.12419,489.65345 L 210.16106,489.19045 L 210.74387,470.82153"
       id="KS_Stevens"
       inkscape:label="Stevens, KS" />
    <path
       style="font-size:12px;fill:#d40000;fill-opacity:1;fill-rule:nonzero;stroke:#ffffff;stroke-width:0.92968982"
       d="M 212.38567,454.61467 L 228.3025,455.10858 L 227.81754,471.39933 L 211.88161,470.8591 L 212.38567,454.61467"
       id="KS_Grant"
       inkscape:label="Grant, KS" />
    <path
       style="font-size:12px;fill:#d40000;fill-opacity:1;fill-rule:nonzero;stroke:#ffffff;stroke-width:0.92968982"
       d="M 244.23619,455.5553 L 243.89494,467.77374 L 243.79839,471.86292 L 228.60975,471.43077 L 227.81754,471.39933 L 228.3025,455.10858 L 244.23619,455.5553"
       id="KS_Haskell"
       inkscape:label="Haskell, KS" />
    <path
       style="font-size:12px;fill:#cc2f4a;fill-opacity:1;fill-rule:nonzero;stroke:#ffffff;stroke-width:0.92968982"
       d="M 243.79839,471.86292 L 244.05512,489.98514 L 232.58448,489.77355 L 228.12419,489.65345 L 228.60975,471.43077 L 243.79839,471.86292"
       id="KS_Seward"
       inkscape:label="Seward, KS" />
    <path
       style="font-size:12px;fill:#aa0000;fill-opacity:1;fill-rule:nonzero;stroke:#ffffff;stroke-width:0.92968982"
       d="M 259.85834,468.10823 L 263.83649,468.22544 L 264.05529,490.33109 L 244.05512,489.98514 L 243.79839,471.86292 L 243.89494,467.77374 L 259.85834,468.10823"
       id="KS_Meade"
       inkscape:label="Meade, KS" />
    <path
       style="font-size:12px;fill:#aa0000;fill-opacity:1;fill-rule:nonzero;stroke:#ffffff;stroke-width:0.92968982"
       d="M 259.87194,447.59795 L 259.85834,468.10823 L 243.89494,467.77374 L 244.23619,455.5553 L 243.87319,451.20366 L 244.1003,443.09284 L 259.98725,443.54068 L 259.87194,447.59795"
       id="KS_Gray"
       inkscape:label="Gray, KS" />
    <path
       style="font-size:12px;fill:#cc2f4a;fill-opacity:1;fill-rule:nonzero;stroke:#ffffff;stroke-width:0.92968982"
       d="M 259.87194,447.59795 L 283.75309,448.05984 L 284.01695,456.39279 L 283.97341,468.87393 L 263.83649,468.22544 L 259.85834,468.10823 L 259.87194,447.59795"
       id="KS_Ford"
       inkscape:label="Ford, KS" />
    <path
       style="font-size:12px;fill:#aa0000;fill-opacity:1;fill-rule:nonzero;stroke:#ffffff;stroke-width:0.92968982"
       d="M 283.97341,468.87393 L 284.37628,472.93681 L 284.21966,490.77388 L 267.24807,490.40232 L 264.05529,490.33109 L 263.83649,468.22544 L 283.97341,468.87393"
       id="KS_Clark"
       inkscape:label="Clark, KS" />
    <path
       style="font-size:12px;fill:#aa0000;fill-opacity:1;fill-rule:nonzero;stroke:#ffffff;stroke-width:0.92968982"
       d="M 303.837,472.98988 L 304.09065,490.98264 L 287.35055,490.8142 L 284.21966,490.77388 L 284.37628,472.93681 L 303.837,472.98988"
       id="KS_Comanche"
       inkscape:label="Comanche, KS" />
    <path
       style="font-size:12px;fill:#aa0000;fill-opacity:1;fill-rule:nonzero;stroke:#ffffff;stroke-width:0.92968982"
       d="M 284.01695,456.39279 L 303.88657,456.69512 L 303.83804,468.96772 L 303.837,472.98988 L 284.37628,472.93681 L 283.97341,468.87393 L 284.01695,456.39279"
       id="KS_Kiowa"
       inkscape:label="Kiowa, KS" />
    <path
       style="font-size:12px;fill:#d40000;fill-opacity:1;fill-rule:nonzero;stroke:#ffffff;stroke-width:0.92968982"
       d="M 283.87842,439.90466 L 291.80963,439.99218 L 291.77736,444.06183 L 303.68109,444.18034 L 303.92738,452.38061 L 303.88657,456.69512 L 284.01695,456.39279 L 283.75309,448.05984 L 283.87842,439.90466"
       id="KS_Edwards"
       inkscape:label="Edwards, KS" />
    <path
       style="font-size:12px;fill:#d40000;fill-opacity:1;fill-rule:nonzero;stroke:#ffffff;stroke-width:0.92968982"
       d="M 323.61652,452.50737 L 323.88099,456.80017 L 323.84931,469.02561 L 303.83804,468.96772 L 303.88657,456.69512 L 303.92738,452.38061 L 323.61652,452.50737"
       id="KS_Pratt"
       inkscape:label="Pratt, KS" />
    <path
       style="font-size:12px;fill:#aa0000;fill-opacity:1;fill-rule:nonzero;stroke:#ffffff;stroke-width:0.92968982"
       d="M 303.83804,468.96772 L 323.84931,469.02561 L 328.04817,473.1093 L 328.13761,491.15637 L 320.8583,491.10004 L 304.09065,490.98264 L 303.837,472.98988 L 303.83804,468.96772"
       id="KS_Barber"
       inkscape:label="Barber, KS" />
    <path
       style="font-size:12px;fill:#d40000;fill-opacity:1;fill-rule:nonzero;stroke:#ffffff;stroke-width:0.92968982"
       d="M 328.04817,473.1093 L 347.90703,472.96218 L 348.17806,491.08046 L 336.77867,491.14056 L 328.13761,491.15637 L 328.04817,473.1093"
       id="KS_Harper"
       inkscape:label="Harper, KS" />
    <path
       style="font-size:12px;fill:#d40000;fill-opacity:1;fill-rule:nonzero;stroke:#ffffff;stroke-width:0.92968982"
       d="M 323.88099,456.80017 L 347.79574,456.71085 L 347.87363,468.8545 L 347.90703,472.96218 L 328.04817,473.1093 L 323.84931,469.02561 L 323.88099,456.80017"
       id="KS_Kingman"
       inkscape:label="Kingman, KS" />
    <path
       style="font-size:12px;fill:#cc2f4a;fill-opacity:1;fill-rule:nonzero;stroke:#ffffff;stroke-width:0.92968982"
       d="M 343.55999,436.1762 L 351.53477,436.12954 L 351.59949,448.32389 L 347.79574,456.71085 L 323.88099,456.80017 L 323.61652,452.50737 L 323.63048,436.22787 L 343.55999,436.1762"
       id="KS_Reno"
       inkscape:label="Reno, KS" />
    <path
       style="font-size:12px;fill:#e27f90;fill-opacity:1;fill-rule:nonzero;stroke:#ffffff;stroke-width:0.92968982"
       d="M 363.48392,436.04188 L 371.43893,439.98548 L 371.5729,448.15243 L 351.59949,448.32389 L 351.53477,436.12954 L 363.48392,436.04188"
       id="KS_Harvey"
       inkscape:label="Harvey, KS" />
    <path
       style="font-size:12px;fill:#e27f90;fill-opacity:1;fill-rule:nonzero;stroke:#ffffff;stroke-width:0.92968982"
       d="M 351.59949,448.32389 L 371.5729,448.15243 L 371.78435,468.5962 L 347.87363,468.8545 L 347.79574,456.71085 L 351.59949,448.32389"
       id="KS_Sedgwick"
       inkscape:label="Sedgwick, KS" />
    <path
       style="font-size:12px;fill:#d40000;fill-opacity:1;fill-rule:nonzero;stroke:#ffffff;stroke-width:0.92968982"
       d="M 347.87363,468.8545 L 371.78435,468.5962 L 372.25169,490.86501 L 360.67776,490.99764 L 348.17806,491.08046 L 347.90703,472.96218 L 347.87363,468.8545"
       id="KS_Sumner"
       inkscape:label="Sumner, KS" />
    <path
       style="font-size:12px;fill:#cc2f4a;fill-opacity:1;fill-rule:nonzero;stroke:#ffffff;stroke-width:0.92968982"
       d="M 371.78435,468.5962 L 394.70269,468.21048 L 394.89668,476.32923 L 395.12039,490.50926 L 386.87105,490.65961 L 372.25169,490.86501 L 371.78435,468.5962"
       id="KS_Cowley"
       inkscape:label="Cowley, KS" />
    <path
       style="font-size:12px;fill:#cc2f4a;fill-opacity:1;fill-rule:nonzero;stroke:#ffffff;stroke-width:0.92968982"
       d="M 382.75911,439.92365 L 394.29836,439.69471 L 394.60699,462.09683 L 394.70269,468.21048 L 371.78435,468.5962 L 371.5729,448.15243 L 371.43893,439.98548 L 382.75911,439.92365"
       id="KS_Butler"
       inkscape:label="Butler, KS" />
    <path
       style="font-size:12px;fill:#aa0000;fill-opacity:1;fill-rule:nonzero;stroke:#ffffff;stroke-width:0.92968982"
       d="M 394.89668,476.32923 L 415.42159,476.05108 L 415.76768,490.08427 L 414.42655,490.11631 L 395.12039,490.50926 L 394.89668,476.32923"
       id="KS_Chautauqua"
       inkscape:label="Chautauqua, KS" />
    <path
       style="font-size:12px;fill:#aa0000;fill-opacity:1;fill-rule:nonzero;stroke:#ffffff;stroke-width:0.92968982"
       d="M 415.18933,461.81369 L 415.43177,471.96037 L 415.42159,476.05108 L 394.89668,476.32923 L 394.70269,468.21048 L 394.60699,462.09683 L 415.18933,461.81369"
       id="KS_Elk"
       inkscape:label="Elk, KS" />
    <path
       style="font-size:12px;fill:#d40000;fill-opacity:1;fill-rule:nonzero;stroke:#ffffff;stroke-width:0.92968982"
       d="M 414.62397,435.29125 L 414.7523,441.41492 L 415.04345,455.70844 L 415.18933,461.81369 L 394.60699,462.09683 L 394.29836,439.69471 L 400.21418,435.53483 L 414.62397,435.29125"
       id="KS_Greenwood"
       inkscape:label="Greenwood, KS" />
    <path
       style="font-size:12px;fill:#d40000;fill-opacity:1;fill-rule:nonzero;stroke:#ffffff;stroke-width:0.92968982"
       d="M 415.43177,471.96037 L 431.36565,471.66238 L 431.53105,471.65843 L 431.80581,477.13463 L 431.92279,486.69785 L 432.00359,489.62798 L 422.2824,489.91061 L 415.76768,490.08427 L 415.42159,476.05108 L 415.43177,471.96037"
       id="KS_Montgomery"
       inkscape:label="Montgomery, KS" />
    <path
       style="font-size:12px;fill:#d40000;fill-opacity:1;fill-rule:nonzero;stroke:#ffffff;stroke-width:0.92968982"
       d="M 415.04345,455.70844 L 430.89344,455.36211 L 431.36565,471.66238 L 415.43177,471.96037 L 415.04345,455.70844"
       id="KS_Wilson"
       inkscape:label="Wilson, KS" />
    <path
       style="font-size:12px;fill:#d40000;fill-opacity:1;fill-rule:nonzero;stroke:#ffffff;stroke-width:0.92968982"
       d="M 414.7523,441.41492 L 430.71768,441.08021 L 430.89344,455.36211 L 415.04345,455.70844 L 414.7523,441.41492"
       id="KS_Woodson"
       inkscape:label="Woodson, KS" />
    <path
       style="font-size:12px;fill:#cc2f4a;fill-opacity:1;fill-rule:nonzero;stroke:#ffffff;stroke-width:0.92968982"
       d="M 431.53105,471.65843 L 447.37391,471.16476 L 447.90845,473.20982 L 448.51486,489.10395 L 436.22083,489.51282 L 432.00359,489.62798 L 431.92279,486.69785 L 431.80581,477.13463 L 431.53105,471.65843"
       id="KS_Labette"
       inkscape:label="Labette, KS" />
    <path
       style="font-size:12px;fill:#d40000;fill-opacity:1;fill-rule:nonzero;stroke:#ffffff;stroke-width:0.92968982"
       d="M 446.82309,454.88795 L 446.92358,457.58736 L 447.37391,471.16476 L 431.53105,471.65843 L 431.36565,471.66238 L 430.89344,455.36211 L 446.82309,454.88795"
       id="KS_Neosho"
       inkscape:label="Neosho, KS" />
    <path
       style="font-size:12px;fill:#cc2f4a;fill-opacity:1;fill-rule:nonzero;stroke:#ffffff;stroke-width:0.92968982"
       d="M 446.72276,440.60065 L 446.82309,454.88795 L 430.89344,455.36211 L 430.71768,441.08021 L 446.72276,440.60065"
       id="KS_Allen"
       inkscape:label="Allen, KS" />
    <path
       style="font-size:12px;fill:#d40000;fill-opacity:1;fill-rule:nonzero;stroke:#ffffff;stroke-width:0.92968982"
       d="M 447.90845,473.20982 L 464.66063,472.68002 L 465.25268,488.5745 L 450.93074,489.03183 L 448.51486,489.10395 L 447.90845,473.20982"
       id="KS_Cherokee"
       inkscape:label="Cherokee, KS" />
    <path
       style="font-size:12px;fill:#e27f90;fill-opacity:1;fill-rule:nonzero;stroke:#ffffff;stroke-width:0.92968982"
       d="M 464.04577,457.03434 L 464.61723,471.46507 L 464.66063,472.68002 L 447.90845,473.20982 L 447.37391,471.16476 L 446.92358,457.58736 L 464.04577,457.03434"
       id="KS_Crawford"
       inkscape:label="Crawford, KS" />
    <path
       style="font-size:12px;fill:#d40000;fill-opacity:1;fill-rule:nonzero;stroke:#ffffff;stroke-width:0.92968982"
       d="M 446.72276,440.60065 L 463.52811,440.03721 L 464.04577,457.03434 L 446.92358,457.58736 L 446.82309,454.88795 L 446.72276,440.60065"
       id="KS_Bourbon"
       inkscape:label="Bourbon, KS" />
    <path
       style="font-size:12px;fill:#aa0000;fill-opacity:1;fill-rule:nonzero;stroke:#ffffff;stroke-width:0.92968982"
       d="M 194.5273,429.32567 L 211.76372,429.93913 L 212.67083,429.96062 L 212.23237,443.53049 L 212.52477,450.34817 L 212.38567,454.61467 L 193.65179,453.81392 L 194.5273,429.32567"
       id="KS_Hamilton"
       inkscape:label="Hamilton, KS" />
    <path
       style="font-size:12px;fill:#aa0000;fill-opacity:1;fill-rule:nonzero;stroke:#ffffff;stroke-width:0.92968982"
       d="M 195.3226,409.00898 L 212.4746,409.55251 L 211.76372,429.93913 L 194.5273,429.32567 L 195.1554,412.85159 L 195.3226,409.00898"
       id="KS_Greeley"
       inkscape:label="Greeley, KS" />
    <path
       style="font-size:12px;fill:#800000;fill-opacity:1;fill-rule:nonzero;stroke:#ffffff;stroke-width:0.92968982"
       d="M 216.36946,389.32004 L 215.45875,409.62511 L 212.4746,409.55251 L 195.3226,409.00898 L 195.92186,392.68309 L 196.05226,388.65426 L 216.36946,389.32004"
       id="KS_Wallace"
       inkscape:label="Wallace, KS" />
    <path
       style="font-size:12px;fill:#aa0000;fill-opacity:1;fill-rule:nonzero;stroke:#ffffff;stroke-width:0.92968982"
       d="M 196.76794,368.31787 L 219.34112,369.14559 L 220.21596,369.17147 L 219.4548,389.4118 L 216.36946,389.32004 L 196.05226,388.65426 L 196.76794,368.31787"
       id="KS_Sherman"
       inkscape:label="Sherman, KS" />
    <path
       style="font-size:12px;fill:#aa0000;fill-opacity:1;fill-rule:nonzero;stroke:#ffffff;stroke-width:0.92968982"
       d="M 197.51282,347.99876 L 220.10475,348.85844 L 219.34112,369.14559 L 196.76794,368.31787 L 196.77588,368.04785 L 197.51282,347.99876"
       id="KS_Cheyenne"
       inkscape:label="Cheyenne, KS" />
    <path
       style="font-size:12px;fill:#d40000;fill-opacity:1;fill-rule:nonzero;stroke:#ffffff;stroke-width:0.92968982"
       d="M 307.7368,432.03505 L 323.38828,432.11438 L 323.63048,436.22787 L 323.61652,452.50737 L 303.92738,452.38061 L 303.68109,444.18034 L 307.62491,444.21563 L 307.7368,432.03505"
       id="KS_Stafford"
       inkscape:label="Stafford, KS" />
    <path
       style="font-size:12px;fill:#d40000;fill-opacity:1;fill-rule:nonzero;stroke:#ffffff;stroke-width:0.92968982"
       d="M 212.67083,429.96062 L 227.7444,430.39554 L 228.53987,430.41253 L 228.35219,438.2166 L 227.92188,450.77175 L 228.3025,455.10858 L 212.38567,454.61467 L 212.52477,450.34817 L 212.23237,443.53049 L 212.67083,429.96062"
       id="KS_Kearny"
       inkscape:label="Kearny, KS" />
    <path
       style="font-size:12px;fill:#cc2f4a;fill-opacity:1;fill-rule:nonzero;stroke:#ffffff;stroke-width:0.92968982"
       d="M 243.67798,430.8387 L 259.59421,431.30743 L 260.20983,431.32509 L 259.98725,443.54068 L 244.1003,443.09284 L 243.87319,451.20366 L 244.23619,455.5553 L 228.3025,455.10858 L 227.92188,450.77175 L 228.35219,438.2166 L 228.53987,430.41253 L 243.67798,430.8387"
       id="KS_Finney"
       inkscape:label="Finney, KS" />
    <path
       style="font-size:12px;fill:#aa0000;fill-opacity:1;fill-rule:nonzero;stroke:#ffffff;stroke-width:0.92968982"
       d="M 283.45628,431.72301 L 283.87842,439.90466 L 283.75309,448.05984 L 259.87194,447.59795 L 259.98725,443.54068 L 260.20983,431.32509 L 283.45628,431.72301"
       id="KS_Hodgeman"
       inkscape:label="Hodgeman, KS" />
    <path
       style="font-size:12px;fill:#d40000;fill-opacity:1;fill-rule:nonzero;stroke:#ffffff;stroke-width:0.92968982"
       d="M 283.49173,427.63527 L 303.43983,427.91054 L 307.7368,432.03505 L 307.62491,444.21563 L 303.68109,444.18034 L 291.77736,444.06183 L 291.80963,439.99218 L 283.87842,439.90466 L 283.45628,431.72301 L 283.49173,427.63527"
       id="KS_Pawnee"
       inkscape:label="Pawnee, KS" />
    <path
       style="font-size:12px;fill:#d40000;fill-opacity:1;fill-rule:nonzero;stroke:#ffffff;stroke-width:0.92968982"
       d="M 430.58068,422.54861 L 430.62992,424.60886 L 430.84453,430.73045 L 430.50294,430.73862 L 430.71768,441.08021 L 414.7523,441.41492 L 414.62397,435.29125 L 414.63569,422.98356 L 430.58068,422.54861"
       id="KS_Coffey"
       inkscape:label="Coffey, KS" />
    <path
       style="font-size:12px;fill:#d40000;fill-opacity:1;fill-rule:nonzero;stroke:#ffffff;stroke-width:0.92968982"
       d="M 430.62992,424.60886 L 446.60982,424.12992 L 446.83524,430.25125 L 446.62516,436.5161 L 446.72276,440.60065 L 430.71768,441.08021 L 430.50294,430.73862 L 430.84453,430.73045 L 430.62992,424.60886"
       id="KS_Anderson"
       inkscape:label="Anderson, KS" />
    <path
       style="font-size:12px;fill:#d40000;fill-opacity:1;fill-rule:nonzero;stroke:#ffffff;stroke-width:0.92968982"
       d="M 462.92303,423.59621 L 463.48411,438.94819 L 463.52811,440.03721 L 446.72276,440.60065 L 446.62516,436.5161 L 446.83524,430.25125 L 446.60982,424.12992 L 462.92303,423.59621"
       id="KS_Linn"
       inkscape:label="Linn, KS" />
    <path
       style="font-size:12px;fill:#cc2f4a;fill-opacity:1;fill-rule:nonzero;stroke:#ffffff;stroke-width:0.92968982"
       d="M 462.43556,407.26033 L 462.77713,419.44806 L 462.92303,423.59621 L 446.60982,424.12992 L 446.37851,407.82389 L 462.43556,407.26033"
       id="KS_Miami"
       inkscape:label="Miami, KS" />
    <path
       style="font-size:12px;fill:#cc2f4a;fill-opacity:1;fill-rule:nonzero;stroke:#ffffff;stroke-width:0.92968982"
       d="M 430.42094,408.33468 L 446.37851,407.82389 L 446.60982,424.12992 L 430.62992,424.60886 L 430.58068,422.54861 L 430.42094,408.33468"
       id="KS_Franklin"
       inkscape:label="Franklin, KS" />
    <path
       style="font-size:12px;fill:#cc2f4a;fill-opacity:1;fill-rule:nonzero;stroke:#ffffff;stroke-width:0.92968982"
       d="M 430.25622,402.1939 L 430.42094,408.33468 L 430.58068,422.54861 L 414.63569,422.98356 L 414.44307,408.74884 L 414.28237,402.62596 L 430.25622,402.1939"
       id="KS_Osage"
       inkscape:label="Osage, KS" />
    <path
       style="font-size:12px;fill:#e27f90;fill-opacity:1;fill-rule:nonzero;stroke:#ffffff;stroke-width:0.92968982"
       d="M 399.84031,409.04737 L 414.44307,408.74884 L 414.63569,422.98356 L 414.62397,435.29125 L 400.21418,435.53483 L 400.00074,419.22479 L 399.84031,409.04737"
       id="KS_Lyon"
       inkscape:label="Lyon, KS" />
    <path
       style="font-size:12px;fill:#d40000;fill-opacity:1;fill-rule:nonzero;stroke:#ffffff;stroke-width:0.92968982"
       d="M 383.22404,419.48174 L 400.00074,419.22479 L 400.21418,435.53483 L 394.29836,439.69471 L 382.75911,439.92365 L 382.64032,432.242 L 382.69173,427.61786 L 383.35383,427.62363 L 383.22404,419.48174"
       id="KS_Chase"
       inkscape:label="Chase, KS" />
    <path
       style="font-size:12px;fill:#cc2f4a;fill-opacity:1;fill-rule:nonzero;stroke:#ffffff;stroke-width:0.92968982"
       d="M 394.37618,403.05122 L 399.84031,409.04737 L 400.00074,419.22479 L 383.22404,419.48174 L 379.1746,415.47722 L 380.44075,403.27266 L 394.37618,403.05122"
       id="KS_Morris"
       inkscape:label="Morris, KS" />
    <path
       style="font-size:12px;fill:#d40000;fill-opacity:1;fill-rule:nonzero;stroke:#ffffff;stroke-width:0.92968982"
       d="M 379.1746,415.47722 L 383.22404,419.48174 L 383.35383,427.62363 L 382.69173,427.61786 L 382.64032,432.242 L 382.75911,439.92365 L 371.43893,439.98548 L 363.48392,436.04188 L 363.28839,415.66253 L 379.1746,415.47722"
       id="KS_Marion"
       inkscape:label="Marion, KS" />
    <path
       style="font-size:12px;fill:#cc2f4a;fill-opacity:1;fill-rule:nonzero;stroke:#ffffff;stroke-width:0.92968982"
       d="M 363.28839,415.66253 L 363.48392,436.04188 L 351.53477,436.12954 L 343.55999,436.1762 L 343.39286,415.78175 L 363.28839,415.66253"
       id="KS_McPherson"
       inkscape:label="McPherson, KS" />
    <path
       style="font-size:12px;fill:#d40000;fill-opacity:1;fill-rule:nonzero;stroke:#ffffff;stroke-width:0.92968982"
       d="M 323.38802,419.9077 L 343.4289,419.84978 L 343.55999,436.1762 L 323.63048,436.22787 L 323.38828,432.11438 L 323.38802,419.9077"
       id="KS_Rice"
       inkscape:label="Rice, KS" />
    <path
       style="font-size:12px;fill:#cc2f4a;fill-opacity:1;fill-rule:nonzero;stroke:#ffffff;stroke-width:0.92968982"
       d="M 363.14371,399.36882 L 363.28839,415.66253 L 343.39286,415.78175 L 343.20152,403.55806 L 343.18347,399.48959 L 363.14371,399.36882"
       id="KS_Saline"
       inkscape:label="Saline, KS" />
    <path
       style="font-size:12px;fill:#d40000;fill-opacity:1;fill-rule:nonzero;stroke:#ffffff;stroke-width:0.92968982"
       d="M 323.27134,403.58095 L 343.20152,403.55806 L 343.39286,415.78175 L 343.4289,419.84978 L 323.38802,419.9077 L 323.21004,411.70582 L 323.27134,403.58095"
       id="KS_Ellsworth"
       inkscape:label="Ellsworth, KS" />
    <path
       style="font-size:12px;fill:#d40000;fill-opacity:1;fill-rule:nonzero;stroke:#ffffff;stroke-width:0.92968982"
       d="M 323.21004,411.70582 L 323.38802,419.9077 L 323.38828,432.11438 L 307.7368,432.03505 L 303.43983,427.91054 L 303.55438,411.62504 L 323.21004,411.70582"
       id="KS_Barton"
       inkscape:label="Barton, KS" />
    <path
       style="font-size:12px;fill:#d40000;fill-opacity:1;fill-rule:nonzero;stroke:#ffffff;stroke-width:0.92968982"
       d="M 283.70147,411.41944 L 303.1944,411.61564 L 303.55438,411.62504 L 303.43983,427.91054 L 283.49173,427.63527 L 283.70147,411.41944"
       id="KS_Rush"
       inkscape:label="Rush, KS" />
    <path
       style="font-size:12px;fill:#aa0000;fill-opacity:1;fill-rule:nonzero;stroke:#ffffff;stroke-width:0.92968982"
       d="M 259.90248,410.93399 L 263.26134,411.03002 L 283.21564,411.41305 L 283.70147,411.41944 L 283.49173,427.63527 L 283.45628,431.72301 L 260.20983,431.32509 L 259.59421,431.30743 L 259.90248,410.93399"
       id="KS_Ness"
       inkscape:label="Ness, KS" />
    <path
       style="font-size:12px;fill:#aa0000;fill-opacity:1;fill-rule:nonzero;stroke:#ffffff;stroke-width:0.92968982"
       d="M 244.06546,410.46696 L 259.90248,410.93399 L 259.59421,431.30743 L 243.67798,430.8387 L 244.06546,410.46696"
       id="KS_Lane"
       inkscape:label="Lane, KS" />
    <path
       style="font-size:12px;fill:#aa0000;fill-opacity:1;fill-rule:nonzero;stroke:#ffffff;stroke-width:0.92968982"
       d="M 228.24649,410.0031 L 239.37863,410.3523 L 244.06546,410.46696 L 243.67798,430.8387 L 228.53987,430.41253 L 227.7444,430.39554 L 228.24649,410.0031"
       id="KS_Scott"
       inkscape:label="Scott, KS" />
    <path
       style="font-size:12px;fill:#aa0000;fill-opacity:1;fill-rule:nonzero;stroke:#ffffff;stroke-width:0.92968982"
       d="M 215.45875,409.62511 L 228.24649,410.0031 L 227.7444,430.39554 L 212.67083,429.96062 L 211.76372,429.93913 L 212.4746,409.55251 L 215.45875,409.62511"
       id="KS_Wichita"
       inkscape:label="Wichita, KS" />
    <path
       style="font-size:12px;fill:#aa0000;fill-opacity:1;fill-rule:nonzero;stroke:#ffffff;stroke-width:0.92968982"
       d="M 219.4548,389.4118 L 224.77598,389.57606 L 230.21097,389.83474 L 240.15784,390.11512 L 239.37863,410.3523 L 228.24649,410.0031 L 215.45875,409.62511 L 216.36946,389.32004 L 219.4548,389.4118"
       id="KS_Logan"
       inkscape:label="Logan, KS" />
    <path
       style="font-size:12px;fill:#aa0000;fill-opacity:1;fill-rule:nonzero;stroke:#ffffff;stroke-width:0.92968982"
       d="M 243.4049,390.19944 L 263.29397,390.71356 L 263.88039,390.71394 L 263.26134,411.03002 L 259.90248,410.93399 L 244.06546,410.46696 L 239.37863,410.3523 L 240.15784,390.11512 L 243.4049,390.19944"
       id="KS_Gove"
       inkscape:label="Gove, KS" />
    <path
       style="font-size:12px;fill:#aa0000;fill-opacity:1;fill-rule:nonzero;stroke:#ffffff;stroke-width:0.92968982"
       d="M 263.88039,390.71394 L 283.2647,391.03144 L 283.75045,391.03423 L 283.21564,411.41305 L 263.26134,411.03002 L 263.88039,390.71394"
       id="KS_Trego"
       inkscape:label="Trego, KS" />
    <path
       style="font-size:12px;fill:#d40000;fill-opacity:1;fill-rule:nonzero;stroke:#ffffff;stroke-width:0.92968982"
       d="M 283.75045,391.03423 L 303.17828,391.2176 L 303.55267,391.22664 L 303.1944,411.61564 L 283.70147,411.41944 L 283.21564,411.41305 L 283.75045,391.03423"
       id="KS_Ellis"
       inkscape:label="Ellis, KS" />
    <path
       style="font-size:12px;fill:#aa0000;fill-opacity:1;fill-rule:nonzero;stroke:#ffffff;stroke-width:0.92968982"
       d="M 303.55267,391.22664 L 323.10842,391.34219 L 323.27134,403.58095 L 323.21004,411.70582 L 303.55438,411.62504 L 303.1944,411.61564 L 303.55267,391.22664"
       id="KS_Russell"
       inkscape:label="Russell, KS" />
    <path
       style="font-size:12px;fill:#aa0000;fill-opacity:1;fill-rule:nonzero;stroke:#ffffff;stroke-width:0.92968982"
       d="M 343.10403,387.28121 L 343.18347,399.48959 L 343.20152,403.55806 L 323.27134,403.58095 L 323.10842,391.34219 L 323.12623,387.26927 L 343.10403,387.28121"
       id="KS_Lincoln"
       inkscape:label="Lincoln, KS" />
    <path
       style="font-size:12px;fill:#d40000;fill-opacity:1;fill-rule:nonzero;stroke:#ffffff;stroke-width:0.92968982"
       d="M 343.10394,383.21231 L 363.06058,383.09164 L 363.07881,391.23259 L 363.14371,399.36882 L 343.18347,399.48959 L 343.10403,387.28121 L 343.10394,383.21231"
       id="KS_Ottawa"
       inkscape:label="Ottawa, KS" />
    <path
       style="font-size:12px;fill:#d40000;fill-opacity:1;fill-rule:nonzero;stroke:#ffffff;stroke-width:0.92968982"
       d="M 377.65187,391.04628 L 380.44075,403.27266 L 379.1746,415.47722 L 363.28839,415.66253 L 363.14371,399.36882 L 363.07881,391.23259 L 377.65187,391.04628"
       id="KS_Dickinson"
       inkscape:label="Dickinson, KS" />
    <path
       style="font-size:12px;fill:#e27f90;fill-opacity:1;fill-rule:nonzero;stroke:#ffffff;stroke-width:0.92968982"
       d="M 377.65187,391.04628 L 377.66497,386.92671 L 381.63669,386.92533 L 381.68574,393.04369 L 391.39458,393.59958 L 394.21425,393.5646 L 394.2469,394.93091 L 394.37618,403.05122 L 380.44075,403.27266 L 377.65187,391.04628"
       id="KS_Geary"
       inkscape:label="Geary, KS" />
    <path
       style="font-size:12px;fill:#d40000;fill-opacity:1;fill-rule:nonzero;stroke:#ffffff;stroke-width:0.92968982"
       d="M 410.66989,390.71065 L 414.28237,402.62596 L 414.44307,408.74884 L 399.84031,409.04737 L 394.37618,403.05122 L 394.2469,394.93091 L 398.14099,388.81907 L 398.37257,389.02579 L 399.29222,389.57223 L 399.66841,389.65679 L 401.50283,387.68464 L 403.90512,387.04443 L 408.17401,387.28421 L 409.02713,387.60559 L 409.56071,388.2548 L 410.61428,390.34142 L 410.66989,390.71065"
       id="KS_Wabaunsee"
       inkscape:label="Wabaunsee, KS" />
    <path
       style="font-size:12px;fill:#f2b3be;fill-opacity:1;fill-rule:nonzero;stroke:#ffffff;stroke-width:0.92968982"
       d="M 410.69863,386.49354 L 426.61222,386.09895 L 430.01586,393.48983 L 430.25622,402.1939 L 414.28237,402.62596 L 410.66989,390.71065 L 410.69863,386.49354"
       id="KS_Shawnee"
       inkscape:label="Shawnee, KS" />
    <path
       style="font-size:12px;fill:#4389e3;fill-opacity:1;fill-rule:nonzero;stroke:#ffffff;stroke-width:0.92968982"
       d="M 441.22771,393.71123 L 446.00961,396.44987 L 446.37851,407.82389 L 430.42094,408.33468 L 430.25622,402.1939 L 430.01586,393.48983 L 431.56286,392.88804 L 432.2871,392.7844 L 432.78893,392.85875 L 433.51176,393.1473 L 433.97716,393.65421 L 435.12968,394.31022 L 435.76637,394.4569 L 436.27975,394.41225 L 441.22771,393.71123"
       id="KS_Douglas"
       inkscape:label="Douglas, KS" />
    <path
       style="font-size:12px;fill:#f2b3be;fill-opacity:1;fill-rule:nonzero;stroke:#ffffff;stroke-width:0.92968982"
       d="M 451.26585,395.85297 L 452.15181,392.88178 L 452.37369,392.68221 L 452.84086,392.50916 L 453.39053,392.47803 L 456.47258,393.18508 L 461.96462,392.97109 L 462.29961,402.17298 L 462.43556,407.26033 L 446.37851,407.82389 L 446.00961,396.44987 L 451.26585,395.85297"
       id="KS_Johnson"
       inkscape:label="Johnson, KS" />
    <path
       style="font-size:12px;fill:#4389e3;fill-opacity:1;fill-rule:nonzero;stroke:#ffffff;stroke-width:0.92968982"
       d="M 461.95029,387.55343 L 461.83688,389.7327 L 461.96462,392.97109 L 456.47258,393.18508 L 453.39053,392.47803 L 452.84086,392.50916 L 452.37369,392.68221 L 452.15181,392.88178 L 451.26585,395.85297 L 451.06181,389.42174 L 451.22417,385.97855 L 455.04985,385.88715 L 461.95029,387.55343"
       id="KS_Wyandotte"
       inkscape:label="Wyandotte, KS" />
    <path
       style="font-size:12px;fill:#e27f90;fill-opacity:1;fill-rule:nonzero;stroke:#ffffff;stroke-width:0.92968982"
       d="M 440.92377,376.17297 L 448.42239,375.92182 L 455.04985,385.88715 L 451.22417,385.97855 L 451.06181,389.42174 L 451.26585,395.85297 L 446.00961,396.44987 L 441.22771,393.71123 L 441.06849,389.75767 L 441.1971,385.05251 L 440.92377,376.17297"
       id="KS_Leavenworth"
       inkscape:label="Leavenworth, KS" />
    <path
       style="font-size:12px;fill:#cc2f4a;fill-opacity:1;fill-rule:nonzero;stroke:#ffffff;stroke-width:0.92968982"
       d="M 427.01815,376.58796 L 440.92377,376.17297 L 441.1971,385.05251 L 441.06849,389.75767 L 441.22771,393.71123 L 436.27975,394.41225 L 435.76637,394.4569 L 435.12968,394.31022 L 433.97716,393.65421 L 433.51176,393.1473 L 432.78893,392.85875 L 432.2871,392.7844 L 431.56286,392.88804 L 430.01586,393.48983 L 426.61222,386.09895 L 427.01815,376.58796"
       id="KS_Jefferson"
       inkscape:label="Jefferson, KS" />
    <path
       style="font-size:12px;fill:#cc2f4a;fill-opacity:1;fill-rule:nonzero;stroke:#ffffff;stroke-width:0.92968982"
       d="M 443.48508,370.74412 L 448.42239,375.92182 L 440.92377,376.17297 L 427.01815,376.58796 L 426.93684,365.65677 L 434.89268,365.41991 L 444.78989,366.48216 L 443.48508,370.74412"
       id="KS_Atchison"
       inkscape:label="Atchison, KS" />
    <path
       style="font-size:12px;fill:#cc2f4a;fill-opacity:1;fill-rule:nonzero;stroke:#ffffff;stroke-width:0.92968982"
       d="M 427.01815,376.58796 L 426.61222,386.09895 L 410.69863,386.49354 L 410.30834,370.15896 L 418.96275,365.88328 L 426.93684,365.65677 L 427.01815,376.58796"
       id="KS_Jackson"
       inkscape:label="Jackson, KS" />
    <path
       style="font-size:12px;fill:#d40000;fill-opacity:1;fill-rule:nonzero;stroke:#ffffff;stroke-width:0.92968982"
       d="M 410.69863,386.49354 L 410.66989,390.71065 L 410.61428,390.34142 L 409.56071,388.2548 L 409.02713,387.60559 L 408.17401,387.28421 L 403.90512,387.04443 L 401.50283,387.68464 L 399.66841,389.65679 L 399.29222,389.57223 L 398.37257,389.02579 L 398.14099,388.81907 L 395.56275,388.11798 L 393.17203,387.1354 L 389.74314,384.10899 L 387.91185,381.39337 L 386.08383,378.2136 L 386.05362,376.34716 L 386.47486,375.60678 L 390.92632,370.53932 L 403.0989,370.31682 L 410.30834,370.15896 L 410.69863,386.49354"
       id="KS_Pottawatomie"
       inkscape:label="Pottawatomie, KS" />
    <path
       style="font-size:12px;fill:#f2b3be;fill-opacity:1;fill-rule:nonzero;stroke:#ffffff;stroke-width:0.92968982"
       d="M 377.66497,386.92671 L 377.53742,370.7477 L 382.94992,370.66876 L 390.92632,370.53932 L 386.47486,375.60678 L 386.05362,376.34716 L 386.08383,378.2136 L 387.91185,381.39337 L 389.74314,384.10899 L 393.17203,387.1354 L 395.56275,388.11798 L 398.14099,388.81907 L 394.2469,394.93091 L 394.21425,393.5646 L 391.39458,393.59958 L 381.68574,393.04369 L 381.63669,386.92533 L 377.66497,386.92671"
       id="KS_Riley"
       inkscape:label="Riley, KS" />
    <path
       style="font-size:12px;fill:#d40000;fill-opacity:1;fill-rule:nonzero;stroke:#ffffff;stroke-width:0.92968982"
       d="M 363.06058,383.09164 L 362.98146,370.89764 L 377.53742,370.7477 L 377.66497,386.92671 L 377.65187,391.04628 L 363.07881,391.23259 L 363.06058,383.09164"
       id="KS_Clay"
       inkscape:label="Clay, KS" />
    <path
       style="font-size:12px;fill:#d40000;fill-opacity:1;fill-rule:nonzero;stroke:#ffffff;stroke-width:0.92968982"
       d="M 342.9746,371.02311 L 342.9744,366.95063 L 362.93107,366.82994 L 362.98146,370.89764 L 363.06058,383.09164 L 343.10394,383.21231 L 342.9746,371.02311"
       id="KS_Cloud"
       inkscape:label="Cloud, KS" />
    <path
       style="font-size:12px;fill:#d40000;fill-opacity:1;fill-rule:nonzero;stroke:#ffffff;stroke-width:0.92968982"
       d="M 342.9746,371.02311 L 343.10394,383.21231 L 343.10403,387.28121 L 323.12623,387.26927 L 323.25933,371.0085 L 342.9746,371.02311"
       id="KS_Mitchell"
       inkscape:label="Mitchell, KS" />
    <path
       style="font-size:12px;fill:#aa0000;fill-opacity:1;fill-rule:nonzero;stroke:#ffffff;stroke-width:0.92968982"
       d="M 323.12623,387.26927 L 323.10842,391.34219 L 303.55267,391.22664 L 303.17828,391.2176 L 303.22824,384.42412 L 303.37615,379.02058 L 303.47347,370.89845 L 322.60811,371.00607 L 323.25933,371.0085 L 323.12623,387.26927"
       id="KS_Osborne"
       inkscape:label="Osborne, KS" />
    <path
       style="font-size:12px;fill:#aa0000;fill-opacity:1;fill-rule:nonzero;stroke:#ffffff;stroke-width:0.92968982"
       d="M 283.6531,370.69929 L 302.71035,370.88072 L 303.47347,370.89845 L 303.37615,379.02058 L 303.22824,384.42412 L 303.17828,391.2176 L 283.75045,391.03423 L 283.2647,391.03144 L 283.6531,370.69929"
       id="KS_Rooks"
       inkscape:label="Rooks, KS" />
    <path
       style="font-size:12px;fill:#aa0000;fill-opacity:1;fill-rule:nonzero;stroke:#ffffff;stroke-width:0.92968982"
       d="M 263.29397,390.71356 L 263.79717,370.36785 L 282.74248,370.68146 L 283.6531,370.69929 L 283.2647,391.03144 L 263.88039,390.71394 L 263.29397,390.71356"
       id="KS_Graham"
       inkscape:label="Graham, KS" />
    <path
       style="font-size:12px;fill:#aa0000;fill-opacity:1;fill-rule:nonzero;stroke:#ffffff;stroke-width:0.92968982"
       d="M 243.9551,369.86341 L 263.13523,370.36928 L 263.79717,370.36785 L 263.29397,390.71356 L 243.4049,390.19944 L 243.9551,369.86341"
       id="KS_Sheridan"
       inkscape:label="Sheridan, KS" />
    <path
       style="font-size:12px;fill:#aa0000;fill-opacity:1;fill-rule:nonzero;stroke:#ffffff;stroke-width:0.92968982"
       d="M 219.4548,389.4118 L 220.21596,369.17147 L 243.22451,369.85207 L 243.9551,369.86341 L 243.4049,390.19944 L 240.15784,390.11512 L 230.21097,389.83474 L 224.77598,389.57606 L 219.4548,389.4118"
       id="KS_Thomas"
       inkscape:label="Thomas, KS" />
    <path
       style="font-size:12px;fill:#aa0000;fill-opacity:1;fill-rule:nonzero;stroke:#ffffff;stroke-width:0.92968982"
       d="M 220.10475,348.85844 L 223.17203,348.94704 L 243.1277,349.53871 L 243.83004,349.57229 L 243.22451,369.85207 L 220.21596,369.17147 L 219.34112,369.14559 L 220.10475,348.85844"
       id="KS_Rawlins"
       inkscape:label="Rawlins, KS" />
    <path
       style="font-size:12px;fill:#aa0000;fill-opacity:1;fill-rule:nonzero;stroke:#ffffff;stroke-width:0.92968982"
       d="M 243.83004,349.57229 L 263.07027,350.03356 L 263.62124,350.05636 L 263.13523,370.36928 L 243.9551,369.86341 L 243.22451,369.85207 L 243.83004,349.57229"
       id="KS_Decatur"
       inkscape:label="Decatur, KS" />
    <path
       style="font-size:12px;fill:#aa0000;fill-opacity:1;fill-rule:nonzero;stroke:#ffffff;stroke-width:0.92968982"
       d="M 298.88622,350.55927 L 302.84041,350.57629 L 302.71035,370.88072 L 283.6531,370.69929 L 282.74248,370.68146 L 283.10255,350.36796 L 298.88622,350.55927"
       id="KS_Phillips"
       inkscape:label="Phillips, KS" />
    <path
       style="font-size:12px;fill:#aa0000;fill-opacity:1;fill-rule:nonzero;stroke:#ffffff;stroke-width:0.92968982"
       d="M 283.01983,350.36995 L 283.10255,350.36796 L 282.74248,370.68146 L 263.79717,370.36785 L 263.13523,370.36928 L 263.62124,350.05636 L 283.01983,350.36995"
       id="KS_Norton"
       inkscape:label="Norton, KS" />
    <path
       style="font-size:12px;fill:#aa0000;fill-opacity:1;fill-rule:nonzero;stroke:#ffffff;stroke-width:0.92968982"
       d="M 302.84041,350.57629 L 314.85848,350.6633 L 322.69107,350.6884 L 322.60811,371.00607 L 303.47347,370.89845 L 302.71035,370.88072 L 302.84041,350.57629"
       id="KS_Smith"
       inkscape:label="Smith, KS" />
    <path
       style="font-size:12px;fill:#aa0000;fill-opacity:1;fill-rule:nonzero;stroke:#ffffff;stroke-width:0.92968982"
       d="M 330.82877,350.68465 L 342.90959,350.68738 L 342.9744,366.95063 L 342.9746,371.02311 L 323.25933,371.0085 L 322.60811,371.00607 L 322.69107,350.6884 L 330.82877,350.68465"
       id="KS_Jewell"
       inkscape:label="Jewell, KS" />
    <path
       style="font-size:12px;fill:#aa0000;fill-opacity:1;fill-rule:nonzero;stroke:#ffffff;stroke-width:0.92968982"
       d="M 346.80206,350.68074 L 362.76883,350.55465 L 362.93107,366.82994 L 342.9744,366.95063 L 342.90959,350.68738 L 346.80206,350.68074"
       id="KS_Republic"
       inkscape:label="Republic, KS" />
    <path
       style="font-size:12px;fill:#d40000;fill-opacity:1;fill-rule:nonzero;stroke:#ffffff;stroke-width:0.92968982"
       d="M 362.76883,350.55465 L 378.77053,350.38458 L 382.67641,350.33801 L 382.94992,370.66876 L 377.53742,370.7477 L 362.98146,370.89764 L 362.93107,366.82994 L 362.76883,350.55465"
       id="KS_Washington"
       inkscape:label="Washington, KS" />
    <path
       style="font-size:12px;fill:#d40000;fill-opacity:1;fill-rule:nonzero;stroke:#ffffff;stroke-width:0.92968982"
       d="M 394.7383,350.15054 L 402.66043,350.00801 L 403.0989,370.31682 L 390.92632,370.53932 L 382.94992,370.66876 L 382.67641,350.33801 L 394.7383,350.15054"
       id="KS_Marshall"
       inkscape:label="Marshall, KS" />
    <path
       style="font-size:12px;fill:#aa0000;fill-opacity:1;fill-rule:nonzero;stroke:#ffffff;stroke-width:0.92968982"
       d="M 410.71481,349.82995 L 418.57469,349.64216 L 418.96275,365.88328 L 410.30834,370.15896 L 403.0989,370.31682 L 402.66043,350.00801 L 410.71481,349.82995"
       id="KS_Nemaha"
       inkscape:label="Nemaha, KS" />
  </g>
</svg>
