<?xml version="1.0" encoding="utf-8"?>
<!-- Generator: Adobe Illustrator 16.0.0, SVG Export Plug-In . SVG Version: 6.00 Build 0)  -->
<!DOCTYPE svg PUBLIC "-//W3C//DTD SVG 1.1//EN" "http://www.w3.org/Graphics/SVG/1.1/DTD/svg11.dtd">
<svg version="1.1"
	 id="svg5598" xmlns:svg="http://www.w3.org/2000/svg" xmlns:rdf="http://www.w3.org/1999/02/22-rdf-syntax-ns#" xmlns:cc="http://creativecommons.org/ns#" xmlns:sodipodi="http://sodipodi.sourceforge.net/DTD/sodipodi-0.dtd" xmlns:dc="http://purl.org/dc/elements/1.1/" xmlns:inkscape="http://www.inkscape.org/namespaces/inkscape" inkscape:version="0.48.1 " sodipodi:docname="Kentucky_Presidential_Election_Results_by_County,_2008[1].svg" sodipodi:version="0.32" inkscape:output_extension="org.inkscape.output.svg.inkscape"
	 xmlns="http://www.w3.org/2000/svg" xmlns:xlink="http://www.w3.org/1999/xlink" x="0px" y="0px" width="389.891px"
	 height="185.148px" viewBox="0 0 389.891 185.148" enable-background="new 0 0 389.891 185.148" xml:space="preserve">
<defs>
	
	
		<inkscape:perspective  id="perspective5606" inkscape:persp3d-origin="372.04724 : 350.78739 : 1" sodipodi:type="inkscape:persp3d" inkscape:vp_y="0 : 1000 : 0" inkscape:vp_x="0 : 526.18109 : 1" inkscape:vp_z="744.09448 : 526.18109 : 1">
		</inkscape:perspective>
</defs>
<sodipodi:namedview  bordercolor="#666666" pagecolor="#ffffff" objecttolerance="10" borderopacity="1.0" guidetolerance="10" inkscape:cx="194.94542" showgrid="false" inkscape:cy="92.573853" inkscape:zoom="2.7923652" gridtolerance="10000" id="base" inkscape:window-width="1366" inkscape:window-y="-8" inkscape:current-layer="layer1" inkscape:pageopacity="0.0" inkscape:window-height="706" inkscape:window-maximized="1" inkscape:pageshadow="2" inkscape:window-x="-8" inkscape:document-units="px">
	</sodipodi:namedview>
<path id="IL_Massac" fill="#D40000" stroke="#FFFFFF" stroke-width="0.9694" d="M38.194,130.696l10.641-2.791l11.769,9.68
	l0.487,5.477l-3.622-0.364l-18.855-7.488L38.194,130.696"/>
<path id="IL_Hardin" fill="#D40000" stroke="#FFFFFF" stroke-width="0.9694" d="M64.071,111.207l12.057,0.569l3.923,3.799v0.939
	l-0.942,1.007l-0.506,0.106l-6.848,1.349l-1.036,0.205l-0.854,0.223l-0.31,0.089l-0.105,0.018l-1.192,0.676l-0.237,0.145
	l-0.043,0.018l-0.84,0.729l-1.244,1.549l-2.881-0.873l-0.745-10.422L64.071,111.207"/>
<path id="IN_Ohio" fill="#D40000" stroke="#FFFFFF" stroke-width="0.9694" d="M213.767,17.389l11.632-6.182l4.852,7.22l-16.5,0.06
	L213.767,17.389"/>
<path id="IN_Switzerland" fill="#D40000" stroke="#FFFFFF" stroke-width="0.9694" d="M213.748,18.49l16.499-0.06l0.657,2.568
	l-10.627,6.712l-7.986,5.104l-1.683-13.042L213.748,18.49"/>
<path id="KY_Hickman_1_" fill="#D40000" stroke="#FFFFFF" stroke-width="0.9694" d="M30.951,161.875l15.514-0.354l1.142,15.977
	l-0.538,0.036l-0.38,0.018l-3.796-4.143l-2.041-0.719l-11.828-2.668L30.951,161.875"/>
<path id="KY_Fulton_1_" fill="#CC2F4A" stroke="#FFFFFF" stroke-width="0.1783" d="M29.02,170.019l11.828,2.664l2.041,0.722
	l3.796,4.143l-25.57,1.727l-3.538,0.471l3.891-8.146L29.02,170.019"/>
<path id="KY_Bell_1_" fill="#D40000" stroke="#FFFFFF" stroke-width="0.9694" d="M308.587,126.242l1.322,2.422l3.33,13.335
	l-10.112,5.069l-12.582,2.257l1.845-6.104l3.338-5.504l4.669-4.481l2.065-1.813l3.051-3.184l0.304-1.237l-0.237-0.445l-1.122-0.823
	L308.587,126.242"/>
<path id="KY_Knox_1_" fill="#AA0000" stroke="#FFFFFF" stroke-width="0.9694" d="M289.753,121.608l0.622-0.061l4.3,0.509
	l1.597,0.436l0.639,0.523l0.681,0.736l0.105,0.418l1.476,0.572l2.129,0.638l2.065,0.349h1.091l1.122,0.822l0.237,0.446l-0.304,1.237
	l-3.051,3.184l-2.065,1.812l-4.669,4.482l-3.338,5.504l-4.33-1.88l-6.273-6.811l-2.148-5.849L289.753,121.608"/>
<path id="KY_Whitley_1_" fill="#AA0000" stroke="#FFFFFF" stroke-width="0.9694" d="M269.563,130.476l10.072-1.797l2.148,5.849
	l6.276,6.81l4.327,1.881l-1.845,6.104l-2.827,0.268l-11.896,1.271l-3.188-2.764l-1.443-1.665l-2.902-5.831l-0.104-0.814
	L269.563,130.476"/>
<path id="KY_Laurel_1_" fill="#AA0000" stroke="#FFFFFF" stroke-width="0.9694" d="M274.501,107.591l10.12,2.934l-0.638,4.626
	l1.494,1.538l2.588,1.493l1.389,1.929l0.302,1.501l-10.118,7.07l-10.072,1.797l-3.121-0.447l1.938-11.683L274.501,107.591"/>
<path id="KY_Clay_1_" fill="#AA0000" stroke="#FFFFFF" stroke-width="0.9694" d="M291.619,103.841l4.041,0.169l7.418,3.419
	l1.977,0.162l1.114,1.192l2.415,17.459l-4.127-0.511h-1.091l-2.065-0.35l-2.129-0.638l-1.476-0.572l-0.105-0.417l-0.684-0.736
	l-0.636-0.524l-1.597-0.435l-4.3-0.509l-0.622,0.063l-0.301-1.503l-1.393-1.929l-2.585-1.493l-1.494-1.538l0.639-4.626
	L291.619,103.841"/>
<path id="KY_Leslie_1_" fill="#AA0000" stroke="#FFFFFF" stroke-width="0.9694" d="M306.172,108.783l3.688-4.632l4.171,2.258
	l5.431,3.174l1.882,1.546l2.001,3.257l0.767,2.445l-0.062,2.561l-14.136,9.272l-1.321-2.422L306.172,108.783"/>
<path id="KY_Harlan_1_" fill="#AA0000" stroke="#FFFFFF" stroke-width="0.9694" d="M324.045,119.389l3.137,0.771l1.485,1.751
	l7.399-3.73l3.826,1.967l-0.199,4.454l-1.037,1.688l-9.94,7.673l-10.423,5.512l-5.048,2.523l-3.331-13.335L324.045,119.389"/>
<path id="KY_Letcher_1_" fill="#D40000" stroke="#FFFFFF" stroke-width="0.9694" d="M343.99,101.846l2.237,1.832l1.408-0.061
	l1.379-1.051h0.296l1.615,0.962l1.96,1.645l-12.993,14.975l-3.826-1.967l-7.399,3.73l-1.485-1.751l0.6,0.463l0.176-0.025
	l2.234-1.662l0.172-0.223l0.135-0.658l-0.067-2.848l-1.273-2.285l0.086-0.409l0.854-2.07l1.411-2.463l0.883,0.58l1.077,0.018
	l1.931-1.43l0.978-0.927l0.924-1.11l3.403-2.215L343.99,101.846"/>
<path id="KY_Knott_1_" fill="#D40000" stroke="#FFFFFF" stroke-width="0.9694" d="M332.66,90.483l4.897,0.677l3.608,1.869
	l0.455,0.659l0.236,1.928l-0.102,1.603l0.894,2.449l0.267,0.253l1.099,0.593l0.945,0.39l-0.973,0.941l-3.29,1.048l-3.403,2.214
	l-0.924,1.111l-0.979,0.924l-1.936,1.433l-1.069-0.019l-0.883-0.579l-7.895-11.487l7.781-6.829L332.66,90.483"/>
<path id="KY_Perry_1_" fill="#D40000" stroke="#FFFFFF" stroke-width="0.9694" d="M323.606,96.496l7.895,11.487l-1.411,2.462
	l-0.854,2.07l-0.086,0.41l1.273,2.285l0.067,2.847l-0.135,0.658l-0.172,0.223l-2.235,1.663l-0.175,0.025l-0.601-0.463l-3.137-0.772
	l0.063-2.561l-0.768-2.445l-2.001-3.257l-1.882-1.546l-5.434-3.174l-4.168-2.258l-3.688,4.632l-1.114-1.192l-1.67-4.351l5.773-1.908
	l10.662-4.917L323.606,96.496"/>
<path id="KY_Owsley_1_" fill="#AA0000" stroke="#FFFFFF" stroke-width="0.9694" d="M300.446,93.373l2.939,9.867l1.67,4.351
	l-1.977-0.162l-7.418-3.419l-4.041-0.169l-6.298-9.336l1.16,0.814l1.143,0.436l0.985,0.188l3.909-0.892l2.895-1.413l0.59-0.801
	l2.339-0.142L300.446,93.373"/>
<path id="KY_Jackson_1_" fill="#AA0000" stroke="#FFFFFF" stroke-width="0.9694" d="M274.869,92.868l9.26,0.282l1.192,1.349
	l6.298,9.339l-7,6.684l-10.124-2.933l-0.768-2.81l-1.352-3.06l-1.473-1.931l-0.942-1.572l-0.248-1.5l0.151-0.669L274.869,92.868"/>
<path id="KY_Estill_1_" fill="#D40000" stroke="#FFFFFF" stroke-width="0.9694" d="M273.09,75.976l3.96,0.409l2.111,1.936
	l3.357,2.107l3.918,0.252l5.271,1.226l-7.574,11.247l-9.259-0.283L273.09,75.976"/>
<path id="KY_Lee_1_" fill="#AA0000" stroke="#FFFFFF" stroke-width="0.9694" d="M292.408,81.81l9.72,3.467l-1.683,8.099
	l-2.111-0.676l-2.331,0.142l-0.59,0.801l-2.895,1.414l-3.909,0.891l-0.985-0.188l-1.143-0.436l-1.16-0.814l-1.192-1.352
	l7.573-11.247L292.408,81.81"/>
<path id="KY_Breathitt_1_" fill="#CC2F4A" stroke="#FFFFFF" stroke-width="0.9694" d="M302.128,85.275l1.675,0.853l1.513-0.775
	l0.353-0.453l0.633-1.229l0.124-0.754l-0.057-0.376l0.132-0.559l0.259-0.409l1.306-0.711l7.187,0.899l16.136,7.903l-7.781,6.83
	l-3.785-0.081l-10.662,4.917l-5.773,1.908l-2.939-9.867L302.128,85.275"/>
<path id="KY_Floyd_1_" fill="#D40000" stroke="#FFFFFF" stroke-width="0.9694" d="M344.542,74.97l4.079,1.583l-1.313,0.408
	l-0.838,0.472l-0.218,0.31l0.95,8.457l1.446,1.335l0.826,1.822l0.049,1.291l-0.973,3.716l-2.299,5.147l-0.838,1.047l-0.457,0.347
	l-0.942-0.39l-1.102-0.592l-0.267-0.253l-0.894-2.45l0.103-1.602l-0.237-1.929l-0.455-0.658l-3.607-1.869l-4.898-0.677
	l-2.738-13.378l1.597,0.028l5.708-2.75l1.557-0.531l1.476,0.037l4.128,0.959L344.542,74.97"/>
<path id="KY_Johnson_1_" fill="#AA0000" stroke="#FFFFFF" stroke-width="0.9694" d="M344.494,65.475l0.048,9.495l-0.153-0.124
	l-4.128-0.959l-1.475-0.037l-1.557,0.531l-5.708,2.75l-1.597-0.028l-4.367-7.957l-0.132-6.258l0.414-1.269l0.222-0.41l0.837-0.676
	l0.188-0.019l5.956,1.164l5.11,2.421l2.918,0.969L344.494,65.475"/>
<path id="KY_Magoffin_1_" fill="#D40000" stroke="#FFFFFF" stroke-width="0.9694" d="M325.555,69.147l4.367,7.957l2.738,13.379
	l-1.273-0.816l-16.136-7.904l-1.004-2.433l-0.905-3.273l5.737-8.101l0.133-0.124h1.949l2.283,0.436L325.555,69.147"/>
<path id="KY_Wolfe_1_" fill="#CC2F4A" stroke="#FFFFFF" stroke-width="0.9694" d="M301.616,72.001l0.671,0.977l2.703,1.156
	l5.172,1.635l4.079,3.559l1.007,2.433l-7.187-0.899l-1.306,0.709l-0.258,0.41l-0.132,0.559l0.056,0.376l-0.123,0.754l-0.633,1.229
	l-0.353,0.453l-1.514,0.775l-1.675-0.853l-9.72-3.467l2.854-6.857L301.616,72.001"/>
<path id="KY_Powell_1_" fill="#D40000" stroke="#FFFFFF" stroke-width="0.9694" d="M278.036,70.72l9.741-0.409l7.484,4.642
	l-2.851,6.857l-0.706,0.096l-5.271-1.226l-3.918-0.252l-3.357-2.107l-2.11-1.936L278.036,70.72"/>
<path id="KY_Clark_1_" fill="#CC2F4A" stroke="#FFFFFF" stroke-width="0.9694" d="M271.035,60.596l7.001,10.124l-0.986,5.665
	l-3.96-0.409l-12.838-0.816l1.128-10.588L271.035,60.596"/>
<path id="KY_Montgomery_1_" fill="#CC2F4A" stroke="#FFFFFF" stroke-width="0.9694" d="M275.381,55.468l2.606,2.337l2.55,0.366
	l0.541,0.453l2.833,2.445l3.255,3.672l0.417,0.8l0.191,4.774l-9.741,0.409l-7.001-10.125L275.381,55.468"/>
<path id="KY_Menifee_1_" fill="#D40000" stroke="#FFFFFF" stroke-width="0.9694" d="M299.848,60.943l3.316,0.594l-1.551,10.464
	l-6.354,2.952l-7.485-4.642l-0.191-4.774L299.848,60.943"/>
<path id="KY_Morgan_1_" fill="#D40000" stroke="#FFFFFF" stroke-width="0.9694" d="M323.425,60.578l2.001,2.311l0.132,6.258
	l-2.113-0.88l-2.281-0.436h-1.949l-0.132,0.124l-5.737,8.101l0.902,3.273l-4.079-3.558l-5.173-1.635l-2.703-1.156l-0.67-0.977
	l1.548-10.464l7.619-5.823l12.645,4.854"/>
<path id="KY_Rowan_1_" fill="#E27F90" stroke="#FFFFFF" stroke-width="0.9694" d="M305.279,44.221l5.765,6.88l-0.259,4.612
	l-7.62,5.823l-3.316-0.594l-7.771-7.201l2.55-1.946l0.837-0.845l2.103-2.995l-0.457-1.065l0.487-2.589l1.75-3.047L305.279,44.221"/>
<path id="KY_Bath_1_" fill="#CC2F4A" stroke="#FFFFFF" stroke-width="0.9694" d="M280.841,48.574l0.372-0.399l0.218-0.019
	l4.747,0.224l0.522,0.274l1.206,0.853l1.626,2.933l2.13,2.347l0.323-0.471l0.083-0.581l7.773,7.201l-12.262,4.594l-0.417-0.799
	l-3.255-3.672l-2.833-2.445l-0.541-0.453l-2.55-0.366l-2.606-2.337L280.841,48.574"/>
<path id="KY_Nicholas_1_" fill="#CC2F4A" stroke="#FFFFFF" stroke-width="0.9694" d="M273.337,40.976l7.507,7.6l-5.46,6.891
	l-11.896-9.291l3.745-5.691L273.337,40.976"/>
<path id="KY_Fleming_1_" fill="#D40000" stroke="#FFFFFF" stroke-width="0.9694" d="M288.994,33.942l10.347,7.309l-1.75,3.047
	l-0.487,2.589l0.458,1.065l-2.103,2.995l-0.838,0.845l-2.553,1.946l-0.083,0.581l-0.323,0.471l-2.13-2.347l-1.626-2.933
	l-1.206-0.853l-0.522-0.275l-4.747-0.223l-0.218,0.018l-0.372,0.399l-7.506-7.601l1.981-3.397l3.727,1.698l6.278-3.612
	L288.994,33.942"/>
<path id="KY_Robertson_1_" fill="#D40000" stroke="#FFFFFF" stroke-width="0.9694" d="M271.539,31.969l3.777,5.61l-1.981,3.397
	l-6.106-0.491l-3.616-5.208L271.539,31.969"/>
<path id="KY_Bracken_1_" fill="#D40000" stroke="#FFFFFF" stroke-width="0.9694" d="M274.364,21.221l-2.822,10.747l-7.924,3.306
	l-2.331-1.415l-3.14-14.321l9.02,2.4L274.364,21.221"/>
<path id="KY_Mason_1_" fill="#CC2F4A" stroke="#FFFFFF" stroke-width="0.9694" d="M287.823,27.461l1.174,6.481l-3.673,1.724
	l-6.279,3.613l-3.726-1.697l-3.778-5.61l2.822-10.747l1.675,0.204l0.59,0.202l0.304,0.234l4.281,4.143l3.805,1.771L287.823,27.461"
	/>
<path id="KY_Lewis_1_" fill="#AA0000" stroke="#FFFFFF" stroke-width="0.9694" d="M316.823,18.519l-4.66,13.825l-2.197,7.37
	l0.533,2.399L310.3,42.54l-1.961,1.05l-3.061,0.63l-5.935-2.97l-10.347-7.309l-1.174-6.481l0.261-2.073l0.38-0.578l0.503-0.329
	l3.818-1.558l0.598-0.124l0.417,0.047h0.064l1.972,0.443l5.231,1.174l0.123,0.062l1.646,0.717l0.113,0.037l2.786,1.949
	L316.823,18.519"/>
<path id="KY_Boyd_1_" fill="#CC2F4A" stroke="#FFFFFF" stroke-width="0.9694" d="M340.584,33.552l1.037,10.306l-9.168,1.412
	l-2.294-7.468l6.192-8.691L340.584,33.552"/>
<path id="KY_Greenup_1_" fill="#D40000" stroke="#FFFFFF" stroke-width="0.9694" d="M328.514,26.251l7.838,2.856l-6.192,8.692
	l-4.804-0.879l-7.302-3.042l-2.024-0.658l-3.864-0.878l4.661-13.825v-0.029l0.867-0.366l4.06-1.723l1.319-0.542l0.067-0.01h0.248
	l0.498,0.205l0.224,0.223l0.067,0.106l0.123,0.176l0.087,0.143l0.026,0.087l0.021,0.081l0.084,0.347l0.048,0.417v0.055l0.021,0.037
	l-0.051,0.702l0.466,1.848l1.362,3.84l0.113,0.23l0.323,0.652l0.401,0.424l0.048,0.074l1.048,0.647L328.514,26.251"/>
<path id="KY_Carter_1_" fill="#D40000" stroke="#FFFFFF" stroke-width="0.9694" d="M312.163,32.344l3.863,0.878l2.024,0.658
	l7.302,3.042l4.804,0.879l2.294,7.468l-5.757,4.864l-0.818,0.41l-1.531,0.018l-3.775-0.72l-2-1.35l-3.743-1.947l-1.192-0.233
	l-2.596,4.794l-5.765-6.88l3.062-0.63l1.96-1.05l0.199-0.428l-0.533-2.399L312.163,32.344"/>
<path id="KY_Lawrence_1_" fill="#D40000" stroke="#FFFFFF" stroke-width="0.9694" d="M332.453,45.267l9.168-1.412l-1.228,5.022
	v0.018l0.19,0.514l0.447,1.022v0.047l0.872,0.739l0.942,0.184l0.135,0.037l7.725,6.899l0.064,0.08l0.021,0.047v0.329l-1.265,2.052
	l-5.032,4.631l-3.425-0.406l-2.919-0.969l-5.11-2.421l-5.956-1.164l-0.188,0.019l-0.837,0.676l-0.221,0.41l-0.415,1.269l-2-2.322
	l3.273-10.435L332.453,45.267"/>
<path id="KY_Martin_1_" fill="#AA0000" stroke="#FFFFFF" stroke-width="0.9694" d="M354.615,65.227l5.089,6.444l-11.082,4.882
	l-4.079-1.583l-0.048-9.495l5.032-4.63L354.615,65.227"/>
<path id="KY_Pike_1_" fill="#AA0000" stroke="#FFFFFF" stroke-width="0.9694" d="M348.621,76.553l11.082-4.882l-0.019,0.037
	l0.095,0.292l1.836,2.641l9.997,6.288h0.008l3.567,1.21l1.949-0.42l1.912-0.532L364.62,97.394l-1.845,2.222l-7.42,3.913
	l-1.917,1.298l-0.553,0.347l-1.96-1.645l-1.615-0.962h-0.296l-1.379,1.051l-1.408,0.061l-2.237-1.83l0.972-0.944l0.458-0.347
	l0.837-1.047l2.3-5.147l0.975-3.716l-0.051-1.291l-0.827-1.822l-1.445-1.335l-0.951-8.455l0.219-0.312l0.837-0.472L348.621,76.553"
	/>
<path id="KY_Harrison_1_" fill="#CC2F4A" stroke="#FFFFFF" stroke-width="0.9694" d="M263.615,35.277l3.615,5.208l-3.745,5.691
	l-11.375,6.578l-7.176-11.691l3.529-3.39l12.822-3.814L263.615,35.277"/>
<path id="KY_Bourbon_1_" fill="#CC2F4A" stroke="#FFFFFF" stroke-width="0.9694" d="M252.108,52.755l11.376-6.578l11.895,9.291
	l-4.346,5.128l-9.655,3.972l-6.72-7.611L252.108,52.755"/>
<path id="KY_Madison_1_" fill="#CC2F4A" stroke="#FFFFFF" stroke-width="0.9694" d="M260.249,75.158l12.841,0.816l1.782,16.894
	l-5.005,3.183l-7.389-0.106L251.984,83.38l3.818-5.037L260.249,75.158"/>
<path id="KY_Rockcastle_1_" fill="#AA0000" stroke="#FFFFFF" stroke-width="0.9694" d="M269.865,96.051l-0.151,0.668l0.248,1.501
	l0.942,1.571l1.473,1.932l1.352,3.06l0.768,2.809l-6.117,10.758l-11.928-9.179l1.562-9.556l4.462-3.672L269.865,96.051"/>
<path id="KY_McCreary_1_" fill="#AA0000" stroke="#FFFFFF" stroke-width="0.9694" d="M266.443,130.031l3.12,0.447l-1.379,9.309
	l0.103,0.814l2.902,5.831l1.443,1.665l3.188,2.764l-1.712,0.185l-25.777,2.26l4.006-8.277l3.158-4.649l0.76-3.697L266.443,130.031"
	/>
<path id="KY_Lincoln_1_" fill="#D40000" stroke="#FFFFFF" stroke-width="0.9694" d="M246.515,92.07l11.5,7.546l-1.562,9.557
	l-10.024,6.512l0.237-3.7l-1.247-3.47l-3.842-1.364l-2.967-1.853l-0.771-2.32l0.06-4.804L246.515,92.07"/>
<path id="KY_Garrard_1_" fill="#D40000" stroke="#FFFFFF" stroke-width="0.9694" d="M242.302,81.745l0.92-0.816l0.728-0.234
	l3.575,1.913l0.197,1.368l1.562,1.803l0.74,0.267l0.137-0.077l1.826-2.589l10.492,12.564l-4.461,3.672l-11.5-7.546l-4.833-4.154
	L242.302,81.745"/>
<path id="KY_Jessamine_1_" fill="#CC2F4A" stroke="#FFFFFF" stroke-width="0.9694" d="M243.632,70.384l12.167,7.957l-3.815,5.038
	l-1.825,2.589l-0.138,0.077l-0.74-0.267l-1.559-1.803l-0.199-1.369l-3.576-1.912l-0.727,0.233l-0.921,0.816l-0.019-2.765
	L243.632,70.384"/>
<path id="KY_Woodford_1_" fill="#E27F90" stroke="#FFFFFF" stroke-width="0.9694" d="M239.028,59.469l5.469,4.097l-0.864,6.82
	l-1.35,8.593l-5.032-5.893l-4.429-8.251L239.028,59.469"/>
<path id="KY_Scott_1_" fill="#CC2F4A" stroke="#FFFFFF" stroke-width="0.9694" d="M244.935,41.064l7.176,11.691l2.55,4.206
	l-10.162,6.605l-5.468-4.097l-1.912-9.129l6.85-7.956L244.935,41.064"/>
<path id="KY_Anderson_1_" fill="#D40000" stroke="#FFFFFF" stroke-width="0.9694" d="M224.981,64.963l7.841-0.127l4.429,8.251
	l-3.882,2.18l-5.867,3.591l-0.608,0.304l-0.353-0.037l-0.154-0.168l-6.022,0.282l-1.266-4.266l2.741-4.159L224.981,64.963"/>
<path id="KY_Mercer_1_" fill="#D40000" stroke="#FFFFFF" stroke-width="0.9694" d="M237.25,73.084l5.032,5.893l0.02,2.765
	l-0.62,6.171l-13.479,3.511l-1.817-12.473l0.154,0.168l0.353,0.037l0.608-0.304l5.869-3.591L237.25,73.084"/>
<path id="KY_Boyle_1_" fill="#CC2F4A" stroke="#FFFFFF" stroke-width="0.9694" d="M241.682,87.915l4.833,4.154l-8.618,6.104
	l-9.427,1.192l-0.18-5.112l-0.084-2.827L241.682,87.915"/>
<path id="KY_Casey_1_" fill="#AA0000" stroke="#FFFFFF" stroke-width="0.9694" d="M228.47,99.368l9.427-1.194l-0.06,4.804
	l0.771,2.32l2.967,1.853l3.843,1.364l1.246,3.47l-0.237,3.7l-7.988,8.144l-7.53-3.325l-6.917-6.679l3.759-6.56L228.47,99.368"/>
<path id="KY_Pulaski_1_" fill="#AA0000" stroke="#FFFFFF" stroke-width="0.9694" d="M246.429,115.681l10.024-6.512l11.928,9.179
	l-1.938,11.683l-10.186,6.65l-13.689-6.24l-4.127-6.616L246.429,115.681"/>
<path id="KY_Wayne_1_" fill="#D40000" stroke="#FFFFFF" stroke-width="0.9694" d="M256.254,136.681l-0.76,3.697l-3.158,4.649
	l-4.006,8.277l-0.372,0.019l-9.168,0.39l-1.058-0.203l-0.568-0.285l-0.239-0.481l-1.295-3.484l-0.133-0.555l-0.048-0.906
	l0.135-0.771l-1.998-5.033l-1.341-2.169l10.31-9.387L256.254,136.681"/>
<path id="KY_Russell_1_" fill="#AA0000" stroke="#FFFFFF" stroke-width="0.9694" d="M230.907,120.5l7.53,3.325l4.13,6.616
	l-10.319,9.386l-2.459,2.144l-4.105-2.25l-1.825-0.708l-0.262,0.151l0.043,0.294l1.15,1.44l-0.666,0.24l-0.42-0.079l-0.32-0.187
	l-1.876-2.215l1.94-1.819l0.789-4.358l1.693-2.355l3.11-5.785L230.907,120.5"/>
<path id="KY_Clinton_1_" fill="#AA0000" stroke="#FFFFFF" stroke-width="0.9694" d="M224.79,140.895l-1.15-1.44l-0.043-0.293
	l0.262-0.152l1.822,0.709l4.108,2.25l2.459-2.144l1.338,2.169l2,5.033l-0.123,0.771l0.037,0.906l0.132,0.555l1.295,3.484
	l0.237,0.481l0.571,0.285l1.058,0.203l-15.411,0.908l-0.97,0.162L224.79,140.895"/>
<path id="KY_Cumberland_1_" fill="#AA0000" stroke="#FFFFFF" stroke-width="0.9694" d="M223.448,136.831l-1.94,1.822l1.876,2.214
	l0.32,0.188l0.42,0.079l0.666-0.241l-2.378,13.887l-6.936,1.174l-9.33-10.948l6.325-7.814L223.448,136.831"/>
<path id="KY_Adair_1_" fill="#AA0000" stroke="#FFFFFF" stroke-width="0.9694" d="M223.99,113.821l6.917,6.679l-1.866,3.834
	l-3.11,5.785l-1.693,2.356l-0.789,4.355l-10.977,0.367l-4.896-9.665l8.008-5.777L223.99,113.821"/>
<path id="KY_Taylor_1_" fill="#D40000" stroke="#FFFFFF" stroke-width="0.9694" d="M208.077,106.293l0.095-0.162l0.961-0.38
	l4.617-0.41l10.991-0.106l3.01,2.027l-3.759,6.56l-8.408,7.932l-4.602-6.124l-2.792-3.29l-5.754-3.538l-0.15-0.506l-0.02-1.679
	L208.077,106.293"/>
<path id="KY_Marion_1_" fill="#CC2F4A" stroke="#FFFFFF" stroke-width="0.9694" d="M209.37,90.344l1.865,2.374l2.16,1.868
	l3.771,0.888l11.12-1.217l0.181,5.111l-0.722,7.896l-3.011-2.027l-10.99,0.106l-4.617,0.41l-0.962,0.379l-0.094,0.162l-3.357-4.96
	L209.37,90.344"/>
<path id="KY_Washington_1_" fill="#D40000" stroke="#FFFFFF" stroke-width="0.9694" d="M226.386,78.954l1.815,12.473l0.086,2.827
	l-11.12,1.218l-3.771-0.889l-2.16-1.868l-1.865-2.374l10.993-11.105L226.386,78.954"/>
<path id="KY_Spencer_1_" fill="#D40000" stroke="#FFFFFF" stroke-width="0.9694" d="M205.359,65.947l16.482,4.864l-2.74,4.159
	l-15.826,0.517l2.046-7.799L205.359,65.947"/>
<path id="KY_Shelby_1_" fill="#CC2F4A" stroke="#FFFFFF" stroke-width="0.9694" d="M210.713,52.864l14.028-0.188l0.239,12.287
	l-3.14,5.849l-16.482-4.864l-3.092-7.875l0.539-0.666l0.447-0.274l0.829-0.312l1.847-0.516l1.823,0.125l1.295-0.534L210.713,52.864"
	/>
<path id="KY_Henry_1_" fill="#CC2F4A" stroke="#FFFFFF" stroke-width="0.9694" d="M214.669,38.866l4.45-1.145l11.661,13.041
	l-6.042,1.912l-14.027,0.187l-2.456-7.762L214.669,38.866"/>
<path id="KY_Owen_1_" fill="#D40000" stroke="#FFFFFF" stroke-width="0.9694" d="M225.417,33.168l6.744-4.213l1.312,5.911
	l8.062,6.715l0.939,0.381l1.494,0.417l-6.85,7.955l-6.344,0.425l-11.652-13.041L225.417,33.168"/>
<path id="KY_Grant_1_" fill="#D40000" stroke="#FFFFFF" stroke-width="0.9694" d="M239.752,23.211l4.146,0.143l4.566,14.32
	l-3.529,3.39l-0.961,1.317l-1.503-0.417l-0.932-0.381l-8.069-6.715l-1.311-5.911l5.659-4.038L239.752,23.211"/>
<path id="KY_Pendleton_1_" fill="#D40000" stroke="#FFFFFF" stroke-width="0.9694" d="M258.147,19.539l3.14,14.321l-12.819,3.814
	l-4.566-14.32l5.366-1.467l8.417-5.03L258.147,19.539"/>
<path id="KY_Campbell_1_" fill="#E27F90" stroke="#FFFFFF" stroke-width="0.9694" d="M252.355,8.686l5.326,8.169l-8.417,5.03
	l-6.44-16.481L252.355,8.686"/>
<path id="KY_Kenton_1_" fill="#E27F90" stroke="#FFFFFF" stroke-width="0.9694" d="M242.823,5.403l6.44,16.481l-5.366,1.467
	l-4.146-0.143l-2.415-15.938L242.823,5.403"/>
<path id="KY_Boone_1_" fill="#CC2F4A" stroke="#FFFFFF" stroke-width="0.9694" d="M237.337,7.271l2.415,15.94l-1.931,1.706
	l-6.914-3.921l-0.657-2.567l-4.852-7.22l2.237-4.711l9.703,0.785"/>
<path id="KY_Gallatin_1_" fill="#D40000" stroke="#FFFFFF" stroke-width="0.9694" d="M230.907,20.998l6.914,3.921l-5.66,4.038
	l-6.744,4.214l-5.135-5.458L230.907,20.998"/>
<path id="KY_Carroll_1_" fill="#CC2F4A" stroke="#FFFFFF" stroke-width="0.9694" d="M212.291,32.812l7.988-5.104l5.135,5.458
	l-6.295,4.553l-4.45,1.146l-9.16-8.251L212.291,32.812"/>
<path id="KY_Trimble_1_" fill="#D40000" stroke="#FFFFFF" stroke-width="0.9694" d="M205.509,30.618l9.16,8.25l-6.411,6.233
	l-5.991-1.244l-0.155-3.699L205.509,30.618"/>
<path id="KY_Oldham_1_" fill="#CC2F4A" stroke="#FFFFFF" stroke-width="0.9694" d="M208.258,45.102l2.455,7.762l-1.663,3.029
	l-1.296,0.534l-1.822-0.125l-1.847,0.516l-0.83,0.311l-0.444,0.275l-0.541,0.666l-8.96-4.738l8.96-9.476L208.258,45.102"/>
<path id="KY_Bullitt_1_" fill="#D40000" stroke="#FFFFFF" stroke-width="0.9694" d="M205.321,67.688l-2.046,7.799l-3.993,6.276
	l0.466,0.391l-0.075,0.124l-2.806,3.199l-1.56,1.049l-2.129,0.783l-0.83-0.044l-11.065-9.993l1.448-1.921l1.465-1.012l7.515-3.39
	h7.676L205.321,67.688"/>
<path id="KY_Nelson_1_" fill="#CC2F4A" stroke="#FFFFFF" stroke-width="0.9694" d="M219.101,74.97l1.266,4.266l-10.994,11.105
	l-4.652,10.989l-1.693,1.926l-0.186,0.129l-2.504-0.82l-0.132-1.11l0.086-1.822l0.083-0.906l1.037-1.105l-1.12-4.125l-0.458-0.3
	l-3.425-1.397l-0.702-0.125l-3.361-4.407l0.826,0.044l2.133-0.783l1.559-1.049l2.806-3.199l0.075-0.124l-0.466-0.391l3.993-6.276
	L219.101,74.97"/>
<path id="KY_Larue_1_" fill="#D40000" stroke="#FFFFFF" stroke-width="0.9694" d="M195.703,91.676l0.702,0.124l3.423,1.397
	l0.457,0.3l1.123,4.125l-1.036,1.106l-0.087,0.906l-0.083,1.821l0.132,1.111l2.504,0.82l0.186-0.127l1.693-1.929l3.358,4.961
	l-5.809,0.321l-3.292,3.174l-11.749,0.113l0.154-6.221l3.319-4.267l2.055-2.417L195.703,91.676"/>
<path id="KY_Green_1_" fill="#AA0000" stroke="#FFFFFF" stroke-width="0.9694" d="M198.975,109.788l3.292-3.174l0.02,1.678
	l0.15,0.506l5.754,3.538l2.792,3.29l4.602,6.124l-8.008,5.778l-8.408-3.468L198.975,109.788"/>
<path id="KY_Metcalfe_1_" fill="#D40000" stroke="#FFFFFF" stroke-width="0.9694" d="M199.165,124.066l8.409,3.467l4.897,9.665
	l-6.327,7.814l-7.268-0.647l-1.664-9.647l-0.858-3.591l-0.904-2.374l-0.454-1.647l1.407-2.053L199.165,124.066"/>
<path id="KY_Monroe_1_" fill="#AA0000" stroke="#FFFFFF" stroke-width="0.9694" d="M198.88,144.362l7.27,0.648l9.33,10.947
	l-17.539,1.569l-9.392,0.534l-0.659-5.537L198.88,144.362"/>
<path id="KY_Simpson_1_" fill="#CC2F4A" stroke="#FFFFFF" stroke-width="0.9694" d="M155.335,146.121l1.736,2.979l9.214,0.489
	l-0.06,1.842l0.522,7.428l-7.507,1.727h-10.016L155.335,146.121"/>
<path id="KY_Allen_1_" fill="#D40000" stroke="#FFFFFF" stroke-width="0.9694" d="M177.06,141.01l10.826,11.515l0.659,5.537
	l-11.435,0.453l-10.36,0.347l-0.522-7.428l4.914-4.839l1.488-2.215l2.862-3.092L177.06,141.01"/>
<path id="KY_Barren_1_" fill="#D40000" stroke="#FFFFFF" stroke-width="0.9694" d="M196.406,125.052l-1.409,2.053l0.456,1.647
	l0.905,2.374l0.858,3.591l1.664,9.647l-10.997,8.161l-10.823-11.515l1.807-7.731l2.13-6.519L196.406,125.052"/>
<path id="KY_Hart_1_" fill="#D40000" stroke="#FFFFFF" stroke-width="0.9694" d="M187.226,109.899l11.749-0.114l0.19,14.278
	l-2.76,0.987l-15.409,1.705l-6.109-9.424l4.682-7.253L187.226,109.899"/>
<path id="KY_Hardin_1_" fill="#CC2F4A" stroke="#FFFFFF" stroke-width="0.9694" d="M180.711,76.84l0.568,0.435l11.066,9.993
	l3.361,4.407l-2.95,5.32l-2.054,2.417l-3.32,4.267l-0.153,6.221l-7.654,0.18l-0.792-2.898l-3.137-3.505l-0.953-0.078l-0.858,0.445
	l-1.333,0.493l-5.097-1.81l4.769-12.682l6.933-1.84l1.147-3.546l-1.917-7.07L180.711,76.84"/>
<path id="KY_Meade_1_" fill="#D40000" stroke="#FFFFFF" stroke-width="0.9694" d="M154.26,77.062l9.902-5.939l-0.153,1.652v0.109
	l0.019,0.407l0.02,0.27l0.048,0.106l0.348,1.145l0.291,0.408l0.107,0.168l0.242,0.134l2.214,1.377l2.135,0.784l0.35,0.037
	l7.087,0.329l1.462-0.456l1.917,7.07l-1.146,3.547l-6.934,1.84l-18.198-12.943L154.26,77.062"/>
<path id="KY_Hancock_1_" fill="#CC2F4A" stroke="#FFFFFF" stroke-width="0.9694" d="M130.822,86.093l7.639-4.74l8.731,8.474
	l-0.484,0.435l-0.304,2.579l3.583,7.86l-0.846-0.304l-9.539-3.654l-0.026-3.197l-2.104-2.732l-3.018-2.916l-3.843,0.063
	L130.822,86.093"/>
<path id="KY_Breckinridge_1_" fill="#D40000" stroke="#FFFFFF" stroke-width="0.9694" d="M147.192,89.825l0.38,0.019l0.649-0.205
	l1.364-0.986l3.199-6.828l-0.366-3.504l0.081-0.638l0.199-0.27l0.269-0.142l1.005-0.168l18.198,12.944l-4.769,12.682l-0.541,0.372
	l-4.106,2.115l-4.919-1.741l-0.048-0.235l-0.59-0.569l-1.336-0.592l-0.213,0.018l-1.122,0.577l-1.056,1.134l-1.47,2.088l-2.86-5.494
	l0.846,0.304l-3.583-7.861l0.304-2.579L147.192,89.825"/>
<path id="KY_Grayson_1_" fill="#D40000" stroke="#FFFFFF" stroke-width="0.9694" d="M152.002,105.892l1.47-2.088l1.056-1.134
	l1.122-0.577l0.213-0.018l1.336,0.593l0.592,0.569l0.046,0.235l4.919,1.741l4.109-2.116l0.538-0.372l5.097,1.81l1.333-0.493
	l0.858-0.445l0.953,0.078l3.137,3.505l0.792,2.898l-4.683,7.253l-15.252,2.338l-7.525-3.728L152.002,105.892"/>
<path id="KY_Edmonson_1_" fill="#D40000" stroke="#FFFFFF" stroke-width="0.9694" d="M159.635,119.673l15.253-2.339l6.109,9.425
	l-2.13,6.52l-14.839-5.042L159.635,119.673"/>
<path id="KY_Warren_1_" fill="#E27F90" stroke="#FFFFFF" stroke-width="0.9694" d="M164.028,128.234l14.839,5.041l-1.807,7.731
	l-1.567,0.275l-2.862,3.093l-1.488,2.215l-4.914,4.839l0.06-1.843l-9.214-0.488l-1.736-2.977l-3.843-6.587l1.713-10.242l7.484-0.202
	L164.028,128.234"/>
<path id="KY_Butler_1_" fill="#D40000" stroke="#FFFFFF" stroke-width="0.9694" d="M152.112,115.947l7.525,3.728l4.394,8.562
	l-3.339,0.855l-7.479,0.203l-1.718,10.239l-13.647-2.886l1.206-8.614l3.667-5.176l3.163-1.308L152.112,115.947"/>
<path id="KY_Logan_1_" fill="#D40000" stroke="#FFFFFF" stroke-width="0.9694" d="M137.844,136.646l13.647,2.885l3.843,6.59
	l-6.106,14.464l-14.771,1.654l-2.103-24.634L137.844,136.646"/>
<path id="KY_Todd_1_" fill="#D40000" stroke="#FFFFFF" stroke-width="0.9694" d="M122.053,137.871l10.301-0.266l2.105,24.634
	l-2.7,0.291l-10.991,1.008L122.053,137.871"/>
<path id="KY_Muhlenberg_1_" fill="#D40000" stroke="#FFFFFF" stroke-width="0.9694" d="M127.941,116.899l11.106,11.132l-1.206,8.615
	l-5.49,0.959l-10.301,0.266l-4.136-4.694l0.811-1.665l-3.29-3.796l-0.601-3.28l3.586-5.254L127.941,116.899"/>
<path id="KY_Ohio_1_" fill="#D40000" stroke="#FFFFFF" stroke-width="0.9694" d="M139.602,96.742l9.539,3.654l2.86,5.494
	l0.11,10.055l-6.23,5.601l-3.164,1.308l-3.667,5.176l-11.106-11.133l2.154-8.794l4.824-4.225l2.726-5.251L139.602,96.742"/>
<path id="KY_Daviess_1_" fill="#CC2F4A" stroke="#FFFFFF" stroke-width="0.9694" d="M115.169,89.338l1.758,1.145l7.173,4.472
	l3.67-6.194l3.053-2.667l-0.207,1.869l3.842-0.062l3.019,2.916l2.103,2.731l0.027,3.197l-1.955,1.888l-2.722,5.252l-4.828,4.226
	l-18.896-5.638L115.169,89.338"/>
<path id="KY_McLean_1_" fill="#D40000" stroke="#FFFFFF" stroke-width="0.9694" d="M111.202,102.469l18.896,5.636l-2.154,8.795
	l-9.521,2.285l-4.938-10.196l-6.375-4.064L111.202,102.469"/>
<path id="KY_Hopkins_1_" fill="#D40000" stroke="#FFFFFF" stroke-width="0.9694" d="M113.483,108.988l4.938,10.196l-3.586,5.254
	l0.601,3.279l3.29,3.796l-0.811,1.666l-3.357,1.761l-5.671,2.053l-8.112-1.946l-7.668-11.317l8.764-6.393l6.083-2.971
	L113.483,108.988"/>
<path id="KY_Christian_1_" fill="#CC2F4A" stroke="#FFFFFF" stroke-width="0.9694" d="M117.918,133.177l4.136,4.694l-1.285,25.667
	l-15.188,1.485l-2.637,0.273l0.237-5.021l-0.35-14.526l-3.861-1.797l1.807-8.908l8.112,1.946l5.671-2.052L117.918,133.177"/>
<path id="KY_Trigg_1_" fill="#D40000" stroke="#FFFFFF" stroke-width="0.9694" d="M98.968,143.952l3.861,1.797l0.35,14.526
	l-0.236,5.021l-7.924,0.87l0.019-1.814l-8.161-0.142l-2.929,0.162l-2.364-3.895l-2.93-6.917l13.43-6.549L98.968,143.952"/>
<path id="KY_Lyon_1_" fill="#D40000" stroke="#FFFFFF" stroke-width="0.9694" d="M75.398,137.213l4.631-2.293l2.703,0.089
	l3.883,6.025l5.468,5.979l-13.43,6.549l-4.72-6.436L75.398,137.213"/>
<path id="KY_Caldwell_1_" fill="#D40000" stroke="#FFFFFF" stroke-width="0.9694" d="M93.109,123.726l7.665,11.317l-1.807,8.908
	l-6.885,3.063l-5.468-5.978l-3.883-6.025l-2.703-0.089l13.524-12.927L93.109,123.726"/>
<path id="KY_Webster_1_" fill="#D40000" stroke="#FFFFFF" stroke-width="0.9694" d="M107.11,104.924l6.375,4.064l-5.535,5.375
	l-6.077,2.971l-8.761,6.393l0.444-1.733l-7.047-5.423l8.907-10.128L107.11,104.924"/>
<path id="KY_Henderson_1_" fill="#CC2F4A" stroke="#FFFFFF" stroke-width="0.9694" d="M107.643,87.443l7.525,1.892l-3.967,13.13
	l-4.092,2.453l-11.691,1.521L84.504,91.655l11.134-0.826L107.643,87.443"/>
<path id="KY_Union_1_" fill="#D40000" stroke="#FFFFFF" stroke-width="0.9694" d="M80.118,98.113l4.386-6.454l10.915,14.785
	l-8.906,10.128l-6.459-0.994l-3.923-3.799l-0.404-0.676l-1.05-2.665l-0.029-0.063l-0.256-1.324l-0.032-0.07l0.067-0.41l0.266-0.648
	l0.063-0.134l0.398-0.63l0.794-1.397l0.038-0.027l2.283-1.547l0.603-0.604l0.372-0.63l0.237-0.593L80.118,98.113"/>
<path id="KY_Crittenden_1_" fill="#AA0000" stroke="#FFFFFF" stroke-width="0.9694" d="M86.51,116.57l7.044,5.423L80.029,134.92
	l-4.631,2.293l-9.499-14.587l1.244-1.549l0.84-0.729l0.043-0.018l0.242-0.145l1.188-0.676l0.107-0.018l0.308-0.089l0.854-0.223
	l1.036-0.205l6.847-1.349l0.507-0.106l0.942-1.007v-0.939L86.51,116.57"/>
<path id="KY_Livingston_1_" fill="#D40000" stroke="#FFFFFF" stroke-width="0.9694" d="M65.896,122.626l9.499,14.587l-1.462,9.913
	l-12.251-1.493l-4.214-2.933l3.622,0.364l0.368-0.061l1.15-0.474l0.584-1.521l0.727-3.263l-1.402-2.907l-0.611-0.552l-0.668-0.354
	l-2.081-2.339l-0.426-1.271l0.038-0.39v-0.02l1.408-5.786l0.256-0.576l0.638-0.777l0.439-0.281l0.347-0.261l0.859-0.364l0.302-0.116
	L65.896,122.626"/>
<path id="KY_Calloway_1_" fill="#CC2F4A" stroke="#FFFFFF" stroke-width="0.9694" d="M62.881,161.69l18.705-1.212l2.363,3.895
	l1.81,10.606l-21.798,1.422L62.881,161.69"/>
<path id="KY_Marshall_1_" fill="#D40000" stroke="#FFFFFF" stroke-width="0.9694" d="M61.682,145.633l12.251,1.493l4.72,6.436
	l2.93,6.917l-18.705,1.212l-0.891-11.317L61.682,145.633"/>
<path id="KY_Graves_1_" fill="#D40000" stroke="#FFFFFF" stroke-width="0.9694" d="M61.987,150.373l0.891,11.317l1.083,14.711
	l-1.354,0.081l-15,1.015l-1.142-15.977l-0.808-10.203L61.987,150.373"/>
<path id="KY_McCracken_1_" fill="#CC2F4A" stroke="#FFFFFF" stroke-width="0.9694" d="M38.614,135.214l18.855,7.488l4.214,2.934
	l0.305,4.74l-16.333,0.941l-0.175-0.456l-7.138-15.566L38.614,135.214"/>
<path id="KY_Carlisle_1_" fill="#AA0000" stroke="#FFFFFF" stroke-width="0.9694" d="M45.657,151.314l0.811,10.204l-15.517,0.354
	l-2.875-1.412l-0.024-0.019v-1.349l0.024-0.03l1.384-0.733l0.03-0.023l1.885-5.866l14.108-1.581L45.657,151.314"/>
<path id="KY_Ballard_1_" fill="#D40000" stroke="#FFFFFF" stroke-width="0.9694" d="M38.342,135.295l7.138,15.566l-14.108,1.582
	l-1.78-2.144l-2.348-4.912L38.342,135.295"/>
<path id="MO_Mississippi" fill="#CC2F4A" stroke="#FFFFFF" stroke-width="0.9694" d="M20.041,149.341l9.553,0.959l1.78,2.144
	l-1.885,5.866l-0.03,0.022l-1.384,0.734l-0.024,0.03v1.349l0.024,0.018l2.875,1.412l-1.928,8.146L21.47,171.6l-10.627-13.367
	L20.041,149.341"/>
<path id="KY_Elliott_1_" fill="#D40000" stroke="#FFFFFF" stroke-width="0.9694" d="M326.697,50.132l-3.273,10.447l-12.642-4.865
	l0.259-4.612l2.596-4.794l1.192,0.232l3.742,1.948l1.998,1.35l3.777,0.72l1.532-0.018L326.697,50.132"/>
<path id="KY_Fayette_1_" fill="#86B6F2" stroke="#FFFFFF" stroke-width="0.9694" d="M254.657,56.961l6.72,7.611l-1.13,10.588
	l-4.448,3.185l-12.167-7.957l0.864-6.821L254.657,56.961"/>
<path id="KY_Franklin_1_" fill="#F2B3BE" stroke="#FFFFFF" stroke-width="0.9694" d="M230.773,50.761l6.343-0.425l1.912,9.13
	l-6.209,5.366l-7.841,0.128l-0.239-12.287L230.773,50.761"/>
<path id="KY_Jefferson_1_" fill="#86B6F2" stroke="#FFFFFF" stroke-width="0.9694" d="M193.306,53.331l8.96,4.738l3.092,7.875
	l-0.041,1.744l-5.934,3.264h-7.677l-7.518,3.39l-1.462,1.012l-1.448,1.921l-0.568-0.435l1.209-10.312l4.563-7.042L193.306,53.331"/>
</svg>
