<?xml version="1.0" encoding="utf-8"?>
<!-- Generator: Adobe Illustrator 16.0.0, SVG Export Plug-In . SVG Version: 6.00 Build 0)  -->
<!DOCTYPE svg PUBLIC "-//W3C//DTD SVG 1.1//EN" "http://www.w3.org/Graphics/SVG/1.1/DTD/svg11.dtd">
<svg version="1.1"
	 id="svg5598" xmlns:svg="http://www.w3.org/2000/svg" xmlns:rdf="http://www.w3.org/1999/02/22-rdf-syntax-ns#" xmlns:cc="http://creativecommons.org/ns#" xmlns:sodipodi="http://sodipodi.sourceforge.net/DTD/sodipodi-0.dtd" xmlns:dc="http://purl.org/dc/elements/1.1/" xmlns:inkscape="http://www.inkscape.org/namespaces/inkscape" inkscape:version="0.48.1 " sodipodi:docname="Louisiana Republican Presidential Primary Election Results by County, 2012.svg" sodipodi:version="0.32" inkscape:output_extension="org.inkscape.output.svg.inkscape"
	 xmlns="http://www.w3.org/2000/svg" xmlns:xlink="http://www.w3.org/1999/xlink" x="0px" y="0px" width="250.406px"
	 height="220.039px" viewBox="0 0 250.406 220.039" enable-background="new 0 0 250.406 220.039" xml:space="preserve">
<defs>
	
	
		<inkscape:perspective  id="perspective5606" inkscape:persp3d-origin="372.04724 : 350.78739 : 1" sodipodi:type="inkscape:persp3d" inkscape:vp_y="0 : 1000 : 0" inkscape:vp_x="0 : 526.18109 : 1" inkscape:vp_z="744.09448 : 526.18109 : 1">
		</inkscape:perspective>
</defs>
<sodipodi:namedview  bordercolor="#666666" pagecolor="#ffffff" objecttolerance="10" borderopacity="1.0" guidetolerance="10" showguides="true" inkscape:cx="125.2028" showgrid="false" inkscape:cy="110.01972" inkscape:zoom="2.3495787" gridtolerance="10000" id="base" inkscape:window-width="1366" inkscape:window-y="-4" inkscape:current-layer="layer1" inkscape:pageopacity="0.0" inkscape:window-height="706" inkscape:window-maximized="1" inkscape:pageshadow="2" inkscape:window-x="-4" inkscape:document-units="px" inkscape:guide-bbox="true">
	</sodipodi:namedview>
<path id="LA_St._Tammany_1_" fill="#D40000" stroke="#FFFFFF" stroke-width="0.9007" d="M180.033,124.344l17.891,1.197l7.188,9.9
	l0.076,0.059l0.281,0.291l2.676,5.443l0.068,0.924l-0.404,1.016l-0.107,0.414l0.031,0.266l1.373,2.601l0.416,0.812l0.939,1.101
	l0.32,0.362l0.111,0.076l0.154,0.099l0.105,0.075l0.084-0.015l1.99-0.123l-4.156,1.704l-0.281-0.174l-2.398-0.788l-8.445-0.667
	l-1,0.395l-4.059,2.436l-4.797-1.82l-6.031-1.258L180.033,124.344"/>
<path id="LA_Washington_1_" fill="#CC2F4A" stroke="#FFFFFF" stroke-width="0.9007" d="M197.119,108.751l4.604-0.322l0.086,1.554
	l-0.525,2.646l-0.432,0.964l-0.266,0.032l-0.35,0.05l-0.105,0.108l-0.559,2.344l-0.65,3.197l-0.52,2.637l-0.477,3.578l-17.891-1.197
	l-0.023-0.885l-3.111-7.415l-1.346-1.122l-0.318-4.739l3.766-0.233L197.119,108.751"/>
<path id="LA_Red_River_1_" fill="#E27F90" stroke="#FFFFFF" stroke-width="0.9007" d="M39.824,53.971l1.82,0.015l10.252,4.094
	l0.505,0.496l1.029,1.554l0.805,2.525l0.021,0.22l-0.228,2.902l-3.935,4.661l-1.769,0.794h-1.699l-1.238-0.436l-0.234-1.653
	l-3.811-2.814l-0.453-0.561l-2.678-4.169l-1.622-5.369l-2.813-2.115L39.824,53.971"/>
<path id="LA_Bienville_1_" fill="#E27F90" stroke="#FFFFFF" stroke-width="0.9007" d="M64.158,35.778l4.581,6.458l-1.063,15.427
	l-5.24,0.121l-10.54,0.296l-10.252-4.094l2.099-8.792l5.723-0.172l3.708-2.368l-0.059-1.245l-1.463-5.229L64.158,35.778"/>
<path id="LA_Lincoln_1_" fill="#E27F90" stroke="#FFFFFF" stroke-width="0.9007" d="M70.381,26.802l3.466-0.099l1.8,0.205
	l1.367,0.305l6.542,3.614l0.174,4.375l0.138,4.368l-8.688,0.313l0.101,2.16l-6.54,0.196l-4.581-6.458L70.381,26.802"/>
<path id="LA_Jackson_1_" fill="#CC2F4A" stroke="#FFFFFF" stroke-width="0.9007" d="M68.74,42.236l6.54-0.196l-0.101-2.16
	l8.69-0.313l0.157,4.031l0.246,0.615l4.303,3.964l0.068,2.168l0.24,6.593l-21.209,0.721L68.74,42.236"/>
<path id="LA_Winn_1_" fill="#D40000" stroke="#FFFFFF" stroke-width="0.9007" d="M67.675,57.663l21.209-0.721l0.423,10.947
	l-1.873,6.648l-10.877,0.371l0.051,2.365l-0.158,2.031l-14.782,0.54l2.624-8.172l0.772-3.511l0.07-0.613l-0.278-3.714l-0.899-3.23
	l-1.523-2.821L67.675,57.663"/>
<path id="LA_Caldwell_1_" fill="#AA0000" stroke="#FFFFFF" stroke-width="0.9007" d="M88.644,50.345l11.701-0.444l6.158,6.046
	l0.932,1.246l0.228,0.414l0.109,1.297l-2.226,1.366l0.998,3.532l0.573,1.15l-4.807,2.437l-13.002,0.5l-0.423-10.947L88.644,50.345"
	/>
<path id="LA_Ouachita_1_" fill="#CC2F4A" stroke="#FFFFFF" stroke-width="0.9007" d="M98.13,27.59l6.837,10.624l-4.622,11.689
	L88.644,50.35l-0.068-2.168l-4.303-3.964l-0.246-0.615l-0.159-4.029l-0.138-4.37l6.457-0.205l1.152-0.356l0.434-0.296l5.495-5.377
	L98.13,27.59"/>
<path id="LA_Richland_1_" fill="#CC2F4A" stroke="#FFFFFF" stroke-width="0.9007" d="M124.453,33.511l-0.414,2.229l-0.498,6.655
	l-6.545,0.35l-1.573,0.917l-3.656,4.359l-1.903,4.396l-3.362,3.533l-6.158-6.047l4.622-11.689l1.536-1.396l2.939-2.091l2.837-0.958
	l2.593-1.303l0.396-0.43l0.581-1.049l0.385-1.189l-0.05-0.19l1.745,0.561l1.834,3.535L124.453,33.511"/>
<path id="LA_Franklin_1_" fill="#D40000" stroke="#FFFFFF" stroke-width="0.9007" d="M123.355,52.569l-2.749,16.251l-1.036-2.851
	l-2.131-1.017l-0.066,0.425l-0.767,1.297l-1.547,1.703l-1.079,0.79l-2.021,0.561l-0.629-0.805l-1.009-1.554l-1.521-1.537
	l-1.068-0.693l-0.613-0.189l-0.573-1.15l-0.998-3.533l2.226-1.366l-0.109-1.297l-0.228-0.415l-0.932-1.245l3.365-3.533l1.9-4.396
	l3.657-4.359l1.572-0.917l6.545-0.35L123.355,52.569"/>
<path id="LA_West_Carroll_1_" fill="#AA0000" stroke="#FFFFFF" stroke-width="0.9007" d="M130.961,11.898l-1.291,2.919l-1.525,4.478
	l-0.195,1.472l-0.646,5.548l-1.258,4.832l-0.399,1.219l-1.192,1.148l-4.695,0.19l-1.835-3.535l-1.742-0.561l1.534-4.322l5.856-12.02
	l0.251-1.07L130.961,11.898"/>
<path id="LA_Morehouse_1_" fill="#E27F90" stroke="#FFFFFF" stroke-width="0.9007" d="M122.792,12.247l1.032-0.054l-0.251,1.077
	l-5.856,12.016l-1.534,4.322l0.05,0.19l-0.385,1.189l-0.581,1.049l-0.396,0.43l-2.593,1.303l-2.837,0.958l-2.939,2.091l-1.536,1.396
	L98.128,27.59l0.189-0.149l0.317-0.684l-0.125-2.644l-1.517-4.307l0.382-6.519L122.792,12.247"/>
<path id="LA_Union_1_" fill="#D40000" stroke="#FFFFFF" stroke-width="0.9007" d="M97.37,13.285l-0.377,6.52l1.517,4.307
	l0.125,2.644l-0.317,0.684l-0.189,0.149l-0.86,1.379l-5.495,5.377l-0.434,0.295l-1.152,0.356l-6.457,0.205l-0.174-4.372
	l-6.542-3.617l-1.367-0.305l-1.8-0.205l-3.466,0.099l-0.425-12.782L97.37,13.285"/>
<path id="LA_Claiborne_1_" fill="#E27F90" stroke="#FFFFFF" stroke-width="0.9007" d="M58.942,14.226l11.015-0.205l0.425,12.782
	l-6.223,8.975l-12.506,0.403l0.103-2.462l-0.633-4.147l-2.126,0.091L48.5,14.509L58.942,14.226"/>
<path id="LA_Webster_1_" fill="#CC2F4A" stroke="#FFFFFF" stroke-width="0.9007" d="M37.971,14.787l10.529-0.28l0.496,15.153
	l2.126-0.09l0.633,4.147l-0.103,2.462l1.463,5.229l0.059,1.245l-3.708,2.367l-5.723,0.173l-2.887,0.045l-0.355-4.379l-0.273-13.213
	l-0.439-5.436L38.6,20.965l-1.473-2.188l-0.778-1.396v-0.759l0.343-1.817L37.971,14.787"/>
<path id="LA_Bossier_1_" fill="#D40000" stroke="#FFFFFF" stroke-width="0.9007" d="M36.69,14.802l-0.343,1.819v0.757l0.778,1.398
	l1.472,2.188l1.189,1.245l0.439,5.436l0.272,13.211l0.356,4.381l2.886-0.048l-2.099,8.794l-1.819-0.015l-3.728-4.843l-4.686-2.503
	l-5.269-16.159l-0.436-2.367l-1.798-12.454l0.066-0.192l0.455-0.386h0.403L36.69,14.802"/>
<path id="LA_De_Soto_1_" fill="#E27F90" stroke="#FFFFFF" stroke-width="0.9007" d="M33.776,54.115l2.813,2.115l1.622,5.369
	l2.678,4.169l0.453,0.561l3.811,2.814L41.62,73.6l-18.541,0.494l-5.961-6.664l-1.361-10.812l3.86-0.076l2.281-1.623l1.487-1.364
	l0.135-0.438l-0.083-0.298l0.115-0.734l2.107-2.488l0.226-0.188l0.617-0.389l0.799-0.172l0.731,0.151l3.448,1.157l0.876,0.654
	l0.974,1.047l0.408,0.615L33.776,54.115"/>
<path id="LA_Sabine_1_" fill="#AA0000" stroke="#FFFFFF" stroke-width="0.9007" d="M23.083,74.092l18.537-0.494l0.145,6.543
	l4.373-0.105l0.319,8.824l4.283-0.132l0.281,8.718l-6.597,0.181l-6.087,4.769l-0.494,1.554l-0.208,2.728l0.104,0.09l-1.992,0.522
	l-0.441-2.592l-0.296-1.638l-1.275-5.572l-3.918-5.684l-4.601-4.83L23.083,74.092"/>
<path id="LA_Natchitoches_1_" fill="#E27F90" stroke="#FFFFFF" stroke-width="0.9007" d="M51.897,58.08l10.54-0.296l1.524,2.821
	l0.898,3.23l0.279,3.714l-0.071,0.613l-0.772,3.511l-2.624,8.172l11.126,9.219l-10.896,8.938l-10.877-0.554l-0.281-8.718
	l-4.283,0.131l-0.319-8.824l-4.373,0.106L41.623,73.6l3.531-4.456l0.234,1.653l1.238,0.436h1.699l1.764-0.794l3.939-4.661
	l0.228-2.902l-0.021-0.22l-0.805-2.525l-1.029-1.554L51.897,58.08"/>
<path id="LA_Grant_1_" fill="#AA0000" stroke="#FFFFFF" stroke-width="0.9007" d="M61.671,79.845l14.782-0.54l0.159-2.031
	l-0.052-2.365l10.879-0.371l0.494,6.345l1.395,3.858l2.015,2.807l1.944,2.13l1.85,0.538l-4.527,1.159l-13.87,3.934l-1.14,0.16
	l-1.296-0.456L74.007,94.8l-0.579-2.577l-0.627-3.162L61.671,79.845"/>
<path id="LA_La_Salle_1_" fill="#AA0000" stroke="#FFFFFF" stroke-width="0.9007" d="M89.309,67.89l13.002-0.5l1.154,30.127
	l-3.38-0.35l-4.954-6.951l-1.848-0.54l-1.944-2.13l-2.015-2.808l-1.396-3.858l-0.495-6.344L89.309,67.89"/>
<path id="LA_Catahoula_1_" fill="#D40000" stroke="#FFFFFF" stroke-width="0.9007" d="M102.311,67.389l4.807-2.437l0.613,0.19
	l1.068,0.693l1.521,1.536l1.009,1.554l0.629,0.805l2.021-0.561l1.079-0.79l1.547-1.703l0.767-1.297l0.066-0.425l2.131,1.017
	l1.031,2.851l1.593,6.459l-5.858,0.727l-0.35,0.321l-4.579,5.512l-0.283,0.492l-1.588,6.453l-0.231,1.433l0.192,7.596l0.145,0.453
	l1.358,1.912l-2.374-1.176l-0.88-0.22l-0.751,0.136l-0.491,0.502l-0.298,0.775l0.416,1.008l0.513,0.622l0.14,0.33l-0.819,0.485
	l-2.03-0.127l-0.197-0.205l-0.764-3.116v-1.675L102.311,67.389"/>
<path id="LA_Concordia_1_" fill="#CC2F4A" stroke="#FFFFFF" stroke-width="0.9007" d="M122.194,75.281l7.058,0.669l-0.674,1.146
	l-0.033,0.037l-4.562,9.173l-0.106,0.205l-0.159,0.341l-0.018,0.03l-1.592,13.047l-1.03,5.391l-1.038,7.822l-1.03,1.5l0.129-1.204
	l-2.927-2.365l0.317-0.751l0.21-0.736l1.142-5.792l-0.491-0.591l-0.781-0.403l-0.221,0.054l-1.432-0.198l-2.025-0.538l-0.97-0.615
	l-0.961-1.325l-1.358-1.912l-0.145-0.454l-0.192-7.598l0.231-1.431l1.592-6.452l0.279-0.494l4.579-5.509l0.35-0.321L122.194,75.281"
	/>
<path id="LA_Avoyelles_1_" fill="#CC2F4A" stroke="#FFFFFF" stroke-width="0.9007" d="M100.085,97.167l3.38,0.35v1.675l0.764,3.116
	l0.197,0.205l2.03,0.127l0.819-0.486l-0.137-0.33l-0.516-0.622l-0.412-1.007l0.292-0.777l0.491-0.501l0.751-0.136l0.88,0.22
	l2.374,1.176l0.961,1.325l0.97,0.615l2.025,0.538l1.432,0.198l0.221-0.054l0.781,0.403l0.491,0.591l-1.142,5.792l-0.21,0.736
	l-0.317,0.751l-1.063,1.336l-2.42,8.658l-17.056,0.682l-3.13-5.701l2.697-1.432l-1.037-6.98l-0.348-9.551l0.387-0.334l0.296-0.121
	l0.174,0.03l2.656,1.245L100.085,97.167"/>
<path id="LA_Rapides_1_" fill="#CC2F4A" stroke="#FFFFFF" stroke-width="0.9007" d="M72.799,89.064l0.627,3.161l0.579,2.577
	l0.296,0.214l1.296,0.455l1.14-0.16l13.871-3.934l4.527-1.157l4.952,6.951L97.373,98.9l-2.657-1.245l-0.174-0.03l-0.296,0.121
	l-0.386,0.334l0.348,9.551l1.036,6.979l-2.697,1.433l-4.337-1.644l-9.135,5.593l-9.669,0.646l-0.386-6.064l-0.489-12.061
	l-2.24-3.176l-0.738-0.356l-3.654-0.978L72.799,89.064"/>
<path id="LA_Vernon_1_" fill="#AA0000" stroke="#FFFFFF" stroke-width="0.9007" d="M51.022,97.448l10.875,0.554l3.654,0.984
	l0.74,0.35l2.24,3.176l0.489,12.061l0.386,6.064l-6.637,0.805l-6.658-0.02l-12.334,0.334l-5.878,0.879l-0.156-15.868l-0.109-0.09
	l0.215-2.728l0.493-1.554l6.088-4.769L51.022,97.448"/>
<path id="LA_Evangeline_1_" fill="#CC2F4A" stroke="#FFFFFF" stroke-width="0.9007" d="M79.075,119.991l9.135-5.593l4.337,1.644
	l3.131,5.702l1.903,3.973l0.109,2.729l0.049,1.926l-1.78,5.401l-1.805,1.556l-6.581,0.242l-1.428,0.266l-0.452,0.504l-1.371,2.275
	l-5.98,0.174l0.075-0.332l0.272-0.28l0.386-0.685l1.247-3.023l-0.095-0.23l-0.577-0.52l-0.364-9.137l-0.069-1.865L79.075,119.991"/>
<path id="LA_Allen_1_" fill="#D40000" stroke="#FFFFFF" stroke-width="0.9007" d="M69.406,120.637l9.669-0.646l0.142,4.732
	l0.069,1.866l0.364,9.135l0.577,0.52l0.093,0.231l-1.245,3.023l-0.386,0.685l-0.272,0.28l-6.201,0.188l-3.428,1.804l-6.855,1.056
	l-5.019,0.865l-0.228-8.71l3.588-0.143l2.922-0.074l-0.214-10.078l-0.213-3.924L69.406,120.637"/>
<path id="LA_Beauregard_1_" fill="#AA0000" stroke="#FFFFFF" stroke-width="0.9007" d="M62.77,121.442l0.213,3.923l0.214,10.077
	l-2.925,0.076l-3.585,0.143l0.228,8.709l0.034,1.039l-10.965,0.334l-0.109-4.375l-4.371,0.1l0.12,4.396l-11.066,0.295l0.048-0.045
	l1.651-1.388l0.174-0.432l0.016-0.265l-0.609-3.117l-1.21-1.454l-0.123-0.138v-0.014l0.487-1.752l6.14-11.561l0.774-3.359
	l5.877-0.879l12.334-0.332L62.77,121.442"/>
<path id="LA_Jefferson_Davis_1_" fill="#D40000" stroke="#FFFFFF" stroke-width="0.9007" d="M78.342,140.794l0.977,19.421
	l-4.807,2.91l-11.182,0.32l-0.052-2.198l4.62-0.266l-0.772-2.221l-1.064-1.297l-4.564-5.071l-4.511-5.832l-0.04-1.15l-0.035-1.039
	l5.02-0.865l6.855-1.055l3.427-1.805l6.202-0.188L78.342,140.794"/>
<path id="LA_Calcasieu_1_" fill="#CC2F4A" stroke="#FFFFFF" stroke-width="0.9007" d="M56.948,145.41l0.041,1.15l4.51,5.832
	l4.564,5.071l1.064,1.297l0.772,2.221l-4.62,0.266l0.052,2.198l-5.717,0.197l-0.023-0.736l-25.681,0.715l-0.064,0.064l0.032-9.664
	l-1.324-7.863l11.065-0.295l-0.12-4.396l4.371-0.1l0.109,4.375L56.948,145.41"/>
<path id="LA_Cameron_1_" fill="#AA0000" stroke="#FFFFFF" stroke-width="0.9007" d="M74.514,163.127l5.339-0.221l0.647,17.11
	l0.063,5.801l-1.577-0.396l-4.002-1.328l-3.622-1.578l-1.989-0.856l-3.064-1.454l-1.446-0.586l-0.058-0.008l-4.997-1.612
	l-3.908-0.95l-2.187-0.271l-1.746,0.016l-9.03,0.695l-2.742,0.364l-4.19,0.636l-2.107,0.326l-2.515,0.598l-0.124,0.055l-0.245,0.09
	l-0.687,0.221l-1.412,0.758l-0.856,0.578l-0.805,0.684l-0.391-11.16l4.989-6.953l0.064-0.064l25.681-0.715l0.024,0.736l5.716-0.197
	L74.514,163.127"/>
<path id="LA_Acadia_1_" fill="#D40000" stroke="#FFFFFF" stroke-width="0.9007" d="M78.342,140.794l5.98-0.175l10.712-0.401
	l3.04,2.048l1.751,5.738v1.098l-5.857,7.801l-3.393,3.874l-0.891,0.622l-0.844,0.386l-0.774,0.266l-8.27-1.698l-0.479-0.139
	L78.342,140.794"/>
<path id="LA_St._Landry_1_" fill="#E27F90" stroke="#FFFFFF" stroke-width="0.9007" d="M112.731,121.062l0.635,0.492l1.657,2.812
	l1.521,3.76l0.195,1.686l-0.21,6.797l-0.477,1.841l1.736,2.374l1.837,2.631l-5.774,0.273l-0.331-0.26l-2.165-0.773l-2.596,1.139
	l-2.449,1.509l-6.486,3.759v-1.098l-1.753-5.738l-3.039-2.049l-10.711,0.402l1.371-2.275l0.448-0.504l1.431-0.266l6.582-0.242
	l1.802-1.556l1.783-5.401l-0.049-1.925l-0.109-2.729l-1.903-3.973L112.731,121.062"/>
<path id="LA_Pointe_Coupee_1_" fill="#E27F90" stroke="#FFFFFF" stroke-width="0.9007" d="M115.151,112.405l3.989,1.031
	l-0.129,1.204l0.277,5.526l0.107,0.28l0.319,0.296l0.258,0.145l4.721,2.463l6.914,1.299l0.227,0.105l0.818,1.219l1.334,3.572
	l-6.246,8.392l-9.308,0.421l-2.38,0.091l0.477-1.841l0.21-6.797l-0.195-1.686l-1.521-3.758l-1.657-2.813l-0.635-0.492
	L115.151,112.405"/>
<path id="LA_West_Baton_Rouge_1_" fill="#E27F90" stroke="#FFFFFF" stroke-width="0.9007" d="M133.988,129.545l1.115,0.239
	l0.334,0.159l7.523,15.959l-7.326,0.402l-1.682-2.114l-4.758-5.171l-1.453-1.083L133.988,129.545"/>
<path id="LA_Lafayette_1_" fill="#CC2F4A" stroke="#FFFFFF" stroke-width="0.9007" d="M99.823,149.102l6.489-3.759l2.251,14.679
	l-0.539,1.963l-4.48-1.804l-2.76-1.925l-3.601-1.189l-3.221-0.159L99.823,149.102"/>
<path id="LA_Vermilion_1_" fill="#D40000" stroke="#FFFFFF" stroke-width="0.9007" d="M108.027,161.983l0.265,11.491l-2.781,1.261
	l-0.891,0.505l-2.15,1.47l-1.562,1.463l-0.174,0.978l0.805,1.791l0.979,1.909l0.805,0.121l4.165,0.121l-1.803,1.631l-0.231-0.129
	h-2.604l-2.251,0.33h-0.034l-2.315,1.049l-1.663,1.229l-1.137,0.318l-0.107,0.018l-0.274,0.016l-0.777,0.049h-0.208l-10.931-1.43
	l-2.523-0.348h-0.068l-0.063-5.808l-0.648-17.11l-5.339,0.221l4.807-2.909l0.479,0.138l8.271,1.699l0.774-0.266l0.844-0.387
	l0.893-0.621l3.39-3.874l3.222,0.159l3.601,1.189l2.759,1.925L108.027,161.983"/>
<path id="LA_Iberia_1_" fill="#CC2F4A" stroke="#FFFFFF" stroke-width="0.9007" d="M107.489,183.094l3.231-1.172l1.038-0.23
	l1.451,0.213l6.857,3.023l0.12,0.19l-0.083,0.335l-2.419,3.381l-0.506,0.311l-1.697,0.522l-0.734-0.207l-8.392-4.022l-0.668-0.712
	L107.489,183.094 M133.814,159.578l6.346,1.367l-1.205,2.766l-9.363,1.22l-6.608,0.841l-3.52,5.126l-6.893,6.527l-4.283-3.951
	l-0.264-11.491l0.539-1.963l1.895-0.041l6.07-2.074l0.805-0.496l0.579-0.149l1.24-0.06l1.554,0.34l0.387,0.13l7.542,2.19
	L133.814,159.578"/>
<path id="LA_Assumption_1_" fill="#CC2F4A" stroke="#FFFFFF" stroke-width="0.9007" d="M151.342,158.321l3.811,7.863l-4.754,9.771
	l-3.082,4.586l-0.943-3.602l0.105-3.222l-0.035-1.886l-0.332-0.652l-0.545-0.561l-0.887-0.471h-0.455l-1.895-0.371l-0.645-0.631
	l-2.363-4.486l-0.365-0.947l1.205-2.766l5.025-2.117L151.342,158.321"/>
<path id="LA_St._Martin_1_" fill="#CC2F4A" stroke="#FFFFFF" stroke-width="0.9007" d="M116.054,138.45l2.38-0.091l2.751,2.611
	l0.595,1.418l0.188,0.978l0.111,2.622l-0.096,0.6l0.096,0.296l0.245,0.682l1.536,2.57l0.554,0.455l0.568,0.266l0.888,0.067
	l1.365-0.121l0.807,0.157l0.746,0.335l4.52,6.486l0.471,1.142l0.039,0.658l-5.176,0.28l-7.545-2.189l-0.386-0.131l-1.554-0.332
	l-1.236,0.053l-0.586,0.148l-0.805,0.496l-6.07,2.074l-1.895,0.041l-2.251-14.679l2.446-1.509l2.596-1.137l2.168,0.772l0.328,0.259
	l5.774-0.273l-1.837-2.631L116.054,138.45 M129.592,164.931l9.363-1.22l0.365,0.947l2.363,4.486l0.645,0.631l1.895,0.371h0.455
	l0.887,0.471l0.545,0.561l0.332,0.652l0.035,1.885l-0.102,3.223l-5.127-2.335l-7.186-3.321L129.592,164.931"/>
<path id="LA_St._Mary_1_" fill="#CC2F4A" stroke="#FFFFFF" stroke-width="0.9007" d="M129.592,164.931l4.471,6.353l7.186,3.321
	l5.123,2.335l0.943,3.602l-7.869,7.904h-0.961l-1.838-0.345l-8.623-1.876l-0.355-1.697l-0.258-1.42l-0.592-1.887l-3.207-4.975
	l-0.508-0.35l-4.561-0.12l-0.652,0.091l-5.317,1.556l6.895-6.528l3.518-5.125L129.592,164.931"/>
<path id="LA_Terrebonne_1_" fill="#D40000" stroke="#FFFFFF" stroke-width="0.9007" d="M150.398,175.953l7.611-3.45l0.293-0.136
	l0.584,0.064l10.738,10.244l8.205,8.429l0.629,0.658l0.256,0.744l0.266,2.335l-1.102,5.496l-6.645-0.018l-3.553,3.975l0.504,2.762
	l-8.852,1.979l-19.605-9.204l-1.09-0.856l-1.479-1.563l0.066-0.355l2.395-1.313l2.945-1.705l0.412-0.471l-0.168-0.986l-0.598-1.515
	l-0.268-0.576l-0.174-0.175l-2.318-1.875l7.867-7.906L150.398,175.953"/>
<path id="LA_Lafourche_1_" fill="#D40000" stroke="#FFFFFF" stroke-width="0.9007" d="M170.164,166.008l2.346,1.529l3.775,4.018
	l2.242,2.889l0.018,0.304l0.396,0.537l0.529,0.132l4.846-0.25l1.1-0.053l1.432,0.333l0.461,0.28l0.119,0.387l0.502,3.511
	l0.041,0.507l-0.26,0.933l3.496,5.161l2.637,1.152l0.057,5.67l-2.59,3.183l1.309,2.556l-0.645,2.41l-0.475,0.471l-0.121,0.137
	l-2.797,2.32l-0.141,0.115l-0.113,0.074l-1.988,1.061l-5.154,1.719l-0.246-0.014v-0.039l-0.049-0.264l1.031-0.631l0.926-0.174
	l0.492-0.082l0.416-0.223l1.068-0.514l0.207-0.129l0.773-0.875l-0.055-0.924l-1.855-3.676l-0.736-1.002l-1.391-1.864l-0.779-0.567
	l-1.482,0.23l-0.836,1.125l-0.789,2.865l1.1-5.496l-0.264-2.335l-0.258-0.745l-0.629-0.658l-8.205-8.428l-10.738-10.242
	l-0.582-0.066l-0.293,0.135l-7.613,3.451l4.754-9.771l9.994,0.24L170.164,166.008"/>
<path id="LA_Ascension_1_" fill="#CC2F4A" stroke="#FFFFFF" stroke-width="0.9007" d="M153.699,144.237l7.873,7.352l0.928,0.63
	l0.215,0.052l0.172-0.09l2.346-2.381l-0.248,2.769l-13.643,5.753l-6.156,0.508l3.002-13.123L153.699,144.237"/>
<path id="LA_East_Feliciana_1_" fill="#E27F90" stroke="#FFFFFF" stroke-width="0.9007" d="M144.726,111.963l10.027-0.561
	l-1.295,3.252l0.855,4.338l0.213,2.807v3.652l-17.365,1.629l-0.439,0.324l-1.281,2.539l-0.334-0.159l-0.098-1.165l0.082-1.645
	l0.631-1.967l0.439-0.591l1.727-2.978l1.258-5.771l0.615-3.464L144.726,111.963"/>
<path id="LA_Livingston_1_" fill="#AA0000" stroke="#FFFFFF" stroke-width="0.9007" d="M152.076,129.098l14.762-0.867l0.479,8.15
	l1.045,2.622l3.361,4.654l1.469,1.509l0.506,0.416l0.547,0.242l0.795,0.188l-2.895,0.986l-0.986,0.531l-0.271,0.234l-0.652,1.438
	l-0.545,0.835l-0.568,0.601l-0.533,0.332l-0.436,0.068l-0.471-0.084l-2.451-1.158l-2.34,2.378l-0.178,0.093l-0.209-0.052l-0.93-0.63
	l-7.873-7.353l-3.477-2.81l-0.818-2.051l-0.141-6.92L152.076,129.098"/>
<path id="LA_St._Charles_1_" fill="#CC2F4A" stroke="#FFFFFF" stroke-width="0.9007" d="M170.164,166.008l-0.645-4.57l-0.072-0.926
	l0.451-0.743l1.857-0.767l3.586-2.727l5.191-7.84l0.58,11.195l0.105,1.729l0.438,2.492l0.281,0.82l1.326,2.045l2.645,1.58
	l-0.721,4.162l-0.242,0.765l-0.627,1.942l-4.844,0.25l-0.531-0.132l-0.398-0.537l-0.016-0.304l-2.24-2.889l-3.781-4.018
	L170.164,166.008"/>
<path id="LA_Tangipahoa_1_" fill="#CC2F4A" stroke="#FFFFFF" stroke-width="0.9007" d="M166.662,110.729l8.572-0.545l0.318,4.739
	l1.346,1.123l3.111,7.414l0.023,0.885l2.029,24.326l-1.529-0.232l-5.494-2.42l-0.795-0.188l-0.547-0.244l-0.506-0.416l-1.469-1.508
	l-3.361-4.652l-1.045-2.625l-0.479-8.148l-0.992-17.48L166.662,110.729"/>
<path id="LA_St._Bernard_1_" fill="#CC2F4A" stroke="#FFFFFF" stroke-width="0.9007" d="M199.463,158.809l0.266,1.107l0.414,1.065
	l0.283,0.478l0.438,0.289l6.156,3.139l1.389,0.182l0.975-0.114l1.049-0.47l0.629-0.514l0.24-0.783l0.496-3.168l-0.055-1.215
	l3.221-3.585l1.504-0.728l1.803,0.553l1.141,0.932l-0.93,0.523l-0.285,0.282l-0.416,0.401l0.039,0.842l0.068,0.605l2.553,2.791
	l0.49,0.362l2.064,1.06l0.488,0.273l-2.896,4.844l-1.686,2.479l-2.486,0.941l-1.939-0.744l-4.549-0.158l-0.734,0.229l0.174,1.473
	l0.246,0.436l2.172,1.182l1.035,0.441l0.73,0.145l1.016-0.076l2.135,1.841l0.117,0.296l-0.047,0.189l-0.264-0.387l-1.205-0.964
	l-4.762-1.138l-3.078-2.775l-0.648-0.689l-6.42-1.711l-0.473,0.172l-0.281-0.047l-0.545-0.644l-0.961-1.668l-0.609-1.273l1.941-6.7"
	/>
<path id="LA_Plaquemines_1_" fill="#CC2F4A" stroke="#FFFFFF" stroke-width="0.9007" d="M193.22,164.446l4.301,1.068l0.615,1.272
	l0.953,1.669l0.545,0.643l0.281,0.047l0.479-0.172l6.416,1.711l0.648,0.69l3.078,2.775l4.762,1.138l1.205,0.964l0.264,0.386
	l-0.811-0.484l-1.375-0.75l-3.764-0.174l-0.857,0.5l-1.383,1.168l-0.354,1.213l-0.43,4.123l0.029,0.251l0.32,0.345l1.275,0.844
	l8.113,4.281l1.299-0.082l3.377-0.159l9.041,2.608l2.326,2.891l1.174,1.62l1.768,1.017l1.629-0.736l0.311,0.121l0.322,0.298
	l0.746,1.53v0.047l-0.141,0.682v0.039l-0.785,1.805l-1.361,3.09l-3.971,2.365l-2.803-1.734l-6.029,0.158l-4.828-5.586l-0.127-0.123
	l-0.592-0.568l-0.074-0.074l-0.477-0.335v-0.015l-0.186-0.065l-1.297-0.481l-0.947-0.346l-6.066-2.225l-0.963-0.263l-0.176-0.048
	l-0.926-0.196l-0.369-0.091h-0.07l-0.191-0.015l-0.912-0.069l-1.289-0.105l-2.469-2.221l0.559-0.965l0.158-0.348v-0.473
	l-0.057-0.265l-0.959-3.358l-0.031-0.145l-0.289-0.136l-0.398-0.204l-0.564,0.12l-0.578,0.243l-1.096,0.683l-0.686,0.842
	l-0.545,0.774l-0.994,0.1l-0.424-0.281l-0.574-0.605l-0.633-7.49l-0.227-0.949l-1.732-2.957l-0.852-0.99l-1.4-1.883l-0.482-1.622
	l0.813-3.358L193.22,164.446"/>
<path id="LA_West_Feliciana_1_" fill="#E27F90" stroke="#FFFFFF" stroke-width="0.9007" d="M120.041,113.138l19.718-0.933
	l-0.617,3.464l-1.256,5.771l-1.727,2.978l-0.439,0.591l-0.631,1.967l-0.082,1.645l0.098,1.165l-1.113-0.239l-1.336-3.572
	l-0.816-1.219l-0.229-0.107l-6.914-1.297l-4.721-2.463l-0.258-0.145l-0.319-0.296l-0.107-0.28l-0.276-5.526L120.041,113.138
	 M116.213,111.071l2.927,2.365l-3.989-1.043L116.213,111.071"/>
<path id="LA_Jefferson_1_" fill="#E27F90" stroke="#FFFFFF" stroke-width="0.9007" d="M180.533,148.436l1.529,0.232l6.029,1.258
	l-0.121,8.182l2.916,3.979l2.334,2.357l-1.732,2.973l-0.811,3.358l0.48,1.629l1.4,1.873l0.852,0.993l1.732,2.956l0.227,0.95
	l0.633,7.49l-2.154,0.711l-2.637-1.152l-3.496-5.161l0.26-0.933l-0.039-0.507l-0.504-3.511l-0.119-0.387l-0.461-0.28l-1.432-0.333
	l-1.1,0.053l0.629-1.942l0.24-0.765l0.723-4.164l-2.646-1.578l-1.326-2.045l-0.279-0.82l-0.439-2.492l-0.104-1.729L180.533,148.436
	 M192.621,198.787l0.043,0.039l1.205-0.234l0.941-1.061l2.523-1.94l0.363,0.048l0.076,0.143l-0.039,0.12l-0.227,0.362l-2.754,2.051
	l-2.355,2.453l-0.412,0.416l-0.012,0.016L192.621,198.787"/>
<path id="LA_Tensas_1_" fill="#86B6F2" stroke="#FFFFFF" stroke-width="0.9007" d="M123.355,52.569l7.254-0.298l0.213-0.401
	l0.734-0.522l4.668-1.502l1.904-0.317h0.25l0.545,0.451l0.012,1.085v0.047l4.271,4.987l-8.693,12.691l-4.844,6.398l-0.418,0.759
	l-7.058-0.669l-1.588-6.458L123.355,52.569"/>
<path id="LA_Madison_1_" fill="#86B6F2" stroke="#FFFFFF" stroke-width="0.9007" d="M139.394,33.717l-0.951,3.198l0.068,0.8v0.054
	l0.125,0.175l0.18,0.28l0.033,0.091l4.67,4.965l0.295,7.225l-4.875,0.606v-0.047l-0.016-1.085l-0.545-0.451h-0.25l-1.904,0.317
	l-4.668,1.502l-0.734,0.522l-0.213,0.401l-7.254,0.298l0.188-10.175l0.498-6.649L139.394,33.717"/>
<path id="LA_East_Carroll_1_" fill="#4389E3" stroke="#FFFFFF" stroke-width="0.9007" d="M135.088,11.74l-1.379,2.227l-0.439,1.595
	l0.066,0.401l3.359,15.216l0.248,0.6l0.047,0.084l0.135,0.149l0.049,0.099l0.088,0.067l0.396,0.35l0.105,0.09l1.33,0.417
	l0.301,0.684l-15.353,2.024l0.414-2.229l1.193-1.148l0.398-1.219l1.258-4.832l0.646-5.548l0.195-1.472l1.525-4.478l1.291-2.919
	L135.088,11.74"/>
<path id="LA_Caddo_1_" fill="#86B6F2" stroke="#FFFFFF" stroke-width="0.9007" d="M24.429,15.068l-0.455,0.388l-0.066,0.19
	l1.798,12.454l0.436,2.367l5.269,16.159l4.686,2.503l3.728,4.842l-6.049,0.143l-0.039-1.642l-0.407-0.615l-0.975-1.049l-0.875-0.651
	l-3.448-1.157l-0.736-0.151l-0.794,0.173l-0.618,0.388l-0.225,0.188l-2.107,2.488l-0.116,0.733l0.084,0.298l-0.136,0.438
	l-1.486,1.364l-2.281,1.623l-3.86,0.076l-0.545-24.948l-0.174-9.445l-0.154-6.944L24.429,15.068"/>
<path id="LA_Iberville_1_" fill="#86B6F2" stroke="#FFFFFF" stroke-width="0.9007" d="M127.742,137.937l1.453,1.083l4.758,5.171
	l1.682,2.114l7.326-0.402l5.227-0.199l-3.002,13.123l-5.025,2.116l-6.346-1.366l-0.037-0.658l-0.473-1.141l-4.518-6.487
	l-0.746-0.335l-0.807-0.159l-1.365,0.123l-0.89-0.067l-0.566-0.266l-0.554-0.455l-1.539-2.57l-0.242-0.682l-0.097-0.295l0.097-0.6
	l-0.113-2.623l-0.189-0.977l-0.592-1.418l-2.751-2.611L127.742,137.937"/>
<path id="LA_St._James_1_" fill="#86B6F2" stroke="#FFFFFF" stroke-width="0.9007" d="M164.984,152.568l-0.504,5.808l-1.152,0.826
	l0.859,4.176l0.594,2.274l0.369,0.772l-9.992-0.24l-3.809-7.863L164.984,152.568"/>
<path id="LA_East_Baton_Rouge_1_" fill="#86B6F2" stroke="#FFFFFF" stroke-width="0.9007" d="M154.525,125.451l-2.449,3.646
	l-2.813,3.362l0.141,6.914l0.818,2.05l3.477,2.81l-5.512,1.479l-5.227,0.19l-7.523-15.959l1.281-2.539l0.438-0.324L154.525,125.451"
	/>
<path id="LA_St._Helena_1_" fill="#86B6F2" stroke="#FFFFFF" stroke-width="0.9007" d="M165.844,110.751l0.992,17.479l-14.762,0.867
	l2.447-3.646v-3.652l-0.211-2.807l-0.857-4.338l1.297-3.252L165.844,110.751"/>
<path id="LA_St._John_the_Baptist_1_" fill="#4389E3" stroke="#FFFFFF" stroke-width="0.9007" d="M175.039,146.016l5.494,2.42
	l-5.189,7.84l-3.588,2.727l-1.857,0.767l-0.451,0.743l0.072,0.926l0.645,4.57l-5.018,0.414l-0.369-0.773l-0.594-2.273l-0.859-4.176
	l1.152-0.826l0.75-8.576l2.451,1.158l0.471,0.084l0.436-0.068l0.531-0.332l0.57-0.6l0.545-0.836l0.652-1.438l0.271-0.234
	l0.984-0.531L175.039,146.016"/>
<path id="LA_Orleans_1_" fill="#0645B4" stroke="#FFFFFF" stroke-width="0.9007" d="M188.092,149.928l4.797,1.82l4.059-2.435
	l1.002-0.396l8.443,0.668l2.398,0.787l0.281,0.175l-1.861,2.208l-5.801,3.729l-1.947,2.32l-1.941,6.709l-4.301-1.068l-2.334-2.357
	l-2.916-3.979L188.092,149.928"/>
</svg>
