<?xml version="1.0" encoding="utf-8"?>
<!-- Generator: Adobe Illustrator 16.0.0, SVG Export Plug-In . SVG Version: 6.00 Build 0)  -->
<!DOCTYPE svg PUBLIC "-//W3C//DTD SVG 1.1//EN" "http://www.w3.org/Graphics/SVG/1.1/DTD/svg11.dtd">
<svg version="1.1"
	 id="svg7207" xmlns:svg="http://www.w3.org/2000/svg" xmlns:rdf="http://www.w3.org/1999/02/22-rdf-syntax-ns#" xmlns:cc="http://creativecommons.org/ns#" xmlns:sodipodi="http://sodipodi.sourceforge.net/DTD/sodipodi-0.dtd" xmlns:dc="http://purl.org/dc/elements/1.1/" xmlns:inkscape="http://www.inkscape.org/namespaces/inkscape" inkscape:version="0.48.2 r9819" sodipodi:docname="Massachusetts Republican Presidential Primary Election Results by County, 2012.svg" sodipodi:version="0.32" inkscape:output_extension="org.inkscape.output.svg.inkscape"
	 xmlns="http://www.w3.org/2000/svg" xmlns:xlink="http://www.w3.org/1999/xlink" x="0px" y="0px" width="200.654px"
	 height="118.08px" viewBox="0 0 200.654 118.08" enable-background="new 0 0 200.654 118.08" xml:space="preserve">
<defs>
	
	
		<inkscape:perspective  id="perspective7215" inkscape:vp_z="744.09448 : 526.18109 : 1" inkscape:vp_y="0 : 1000 : 0" inkscape:vp_x="0 : 526.18109 : 1" sodipodi:type="inkscape:persp3d" inkscape:persp3d-origin="372.04724 : 350.78739 : 1">
		</inkscape:perspective>
</defs>
<sodipodi:namedview  bordercolor="#666666" pagecolor="#ffffff" objecttolerance="10" borderopacity="1.0" guidetolerance="10" inkscape:cx="105.65053" showgrid="false" inkscape:cy="52.825267" inkscape:zoom="3.4186323" gridtolerance="10000" id="base" inkscape:window-width="1024" inkscape:window-y="-4" inkscape:current-layer="layer1" inkscape:pageopacity="0.0" inkscape:window-height="721" inkscape:window-maximized="0" inkscape:pageshadow="2" inkscape:window-x="-4" inkscape:document-units="px">
	</sodipodi:namedview>
<g id="layer1" transform="translate(-327.01208,-445.96832)" inkscape:label="Layer 1" inkscape:groupmode="layer">
	<path id="MA_Worcester" inkscape:label="Worcester, MA" fill="#86B6F2" stroke="#FFFFFF" stroke-width="0.8968" d="
		M412.659,468.636l0.127,0.49l2.924,4.167l2.448-0.157l0.874-0.558l3.729,1.107l1.833,0.538l6.501,3.988l0.512,1.476l-0.252,3.621
		l-0.422,3.68l-0.875,1.762l-1.942,2.637l1.89,8.716l1.08,1.403l1.429,0.747l3.959,1.317l-0.121,9.346l-14.646,1.965l-0.16-1.012
		l-12.679,0.879l-2.082,0.082l-1.649,0.05l-0.715-8.734l-3.198,0.314l-3.219-1.258l-0.086-0.863l0.103-0.493l1.718-2.888
		l-5.105-6.128l-0.29-3.502l0.654-5.642l1.131-3.309l-0.097-5.605l-2.003-7.213l17.178-0.842L412.659,468.636"/>
	<path id="MA_Middlesex" inkscape:label="Middlesex, MA" fill="#4389E3" stroke="#FFFFFF" stroke-width="0.8968" d="M443.614,464.28
		l1.092,4.666l4.142,3.9l4.775,4.031l2.992,5.449l-0.564,1.714l-1.504,2.282l-2.164,1.434l-2.17,0.927l-0.604,5.183l-2.008-2.188
		l-0.121-0.114l-1.148-0.305l-0.814-0.02l-2.824,1.292l0.443,1.037l0.873,1.646l0.416,1.48l-1.712,3.357l-2.695,1.71l-3.545,1.809
		l-3.959-1.317l-1.429-0.747l-1.08-1.403l-1.89-8.716l1.942-2.637l0.875-1.762l0.422-3.68l0.252-3.621l-0.512-1.476l-6.501-3.988
		l-1.833-0.538l-3.729-1.107l-0.874,0.558l-2.448,0.157l-2.924-4.167l-0.127-0.49l11.988-0.67l0.736-0.04l0.21-0.012l16.375-1.021
		L443.614,464.28"/>
	<path id="MA_Nantucket" inkscape:label="Nantucket, MA" fill="#86B6F2" stroke="#FFFFFF" stroke-width="0.8968" d="
		M510.126,553.692l0.469-0.157l0.905-0.746l0.718-0.934l0.585-1.268l-0.004-1.36l-0.183-0.499l-0.426-0.544l-0.4-0.442l-0.231-0.272
		l-0.005-0.256l0.816,0.323l0.857,1.054l3.524,5.637l0.107,0.955l-0.144,0.68l-0.043,0.133l-0.42,0.399l-1.262,0.661l-0.664,0.171
		l-4.025,0.25l-1.083,0.029l-2.673-0.631l-4.441-1.674l-0.568-0.375l-0.375-0.438l-0.166-0.569l0.74-0.064l0.596,0.239l0.258,0.137
		l2.414,0.306l3.549-0.323L510.126,553.692"/>
	<path id="MA_Barnstable" inkscape:label="Barnstable, MA" fill="#86B6F2" stroke="#FFFFFF" stroke-width="0.8968" d="
		M484.658,521.958l0.263,0.393l0.85,0.844l1.261,1.006l1.174,0.715l3.014,0.828l1.859,0.188l4.977,0.309l7.279-2.972l2.717-1.242
		l1.84-1.17l0.67-0.993l0.192-0.536l-0.259-1.99l-0.506-2.48l-0.26-0.98l-1.15-2.395l-3.935-6.522l-0.673-0.653l-0.794-0.459
		l-1.296-0.543l-0.352,0.015l-0.698,0.254l-0.403,0.267l-0.354,0.437l-0.289,0.77l-0.012,0.353l-2.523-1.497l-0.126-0.213
		l0.292-0.629l0.568-0.447l0.897-0.32l0.838-0.122l1.432,0.097l2.247,0.492l1.725,0.687l1.266,0.819l1.4,1.357l1.256,1.755
		l1.533,2.51l1.15,2.42l1.614,4.284l0.724,2.328l0.852,4.48l0.383,3.282l-0.076,1.467l-1.784,6.117l-0.531,0.375l0.562-4.365
		l-0.051-0.384l-0.165-0.449l-1.116-0.773l-0.545-0.231l-0.357,0.014l-15.609,4.076l-0.66,0.177l-12.104,7.407l-2.052,1.916
		l-1.749-0.478l1.054-12.9L484.658,521.958"/>
	<path id="MA_Suffolk" inkscape:label="Suffolk, MA" fill="#4389E3" stroke="#FFFFFF" stroke-width="0.8968" d="M456.615,482.327
		l2.16,1.301l-0.202,7.854l-8.964,2.385l0.604-5.183l2.17-0.927l2.164-1.434l1.504-2.282L456.615,482.327"/>
	<path id="MA_Bristol" inkscape:label="Bristol, MA" fill="#86B6F2" stroke="#FFFFFF" stroke-width="0.8968" d="M442.242,514.528
		l13.99-8.762l2.348,8.625l2.861,8.131l4.548,2.702l1.921,1.865l3.795,8.688l-0.858-0.194l-2.223-0.04l-1.081,1.019l-0.646,0.602
		l-0.111,0.143l-0.195,2.15l0.094,0.813l0.485,1.633l-4.854,3.232l-4.177,0.532l-4.814-11.435l-1.681-2.18l-4.961-3.947
		L442.242,514.528"/>
	<path id="MA_Plymouth" inkscape:label="Plymouth, MA" fill="#86B6F2" stroke="#FFFFFF" stroke-width="0.8968" d="M462.857,493.857
		l4.679-0.636l2.276,0.726l0.453,0.127l0.343,0.317l2.309,2.164l4.798,7.51l6.655,12.651l0.511,2.012l-0.223,3.229l-4.542,6.69
		l-8.411,7.129l-3.795-8.688l-1.921-1.865l-4.548-2.702l-2.861-8.131l-2.348-8.625L462.857,493.857"/>
	<path id="MA_Norfolk" inkscape:label="Norfolk, MA" fill="#4389E3" stroke="#FFFFFF" stroke-width="0.8968" d="M458.573,491.481
		l4.284,2.376l-6.625,11.909l-13.99,8.762l-5.89-1.611l0.121-9.346l3.545-1.809l2.695-1.71l1.712-3.357l-0.416-1.48l-0.873-1.646
		l-0.443-1.037l2.824-1.292l0.814,0.02l1.148,0.305l0.121,0.114l2.008,2.188L458.573,491.481"/>
	<path id="MA_Essex" inkscape:label="Essex, MA" fill="#86B6F2" stroke="#FFFFFF" stroke-width="0.8968" d="M463.849,453.006
		l0.113,1.426l1.063,4.494l1.866,5.711l2.626,1.728l-6.139,8.724l-4.604,8.54l-2.16-1.301l-2.992-5.449l-4.775-4.031l-4.142-3.9
		l-1.092-4.666l0.419-0.639l3.438-4.754l0.726-0.542l1.273-0.773l3.859-2.319l4.947-2.54l0.021,0.004l0.401-0.095l0.346-0.109
		l1.404,0.139L463.849,453.006"/>
	<path id="MA_Hampden" inkscape:label="Hampden, MA" fill="#86B6F2" stroke="#FFFFFF" stroke-width="0.8968" d="M399.74,500.959
		l-1.718,2.888l-0.103,0.493l0.086,0.863l3.219,1.258l3.198-0.314l0.715,8.734l-18.262,1.251l-24.409,1.659l-2.183,0.128
		l-1.251-3.515l-0.13-0.631l-0.066-2.996l1.803,0.185l1.058-7.269l-0.261-4.08l2.117-2.28l2.834,0.001l0.559,0.493l0.574,4.461
		l-0.957,1.248l1.82,1.338l4.321,1.398l4.702,0.706l4.384-2.253l9.106-2.111L399.74,500.959"/>
	<path id="MA_Hampshire" inkscape:label="Hampshire, MA" fill="#4389E3" stroke="#FFFFFF" stroke-width="0.8968" d="
		M394.634,494.831l5.105,6.128l-8.843,1.655l-9.106,2.111l-4.384,2.253l-4.702-0.706l-4.321-1.398l-1.82-1.338l0.957-1.248
		l-0.574-4.461l-0.559-0.493l-2.834-0.001l-2.117,2.28l-0.248,0.521l-1.037-0.125l-1.836-1.242l-0.537-3.423l0.095-0.573
		l2.679,0.397l0.763-5.858l0.491-4.945l-0.424-1.029l5.458,4.379l7.931,1.522l8.258,0.968l2.587-0.65l5.64,0.419L394.634,494.831"/>
	<path id="MA_Berkshire" inkscape:label="Berkshire, MA" fill="#4389E3" stroke="#FFFFFF" stroke-width="0.8968" d="M346.399,471.79
		l11.737-0.571l3.248,12.117l0.424,1.029l-0.491,4.945l-0.763,5.858l-2.679-0.397l-0.095,0.573l0.537,3.423l1.836,1.242l1.037,0.125
		l0.248-0.521l0.261,4.08l-1.058,7.269l-1.803-0.185l0.066,2.996l0.13,0.631l1.251,3.515l-21.263,0.941l-0.475,0.035l-0.728-2.396
		l5.499-28.718L346.399,471.79"/>
	<path id="MA_Franklin" inkscape:label="Franklin, MA" fill="#4389E3" stroke="#FFFFFF" stroke-width="0.8968" d="M385.51,469.957
		l8.52-0.396l2.003,7.213l0.097,5.605l-1.131,3.309l-0.654,5.642l0.29,3.502l-3.378-4.857l-5.64-0.419l-2.587,0.65l-8.258-0.968
		l-7.931-1.522l-5.458-4.379l-3.248-12.117l4.496-0.193L385.51,469.957"/>
	<path id="MA_Dukes" inkscape:label="Dukes, MA" fill="#1666CB" stroke="#FFFFFF" stroke-width="0.8968" d="M484.094,544.753
		l7.524,2.653l0.367,1.587l0.205,2.852l-0.11,0.383l-14.463,2.719l-1.22-1.441l2.813-5.498l0.647-0.763l1.702-1.505l2.096-1.643
		l0.275,0.066L484.094,544.753 M480.811,542.026l-4.722,4.291l-1.361,1.108l-3.615,1.984l-1.756,0.251l-0.436-0.166l2.585-1.896
		l5.083-4.018l2.473-2.033L480.811,542.026"/>
</g>
</svg>
