<?xml version="1.0" encoding="UTF-8" standalone="no"?>
<!-- Generator: Adobe Illustrator 18.1.1, SVG Export Plug-In . SVG Version: 6.00 Build 0)  -->

<svg
   xmlns:dc="http://purl.org/dc/elements/1.1/"
   xmlns:cc="http://creativecommons.org/ns#"
   xmlns:rdf="http://www.w3.org/1999/02/22-rdf-syntax-ns#"
   xmlns:svg="http://www.w3.org/2000/svg"
   xmlns="http://www.w3.org/2000/svg"
   xmlns:sodipodi="http://sodipodi.sourceforge.net/DTD/sodipodi-0.dtd"
   xmlns:inkscape="http://www.inkscape.org/namespaces/inkscape"
   version="1.1"
   id="svg5598"
   sodipodi:version="0.32"
   inkscape:version="0.91 r13725"
   sodipodi:docname="Maryland_Presidential_Election_Results_2016.svg"
   inkscape:output_extension="org.inkscape.output.svg.inkscape"
   x="0px"
   y="0px"
   width="223.6px"
   height="118.5px"
   viewBox="-143 162.8 223.6 118.5"
   enable-background="new -143 162.8 223.6 118.5"
   xml:space="preserve"><metadata
     id="metadata32"><rdf:RDF><cc:Work
         rdf:about=""><dc:format>image/svg+xml</dc:format><dc:type
           rdf:resource="http://purl.org/dc/dcmitype/StillImage" /><dc:title></dc:title></cc:Work></rdf:RDF></metadata><defs
     id="defs3"><inkscape:perspective
       inkscape:persp3d-origin="372.04724 : 350.78739 : 1"
       sodipodi:type="inkscape:persp3d"
       inkscape:vp_x="0 : 526.18109 : 1"
       inkscape:vp_y="0 : 1000 : 0"
       inkscape:vp_z="744.09448 : 526.18109 : 1"
       id="perspective5606" /></defs><sodipodi:namedview
     inkscape:window-maximized="1"
     showguides="true"
     pagecolor="#ffffff"
     bordercolor="#666666"
     borderopacity="1.0"
     gridtolerance="10000"
     guidetolerance="10"
     objecttolerance="10"
     inkscape:zoom="4.9542639"
     inkscape:cx="124.09901"
     inkscape:cy="53.459201"
     showgrid="false"
     id="base"
     inkscape:guide-bbox="true"
     inkscape:document-units="px"
     inkscape:pageopacity="0.0"
     inkscape:pageshadow="2"
     inkscape:current-layer="layer1"
     inkscape:window-width="1920"
     inkscape:window-height="1017"
     inkscape:window-x="-8"
     inkscape:window-y="-8" /><g
     id="layer1"
     transform="translate(-353.90429,-455.38417)"
     inkscape:label="Layer 1"
     inkscape:groupmode="layer"><path
       id="MD_Allegany"
       inkscape:label="Allegany, MD"
       fill="#CCCCCC"
       stroke="#FFFFFF"
       stroke-width="1.1227"
       d="M269.4,629   l1.7-0.1l0.6,5.2l-5.9,7.3l-8.6-0.8l-5.1-3l-8.9,9l-4.7-1.8l5.9-15.1l5.6-0.2L269.4,629"
       style="fill:#d40000;fill-opacity:1" /><path
       id="MD_Garrett"
       inkscape:label="Garrett, MD"
       fill="#CCCCCC"
       stroke="#FFFFFF"
       stroke-width="1.1227"
       d="M244.5,629.8   l-5.9,15.1l-9.9,8.8l-8.7,7.7l-0.3-30.8l3.8-0.1L244.5,629.8"
       style="fill:#d40000;fill-opacity:1" /><path
       id="MD_St._Marys"
       inkscape:label="St. Mary's, MD"
       fill="#CCCCCC"
       stroke="#FFFFFF"
       stroke-width="1.1227"
       d="   M363.6,708.7l1.3,5.9l-3.2,4.9l-16.3-5.9l-1.4-2.7l-1.7-4.4l0.2-1.1l3.6-7.1l0.4-0.3l1.6,0l0.9,0.1l1.8,0.5L363.6,708.7"
       style="fill:#e27f90;fill-opacity:1" /><path
       id="MD_Charles"
       inkscape:label="Charles, MD"
       fill="#CCCCCC"
       stroke="#FFFFFF"
       stroke-width="1.1227"
       d="M331.1,687.2l2,5.3   l0.9-1.4l0.2-0.4l0.2-0.2l0.7-0.3l1.5-0.5l4.8-0.1l5.4,2.1l0.1,0.4l0.6,3.3l2.2,1l0.7,0.1l0.2,2.2l-1.8-0.5l-0.9-0.1l-1.6,0   l-0.4,0.3l-3.6,7.1l-0.2,1.1l1.7,4.4l0,1.5l-0.1,0.8l-0.2,0.4l-17.2-5.5l-0.5-0.2l-1.6-1.1l-0.7-1.9l-0.7-4l0.4-1.9l1.1-2.4l2.3-3   l2.4-2.2L331.1,687.2"
       style="fill:#4389e3;fill-opacity:1" /><path
       id="MD_Worcester"
       inkscape:label="Worcester, MD"
       fill="#CCCCCC"
       stroke="#FFFFFF"
       stroke-width="1.1227"
       d="M412.2,697.6   l13.4-0.9l-0.1,2.2l-0.2,1.5l-0.4,2.1l-0.5,1.9l-3.8,13.2l-0.2,0.8l-0.2,0.5l-0.4,0.9l-0.3,0.7l-1.1,2.1l-17.6,3.2l3.5-6l-0.6-5.5   l-3.4-5.6l11.4-1.4l1.8-2.8l0.4-1.3l-0.6-2.9L412.2,697.6"
       style="fill:#cc2f4a;fill-opacity:1" /><path
       id="MD_Wicomico"
       inkscape:label="Wicomico, MD"
       fill="#CCCCCC"
       stroke="#FFFFFF"
       stroke-width="1.1227"
       d="M395.2,692.2   l0.3,2.3l0.2,1.8l0.2,1.9l1.4,0l3.2-0.1l0.2,0l1.4,0l2.7-0.1l1,0l2.3-0.1l0.2,0l0.6,0l0.7,0l1.8-0.1l0.7-0.1l1.3,2.7l0.6,2.9   l-0.4,1.3l-1.8,2.8l-11.4,1.4l-11.5,3.2l-2.5-1.3l0.7-4.4l2.8-8.9l0.4-0.5l1-0.4l1.2-0.8L395.2,692.2"
       style="fill:#e27f90;fill-opacity:1" /><path
       id="MD_Washington"
       inkscape:label="Washington, MD"
       fill="#CCCCCC"
       stroke="#FFFFFF"
       stroke-width="1.1227"
       d="M282.2,628.5   l28.5-1.1l-1.1,3.1l-0.9,1.7l-0.5,0.6l-1.8,0.8l-0.2,0.6l-1,4.2l-0.9,5.5l-2,7.9l-1.8-0.1l-5.3-10.1l-9.3-7.1l-0.6-1l-1.8-1.8   l-1.5-0.9l-1.6-0.4l-1.5-0.3l-0.3,0.1l-0.4,0.3l-1.4,1.7l-2,2.7l-0.5,0l-2.3-0.8l-0.6-5.2L282.2,628.5"
       style="fill:#cc2f4a;fill-opacity:1" /><path
       id="MD_Calvert"
       inkscape:label="Calvert, MD"
       fill="#CCCCCC"
       stroke="#FFFFFF"
       stroke-width="1.1227"
       d="M363.6,708.7   l-13-10.2l-0.2-2.2l-1.2-12.7l0.3-0.5l1.4-0.9l1.1,0l1.3,2.7l3.1,0.3l-0.1,0.8l0.1,1.3l1.1,8.3l0.1,0.6l0.5,1.4l0.7,1.3l1.8,1.8   l3.3,3.6l0.1,0.3l0,1.2L363.6,708.7"
       style="fill:#e27f90;fill-opacity:1" /><path
       id="MD_Talbot"
       inkscape:label="Talbot, MD"
       fill="#CCCCCC"
       stroke="#FFFFFF"
       stroke-width="1.1227"
       d="M382.5,671.6l0.2,1.5   l-1.8,8.3l-0.7,1.8l0.1,0.2l2.1,2.4l1.2,0.5l-9.3,3l0.2-0.2l-0.5-1.2l-4.1-4.4l-0.8,0l-2.6,0.5l-0.2,0.1l-0.6,1l-0.1,0.6l0.6,0.8   l0,0.6l-0.8,0.5l-0.4-0.9l0.1-4l0.2-1.3l1.4-3.3l0.1-0.1l1.4-1.2l3.2,0.2L382.5,671.6"
       style="fill:#e27f90;fill-opacity:1" /><path
       id="MD_Caroline"
       inkscape:label="Caroline, MD"
       fill="#CCCCCC"
       stroke="#FFFFFF"
       stroke-width="1.1227"
       d="M382.5,671.6   l8.4-14l3.8,30.2l-11.1-1.6l-1.2-0.5l-2.1-2.4l-0.1-0.2l0.7-1.8l1.8-8.3L382.5,671.6"
       style="fill:#cc2f4a;fill-opacity:1" /><path
       id="MD_Kent"
       inkscape:label="Kent, MD"
       fill="#CCCCCC"
       stroke="#FFFFFF"
       stroke-width="1.1227"
       d="M378.4,644.6l10.7-0.9   l0.6,4.8l0.4,3l-6,0.1l-3.9,0.5l-1.6,0.4l-2.1,1.9l-4.2,7.2l-2,0.6l-1.4-0.3l-2.3-3.1l0.1-1.2l0.3-0.9l3.2-8.5l0.6-0.8l2.6-2.6   L378.4,644.6"
       style="fill:#e27f90;fill-opacity:1" /><path
       id="MD_Baltimore_City"
       inkscape:label="Baltimore City, MD"
       fill="#CCCCCC"
       stroke="#FFFFFF"
       stroke-width="1.1227"
       d="   M354.9,655.2l-4.1-0.9l-3.3-1.7l0-5.7l8.4,1.3L354.9,655.2"
       style="fill:#0645b4;fill-opacity:1" /><path
       id="MD_Prince_Georges"
       inkscape:label="Prince George's, MD"
       fill="#CCCCCC"
       stroke="#FFFFFF"
       stroke-width="1.1227"
       d="   M338.9,661.3l2.3,1.6l6.9,6.8l1.1,4l0.2,10l1.2,12.7l-0.7-0.1l-2.2-1l-0.6-3.3l-0.1-0.4l-5.4-2.1l-4.8,0.1l-1.5,0.5l-0.7,0.3   l-0.2,0.2L334,691l-0.9,1.4l-2-5.3l1.9-4.9l0-0.3l6-6.9l-4.9-3.6L338.9,661.3"
       style="fill:#0645b4;fill-opacity:1" /><path
       id="MD_Anne_Arundel"
       inkscape:label="Anne Arundel, MD"
       fill="#CCCCCC"
       stroke="#FFFFFF"
       stroke-width="1.1227"
       d="   M354.9,655.2L354.9,655.2l4.8,6l1.9,5.3l0.2,0.7l-2.3,4.3l-1.7,3.5l-2.8,7.2l0.2,1.4l0.2,0.6l1.2,1.3l-3.1-0.3l-1.3-2.7l-1.1,0   l-1.4,0.9l-0.3,0.5l-0.2-10l-1.1-4l-6.9-6.8l6.1-7l3.6-1.6L354.9,655.2"
       style="fill:#b9d7ff;fill-opacity:1" /><path
       id="MD_Howard"
       inkscape:label="Howard, MD"
       fill="#CCCCCC"
       stroke="#FFFFFF"
       stroke-width="1.1227"
       d="M338.4,648.2l8.8,7.7   l-6.1,7l-2.3-1.6l-0.8,0.4l-1.9-0.2l-0.5-0.2l-8.4-7.8l-1.8-2.5l-0.7-1.3l0-0.1l0.1-0.3l0.7-0.5l0,0L338.4,648.2"
       style="fill:#4389e3;fill-opacity:1" /><path
       id="MD_Montgomery"
       inkscape:label="Montgomery, MD"
       fill="#CCCCCC"
       stroke="#FFFFFF"
       stroke-width="1.1227"
       d="M325.4,648.7   l-0.7,0.5l-0.1,0.3l0,0.1l0.7,1.3l1.8,2.5l8.4,7.8l0.5,0.2l1.9,0.2l0.8-0.4l-4.7,10.2l-2.2-1.6l-3.1,3.7l-9.9-7l-2.2-0.1l-2.2-0.2   L313,666l-0.1,0l-2.6-2.4l-0.3-0.2l0,0l-0.2-0.4l-0.2-1l0,0l0.1-0.5l0.2-0.7l0.1-0.3l0.3-0.5l2.2-2.6L325.4,648.7"
       style="fill:#1666cb;fill-opacity:1" /><path
       id="MD_Queen_Annes"
       inkscape:label="Queen Anne's, MD"
       fill="#CCCCCC"
       stroke="#FFFFFF"
       stroke-width="1.1227"
       d="   M382.5,671.6l-11,5.3l0.8-15.2l4.2-7.2l2.1-1.9l1.6-0.4l3.9-0.5l6-0.1l0.8,6.1L382.5,671.6"
       style="fill:#cc2f4a;fill-opacity:1" /><path
       id="MD_Cecil"
       inkscape:label="Cecil, MD"
       fill="#CCCCCC"
       stroke="#FFFFFF"
       stroke-width="1.1227"
       d="M371.1,624.1l15.7-1   l2.3,20.5l-10.7,0.9l-3.9-10l-7.8-10.2L371.1,624.1"
       style="fill:#cc2f4a;fill-opacity:1" /><path
       id="MD_Harford"
       inkscape:label="Harford, MD"
       fill="#CCCCCC"
       stroke="#FFFFFF"
       stroke-width="1.1227"
       d="M366.4,624.4l0.3,0   l7.8,10.2l1,5.4l0,0.3l-5.2,4.5l-2,1.8l-2.2,1.7l-1.1-1l-1-0.9l-0.1-0.6l-3.3-5.4l-2.4-2.4l-2.5-1.2l-0.9,0l-1.1-1.1l-1.4-3   l-0.3-1.1l-0.6-6.4L366.4,624.4"
       style="fill:#e27f90;fill-opacity:1" /><path
       id="MD_Baltimore_Co."
       inkscape:label="Baltimore County, MD"
       fill="#CCCCCC"
       stroke="#FFFFFF"
       stroke-width="1.1227"
       d="   M341.6,625.8l9.9-0.5l0.6,6.4l0.3,1.1l1.4,3l1.1,1.1l0.9,0l2.5,1.2l2.4,2.4l3.3,5.4l0.1,0.6l-0.2,0l-0.8,0.2l-1.6,3.4l-0.8,2.5   l0.7,0.5l0.3,0l-0.1,0.4l-0.2,0.5l-1.5,1.9l-0.7,0.7l-2.7-0.7l-1.3-0.4l-0.1,0l1-7l-8.4-1.3l0,5.7l3.3,1.7l-3.6,1.6l-8.8-7.7   l-0.8-6.4l1.4-4.5L341.6,625.8"
       style="fill:#86b6f2;fill-opacity:1" /><path
       id="MD_Carroll"
       inkscape:label="Carroll, MD"
       fill="#CCCCCC"
       stroke="#FFFFFF"
       stroke-width="1.1227"
       d="M341.6,625.8   l-2.6,11.5l-1.4,4.5l0.8,6.4l-13,0.4l1.9-6.6l0.4-1.8l0-0.1l-4.9-4.8l-3.2-3.9l2.5-4.5l9.8-0.5L341.6,625.8"
       style="fill:#cc2f4a;fill-opacity:1" /><path
       id="MD_Frederick"
       inkscape:label="Frederick, MD"
       fill="#CCCCCC"
       stroke="#FFFFFF"
       stroke-width="1.1227"
       d="M311.2,627.4   l11-0.5l-2.5,4.5l3.2,3.9l4.9,4.8l0,0.1l-0.4,1.8l-1.9,6.6l0,0l-12.8,8.6l-10.3-5.5l2-7.9l0.9-5.5l1-4.2l0.2-0.6l1.8-0.8l0.5-0.6   l0.9-1.7l1.1-3.1L311.2,627.4"
       style="fill:#f2b3be;fill-opacity:1" /><path
       id="MD_Somerset"
       inkscape:label="Somerset, MD"
       fill="#CCCCCC"
       stroke="#FFFFFF"
       stroke-width="1.1227"
       d="M388.9,712   l11.5-3.2l3.4,5.6l0.6,5.5l-3.5,6l-1.9,2.7l-5.4-1l-2.6-9.5L388.9,712 M379.3,719.8l1.6-0.3l0.8-1.1l0.4-1.1l0.4,1.6l0.4,2l0.2,1.1   l-0.3,0.3l-0.5,0.1l-0.6-0.3l-1.1-1.1L379.3,719.8 M381.5,729.5l-0.2-1.8l-0.1-1.9l0.1-0.6l0.2-0.4l0.9-0.5l0.4-0.1l0.4,0.2   l1.4,0.9l0.3,0.3l0,0.6l-0.6,0.2l-0.4,1.8l0.1,1.3l-0.1,1.1l-0.3,1.1l-1.3,0.2l-0.7-0.9L381.5,729.5"
       style="fill:#e27f90;fill-opacity:1" /><path
       id="MD_Dorchester"
       inkscape:label="Dorchester, MD"
       fill="#CCCCCC"
       stroke="#FFFFFF"
       stroke-width="1.1227"
       d="M383.6,686.2   l11.1,1.6l0.6,4.4l-2.7,3.4l-1.2,0.8l-1,0.4l-0.4,0.5l-2.8,8.9l-0.7,4.4l-5.6,0.8l-6.4,0l-0.6-0.3l-3.2-2.7l-0.2-0.2L370,707   l-2-5.9l-1-3.4l1.4-6.8l0.3-0.4l1.1-0.7l0.4-0.2l3.9-0.5L383.6,686.2 M379.3,719.8L379.3,719.8l-0.1-0.1l-0.3-0.7l-0.2-1.2l0-2.5   l0.8-0.7l1-0.1l1.3,1.5l0,0.4l0.1,0.9l-0.4,1.1l-0.8,1.1L379.3,719.8"
       style="fill:#e27f90;fill-opacity:1" /></g></svg>