<?xml version="1.0" encoding="UTF-8" standalone="no"?>
<!-- Generator: Adobe Illustrator 16.0.0, SVG Export Plug-In . SVG Version: 6.00 Build 0)  -->

<svg
   xmlns:dc="http://purl.org/dc/elements/1.1/"
   xmlns:cc="http://creativecommons.org/ns#"
   xmlns:rdf="http://www.w3.org/1999/02/22-rdf-syntax-ns#"
   xmlns:svg="http://www.w3.org/2000/svg"
   xmlns="http://www.w3.org/2000/svg"
   xmlns:sodipodi="http://sodipodi.sourceforge.net/DTD/sodipodi-0.dtd"
   xmlns:inkscape="http://www.inkscape.org/namespaces/inkscape"
   version="1.1"
   id="svg5598"
   inkscape:output_extension="org.inkscape.output.svg.inkscape"
   sodipodi:docname="Maine_Presidential_Election_Results_2016.svg"
   inkscape:version="0.91 r"
   sodipodi:version="0.32"
   x="0px"
   y="0px"
   width="205.379px"
   height="321.584px"
   viewBox="0 0 205.379 321.584"
   enable-background="new 0 0 205.379 321.584"
   xml:space="preserve"><metadata
     id="metadata6136"><rdf:RDF><cc:Work
         rdf:about=""><dc:format>image/svg+xml</dc:format><dc:type
           rdf:resource="http://purl.org/dc/dcmitype/StillImage" /></cc:Work></rdf:RDF></metadata><defs
     id="defs6115"><inkscape:perspective
       id="perspective5606"
       inkscape:vp_z="744.09448 : 526.18109 : 1"
       inkscape:vp_y="0 : 1000 : 0"
       inkscape:vp_x="0 : 526.18109 : 1"
       sodipodi:type="inkscape:persp3d"
       inkscape:persp3d-origin="372.04724 : 350.78739 : 1" /></defs><sodipodi:namedview
     showgrid="false"
     inkscape:cy="168.95937"
     inkscape:cx="49.95204"
     inkscape:zoom="1.1367903"
     objecttolerance="10"
     guidetolerance="10"
     gridtolerance="10000"
     borderopacity="1.0"
     bordercolor="#666666"
     pagecolor="#ffffff"
     id="base"
     inkscape:window-maximized="0"
     inkscape:window-y="137"
     inkscape:window-x="1920"
     inkscape:window-height="669"
     inkscape:window-width="1598"
     inkscape:current-layer="layer1"
     inkscape:document-units="px"
     inkscape:pageshadow="2"
     inkscape:pageopacity="0.0" /><g
     id="layer1"
     transform="translate(-291.86946,-338.76407)"
     inkscape:label="Layer 1"
     inkscape:groupmode="layer"><path
       id="ME_Aroostook"
       inkscape:label="Aroostook, ME"
       inkscape:connector-curvature="0"
       fill="#CCCCCC"
       stroke="#FFFFFF"
       stroke-width="2.2956"
       d="   M379.211,416.131l-3.389-11.019l-39.094,11.201l-13.149,3.703l-0.984-7.726l-0.025-0.203l0.051-0.162l1.188-3.521l3.333-9.786   l6.453-18.75l8.689-25.152l3.541-0.294l4.211-0.092l0.64,0.183l0.771,1.051l0.163,0.278l-0.32,0.432l-0.046,0.071l-0.091,1.526   l2.288,7.366l0.664,0.594l0.365,0.162l6.839,2.237l1.755-1.527l4.759-4.53l5.256-4.778l8.097-7.067l1.121-0.639l2.126-0.665   l1.988-0.183l0.802,0.163l3.658,1.232l10.653,4.551l9.583,6.037l0.137,0.319l15.25,48.728l8.944,28.901l-0.716,1.07l-0.046,0.619   l1.441,6.473l0.775,0.64l-9.847,5.783l-8.441,4.87l-0.021,0.229l0.111,0.34l-3.114,1.766l-3.293,1.826l-1.024-0.157l-3.085-10.477   l-0.735-3.084l-1.415-5.027l-1.375-4.348l-8.528-27.228l-11.5,2.511L379.211,416.131"
       style="fill:#e27f90;fill-opacity:1" /><path
       id="ME_Piscataquis"
       inkscape:label="Piscataquis, ME"
       fill="#CCCCCC"
       stroke="#FFFFFF"
       stroke-width="2.2956"
       d="   M379.211,416.131l2.557,9.146l4.571,15.595l5.717,19.897l-5.509,3.13l2.536,9.467l4.439-2.313l8.888,16.944l-1.761,7.178   l-12.389,6.474l-8.532,4.322l-6.286,5.145l-4.388,2.196l-3.11-5.189l-13.469-26.294l-1.664-13.997l1.847-7.889l-3.795-6.904   l-3.064-3.476l-6.356-21.789l-2.714-11.46l39.094-11.201L379.211,416.131"
       style="fill:#e27f90;fill-opacity:1" /><path
       id="ME_Knox"
       inkscape:label="Knox, ME"
       fill="#CCCCCC"
       stroke="#FFFFFF"
       stroke-width="2.2956"
       d="M423.95,562.719   l-0.639,1.42l-0.432,0.391l-1.877,1.025l-0.502,0.116l-0.842-0.254l-3.841-4.134l-0.122-0.183l0.097-1.238l0.482-1.35l2.511-3.109   l0.934-0.502l0.365,0.273l4.008,5.809l0.243,0.527l-0.188,0.863L423.95,562.719 M390.848,553.597l0.411-1.096l5.21-3.019   l10.404,4.297l2.309,1.213l-0.431,4.576l-0.036,0.269l0.036,0.279l0.725,2.445l0.686,1.669l1.674,1.395l-4.87,7.387l-3.592,2.283   l-4.394,0.781l0.305-3.774l1.918-3.064l-2.055-4.708l-2.933-4.373l-1.486,0.69l-1.598,0.116l-1.507-0.664l-1.4-2.039l-1.005-3.222   l0.462-0.843L390.848,553.597"
       style="stroke:#86b6f2;stroke-opacity:0;fill:#86b6f2;fill-opacity:1" /><path
       id="ME_Lincoln"
       inkscape:label="Lincoln, ME"
       fill="#CCCCCC"
       stroke="#FFFFFF"
       stroke-width="2.2956"
       d="M378.52,569.989   l4.896-0.224l-2.287-6.519l-0.254-3.5l4.941-0.132l0.385-0.365l0.462-1.213l-0.462-4.094l4.647-0.346l-1.167,0.599l-0.462,0.843   l1.005,3.222l1.4,2.039l1.507,0.664l1.598-0.116l1.486-0.69l2.933,4.373l2.055,4.708l-1.918,3.064l-0.305,3.774l-1.187-0.137   l-0.913-0.117l-0.706,0.913l-0.197,0.229l-0.035,1.537l0.319,2.537l-0.797,4.707l-0.391,0.548l-6.037,2.699l-1.44,0.457h-1.075   L378.52,569.989"
       style="fill:#b9d7ff;fill-opacity:1" /><path
       id="ME_Sagadahoc"
       inkscape:label="Sagadahoc, ME"
       fill="#CCCCCC"
       stroke="#FFFFFF"
       stroke-width="2.2956"
       d="M378.52,569.989   l8.001,19.461l-7.387,5.078l-1.024-4.891l-2.354-4.348l-1.01,1.278l-2.647-0.021l-2.11-1.237l-1.025-1.462l-1.344-9.76l3.47-0.229   l1.558-1.218l0.111-1.553l0.091-0.456l0.411-0.756l0.34-0.432l4.435-0.254l0.35,0.437L378.52,569.989"
       style="fill:#b9d7ff;fill-opacity:1" /><path
       id="ME_Cumberland"
       inkscape:label="Cumberland, ME"
       fill="#CCCCCC"
       stroke="#FFFFFF"
       stroke-width="2.2956"
       d="   M347.772,585.909l-0.03,0.137l0.137,0.203l1.694,0.685l2.588,0.416l14.312,1.893l1.232-1.689l1.258-3.704l1.025,1.462l2.11,1.237   l2.647,0.021l1.01-1.278l2.354,4.348l1.024,4.891l-3.039,1.486l-2.374-1.441l-1.167-3.363l-0.441-0.314l-0.411,0.157l-4.434,5.804   l-1.801,3.136l-1.238,5.098v0.437l0.913,0.959l0.254,6.493l-3.206,2.745l-2.029-0.685l-5.534-2.086l0.933-2.673l-5.479-3.496   l-12.308-3.317l0.527-10.197l2.928-7.681l0.751,1.188l1.237,1.146l0.32,0.157l1.785,0.274L347.772,585.909"
       style="stroke:#4389e3;stroke-opacity:0;fill:#4389e3;fill-opacity:1" /><path
       id="ME_York"
       inkscape:label="York, ME"
       fill="#CCCCCC"
       stroke="#FFFFFF"
       stroke-width="2.2956"
       d="M337.773,603.466   l12.308,3.317l5.479,3.496l-0.933,2.673l5.534,2.086l2.029,0.685l-0.203,4.551l-5.515,25.721l-0.613,2.77l-0.229,0.457l-1.218,1.05   l-6.396-2.563l-1.776-7.133l-0.142-0.157l-5.529-3.297l-2.294-1.142l-0.842-0.437l-1.329-1.847l-0.432-0.918l-0.35-1.461   l-0.797-8.919l-5.763-15.021L337.773,603.466"
       style="fill:#b9d7ff;fill-opacity:1" /><path
       id="ME_Androscoggin"
       inkscape:label="Androscoggin, ME"
       fill="#CCCCCC"
       stroke="#FFFFFF"
       stroke-width="2.2956"
       d="   M351.197,555.911l4.413-3.181l3.064,6.058l4.317,11.019l4.627,4.282l1.344,9.76l-1.258,3.704l-1.232,1.689l-14.312-1.893   l-2.588-0.416l-1.694-0.685l-0.137-0.203l0.03-0.137l-0.735-1.74l4.206-11.385l0.431-1.947v-8.554l-1.507-3.125l-0.254-1.674   L351.197,555.911"
       style="fill:#e27f90;fill-opacity:1" /><path
       id="ME_Oxford"
       inkscape:label="Oxford, ME"
       fill="#CCCCCC"
       stroke="#FFFFFF"
       stroke-width="2.2956"
       d="M310.749,512.485   l3.566,8.279l1.005,7.25l7.3,17.167l5.804-5.895l7.615,9.35l11.317,0.802l2.517,3.794l1.324,2.679l-1.284,1.573l0.254,1.674   l1.507,3.125v8.554l-0.431,1.947l-4.206,11.385l0.735,1.74l-2.45,2.445l-1.785-0.274l-0.32-0.157l-1.237-1.146l-0.751-1.188   l-2.928,7.681l-0.527,10.197l-9.01,3.911l-9.345-30.936l-8.578-27.278l-0.686-2.196l-9.674-29.176l-1.761-5.027l3.135-1.761   l6.312,3.496l0.639,0.319l1.329,0.021h0.021l0.548-0.503l0.097-0.248L310.749,512.485"
       style="fill:#e27f90;fill-opacity:1" /><path
       id="ME_Kennebec"
       inkscape:label="Kennebec, ME"
       fill="#CCCCCC"
       stroke="#FFFFFF"
       stroke-width="2.2956"
       d="M362.358,542.442   l4.89-1.167l10.294-0.847l0.522-0.614l-0.233-2.861l-1.553-1.142l-0.613-0.183l-0.802-0.827l-0.527-1.096l-0.229-0.685l6.311-3.181   l0.64-0.021l0.324,0.594l0.062,1.004l1.385,2.745l3.1-0.432l2.658,5.829l0.527,5.738l-2.339,0.228l-0.573,8.417l0.462,4.094   l-0.462,1.213l-0.385,0.365l-4.941,0.132l0.254,3.5l2.287,6.519l-4.896,0.224l-0.137-0.36l-0.35-0.437l-4.435,0.254l-0.34,0.432   l-0.411,0.756l-0.091,0.456l-0.111,1.553l-1.558,1.218l-3.47,0.229l-4.627-4.282l-4.317-11.019l-3.064-6.058L362.358,542.442"
       style="fill:#f2b3be;fill-opacity:1" /><path
       id="ME_Waldo"
       inkscape:label="Waldo, ME"
       fill="#CCCCCC"
       stroke="#FFFFFF"
       stroke-width="2.2956"
       d="M390.087,526.964   l2.607-1.283l2.541,5.099l14.403-8.163l1.304,0.868l-0.325,4.073l0.097,0.365l0.289,0.411l1.197,0.751l1.537,1.354l1.71,4.525   l0.248,1.258l0.046,0.365l-0.568,0.34l-4.91,3.501l-2.04,1.44l-0.162,0.827l0.614,1.05l0.441,0.594l0.613,0.162l0.391,0.319   l0.938,1.025l0.295,2.08v0.664l-2.172,6.402l-2.309-1.213l-10.404-4.297l-5.21,3.019l-0.411,1.096l-4.647,0.346l0.573-8.417   l2.339-0.228l-0.527-5.738l-2.658-5.829l-3.1,0.432l-1.385-2.745L390.087,526.964"
       style="fill:#b9d7ff;fill-opacity:1" /><path
       id="ME_Hancock"
       inkscape:label="Hancock, ME"
       fill="#CCCCCC"
       stroke="#FFFFFF"
       stroke-width="2.2956"
       d="M424.478,547.13   l0.228-0.092l0.391,0.112l2.4,0.71l0.735,0.527l0.522,0.797l0.34,3.292l-0.634,1.807l-0.944,1.577l-0.137,0.138l-0.319,0.025   l-2.009-1.076l-0.3-0.365l-1.05-3.13l-0.066-0.254l0.087-0.365l0.299-0.116l0.411-0.482l0.391-2.029v-0.461l-0.117-0.406   L424.478,547.13 M436.988,537.161l2.431-1.852l2.044-1.167l2.658-0.254l0.046,0.046l0.888,0.913l0.918,1.467l0.34,0.938   l-0.385,1.552l-0.025,0.071l-0.183,0.183l-1.324,1.507l-1.877,0.548l-0.548,0.507l-0.249,0.594l0.147,0.614l0.127,0.203l0.137,0.05   l0.456,0.822l-0.775,1.78l-0.944,0.437l-3.333-1.024l-1.237-1.146l-0.959-1.37l-0.249-0.872l0.295-1.872l1.141-2.034   L436.988,537.161 M410.943,523.484l1.283-0.568l2.466-1.375l1.126-2.08l2.942-2.196l7.184-3.703l-4.85-9.741l-1.715-3.176   l5.326-2.724l2.75-7.818l-3.779-7.157l10.313-5.394l4.068,7.655l3.384,7.204l0.781,3.272l-4.459,2.328l5.718,10.313l3.267,4.941   l1.396,3.521l0.203,2.01l2.81,5.032l1.355,2.399l1.258,1.969l0.594,0.639l0.091,1.121l-0.527,0.984l-0.319,0.086l-0.249-0.228   l-0.507-0.432l-0.568,0.843l-0.183,1.263l-0.163,0.888l-0.065,1.167l-0.025,0.365v0.527l-0.522,0.071h-0.025l-0.345-0.137   l-2.577-2.607l-0.716-0.919l-1.161-2.647l-0.254-0.894l0.046-0.573l-0.254-0.411l-0.319-0.183l-1.304,0.163l-1.776,0.365   l-1.588,0.319l-1.618,0.705l-0.254,2.309l-1.714,1.694l-1.532,1.055l-1.03,0.913l-0.776,1.507l-0.202,0.163l-0.305,0.065   l-0.34-0.229l-0.411-1.577l-0.106-0.843l-0.604-0.416l-0.411,0.025l-0.269,0.203l-0.168,0.345l-0.04,0.457l0.659,1.623l0.553,1.989   l-0.183,0.162l-0.578,0.111l-0.411-0.568l-0.061-0.618l-1.167-0.802l-1.238,1.491l-0.694,1.806l0.74,3.679l0.111,0.273l0.184,0.274   l0.481,0.365l0.827-0.183l0.477,0.502l1.03,1.421l0.07,0.319l0.295,1.578l0.07,0.548h-0.451l-0.878-0.229l-0.04-0.117l-0.69-0.456   l-2.328-1.116l-1.421-0.37l-4.931-0.959l-2.039,0.664l-0.822,1.116l-1.542,0.163l-0.132-0.274l-1.421-5.9l-0.046-1.278l0.122-0.162   l0.365-0.457l0.178-1.942l-0.086-0.73l-0.533,0.319l-0.046-0.365l-0.248-1.258l-1.71-4.525l-1.537-1.354l-1.197-0.751l-0.289-0.411   l-0.097-0.365L410.943,523.484"
       style="fill:#86b6f2;fill-opacity:1" /><path
       id="ME_Washington"
       inkscape:label="Washington, ME"
       fill="#CCCCCC"
       stroke="#FFFFFF"
       stroke-width="2.2956"
       d="   M436.892,447.575l15.392,0.71l0.527-0.37l0.913-0.319l0.294,0.045l1.512,1.142l0.229,0.411l3.795,12.008l0.365,2.309l-0.522,3.109   l-0.188,0.32l-0.761,0.639l0.056,0.69l1.847,1.963l4.099,4.114l2.694,1.421l0.091,0.046l0.162,0.07l0.478,0.112l0.228-0.046   l1.146-1.669l-0.183-1.076v-1.806l0.229-0.365l0.568-0.117l5.397,0.254h0.025l2.009,1.467l1.127,1.004l9.669,11.774l1.005,1.969   l1.212,2.901l0.092,0.457l-1.208,2.927l-4.002,8.255l-1.056,1.968l-3.039,3.338l-1.72,0.365l-6.26,2.993l-14.996,16.488   l-1.812,0.938l-1.532,0.685l-0.41,0.137l-0.594-0.639l-1.258-1.969l-1.355-2.399l-2.81-5.032l-0.203-2.01l-1.396-3.521   l-3.267-4.941l-5.718-10.313l4.459-2.328l-0.781-3.272l-3.384-7.204l-4.068-7.655l1.283-0.502l3.653-1.831l-2.354-5.19   l-9.527-16.67L436.892,447.575"
       style="fill:#e27f90;fill-opacity:1" /><path
       id="ME_Penobscot"
       inkscape:label="Penobscot, ME"
       fill="#CCCCCC"
       stroke="#FFFFFF"
       stroke-width="2.2956"
       d="   M427.044,453.358l9.527,16.67l2.354,5.19l-3.653,1.831l-1.283,0.502l-10.313,5.394l3.779,7.157l-2.75,7.818l-5.326,2.724   l1.715,3.176l4.85,9.741l-7.184,3.703l-2.942,2.196l-1.126,2.08l-2.466,1.375l-1.283,0.568l-1.304-0.868l-14.403,8.163   l-2.541-5.099l-2.607,1.283l-10.359-20.992l8.532-4.322l12.389-6.474l1.761-7.178l-8.888-16.944l-4.439,2.313l-2.536-9.467   l5.509-3.13l-5.717-19.897l-4.571-15.595l-2.557-9.146l5.413-1.553l11.501-2.511l8.527,27.228l1.375,4.348l1.415,5.027l0.736,3.084   l3.084,10.477l1.024,0.157l3.293-1.826l3.115-1.766l-0.112-0.34l0.021-0.229L427.044,453.358"
       style="fill:#e27f90;fill-opacity:1" /><path
       id="ME_Franklin"
       inkscape:label="Franklin, ME"
       fill="#CCCCCC"
       stroke="#FFFFFF"
       stroke-width="2.2956"
       d="M316.298,483.838   l6.042,13.032l8.802,17.949l5.692-0.229l5.145-1.415l1.004-0.528l16.792,25.721l2.583,4.074l-6.748,10.288l-4.413,3.181   l-1.324-2.679l-2.517-3.794l-11.317-0.802l-7.615-9.35l-5.804,5.895l-7.3-17.167l-1.005-7.25l-3.566-8.279l-0.046-2.191   l-0.045-2.105l0.613-13.032l0.64-3.496l0.416-0.826l0.477-0.959l1.126-2.034l1.73-3.176l0.142-0.233L316.298,483.838"
       style="fill:#f2b3be;fill-opacity:1" /><path
       id="ME_Somerset"
       inkscape:label="Somerset, ME"
       fill="#CCCCCC"
       stroke="#FFFFFF"
       stroke-width="2.2956"
       d="M336.728,416.314   l2.714,11.46l6.356,21.789l3.064,3.476l3.795,6.904l-1.847,7.889l1.664,13.997l13.469,26.294l3.11,5.189l4.388-2.196l6.286-5.145   l10.359,20.992l-8.645,4.454l-0.062-1.004l-0.324-0.594l-0.64,0.021l-6.311,3.181l0.229,0.685l0.527,1.096l0.802,0.827l0.613,0.183   l1.553,1.142l0.233,2.861l-0.522,0.614l-10.294,0.847l-4.89,1.167l-2.583-4.074l-16.792-25.721l-1.004,0.528l-5.145,1.415   l-5.692,0.229l-8.802-17.949l-6.042-13.032l0.371-0.457l2.541-3.044l5.9-14.266l0.106-1.05l-0.106-2.725l-0.711-0.548l-0.73-0.34   h-2.196l-0.848-2.795l-0.735-3.06l-1.415-8.208l0.573-4.438l0.71-5.327l0.025-0.066l0.497-1.42l0.441-0.685l0.062-0.046   l0.121-0.066l1.436-1.055l2.537-3.932l-0.522-4.186l-0.776-6.108L336.728,416.314"
       style="fill:#e27f90;fill-opacity:1" /></g></svg>