<?xml version="1.0" encoding="UTF-8" standalone="no"?>
<!-- Created with Inkscape (http://www.inkscape.org/) -->

<svg
   xmlns:dc="http://purl.org/dc/elements/1.1/"
   xmlns:cc="http://creativecommons.org/ns#"
   xmlns:rdf="http://www.w3.org/1999/02/22-rdf-syntax-ns#"
   xmlns:svg="http://www.w3.org/2000/svg"
   xmlns="http://www.w3.org/2000/svg"
   xmlns:sodipodi="http://sodipodi.sourceforge.net/DTD/sodipodi-0.dtd"
   xmlns:inkscape="http://www.inkscape.org/namespaces/inkscape"
   width="288.86444"
   height="323.96478"
   id="svg5598"
   sodipodi:version="0.32"
   inkscape:version="0.91 r"
   version="1.0"
   sodipodi:docname="Minnesota_Presidential_Election_Results_2016.svg"
   inkscape:output_extension="org.inkscape.output.svg.inkscape">
  <defs
     id="defs5600">
    <linearGradient
       id="linearGradient13400">
      <stop
         style="stop-color:#ffff00;stop-opacity:1;"
         offset="0"
         id="stop13402" />
      <stop
         style="stop-color:#000080;stop-opacity:1;"
         offset="1"
         id="stop13404" />
    </linearGradient>
    <linearGradient
       id="linearGradient15484">
      <stop
         id="stop15486"
         offset="0"
         style="stop-color:#ffff00;stop-opacity:1;" />
      <stop
         id="stop15488"
         offset="1"
         style="stop-color:#008000;stop-opacity:1;" />
    </linearGradient>
    <inkscape:perspective
       sodipodi:type="inkscape:persp3d"
       inkscape:vp_x="0 : 526.18109 : 1"
       inkscape:vp_y="0 : 1000 : 0"
       inkscape:vp_z="744.09448 : 526.18109 : 1"
       inkscape:persp3d-origin="372.04724 : 350.78739 : 1"
       id="perspective5606" />
  </defs>
  <sodipodi:namedview
     id="base"
     pagecolor="#ffffff"
     bordercolor="#666666"
     borderopacity="1.0"
     gridtolerance="10000"
     guidetolerance="10"
     objecttolerance="10"
     inkscape:pageopacity="0.0"
     inkscape:pageshadow="2"
     inkscape:zoom="0.92879621"
     inkscape:cx="123.78384"
     inkscape:cy="177.24768"
     inkscape:document-units="px"
     inkscape:current-layer="layer1"
     showgrid="false"
     showguides="true"
     inkscape:guide-bbox="true"
     inkscape:window-width="1559"
     inkscape:window-height="640"
     inkscape:window-x="1920"
     inkscape:window-y="166"
     inkscape:window-maximized="0" />
  <metadata
     id="metadata5603">
    <rdf:RDF>
      <cc:Work
         rdf:about="">
        <dc:format>image/svg+xml</dc:format>
        <dc:type
           rdf:resource="http://purl.org/dc/dcmitype/StillImage" />
      </cc:Work>
    </rdf:RDF>
  </metadata>
  <g
     inkscape:label="Layer 1"
     inkscape:groupmode="layer"
     id="layer1"
     transform="translate(-341.36257,-365.78528)">
    <path
       style="font-size:12px;fill:#e27f90;fill-opacity:1;fill-rule:nonzero;stroke:#ffffff;stroke-width:0.91394252"
       d="M 566.70612,653.57921 L 567.588,659.66268 L 569.99565,670.93602 L 555.68251,671.62281 L 551.3394,671.81791 L 550.54336,654.35185 L 566.70612,653.57921"
       id="MN_Houston"
       inkscape:label="Houston, MN" />
    <path
       style="font-size:12px;fill:#e27f90;fill-opacity:1;fill-rule:nonzero;stroke:#ffffff;stroke-width:0.91394252"
       d="M 537.91597,654.87863 L 550.54336,654.35185 L 551.3394,671.81791 L 538.60275,672.36031 L 525.18711,672.90662 L 524.55106,656.07659 L 537.91597,654.87863"
       id="MN_Fillmore"
       inkscape:label="Fillmore, MN" />
    <path
       style="font-size:12px;fill:#e27f90;fill-opacity:1;fill-rule:nonzero;stroke:#ffffff;stroke-width:0.91394252"
       d="M 449.03253,430.44581 L 448.69693,413.52602 L 449.1691,413.33481 L 450.08611,413.26457 L 452.7942,413.2997 L 453.39514,413.40506 L 454.42921,413.96697 L 454.74528,414.59912 L 454.7648,414.9347 L 454.79992,415.93757 L 454.79992,415.95707 L 455.00673,416.09755 L 455.69741,416.27314 L 459.00255,416.46435 L 461.48043,416.42923 L 468.63699,417.04578 L 468.8516,417.22138 L 469.27304,417.994 L 469.83495,419.56267 L 469.90519,420.01532 L 469.72959,421.31865 L 469.50327,421.70496 L 469.50327,421.93518 L 469.62423,422.11078 L 470.33053,422.62197 L 471.61433,422.62197 L 474.79459,422.51661 L 478.75139,421.75958 L 481.33853,420.86209 L 481.54924,420.61625 L 481.67021,420.05434 L 481.6585,419.77339 L 481.49461,419.4378 L 481.31901,418.78615 L 481.37754,418.55591 L 485.27971,416.7297 L 488.37413,415.83221 L 489.97401,415.79709 L 490.92223,416.63995 L 492.1202,416.60483 L 492.19043,416.60483 L 494.00103,416.41363 L 494.19224,427.01971 L 494.28589,435.60055 L 494.57855,444.30627 L 494.91805,446.59294 L 495.30045,451.16628 L 495.3746,453.08224 L 471.68068,453.3632 L 471.73529,455.98545 L 449.80515,456.45762 L 449.03253,430.44581"
       id="MN_Koochiching"
       inkscape:label="Koochiching, MN" />
    <path
       style="font-size:12px;fill:#cc2f4a;fill-opacity:1;fill-rule:nonzero;stroke:#ffffff;stroke-width:0.91394252"
       d="M 418.51372,399.36898 L 424.19526,399.31826 L 424.12893,390.08574 L 424.09381,386.84695 L 424.05869,381.66097 L 424.03917,380.23668 L 424.03917,380.18205 L 430.58311,380.81812 L 432.19861,381.78193 L 435.05108,383.80716 L 436.8773,393.12551 L 437.72406,399.12314 L 439.86636,410.13504 L 441.43113,411.55933 L 441.9735,412.051 L 444.21335,413.2997 L 445.17719,413.8304 L 445.23183,413.88113 L 445.70788,413.91624 L 447.40923,414.09185 L 448.69693,413.52602 L 449.03253,430.44581 L 422.54465,430.85162 L 422.43929,422.18102 L 418.02205,422.20053 L 417.97133,413.59626 L 426.48193,413.52602 L 426.32585,403.1892 L 425.49858,404.04767 L 424.75718,404.48861 L 424.42549,404.62909 L 421.80714,405.17541 L 421.42083,405.17541 L 420.85502,405.03492 L 419.30586,404.0828 L 418.56834,402.65851 L 418.42787,400.23135 L 418.51372,399.36898"
       id="MN_Lake_of_the_Woods"
       inkscape:label="Lake of the Woods, MN" />
    <path
       style="font-size:12px;fill:#d40000;fill-opacity:1;fill-rule:nonzero;stroke:#ffffff;stroke-width:0.91394252"
       d="M 418.51372,399.36898 L 418.42787,400.23135 L 418.56834,402.65851 L 419.30586,404.0828 L 420.85502,405.03492 L 421.42083,405.17541 L 421.80714,405.17541 L 424.42549,404.62909 L 424.75718,404.48861 L 425.49858,404.04767 L 426.32585,403.1892 L 426.48193,413.52602 L 417.97133,413.59626 L 418.02205,422.20053 L 409.24609,422.3215 L 382.727,422.04054 L 382.70748,418.23984 L 382.17679,413.42457 L 382.23142,399.36898 L 418.51372,399.36898"
       id="MN_Roseau"
       inkscape:label="Roseau, MN" />
    <path
       style="font-size:12px;fill:#e27f90;fill-opacity:1;fill-rule:nonzero;stroke:#ffffff;stroke-width:0.91394252"
       d="M 354.60411,399.08802 L 382.23142,399.36898 L 382.17679,413.42457 L 382.70748,418.23984 L 382.727,422.04054 L 356.53567,421.84544 L 359.00185,415.00494 L 357.52292,411.64519 L 356.87127,409.70971 L 354.44412,401.78051 L 354.24902,400.72694 L 354.28803,399.98553 L 354.44412,399.24801 L 354.60411,399.08802"
       id="MN_Kittson"
       inkscape:label="Kittson, MN" />
    <path
       style="font-size:12px;fill:#cc2f4a;fill-opacity:1;fill-rule:nonzero;stroke:#ffffff;stroke-width:0.91394252"
       d="M 405.73024,452.39545 L 405.74975,456.75807 L 401.38713,461.15192 L 383.80009,461.15192 L 379.36723,456.77759 L 379.36723,450.99068 L 405.71072,450.97116 L 405.73024,452.39545"
       id="MN_Red_Lake"
       inkscape:label="Red Lake, MN" />
    <path
       style="font-size:12px;fill:#cc2f4a;fill-opacity:1;fill-rule:nonzero;stroke:#ffffff;stroke-width:0.91394252"
       d="M 409.61679,440.54069 L 410.02261,448.15771 L 410.05774,452.46569 L 405.73024,452.39545 L 405.71072,450.97116 L 379.36723,450.99068 L 378.80141,440.47046 L 387.12473,440.48995 L 389.65332,440.59531 L 395.80703,440.64995 L 409.61679,440.54069"
       id="MN_Pennington"
       inkscape:label="Pennington, MN" />
    <path
       style="font-size:12px;fill:#cc2f4a;fill-opacity:1;fill-rule:nonzero;stroke:#ffffff;stroke-width:0.91394252"
       d="M 356.53567,421.84544 L 382.727,422.04054 L 409.24609,422.3215 L 409.24609,428.79518 L 409.30072,430.94137 L 409.59728,430.95698 L 409.61679,440.54069 L 395.80703,440.64995 L 389.65332,440.59531 L 387.12473,440.48995 L 378.80141,440.47046 L 356.83615,440.33387 L 356.85566,439.31151 L 357.96387,435.03864 L 357.74925,423.0434 L 356.96102,422.07566 L 356.69567,421.93518 L 356.53567,421.84544"
       id="MN_Marshall"
       inkscape:label="Marshall, MN" />
    <path
       style="font-size:12px;fill:#cc2f4a;fill-opacity:1;fill-rule:nonzero;stroke:#ffffff;stroke-width:0.91394252"
       d="M 378.80141,440.47046 L 379.36723,450.99068 L 379.36723,456.77759 L 383.80009,461.15192 L 401.38713,461.15192 L 405.74975,456.75807 L 405.73024,452.39545 L 410.05774,452.46569 L 410.23333,464.67167 L 410.58843,465.4794 L 411.11131,465.4794 L 411.11131,474.1344 L 393.50866,474.22416 L 366.5096,474.09927 L 365.33115,465.42867 L 360.90221,455.31427 L 357.62828,443.51414 L 356.83615,440.45485 L 356.83615,440.33387 L 378.80141,440.47046"
       id="MN_Polk"
       inkscape:label="Polk, MN" />
    <path
       style="font-size:12px;fill:#e27f90;fill-opacity:1;fill-rule:nonzero;stroke:#ffffff;stroke-width:0.91394252"
       d="M 393.50866,474.22416 L 393.50866,491.61609 L 389.11092,491.6356 L 367.30175,491.54584 L 367.12616,487.18323 L 366.5096,474.09927 L 393.50866,474.22416"
       id="MN_Norman"
       inkscape:label="Norman, MN" />
    <path
       style="font-size:12px;fill:#f2b3be;fill-opacity:1;fill-rule:nonzero;stroke:#ffffff;stroke-width:0.91394252"
       d="M 411.11131,474.1344 L 411.30643,491.58097 L 393.50866,491.61609 L 393.50866,474.22416 L 411.11131,474.1344"
       id="MN_Mahnomen"
       inkscape:label="Mahnomen, MN" />
    <path
       style="font-size:12px;fill:#cc2f4a;fill-opacity:1;fill-rule:nonzero;stroke:#ffffff;stroke-width:0.91394252"
       d="M 410.05774,452.46569 L 410.02261,448.15771 L 422.0686,448.10308 L 423.33679,455.45866 L 423.7231,465.40918 L 423.8792,478.42677 L 424.48012,491.44048 L 411.30643,491.58097 L 411.11131,474.1344 L 411.11131,465.4794 L 410.58843,465.4794 L 410.23333,464.67167 L 410.05774,452.46569"
       id="MN_Clearwater"
       inkscape:label="Clearwater, MN" />
    <path
       style="font-size:12px;fill:#e27f90;fill-opacity:1;fill-rule:nonzero;stroke:#ffffff;stroke-width:0.91394252"
       d="M 418.02205,422.20053 L 422.43929,422.18102 L 422.54465,430.85162 L 449.03253,430.44581 L 449.80515,456.45762 L 449.93002,464.5507 L 450.19147,470.84489 L 450.21098,476.49132 L 441.52086,478.35654 L 423.8792,478.42677 L 423.7231,465.40918 L 423.33679,455.45866 L 422.0686,448.10308 L 410.02261,448.15771 L 409.61679,440.54069 L 409.59728,430.95698 L 409.30072,430.94137 L 409.24609,428.79518 L 409.24609,422.3215 L 418.02205,422.20053"
       id="MN_Beltrami"
       inkscape:label="Beltrami, MN" />
    <path
       style="font-size:12px;fill:#86b6f2;fill-opacity:1;fill-rule:nonzero;stroke:#ffffff;stroke-width:0.91394252"
       d="M 564.43896,435.24936 L 566.23396,433.75483 L 569.25813,432.27591 L 570.56146,432.27591 L 570.68242,432.31103 L 570.84241,432.50614 L 572.19647,435.5108 L 572.77399,437.16532 L 572.77399,437.20045 L 573.86268,439.40126 L 574.21779,439.73294 L 580.35588,438.58961 L 593.68176,437.53602 L 595.05922,437.46578 L 596.59278,437.74674 L 597.20151,437.88722 L 598.96139,438.58961 L 599.91352,439.89294 L 600.08521,440.29876 L 600.01497,440.98164 L 600.17496,441.33283 L 601.05685,441.96888 L 603.55423,443.16295 L 604.37759,443.21757 L 605.22046,442.81175 L 611.69804,441.61768 L 617.34057,440.89579 L 617.28984,441.36795 L 617.16497,441.50843 L 615.22949,443.02247 L 614.66759,443.44391 L 607.40567,447.71677 L 602.76599,450.25316 L 600.12424,451.69307 L 597.64246,452.76617 L 594.60267,453.78462 L 592.26137,454.61189 L 585.80721,457.31998 L 582.62303,458.67795 L 576.044,462.98202 L 571.70088,466.59152 L 566.63588,471.46142 L 565.63692,451.00629 L 565.02039,441.57867 L 564.43896,435.24936"
       id="MN_Cook"
       inkscape:label="Cook, MN" />
    <path
       style="font-size:12px;fill:#b9d7ff;fill-opacity:1;fill-rule:nonzero;stroke:#ffffff;stroke-width:0.91394252"
       d="M 564.43896,435.24936 L 565.02039,441.57867 L 565.63692,451.00629 L 566.63588,471.46142 L 565.87887,471.91798 L 563.20978,474.90704 L 562.28107,475.99964 L 558.03941,481.87239 L 552.52957,488.48655 L 551.86229,489.20455 L 550.47312,490.14107 L 548.6274,491.14392 L 544.2999,495.59239 L 543.22681,496.76694 L 541.34207,499.0224 L 540.25726,470.00202 L 539.42611,459.41544 L 539.21539,455.15818 L 538.42326,436.07662 L 540.3314,435.77616 L 541.26012,435.98688 L 541.29524,436.04149 L 541.4162,436.25221 L 541.90788,438.67937 L 541.66204,439.77197 L 541.54108,440.08804 L 541.55668,440.20902 L 544.00333,440.927 L 549.25955,442.16008 L 554.67965,441.77378 L 555.97517,441.54746 L 556.77122,441.26259 L 557.2941,440.98164 L 557.31752,440.98164 L 564.43896,435.24936"
       id="MN_Lake"
       inkscape:label="Lake, MN" />
    <path
       style="font-size:12px;fill:#e27f90;fill-opacity:1;fill-rule:nonzero;stroke:#ffffff;stroke-width:0.91394252"
       d="M 495.3746,453.08224 L 495.39021,456.56687 L 495.60483,461.64748 L 496.20185,467.43439 L 496.67401,479.05893 L 496.88473,485.1268 L 497.44665,492.1624 L 497.57542,496.31039 L 472.71865,496.78645 L 472.43769,483.05084 L 472.10601,482.87524 L 469.58912,482.39919 L 468.92184,482.34846 L 468.90623,482.53966 L 468.06337,483.27717 L 467.67315,483.49179 L 466.74444,482.91036 L 463.7866,480.90465 L 463.38468,480.48322 L 463.10372,479.72621 L 463.10372,478.47751 L 463.17005,478.33702 L 463.08031,477.43953 L 461.74576,475.10214 L 461.21899,474.62607 L 460.42684,474.50511 L 454.30825,477.40832 L 453.46148,477.89998 L 451.3309,477.29905 L 450.21098,476.49132 L 450.19147,470.84489 L 449.93002,464.5507 L 449.80515,456.45762 L 471.73529,455.98545 L 471.68068,453.3632 L 495.3746,453.08224"
       id="MN_Itasca"
       inkscape:label="Itasca, MN" />
    <path
       style="font-size:12px;fill:#cc2f4a;fill-opacity:1;fill-rule:nonzero;stroke:#ffffff;stroke-width:0.91394252"
       d="M 423.8792,478.42677 L 441.52086,478.35654 L 441.80572,482.7894 L 442.22326,500.04085 L 442.29349,508.73097 L 437.89966,508.76608 L 424.86644,508.85193 L 424.79229,500.16572 L 424.54646,499.58431 L 424.48012,495.9787 L 424.48012,491.44048 L 423.8792,478.42677"
       id="MN_Hubbard"
       inkscape:label="Hubbard, MN" />
    <path
       style="font-size:12px;fill:#cc2f4a;fill-opacity:1;fill-rule:nonzero;stroke:#ffffff;stroke-width:0.91394252"
       d="M 441.52086,478.35654 L 450.21098,476.49132 L 451.3309,477.29905 L 453.46148,477.89998 L 454.30825,477.40832 L 460.42684,474.50511 L 461.21899,474.62607 L 461.74576,475.10214 L 463.08031,477.43953 L 463.17005,478.33702 L 463.10372,478.47751 L 463.10372,479.72621 L 463.38468,480.48322 L 463.7866,480.90465 L 466.74444,482.91036 L 467.67315,483.49179 L 468.06337,483.27717 L 468.90623,482.53966 L 468.92184,482.34846 L 469.58912,482.39919 L 472.10601,482.87524 L 472.43769,483.05084 L 472.94888,508.18467 L 453.3054,508.45001 L 453.28588,514.23692 L 453.35612,517.18696 L 453.91803,519.58288 L 454.25363,532.22588 L 454.28874,534.30184 L 454.11315,534.82862 L 453.79707,534.91837 L 453.71122,534.4072 L 453.48099,534.03649 L 450.7885,532.22588 L 449.61005,532.31173 L 449.36421,532.73708 L 448.68133,533.17411 L 447.02292,533.77114 L 446.67563,533.68529 L 443.84265,532.4366 L 442.85541,531.53911 L 440.11218,530.55576 L 438.42255,529.30707 L 438.04012,517.47181 L 437.89966,508.76608 L 442.29349,508.73097 L 442.22326,500.04085 L 441.80572,482.7894 L 441.52086,478.35654"
       id="MN_Cass"
       inkscape:label="Cass, MN" />
    <path
       style="font-size:12px;fill:#d40000;fill-opacity:1;fill-rule:nonzero;stroke:#ffffff;stroke-width:0.91394252"
       d="M 437.89966,508.76608 L 438.04012,517.47181 L 438.42255,529.30707 L 440.11218,530.55576 L 425.30349,530.71575 L 424.86644,513.23015 L 424.86644,508.85193 L 437.89966,508.76608"
       id="MN_Wadena"
       inkscape:label="Wadena, MN" />
    <path
       style="font-size:12px;fill:#cc2f4a;fill-opacity:1;fill-rule:nonzero;stroke:#ffffff;stroke-width:0.91394252"
       d="M 424.48012,491.44048 L 424.48012,495.9787 L 424.54646,499.58431 L 424.79229,500.16572 L 424.86644,508.85193 L 424.86644,513.23015 L 408.48905,513.44087 L 389.76259,513.33551 L 389.11092,491.6356 L 393.50866,491.61609 L 411.30643,491.58097 L 424.48012,491.44048"
       id="MN_Becker"
       inkscape:label="Becker, MN" />
    <path
       style="font-size:12px;fill:#f2b3be;fill-opacity:1;fill-rule:nonzero;stroke:#ffffff;stroke-width:0.91394252"
       d="M 389.11092,491.6356 L 389.76259,513.33551 L 386.04774,517.69813 L 368.58557,517.61229 L 368.56604,514.79492 L 369.23722,503.85717 L 368.81189,502.69432 L 367.35247,497.91027 L 367.30175,491.54584 L 389.11092,491.6356"
       id="MN_Clay"
       inkscape:label="Clay, MN" />
    <path
       style="font-size:12px;fill:#cc2f4a;fill-opacity:1;fill-rule:nonzero;stroke:#ffffff;stroke-width:0.91394252"
       d="M 368.58557,517.61229 L 386.04774,517.69813 L 386.03213,535.17982 L 386.56282,535.17982 L 386.52379,543.92066 L 386.48867,548.28328 L 375.55092,548.21304 L 376.20257,546.38292 L 376.28842,546.06686 L 376.35866,545.04838 L 376.2533,544.1665 L 374.91487,533.61506 L 370.08009,521.971 L 368.58557,517.6279 L 368.58557,517.61229"
       id="MN_Wilkin"
       inkscape:label="Wilkin, MN" />
    <path
       style="font-size:12px;fill:#cc2f4a;fill-opacity:1;fill-rule:nonzero;stroke:#ffffff;stroke-width:0.91394252"
       d="M 389.76259,513.33551 L 408.48905,513.44087 L 424.86644,513.23015 L 425.30349,530.71575 L 425.76394,543.88554 L 403.88062,543.95578 L 386.52379,543.92066 L 386.56282,535.17982 L 386.03213,535.17982 L 386.04774,517.69813 L 389.76259,513.33551"
       id="MN_Otter_Tail"
       inkscape:label="Otter Tail, MN" />
    <path
       style="font-size:12px;fill:#86b6f2;fill-opacity:1;fill-rule:nonzero;stroke:#ffffff;stroke-width:0.91394252"
       d="M 494.00103,416.41363 L 497.64176,416.42923 L 521.50738,429.63805 L 522.38537,429.02541 L 529.38585,428.51423 L 530.28334,430.14924 L 531.8169,433.349 L 531.97298,433.59484 L 532.25393,433.98507 L 538.42326,436.07662 L 539.21539,455.15818 L 539.42611,459.41544 L 540.25726,470.00202 L 541.34207,499.0224 L 539.76559,499.81063 L 538.3569,500.8486 L 532.46464,505.89799 L 531.56715,506.72527 L 531.30181,507.05695 L 531.53594,507.75933 L 532.41392,509.13289 L 533.8187,510.80301 L 534.20501,511.01373 L 534.02551,511.1386 L 533.53775,510.92789 L 531.53594,508.9729 L 530.59941,509.04314 L 528.14105,510.71717 L 527.94594,511.11909 L 527.91082,511.48979 L 528.03179,511.80586 L 528.03179,511.84099 L 528.2074,512.03611 L 528.24251,512.07122 L 528.27764,512.63314 L 527.80547,513.86622 L 527.64548,514.0223 L 527.47378,514.12766 L 526.43191,514.1979 L 525.46416,514.11204 L 524.67594,513.56575 L 524.14523,508.53585 L 516.09118,508.74657 L 497.78222,509.328 L 497.57542,496.31039 L 497.44665,492.1624 L 496.88473,485.1268 L 496.67401,479.05893 L 496.20185,467.43439 L 495.60483,461.64748 L 495.39021,456.56687 L 495.3746,453.08224 L 495.30045,451.16628 L 494.91805,446.59294 L 494.57855,444.30627 L 494.28589,435.60055 L 494.19224,427.01971 L 494.00103,416.41363"
       id="MN_St._Louis"
       inkscape:label="St. Louis, MN" />
    <path
       style="font-size:12px;fill:#b9d7ff;fill-opacity:1;fill-rule:nonzero;stroke:#ffffff;stroke-width:0.91394252"
       d="M 497.78222,509.328 L 516.09118,508.74657 L 524.14523,508.53585 L 524.67594,513.56575 L 525.13248,525.89268 L 498.55486,526.73945 L 498.29342,519.19266 L 498.01246,518.01421 L 497.9032,516.15288 L 497.80174,513.67111 L 497.78222,509.328"
       id="MN_Carlton"
       inkscape:label="Carlton, MN" />
    <path
       style="font-size:12px;fill:#e27f90;fill-opacity:1;fill-rule:nonzero;stroke:#ffffff;stroke-width:0.91394252"
       d="M 498.55486,526.73945 L 525.13248,525.89268 L 525.60465,538.94541 L 525.69439,541.12672 L 525.76463,543.0973 L 520.645,546.29318 L 513.32845,551.09674 L 513.31673,551.11625 L 511.56857,552.6459 L 511.12763,553.22731 L 510.69059,554.01556 L 507.15913,561.08628 L 496.56866,561.38674 L 496.14332,548.82958 L 499.22213,548.70472 L 498.99971,539.82339 L 498.55486,526.73945"
       id="MN_Pine"
       inkscape:label="Pine, MN" />
    <path
       style="font-size:12px;fill:#cc2f4a;fill-opacity:1;fill-rule:nonzero;stroke:#ffffff;stroke-width:0.91394252"
       d="M 485.77138,540.42044 L 498.99971,539.82339 L 499.22213,548.70472 L 496.14332,548.82958 L 496.56866,561.38674 L 483.44959,561.57795 L 483.11401,554.50723 L 482.97743,549.14565 L 484.5383,549.09104 L 485.93136,547.63163 L 485.77138,540.42044"
       id="MN_Kanabec"
       inkscape:label="Kanabec, MN" />
    <path
       style="font-size:12px;fill:#cc2f4a;fill-opacity:1;fill-rule:nonzero;stroke:#ffffff;stroke-width:0.91394252"
       d="M 497.57542,496.31039 L 497.78222,509.328 L 497.80174,513.67111 L 497.9032,516.15288 L 498.01246,518.01421 L 498.29342,519.19266 L 498.55486,526.73945 L 498.99971,539.82339 L 485.77138,540.42044 L 485.80651,539.10149 L 485.70115,535.79637 L 482.07602,535.85099 L 472.91376,536.26853 L 472.51184,536.00707 L 472.40257,535.90173 L 472.38696,535.78075 L 471.98505,519.17706 L 473.05424,515.50123 L 472.94888,508.18467 L 472.71865,496.78645 L 497.57542,496.31039"
       id="MN_Aitkin"
       inkscape:label="Aitkin, MN" />
    <path
       style="font-size:12px;fill:#cc2f4a;fill-opacity:1;fill-rule:nonzero;stroke:#ffffff;stroke-width:0.91394252"
       d="M 453.79707,534.91837 L 454.11315,534.82862 L 454.28874,534.30184 L 454.25363,532.22588 L 453.91803,519.58288 L 453.35612,517.18696 L 453.28588,514.23692 L 453.3054,508.45001 L 472.94888,508.18467 L 473.05424,515.50123 L 471.98505,519.17706 L 472.38696,535.78075 L 472.40257,535.90173 L 472.51184,536.00707 L 472.91376,536.26853 L 472.51184,540.63114 L 452.7591,541.00185 L 452.70446,539.33172 L 452.73958,536.67435 L 453.79707,534.91837"
       id="MN_Crow_Wing"
       inkscape:label="Crow Wing, MN" />
    <path
       style="font-size:12px;fill:#d40000;fill-opacity:1;fill-rule:nonzero;stroke:#ffffff;stroke-width:0.91394252"
       d="M 442.85541,531.53911 L 443.84265,532.4366 L 446.67563,533.68529 L 447.02292,533.77114 L 448.68133,533.17411 L 449.36421,532.73708 L 449.61005,532.31173 L 450.7885,532.22588 L 453.48099,534.03649 L 453.71122,534.4072 L 453.79707,534.91837 L 452.73958,536.67435 L 452.70446,539.33172 L 452.7591,541.00185 L 472.51184,540.63114 L 472.71865,549.34077 L 472.89814,549.34077 L 474.25221,552.27519 L 474.53315,557.37532 L 465.86255,557.48068 L 453.79707,557.81236 L 456.69637,560.11854 L 443.59682,560.38389 L 442.85541,531.53911"
       id="MN_Morrison"
       inkscape:label="Morrison, MN" />
    <path
       style="font-size:12px;fill:#d40000;fill-opacity:1;fill-rule:nonzero;stroke:#ffffff;stroke-width:0.91394252"
       d="M 440.11218,530.55576 L 442.85541,531.53911 L 443.59682,560.38389 L 426.13464,560.62972 L 425.76394,543.88554 L 425.30349,530.71575 L 440.11218,530.55576"
       id="MN_Todd"
       inkscape:label="Todd, MN" />
    <path
       style="font-size:12px;fill:#cc2f4a;fill-opacity:1;fill-rule:nonzero;stroke:#ffffff;stroke-width:0.91394252"
       d="M 425.76394,543.88554 L 426.13464,560.62972 L 426.13464,561.35162 L 404.32155,561.42187 L 404.30595,552.69662 L 403.91963,552.69662 L 403.88062,543.95578 L 425.76394,543.88554"
       id="MN_Douglas"
       inkscape:label="Douglas, MN" />
    <path
       style="font-size:12px;fill:#e27f90;fill-opacity:1;fill-rule:nonzero;stroke:#ffffff;stroke-width:0.91394252"
       d="M 386.52379,543.92066 L 403.88062,543.95578 L 403.91963,552.69662 L 404.30595,552.69662 L 404.32155,561.42187 L 386.87889,561.43747 L 386.48867,548.28328 L 386.52379,543.92066"
       id="MN_Grant"
       inkscape:label="Grant, MN" />
    <path
       style="font-size:12px;fill:#e27f90;fill-opacity:1;fill-rule:nonzero;stroke:#ffffff;stroke-width:0.91394252"
       d="M 375.55092,548.21304 L 386.48867,548.28328 L 386.87889,561.43747 L 386.87889,570.19783 L 366.29888,570.03783 L 365.66674,569.23008 L 365.52626,569.03498 L 366.01793,567.34925 L 366.13891,567.06829 L 366.19352,567.01366 L 366.26377,566.9239 L 366.3184,566.85366 L 369.53378,564.27044 L 370.75126,563.47831 L 372.1053,562.74079 L 372.82331,562.01888 L 375.28557,558.36257 L 375.3402,558.23769 L 375.37532,558.16745 L 375.41044,558.06209 L 375.44556,557.81236 L 375.5314,557.35581 L 375.65628,556.26711 L 375.81237,554.93256 L 375.83188,554.87793 L 375.83188,554.77259 L 376.02698,552.57566 L 375.55092,548.21304"
       id="MN_Traverse"
       inkscape:label="Traverse, MN" />
    <path
       style="font-size:12px;fill:#e27f90;fill-opacity:1;fill-rule:nonzero;stroke:#ffffff;stroke-width:0.91394252"
       d="M 366.29888,570.03783 L 386.87889,570.19783 L 387.29643,570.19783 L 387.2613,578.88404 L 391.67855,578.93867 L 392.1351,590.77392 L 389.65332,589.91154 L 386.04774,588.45604 L 385.71605,587.73024 L 384.20591,587.04345 L 379.73794,586.09523 L 379.15651,583.19202 L 378.48534,581.64676 L 377.3264,580.71415 L 373.93152,579.05963 L 368.76116,573.32736 L 366.29888,570.03783"
       id="MN_Big_Stone"
       inkscape:label="Big Stone, MN" />
    <path
       style="font-size:12px;fill:#e27f90;fill-opacity:1;fill-rule:nonzero;stroke:#ffffff;stroke-width:0.91394252"
       d="M 404.7586,578.90355 L 422.21296,578.79819 L 422.61489,591.90165 L 394.51153,592.00701 L 392.1351,590.77392 L 391.67855,578.93867 L 404.7586,578.90355"
       id="MN_Swift"
       inkscape:label="Swift, MN" />
    <path
       style="font-size:12px;fill:#e27f90;fill-opacity:1;fill-rule:nonzero;stroke:#ffffff;stroke-width:0.91394252"
       d="M 404.32155,561.42187 L 404.35667,570.19783 L 404.72739,570.19783 L 404.7586,578.90355 L 391.67855,578.93867 L 387.2613,578.88404 L 387.29643,570.19783 L 386.87889,570.19783 L 386.87889,561.43747 L 404.32155,561.42187"
       id="MN_Stevens"
       inkscape:label="Stevens, MN" />
    <path
       style="font-size:12px;fill:#cc2f4a;fill-opacity:1;fill-rule:nonzero;stroke:#ffffff;stroke-width:0.91394252"
       d="M 426.13464,561.35162 L 426.20098,570.08855 L 426.50144,570.08855 L 426.57169,578.78259 L 422.21296,578.79819 L 404.7586,578.90355 L 404.72739,570.19783 L 404.35667,570.19783 L 404.32155,561.42187 L 426.13464,561.35162"
       id="MN_Pope"
       inkscape:label="Pope, MN" />
    <path
       style="font-size:12px;fill:#cc2f4a;fill-opacity:1;fill-rule:nonzero;stroke:#ffffff;stroke-width:0.91394252"
       d="M 443.59682,560.38389 L 456.69637,560.11854 L 461.21899,570.90021 L 464.98457,577.70559 L 457.54314,584.81142 L 453.19614,584.9519 L 451.1397,582.8057 L 447.77993,582.84473 L 439.67513,582.96569 L 439.61661,578.60308 L 426.57169,578.78259 L 426.50144,570.08855 L 426.20098,570.08855 L 426.13464,561.35162 L 426.13464,560.62972 L 443.59682,560.38389"
       id="MN_Stearns"
       inkscape:label="Stearns, MN" />
    <path
       style="font-size:12px;fill:#cc2f4a;fill-opacity:1;fill-rule:nonzero;stroke:#ffffff;stroke-width:0.91394252"
       d="M 456.69637,560.11854 L 453.79707,557.81236 L 465.86255,557.48068 L 474.53315,557.37532 L 474.98971,570.56463 L 461.21899,570.90021 L 456.69637,560.11854"
       id="MN_Benton"
       inkscape:label="Benton, MN" />
    <path
       style="font-size:12px;fill:#cc2f4a;fill-opacity:1;fill-rule:nonzero;stroke:#ffffff;stroke-width:0.91394252"
       d="M 472.91376,536.26853 L 482.07602,535.85099 L 485.70115,535.79637 L 485.80651,539.10149 L 485.77138,540.42044 L 485.93136,547.63163 L 484.5383,549.09104 L 482.97743,549.14565 L 483.11401,554.50723 L 483.44959,561.57795 L 483.78127,570.38903 L 474.98971,570.56463 L 474.53315,557.37532 L 474.25221,552.27519 L 472.89814,549.34077 L 472.71865,549.34077 L 472.51184,540.63114 L 472.91376,536.26853"
       id="MN_Millelacs"
       inkscape:label="Millelacs, MN" />
    <path
       style="font-size:12px;fill:#cc2f4a;fill-opacity:1;fill-rule:nonzero;stroke:#ffffff;stroke-width:0.91394252"
       d="M 496.56866,561.38674 L 496.8145,570.07687 L 501.07175,570.70511 L 501.38783,577.28415 L 496.30332,577.32318 L 486.13819,577.63534 L 484.01151,577.63534 L 483.78127,570.38903 L 483.44959,561.57795 L 496.56866,561.38674"
       id="MN_Isanti"
       inkscape:label="Isanti, MN" />
    <path
       style="font-size:12px;fill:#cc2f4a;fill-opacity:1;fill-rule:nonzero;stroke:#ffffff;stroke-width:0.91394252"
       d="M 507.15913,561.08628 L 505.72703,565.4645 L 505.68021,566.26053 L 505.69582,566.59222 L 505.78557,567.92677 L 505.90653,568.91402 L 506.38259,569.28082 L 508.07223,569.56567 L 508.77462,569.45642 L 511.55687,570.95484 L 513.29333,574.24046 L 513.99571,577.79534 L 512.66117,581.20582 L 511.72466,582.36477 L 511.67783,582.40378 L 511.25249,582.7901 L 501.58295,583.07105 L 501.38783,577.28415 L 501.07175,570.70511 L 496.8145,570.07687 L 496.56866,561.38674 L 507.15913,561.08628"
       id="MN_Chisago"
       inkscape:label="Chisago, MN" />
    <path
       style="font-size:12px;fill:#4389e3;fill-opacity:1;fill-rule:nonzero;stroke:#ffffff;stroke-width:0.91394252"
       d="M 494.57855,596.45548 L 501.79366,591.77678 L 502.19948,603.50668 L 496.55305,603.80715 L 494.57855,596.45548"
       id="MN_Ramsey"
       inkscape:label="Ramsey, MN" />
    <path
       style="font-size:12px;fill:#e27f90;fill-opacity:1;fill-rule:nonzero;stroke:#ffffff;stroke-width:0.91394252"
       d="M 484.01151,577.63534 L 486.13819,577.63534 L 496.30332,577.32318 L 501.38783,577.28415 L 501.58295,583.07105 L 501.79366,591.77678 L 494.57855,596.45548 L 484.15199,586.14986 L 484.01151,577.63534"
       id="MN_Anoka"
       inkscape:label="Anoka, MN" />
    <path
       style="font-size:12px;fill:#cc2f4a;fill-opacity:1;fill-rule:nonzero;stroke:#ffffff;stroke-width:0.91394252"
       d="M 483.78127,570.38903 L 484.01151,577.63534 L 484.15199,586.14986 L 483.8203,586.11475 L 481.63898,583.8788 L 478.50556,583.79295 L 475.5165,583.89831 L 475.00531,583.77345 L 471.43484,581.73261 L 464.98457,577.70559 L 461.21899,570.90021 L 474.98971,570.56463 L 483.78127,570.38903"
       id="MN_Sherburne"
       inkscape:label="Sherburne, MN" />
    <path
       style="font-size:12px;fill:#cc2f4a;fill-opacity:1;fill-rule:nonzero;stroke:#ffffff;stroke-width:0.91394252"
       d="M 457.54314,584.81142 L 464.98457,577.70559 L 471.43484,581.73261 L 475.00531,583.77345 L 475.5165,583.89831 L 478.50556,583.79295 L 481.63898,583.8788 L 483.8203,586.11475 L 479.57865,588.27653 L 479.08697,588.68237 L 475.90282,594.74632 L 475.44627,599.84645 L 466.68591,600.00644 L 457.9997,600.13131 L 457.54314,584.81142"
       id="MN_Wright"
       inkscape:label="Wright, MN" />
    <path
       style="font-size:12px;fill:#cc2f4a;fill-opacity:1;fill-rule:nonzero;stroke:#ffffff;stroke-width:0.91394252"
       d="M 439.67513,582.96569 L 447.77993,582.84473 L 451.1397,582.8057 L 453.19614,584.9519 L 457.54314,584.81142 L 457.9997,600.13131 L 449.27836,604.68513 L 440.1473,604.82561 L 439.67513,582.96569"
       id="MN_Meeker"
       inkscape:label="Meeker, MN" />
    <path
       style="font-size:12px;fill:#e27f90;fill-opacity:1;fill-rule:nonzero;stroke:#ffffff;stroke-width:0.91394252"
       d="M 422.21296,578.79819 L 426.57169,578.78259 L 439.61661,578.60308 L 439.67513,582.96569 L 440.1473,604.82561 L 422.65001,605.04022 L 422.61489,591.90165 L 422.21296,578.79819"
       id="MN_Kandiyohi"
       inkscape:label="Kandiyohi, MN" />
    <path
       style="font-size:12px;fill:#cc2f4a;fill-opacity:1;fill-rule:nonzero;stroke:#ffffff;stroke-width:0.91394252"
       d="M 394.51153,592.00701 L 422.61489,591.90165 L 422.65001,605.04022 L 414.26036,605.12608 L 414.31499,612.05632 L 405.19955,602.87452 L 394.51153,592.00701"
       id="MN_Chippewa"
       inkscape:label="Chippewa, MN" />
    <path
       style="font-size:12px;fill:#b9d7ff;fill-opacity:1;fill-rule:nonzero;stroke:#ffffff;stroke-width:0.91394252"
       d="M 501.58295,583.07105 L 511.25249,582.7901 L 510.71009,587.16832 L 509.96868,593.79811 L 510.07795,595.45261 L 510.95204,597.31784 L 511.71685,600.85319 L 511.44369,604.65 L 510.19891,610.59691 L 502.19948,603.50668 L 501.79366,591.77678 L 501.58295,583.07105"
       id="MN_Washington"
       inkscape:label="Washington, MN" />
    <path
       style="font-size:12px;fill:#b9d7ff;fill-opacity:1;fill-rule:nonzero;stroke:#ffffff;stroke-width:0.91394252"
       d="M 496.55305,603.80715 L 502.19948,603.50668 L 510.19891,610.59691 L 512.75093,612.07192 L 512.8875,616.32918 L 510.90521,620.72692 L 506.36309,620.883 L 502.10972,622.46729 L 502.16047,624.64469 L 493.34938,621.26932 L 493.33377,616.89109 L 491.90558,616.92622 L 491.43342,612.56749 L 491.27343,608.87214 L 496.55305,603.80715"
       id="MN_Dakota"
       inkscape:label="Dakota, MN" />
    <path
       style="font-size:12px;fill:#4389e3;fill-opacity:1;fill-rule:nonzero;stroke:#ffffff;stroke-width:0.91394252"
       d="M 484.15199,586.14986 L 494.57855,596.45548 L 496.55305,603.80715 L 491.27343,608.87214 L 484.43294,608.37658 L 484.32758,603.99835 L 475.5165,604.22857 L 475.44627,599.84645 L 475.90282,594.74632 L 479.08697,588.68237 L 479.57865,588.27653 L 483.8203,586.11475 L 484.15199,586.14986"
       id="MN_Hennepin"
       inkscape:label="Hennepin, MN" />
    <path
       style="font-size:12px;fill:#e27f90;fill-opacity:1;fill-rule:nonzero;stroke:#ffffff;stroke-width:0.91394252"
       d="M 484.43294,608.37658 L 491.27343,608.87214 L 491.43342,612.56749 L 491.90558,616.92622 L 493.33377,616.89109 L 493.34938,621.26932 L 484.64755,621.51905 L 470.78708,621.87025 L 475.78184,616.85598 L 475.94183,616.9106 L 476.89007,616.52038 L 479.89862,614.16349 L 480.77662,612.98502 L 480.53077,612.52848 L 480.5659,611.79097 L 482.37259,608.92678 L 483.69543,608.37658 L 484.43294,608.37658"
       id="MN_Scott"
       inkscape:label="Scott, MN" />
    <path
       style="font-size:12px;fill:#e27f90;fill-opacity:1;fill-rule:nonzero;stroke:#ffffff;stroke-width:0.91394252"
       d="M 466.68591,600.00644 L 475.44627,599.84645 L 475.5165,604.22857 L 484.32758,603.99835 L 484.43294,608.37658 L 483.69543,608.37658 L 482.37259,608.92678 L 480.5659,611.79097 L 480.53077,612.52848 L 480.77662,612.98502 L 479.89862,614.16349 L 476.89007,616.52038 L 475.94183,616.9106 L 475.78184,616.85598 L 467.0215,613.16453 L 466.68591,600.00644"
       id="MN_Carver"
       inkscape:label="Carver, MN" />
    <path
       style="font-size:12px;fill:#cc2f4a;fill-opacity:1;fill-rule:nonzero;stroke:#ffffff;stroke-width:0.91394252"
       d="M 457.9997,600.13131 L 466.68591,600.00644 L 467.0215,613.16453 L 462.66277,613.25037 L 458.31577,613.79669 L 458.35478,617.73396 L 450.94849,617.87834 L 449.64517,617.89394 L 449.57493,613.49621 L 449.27836,604.68513 L 457.9997,600.13131"
       id="MN_McLeod"
       inkscape:label="McLeod, MN" />
    <path
       style="font-size:12px;fill:#cc2f4a;fill-opacity:1;fill-rule:nonzero;stroke:#ffffff;stroke-width:0.91394252"
       d="M 467.0215,613.16453 L 475.78184,616.85598 L 470.78708,621.87025 L 470.20565,626.24848 L 445.24743,626.72455 L 445.00159,622.37753 L 444.86111,613.58205 L 449.57493,613.49621 L 449.64517,617.89394 L 450.94849,617.87834 L 458.35478,617.73396 L 458.31577,613.79669 L 462.66277,613.25037 L 467.0215,613.16453"
       id="MN_Sibley"
       inkscape:label="Sibley, MN" />
    <path
       style="font-size:12px;fill:#cc2f4a;fill-opacity:1;fill-rule:nonzero;stroke:#ffffff;stroke-width:0.91394252"
       d="M 449.27836,604.68513 L 449.57493,613.49621 L 444.86111,613.58205 L 445.00159,622.37753 L 445.24743,626.72455 L 439.61661,626.77527 L 436.54171,624.71883 L 418.72834,614.79954 L 414.31499,612.05632 L 414.26036,605.12608 L 422.65001,605.04022 L 440.1473,604.82561 L 449.27836,604.68513"
       id="MN_Renville"
       inkscape:label="Renville, MN" />
    <path
       style="font-size:12px;fill:#e27f90;fill-opacity:1;fill-rule:nonzero;stroke:#ffffff;stroke-width:0.91394252"
       d="M 392.1351,590.77392 L 394.51153,592.00701 L 405.19955,602.87452 L 405.19955,605.12608 L 401.23104,609.46919 L 379.6833,609.43406 L 379.73794,586.09523 L 384.20591,587.04345 L 385.71605,587.73024 L 386.04774,588.45604 L 389.65332,589.91154 L 392.1351,590.77392"
       id="MN_Lac_Qui_Parle"
       inkscape:label="Lac Qui Parle, MN" />
    <path
       style="font-size:12px;fill:#cc2f4a;fill-opacity:1;fill-rule:nonzero;stroke:#ffffff;stroke-width:0.91394252"
       d="M 379.6833,609.43406 L 401.23104,609.46919 L 405.19955,605.12608 L 405.19955,602.87452 L 414.31499,612.05632 L 418.72834,614.79954 L 418.76346,622.6936 L 410.3543,622.71313 L 410.02261,618.29976 L 392.4863,618.29976 L 379.62867,618.22953 L 379.6833,609.43406"
       id="MN_Yellow_Medicine"
       inkscape:label="Yellow Medicine, MN" />
    <path
       style="font-size:12px;fill:#cc2f4a;fill-opacity:1;fill-rule:nonzero;stroke:#ffffff;stroke-width:0.91394252"
       d="M 392.4863,618.29976 L 392.97797,640.1753 L 379.4882,640.12455 L 379.59746,622.64288 L 379.62867,618.22953 L 392.4863,618.29976"
       id="MN_Lincoln"
       inkscape:label="Lincoln, MN" />
    <path
       style="font-size:12px;fill:#e27f90;fill-opacity:1;fill-rule:nonzero;stroke:#ffffff;stroke-width:0.91394252"
       d="M 410.47526,640.19479 L 393.52428,640.1753 L 392.97797,640.1753 L 392.4863,618.29976 L 410.02261,618.29976 L 410.3543,622.71313 L 410.47526,640.19479"
       id="MN_Lyon"
       inkscape:label="Lyon, MN" />
    <path
       style="font-size:12px;fill:#cc2f4a;fill-opacity:1;fill-rule:nonzero;stroke:#ffffff;stroke-width:0.91394252"
       d="M 436.54171,624.71883 L 436.66658,635.60585 L 427.98036,635.72683 L 427.96086,640.10505 L 415.20859,640.14407 L 410.47526,640.19479 L 410.3543,622.71313 L 418.76346,622.6936 L 418.72834,614.79954 L 436.54171,624.71883"
       id="MN_Redwood"
       inkscape:label="Redwood, MN" />
    <path
       style="font-size:12px;fill:#cc2f4a;fill-opacity:1;fill-rule:nonzero;stroke:#ffffff;stroke-width:0.91394252"
       d="M 439.61661,626.77527 L 440.76774,627.12646 L 442.29349,627.88348 L 449.91051,631.73491 L 450.33194,632.03538 L 451.19433,632.87825 L 454.48384,636.25752 L 454.71407,644.11647 L 437.00216,644.39744 L 427.96086,640.10505 L 427.98036,635.72683 L 436.66658,635.60585 L 436.54171,624.71883 L 439.61661,626.77527"
       id="MN_Brown"
       inkscape:label="Brown, MN" />
    <path
       style="font-size:12px;fill:#f2b3be;fill-opacity:1;fill-rule:nonzero;stroke:#ffffff;stroke-width:0.91394252"
       d="M 470.20565,626.24848 L 469.11695,630.64621 L 467.39219,635.79707 L 467.47805,637.27598 L 467.88387,640.47575 L 467.82923,640.82695 L 466.3152,641.56446 L 465.99912,641.60348 L 464.94944,641.28351 L 463.87244,640.66695 L 463.43149,640.31967 L 455.95885,636.7648 L 454.48384,636.25752 L 451.19433,632.87825 L 450.33194,632.03538 L 449.91051,631.73491 L 442.29349,627.88348 L 440.76774,627.12646 L 439.61661,626.77527 L 445.24743,626.72455 L 470.20565,626.24848"
       id="MN_Nicollet"
       inkscape:label="Nicollet, MN" />
    <path
       style="font-size:12px;fill:#cc2f4a;fill-opacity:1;fill-rule:nonzero;stroke:#ffffff;stroke-width:0.91394252"
       d="M 470.78708,621.87025 L 484.64755,621.51905 L 485.06508,639.05147 L 476.30863,639.26219 L 467.47805,637.27598 L 467.39219,635.79707 L 469.11695,630.64621 L 470.20565,626.24848 L 470.78708,621.87025"
       id="MN_Le_Sueur"
       inkscape:label="Le Sueur, MN" />
    <path
       style="font-size:12px;fill:#f2b3be;fill-opacity:1;fill-rule:nonzero;stroke:#ffffff;stroke-width:0.91394252"
       d="M 484.64755,621.51905 L 493.34938,621.26932 L 502.16047,624.64469 L 502.53116,638.52468 L 502.33605,638.52468 L 489.34186,638.91098 L 485.06508,639.05147 L 484.64755,621.51905"
       id="MN_Rice"
       inkscape:label="Rice, MN" />
    <path
       style="font-size:12px;fill:#e27f90;fill-opacity:1;fill-rule:nonzero;stroke:#ffffff;stroke-width:0.91394252"
       d="M 512.75093,612.07192 L 516.45798,615.22097 L 516.8443,615.71263 L 516.93404,616.20431 L 519.53679,618.79144 L 520.1026,619.05289 L 521.63225,619.23239 L 526.46703,619.42359 L 527.08357,619.56407 L 527.4894,619.75917 L 527.83669,620.05964 L 527.96156,620.25085 L 530.81403,624.50811 L 524.03988,624.73443 L 519.88797,629.25705 L 520.18454,638.03301 L 515.5839,638.13836 L 502.53116,638.52468 L 502.16047,624.64469 L 502.10972,622.46729 L 506.36309,620.883 L 510.90521,620.72692 L 512.8875,616.32918 L 512.75093,612.07192"
       id="MN_Goodhue"
       inkscape:label="Goodhue, MN" />
    <path
       style="font-size:12px;fill:#e27f90;fill-opacity:1;fill-rule:nonzero;stroke:#ffffff;stroke-width:0.91394252"
       d="M 530.81403,624.50811 L 536.58142,626.70503 L 544.98669,637.116 L 537.37357,641.77907 L 528.71858,642.11466 L 528.52346,637.71693 L 520.18454,638.03301 L 519.88797,629.25705 L 524.03988,624.73443 L 530.81403,624.50811"
       id="MN_Wabasha"
       inkscape:label="Wabasha, MN" />
    <path
       style="font-size:12px;fill:#f2b3be;fill-opacity:1;fill-rule:nonzero;stroke:#ffffff;stroke-width:0.91394252"
       d="M 544.98669,637.116 L 556.33027,645.13493 L 561.4499,646.89481 L 566.70612,653.57921 L 550.54336,654.35185 L 537.91597,654.87863 L 537.37357,641.77907 L 544.98669,637.116"
       id="MN_Winona"
       inkscape:label="Winona, MN" />
    <path
       style="font-size:12px;fill:#b9d7ff;fill-opacity:1;fill-rule:nonzero;stroke:#ffffff;stroke-width:0.91394252"
       d="M 515.5839,638.13836 L 520.18454,638.03301 L 528.52346,637.71693 L 528.71858,642.11466 L 537.37357,641.77907 L 537.91597,654.87863 L 524.55106,656.07659 L 515.79071,655.65517 L 515.5839,638.13836"
       id="MN_Olmsted"
       inkscape:label="Olmsted, MN" />
    <path
       style="font-size:12px;fill:#cc2f4a;fill-opacity:1;fill-rule:nonzero;stroke:#ffffff;stroke-width:0.91394252"
       d="M 502.53116,638.52468 L 515.5839,638.13836 L 515.79071,655.65517 L 502.90187,656.09611 L 502.33605,638.52468 L 502.53116,638.52468"
       id="MN_Dodge"
       inkscape:label="Dodge, MN" />
    <path
       style="font-size:12px;fill:#e27f90;fill-opacity:1;fill-rule:nonzero;stroke:#ffffff;stroke-width:0.91394252"
       d="M 502.33605,638.52468 L 502.90187,656.09611 L 502.76529,656.09611 L 489.81402,656.48242 L 489.34186,638.91098 L 502.33605,638.52468"
       id="MN_Steele"
       inkscape:label="Steele, MN" />
    <path
       style="font-size:12px;fill:#cc2f4a;fill-opacity:1;fill-rule:nonzero;stroke:#ffffff;stroke-width:0.91394252"
       d="M 485.06508,639.05147 L 489.34186,638.91098 L 489.81402,656.48242 L 481.05757,656.70874 L 476.73007,656.8141 L 476.30863,639.26219 L 485.06508,639.05147"
       id="MN_Waseca"
       inkscape:label="Waseca, MN" />
    <path
       style="font-size:12px;fill:#f2b3be;fill-opacity:1;fill-rule:nonzero;stroke:#ffffff;stroke-width:0.91394252"
       d="M 476.30863,639.26219 L 476.73007,656.8141 L 459.35374,657.20432 L 454.9404,657.27066 L 454.71407,644.11647 L 454.48384,636.25752 L 455.95885,636.7648 L 463.43149,640.31967 L 463.87244,640.66695 L 464.94944,641.28351 L 465.99912,641.60348 L 466.3152,641.56446 L 467.82923,640.82695 L 467.88387,640.47575 L 467.47805,637.27598 L 476.30863,639.26219"
       id="MN_Blue_Earth"
       inkscape:label="Blue Earth, MN" />
    <path
       style="font-size:12px;fill:#e27f90;fill-opacity:1;fill-rule:nonzero;stroke:#ffffff;stroke-width:0.91394252"
       d="M 437.00216,644.39744 L 454.71407,644.11647 L 454.9404,657.27066 L 437.35335,657.51651 L 437.17776,657.51651 L 437.00216,644.39744"
       id="MN_Watonwan"
       inkscape:label="Watonwan, MN" />
    <path
       style="font-size:12px;fill:#cc2f4a;fill-opacity:1;fill-rule:nonzero;stroke:#ffffff;stroke-width:0.91394252"
       d="M 415.20859,640.14407 L 427.96086,640.10505 L 437.00216,644.39744 L 437.17776,657.51651 L 415.66513,657.72722 L 415.29833,657.72722 L 415.20859,640.14407"
       id="MN_Cottonwood"
       inkscape:label="Cottonwood, MN" />
    <path
       style="font-size:12px;fill:#cc2f4a;fill-opacity:1;fill-rule:nonzero;stroke:#ffffff;stroke-width:0.91394252"
       d="M 410.47526,640.19479 L 415.20859,640.14407 L 415.29833,657.72722 L 393.9301,657.7116 L 393.48916,657.7116 L 393.52428,640.1753 L 410.47526,640.19479"
       id="MN_Murray"
       inkscape:label="Murray, MN" />
    <path
       style="font-size:12px;fill:#cc2f4a;fill-opacity:1;fill-rule:nonzero;stroke:#ffffff;stroke-width:0.91394252"
       d="M 379.4882,640.12455 L 392.97797,640.1753 L 393.52428,640.1753 L 393.48916,657.7116 L 379.38284,657.64136 L 379.4882,640.12455"
       id="MN_Pipestone"
       inkscape:label="Pipestone, MN" />
    <path
       style="font-size:12px;fill:#cc2f4a;fill-opacity:1;fill-rule:nonzero;stroke:#ffffff;stroke-width:0.91394252"
       d="M 379.38284,657.64136 L 393.48916,657.7116 L 393.9301,657.7116 L 393.89108,675.33377 L 379.31259,675.28304 L 379.38284,657.64136"
       id="MN_Rock"
       inkscape:label="Rock, MN" />
    <path
       style="font-size:12px;fill:#cc2f4a;fill-opacity:1;fill-rule:nonzero;stroke:#ffffff;stroke-width:0.91394252"
       d="M 393.9301,657.7116 L 415.29833,657.72722 L 415.66513,657.72722 L 415.70416,675.26352 L 400.87594,675.35328 L 393.89108,675.33377 L 393.9301,657.7116"
       id="MN_Nobles"
       inkscape:label="Nobles, MN" />
    <path
       style="font-size:12px;fill:#cc2f4a;fill-opacity:1;fill-rule:nonzero;stroke:#ffffff;stroke-width:0.91394252"
       d="M 437.17776,657.51651 L 437.35335,657.51651 L 437.56407,675.07232 L 435.34765,675.10744 L 418.1313,675.26352 L 415.70416,675.26352 L 415.66513,657.72722 L 437.17776,657.51651"
       id="MN_Jackson"
       inkscape:label="Jackson, MN" />
    <path
       style="font-size:12px;fill:#cc2f4a;fill-opacity:1;fill-rule:nonzero;stroke:#ffffff;stroke-width:0.91394252"
       d="M 459.35374,657.20432 L 459.67372,674.73674 L 452.54838,674.85771 L 437.56407,675.07232 L 437.35335,657.51651 L 454.9404,657.27066 L 459.35374,657.20432"
       id="MN_Martin"
       inkscape:label="Martin, MN" />
    <path
       style="font-size:12px;fill:#cc2f4a;fill-opacity:1;fill-rule:nonzero;stroke:#ffffff;stroke-width:0.91394252"
       d="M 481.05757,656.70874 L 481.47901,674.3114 L 469.7491,674.57675 L 459.67372,674.73674 L 459.35374,657.20432 L 476.73007,656.8141 L 481.05757,656.70874"
       id="MN_Faribault"
       inkscape:label="Faribault, MN" />
    <path
       style="font-size:12px;fill:#e27f90;fill-opacity:1;fill-rule:nonzero;stroke:#ffffff;stroke-width:0.91394252"
       d="M 502.76529,656.09611 L 503.32331,673.69875 L 487.00447,674.17092 L 481.47901,674.3114 L 481.05757,656.70874 L 489.81402,656.48242 L 502.76529,656.09611"
       id="MN_Freeborn"
       inkscape:label="Freeborn, MN" />
    <path
       style="font-size:12px;fill:#e27f90;fill-opacity:1;fill-rule:nonzero;stroke:#ffffff;stroke-width:0.91394252"
       d="M 515.79071,655.65517 L 524.55106,656.07659 L 525.18711,672.90662 L 521.38641,673.0471 L 504.2208,673.65975 L 503.32331,673.69875 L 502.76529,656.09611 L 502.90187,656.09611 L 515.79071,655.65517"
       id="MN_Mower"
       inkscape:label="Mower, MN" />
    <path
       inkscape:label="Freeborn, MN"
       id="path7502"
       d="M 502.76529,656.09611 L 503.32331,673.69875 L 487.00447,674.17092 L 481.47901,674.3114 L 481.05757,656.70874 L 489.81402,656.48242 L 502.76529,656.09611"
       style="font-size:12px;fill:#e27f90;fill-opacity:1;fill-rule:nonzero;stroke:#ffffff;stroke-width:0.91394252" />
    <path
       inkscape:label="Mower, MN"
       id="path7504"
       d="M 515.79071,655.65517 L 524.55106,656.07659 L 525.18711,672.90662 L 521.38641,673.0471 L 504.2208,673.65975 L 503.32331,673.69875 L 502.76529,656.09611 L 502.90187,656.09611 L 515.79071,655.65517"
       style="font-size:12px;fill:#e27f90;fill-opacity:1;fill-rule:nonzero;stroke:#ffffff;stroke-width:0.91394252" />
  </g>
</svg>
