<?xml version="1.0" encoding="utf-8"?>
<!-- Generator: Adobe Illustrator 16.0.0, SVG Export Plug-In . SVG Version: 6.00 Build 0)  -->
<!DOCTYPE svg PUBLIC "-//W3C//DTD SVG 1.1//EN" "http://www.w3.org/Graphics/SVG/1.1/DTD/svg11.dtd">
<svg version="1.1"
	 id="svg7264" xmlns:svg="http://www.w3.org/2000/svg" xmlns:rdf="http://www.w3.org/1999/02/22-rdf-syntax-ns#" xmlns:cc="http://creativecommons.org/ns#" xmlns:sodipodi="http://sodipodi.sourceforge.net/DTD/sodipodi-0.dtd" xmlns:dc="http://purl.org/dc/elements/1.1/" xmlns:inkscape="http://www.inkscape.org/namespaces/inkscape" inkscape:version="0.48.1 " sodipodi:docname="Missouri Republican Presidential Primary Election Results by County, 2012.svg" sodipodi:version="0.32" inkscape:output_extension="org.inkscape.output.svg.inkscape"
	 xmlns="http://www.w3.org/2000/svg" xmlns:xlink="http://www.w3.org/1999/xlink" x="0px" y="0px" width="284.264px"
	 height="251.572px" viewBox="0 0 284.264 251.572" enable-background="new 0 0 284.264 251.572" xml:space="preserve">
<defs>
	
	
		<inkscape:perspective  id="perspective7272" inkscape:persp3d-origin="372.04724 : 350.78739 : 1" sodipodi:type="inkscape:persp3d" inkscape:vp_y="0 : 1000 : 0" inkscape:vp_x="0 : 526.18109 : 1" inkscape:vp_z="744.09448 : 526.18109 : 1">
		</inkscape:perspective>
</defs>
<sodipodi:namedview  bordercolor="#666666" pagecolor="#ffffff" objecttolerance="10" borderopacity="1.0" guidetolerance="10" showguides="true" inkscape:cx="151.22527" showgrid="false" inkscape:cy="109.79369" inkscape:zoom="1.3712531" gridtolerance="10000" id="base" inkscape:window-width="1366" inkscape:window-y="-4" inkscape:current-layer="layer1" inkscape:pageopacity="0.0" inkscape:window-height="706" inkscape:window-maximized="1" inkscape:pageshadow="2" inkscape:window-x="-4" inkscape:document-units="px" inkscape:guide-bbox="true">
	</sodipodi:namedview>
<g>
	<path id="KY_Fulton" fill="#CC2F4A" stroke="#FFFFFF" stroke-width="1.3861" d="M259.349,215.405l-0.895-1.309l-0.057-0.051
		l-0.434-0.961l-0.015-0.033l-0.041-0.218l-0.041-0.164l0.041-0.177l0.054-0.236l0.048-0.195l0.064-0.092l0.464-0.631l0.248-0.164
		l0.735-0.102l1.128,0.18l0.612,0.18l0.104,0.068l0.091,0.078l0.052,0.033l0.259,0.412l0.023,0.053l0.244,0.593l0.121,0.562v0.016
		l0.017,0.086v0.229l-0.032,0.141l-0.129,0.505l-0.048,0.198l-0.063,0.123l-0.395,0.757L259.349,215.405"/>
	<path id="MO_New_Madrid_1_" fill="#D40000" stroke="#FFFFFF" stroke-width="1.3861" d="M252.018,197.141l6.82-0.99l8.513,11.717
		l-3.116,7.14l-2.718,0.272l0.393-0.756l0.063-0.127l0.047-0.195l0.13-0.506l0.032-0.139v-0.229l-0.018-0.087v-0.016l-0.12-0.562
		l-0.242-0.592l-0.025-0.053l-0.259-0.413l-0.052-0.033l-0.091-0.077l-0.104-0.069l-0.612-0.18l-1.128-0.18l-0.736,0.103
		l-0.248,0.164l-0.463,0.63l-0.065,0.093l-0.047,0.195l-0.054,0.235l-0.041,0.177l0.041,0.164l0.041,0.218l0.015,0.031l0.434,0.963
		l0.056,0.051l0.896,1.309l0.321,8.362l-2.109-3.327l-0.8-0.341l-2.912,0.536l-2.957,1.171l-6.171,0.397h-1.935l-0.69-12.439
		l10.345-0.599l-0.93-11.994L252.018,197.141"/>
	<path id="MO_Pemiscot_1_" fill="#CC2F4A" stroke="#FFFFFF" stroke-width="1.3861" d="M259.669,223.766l-2.873,8.059l-3.548,9.831
		l-9.13,0.706l-1.333-20.158h1.935l6.171-0.397l2.957-1.171l2.912-0.537l0.798,0.342L259.669,223.766"/>
	<path id="MO_Atchison" fill="#D40000" stroke="#FFFFFF" stroke-width="1.3861" d="M8.979,12.468l14.876,0.163l6.508,0.052
		l0.066,5.145h0.915l0.05,4.892l-0.064,6.383L17.156,29.05l0.041-0.936v-0.067l0.007-0.096l-0.1-0.264l-2.659-2.648l-2.476-6.368
		l-0.205-0.909l0.431-0.416l0.826-1.511l-1.419-1.292l-0.503,1.087L8.979,12.468"/>
	<path id="MO_Holt_1_" fill="#AA0000" stroke="#FFFFFF" stroke-width="1.3861" d="M31.332,29.102l3.617,0.016l0.809,1.599
		l-0.1,0.193L35.46,32.5l0.511,2.597l0.229,0.39l0.457,0.373l2.019,11.89l-1.317,1.526l-0.032,0.032l-0.229,0.221l-0.282,0.108
		l-1.462,0.141l-0.175,0.015l-0.143-0.047L34.3,49.458L33.348,49.1l-1.883-1.239l-4.642-4.302L26.582,43.2l-0.025-0.481
		l-9.402-13.528V29.05L31.332,29.102"/>
	<path id="MO_Platte_1_" fill="#E27F90" stroke="#FFFFFF" stroke-width="1.3861" d="M34.653,66.848l19.319-0.187l0.088,3.956
		l0.184,15.359l-7.445-2.035l-6.926-11.227L34.653,66.848"/>
	<path id="MO_Buchanan_1_" fill="#E27F90" stroke="#FFFFFF" stroke-width="1.3861" d="M53.709,51.755l0.069,3.763l0.194,11.144
		l-19.319,0.187l1.525-4.697l0.457-0.664l1.324-1.979l0.153-0.18l2.78-2.516l0.809-0.141l0.807-1.84l-0.3-1.417l-0.319-1.528
		L53.709,51.755"/>
	<path id="MO_Andrew_1_" fill="#D40000" stroke="#FFFFFF" stroke-width="1.3861" d="M53.364,35.86l0.078,4.52l0.265,11.375
		l-11.817,0.134l-3.216-4.137l-2.019-11.89h16.709"/>
	<path id="MO_Nodaway_1_" fill="#CC2F4A" stroke="#FFFFFF" stroke-width="1.3861" d="M41.299,12.756l10.743,0.061l1.4,9.537
		l-0.078,13.504H36.657L36.2,35.487l-0.229-0.39L35.46,32.5l0.196-1.59l0.102-0.193l-0.815-1.599l-3.61-0.016l0.064-6.383
		l-0.05-4.892h-0.914l-0.067-5.145L41.299,12.756"/>
	<path id="MO_Worth_1_" fill="#D40000" stroke="#FFFFFF" stroke-width="1.3861" d="M58.144,12.74l9.073-0.218l0.853,9.708
		l-14.628,0.125l-1.4-9.537L58.144,12.74"/>
	<path id="MO_Gentry_1_" fill="#D40000" stroke="#FFFFFF" stroke-width="1.3861" d="M53.442,22.354l14.628-0.125l0.161,12.865v5.258
		l-14.789,0.024l-0.078-4.519L53.442,22.354"/>
	<path id="MO_DeKalb_1_" fill="#D40000" stroke="#FFFFFF" stroke-width="1.3861" d="M68.234,40.355l0.737,12.731l0.041,2.235
		L53.78,55.515l-0.068-3.763l-0.264-11.376L68.234,40.355"/>
	<path id="MO_Clinton_1_" fill="#CC2F4A" stroke="#FFFFFF" stroke-width="1.3861" d="M69.01,55.323l0.105,11.339v3.763L54.06,70.617
		l-0.088-3.956l-0.194-11.144L69.01,55.323"/>
	<path id="MO_Clay_1_" fill="#E27F90" stroke="#FFFFFF" stroke-width="1.3861" d="M54.06,70.617l15.056-0.193l0.157,12.832
		l-1.13-1.184l-0.209-0.14l-0.389-0.148l-1.335-0.016l-0.457,0.236l-0.227,0.295l-0.298,0.587l-0.196,0.897l-0.514,0.77
		l-1.139,1.208l-3.906,1.979l-5.418,0.648l0.184-2.41L54.06,70.617"/>
	<path id="MO_Caldwell_1_" fill="#D40000" stroke="#FFFFFF" stroke-width="1.3861" d="M68.971,53.088l4.329,0.07l7.801-0.195
		l5.03-0.024l0.23,8.976l0.071,4.512l-17.319,0.236l-0.106-11.339L68.971,53.088"/>
	<path id="MO_Daviess_1_" fill="#D40000" stroke="#FFFFFF" stroke-width="1.3861" d="M85.536,34.891l0.283,8.994l0.314,9.053
		l-5.029,0.024l-7.802,0.195l-4.329-0.07l-0.737-12.73v-5.258L85.536,34.891"/>
	<path id="MO_Harrison_1_" fill="#AA0000" stroke="#FFFFFF" stroke-width="1.3861" d="M84.607,11.859L85.4,28.096l0.136,6.793
		l-17.302,0.205l-0.16-12.865l-0.854-9.708l8.226-0.266L84.607,11.859"/>
	<path id="MO_Mercer_1_" fill="#AA0000" stroke="#FFFFFF" stroke-width="1.3861" d="M92.852,11.518l6.945-0.196l0.559,10.208
		l0.146,6.047L85.4,28.096l-0.793-16.238L92.852,11.518"/>
	<path id="MO_Grundy_1_" fill="#D40000" stroke="#FFFFFF" stroke-width="1.3861" d="M100.503,27.576l0.524,12.076l0.086,3.396
		l-15.296,0.833l-0.283-8.992l-0.136-6.793L100.503,27.576"/>
	<path id="MO_Livingston_1_" fill="#D40000" stroke="#FFFFFF" stroke-width="1.3861" d="M101.116,43.051l0.071,4.551l0.189,9.14
		l3.764-0.108l-0.302,4.582l-18.477,0.701l-0.23-8.976l-0.314-9.054L101.116,43.051"/>
	<path id="MO_Carroll_1_" fill="#D40000" stroke="#FFFFFF" stroke-width="1.3861" d="M86.365,61.914l18.476-0.701l7.033,11.82
		l-1.596,0.142l-1.65,0.646l-3.539,3.234l-2.198,3.78l-0.423,0.264l-1.546,0.397l-0.524-0.093l-0.243-0.227l-2.535-3.023l-4.13,2.83
		l-2.586-0.329l-4.042,2.228L86.44,66.423L86.365,61.914"/>
	<path id="MO_Ray_1_" fill="#CC2F4A" stroke="#FFFFFF" stroke-width="1.3861" d="M86.435,66.427l0.421,16.458l-2.852-0.359
		l-5.416,0.804l-2.142,1.767l0.1,0.196l0.073,0.56l-0.826,0.716l-0.421,0.289l-0.526,0.086l-0.545-0.056l-0.79-0.413l-4.236-3.218
		l-0.157-12.831v-3.764L86.435,66.427"/>
	<path id="MO_Lafayette_1_" fill="#CC2F4A" stroke="#FFFFFF" stroke-width="1.3861" d="M86.856,82.886l4.042-2.228l2.586,0.329
		l4.131-2.83L97.33,96.321v0.756l-13.127-0.164l-0.021,1.513l-10.814-0.204l0.141-11.743l0.789,0.413l0.546,0.055l0.526-0.086
		l0.421-0.288l0.825-0.717l-0.068-0.56l-0.105-0.196l2.144-1.767l5.416-0.804L86.856,82.886"/>
	<path id="MO_Johnson_1_" fill="#CC2F4A" stroke="#FFFFFF" stroke-width="1.3861" d="M97.333,97.075l-0.052,19.315l-21.608-0.062
		l-2.409-13.737l0.108-4.372l10.814,0.204l0.021-1.513L97.333,97.075"/>
	<path id="MO_Henry_1_" fill="#D40000" stroke="#FFFFFF" stroke-width="1.3861" d="M97.278,116.39v2.26l-0.015,15.842l-20.659,0.142
		L75.74,122.57l-0.071-6.242L97.278,116.39"/>
	<path id="MO_Cass_1_" fill="#CC2F4A" stroke="#FFFFFF" stroke-width="1.3861" d="M54.244,102.195l19.018,0.397l2.409,13.737
		l0.071,6.242l-5.627,0.033l-2.203-0.229l-2.262-0.889l-11.339-0.115l-0.052-13.527L54.244,102.195"/>
	<path id="MO_St._Clair_1_" fill="#D40000" stroke="#FFFFFF" stroke-width="1.3861" d="M76.607,134.63l20.658-0.139l0.953,6.941
		l-0.107,8.27h-1.005l-1.249,2.244l-0.045,2.276l-2.184-0.026l-7.223-0.109l0.049-2.996l-10.142-0.206l0.153-7.045L76.607,134.63"/>
	<path id="MO_Bates_1_" fill="#D40000" stroke="#FFFFFF" stroke-width="1.3861" d="M54.311,121.37l11.339,0.115l2.262,0.889
		l2.198,0.229l5.628-0.033l0.869,12.064l-0.143,9.21l-2.971-1.059l-2.638,0.227l-1.562,0.242l-14.723-0.242l-0.207-17.042
		L54.311,121.37"/>
	<path id="MO_Cedar_1_" fill="#D40000" stroke="#FFFFFF" stroke-width="1.3861" d="M76.309,150.885l10.142,0.206l-0.05,2.996
		l7.224,0.109l0.813,13.289l-18.181-0.043v-3.014L76.309,150.885"/>
	<path id="MO_Vernon_1_" fill="#D40000" stroke="#FFFFFF" stroke-width="1.3861" d="M76.463,143.843l-0.153,7.044l-0.052,13.544
		l-21.523-0.342l-0.018-1.005l-0.123-18.864l-0.023-1.207l14.723,0.242l1.562-0.242l2.638-0.227L76.463,143.843"/>
	<path id="MO_Dade_1_" fill="#AA0000" stroke="#FFFFFF" stroke-width="1.3861" d="M76.258,167.444l18.181,0.043l-0.024,7.533v7.55
		l-16.946-0.024l-1.249-3.045L76.258,167.444"/>
	<path id="MO_Barton_1_" fill="#AA0000" stroke="#FFFFFF" stroke-width="1.3861" d="M76.258,164.43v3.014l-0.039,12.059
		l-21.258-0.408l-0.229-15.006L76.258,164.43"/>
	<path id="MO_Jasper_1_" fill="#D40000" stroke="#FFFFFF" stroke-width="1.3861" d="M76.219,179.501l1.249,3.045l-0.018,12.561
		l-22.287-0.062l-0.189-14.595l-0.016-1.357L76.219,179.501"/>
	<path id="MO_Newton_1_" fill="#D40000" stroke="#FFFFFF" stroke-width="1.3861" d="M55.165,195.045l22.287,0.062l-0.09,15.545
		l-21.998-0.568L55.165,195.045"/>
	<path id="MO_McDonald_1_" fill="#AA0000" stroke="#FFFFFF" stroke-width="1.3861" d="M77.362,210.651l-0.067,12.936l-21.724,0.35
		l-0.119-8.727l-0.088-5.129L77.362,210.651"/>
	<path id="MO_Lawrence_1_" fill="#D40000" stroke="#FFFFFF" stroke-width="1.3861" d="M94.414,182.57l0.915,9.513l0.066,5.3
		l0.076,3.78l-18.058-0.033l0.036-6.023l0.018-12.561L94.414,182.57"/>
	<path id="MO_Barry_1_" fill="#D40000" stroke="#FFFFFF" stroke-width="1.3861" d="M77.416,201.132l18.053,0.033l0.059,5.305h1.562
		l-0.015,16.652l-11.326,0.288l-8.455,0.18L77.416,201.132"/>
	<path id="MO_Polk_1_" fill="#D40000" stroke="#FFFFFF" stroke-width="1.3861" d="M95.807,154.222l15.245,0.872l0.776,19.979
		l-17.415-0.053l0.024-7.533l-0.813-13.289L95.807,154.222"/>
	<path id="MO_Stone_1_" fill="#D40000" stroke="#FFFFFF" stroke-width="1.3861" d="M95.397,197.383l10.891-0.12l0.066,9.07
		l1.519-0.016l0.016,16.527l-10.813,0.272l0.015-16.651h-1.562l-0.058-5.306L95.397,197.383"/>
	<path id="MO_Greene_1_" fill="#CC2F4A" stroke="#FFFFFF" stroke-width="1.3861" d="M111.829,175.073l4.34-0.016l0.091,7.513h0.597
		l0.136,9.39l-21.661,0.126l-0.915-9.514v-7.55L111.829,175.073"/>
	<path id="MO_Taney_1_" fill="#D40000" stroke="#FFFFFF" stroke-width="1.3861" d="M123.657,206.235l5.785-0.04l0.23,15.99
		l-3.291,0.108l-17.715,0.537l-0.778,0.016l-0.016-16.527L123.657,206.235"/>
	<path id="MO_Christian_1_" fill="#D40000" stroke="#FFFFFF" stroke-width="1.3861" d="M116.99,191.96l6.492,0.716l0.175,13.56
		l-15.786,0.084l-1.517,0.016l-0.068-9.07l-10.891,0.121l-0.066-5.3L116.99,191.96"/>
	<path id="MO_Webster_1_" fill="#D40000" stroke="#FFFFFF" stroke-width="1.3861" d="M124.761,171.193l6.617-0.117l0.155,11.312
		h0.526l0.069,10.178l-8.649,0.108l-6.492-0.716l-0.138-9.391h-0.596l-0.091-7.512L124.761,171.193"/>
	<path id="MO_Dallas_1_" fill="#D40000" stroke="#FFFFFF" stroke-width="1.3861" d="M115.428,149.773l8.565,0.068l0.121,9.07
		l0.525-0.022l0.125,12.304l-8.597,3.864l-4.34,0.016l-0.778-19.979L115.428,149.773"/>
	<path id="MO_Hickory_1_" fill="#D40000" stroke="#FFFFFF" stroke-width="1.3861" d="M98.217,141.432l17.242,0.033l-0.03,8.308
		l-4.374,5.321l-15.245-0.872l0.046-2.276l1.248-2.244h1.006L98.217,141.432"/>
	<path id="MO_Benton_1_" fill="#D40000" stroke="#FFFFFF" stroke-width="1.3861" d="M97.278,118.651l8.635,0.084l0.021-1.513
		l4.092-0.047l4.635,0.047l0.015,13.996l0.785,10.247l-17.244-0.033l-0.953-6.941L97.278,118.651"/>
	<path id="MO_Pettis_1_" fill="#D40000" stroke="#FFFFFF" stroke-width="1.3861" d="M97.333,96.319l7.583,0.154h8.016l1.76,0.095
		v12.208l-0.032,8.446l-4.633-0.047l-4.092,0.047l-0.021,1.513l-8.635-0.084v-2.26l0.052-19.315v-0.756"/>
	<path id="MO_Saline_1_" fill="#CC2F4A" stroke="#FFFFFF" stroke-width="1.3861" d="M111.874,73.035l10.131,7.854l-3.041,8.462
		l-4.274,7.219l-1.761-0.095h-8.015l-7.584-0.154l0.283-18.164l2.536,3.023l0.244,0.227l0.523,0.093l1.547-0.397l0.423-0.264
		l2.197-3.779l3.54-3.235l1.65-0.645L111.874,73.035"/>
	<path id="MO_Chariton_1_" fill="#D40000" stroke="#FFFFFF" stroke-width="1.3861" d="M120.877,56.328l6.531,4.434l-0.093,14.968
		l-5.308,5.158l-10.131-7.854l-7.036-11.819l0.302-4.582L120.877,56.328"/>
	<path id="MO_Linn_1_" fill="#D40000" stroke="#FFFFFF" stroke-width="1.3861" d="M120.375,38.844l0.325-0.009l0.175,17.493
		l-15.734,0.305l-3.764,0.108l-0.189-9.14l-0.074-4.551l-0.086-3.396L120.375,38.844"/>
	<path id="MO_Sullivan_1_" fill="#D40000" stroke="#FFFFFF" stroke-width="1.3861" d="M100.356,21.53l10.681-0.483l8.79-0.273
		l0.05,2.251l0.498,15.819l-19.348,0.809l-0.524-12.076L100.356,21.53"/>
	<path id="MO_Putnam_1_" fill="#AA0000" stroke="#FFFFFF" stroke-width="1.3861" d="M124.835,10.043l0.692,2.531l-0.252,4.909
		l1.143,5.267l-6.537,0.272l-0.05-2.251l-8.789,0.272l-10.681,0.484L99.802,11.32l10.51-0.499L124.835,10.043"/>
	<path id="MO_Schuyler_1_" fill="#D40000" stroke="#FFFFFF" stroke-width="1.3861" d="M138.624,9.124l0.505,12.982l-12.711,0.646
		l-1.145-5.267l0.252-4.909l-0.692-2.531l2.901-0.163L138.624,9.124"/>
	<path id="MO_Adair_1_" fill="#E27F90" stroke="#FFFFFF" stroke-width="1.3861" d="M139.127,22.106l0.184,2.267l0.605,13.753
		L120.7,38.838l-0.325,0.009l-0.498-15.82l6.537-0.272L139.127,22.106"/>
	<path id="MO_Macon_1_" fill="#D40000" stroke="#FFFFFF" stroke-width="1.3861" d="M139.918,38.127l2.362,4.315l0.241,18h-0.068
		l-15.047,0.323l-6.531-4.434L120.7,38.838L139.918,38.127"/>
	<path id="MO_Randolph_1_" fill="#D40000" stroke="#FFFFFF" stroke-width="1.3861" d="M142.457,60.442l0.148,13.358l0.041,5.258
		l-4.479,0.048l-10.852-3.373l0.093-14.969L142.457,60.442"/>
	<path id="MO_Howard_1_" fill="#CC2F4A" stroke="#FFFFFF" stroke-width="1.3861" d="M127.315,75.73l10.852,3.374l-4.42,14.602
		l-8.823,0.289l-2.407-0.413l-0.419-0.18l-1.956-1.385l-0.314-0.427l-0.863-1.887v-0.351l3.041-8.463L127.315,75.73"/>
	<path id="MO_Cooper_1_" fill="#D40000" stroke="#FFFFFF" stroke-width="1.3861" d="M118.964,89.349V89.7l0.865,1.888l0.314,0.426
		L122.1,93.4l0.418,0.18l2.407,0.413l8.824-0.288l2.392,2.446l-3.123,8.813l-0.764,2.301l-0.296,1.138l-4.974,0.458l-3.69,0.11
		l-8.605-0.195V96.566L118.964,89.349"/>
	<path id="MO_Cole_1_" fill="#CC2F4A" stroke="#FFFFFF" stroke-width="1.3861" d="M140.52,105.465l6.958,4.715l8.425,3.396
		l-6.767,12.5l-2.181,0.756l-6.21-0.718l0.041-4.352h-3.589L140.52,105.465"/>
	<path id="MO_Moniteau_1_" fill="#D40000" stroke="#FFFFFF" stroke-width="1.3861" d="M136.139,96.153l4.381,9.313l-3.322,16.295
		l-5.105,0.038l-8.755-8.305l-0.045-4.519l3.69-0.109l4.974-0.459l0.296-1.138l0.764-2.301L136.139,96.153"/>
	<path id="MO_Morgan_1_" fill="#D40000" stroke="#FFFFFF" stroke-width="1.3861" d="M114.689,108.777l8.605,0.195l0.046,4.52
		l8.755,8.305l-2.386,10.909l-2.659,1.403l-7.785,0.258l-4.587-3.147l-0.016-13.996L114.689,108.777"/>
	<path id="MO_Miller_1_" fill="#AA0000" stroke="#FFFFFF" stroke-width="1.3861" d="M137.198,121.76h3.589l-0.041,4.352l6.21,0.718
		l2.181-0.756l0.032,2.251l0.19,6.771H150l0.138,7.521l-8.688,0.093l-3.528,0.071l-2.269-1.46l-0.74-0.739l-1.104-2.253
		l-0.061-1.486l-0.366-1.597l-1.478-2.143l-2.195-0.399l2.385-10.909L137.198,121.76"/>
	<path id="MO_Camden_1_" fill="#D40000" stroke="#FFFFFF" stroke-width="1.3861" d="M129.708,132.705l2.195,0.399l1.478,2.143
		l0.366,1.597l0.061,1.486l1.104,2.253l0.74,0.739l2.271,1.46l3.526-0.071l0.199,8.394l-2.304,1.736l-2.733,1.426l-0.362,0.094
		l-0.618-0.248l-1.474-1.746l-0.614-1.209l-0.281-1.169l0.071-0.108l-0.054-0.18l-9.283,0.142l-8.565-0.071l0.03-8.305
		l-0.782-10.247l4.587,3.149l7.785-0.257L129.708,132.705"/>
	<path id="MO_Pulaski_1_" fill="#D40000" stroke="#FFFFFF" stroke-width="1.3861" d="M150.137,142.62l6.471,0.023l0.546,21.157
		l-8.699,0.257l-0.075-2.277l-6.622-3.139l-0.107-7.535l-0.198-8.394L150.137,142.62"/>
	<path id="MO_Laclede_1_" fill="#AA0000" stroke="#FFFFFF" stroke-width="1.3861" d="M123.994,149.842l9.281-0.142l0.056,0.18
		l-0.071,0.108l0.28,1.169l0.615,1.209l1.473,1.746l0.619,0.248l0.362-0.094l2.733-1.426l2.304-1.736l0.107,7.535l6.621,3.139
		l0.076,2.277l0.155,6.825l-17.228,0.195l-6.617,0.117l-0.125-12.304l-0.524,0.022L123.994,149.842"/>
	<path id="MO_Wright_1_" fill="#AA0000" stroke="#FFFFFF" stroke-width="1.3861" d="M131.381,171.076l17.229-0.195l0.401,11.299
		l0.266,1.886l0.191,8.238l-17.335,0.264l-0.068-10.177h-0.526L131.381,171.076"/>
	<path id="MO_Douglas_1_" fill="#AA0000" stroke="#FFFFFF" stroke-width="1.3861" d="M155.939,192.192l-0.382,13.628l-26.115,0.375
		l-5.782,0.04l-0.175-13.56l8.648-0.108l17.335-0.264L155.939,192.192"/>
	<path id="MO_Ozark_1_" fill="#AA0000" stroke="#FFFFFF" stroke-width="1.3861" d="M129.442,206.195l26.115-0.375l0.278,15.306
		l-1.199,0.074l-15.206,0.64l-9.76,0.344L129.442,206.195"/>
	<path id="MO_Howell_1_" fill="#D40000" stroke="#FFFFFF" stroke-width="1.3861" d="M173.21,191.811l0.28,8.307l0.157,5.236
		l-0.073,9.458l0.244,5.487l-17.984,0.826l-0.278-15.306l0.382-13.628l4.308-0.146l4.956,0.053L173.21,191.811"/>
	<path id="MO_Texas_1_" fill="#AA0000" stroke="#FFFFFF" stroke-width="1.3861" d="M157.154,163.798l8.718-0.201l2.15-0.086
		l0.393,9.045l4.284-0.133l0.511,19.386l-8.007,0.288l-4.956-0.053l-4.308,0.146l-6.473,0.111l-0.191-8.238l-0.266-1.886
		l-0.401-11.3l-0.155-6.824L157.154,163.798"/>
	<path id="MO_Phelps_1_" fill="#CC2F4A" stroke="#FFFFFF" stroke-width="1.3861" d="M171.646,134.546l3.762-0.133l1.085,18.834
		l-10.934,0.373l0.313,9.977l-8.718,0.201l-0.546-21.156l3.182-1.535l1.669-0.789l4.734-0.288l5.608-0.162L171.646,134.546"/>
	<path id="MO_Maries_1_" fill="#D40000" stroke="#FFFFFF" stroke-width="1.3861" d="M170.763,127.565l0.883,6.98l0.152,5.324
		l-5.607,0.164l-4.734,0.287l-1.67,0.788l-3.181,1.534l-6.471-0.023l-0.139-7.52h-0.641l-0.189-6.771l6.721-0.094l5.498-0.304
		L170.763,127.565"/>
	<path id="MO_Osage_1_" fill="#AA0000" stroke="#FFFFFF" stroke-width="1.3861" d="M169.707,106.083l0.264-0.041l0.791,21.523
		l-9.371,0.366l-5.501,0.304l-6.721,0.094l-0.032-2.252l6.767-12.499l1.546-1.182l3.117-3.024l0.282-0.52l0.28-0.329l0.352-0.227
		l5.056-2.213l1.271-0.147L169.707,106.083"/>
	<path id="MO_Callaway_1_" fill="#CC2F4A" stroke="#FFFFFF" stroke-width="1.3861" d="M150.929,88.185l18.46-0.554l0.317,18.452
		l-1.894-0.147l-1.272,0.147l-5.056,2.213l-0.352,0.226l-0.28,0.33l-0.283,0.52l-3.116,3.024l-1.547,1.182l-8.425-3.396
		l-0.293-2.861l1.982-3.559l0.218-7.566l0.75-7.505l0.214-0.483L150.929,88.185"/>
	<path id="MO_Monroe_1_" fill="#D40000" stroke="#FFFFFF" stroke-width="1.3861" d="M164.895,56.759l0.607,16.503l-22.897,0.539
		l-0.148-13.358h0.064l4.347-0.109l-0.069-3.056l13.011-0.326L164.895,56.759"/>
	<path id="MO_Shelby_1_" fill="#D40000" stroke="#FFFFFF" stroke-width="1.3861" d="M155.116,42.045l4.309-0.125l0.385,15.032
		l-13.011,0.327l0.069,3.054l-4.347,0.109l-0.241-18L155.116,42.045"/>
	<path id="MO_Knox_1_" fill="#D40000" stroke="#FFFFFF" stroke-width="1.3861" d="M139.31,24.373l15.156-0.52l0.064,2.267
		l0.582,15.927l-12.835,0.397l-2.362-4.315L139.31,24.373"/>
	<path id="MO_Scotland_1_" fill="#D40000" stroke="#FFFFFF" stroke-width="1.3861" d="M154.06,8.047l0.408,15.804l-15.156,0.52
		l-0.18-2.267l-0.507-12.983l6.471-0.427L154.06,8.047"/>
	<path id="MO_Clark_1_" fill="#D40000" stroke="#FFFFFF" stroke-width="1.3861" d="M162.671,8.027l0.792,0.505l3.011,2.322
		l0.091,0.333l-0.132,1.046l0.145,0.356l3.827,4.824l1.592,1.309l2.49,0.187l-2.808,6.85l-17.147,0.359l-0.064-2.267l-0.408-15.804
		L162.671,8.027"/>
	<path id="MO_Lewis_1_" fill="#D40000" stroke="#FFFFFF" stroke-width="1.3861" d="M171.68,25.759l-0.229,2.518l2.689,13.108
		l-14.714,0.536l-4.31,0.124l-0.583-15.926L171.68,25.759"/>
	<path id="MO_Marion_1_" fill="#D40000" stroke="#FFFFFF" stroke-width="1.3861" d="M174.139,41.384l3.833,9.512l2.281,3.702
		l-15.358,2.158l-5.089,0.195l-0.384-15.032L174.139,41.384"/>
	<path id="MO_Ralls_1_" fill="#D40000" stroke="#FFFFFF" stroke-width="1.3861" d="M164.895,56.759l15.358-2.158l5.423,4.222
		l-0.985,0.052l-9.519,8.143l1.167,6.803l-5.107,0.016l-5.731,0.195V73.26L164.895,56.759"/>
	<path id="MO_Audrain_1_" fill="#CC2F4A" stroke="#FFFFFF" stroke-width="1.3861" d="M142.608,73.801l22.897-0.539v0.773
		l5.732-0.196l5.105-0.016l1.562,9.063l-8.513,4.745l-18.461,0.554l-0.16-9.111l-8.123-0.016L142.608,73.801"/>
	<path id="MO_Montgomery_1_" fill="#D40000" stroke="#FFFFFF" stroke-width="1.3861" d="M183.671,82.745l0.209,7.618l0.348,7.713
		l-5.852,0.211l0.213,7.037l-8.616,0.715l-0.264,0.041l-0.316-18.453l8.513-4.745L183.671,82.745"/>
	<path id="MO_Pike_1_" fill="#D40000" stroke="#FFFFFF" stroke-width="1.3861" d="M185.678,58.823l9.267,9.833l9.436,8.579
		l-11.002,0.593l-6.947,0.217l0.136,4.59l-2.895,0.112l-5.768,0.141l-1.562-9.063l-1.167-6.803l9.519-8.143L185.678,58.823"/>
	<path id="MO_Lincoln_1_" fill="#D40000" stroke="#FFFFFF" stroke-width="1.3861" d="M204.381,77.234l1.813,6.311l-0.032,0.649
		l-1.06,1.674l-0.036,0.163l0.095,0.359v0.014l2.092,5.735l-11.186,3.905l-4.094,0.124l-2.923-2.93l-2.217-2.944l-2.953,0.069
		l-0.209-7.618l2.895-0.112l-0.136-4.59l6.947-0.217L204.381,77.234"/>
	<path id="MO_Warren_1_" fill="#D40000" stroke="#FFFFFF" stroke-width="1.3861" d="M183.88,90.365l2.953-0.069l2.217,2.943
		l2.923,2.93l4.094-0.124l0.647,16.76l-10.5-4.332l-0.241-0.49l-3.271-2.711l-0.438-0.052l-1.724,0.561l-1.952-0.452l-0.213-7.037
		l5.852-0.21L183.88,90.365"/>
	<path id="MO_Gasconade_1_" fill="#D40000" stroke="#FFFFFF" stroke-width="1.3861" d="M180.539,105.778l0.496,9.825l0.559,9.211
		l0.23,6.311l-6.416,3.287l-3.762,0.133l-0.883-6.98l-0.791-21.523l8.616-0.715L180.539,105.778"/>
	<path id="MO_Crawford_1_" fill="#D40000" stroke="#FFFFFF" stroke-width="1.3861" d="M181.827,131.126l10.654-0.249l1.049,24.038
		l-1.995,2.315l-6.21,0.187l-0.13-4.51l-8.702,0.342l-1.085-18.832L181.827,131.126"/>
	<path id="MO_Dent_1_" fill="#AA0000" stroke="#FFFFFF" stroke-width="1.3861" d="M191.535,157.228l0.22,5.674l-6.237,0.071
		l0.161,4.549l4.074-0.037l0.19,4.48l-17.244,0.459l-4.284,0.133l-0.395-9.045l-2.148,0.086l-0.313-9.977l10.934-0.373l8.707-0.342
		l0.123,4.51L191.535,157.228"/>
	<path id="MO_Shannon_1_" fill="#D40000" stroke="#FFFFFF" stroke-width="1.3861" d="M172.699,172.425l17.244-0.459l1.449-0.04
		l4.199,12.226l2.903,3.96l-3.647,0.669l-4.266,0.247l0.277,10.48l-17.369,0.61l-0.28-8.307L172.699,172.425"/>
	<path id="MO_Oregon_1_" fill="#D40000" stroke="#FFFFFF" stroke-width="1.3861" d="M173.49,200.118l17.369-0.61l4.431,2.899
		l0.425,16.896l-11.255,0.611l-1.721,0.053l-8.921,0.33l-0.244-5.487l0.073-9.458L173.49,200.118"/>
	<path id="MO_Ripley_1_" fill="#AA0000" stroke="#FFFFFF" stroke-width="1.3861" d="M195.29,202.409l2.888-0.094l6.219,0.164
		l9.022-0.437l4.365,16.013l-8.36,0.459l-13.705,0.794L195.29,202.409"/>
	<path id="MO_Carter_1_" fill="#AA0000" stroke="#FFFFFF" stroke-width="1.3861" d="M198.495,188.111l9.601,1.839l4.359,6.178
		l0.966,5.915l-9.022,0.437l-6.218-0.164l-2.889,0.094l-4.43-2.899l-0.278-10.48l4.266-0.246L198.495,188.111"/>
	<path id="MO_Reynolds_1_" fill="#D40000" stroke="#FFFFFF" stroke-width="1.3861" d="M191.755,162.902l7.691-1.222l7.541-0.383
		l0.382,9.731l1.145,7.481l0.705-0.093l0.175,2.267l0.055,3.148l-1.515,2.588l0.16,3.531l-9.601-1.839l-2.903-3.96l-4.201-12.226
		l-1.447,0.04l-0.19-4.48l-4.074,0.037l-0.162-4.549L191.755,162.902"/>
	<path id="MO_Iron_1_" fill="#D40000" stroke="#FFFFFF" stroke-width="1.3861" d="M211.486,154.196l4.607,4.482l0.373,16.894
		l-7.248,2.846l-0.705,0.093l-1.145-7.481l-0.382-9.731l-7.541,0.383l-7.691,1.222l-0.22-5.674l1.995-2.315L211.486,154.196"/>
	<path id="MO_Washington_1_" fill="#D40000" stroke="#FFFFFF" stroke-width="1.3861" d="M204.858,130.189l5.854,6.295l0.774,17.712
		l-17.956,0.717l-1.049-24.038L204.858,130.189"/>
	<path id="MO_Franklin_1_" fill="#D40000" stroke="#FFFFFF" stroke-width="1.3861" d="M196.716,112.806l8.794-5.251l0.33,8.951
		l-0.981,13.684l-12.377,0.686l-10.654,0.246l-0.233-6.308l-0.559-9.209l-0.496-9.828l1.724-0.56l0.438,0.052l3.27,2.711l0.242,0.49
		L196.716,112.806"/>
	<path id="MO_St._Charles_1_" fill="#CC2F4A" stroke="#FFFFFF" stroke-width="1.3861" d="M215.498,89.911l6.926,1.731l1.001,0.313
		l0.981,0.475l0.741,0.452l3.816,2.354l0.161,0.289l0.037,0.304l-0.145,1.19l-0.082,0.485l-0.371-0.756l-0.634-0.414l-0.669,0.054
		l-0.949,0.646l-0.666-0.249l-2.412-1.48l-0.39-0.414l-2.811,0.257l-0.065,0.615l-0.304,0.692l-0.248,0.398l-0.436,0.375
		l-0.578,0.054l-1.394-0.266h-0.42l-0.281,0.125l-0.263,0.304l-0.919,1.708l-1.969,4.356l0.034,0.591l-0.257,0.499l-0.634,0.366
		l-0.589,0.054l-3.353-0.202l-0.282,0.093l-0.509,0.397l-1.144,1.831l-0.914,0.422l-8.794,5.245l-0.647-16.76l11.187-3.905
		L215.498,89.911"/>
	<path id="MO_Jefferson_1_" fill="#CC2F4A" stroke="#FFFFFF" stroke-width="1.3861" d="M205.84,116.506l0.439-0.823l5.134-1.317
		l7.245-0.408l2.476,4.722l0.302,1.169l-0.109,0.149l-0.177,0.357l-0.572,1.996l-0.075,0.218l-0.034,0.523l0.071,2.156l0.528,2.316
		l0.452,1.153l0.726,1.005l0.125,0.18l0.104,0.115l3.307,3.287l-6.171,4.437l-8.897-1.258l-5.856-6.293L205.84,116.506"/>
	<path id="MO_St._Francois" fill="#D40000" stroke="#FFFFFF" stroke-width="1.3861" d="M210.714,136.484l8.899,1.256l3.833,2.915
		l-5.045,5.656l3.216,3.169l7.616,7.029l1.714-1.666l1.811,1.373l-1.329,1.606l-15.338,0.855l-4.606-4.482L210.714,136.484"/>
	<path id="MO_Ste._Genevieve" fill="#CC2F4A" stroke="#FFFFFF" stroke-width="1.3861" d="M227.781,134.837l11.132,10.394
		l-6.155,10.986l-1.808-1.373l-1.715,1.666l-7.62-7.029l-3.212-3.169l5.045-5.656l-3.833-2.915l6.171-4.433L227.781,134.837"/>
	<path id="MO_Madison_1_" fill="#D40000" stroke="#FFFFFF" stroke-width="1.3861" d="M231.43,157.823l0.139,2.307l0.509,2.881
		l0.416,11.885l-2.864,0.031l-13.166,0.646l-0.373-16.894L231.43,157.823"/>
	<path id="MO_Wayne_1_" fill="#AA0000" stroke="#FFFFFF" stroke-width="1.3861" d="M216.467,175.572l13.165-0.646l0.487,11.836
		l4.489-0.248l0.107,2.319l-5.504,6.524l-16.757,0.77l-4.359-6.178l-0.16-3.531l1.515-2.589l-0.054-3.147l-0.175-2.268
		L216.467,175.572"/>
	<path id="MO_Butler_1_" fill="#D40000" stroke="#FFFFFF" stroke-width="1.3861" d="M229.209,195.358l1.957,5.266l1.387,3.134
		l0.268,0.1l0.364,0.272l1.305,2.549l0.494,1.839l-0.105,1.005l-0.358,0.633l-2.477,7.064l-14.257,0.834l-4.363-16.013l-0.968-5.916
		L229.209,195.358"/>
	<path id="MO_Dunklin_1_" fill="#D40000" stroke="#FFFFFF" stroke-width="1.3861" d="M242.096,209.764l0.69,12.439l1.333,20.158
		l-13.289,0.973l-3.211,0.211l6.214-11.055l4.394-3.951l0.284-0.452l0.425-1.183l-0.263-4.092l-0.393-0.527l-3.583-5.182
		l-1.583,0.053l-1.074,0.068l2.477-7.064L242.096,209.764"/>
	<path id="MO_Stoddard_1_" fill="#AA0000" stroke="#FFFFFF" stroke-width="1.3861" d="M244.177,183.792l4.008-0.248l0.771,4.771
		l0.809,1.106l0.632,1.042l0.86,2.141l0.617,1.762l0.143,2.775l-0.507,0.03l0.93,11.993l-10.345,0.6l-7.579,0.393l0.357-0.633
		l0.105-1.004l-0.493-1.84l-1.306-2.549l-0.364-0.271l-0.268-0.101l-1.387-3.134l-1.954-5.266l5.505-6.523l3.686-0.202l2.332-0.89
		l-0.248-3.771L244.177,183.792"/>
	<path id="MO_Bollinger_1_" fill="#AA0000" stroke="#FFFFFF" stroke-width="1.3861" d="M242.834,159.302l1.342,24.49l-3.694,0.18
		l0.243,3.771l-2.327,0.889l-3.686,0.202l-0.108-2.319l-4.488,0.248l-0.487-11.836l2.864-0.031l-0.416-11.885l-0.51-2.881
		L242.834,159.302"/>
	<path id="MO_Perry_1_" fill="#D40000" stroke="#FFFFFF" stroke-width="1.3861" d="M238.913,145.23l10.625,3.013l6.82,11.543v0.313
		l-13.52-0.797l-11.27,0.828l-0.139-2.307l1.327-1.606L238.913,145.23"/>
	<path id="MO_Cape_Girardeau_1_" fill="#D40000" stroke="#FFFFFF" stroke-width="1.3861" d="M242.834,159.302l13.521,0.797
		l0.037,0.468l0.252,1.029l0.016,0.007l1.119,2.143l0.74,1.129l1.044,1.045l0.489,0.63l0.632,1.458l0.016,0.041l0.023,0.085
		l0.225,0.864l0.021,0.054l-0.021,0.069l-0.155,1.583l-0.16,0.49l-0.03,0.047l-0.041,0.042l-0.036,0.051l-0.457,0.238l-1.437,0.396
		l0.064,4.512l-10.509,7.064l-4.007,0.248L242.834,159.302"/>
	<path id="MO_Scott_1_" fill="#D40000" stroke="#FFFFFF" stroke-width="1.3861" d="M258.694,176.477l1.005,1.471l2.443,4.676
		l1.404,3.521l2.657,2.214l-7.368,7.794l-6.819,0.99l-0.143-2.775l-0.617-1.761l-0.86-2.141l-0.632-1.042l-0.809-1.107l-0.771-4.771
		L258.694,176.477"/>
	<path id="MO_Mississippi_1_" fill="#CC2F4A" stroke="#FFFFFF" stroke-width="1.3861" d="M266.206,188.359l7.653,0.841l1.426,1.879
		l-1.51,5.142l-0.024,0.02l-1.108,0.644l-0.02,0.026v1.183l0.02,0.016l2.304,1.237l-1.544,7.14l-6.051,1.385l-8.513-11.717
		L266.206,188.359"/>
	<path id="TN_Lake" fill="#CC2F4A" stroke="#FFFFFF" stroke-width="1.3861" d="M267.067,214.594l-4.465,15.412l-5.807,1.816
		l2.873-8.059l-0.319-8.361l2.161-0.125l2.72-0.272L267.067,214.594"/>
	<path id="MO_Jackson_1_" fill="#86B6F2" stroke="#FFFFFF" stroke-width="1.3861" d="M73.51,86.477l-0.141,11.743l-0.107,4.372
		l-19.018-0.397l-0.129-10.208l-0.055-3.6l5.419-0.648l3.901-1.979l1.144-1.208l0.513-0.77l0.196-0.897l0.298-0.587l0.227-0.295
		l0.455-0.236l1.337,0.016l0.389,0.148l0.209,0.141l1.131,1.183L73.51,86.477"/>
	<path id="MO_Boone_1_" fill="#B9D7FF" stroke="#FFFFFF" stroke-width="1.3861" d="M142.646,79.058l8.123,0.016l0.16,9.111
		l-0.583,0.022l-0.211,0.483l-0.751,7.505l-0.218,7.566l-1.982,3.559l0.294,2.861l-6.958-4.714l-4.381-9.313l-2.393-2.446
		l4.42-14.602L142.646,79.058"/>
	<path id="MO_St._Louis_1_" fill="#86B6F2" stroke="#FFFFFF" stroke-width="1.3861" d="M228.93,97.502l-2.832,3.538l-1.951,0.063
		l-1.581,1.214l-0.967,2.049l0.61,4.042l0.498,2.745l1.618,0.856l-0.177,0.63l-2.711,7.209l-0.303-1.171l-2.476-4.723l-7.245,0.406
		l-5.134,1.317l-0.441,0.825l-0.328-8.951l0.914-0.416l1.144-1.83l0.509-0.398l0.282-0.093l3.353,0.202l0.589-0.055l0.632-0.365
		l0.259-0.5l-0.034-0.59l1.969-4.357l0.919-1.708l0.263-0.304l0.281-0.125h0.42l1.394,0.266l0.578-0.054l0.436-0.375l0.248-0.398
		l0.304-0.701l0.065-0.609l2.811-0.257l0.388,0.414l2.414,1.48l0.666,0.249l0.949-0.646l0.669-0.054l0.634,0.414L228.93,97.502"/>
	<path id="MO_St._Louis_city" fill="#1666CB" stroke="#FFFFFF" stroke-width="1.3861" d="M224.635,101.04l0.8,4.137l-2.577,6.833
		l-1.613-0.856l-0.503-2.743l-0.61-4.042l0.967-2.05l1.583-1.214L224.635,101.04"/>
	
		<line fill="none" stroke="#FFFFFF" stroke-width="1.3861" stroke-linejoin="round" x1="264.237" y1="215.008" x2="261.512" y2="215.28"/>
</g>
</svg>
