<?xml version="1.0" encoding="utf-8"?>
<!-- Generator: Adobe Illustrator 16.0.0, SVG Export Plug-In . SVG Version: 6.00 Build 0)  -->
<!DOCTYPE svg PUBLIC "-//W3C//DTD SVG 1.1//EN" "http://www.w3.org/Graphics/SVG/1.1/DTD/svg11.dtd">
<svg version="1.1"
	 id="svg7314" xmlns:svg="http://www.w3.org/2000/svg" xmlns:rdf="http://www.w3.org/1999/02/22-rdf-syntax-ns#" xmlns:cc="http://creativecommons.org/ns#" xmlns:sodipodi="http://sodipodi.sourceforge.net/DTD/sodipodi-0.dtd" xmlns:dc="http://purl.org/dc/elements/1.1/" xmlns:inkscape="http://www.inkscape.org/namespaces/inkscape" inkscape:version="0.48.1 " sodipodi:docname="Mississippi Republican Presidential Primary Election Results by County, 2012.svg" sodipodi:version="0.32" inkscape:output_extension="org.inkscape.output.svg.inkscape"
	 xmlns="http://www.w3.org/2000/svg" xmlns:xlink="http://www.w3.org/1999/xlink" x="0px" y="0px" width="164.122px"
	 height="284.398px" viewBox="0 0 164.122 284.398" enable-background="new 0 0 164.122 284.398" xml:space="preserve">
<defs>
	
	
		<inkscape:perspective  id="perspective7322" inkscape:persp3d-origin="372.04724 : 350.78739 : 1" sodipodi:type="inkscape:persp3d" inkscape:vp_y="0 : 1000 : 0" inkscape:vp_x="0 : 526.18109 : 1" inkscape:vp_z="744.09448 : 526.18109 : 1">
		</inkscape:perspective>
</defs>
<sodipodi:namedview  bordercolor="#666666" pagecolor="#ffffff" objecttolerance="10" borderopacity="1.0" guidetolerance="10" showguides="true" inkscape:cx="82.061028" showgrid="false" inkscape:cy="142.1992" inkscape:zoom="1.8706153" gridtolerance="10000" id="base" inkscape:window-width="1024" inkscape:window-y="-4" inkscape:current-layer="layer1" inkscape:pageopacity="0.0" inkscape:window-height="721" inkscape:window-maximized="0" inkscape:pageshadow="2" inkscape:window-x="-4" inkscape:document-units="px" inkscape:guide-bbox="true">
	</sodipodi:namedview>
<g>
	<path id="MS_Harrison_1_" fill="#CC2F4A" stroke="#FFFFFF" stroke-width="0.9619" d="M136.809,249.922l2.99,14.951l-3.612,0.908
		l-7.623,1.98l-9.349,2.688l-2.99-2.064l-1.113-15.239l4.843-0.328l0.222-1.676L136.809,249.922"/>
	<path id="MS_Jackson_1_" fill="#CC2F4A" stroke="#FFFFFF" stroke-width="0.9619" d="M136.549,246.687l22.499-1.735l2.468,20.226
		l-0.046,0.815l-3.416,2.199l-0.387,0.146l-12.012-0.43l-0.901-0.204l-3.243-1.827l-1.71-1.002l-2.989-14.951L136.549,246.687"/>
	<path id="MS_Grenada_1_" fill="#E27F90" stroke="#FFFFFF" stroke-width="0.9619" d="M75.638,74.151l7.185-0.403l0.119,1.65
		l12.013-0.792l0.741,10.575l-12.871,0.907l-15.701,0.995l-0.521-2.468l-0.296-4.903l4.962-0.355l4.638-1.063l-0.117-1.619
		L75.638,74.151"/>
	<path id="MS_Yalobusha_1_" fill="#E27F90" stroke="#FFFFFF" stroke-width="0.9619" d="M93.716,58.171l1.24,16.433l-12.013,0.792
		l-0.119-1.65l-7.184,0.403l-1.183-14.824l9.504-2.201L93.716,58.171"/>
	<path id="MS_Webster_1_" fill="#D40000" stroke="#FFFFFF" stroke-width="0.9619" d="M109.93,80.765l7.228-0.562l1.439,9.822
		l-3.073,1.844l-13.199,5.028l-5.771,0.429l-1.037-14.613L109.93,80.765"/>
	<path id="MS_Calhoun_1_" fill="#CC2F4A" stroke="#FFFFFF" stroke-width="0.9619" d="M93.716,58.171l12.07-0.792l5.205,4.508
		l1.111,14.598l-2.39,0.189l0.22,4.086l-14.414,1.947l-0.561-8.105L93.716,58.171"/>
	<path id="MS_Pontotoc_1_" fill="#D40000" stroke="#FFFFFF" stroke-width="0.9619" d="M124.131,44.609l1.24,16.174l-14.38,1.105
		l-5.205-4.508l-0.901-12.188L124.131,44.609"/>
	<path id="MS_Lee_1_" fill="#CC2F4A" stroke="#FFFFFF" stroke-width="0.9619" d="M127.534,36.274l9.011,1.743l1.6,20.975
		l-7.949,1.441l-4.828,0.353l-1.24-16.174L127.534,36.274"/>
	<path id="MS_Union_1_" fill="#AA0000" stroke="#FFFFFF" stroke-width="0.9619" d="M111.185,32.48l16.022-1.11l0.329,4.904
		l-3.405,8.337l-19.246,0.583l-0.463-6.472l-0.305-4.882L111.185,32.48"/>
	<path id="MS_Lafayette_1_" fill="#E27F90" stroke="#FFFFFF" stroke-width="0.9619" d="M82.613,36.928l2.394-0.153l4.707-0.396
		l4.021-0.185l5.913,1.364l4.775,1.163l0.463,6.472l0.901,12.188l-12.07,0.792l-9.757-1.045L82.613,36.928"/>
	<path id="MS_Tate_1_" fill="#CC2F4A" stroke="#FFFFFF" stroke-width="0.9619" d="M60.245,28.824l4.428-0.731l8.496-2.784
		l8.536-0.556l0.362,4.844l2.451,0.398l0.488,6.781l-2.394,0.153L60.924,38.31L60.245,28.824"/>
	<path id="MS_Carroll_1_" fill="#CC2F4A" stroke="#FFFFFF" stroke-width="0.9619" d="M67.124,87.083l15.701-0.995l1.037,14.524
		l3.27,0.58l3.183-0.251l0.484,6.534l-4.552,4.271l-20.053-5.381l-0.291-4.659l1.69-0.084l1.528-2.467l-0.675-10.733l-0.111-0.578
		L67.124,87.083"/>
	<path id="MS_Montgomery_1_" fill="#E27F90" stroke="#FFFFFF" stroke-width="0.9619" d="M95.696,85.177l0.858,12.145l5.771-0.429
		l-2.681,9.949l-8.848,0.633l-0.484-6.534l-3.184,0.251l-3.269-0.58l-1.037-14.524L95.696,85.177"/>
	<path id="MS_Choctaw_1_" fill="#CC2F4A" stroke="#FFFFFF" stroke-width="0.9619" d="M115.524,91.867l0.992,13.781l-0.959,0.074
		l-4.463,5.266l0.324,4.904l-4.8,0.37l-6.977-9.419l2.683-9.949L115.524,91.867"/>
	<path id="MS_Lowndes_1_" fill="#E27F90" stroke="#FFFFFF" stroke-width="0.9619" d="M141.432,83.349l11.758-6.261l-0.248,11.836
		l-0.258,13.798l-16.805,1.407l-1.057-12.188L141.432,83.349"/>
	<path id="MS_Monroe_1_" fill="#CC2F4A" stroke="#FFFFFF" stroke-width="0.9619" d="M153.681,57.886l-0.046,1.59l-0.45,17.612
		l-11.753,6.261l0.764-1.383l-0.274-0.329l-10.074,0.75l-0.584-7.261l-1.065-14.697l7.949-1.441L153.681,57.886"/>
	<path id="MS_Itawamba" fill="#AA0000" stroke="#FFFFFF" stroke-width="0.9619" d="M154.146,36.717l-0.463,21.169l-15.534,1.103
		l-1.6-20.975l9.707-0.684L154.146,36.717"/>
	<path id="MS_Prentiss_1_" fill="#D40000" stroke="#FFFFFF" stroke-width="0.9619" d="M143.264,21.184l2.989,16.147l-9.704,0.684
		l-9.013-1.746l-0.329-4.901l0.093-8.997L143.264,21.184"/>
	<path id="MS_Tishomingo_1_" fill="#AA0000" stroke="#FFFFFF" stroke-width="0.9619" d="M142.284,7.799l7.385-0.607l5.098,5.383
		l-0.463,17.479l-0.159,6.664l-7.891,0.614l-2.989-16.147L142.284,7.799"/>
	<path id="MS_Alcorn_1_" fill="#AA0000" stroke="#FFFFFF" stroke-width="0.9619" d="M141.526,7.849l0.761-0.053l0.978,13.385
		L127.3,22.369l-5.748-12.932l1.654-0.134L141.526,7.849"/>
	<path id="MS_Tippah_1_" fill="#D40000" stroke="#FFFFFF" stroke-width="0.9619" d="M112.777,10.123l8.772-0.681l5.749,12.932
		l-0.094,8.997l-16.022,1.11l-0.873-12.114l2.39-0.168l0.625-2.494L112.777,10.123"/>
	<path id="MS_Benton_1_" fill="#E27F90" stroke="#FFFFFF" stroke-width="0.9619" d="M104.618,10.722l8.159-0.599l0.549,7.582
		l-0.625,2.494l-2.389,0.168l0.873,12.114l-7.07,1.359l-2.394,0.173l-1.09-14.596l-1.8-2.662l-1.188-5.534L104.618,10.722"/>
	<path id="MS_DeSoto" fill="#CC2F4A" stroke="#FFFFFF" stroke-width="0.9619" d="M80.843,12.338l0.861,12.417l-8.536,0.556
		l-8.496,2.784l-4.428,0.731l-4.689-7.362l-1.143-7.508L80.843,12.338"/>
	<path id="MS_Attala_1_" fill="#E27F90" stroke="#FFFFFF" stroke-width="0.9619" d="M99.644,106.844l6.975,9.419l0.622,9.875
		l-11.135,0.834l-7.919,0.562l0.177,2.527l-10.941,0.993l8.819-19.306l4.552-4.271L99.644,106.844"/>
	<path id="MS_Winston_1_" fill="#E27F90" stroke="#FFFFFF" stroke-width="0.9619" d="M116.516,105.647l12.708-0.976l1.536,20.066
		l-4.724,0.328l-18.796,1.072l-0.622-9.875l4.807-0.369l-0.331-4.904l4.463-5.266L116.516,105.647"/>
	<path id="MS_Neshoba_1_" fill="#D40000" stroke="#FFFFFF" stroke-width="0.9619" d="M107.244,126.135l18.796-1.072l1.454,19.461
		l-18.774,1.382L107.244,126.135"/>
	<path id="MS_Leake_1_" fill="#E27F90" stroke="#FFFFFF" stroke-width="0.9619" d="M107.244,126.135l1.476,19.771l-0.236,0.023
		l-18.984,1.259l-0.235-3.187l-0.895-13.941l-0.177-2.525l7.919-0.564L107.244,126.135"/>
	<path id="MS_Madison_1_" fill="#E27F90" stroke="#FFFFFF" stroke-width="0.9619" d="M77.424,131.053l10.942-0.993l0.894,13.941
		l-2.334,2.822l-1.028,0.033l-2.425,0.295l-6.537,6.004l-2.545,2.832l-0.176,0.413l-0.017,0.717l0.267,0.95l-5.93,0.338
		l-2.408-0.238l-0.268-4.462l-1.719,0.084l-7.901,0.458l-0.294-4.803l1.727-0.406l13.674-7.756l2.661-1.912l0.461-0.734
		L77.424,131.053"/>
	<path id="MS_Rankin_1_" fill="#D40000" stroke="#FFFFFF" stroke-width="0.9619" d="M86.926,146.824l3.853,20.133l0.661,9.719
		l-23.486,1.34l-1.204-3.436l1.693-7.877l2.84-4.104l3.183-4.531l-0.267-0.95l0.017-0.717l0.176-0.413l2.545-2.832l6.537-6.004
		l2.425-0.295L86.926,146.824"/>
	<path id="MS_Simpson_1_" fill="#CC2F4A" stroke="#FFFFFF" stroke-width="0.9619" d="M91.442,176.676l4.606,14.579l-4.785,0.659
		l-10.283,1.381l-6.941,0.936l-6.082-16.215L91.442,176.676"/>
	<path id="MS_Smith_1_" fill="#D40000" stroke="#FFFFFF" stroke-width="0.9619" d="M90.779,166.957l19.085-1.377l1.927,23.393
		l-3.968,0.565l-11.776,1.714l-4.606-14.578L90.779,166.957"/>
	<path id="MS_Scott_1_" fill="#E27F90" stroke="#FFFFFF" stroke-width="0.9619" d="M89.26,144.002l0.236,3.187l18.984-1.259
		l1.383,19.653l-19.085,1.376l-3.853-20.133L89.26,144.002"/>
	<path id="MS_Newton_1_" fill="#CC2F4A" stroke="#FFFFFF" stroke-width="0.9619" d="M108.716,145.906l18.777-1.382l1.495,19.614
		l-19.125,1.441l-1.383-19.652L108.716,145.906"/>
	<path id="MS_Lauderdale_1_" fill="#CC2F4A" stroke="#FFFFFF" stroke-width="0.9619" d="M127.494,144.524l24.476-1.966
		l-0.339,15.104l-0.109,4.549l-22.535,1.928L127.494,144.524"/>
	<path id="MS_Clarke_1_" fill="#CC2F4A" stroke="#FFFFFF" stroke-width="0.9619" d="M151.523,162.217l-0.314,18.641l-20.405,5.367
		l-1.813-22.08L151.523,162.217"/>
	<path id="MS_Jones_1_" fill="#D40000" stroke="#FFFFFF" stroke-width="0.9619" d="M129.26,186.449l1.603,21.734l-9.562,0.664
		l-11.965,0.863l-1.512-20.166l3.968-0.566L129.26,186.449"/>
	<path id="MS_Covington_1_" fill="#CC2F4A" stroke="#FFFFFF" stroke-width="0.9619" d="M107.825,189.54l1.512,20.167l-2.489,0.165
		l-6.393,0.458l-0.288-4.443l-0.86-1.355l-1.687-0.994l-1.707-0.219l-1.271-0.613l-2.8-1.619l-0.581-9.172l4.787-0.659
		L107.825,189.54"/>
	<path id="MS_Lawrence_1_" fill="#CC2F4A" stroke="#FFFFFF" stroke-width="0.9619" d="M74.039,194.232l6.941-0.935l0.452,7.445
		l1.126,5.813l0.46,7.325l-3.655,3.269l-9.678-0.191l-1.295-20.419l5.653-2.307"/>
	<path id="MS_Lincoln_1_" fill="#CC2F4A" stroke="#FFFFFF" stroke-width="0.9619" d="M68.385,196.539l1.297,20.419l-0.791,0.05
		l-13.61,0.845l-4.039,0.247l-0.813-14.582l-4.919,0.295l-0.238-4.857L68.385,196.539"/>
	<path id="MS_Franklin_1_" fill="#CC2F4A" stroke="#FFFFFF" stroke-width="0.9619" d="M25.858,204.92l19.654-1.109l4.919-0.295
		l0.813,14.581l-16.563,0.942l-5.225,1.804l-3.057-1.267L25.858,204.92"/>
	<path id="MS_Amite_1_" fill="#CC2F4A" stroke="#FFFFFF" stroke-width="0.9619" d="M55.281,217.853l1.128,19.441L55.5,237.32
		l-12.325,0.725l-11.142,0.623l-2.583-17.823l5.225-1.803L51.24,218.1L55.281,217.853"/>
	<path id="MS_Walthall_1_" fill="#E27F90" stroke="#FFFFFF" stroke-width="0.9619" d="M69.685,216.958l9.678,0.191l0.355,5.671
		l0.822,3.211l1.844,2.273l3.474,2.201l3.483,0.563l0.913,4.028l-20.131,1.331l-1.228-19.418L69.685,216.958"/>
	<path id="MS_Marion_1_" fill="#CC2F4A" stroke="#FFFFFF" stroke-width="0.9619" d="M97.269,210.531l1.614,23.958l-3.515,0.251
		l-5.114,0.357l-0.915-4.028l-3.484-0.563l-3.474-2.201l-1.843-2.273l-0.823-3.211l-0.354-5.671l3.655-3.269l6.418-0.383
		l-0.212-2.453L97.269,210.531"/>
	<path id="MS_Lamar_1_" fill="#D40000" stroke="#FFFFFF" stroke-width="0.9619" d="M106.847,209.874l0.377,4.861l4.876-0.348
		l1.249,18.66l-14.468,1.441l-1.614-23.958l3.19-0.201L106.847,209.874"/>
	<path id="MS_Forrest" fill="#E27F90" stroke="#FFFFFF" stroke-width="0.9619" d="M121.301,208.846l1.254,17.143l0.835,6.906
		l0.396,5.028l-9.661,0.674l-0.775-5.552l-1.246-18.66l-4.877,0.348l-0.376-4.86l2.489-0.165L121.301,208.846"/>
	<path id="MS_Wayne_1_" fill="#CC2F4A" stroke="#FFFFFF" stroke-width="0.9619" d="M151.208,180.855l1.123,10.905l1.854,14.498
		l-18.507,1.559l-4.816,0.361l-1.603-21.734l1.543-0.228L151.208,180.855"/>
	<path id="MS_Greene_1_" fill="#AA0000" stroke="#FFFFFF" stroke-width="0.9619" d="M135.684,207.819l18.502-1.559l2.249,17.757
		l0.825,6.426l-19.401,1.516L135.684,207.819"/>
	<path id="MS_Perry_1_" fill="#D40000" stroke="#FFFFFF" stroke-width="0.9619" d="M130.863,208.182l4.821-0.362l2.175,24.143
		l-2.061,5.011l-12.013,0.955l-0.396-5.031l-0.835-6.906l-1.254-17.143L130.863,208.182"/>
	<path id="MS_Stone_1_" fill="#D40000" stroke="#FFFFFF" stroke-width="0.9619" d="M135.798,236.973l0.751,9.714l0.26,3.235
		l-16.633,1.221l-0.222,1.676l-4.843,0.328l-0.985-14.548l9.662-0.671L135.798,236.973"/>
	<path id="MS_Pearl_River_1_" fill="#AA0000" stroke="#FFFFFF" stroke-width="0.9619" d="M113.349,233.048l0.775,5.551l0.984,14.548
		l-6.602,0.449l-2.94,1.846l0.37,5.659l-4.707,3.513l-2.099,0.146l-7.987-11.001l0.531-3.977l0.575-2.93l0.723-3.554l0.622-2.604
		l0.117-0.119l0.389-0.056l0.295-0.036l0.479-1.071l0.584-2.94l-0.095-1.727l3.514-0.251L113.349,233.048"/>
	<path id="MS_Hancock_1_" fill="#D40000" stroke="#FFFFFF" stroke-width="0.9619" d="M99.131,264.755l2.099-0.146l4.707-3.513
		l-0.37-5.659l2.94-1.846l6.602-0.448l1.114,15.238l-8.074,11.263l-2.215,0.137l-0.091,0.017l-0.119-0.084l-0.169-0.11l-0.126-0.084
		l-0.354-0.402l-1.044-1.223l-0.463-0.902l-1.526-2.889l-0.033-0.295l0.119-0.461l0.446-1.129l-0.074-1.026l-2.976-6.048
		l-0.313-0.323L99.131,264.755"/>
	<path id="MS_George_1_" fill="#AA0000" stroke="#FFFFFF" stroke-width="0.9619" d="M137.859,231.962l19.401-1.516l1.785,14.505
		l-22.501,1.735l-0.748-9.714L137.859,231.962"/>
	<path id="MS_Clay_1_" fill="#86B6F2" stroke="#FFFFFF" stroke-width="0.9619" d="M131.261,75.129l0.584,7.261l10.074-0.75
		l0.273,0.329l-0.765,1.383l-6.605,8.594l-0.273-3.285l-14.381,1.146l-1.575,0.218l-1.44-9.822L131.261,75.129"/>
	<path id="MS_Chickasaw_1_" fill="#E27F90" stroke="#FFFFFF" stroke-width="0.9619" d="M125.369,60.783l4.829-0.353l1.065,14.697
		l-14.104,5.072l-7.227,0.561l-0.22-4.086l2.39-0.192l-1.111-14.596L125.369,60.783"/>
	<path id="MS_Panola_1_" fill="#F2B3BE" stroke="#FFFFFF" stroke-width="0.9619" d="M60.924,38.31l21.688-1.381l1.347,20.2
		l-9.504,2.201l-9.309,0.808l-0.341-5.906l-2.896-3.167l-0.854-10.328L60.924,38.31"/>
	<path id="MS_Quitman_1_" fill="#4389E3" stroke="#FFFFFF" stroke-width="0.9619" d="M61.06,40.734l0.852,10.328l2.897,3.168
		l0.341,5.906l0.288,4.858l-2.473,0.161l-11.952,0.714l-0.608-10.575l2.377-0.089l-0.563-9.064l4.454-0.312l-0.412-4.743
		L61.06,40.734"/>
	<path id="MS_Tallahatchie_1_" fill="#86B6F2" stroke="#FFFFFF" stroke-width="0.9619" d="M65.145,60.135l9.309-0.808l1.183,14.824
		l0.152,2.525l0.117,1.619l-4.638,1.063l-4.962,0.355l0.296,4.903L64.79,81l-0.601-1.146l-12.36,0.614l-0.529-9.738l-0.286-4.858
		l11.952-0.714l2.473-0.161L65.145,60.135"/>
	<path id="MS_Leflore_1_" fill="#4389E3" stroke="#FFFFFF" stroke-width="0.9619" d="M51.826,80.472l12.36-0.614l0.602,1.144
		l1.812,3.616l0.522,2.468l1.209,0.76l0.112,0.578l0.675,10.733l-1.528,2.467l-1.691,0.084l0.291,4.659l-7.155,2.137l-5.693-1.146
		L51.826,80.472"/>
	<path id="MS_Sunflower_1_" fill="#4389E3" stroke="#FFFFFF" stroke-width="0.9619" d="M51.294,70.731l0.531,9.74l1.517,26.885
		l-4.75,0.295l0.22,3.261l-7.444,0.446l-2.976-14.347l-0.27-4.834l4.816-0.269l-1.082-20.72L51.294,70.731"/>
	<path id="MS_Humphreys_1_" fill="#1666CB" stroke="#FFFFFF" stroke-width="0.9619" d="M53.342,107.357l5.694,1.149l0.624,9.352
		l-1.499,2.763l-0.27,0.194l-0.527-0.103l-1.242-0.774l-0.582-0.772l-0.202,0.05l-0.107,0.185l-0.162,0.928l0.214,1.844l0.105,0.295
		l2.253,1.87l0.873,0.559l-3.948,0.312l0.252,4.784l-9.602,0.597l-2.637-9.563l-1.209-9.663l7.443-0.446l-0.219-3.261
		L53.342,107.357"/>
	<path id="MS_Holmes_1_" fill="#0645B4" stroke="#FFFFFF" stroke-width="0.9619" d="M59.037,108.503l7.155-2.137l20.052,5.381
		l-8.819,19.306l-18.91-6.165l-0.873-0.559l-2.253-1.871l-0.105-0.295l-0.214-1.844l0.162-0.928l0.107-0.185l0.202-0.05l0.582,0.772
		l1.242,0.774l0.527,0.104l0.27-0.194l1.499-2.763L59.037,108.503"/>
	<path id="MS_Oktibbeha_1_" fill="#B9D7FF" stroke="#FFFFFF" stroke-width="0.9619" d="M118.597,90.022l1.579-0.218l14.377-1.146
		l0.274,3.285l1.057,12.188l-6.66,0.54l-12.706,0.976l-0.991-13.781L118.597,90.022"/>
	<path id="MS_Marshall_1_" fill="#86B6F2" stroke="#FFFFFF" stroke-width="0.9619" d="M84.46,12.069l13.181-0.851l1.188,5.534
		l1.801,2.662l1.089,14.596l2.395-0.173l0.305,4.882l-4.775-1.163l-5.913-1.364l-4.021,0.185l-4.707,0.396l-0.488-6.781
		l-2.451-0.398L81.7,24.75l-0.861-12.417L84.46,12.069"/>
	<path id="MS_Tunica_1_" fill="#1666CB" stroke="#FFFFFF" stroke-width="0.9619" d="M55.555,21.462l4.689,7.362l0.68,9.483
		l0.136,2.424l-4.802,0.357l0.413,4.743l-4.454,0.312l-8.104-5.215l-0.623-6.47l6.989-11.143L55.555,21.462"/>
	<path id="MS_Coahoma_1_" fill="#1666CB" stroke="#FFFFFF" stroke-width="0.9619" d="M44.108,40.928l8.106,5.215l0.563,9.064
		L50.4,55.296l0.608,10.575l0.286,4.858l-9.442,0.458L41.33,63.85l-7.313,0.295l-5.155,0.305l-0.149-0.54l0.655-1.376l2.064-4.261
		l4.359-7.819l2.387-0.46l2.394-0.487l1.981-0.954l1.573-1.384l0.098-0.074l0.043-0.101l0.329-1.072L44.108,40.928"/>
	<path id="MS_Bolivar_1_" fill="#4389E3" stroke="#FFFFFF" stroke-width="0.9619" d="M28.865,64.449l5.154-0.305l7.313-0.295
		l0.522,7.337l1.082,20.72l-4.816,0.269l0.27,4.834l-20.84,1.113l-0.639-1.77l3.4-1.364l0.817-0.698l0.119-0.6v-0.058l-1.307-1.053
		l-1.373-1.028l-0.276-0.497l-0.058-0.11l0.253-1.264l3.693-15.905l8.986-4.525l0.268-1.861l-0.481-1.213l-2.063-1.65L28.865,64.449
		"/>
	<path id="MS_Washington_1_" fill="#4389E3" stroke="#FFFFFF" stroke-width="0.9619" d="M17.553,98.125l20.839-1.112l2.976,14.347
		l1.209,9.664l-9.595,5.467l-11.287,0.389l1.361-1.542l0.038-0.034l1.459-6.059v-0.041l-0.136-4.23l-1.204-1.28l-1.576-2.856
		l-2.332-6.671l2.39-0.698l0.565-1.113l-0.372-1.295l-1.917-1.297l-2.361-1.604L17.553,98.125"/>
	<path id="MS_Sharkey_1_" fill="#4389E3" stroke="#FFFFFF" stroke-width="0.9619" d="M42.577,121.021l2.638,9.563l-4.528,5.112
		l0.081,1.213l0.875,0.211l1.264,1.002l1.257,1.264l1.459,4.396l-0.052,0.725l-0.451,0.465l-2.182,0.295l-11.266,0.578l-0.466-9.776
		l0.27-0.818l0.231-0.034l0.329-0.256l0.215-0.353l0.791-4.333l-0.055-3.791L42.577,121.021"/>
	<path id="MS_Issaquena_1_" fill="#86B6F2" stroke="#FFFFFF" stroke-width="0.9619" d="M32.982,126.487l0.058,3.792l-0.792,4.333
		l-0.214,0.352l-0.324,0.257l-0.236,0.034l-0.27,0.817l0.465,9.779l11.267-0.58l0.269,2.399l-2.086,2.598l-3.978,7.615l-4.699,1.456
		l-0.488-8.626l-6.174,0.258l-1.482-0.466l-0.117-0.101l-0.441-0.389l-0.098-0.072l-0.055-0.109l-0.147-0.168l-0.053-0.094
		l-0.276-0.667l-3.731-16.907l-0.074-0.446l0.486-1.77l1.533-2.477l0.372-0.422L32.982,126.487"/>
	<path id="MS_Yazoo_1_" fill="#86B6F2" stroke="#FFFFFF" stroke-width="0.9619" d="M58.514,124.888l18.91,6.165l-2.956,7.582
		l-0.461,0.734l-2.661,1.911l-13.674,7.757l-1.727,0.405l-4.625,3.985l-8.112-5.764l-0.27-2.4l2.178-0.295l0.455-0.466l0.053-0.724
		l-1.46-4.396l-1.256-1.264l-1.264-1.002l-0.875-0.211l-0.081-1.213l4.527-5.112l9.602-0.599l-0.252-4.782L58.514,124.888"/>
	<path id="MS_Noxubee_1_" fill="#1666CB" stroke="#FFFFFF" stroke-width="0.9619" d="M135.881,104.132l16.806-1.407l-0.329,16.68
		l-0.06,3.486l-21.536,1.847l-1.538-20.066L135.881,104.132"/>
	<path id="MS_Kemper_1_" fill="#4389E3" stroke="#FFFFFF" stroke-width="0.9619" d="M130.76,124.737l21.535-1.847l-0.326,19.67
		l-24.476,1.967l-1.457-19.462L130.76,124.737"/>
	<path id="MS_Hinds_1_" fill="#1666CB" stroke="#FFFFFF" stroke-width="0.9619" d="M51.321,153.428l4.625-3.985l0.294,4.804
		l7.901-0.451l1.719-0.092l0.268,4.463l2.408,0.237l5.93-0.338l-3.183,4.532l-2.84,4.103l-1.693,7.877l1.204,3.437l-22.893,1.414
		l-1.024-9.805L51.321,153.428"/>
	<path id="MS_Warren_1_" fill="#E27F90" stroke="#FFFFFF" stroke-width="0.9619" d="M25.777,150.961l6.178-0.254l0.489,8.625
		l4.699-1.456l3.975-7.616l2.089-2.596l8.111,5.764l-7.281,16.197l-1.133,1.357l-2.315,2.738l-4.878,4.313l-1.285-0.178
		l-4.078-1.264l-4.747-5.541l5.422-0.674l-0.329-8.029l-5.188-5.518l-0.036-0.1l-0.2-0.313l-0.139-0.194v-0.06l-0.076-0.89
		l1.057-3.554L25.777,150.961"/>
	<path id="MS_Jefferson_1_" fill="#0645B4" stroke="#FFFFFF" stroke-width="0.9619" d="M20.686,190.693l11.057-0.134l8.169,1.53
		l0.114,0.658l0.017,0.624l0.369,0.972l4.609-0.27l0.253,4.878l0.238,4.858l-19.654,1.109l-10.551-7.117L20.686,190.693"/>
	<path id="MS_Claiborne_1_" fill="#0645B4" stroke="#FFFFFF" stroke-width="0.9619" d="M44.039,169.625l1.025,9.806l-0.043,14.642
		l-4.609,0.266l-0.369-0.969l-0.017-0.623l-0.114-0.656l-8.169-1.533l-11.057,0.135l9.661-14.102l4.078,1.264l1.285,0.177
		l4.878-4.312l2.315-2.738L44.039,169.625"/>
	<path id="MS_Copiah_1_" fill="#86B6F2" stroke="#FFFFFF" stroke-width="0.9619" d="M67.957,178.016l6.082,16.215l-5.648,2.307
		l-23.116,2.41l-0.253-4.877l0.043-14.643L67.957,178.016"/>
	<path id="MS_Jasper_1_" fill="#86B6F2" stroke="#FFFFFF" stroke-width="0.9619" d="M128.991,164.142l1.813,22.08l-1.543,0.228
		l-17.468,2.525l-1.927-23.392L128.991,164.142"/>
	<path id="MS_Jefferson_Davis_1_" fill="#86B6F2" stroke="#FFFFFF" stroke-width="0.9619" d="M80.98,193.298l10.283-1.382
		l0.582,9.172l2.799,1.619l1.271,0.613l1.707,0.219l1.686,0.995l0.86,1.354l0.289,4.443l-3.188,0.202l-8.045,0.513l0.213,2.453
		l-6.419,0.386l-0.46-7.327l-1.126-5.813L80.98,193.298"/>
	<path id="MS_Adams_1_" fill="#86B6F2" stroke="#FFFFFF" stroke-width="0.9619" d="M15.304,197.803l10.554,7.117l0.539,14.659
		l-0.227-0.219l-3.346-1.122l-1.94,0.346l-1.541,0.551l-6.373,2.629l-6.065,5.635l-0.446,0.983l-0.698,2.901l1.145-5.99
		l1.771-14.498l0.017-0.033l0.179-0.379l0.117-0.228l5.071-10.191l0.033-0.043l0.749-1.273L15.304,197.803"/>
	<path id="MS_Wilkinson_1_" fill="#4389E3" stroke="#FFFFFF" stroke-width="0.9619" d="M26.397,219.579l3.057,1.266l2.582,17.823
		l-5.52,0.269l-21.91,1.039l1.154-8.692l0.698-2.901l0.446-0.983l6.065-5.638l6.373-2.626l1.541-0.551l1.94-0.346l3.346,1.122
		L26.397,219.579"/>
	<path id="MS_Pike_1_" fill="#F2B3BE" stroke="#FFFFFF" stroke-width="0.9619" d="M55.281,217.853l13.61-0.845l1.228,19.419
		l-4.185,0.259l-9.525,0.606L55.281,217.853"/>
</g>
</svg>
