<svg xmlns:dc="http://purl.org/dc/elements/1.1/" xmlns:cc="http://creativecommons.org/ns#" xmlns:rdf="http://www.w3.org/1999/02/22-rdf-syntax-ns#" xmlns:svg="http://www.w3.org/2000/svg" xmlns:sodipodi="http://sodipodi.sourceforge.net/DTD/sodipodi-0.dtd" xmlns:inkscape="http://www.inkscape.org/namespaces/inkscape" xmlns="http://www.w3.org/2000/svg" xmlns:xlink="http://www.w3.org/1999/xlink" version="1.1" id="svg7604" sodipodi:version="0.32" inkscape:version="0.48.3.1 r9886" sodipodi:docname="Montana_Presidential_Election_Results_by_County,_2012.svg" inkscape:output_extension="org.inkscape.output.svg.inkscape" x="0px" y="0px" width="1022px" height="592px" viewBox="-97 130.1 316.4 183.2" enable-background="new -97 130.1 316.4 183.2" xml:space="preserve"><rect id="svgEditorBackground" x="-97" y="130.10000610351562" width="316.3999938964844" height="183.1999969482422" style="fill: none; stroke: none;"/>
<defs>
	
	
		<inkscape:perspective inkscape:persp3d-origin="372.04724 : 350.78739 : 1" sodipodi:type="inkscape:persp3d" inkscape:vp_x="0 : 526.18109 : 1" inkscape:vp_y="0 : 1000 : 0" inkscape:vp_z="744.09448 : 526.18109 : 1" id="perspective7612">
		</inkscape:perspective>
</defs>
<sodipodi:namedview inkscape:window-maximized="0" pagecolor="#ffffff" bordercolor="#666666" borderopacity="1.0" gridtolerance="10000" guidetolerance="10" objecttolerance="10" inkscape:zoom="1.9308942" inkscape:cx="160.05949" inkscape:cy="149.39799" showgrid="false" id="base" inkscape:document-units="px" inkscape:pageopacity="0.0" inkscape:pageshadow="2" inkscape:current-layer="layer1" inkscape:window-width="1024" inkscape:window-height="721" inkscape:window-x="132" inkscape:window-y="25">
	</sodipodi:namedview>
<g id="layer1" transform="translate(-319.59495,-504.05762)" inkscape:label="Layer 1" inkscape:groupmode="layer">
	<path id="MT_Sheridan" inkscape:label="Sheridan, MT" fill="#cc2f4a" stroke="#FFFFFF" stroke-width="0.9345" d="M522.6,647.5   l0.5,12.9l0.4,8.7l-14,0.5l-0.1-3.1l-3.2-3l-5.2,0.2l-0.1-3.1l-1.6,0l-0.7-9.2l-0.1-3.1L522.6,647.5"/>
	<path id="MT_Roosevelt" inkscape:label="Roosevelt, MT" fill="#e27f90" stroke="#FFFFFF" stroke-width="0.9345" d="M501.1,663.7   l5.2-0.2l3.2,3l0.1,3.1l14-0.5l0.6,13.9l-4.8-1l-5-2.1l-10.4-1.3l-1.3,0.7l-0.5,0.9l-0.7,0.7l-0.5,0.3l-2.9,0.4l-1.8-0.1l-1.5-0.8   l-2.1-0.1l-1.8,0.1l-4.4,0.5l-1.2,0.2l-1.2,0.9l-3.6,1.6l-0.1-7.4l0.9,0l-0.3-12.2L501.1,663.7"/>
	<path id="MT_Gallatin" inkscape:label="Gallatin, MT" fill="#82b1eb" stroke="#FFFFFF" stroke-width="0.9345" d="M351.9,747.7   l6.9,0.2l-0.2,1.8l-0.2,5.1l0,1.9l-0.1,2.6l-0.1,3.2l-0.4,7l-1.6,1.4l-1.6,0.8l0,3.1l-0.1,3.1l-3-0.1l-0.4,6.2l-0.1,2.7l0,3.6   l-0.7,12l-0.1,6.9l-2.3-1.6l-0.4-0.8l-1.5-3.1l-2.5-3.7l-1.3-1l0.2-5.7l0.7-15.7l0.6-1.1l0.3-9.3l-4.7-0.2l-2-2.1l-1.2-1.6   l-1.3-1.1l-1-0.6l-1-0.5l3.7-1.1l4.9-4l1.3-1.5l0-2.4l0.7-1.5l1.4-2.3l1-0.5l3.6-0.1L351.9,747.7"/>
	<path id="MT_Madison" inkscape:label="Madison, MT" fill="#cc2f4a" stroke="#FFFFFF" stroke-width="0.9345" d="M323.1,762.4l0.1,0   l0.5-0.1l0.7-0.7l0.6-1.4l0-0.7l0.3-0.3l0.6-0.3l1.6-0.3l2.2,0.3l3,1.6l0.1,0.2l0,0.4l1,0.5l1,0.6l1.3,1.1l1.2,1.6l2,2.1l4.7,0.2   l-0.3,9.3l-0.6,1.1l-0.7,15.7l-0.2,5.7l-2.7,1.4l-7.6-0.3l0.1-2.6l-3.1-0.1l-4.1-0.3l-2.5-1.7l-0.4-3.1l0.1-3.1l-3.6-0.2l-3-3.3   l0.4-9.3l-0.1-1.6l-0.9-1.8l-0.8-0.1l-0.7,0.2l-0.4,0.3l-0.5,0l-0.8-0.4l-1.4-1.4l-0.1-0.2l-0.2-1.8l0.6-3.3l2.3-1.2l1.1-0.7   l0.6-0.5l0.3-0.3l1.6-1.2L323.1,762.4"/>
	<path id="MT_Broadwater" inkscape:label="Broadwater, MT" fill="#d40000" stroke="#FFFFFF" stroke-width="0.9345" d="M334.4,733.6   l3.7-0.3l0.2-5.6l0.8-1.3l0.1-0.1l0.4-0.1l2.2,0.8l7.6,11.6l2,7.1l0.4,2.1l-2.4-0.1l-3.6,0.1l-1,0.5l-1.4,2.3l-0.7,1.5l0,2.4   l-1.3,1.5l-4.9,4l0.3-7.7l-3.1-0.1L334.4,733.6"/>
	<path id="MT_Jefferson" inkscape:label="Jefferson, MT" fill="#cc2f4a" stroke="#FFFFFF" stroke-width="0.9345" d="M321.2,738.3   l1,0.2l0.9-0.3l1.5-1l0-0.1l-0.1-0.6l3.9-3.2l6,0.3l-0.7,18.5l3.1,0.1l-0.3,7.7l-3.7,1.1l0-0.4l-0.1-0.2l-3-1.6l-2.2-0.3l-1.6,0.3   l-0.6,0.3l-0.3,0.3l0,0.7l-0.6,1.4l-0.7,0.7l-0.5,0.1l-0.1,0l-4.6-3l-0.9-1.5l-0.7-7.4l-0.1-0.7l-1.7-3l-0.9-0.2l0.6-3.1l-0.1-0.9   l0-0.5l0.8-0.9l3.7-1.7L321.2,738.3"/>
	<path id="MT_Silver_Bow" inkscape:label="Silver Bow, MT" fill="#82b1eb" stroke="#FFFFFF" stroke-width="0.9345" d="M314.1,746.6   l0.9,0.2l1.7,3l0.1,0.7l0.7,7.4l0.9,1.5l4.6,3l-6.8-0.1l-1.6,1.2l-0.3,0.3l-0.6,0.5l-1.1,0.7l-2.3,1.2l-1.5-3.4l-1.1-1.6l-1-0.7   l-4.2-1.6l-1.8-1.7l1.6-0.4l1-0.7l1.3-1.1l0.3-0.3l2-4l2-3l3-0.4L314.1,746.6"/>
	<path id="MT_Deer_Lodge" inkscape:label="Deer Lodge, MT" fill="#82b1eb" stroke="#FFFFFF" stroke-width="0.9345" d="M314.8,743.5   l-0.6,3.1l-2.1,0.9l-3,0.4l-2,3l-2,4l-0.3,0.3l-1.3,1.1l-1,0.7l-1.6,0.4l0-0.4l-0.3-0.3l-0.2-0.1l-1.8-0.2l-0.9,0.3l-3.3,2.1   l-0.4,0.6l-1.9-0.8l-0.4-1.9l-1-2.6l-0.2-0.2l-0.1,0l-0.3,0.1l0,0l2-1.4l2-0.8l2.2-4.5l0.2-3.1l6.2,0.3l0.1-1.5L314.8,743.5"/>
	<path id="MT_Beaverhead" inkscape:label="Beaverhead, MT" fill="#cc2f4a" stroke="#FFFFFF" stroke-width="0.9345" d="M290.3,753.9   l0.3-0.1l0.1,0l0.2,0.2l1,2.6l0.4,1.9l1.9,0.8l0.4-0.6l3.3-2.1l0.9-0.3l1.8,0.2l0.2,0.1l0.3,0.3l0,0.4l1.8,1.7l4.2,1.6l1,0.7   l1.1,1.6l1.5,3.4l-0.6,3.3l0.2,1.8l0.1,0.2l1.4,1.4l0.8,0.4l0.5,0l0.4-0.3l0.7-0.2l0.8,0.1l0.9,1.8l0.1,1.6l-0.4,9.3l3,3.3l3.6,0.2   l-0.1,3.1l0.4,3.1l2.5,1.7l4.1,0.3l3.1,0.1l-0.1,2.6l7.6,0.3l-3.7,5.5l-3.2,0.3l-5.2-0.8l-7,0.2l-3.6,1.9l-9.2-1.1l-1.6,0.6   l-0.9,1.2l-0.3,0.6l-0.1,1.4l0,0.1l-0.2,0.4l-0.5,0.3l-0.7-0.2l-2.3-2l-0.8-0.9l-0.5-1.6l-0.5-4.4l0.1-0.1l0.1-0.3l0-0.3l-1.1-3   l-0.8-1.6l-0.6-0.7l-1.2-1l-1-0.6l-0.8,0.3l-4.8-5.2l-5.7-14l-0.4-2.8l-0.2-2.1l0.3-0.6l-0.1-1.1l-0.6-2.8l-0.2-0.4l-2.8-3.1   l-0.6-0.5l0.5,0l0.8-0.2l7.4-4.5l1.4-1l0.8-0.7L290.3,753.9"/>
	<path id="MT_Ravalli" inkscape:label="Ravalli, MT" fill="#cc2f4a" stroke="#FFFFFF" stroke-width="0.9345" d="M284.1,727.6   l-0.8,4.7l1.1,5.7l0.5,3.5l-0.9,3.4l0.7,4.7l2.2,3.1l1.7,1.1l1.5,0l0,0l-0.6,1.6l-0.8,0.7l-1.4,1l-7.4,4.5l-0.8,0.2l-0.5,0l-2,1.5   l-2.7,3.1l-4.6,2.8l-1,0l0,0l-0.3-0.8l-2.2-2.7l-0.3-0.1l-1-0.1l-1.1,0l-0.1-0.1l0-0.1l0.1-2.5l0.3-4.9l4.8-18.2l1.6-5.1l1-3.5   l0.6-2.5l0.1-0.8l-0.1-0.4l-0.2-0.1L284.1,727.6"/>
	<path id="MT_Granite" inkscape:label="Granite, MT" fill="#cc2f4a" stroke="#FFFFFF" stroke-width="0.9345" d="M297.4,722.3   l3.6,3.8l0.8,0.7l1.3-0.5l0.4-0.2l0.3,0l-0.5,9.1l-0.4,7.6l-0.1,1.5l-6.2-0.3l-0.2,3.1l-2.2,4.5l-2,0.8l-2,1.4l-1.5,0l-1.7-1.1   l-2.2-3.1l-0.7-4.7l0.9-3.4l-0.5-3.5l-1.1-5.7l0.8-4.7l0.8,0.1l3.1,0.2l4.8-3l0.1-1.9l1.6-0.9L297.4,722.3"/>
	<path id="MT_Lewis_and_Clark" inkscape:label="Lewis and Clark, MT" fill="#e27f90" stroke="#FFFFFF" stroke-width="0.9345" d="   M307.5,682.9l1.2,6.7l0.1,2.6l0.1,0.3l1,1.7l0.9,1.1l0.9,0.4l0.2,0l2.8-0.7l2.7-0.9l0.1,0l3,1.9l0.3,0.7l-0.1,0.2l0.1,0.8l0,0.1   l2.9,1.6l1.7,0.4l2.5,0l1.5-0.3l-0.5,11.5l2.5,1.9l1,0.7l0.5,0l0.1-0.1l2,0.1l-0.3,7.7l3.3,0.1l3.7,5.5l-2.2-0.8l-0.4,0.1l-0.1,0.1   l-0.8,1.3l-0.2,5.6l-3.7,0.3l-6-0.3l-3.9,3.2l0.1,0.6l0,0.1l-1.5,1l-0.9,0.3l-1-0.2l0.2-1l0.4-5.2l-0.6-2.2l-2-1.7l-3.1-0.1   l0.2-4.8l-3.3-0.1l-0.3,0.1l-2.9-0.2l0.6-11.8l0-0.5l-6.2-0.3l-0.2-0.1l0.6-10.9l-0.4,0.1l-1-2.7l-0.4-1.4l-0.3-4.4l0-0.3l2.8-5.4   l1.1-1.5L307.5,682.9"/>
	<path id="MT_Powell" inkscape:label="Powell, MT" fill="#d40000" stroke="#FFFFFF" stroke-width="0.9345" d="M295,694.8l7.8,0.6   l0.4,1.4l1,2.7l0.4-0.1l-0.6,10.9l0.2,0.1l6.2,0.3l0,0.5l-0.6,11.8l2.9,0.2l0.3-0.1l3.3,0.1l-0.2,4.8l3.1,0.1l2,1.7l0.6,2.2   l-0.4,5.2l-0.2,1l-2,1.3l-3.7,1.7l-0.8,0.9l0,0.5l0.1,0.9l-11.9-0.7l0.4-7.6l0.5-9.1l-0.3,0l-0.4,0.2l-1.3,0.5l-0.8-0.7l-3.6-3.8   l0.7-12.4l-4-0.2L295,694.8"/>
	<path id="MT_Lake" inkscape:label="Lake, MT" fill="#e27f90" stroke="#FFFFFF" stroke-width="0.9345" d="M291,694.6l-7.7-0.5   l2.3,11.8l0.1,0.2l-0.2,3.1l-2.8,1.4l-6.2-0.4l0.1-1.6l0-6.2l-2.1-0.1l-0.6-0.2l-0.2-0.2l-0.6-0.9l0.4-1.8l0.5-1l0.1-0.1l0.2,0.1   l0.5-0.9l-0.4-3.6l-0.2-0.2l-0.6-0.2l-1.5-0.1l-4.1-0.3l-0.2-5.2l0.1-1.5l3.1,0.2l0.2-3l-0.2-1.1l0-2l11,0.7l0-1l-0.1-0.3l-0.1-0.1   l-0.2,0l-0.1-0.8l0.4-0.5l0.6-0.5l3.4,0.3l4.9,5.9l0.1,0.2l1.2,6.1l0.1,0.9l0,0.6L291,694.6"/>
	<path id="MT_Missoula" inkscape:label="Missoula, MT" fill="#82b1eb" stroke="#FFFFFF" stroke-width="0.9345" d="M291,694.6   l4.1,0.2l-0.9,15l4,0.2l-0.7,12.4l-2.8-0.2l-1.6,0.9l-0.1,1.9l-4.8,3l-3.1-0.2l-0.8-0.1l-12.8-0.2l-0.1-0.1l-0.5-0.3l-1.3,0   l-0.6,0.2l-0.4,0.2l-0.5,0.2l-2.7-0.2l-0.1,0l-1.8-3.2l0.1-1l3-3.6l2-5.4l-1.4-2.2l-5.2-6.6l0.1-1l2.7,0l1.4,0.4l1.9,0.8l3.1,1.7   l0.9,0.7l0.6,1.2l1.4,1.1l0.4,0.2l0.5,0.1l1.7-0.5l6.2,0.4l2.8-1.4l0.2-3.1l-0.1-0.2l-2.3-11.8L291,694.6"/>
	<path id="MT_Mineral" inkscape:label="Mineral, MT" fill="#cc2f4a" stroke="#FFFFFF" stroke-width="0.9345" d="M239.6,693.3l1,1.4   l0.6,0.6l1.2,0.3l1,0.2l3.3,0.2l0.8-0.3h0.2l2.7,0.2l0.8,0.3l5.2,2.8l1.2,0.8l0.2,0.8l-0.2,2.2l3,1.8l1.1,0.1l-0.1,1l5.2,6.6   l1.4,2.2l-2,5.4l-3,3.6l-0.1,1l-1.1,0.1l-0.2,0l-0.4-0.1l-4.2-4.3l-0.1-0.3l0,0l-0.9-3.5l-0.8-1.1l-1.4-2l-2.6-4.5l-2.8-4.6   l-0.4-0.2l-2-0.5l-1.4-0.5l-0.5-0.3l-0.6-0.4l-4.5-4.8l-0.1-0.9l0,0L239.6,693.3"/>
	<path id="MT_Sanders" inkscape:label="Sanders, MT" fill="#d40000" stroke="#FFFFFF" stroke-width="0.9345" d="M234.1,668.4   l2.7,1.4l1.3-0.6l2.6-1.5l2.4,3.7l2.3,7.1l1.5,1.6l0.3,0.2l4.5,1.2l2.4-0.8l1-1.5l0-1.9l3.5,0.3l0.5,0.6l-0.4,4.6l3.1,0.2l2.1,0.1   l4.1,0.3l-0.2,3l-0.1,1.5l0.2,5.2l4.1,0.3l1.5,0.1l0.6,0.2l0.2,0.2l0.4,3.6l-0.5,0.9l-0.2-0.1l-0.1,0.1l-0.5,1l-0.4,1.8l0.6,0.9   l0.2,0.2l0.6,0.2l2.1,0.1l0,6.2l-0.1,1.6l-1.7,0.5l-0.5-0.1l-0.4-0.2l-1.4-1.1l-0.6-1.2l-0.9-0.7l-3.1-1.7l-1.9-0.8l-1.4-0.4   l-2.7,0l-1.1-0.1l-3-1.8l0.2-2.2l-0.2-0.8l-1.2-0.8l-5.2-2.8l-0.8-0.3l-2.7-0.2h-0.2l-0.8,0.3l-3.3-0.2l-1-0.2l-1.2-0.3l-0.6-0.6   l-1-1.4l0.5-1.6l0.6-2.1l-0.2-2l0-0.1l0,0l0-0.1l-0.1-0.1l-6-9.1l-0.9-1.2L234.1,668.4"/>
	<path id="MT_Lincoln" inkscape:label="Lincoln, MT" fill="#d40000" stroke="#FFFFFF" stroke-width="0.9345" d="M235,658.3l1.5-17.6   l19,1.6l10.5,0.8l1.9,0.1l0.6,4.9l1.5,4l0,0.1l-0.9,3.2l-6-0.4l0.2,2l0.5,1.1l-0.9,12.3l-3.6-0.3l-0.6,0l-0.3,3.1l-0.1,4.3   l-3.5-0.3l0,1.9l-1,1.5l-2.4,0.8l-4.5-1.2l-0.3-0.2l-1.5-1.6l-2.3-7.1l-2.4-3.7l-2.6,1.5l-1.3,0.6l-2.7-1.4L235,658.3"/>
	<path id="MT_Flathead" inkscape:label="Flathead, MT" fill="#cc2f4a" stroke="#FFFFFF" stroke-width="0.9345" d="M283.7,644.3   l1.2,6l1.1,0.6l5.5,3l5.6,7.3l-0.1,0.6l-0.1,0.4l-0.3,2.1l2.1,4.3l0.7,1.2l2.5,3.4l0,1.5l0.1,0.2l2.4,1.2l0.2,0.1l0.2,0l2.2,0.4   l0.2-0.1l0.4,6.4l-0.9,0.8l-1.1,1.5l-2.8,5.4l0,0.3l0.3,4.4l-7.8-0.6l-4.1-0.2l1-2.8l0-0.6l-0.1-0.9l-1.2-6.1l-0.1-0.2l-4.9-5.9   l-3.4-0.3l-0.6,0.5l-0.4,0.5l0.1,0.8l0.2,0l0.1,0.1l0.1,0.3l0,1l-11-0.7l0,2l0.2,1.1l-0.2,3l-3.1-0.2l0.2-3l-4.1-0.3l-2.1-0.1   l-3.1-0.2l0.4-4.6l-0.5-0.6l0.1-4.3l0.3-3.1l0.6,0l3.6,0.3l0.9-12.3l-0.5-1.1l-0.2-2l6,0.4l0.9-3.2l0-0.1l-1.5-4l-0.6-4.9   L283.7,644.3"/>
	<path id="MT_Glacier" inkscape:label="Glacier, MT" fill="#4389e3" stroke="#FFFFFF" stroke-width="0.9345" d="M327.7,665.3   l-0.7-0.2l-0.9-0.1l-7.8-0.4l-0.3,6l-0.1,0.1l-18.5-1l-0.7-1.2l-2.1-4.3l0.3-2.1l0.1-0.4l0.1-0.6l-5.6-7.3l-5.5-3l-1.1-0.6l-1.2-6   l2.3,0.2l6.6,0.5l13.7,0.8l2.5,0.1l19.5,1L327.7,665.3"/>
	<path id="MT_Liberty" inkscape:label="Liberty, MT" fill="#d40000" stroke="#FFFFFF" stroke-width="0.9345" d="M350.3,647.8   l12.6,0.4l-0.3,3l-0.4,12.3l-0.3,5.1l-0.2,7.2l-1.7-0.1l-0.1,3.1l-14.1-0.5l0.1-3.1l3.2,0.1l0.4-12.3l0.6-12.3L350.3,647.8"/>
	<path id="MT_Toole" inkscape:label="Toole, MT" fill="#d40000" stroke="#FFFFFF" stroke-width="0.9345" d="M327.7,665.3l0.6-18.4   l8.1,0.4l2.2,0.1l6,0.2l5.7,0.2l-0.1,3l-0.6,12.3l-0.4,12.3l-3.2-0.1l-6.2-0.2l0.2-4.6l-3.1-1.1l-2.3-0.6l-2.3-0.2l-4.3-2.8   L327.7,665.3"/>
	<path id="MT_Pondera" inkscape:label="Pondera, MT" fill="#cc2f4a" stroke="#FFFFFF" stroke-width="0.9345" d="M299.4,669.8l18.5,1   l0.1-0.1l0.3-6l7.8,0.4l0.9,0.1l0.7,0.2l0.2,0.4l4.3,2.8l2.3,0.2l2.3,0.6l3.1,1.1l-0.2,4.6l6.2,0.2l-0.1,3.1l-0.2,5.1l-13.9-0.5   l0.1-1.5l-4.5-3.9l-20.3-1.1l-0.2,0.1l-2.2-0.4l-0.2,0l-0.2-0.1l-2.4-1.2l-0.1-0.2l0-1.5L299.4,669.8"/>
	<path id="MT_Teton" inkscape:label="Teton, MT" fill="#cc2f4a" stroke="#FFFFFF" stroke-width="0.9345" d="M307,676.5l20.3,1.1   l4.5,3.9l-0.1,1.5l13.9,0.5l-0.4,10.3l-6.3-0.2l-0.1,3.1l-6.2-0.3l-0.6,3.7l-2.5-0.5l-1.5,0.3l-2.5,0l-1.7-0.4l-2.9-1.6l0-0.1   l-0.1-0.8l0.1-0.2l-0.3-0.7l-3-1.9l-0.1,0l-2.7,0.9l-2.8,0.7l-0.2,0l-0.9-0.4l-0.9-1.1l-1-1.7l-0.1-0.3l-0.1-2.6l-1.2-6.7   L307,676.5"/>
	<path id="MT_Cascade" inkscape:label="Cascade, MT" fill="#e27f90" stroke="#FFFFFF" stroke-width="0.9345" d="M329.5,699.6   l2.5,0.5l0.6-3.7l6.2,0.3l0.1-3.1l6.3,0.2l10.5,0.3l-0.7,1.1l-0.4,0.6l-0.7,1.4l-0.1,0.4l0.1,0.3l6.5,5.4l3.1,1.1l0,2l-3.1-0.1   l-0.6,1.8l-0.1,2.1l0.2,5.5l3.1,0.1l0,6.1l-0.1,3.1l-0.4,0.5l-2.6-2.2l-3.6-3.6l-0.3-0.2l-3.7-2.3l-11.4,1.2l-0.1,3.1l-2.9-0.1   l-3.3-0.1l0.3-7.7l-2-0.1l-0.1,0.1l-0.5,0l-1-0.7l-2.5-1.9L329.5,699.6"/>
	<path id="MT_Meagher" inkscape:label="Meagher, MT" fill="#d40000" stroke="#FFFFFF" stroke-width="0.9345" d="M338.1,721.4   l2.9,0.1l0.1-3.1l11.4-1.2l3.7,2.3l0.3,0.2l3.6,3.6l2.6,2.2l0.1,0.8l0.1,0.4l0.3,0.4l0.3,0.3l4.1,3.3l2.2-0.2l2.2-0.7l-0.2,6.8   l-0.3,5.5l-0.1,5.1l0,1.3l-12.5-0.6l-6.9-0.2l-0.4-2.1l-2-7.1l-7.6-11.6L338.1,721.4"/>
	<path id="MT_Park" inkscape:label="Park, MT" fill="#e27f90" stroke="#FFFFFF" stroke-width="0.9345" d="M358.8,747.9l12.5,0.6   l-0.3,1.8l-0.3,12.5l1.8,0l-0.1,6.5l-0.2,8.1l-0.3,0.9l-0.1,6.3l4.2,0.1l6.7,0.3l-0.1,5.9l-5.8-0.2l-2.1-0.1l-2.8,0.2l-8.4-0.1   l-0.1,0l-3.8-0.1l-1.1-0.2l-3.2-0.2l-4.3-0.1l0-3.6l0.1-2.7l0.4-6.2l3,0.1l0.1-3.1l0-3.1l1.6-0.8l1.6-1.4l0.4-7l0.1-3.2l0.1-2.6   l0-1.9l0.2-5.1L358.8,747.9"/>
	<path id="MT_Hill" inkscape:label="Hill, MT" fill="#e27f90" stroke="#FFFFFF" stroke-width="0.9345" d="M362.9,648.2l29.9,0.7   l-0.3,4.7l-0.2,3.2l-0.1,7.4l-0.5,9.7l-0.5,5.6l-1.5,0.1l-3.1,0l0.1-3.2l-2.8-3.1l-18.8-0.5l-0.1,3.1l-3.1-0.1l0.2-7.2l0.3-5.1   l0.4-12.3L362.9,648.2"/>
	<path id="MT_Chouteau" inkscape:label="Chouteau, MT" fill="#cc2f4a" stroke="#FFFFFF" stroke-width="0.9345" d="M361.8,675.8   l3.1,0.1l0.1-3.1l18.8,0.5l2.8,3.1l-0.1,3.2l3.1,0l1.5-0.1l-0.4,14.1l-1-0.3l-2.4,0.4l-2.7,0.9l-1.2,1.3l0.1,0.8l-0.4,3.6l-0.1,0.2   l-0.6,0.6l-7.2,3.7l-1.2,0l-10.4-0.3l-3.1-1.1l-6.5-5.4l-0.1-0.3l0.1-0.4l0.7-1.4l0.4-0.6l0.7-1.1l-10.5-0.3l0.4-10.3l0.2-5.1   l14.1,0.5l0.1-3.1L361.8,675.8"/>
	<path id="MT_Judith_Basin" inkscape:label="Judith Basin, MT" fill="#d40000" stroke="#FFFFFF" stroke-width="0.9345" d="   M363.7,704.4l10.4,0.3l-0.1,2l2.1,2l3.1,2.2l3.1,0.6l2.8,1.6l-0.2,10.3l0.1,7.2l-1.8,0l-1.2-0.6l-1.7-1l-0.3-0.3l-0.6-0.3l-2.1,0.1   l-1.2,0.2l-4.2,1.1l-2.2,0.7l-2.2,0.2l-4.1-3.3l-0.3-0.3l-0.3-0.4l-0.1-0.4l-0.1-0.8l0.4-0.5l0.1-3.1l0-6.1l-3.1-0.1l-0.2-5.5   l0.1-2.1l0.6-1.8l3.1,0.1L363.7,704.4"/>
	<path id="MT_Wheatland" inkscape:label="Wheatland, MT" fill="#d40000" stroke="#FFFFFF" stroke-width="0.9345" d="M385,730.7   l8.8,0.2l-0.1,4.8l-0.6,12.2l-6.3-0.1l-15.6-0.4l0.1-5.1l0.3-5.5l0.2-6.8l4.2-1.1l1.2-0.2l2.1-0.1l0.6,0.3l0.3,0.3l1.7,1l1.2,0.6   L385,730.7"/>
	<path id="MT_Sweet_Grass" inkscape:label="Sweet Grass, MT" fill="#d40000" stroke="#FFFFFF" stroke-width="0.9345" d="   M371.3,747.3l15.6,0.4l-0.1,3.1l1.2,3.1l4.7,0.1l-0.2,2l-1.3,1l-1.9,3.1l-0.4,3.1l-0.1,6.2l-3.1-0.1l-3.1,1.5l-3.1,1.5l-0.1,6.2   l-3.3-0.1l-0.2,6.3l-4.2-0.1l0.1-6.3l0.3-0.9l0.2-8.1l0.1-6.5l-1.8,0l0.3-12.5l0.3-1.8L371.3,747.3"/>
	<path id="MT_Carbon" inkscape:label="Carbon, MT" fill="#cc2f4a" stroke="#FFFFFF" stroke-width="0.9345" d="M406.9,769.8l1.1-0.8   l0.4-0.1l0,0.9l-0.2,0.5l-0.2,0.3l-0.1,0l1,2.3l1.5,2.1l1.3,0l-0.9,1.1l-0.5,3l0,4.7l14.5,0l-0.2,0.5l-3,7.4l-9.4-0.1l-7.8-0.1   l-3.3,0l-0.5,0l-4.7-0.3l-13.4-0.1l0.1-5.9l2.7,0.1l0.7-3.4l2.1-2.6l1.7-2l1.1-1l3.1-1.5l4.1,0.1l1.6-2.1l0-1.2l0.7-1l3.1-1.1   l0.3,0l0.8,0.4l0.6,0.1l0.5,0L406.9,769.8"/>
	<path id="MT_Stillwater" inkscape:label="Stillwater, MT" fill="#d40000" stroke="#FFFFFF" stroke-width="0.9345" d="M405.1,751.1   l-0.1,3l0,3.2l0.3,9.9l0.5,1l1,1.5l-1.2,0.3l-0.5,0l-0.6-0.1l-0.8-0.4l-0.3,0l-3.1,1.1l-0.7,1l0,1.2l-1.6,2.1l-4.1-0.1l-3.1,1.5   l-1.1,1l-1.7,2l-2.1,2.6l-0.7,3.4l-2.7-0.1l-6.7-0.3l0.2-6.3l3.3,0.1l0.1-6.2l3.1-1.5l3.1-1.5l3.1,0.1l0.1-6.2l0.4-3.1l1.9-3.1   l1.3-1l0.2-2l0.1-3.1L405.1,751.1"/>
	<path id="MT_Golden_Valley" inkscape:label="Golden Valley, MT" fill="#d40000" stroke="#FFFFFF" stroke-width="0.9345" d="   M403.3,729l0,4.6l0.5,1.6l2,3.2l3,7.6l-0.1,5.2l-3.6,0l-12.3-0.2l-0.1,3.1l-4.7-0.1l-1.2-3.1l0.1-3.1l6.3,0.1l0.6-12.2l0.1-4.8l0-2   L403.3,729"/>
	<path id="MT_Fergus" inkscape:label="Fergus, MT" fill="#d40000" stroke="#FFFFFF" stroke-width="0.9345" d="M390.8,693.6l2.8,0.7   l2.7-1.3l0.6-0.5l7.2-1l0.4,0l1,0.5l1.1,2l1.2,0.6l0.6,0.4l0.8,0.9l0.1,0.2l-0.1,0.2l0.7,0.9l2,0.9l7.8,2l0.3,0l0.4-0.2l0.3-0.5   l-0.1,6.3l0,3.3l-0.5,0.3l-6.2,0l-3.2,1.3l-0.5,3.1l0,3.1l3.1,0l-0.1,9.3l-0.5,3.1l-9.4-0.1l-9.4-0.2l0,2l-8.8-0.2l-0.1-7.2   l0.2-10.3l-2.8-1.6l-3.1-0.6l-3.1-2.2l-2.1-2l0.1-2l1.2,0l7.2-3.7l0.6-0.6l0.1-0.2l0.4-3.6l-0.1-0.8l1.2-1.3l2.7-0.9l2.4-0.4   L390.8,693.6"/>
	<path id="MT_Blaine" inkscape:label="Blaine, MT" fill="#e27f90" stroke="#FFFFFF" stroke-width="0.9345" d="M391.2,679.5l0.5-5.6   l0.5-9.7l0.1-7.4l0.2-3.2l0.3-4.7l2.5,0l7.7,0.1l1.4,0l0.1,0l10.8,0.1l1.3,0l6,0l0,1l-0.1,2l-0.5,6.1l-2.5,10.7l-0.2-0.1l-0.9-0.1   l-0.1,0.5l-0.6,7.4l-0.1,8.6l-5.4,1.9l-0.3-0.1l-5.3,0l-0.1,1.8l-0.1,4.8l-1.1-2l-1-0.5l-0.4,0l-7.2,1l-0.6,0.5l-2.7,1.3l-2.8-0.7   L391.2,679.5"/>
	<path id="MT_Phillips" inkscape:label="Phillips, MT" fill="#d40000" stroke="#FFFFFF" stroke-width="0.9345" d="M406.6,694   l0.1-4.8l0.1-1.8l5.3,0l0.3,0.1l5.4-1.9l0.1-8.6l0.6-7.4l0.1-0.5l0.9,0.1l0.2,0.1l2.5-10.7l0.5-6.1l0.1-2l0-1l25.2,0l-0.6,3.1   l0.1,10.9l-1.2,10.7l-2.6,0l-0.8,3.6l-0.2,11.9l0,6.4l-0.1,1.2l-0.4,1l-0.1,0.2l-0.2,0.1l-1.2,0l-2.2-0.8l-0.3-0.1l-1,0l-1.4,0.9   l-0.9,1.7l-0.7,1.1l-2.4,3.2l-1,0.3l-0.2,0v-1.3l-0.5-2.3l-0.2-0.6l-1-0.6l-0.2-0.1l-3.1-0.1l-0.8,0.2l-1,0.1l-2.3,0.1l-0.6,0   l-0.2-0.1l-0.3,0.5l-0.4,0.2l-0.3,0l-7.8-2l-2-0.9l-0.7-0.9l0.1-0.2l-0.1-0.2l-0.8-0.9l-0.6-0.4L406.6,694"/>
	<path id="MT_Petroleum" inkscape:label="Petroleum, MT" fill="#aa0000" stroke="#FFFFFF" stroke-width="0.9345" d="M420.6,699.5   l0.2,0.1l0.6,0l2.3-0.1l1-0.1l0.8-0.2l3.1,0.1l0.2,0.1l1,0.6l0.2,0.6l0.5,2.3v1.3l-1.3,3.4l-0.1,3.6l0.6,13.2l0,0.2l0.1,0.1   l0.9,0.7l0.1,0.1l1.6,3.4l-10.9,0l-2.7,0.1l-6.2,0l0.5-3.1l0.1-9.3l-3.1,0l0-3.1l0.5-3.1l3.2-1.3l6.2,0l0.5-0.3l0-3.3L420.6,699.5"/>
	<path id="MT_Musselshell" inkscape:label="Musselshell, MT" fill="#aa0000" stroke="#FFFFFF" stroke-width="0.9345" d="M403.3,729   l9.4,0.1l6.2,0l2.7-0.1l10.9,0l1.1,9.3l0,3.6l-3.6,0l-2.1,2.1l-0.4,1l0,1.6l-7.2,0l-2.1,1l0,3.7l-9.3-0.1l0.1-5.2l-3-7.6l-2-3.2   l-0.5-1.6L403.3,729"/>
	<path id="MT_Yellowstone" inkscape:label="Yellowstone, MT" fill="#e27f90" stroke="#FFFFFF" stroke-width="0.9345" d="   M433.6,738.3l1.1,0.5l0.5,0.5l2.6,4.1l3.1,6.2l-0.2,3.2l-0.4,1.6l-4.1,0l-3.1,2.1l-1.1,1l0,1l-1,1l-4.2,0.1l-0.5,4.1l-0.1,9.5   l-6.2,2l-3.2,0l-5-0.2l-1.3,0l-1.5-2.1l-1-2.3l0.1,0l0.2-0.3l0.2-0.5l0-0.9l-0.4,0.1l-1.1,0.8l-1-1.5l-0.5-1l-0.3-9.9l0-3.2l0.1-3   l3.6,0l9.3,0.1l0-3.7l2.1-1l7.2,0l0-1.6l0.4-1l2.1-2.1l3.6,0L433.6,738.3"/>
	<path id="MT_Big_Horn" inkscape:label="Big Horn, MT" fill="#82b1eb" stroke="#FFFFFF" stroke-width="0.9345" d="M454.7,760.5   l0,1.4l0.7,5.3l1.7,0.2l2.4,0l0.5,0.1l0.1,11.5l-0.6,2l-0.3,4.1l6.2,0.1l3.1-0.1l3-0.1l0.5,6.7l-15.9,0.1l-4.9,0l-1.4-0.1l-12,0   h-7.7l-8.6,0l3-7.4l0.2-0.5l-14.5,0l0-4.7l0.5-3l0.9-1.1l5,0.2l3.2,0l6.2-2l0.1-9.5l0.5-4.1l4.2-0.1l1-1l0-1l1.1-1l3.1-2.1l4.1,0   l2.2,0l0,3.1l6.2,0l1.4,1.5l1.8,1.5L454.7,760.5"/>
	<path id="MT_Treasure" inkscape:label="Treasure, MT" fill="#d40000" stroke="#FFFFFF" stroke-width="0.9345" d="M434.7,738.8   l14-0.1l3.7,3.1l2.3,9.2l0.1,9.5l-2.8,0l-1.8-1.5l-1.4-1.5l-6.2,0l0-3.1l-2.2,0l0.4-1.6l0.2-3.2l-3.1-6.2l-2.6-4.1L434.7,738.8"/>
	<path id="MT_Rosebud" inkscape:label="Rosebud, MT" fill="#cc2f4a" stroke="#FFFFFF" stroke-width="0.9345" d="M430.9,725.6l10.5,0   l0.5-0.2l0.9-0.1l0.8,0l16.2-0.1l0.9,0.3l1.8,0.1l12.9-0.2l-0.8,0.5l-0.1,8.3l-0.5,4.1l0.1,8.3l0.1,0.9l-0.3,2.1l-0.6,1l0.2,12.5   l-1.1,0l0.1,5.8l-0.3,6.5l-0.7,3.3l0.1,6.1l-3,0.1l-3.1,0.1l-6.2-0.1l0.3-4.1l0.6-2l-0.1-11.5l-0.5-0.1l-2.4,0l-1.7-0.2l-0.7-5.3   l0-1.4l-0.1-9.5l-2.3-9.2l-3.7-3.1l-14,0.1l-1.1-0.5l-1.1-9.3L430.9,725.6"/>
	<path id="MT_Garfield" inkscape:label="Garfield, MT" fill="#800000" stroke="#FFFFFF" stroke-width="0.9345" d="M466.6,686l1.5,0   l2.4,3.1l0.2,12.1l-0.6,2.1l-0.3,4.2l3.1-0.1l0.1,6.2l2.1,0l0.2,11.4l0,0.5l-12.9,0.2l-1.8-0.1l-0.9-0.3l-16.2,0.1l-0.8,0l-0.9,0.1   l-0.5,0.2l-10.5,0l-0.1-0.1l-0.9-0.7l-0.1-0.1l0-0.2l-0.6-13.2l0.1-3.6l1.3-3.4l0.2,0l1-0.3l2.4-3.2l0.7-1.1l0.9-1.7l1.4-0.9l1,0   l0.3,0.1l2.2,0.8l1.2,0l0.2-0.1l0.1-0.2l0.4-1l0.1-1.2l4.1,1.1l5.3,0l0.4-0.1l2.3-0.4l0.6-0.1l0.4-0.2l5.7-4.1l3.4-6l1.2-0.4   L466.6,686"/>
	<path id="MT_Daniels" inkscape:label="Daniels, MT" fill="#d40000" stroke="#FFFFFF" stroke-width="0.9345" d="M473.4,648.9   l25.2-0.6l0.1,3.1l0.7,9.2l1.6,0l0.1,3.1l-20,0.5l-4,0.1l-1.3-2l-0.2-7.2l-3.1,0.1l0-3.1l0.6-1.1L473.4,648.9"/>
	<path id="MT_Valley" inkscape:label="Valley, MT" fill="#cc2f4a" stroke="#FFFFFF" stroke-width="0.9345" d="M473.4,648.9l-0.3,2.1   l-0.6,1.1l0,3.1l3.1-0.1l0.2,7.2l1.3,2l4-0.1l0.3,12.2l-0.9,0l0.1,7.4l-1.8,0.3l-7.5-0.7l-0.4-0.1l-0.7-0.6l-3-0.6l-0.2,0.1   l-0.1,0.2l-0.3,0.5l-0.2,0.9l0.3,2.1l-0.8-0.5l-1.2,0.4l-3.4,6l-5.7,4.1l-0.4,0.2l-0.6,0.1l-2.3,0.4l-0.4,0.1l-5.3,0l-4.1-1.1   l0-6.4l0.2-11.9l0.8-3.6l2.6,0l1.2-10.7l-0.1-10.9l0.6-3.1L473.4,648.9"/>
	<path id="MT_McCone" inkscape:label="McCone, MT" fill="#aa0000" stroke="#FFFFFF" stroke-width="0.9345" d="M496.2,681.5l0.1,2.3   l0.1,4.2l-0.9,0.5l0.1,2.8l-3.1,0.1l-0.2,6.2l-0.6,3.1l0.3,12.4l-10.5,0.3l0.1,3.1l-1.1,0l-2.1,0l-0.1-3.1l-3.1,0.1l-2.1,0   l-0.1-6.2l-3.1,0.1l0.3-4.2l0.6-2.1l-0.2-12.1l-2.4-3.1l-1.5,0l-0.3-2.1l0.2-0.9l0.3-0.5l0.1-0.2l0.2-0.1l3,0.6l0.7,0.6l0.4,0.1   l7.5,0.7l1.8-0.3l3.6-1.6l1.2-0.9l1.2-0.2l4.4-0.5l1.8-0.1l2.1,0.1L496.2,681.5"/>
	<path id="MT_Prairie" inkscape:label="Prairie, MT" fill="#aa0000" stroke="#FFFFFF" stroke-width="0.9345" d="M475.2,713.5   l3.1-0.1l0.1,3.1l2.1,0l1.1,0l-0.1-3.1l10.5-0.3l2,0l0.2,7.3l3.2-0.1l3.2,2l0.5,0.5l0.5,0.7l0,0.8l10.5-0.3l0.1,6.3l0,1l-3.1,0.1   l0.1,1.5l-3.1,0.1l-0.5,1.6l-2.6,1.1l-6.3,0.2l-5.2-0.9l-1-1l-1.5-2l-0.8-3.1l-1.1-3.1l-5.3-0.9l-6.3,0.1L475.2,713.5"/>
	
		<path id="MT_Powder_River" inkscape:label="Powder River, MT" inkscape:connector-curvature="0" fill="#aa0000" stroke="#FFFFFF" stroke-width="0.9345" d="   M473.4,763.2l30.3-0.6l0.4,12.3l0,3.2l-1.3,0l0.4,12.6l-1.3,0l-19.2,0.5l-1.8,0.1l-2.7,0.2l-6.1,0.1l-0.5-6.7l-0.1-6.1l0.7-3.3   l0.3-6.5l-0.1-5.8L473.4,763.2"/>
	<path id="MT_Custer" inkscape:label="Custer, MT" fill="#d40000" stroke="#FFFFFF" stroke-width="0.9345" d="M475.4,724.9l6.3-0.1   l5.3,0.9l1.1,3.1l0.8,3.1l1.5,2l1,1l5.2,0.9l6.3-0.2l2.6-1.1l0.5-1.6l3.1-0.1l0.1,4.7l-4.3,0.1l0.1,3.8l0.2,1.5l0.4,0.7l0.2,6.3   l-1.3,0l0.4,12.5l-1.1,0l-30.3,0.6l-0.2-12.5l0.6-1l0.3-2.1l-0.1-0.9l-0.1-8.3l0.5-4.1l0.1-8.3l0.8-0.5L475.4,724.9"/>
	<path id="MT_Carter" inkscape:label="Carter, MT" fill="#aa0000" stroke="#FFFFFF" stroke-width="0.9345" d="M505.8,750l6.4-0.2   l2.8,0.2l1.7,2.5l1.6,3l2.2,0l4.2-0.2l0.1,3.1l2.3-0.1l1,23.9L528,790l-24.9,0.7l-0.4-12.6l1.3,0l0-3.2l-0.4-12.3l1.1,0l-0.4-12.5   L505.8,750"/>
	<path id="MT_Fallon" inkscape:label="Fallon, MT" fill="#aa0000" stroke="#FFFFFF" stroke-width="0.9345" d="M509.1,732.9l-0.1-1.5   l3.1-0.1l0-1l4.7-0.2l1.6,0.5l0,1l7.6-0.3l0.1,3.6l0.4,9.3l0.5,12l0.1,2.3l-2.3,0.1l-0.1-3.1l-4.2,0.2l-2.2,0l-1.6-3L515,750   l-2.8-0.2l-6.4,0.2l-0.2-6.3l-0.4-0.7l-0.2-1.5l-0.1-3.8l4.3-0.1L509.1,732.9"/>
	<path id="MT_Wibaux" inkscape:label="Wibaux, MT" fill="#aa0000" stroke="#FFFFFF" stroke-width="0.9345" d="M525,704.3l0.1,2.4   l1,24.5l-7.6,0.3l0-1l-1.6-0.5l-4.7,0.2l-0.1-6.3l2.6-0.1l1.5-1.1l0.5-0.5l1.9-3.7l0.5-1.3l-0.1-2.9l-0.3-2.1l-0.1-0.5l-0.3-0.8   l-2.4-4.8l7.1-0.2l-0.1-1.6L525,704.3"/>
	<path id="MT_Dawson" inkscape:label="Dawson, MT" fill="#d40000" stroke="#FFFFFF" stroke-width="0.9345" d="M495.5,691.3l0.1,3.1   l6.3-0.2l0.1,3.1l9.4-0.3l2.1,3l0.2,6.2l2.3-0.1l2.4,4.8l0.3,0.8l0.1,0.5l0.3,2.1l0.1,2.9l-0.5,1.3l-1.9,3.7l-0.5,0.5l-1.5,1.1   l-2.6,0.1l-10.5,0.3l0-0.8l-0.5-0.7l-0.5-0.5l-3.2-2l-3.2,0.1l-0.2-7.3l-2,0l-0.3-12.4l0.6-3.1l0.2-6.2L495.5,691.3"/>
	<path id="MT_Richland" inkscape:label="Richland, MT" fill="#aa0000" stroke="#FFFFFF" stroke-width="0.9345" d="M524.1,683.1   l0.8,21.3l-2.1,0.1l0.1,1.6l-7.1,0.2l-2.3,0.1l-0.2-6.2l-2.1-3l-9.4,0.3l-0.1-3.1l-6.3,0.2l-0.1-3.1l-0.1-2.8l0.9-0.5l-0.1-4.2   l-0.1-2.3l1.8,0.1l2.9-0.4l0.5-0.3l0.7-0.7l0.5-0.9l1.3-0.7l10.4,1.3l5,2.1L524.1,683.1"/>
</g>
</svg>