<?xml version="1.0" encoding="UTF-8" standalone="no"?>
<!-- Generator: Adobe Illustrator 16.0.0, SVG Export Plug-In . SVG Version: 6.00 Build 0)  -->

<svg
   xmlns:dc="http://purl.org/dc/elements/1.1/"
   xmlns:cc="http://creativecommons.org/ns#"
   xmlns:rdf="http://www.w3.org/1999/02/22-rdf-syntax-ns#"
   xmlns:svg="http://www.w3.org/2000/svg"
   xmlns="http://www.w3.org/2000/svg"
   xmlns:sodipodi="http://sodipodi.sourceforge.net/DTD/sodipodi-0.dtd"
   xmlns:inkscape="http://www.inkscape.org/namespaces/inkscape"
   version="1.1"
   id="svg8376"
   inkscape:output_extension="org.inkscape.output.svg.inkscape"
   sodipodi:docname="North_Carolina_Presidential_Election_Results_2016.svg"
   inkscape:version="0.91 r"
   sodipodi:version="0.32"
   x="0px"
   y="0px"
   width="425.601px"
   height="173.067px"
   viewBox="0 0 425.601 173.067"
   enable-background="new 0 0 425.601 173.067"
   xml:space="preserve"><metadata
     id="metadata4718"><rdf:RDF><cc:Work
         rdf:about=""><dc:format>image/svg+xml</dc:format><dc:type
           rdf:resource="http://purl.org/dc/dcmitype/StillImage" /></cc:Work></rdf:RDF></metadata><defs
     id="defs4613"><inkscape:perspective
       id="perspective8384"
       inkscape:vp_z="744.09448 : 526.18109 : 1"
       inkscape:vp_y="0 : 1000 : 0"
       inkscape:vp_x="0 : 526.18109 : 1"
       sodipodi:type="inkscape:persp3d"
       inkscape:persp3d-origin="372.04724 : 350.78739 : 1" /></defs><sodipodi:namedview
     showguides="true"
     showgrid="false"
     inkscape:cy="61.812894"
     inkscape:cx="170.57148"
     inkscape:zoom="2.0036866"
     objecttolerance="10"
     guidetolerance="10"
     gridtolerance="10000"
     borderopacity="1.0"
     bordercolor="#666666"
     pagecolor="#ffffff"
     id="base"
     inkscape:window-maximized="0"
     inkscape:window-y="209"
     inkscape:window-x="0"
     inkscape:window-height="776"
     inkscape:window-width="1918"
     inkscape:current-layer="layer1"
     inkscape:document-units="px"
     inkscape:pageshadow="2"
     inkscape:pageopacity="0.0"
     inkscape:guide-bbox="true" /><g
     id="layer1"
     transform="translate(-230.22626,-392.37585)"
     inkscape:label="Layer 1"
     inkscape:groupmode="layer"><path
       id="NC_Clay"
       inkscape:label="Clay, NC"
       fill="#CCCCCC"
       stroke="#FFFFFF"
       stroke-width="1.0686"
       d="M272.106,496.732   l11.584,8.793l-2.952,0.137l-17.383,0.563l-3.097,0.055L272.106,496.732"
       style="fill:#d40000;fill-opacity:1" /><path
       id="NC_Macon"
       inkscape:label="Macon, NC"
       fill="#CCCCCC"
       stroke="#FFFFFF"
       stroke-width="1.0686"
       d="M289.772,486.673   l10.744,18.114l-16.826,0.737l-11.584-8.793l1.513-5.164l0.971-1.736l0.334-0.178l9.811-1.86L289.772,486.673"
       style="fill:#cc2f4a;fill-opacity:1" /><path
       id="NC_Transylvania"
       inkscape:label="Transylvania, NC"
       fill="#CCCCCC"
       stroke="#FFFFFF"
       stroke-width="1.0686"
       d="   M316.211,480.942l5.167,5.762l1.066,1.541l0.32,1.624l0.063,2.044l0.698,3.32l0.262,0.577l0.54,0.365l-8.461,4.479l-5.931,0.825   l-4.931,1.73l3.549-14.789L316.211,480.942"
       style="fill:#e27f90;fill-opacity:1" /><path
       id="NC_Jackson"
       inkscape:label="Jackson, NC"
       fill="#CCCCCC"
       stroke="#FFFFFF"
       stroke-width="1.0686"
       d="M296.409,476.341   l12.143,12.081l-3.549,14.789l-4.487,1.577l-10.744-18.114L296.409,476.341"
       style="fill:#e27f90;fill-opacity:1" /><path
       id="NC_Haywood"
       inkscape:label="Haywood, NC"
       fill="#CCCCCC"
       stroke="#FFFFFF"
       stroke-width="1.0686"
       d="M305.932,460.577   l3.705,6.351l6.574,14.014l-7.659,7.479l-12.143-12.081l-3.28-10.009l-0.074-1.063L305.932,460.577"
       style="fill:#cc2f4a;fill-opacity:1" /><path
       id="NC_Swain"
       inkscape:label="Swain, NC"
       fill="#CCCCCC"
       stroke="#FFFFFF"
       stroke-width="1.0686"
       d="M293.13,466.332   l3.28,10.009l-6.637,10.333l-5.038,1.12l-9.811,1.86l-0.334,0.178l-0.701-0.996l0.042-0.533l0.417-0.943l0.267-0.264l0.84-0.387   l1.077-0.31l0.655-0.274l1.158-2.021l0.362-1.338l0.029-0.6l-0.077-1.037l-2.489-0.453l-13.927-0.723l12.826-6.234l0.21,0.045   l0.802,0.108l6.334,0.06l0.579-0.288l8.284-5.162L293.13,466.332"
       style="fill:#e27f90;fill-opacity:1" /><path
       id="NC_Graham"
       inkscape:label="Graham, NC"
       fill="#CCCCCC"
       stroke="#FFFFFF"
       stroke-width="1.0686"
       d="M262.241,479.953   l13.927,0.723l2.489,0.453l0.077,1.037l-0.029,0.6l-0.362,1.338l-1.158,2.021l-0.655,0.274l-1.077,0.31l-0.84,0.387l-0.267,0.264   l-0.417,0.943l-0.042,0.533l0.701,0.996l-0.971,1.736l-8.263,0.852l-3.186,1.074l-0.43-0.049l-1.532-0.849l-1.225-3.187   l2.906-9.625L262.241,479.953"
       style="fill:#d40000;fill-opacity:1" /><path
       id="NC_Cherokee"
       inkscape:label="Cherokee, NC"
       fill="#CCCCCC"
       stroke="#FFFFFF"
       stroke-width="1.0686"
       d="M273.619,491.568   l-1.513,5.164l-11.848,9.547l-5.57,0.07l-8.645,0.036l1.2-12.13l3.972-2.772l4.736,0.418l1.835-1.192l1.197-1.299l1.225,3.187   l1.532,0.849l0.43,0.049l3.186-1.074L273.619,491.568"
       style="fill:#d40000;fill-opacity:1" /><path
       id="NC_Mitchell"
       inkscape:label="Mitchell, NC"
       fill="#CCCCCC"
       stroke="#FFFFFF"
       stroke-width="1.0686"
       d="M344.553,442.107   l4.776,10.634l-6.548,5.078l-0.719-4.851l-0.361-0.919l-1.982-4.486l-0.176-0.274l-6.948-3.595l-2.837,0.726l8.475-4.942   L344.553,442.107"
       style="fill:#d40000;fill-opacity:1" /><path
       id="NC_Yancey"
       inkscape:label="Yancey, NC"
       fill="#CCCCCC"
       stroke="#FFFFFF"
       stroke-width="1.0686"
       d="M329.758,444.42   l2.837-0.726l6.948,3.595l0.176,0.274l1.982,4.486l0.361,0.919l0.719,4.851l-6.09,6.86l-6.142-6.125l-4.555-8.775L329.758,444.42"
       style="fill:#cc2f4a;fill-opacity:1" /><path
       id="NC_Madison"
       inkscape:label="Madison, NC"
       fill="#CCCCCC"
       stroke="#FFFFFF"
       stroke-width="1.0686"
       d="M321.584,446.504   l4.41,3.274l4.555,8.775l-4.288,1.032l-2.585,1.246l-1.53,0.852l-2.985,1.695l-6.006,3.017l-3.517,0.533l-3.705-6.351l2.67-8.451   l2.038-0.278l4.277-3.186l3.061-2.41l0.833-0.47l1.204-0.678l0.212-0.011l0.612,0.491l-0.002,0.021L321.584,446.504"
       style="fill:#cc2f4a;fill-opacity:1" /><path
       id="NC_Buncombe"
       inkscape:label="Buncombe, NC"
       fill="#CCCCCC"
       stroke="#FFFFFF"
       stroke-width="1.0686"
       d="M336.691,464.679   l5.038,9.652l-4.195,3.487l-3.045-1.704l-3.124,1.706l-3.882,1.56l-3.455,0.854l-2.012-0.402l-1.342-0.466l-0.436-0.295   l-0.842-0.25l-1.416,0.378l-0.462,0.279l-1.306,1.463l-6.574-14.014l3.517-0.533l6.006-3.017l2.985-1.695l1.53-0.852l2.585-1.246   l4.288-1.032L336.691,464.679"
       style="fill:#86b6f2;fill-opacity:1" /><path
       id="NC_Henderson"
       inkscape:label="Henderson, NC"
       fill="#CCCCCC"
       stroke="#FFFFFF"
       stroke-width="1.0686"
       d="   M337.533,477.818l0.331,4.132l-3.871,10.463l-9.667,3.762l-0.54-0.365l-0.262-0.577l-0.698-3.32l-0.063-2.044l-0.32-1.624   l-1.066-1.541l-5.167-5.762l1.306-1.463l0.462-0.279l1.416-0.378l0.842,0.25l0.436,0.295l1.342,0.466l2.012,0.402l3.455-0.854   l3.882-1.56l3.124-1.706L337.533,477.818"
       style="fill:#cc2f4a;fill-opacity:1" /><path
       id="NC_Polk"
       inkscape:label="Polk, NC"
       fill="#CCCCCC"
       stroke="#FFFFFF"
       stroke-width="1.0686"
       d="M351.31,492.933   l-11.087-0.105l-6.23-0.414l3.871-10.463l2.727-0.627l1.774-0.42l0.397,0.101l1.314,0.755l0.602,0.503l6.339,6.698l0.364,0.777   L351.31,492.933"
       style="fill:#cc2f4a;fill-opacity:1" /><path
       id="NC_Rutherford"
       inkscape:label="Rutherford, NC"
       fill="#CCCCCC"
       stroke="#FFFFFF"
       stroke-width="1.0686"
       d="   M362.886,470.681l-0.001,12.377l-2.251,7.59l-0.304,2.352l-4.769-0.052l-4.252-0.015l0.072-3.195l-0.364-0.777l-6.339-6.698   l-0.602-0.503l-1.314-0.755l-0.397-0.101l-1.774,0.42l-2.727,0.627l-0.331-4.132l4.195-3.487l15.276-3.143L362.886,470.681"
       style="fill:#d40000;fill-opacity:1" /><path
       id="NC_McDowell"
       inkscape:label="McDowell, NC"
       fill="#CCCCCC"
       stroke="#FFFFFF"
       stroke-width="1.0686"
       d="M349.329,452.741   l1.602-2.713l0.291,0.209l0.281,0.454l0.796,1.683l0.188,0.546l0.232,1.266l-0.527,2.037l2.509,6.995l2.304,7.97l-15.276,3.143   l-5.038-9.652l6.09-6.86L349.329,452.741"
       style="fill:#d40000;fill-opacity:1" /><path
       id="NC_Avery"
       inkscape:label="Avery, NC"
       fill="#CCCCCC"
       stroke="#FFFFFF"
       stroke-width="1.0686"
       d="M350.792,433.051   l0.608-1.271l5.072,9.578l0.498,8.301l-6.039,0.369l-1.602,2.713l-4.776-10.634L350.792,433.051"
       style="fill:#d40000;fill-opacity:1" /><path
       id="NC_Watauga"
       inkscape:label="Watauga, NC"
       fill="#CCCCCC"
       stroke="#FFFFFF"
       stroke-width="1.0686"
       d="M359.904,425.89   l3.717,1.974l2.293,2.531l1.549,1.419l3.494,1.849l-2.718,6.922l-11.767,0.774l-5.072-9.578l0.422-0.844l2.27-2.03l2.354-1.25   l0.06-0.037l0.244-0.105l0.201,0.66l1.106,0.495l0.688,0.043l0.081,0.009l0.949-0.203L359.904,425.89"
       style="fill:#b9d7ff;fill-opacity:1" /><path
       id="NC_Alexander"
       inkscape:label="Alexander, NC"
       fill="#CCCCCC"
       stroke="#FFFFFF"
       stroke-width="1.0686"
       d="   M391.247,443.593l-3.048,14.926l-9.876-0.498l-0.201-11.121l2.599-1.701l1.34-0.356l2.043-0.407l0.691,0.25l3.104-0.382   l2.514-0.418L391.247,443.593"
       style="fill:#d40000;fill-opacity:1" /><path
       id="NC_Ashe"
       inkscape:label="Ashe, NC"
       fill="#CCCCCC"
       stroke="#FFFFFF"
       stroke-width="1.0686"
       d="M361.38,414.673   l14.282,0.173l0.051,1.108l2.413,4.371l1.407,1.498l0.343,0.736l0.747,2.155l0.061,1.677l-9.728,7.272l-3.494-1.849l-1.549-1.419   l-2.293-2.531l-3.717-1.974L361.38,414.673"
       style="fill:#d40000;fill-opacity:1" /><path
       id="NC_Alleghany"
       inkscape:label="Alleghany, NC"
       fill="#CCCCCC"
       stroke="#FFFFFF"
       stroke-width="1.0686"
       d="   M395.549,414.682l-2.474,9.033l-0.559,1.525l-2.052,0.096l-0.737-1.026l-0.064-0.958l-1.809-1.177l-0.333-0.093l-2.874,0.511   l-3.962,3.798l-0.061-1.677l-0.747-2.155l-0.343-0.736l-1.407-1.498l-2.413-4.371l-0.051-1.108L395.549,414.682"
       style="fill:#d40000;fill-opacity:1" /><path
       id="NC_Wilkes"
       inkscape:label="Wilkes, NC"
       fill="#CCCCCC"
       stroke="#FFFFFF"
       stroke-width="1.0686"
       d="M380.685,426.391   l3.962-3.798l2.874-0.511l0.333,0.093l1.809,1.177l0.064,0.958l0.737,1.026l2.052-0.096l0.559-1.525l4.581,8.976l0.066,10.06   l-6.475,0.841l-0.834,0.293l-2.514,0.418l-3.104,0.382l-0.691-0.25l-2.043,0.407l-1.34,0.356l-2.599,1.701l-9.883-6.315   l2.718-6.922L380.685,426.391"
       style="fill:#d40000;fill-opacity:1" /><path
       id="NC_Caldwell"
       inkscape:label="Caldwell, NC"
       fill="#CCCCCC"
       stroke="#FFFFFF"
       stroke-width="1.0686"
       d="M356.472,441.358   l11.767-0.774l9.883,6.315l0.201,11.121l-1.253,1.65l-0.59,0.613l-0.952-0.034l-7.017-0.77l-7.925-6.112l-3.306-3.171l-0.31-0.539   L356.472,441.358"
       style="fill:#d40000;fill-opacity:1" /><path
       id="NC_Burke"
       inkscape:label="Burke, NC"
       fill="#CCCCCC"
       stroke="#FFFFFF"
       stroke-width="1.0686"
       d="M356.969,449.659   l0.31,0.539l3.306,3.171l7.925,6.112l7.017,0.77l0.952,0.034l0.59-0.613l-7.141,11.361l-0.127,0.252l-6.915-0.603l-5.882,0.507   l-2.304-7.97l-2.509-6.995l0.527-2.037l-0.232-1.266l-0.188-0.546l-0.796-1.683l-0.281-0.454l-0.291-0.209L356.969,449.659"
       style="fill:#cc2f4a;fill-opacity:1" /><path
       id="NC_Cleveland"
       inkscape:label="Cleveland, NC"
       fill="#CCCCCC"
       stroke="#FFFFFF"
       stroke-width="1.0686"
       d="   M369.801,471.284l3.942,7.88l6.339,13.988l-1.745-0.025l-18.007-0.127l0.304-2.352l2.251-7.59l0.001-12.377L369.801,471.284"
       style="fill:#cc2f4a;fill-opacity:1" /><path
       id="NC_Gatson"
       inkscape:label="Gatson, NC"
       fill="#CCCCCC"
       stroke="#FFFFFF"
       stroke-width="1.0686"
       d="M373.743,479.164   l22.405,0.064l-3.293,14.197l-12.773-0.273L373.743,479.164"
       style="fill:#cc2f4a;fill-opacity:1" /><path
       id="NC_Lincoln"
       inkscape:label="Lincoln, NC"
       fill="#CCCCCC"
       stroke="#FFFFFF"
       stroke-width="1.0686"
       d="M395.576,471.091   l0.73,3.302l-0.158,4.834l-22.405-0.064l-3.942-7.88l0.127-0.252L395.576,471.091"
       style="fill:#d40000;fill-opacity:1" /><path
       id="NC_Catawba"
       inkscape:label="Catawba, NC"
       fill="#CCCCCC"
       stroke="#FFFFFF"
       stroke-width="1.0686"
       d="M378.323,458.021   l9.876,0.498l5.335,3.956l1.43,1.793l1.799,2.979l-1.187,3.844l-25.647-0.06l7.141-11.361L378.323,458.021"
       style="fill:#cc2f4a;fill-opacity:1" /><path
       id="NC_Iredell"
       inkscape:label="Iredell, NC"
       fill="#CCCCCC"
       stroke="#FFFFFF"
       stroke-width="1.0686"
       d="M397.722,442.751   l8.396-0.16l-0.135,11.044l-1.645,6.991l-0.705,3.007l1.751,7.185l0.168,1.065l0.064,0.998l-2.107,0.094l-7.203,1.417l-0.73-3.302   l1.187-3.844l-1.799-2.979l-1.43-1.793l-5.335-3.956l3.048-14.926L397.722,442.751"
       style="fill:#cc2f4a;fill-opacity:1" /><path
       id="NC_Mecklenburg"
       inkscape:label="Mecklenburg, NC"
       fill="#CCCCCC"
       stroke="#FFFFFF"
       stroke-width="1.0686"
       d="   M396.306,474.393l7.203-1.417l-0.083,0.395l0.018,0.373l1.156,5.055l4.834,7.222l5.344,3.01L402.33,501.15l-3.152-4.041   l-6.322-3.684l3.293-14.197L396.306,474.393"
       style="fill:#4389e3;fill-opacity:1" /><path
       id="NC_Rowan"
       inkscape:label="Rowan, NC"
       fill="#CCCCCC"
       stroke="#FFFFFF"
       stroke-width="1.0686"
       d="M405.983,453.636   l11.364,5.552l5.688,1.024l5.937,7.407l1.353,4.152l-5.023,0.337l-19.684,0.772l-0.064-0.998l-0.168-1.065l-1.751-7.185   l0.705-3.007L405.983,453.636"
       style="fill:#cc2f4a;fill-opacity:1" /><path
       id="NC_Davie"
       inkscape:label="Davie, NC"
       fill="#CCCCCC"
       stroke="#FFFFFF"
       stroke-width="1.0686"
       d="M406.118,442.592   l8.702-0.168l4.683,3.83l0.754,0.532l0.212,0.412l0.352,1.495l0.05,1.539l-0.756,3.191l-1.775,0.928l-0.993,4.839l-11.364-5.552   L406.118,442.592"
       style="fill:#d40000;fill-opacity:1" /><path
       id="NC_Yadkin"
       inkscape:label="Yadkin, NC"
       fill="#CCCCCC"
       stroke="#FFFFFF"
       stroke-width="1.0686"
       d="M416.219,431.504   l-1.399,10.919l-8.702,0.168l-8.396,0.16l-0.066-10.06l4.017-1.915l6.661-1.461l2.598,0.254l3.961,1.144l0.89,0.394   L416.219,431.504"
       style="fill:#d40000;fill-opacity:1" /><path
       id="NC_Surry"
       inkscape:label="Surry, NC"
       fill="#CCCCCC"
       stroke="#FFFFFF"
       stroke-width="1.0686"
       d="M408.291,414.272   l7.581,0.042l0.308,16.058l0.04,1.133l-0.438-0.398l-0.89-0.394l-3.961-1.144l-2.598-0.254l-6.661,1.461l-4.017,1.915l-4.581-8.976   l2.474-9.033l2.813,0.024L408.291,414.272"
       style="fill:#d40000;fill-opacity:1" /><path
       id="NC_Stokes"
       inkscape:label="Stokes, NC"
       fill="#CCCCCC"
       stroke="#FFFFFF"
       stroke-width="1.0686"
       d="M434.031,413.782   l0.524,15.851l-18.376,0.739l-0.308-16.058l17.007-0.467L434.031,413.782"
       style="fill:#d40000;fill-opacity:1" /><path
       id="NC_Forsyth"
       inkscape:label="Forsyth, NC"
       fill="#CCCCCC"
       stroke="#FFFFFF"
       stroke-width="1.0686"
       d="M416.179,430.371   l18.376-0.739l0.43,13.713l-15.482,2.908l-4.683-3.83l1.399-10.919L416.179,430.371"
       style="fill:#86b6f2;fill-opacity:1" /><path
       id="NC_Davidson"
       inkscape:label="Davidson, NC"
       fill="#CCCCCC"
       stroke="#FFFFFF"
       stroke-width="1.0686"
       d="M419.503,446.254   l15.482-2.908l0.095,4.996l0.413,23.058l-5.169,0.373l-1.353-4.152l-5.937-7.407l-5.688-1.024l0.993-4.839l1.775-0.928l0.756-3.191   l-0.05-1.539l-0.352-1.495l-0.212-0.412L419.503,446.254"
       style="fill:#d40000;fill-opacity:1" /><path
       id="NC_Stanly"
       inkscape:label="Stanly, NC"
       fill="#CCCCCC"
       stroke="#FFFFFF"
       stroke-width="1.0686"
       d="M425.3,472.11   l5.023-0.337l3.198,2.104l0.249,0.2l1.686,3.488l0.628,1.802l1.009,10.145l0.027,0.33l-0.137,0.488l-0.778,1.213l-9.187-2.453   l-10.166,1.123L425.3,472.11"
       style="fill:#d40000;fill-opacity:1" /><path
       id="NC_Cabarrus"
       inkscape:label="Cabarrus, NC"
       fill="#CCCCCC"
       stroke="#FFFFFF"
       stroke-width="1.0686"
       d="M425.3,472.11   l-8.447,18.103l-2.075-1.182l-5.344-3.01l-4.834-7.222l-1.156-5.055l-0.018-0.373l0.083-0.395l2.107-0.094L425.3,472.11"
       style="fill:#e27f90;fill-opacity:1" /><path
       id="NC_Union"
       inkscape:label="Union, NC"
       fill="#CCCCCC"
       stroke="#FFFFFF"
       stroke-width="1.0686"
       d="M427.019,489.089   l-0.816,21.287l-10.845,0.379l-9.724,0.332l-0.882-0.271l0.037-0.521l0.325-5.629l-2.785-3.517l12.448-12.119l2.075,1.182   L427.019,489.089"
       style="fill:#cc2f4a;fill-opacity:1" /><path
       id="NC_Anson"
       inkscape:label="Anson, NC"
       fill="#CCCCCC"
       stroke="#FFFFFF"
       stroke-width="1.0686"
       d="M436.206,491.542   l0.061,0.492l0.389,1.211l1.999,1.057l1.151,0.25l0.238-0.012l0.294-0.203l0.128-0.141l0.199-0.542l0.99-0.84l0.608-0.28l0.71,0.08   l0.694,1.09l1.037,2.192l2.414,8.284l-0.032,0.289l-0.55,0.988l-2.649,4.359l-17.684,0.559l0.816-21.287L436.206,491.542"
       style="fill:#86b6f2;fill-opacity:1" /><path
       id="NC_Rockingham"
       inkscape:label="Rockingham, NC"
       fill="#CCCCCC"
       stroke="#FFFFFF"
       stroke-width="1.0686"
       d="   M447.758,413.036l8.979-0.481l0.059,16.19v0.465l-22.241,0.424l-0.524-15.851L447.758,413.036"
       style="fill:#cc2f4a;fill-opacity:1" /><path
       id="NC_Guilford"
       inkscape:label="Guilford, NC"
       fill="#CCCCCC"
       stroke="#FFFFFF"
       stroke-width="1.0686"
       d="M434.555,429.633   l22.241-0.424l0.734,18.987l-22.45,0.146l-0.095-4.996L434.555,429.633"
       style="fill:#86b6f2;fill-opacity:1" /><path
       id="NC_Randolph"
       inkscape:label="Randolph, NC"
       fill="#CCCCCC"
       stroke="#FFFFFF"
       stroke-width="1.0686"
       d="M457.53,448.196   l0.169,3.123l0.505,18.233l-9.494,0.776l-13.217,1.071l-0.413-23.058L457.53,448.196"
       style="fill:#d40000;fill-opacity:1" /><path
       id="NC_Montgomery"
       inkscape:label="Montgomery, NC"
       fill="#CCCCCC"
       stroke="#FFFFFF"
       stroke-width="1.0686"
       d="   M448.71,470.328l3.295,12.25l0.054,0.703l0.532,1.124l2.181,3.221l0.942,0.958l1.074,0.625l-4.496-0.252l-6.205-0.219l-2.511,1.311   l-4.805,1.494l-1.005,0.098l-1.56-0.098l0.778-1.213l0.137-0.488l-0.027-0.33l-1.009-10.145l-0.628-1.802l-1.686-3.488l-0.249-0.2   l-3.198-2.104l5.169-0.373L448.71,470.328"
       style="fill:#cc2f4a;fill-opacity:1" /><path
       id="NC_Richmond"
       inkscape:label="Richmond, NC"
       fill="#CCCCCC"
       stroke="#FFFFFF"
       stroke-width="1.0686"
       d="M436.206,491.542   l1.56,0.098l1.005-0.098l4.805-1.494l2.511-1.311l6.205,0.219l4.496,0.252l7.367,6.264l-2.32,1.096l-1.775,1.275l-0.819,0.7   l-0.474,2.142l0.099,0.688l0.333,0.68l-0.988,3.113l-0.859,1.396l-2.671,2.725l-10.793,0.531l2.649-4.359l0.55-0.988l0.032-0.289   l-2.414-8.284l-1.037-2.192l-0.694-1.09l-0.71-0.08l-0.608,0.28l-0.99,0.84l-0.199,0.542l-0.128,0.141l-0.294,0.203l-0.238,0.012   l-1.151-0.25l-1.999-1.057l-0.389-1.211L436.206,491.542"
       style="fill:#e27f90;fill-opacity:1" /><path
       id="NC_Scotland"
       inkscape:label="Scotland, NC"
       fill="#CCCCCC"
       stroke="#FFFFFF"
       stroke-width="1.0686"
       d="M469.83,506.493   l-4.393,11.847l-10.758-9.053l2.671-2.725l0.859-1.396l0.988-3.113l-0.333-0.68l-0.099-0.688l0.474-2.142l0.819-0.7l1.775-1.275   l2.32-1.096L469.83,506.493"
       style="fill:#86b6f2;fill-opacity:1" /><path
       id="NC_Caswell"
       inkscape:label="Caswell, NC"
       fill="#CCCCCC"
       stroke="#FFFFFF"
       stroke-width="1.0686"
       d="M473.098,411.472   l0.392,16.653l-4.562,0.205l-12.132,0.414l-0.059-16.19l1.779-0.126l5.589-0.355l5.458-0.379L473.098,411.472"
       style="fill:#e27f90;fill-opacity:1" /><path
       id="NC_Alamance"
       inkscape:label="Alamance, NC"
       fill="#CCCCCC"
       stroke="#FFFFFF"
       stroke-width="1.0686"
       d="M456.796,428.744   l12.132-0.414l1.647,20.329l-12.876,2.66l-0.169-3.123l-0.734-18.987V428.744"
       style="fill:#e27f90;fill-opacity:1" /><path
       id="NC_Moore"
       inkscape:label="Moore, NC"
       fill="#CCCCCC"
       stroke="#FFFFFF"
       stroke-width="1.0686"
       d="M467.364,468.841   l8.186,11.209l4.301,6.107l0.002,1.016l-6.818-1.643l-1.644,1.132l-2.388,2.271l-3.26,4.291l-1.588,2.248l-7.367-6.264   l-1.074-0.625l-0.942-0.958l-2.181-3.221l-0.532-1.124l-0.054-0.703l-3.295-12.25l9.494-0.776L467.364,468.841"
       style="fill:#cc2f4a;fill-opacity:1" /><path
       id="NC_Hoke"
       inkscape:label="Hoke, NC"
       fill="#CCCCCC"
       stroke="#FFFFFF"
       stroke-width="1.0686"
       d="M464.155,495.472   l1.588-2.248l3.26-4.291l2.388-2.271l1.644-1.132l6.818,1.643l3.633,12.029l-5.877,6.303l-2.535,0.838l-5.243,0.149   L464.155,495.472"
       style="fill:#86b6f2;fill-opacity:1" /><path
       id="NC_Robeson"
       inkscape:label="Robeson, NC"
       fill="#CCCCCC"
       stroke="#FFFFFF"
       stroke-width="1.0686"
       d="M483.486,499.203   l6.424,6.18l4.847,7.762l0.079,0.826l-1.54,9.725l-0.723,1.102l-2.341,1.824l-3.313,5.43l-2.684,3.499l-18.237-16.72l-0.561-0.49   l4.393-11.847l5.243-0.149l2.535-0.838L483.486,499.203"
       style="fill:#e27f90;fill-opacity:1" /><path
       id="NC_Columbus"
       inkscape:label="Columbus, NC"
       fill="#CCCCCC"
       stroke="#FFFFFF"
       stroke-width="1.0686"
       d="M520.663,527.396   l4.428,2.041l-3.592,8.105l-5.706,2.422l-4.978,1.109l-0.519-0.016l-0.358,0.09l-1.287,1.254l-2.898,7.301l-1.119,4.197   l-20.398-18.351l2.684-3.499l3.313-5.43l2.341-1.824l1.791,0.955l0.382,0.044l0.959-0.063l5.027-0.717l5.423,1.813l6.029,2.463   l4.964,0.193L520.663,527.396"
       style="fill:#cc2f4a;fill-opacity:1" /><path
       id="NC_Brunswick"
       inkscape:label="Brunswick, NC"
       fill="#CCCCCC"
       stroke="#FFFFFF"
       stroke-width="1.0686"
       d="   M525.091,529.437l6.075,0.951l3.161,4.723l1.944,6.505l0.534,3.517l0.078,1.206l0.217,5.987l-3.529,2.551l-3.563-0.711l-1.924-0.2   l-1.846,0.024l-4.473,0.426l-4.68,0.91l-0.158,0.037l-0.018-0.002l-5.534,2.424l-1.407,0.91l-5.336-4.795l1.119-4.197l2.898-7.301   l1.287-1.254l0.358-0.09l0.519,0.016l4.978-1.109l5.706-2.422L525.091,529.437"
       style="fill:#cc2f4a;fill-opacity:1" /><path
       id="NC_New_Hanover"
       inkscape:label="New Hanover, NC"
       fill="#CCCCCC"
       stroke="#FFFFFF"
       stroke-width="1.0686"
       d="   M545.487,531.478l-0.965,1.148l-0.953,1.585l-2.602,4.808l-0.475,1.27l-1.191,3.701l-0.125,0.455l-2.076,7.881l-0.217-5.987   l-0.078-1.206l-0.534-3.517l-1.944-6.505l-3.161-4.723l4.554-2.129l3.637-1.256l1.785,0.18l-0.41,0.5l0.145,0.443l0.631,0.768   l2.85,2.457L545.487,531.478"
       style="fill:#e27f90;fill-opacity:1" /><path
       id="NC_Bladen"
       inkscape:label="Bladen, NC"
       fill="#CCCCCC"
       stroke="#FFFFFF"
       stroke-width="1.0686"
       d="M508.072,502.91   l12.021,15.945l-0.71,0.949l0.09,0.277l0.938,1.487l0.729,0.569l1.324,0.32l1.527,1.047l-3.328,3.891l-3.516,2.088l-4.964-0.193   l-6.029-2.463l-5.423-1.813l-5.027,0.717l-0.959,0.063l-0.382-0.044l-1.791-0.955l0.723-1.102l1.54-9.725l-0.079-0.826   l-4.847-7.762l2.579-0.877l1.899-0.268l11.973-0.923l1.259-0.168L508.072,502.91"
       style="fill:#e27f90;fill-opacity:1" /><path
       id="NC_Cumberland"
       inkscape:label="Cumberland, NC"
       fill="#CCCCCC"
       stroke="#FFFFFF"
       stroke-width="1.0686"
       d="   M501.053,481.742l-1.793,8.645l-0.046,0.404l0.81,2.48l1.122,2.805l0.267,0.533l6.66,6.301l-0.453,0.237l-1.259,0.168   l-11.973,0.923l-1.899,0.268l-2.579,0.877l-6.424-6.18l-3.633-12.029l-0.002-1.016l1.43-0.455l8.303-2.732l4.125-1.652l1.356-0.152   L501.053,481.742"
       style="fill:#86b6f2;fill-opacity:1" /><path
       id="NC_Chatham"
       inkscape:label="Chatham, NC"
       fill="#CCCCCC"
       stroke="#FFFFFF"
       stroke-width="1.0686"
       d="M485.829,448.145   l-0.068,1.408l-2.953,13.134l3.682,1.25l-2.249,3.569l-3.904-3.858l-0.788-0.653l-0.432-0.255l-1.152-0.466l-0.893-0.023   l-0.816,0.167l-2.174,2.639l-2.172,1.507l-3.393,1.865l-1.152,0.412l-9.16,0.711l-0.505-18.233l12.876-2.66l10.372,0.063   L485.829,448.145"
       style="fill:#86b6f2;fill-opacity:1" /><path
       id="NC_Harnett"
       inkscape:label="Harnett, NC"
       fill="#CCCCCC"
       stroke="#FFFFFF"
       stroke-width="1.0686"
       d="M486.489,463.938   l9.428,2.944l8.258,10.764l-3.122,4.095l-5.988-0.576l-1.356,0.152l-4.125,1.652l-8.303,2.732l-1.43,0.455l-4.301-6.107   l8.69-12.543L486.489,463.938"
       style="fill:#cc2f4a;fill-opacity:1" /><path
       id="NC_Lee"
       inkscape:label="Lee, NC"
       fill="#CCCCCC"
       stroke="#FFFFFF"
       stroke-width="1.0686"
       d="M467.364,468.841   l1.152-0.412l3.393-1.865l2.172-1.507l2.174-2.639l0.816-0.167l0.893,0.023l1.152,0.466l0.432,0.255l0.788,0.653l3.904,3.858   l-8.69,12.543L467.364,468.841"
       style="fill:#e27f90;fill-opacity:1" /><path
       id="NC_Orange"
       inkscape:label="Orange, NC"
       fill="#CCCCCC"
       stroke="#FFFFFF"
       stroke-width="1.0686"
       d="M473.489,428.125   l8.963-0.423l-1.505,21.021l-10.372-0.063l-1.647-20.329L473.489,428.125"
       style="fill:#1666cb;fill-opacity:1" /><path
       id="NC_Person"
       inkscape:label="Person, NC"
       fill="#CCCCCC"
       stroke="#FFFFFF"
       stroke-width="1.0686"
       d="M473.098,411.472   l15.018-1.001l0.92,16.963l-6.583,0.269l-8.963,0.423L473.098,411.472"
       style="fill:#e27f90;fill-opacity:1" /><path
       id="NC_Durham"
       inkscape:label="Durham, NC"
       fill="#CCCCCC"
       stroke="#FFFFFF"
       stroke-width="1.0686"
       d="M489.035,427.433   l2.967,8.966l2.426,3.072l-0.477,2.508l-0.651,1.343l-1.178,1.593l-2.939,3.044l-3.354,0.186l-4.882,0.577l1.505-21.021   L489.035,427.433"
       style="fill:#1666cb;fill-opacity:1" /><path
       id="NC_Pender"
       inkscape:label="Pender, NC"
       fill="#CCCCCC"
       stroke="#FFFFFF"
       stroke-width="1.0686"
       d="M525.777,509.078   l19.428-1.438l8.588,14.896l-8.305,8.943l-1.131-0.127l-2.85-2.457l-0.631-0.768l-0.145-0.443l0.41-0.5l-1.785-0.18l-3.637,1.256   l-4.554,2.129l-6.075-0.951l-4.428-2.041l3.328-3.891l-1.527-1.047l-1.324-0.32l-0.729-0.569l-0.938-1.487l-0.09-0.277l0.71-0.949   L525.777,509.078"
       style="fill:#cc2f4a;fill-opacity:1" /><path
       id="NC_Sampson"
       inkscape:label="Sampson, NC"
       fill="#CCCCCC"
       stroke="#FFFFFF"
       stroke-width="1.0686"
       d="M504.175,477.646   l10.673,0.837l6.702,4.889l0.639,6.069l1.303,9.747l-1.712,9.339l3.076,1.315l0.289-0.122l0.632-0.644l-5.683,9.777l-12.021-15.945   l-6.66-6.301l-0.267-0.533l-1.122-2.805l-0.81-2.48l0.046-0.404l1.793-8.645L504.175,477.646"
       style="fill:#e27f90;fill-opacity:1" /><path
       id="NC_Wayne"
       inkscape:label="Wayne, NC"
       fill="#CCCCCC"
       stroke="#FFFFFF"
       stroke-width="1.0686"
       d="M524.298,461.115   l10.761-0.139l1.673,11.167l-0.416,10.742l-14.766,0.487l-6.702-4.889l2.005-2.318l4.127-5.45L524.298,461.115"
       style="fill:#e27f90;fill-opacity:1" /><path
       id="NC_Johnston"
       inkscape:label="Johnston, NC"
       fill="#CCCCCC"
       stroke="#FFFFFF"
       stroke-width="1.0686"
       d="M518.009,453.5   l1.672,2.242l1.832,4.598l2.785,0.775l-3.318,9.601l-4.127,5.45l-2.005,2.318l-10.673-0.837l-8.258-10.764l6.985-7.767l6.919-6.151   l5.046-4.089L518.009,453.5"
       style="fill:#cc2f4a;fill-opacity:1" /><path
       id="NC_Wake"
       inkscape:label="Wake, NC"
       fill="#CCCCCC"
       stroke="#FFFFFF"
       stroke-width="1.0686"
       d="M492.002,436.399   l9.134,2.119l2.44,0.878l3.048,1.338l5.582,4.022l1.391,1.453l1.219,2.101l0.052,0.565l-5.046,4.089l-6.919,6.151l-6.985,7.767   l-9.428-2.944l-3.682-1.25l2.953-13.134l0.068-1.408l3.354-0.186l2.939-3.044l1.178-1.593l0.651-1.343l0.477-2.508L492.002,436.399   "
       style="fill:#86b6f2;fill-opacity:1" /><path
       id="NC_Granville"
       inkscape:label="Granville, NC"
       fill="#CCCCCC"
       stroke="#FFFFFF"
       stroke-width="1.0686"
       d="   M490.835,410.252l12.17-0.879l-1.668,1.698l-0.235,1.063l-0.036,3.6l0.614,8.49l0.494,5.239l0.559,0.39l-1.597,8.667l-9.134-2.119   l-2.967-8.966l-0.92-16.963L490.835,410.252"
       style="fill:#e27f90;fill-opacity:1" /><path
       id="NC_Vance"
       inkscape:label="Vance, NC"
       fill="#CCCCCC"
       stroke="#FFFFFF"
       stroke-width="1.0686"
       d="M503.005,409.372   l5.84-0.504l1.879,15.328l-7.991,5.655l-0.559-0.39l-0.494-5.239l-0.614-8.49l0.036-3.6l0.235-1.063L503.005,409.372"
       style="fill:#4389e3;fill-opacity:1" /><path
       id="NC_Warren"
       inkscape:label="Warren, NC"
       fill="#CCCCCC"
       stroke="#FFFFFF"
       stroke-width="1.0686"
       d="M521.018,407.93   l6.428-0.537l0.245,2.107l-3.453,17.21l-13.514-2.514l-1.879-15.328L521.018,407.93"
       style="fill:#4389e3;fill-opacity:1" /><path
       id="NC_Franklin"
       inkscape:label="Franklin, NC"
       fill="#CCCCCC"
       stroke="#FFFFFF"
       stroke-width="1.0686"
       d="M524.237,426.71   l-9.37,22.166l-0.052-0.565l-1.219-2.101l-1.391-1.453l-5.582-4.022l-3.048-1.338l-2.44-0.878l1.597-8.667l7.991-5.655   L524.237,426.71"
       style="fill:#e27f90;fill-opacity:1" /><path
       id="NC_Nash"
       inkscape:label="Nash, NC"
       fill="#CCCCCC"
       stroke="#FFFFFF"
       stroke-width="1.0686"
       d="M538.056,428.402   l-0.418,2.648l-2.814,8.844l-1.282,4.802l-15.532,8.805l-3.142-4.625l9.37-22.166L538.056,428.402"
       style="fill:#f2b3be;fill-opacity:1" /><path
       id="NC_Northampton"
       inkscape:label="Northampton, NC"
       fill="#CCCCCC"
       stroke="#FFFFFF"
       stroke-width="1.0686"
       d="   M559.691,404.645l3.564,3.859l-2.443,6.014l-1.635,6.894l-3.293,4.657l-0.283,0.218l-0.432-0.13l-3.555-2.006l-8.885-7.598   l-0.391-3.557l-4.09-2.829l-10.329-0.988l-0.229,0.323l-0.245-2.107l5.811-0.447l20.663-1.708L559.691,404.645"
       style="fill:#4389e3;fill-opacity:1" /><path
       id="NC_Halifax"
       inkscape:label="Halifax, NC"
       fill="#CCCCCC"
       stroke="#FFFFFF"
       stroke-width="1.0686"
       d="M527.691,409.5   l0.229-0.323l10.329,0.988l4.09,2.829l0.391,3.557l8.885,7.598l3.555,2.006l0.432,0.13l0.283-0.218l-1.129,5.327l-2.986,4.141   l-0.934,0.149l-4.311-1.519l-0.576-1.727l-2.217-1.533l-5.676-2.504l-13.818-1.692L527.691,409.5"
       style="fill:#4389e3;fill-opacity:1" /><path
       id="NC_Edgecombe"
       inkscape:label="Edgecombe, NC"
       fill="#CCCCCC"
       stroke="#FFFFFF"
       stroke-width="1.0686"
       d="   M551.769,435.536l3.146,10.076l-1.813-0.609l-3.492,2.068l-1.094,1.465l-1.451,1.489l-5.275,4.584l-2.83-2.726l-1.545-4.251   l-3.874-2.938l1.282-4.802l2.814-8.844l0.418-2.648l5.676,2.504l2.217,1.533l0.576,1.727l4.311,1.519L551.769,435.536"
       style="fill:#4389e3;fill-opacity:1" /><path
       id="NC_Wilson"
       inkscape:label="Wilson, NC"
       fill="#CCCCCC"
       stroke="#FFFFFF"
       stroke-width="1.0686"
       d="M533.541,444.696   l3.874,2.938l1.545,4.251l2.83,2.726l-1.623,1.526l-5.108,4.839l-10.761,0.139l-2.785-0.775l-1.832-4.598l-1.672-2.242   L533.541,444.696"
       style="fill:#86b6f2;fill-opacity:1" /><path
       id="NC_Greene"
       inkscape:label="Greene, NC"
       fill="#CCCCCC"
       stroke="#FFFFFF"
       stroke-width="1.0686"
       d="M540.167,456.137   l11.01,11.681l-3.887,2.743l-2.984,1.838l-1.51,0.484l-0.404,0.036l-0.705-1.009l-4.955,0.233l-1.673-11.167L540.167,456.137"
       style="fill:#e27f90;fill-opacity:1" /><path
       id="NC_Lenoir"
       inkscape:label="Lenoir, NC"
       fill="#CCCCCC"
       stroke="#FFFFFF"
       stroke-width="1.0686"
       d="M555.364,472.286   l-3.203,6.488l-2.373-0.599l1.031,3.961l-0.063,0.358l-3.582,5.456l-5.473,3.984l-5.387-9.05l0.416-10.742l4.955-0.233l0.705,1.009   l0.404-0.036l1.51-0.484l2.984-1.838l3.887-2.743L555.364,472.286"
       style="fill:#e27f90;fill-opacity:1" /><path
       id="NC_Jones"
       inkscape:label="Jones, NC"
       fill="#CCCCCC"
       stroke="#FFFFFF"
       stroke-width="1.0686"
       d="M552.161,478.774   l0.457,0.112l12.811,6.855l1.277,0.881l1.781-0.828l0.486,0.154l0.236,0.357l0.521,2.578l0.504,10.5l1.096,1.477l-3.309,1.279   l-2.82-4.934l-0.182-0.283l-2.24-2.164l-1.363-0.325l-12.563-1.417l-4.678,0.67l-2.475-1.752l5.473-3.984l3.582-5.456l0.063-0.358   l-1.031-3.961L552.161,478.774"
       style="fill:#e27f90;fill-opacity:1" /><path
       id="NC_Duplin"
       inkscape:label="Duplin, NC"
       fill="#CCCCCC"
       stroke="#FFFFFF"
       stroke-width="1.0686"
       d="M521.55,483.372   l14.766-0.487l5.387,9.05l2.475,1.752l1.457,2.588l-0.701,10.34v0.348l0.271,0.677l-19.428,1.438l-0.632,0.644l-0.289,0.122   l-3.076-1.315l1.712-9.339l-1.303-9.747L521.55,483.372"
       style="fill:#e27f90;fill-opacity:1" /><path
       id="NC_Onslow"
       inkscape:label="Onslow, NC"
       fill="#CCCCCC"
       stroke="#FFFFFF"
       stroke-width="1.0686"
       d="M544.177,493.687   l4.678-0.67l12.563,1.417l1.363,0.325l2.24,2.164l0.182,0.283l2.82,4.934l3.092,7.857l-17.322,12.537l-8.588-14.896l-0.271-0.677   v-0.348l0.701-10.34L544.177,493.687"
       style="fill:#cc2f4a;fill-opacity:1" /><path
       id="NC_Carteret"
       inkscape:label="Carteret, NC"
       fill="#CCCCCC"
       stroke="#FFFFFF"
       stroke-width="1.0686"
       d="M590.237,487.085   l0.146,0.387l0.691,0.926l1.82,0.016l8.555,0.035l0.563,6.697l10.021-8.514l-2.803,5.039l-10.43,14.577l-2.396,1.124l-1.447-0.684   l-4.506-1.416l-2.297,0.012l-1.93,0.17l-2.104,0.361l-3.947,0.958l-3.713,1.071l-0.406,0.127l-0.166,0.059l-1.211,0.432   l-1.035,0.447l-1.775,0.768l-0.754,0.32l-3.092-7.857l3.309-1.279l5.99-0.975l8.711-2.758l2.791-1.512l1.121-2.529l0.35-1.223   l-0.279-0.318l-2.574-2.1L590.237,487.085"
       style="fill:#d40000;fill-opacity:1" /><path
       id="NC_Pamlico"
       inkscape:label="Pamlico, NC"
       fill="#CCCCCC"
       stroke="#FFFFFF"
       stroke-width="1.0686"
       d="M590.257,469.276   l4.855,0.509l0.85,0.367l0.545,1.009l0.303,0.985l0.074,0.865l-0.955,2.781l-1.85,5.181l-0.867,1.538l-2.975,4.573l-2.797,2.361   l-2.137,1.762l-0.809,0.274l-1.732,0.037l-3.834-1.419l-2.318-1.66l-0.91-1.209l-1.33-6.302l0.779-2.556l0.727-1.295l1.984-1.907   l2.402,1.881l9.416-1.926l0.613-2.028l0.055-0.498L590.257,469.276"
       style="fill:#cc2f4a;fill-opacity:1" /><path
       id="NC_Craven"
       inkscape:label="Craven, NC"
       fill="#CCCCCC"
       stroke="#FFFFFF"
       stroke-width="1.0686"
       d="M563.915,467.176   l13.945,7.996l-1.984,1.907l-0.727,1.295l-0.779,2.556l1.33,6.302l0.91,1.209l2.318,1.66l3.834,1.419l1.732-0.037l0.809-0.274   l2.137-1.762l2.574,2.1l0.279,0.318l-0.35,1.223l-1.121,2.529l-2.791,1.512l-8.711,2.758l-5.99,0.975l-1.096-1.477l-0.504-10.5   l-0.521-2.578l-0.236-0.357l-0.486-0.154l-1.781,0.828l-1.277-0.881l-12.811-6.855l-0.457-0.112l3.203-6.488L563.915,467.176"
       style="fill:#e27f90;fill-opacity:1" /><path
       id="NC_Pitt"
       inkscape:label="Pitt, NC"
       fill="#CCCCCC"
       stroke="#FFFFFF"
       stroke-width="1.0686"
       d="M554.915,445.612   l8.246,4.116l0.754,17.448l-8.551,5.11l-4.188-4.468l-11.01-11.681l1.623-1.526l5.275-4.584l1.451-1.489l1.094-1.465l3.492-2.068   L554.915,445.612"
       style="fill:#86b6f2;fill-opacity:1" /><path
       id="NC_Martin"
       inkscape:label="Martin, NC"
       fill="#CCCCCC"
       stroke="#FFFFFF"
       stroke-width="1.0686"
       d="M554.755,431.395   l0.025,0.309l0.33,0.662l5.955,6.023l0.488,0.365l6.736,3.365l0.486,0.188l8.664-0.09l3.361-1.408l-2.939,9.157l-4.521,2.444   l-1.479,0.72l-3.75-1.645l-4.951-1.755l-8.246-4.116l-3.146-10.076L554.755,431.395"
       style="fill:#f2b3be;fill-opacity:1" /><path
       id="NC_Chowan"
       inkscape:label="Chowan, NC"
       fill="#CCCCCC"
       stroke="#FFFFFF"
       stroke-width="1.0686"
       d="M581.46,416.691   l5.762-3.612l-0.77,6.367l1.402,7.003l0.15,0.193l0.473,0.308l0.957,0.258l1.766,0.337l3.93,0.21l-11.043,4.05l-2.803-12.189   L581.46,416.691"
       style="fill:#e27f90;fill-opacity:1" /><path
       id="NC_Hertford"
       inkscape:label="Hertford, NC"
       fill="#CCCCCC"
       stroke="#FFFFFF"
       stroke-width="1.0686"
       d="M570.609,403.84   l0.688,1.321l-0.121,0.529l-0.988,2.08l-0.746,0.248l0.404,3.055l0.141,0.214l0.619,0.531l1.184,0.5l3.838,1.091l1.186,0.134   l4.648,3.15l-0.176,2.925l-8.49,0.808l-4.785,0.627l-7.68,0.49l-1.152-0.13l1.635-6.894l2.443-6.014l-3.564-3.859l10.84-0.797   L570.609,403.84"
       style="fill:#4389e3;fill-opacity:1" /><path
       id="NC_Bertie"
       inkscape:label="Bertie, NC"
       fill="#CCCCCC"
       stroke="#FFFFFF"
       stroke-width="1.0686"
       d="M581.284,419.617   l2.803,12.189l-0.66,4.278l-2.625,4.724l-3.361,1.408l-8.664,0.09l-0.486-0.188l-6.736-3.365l-0.488-0.365l-5.955-6.023   l-0.33-0.662l-0.025-0.309l1.129-5.327l3.293-4.657l1.152,0.13l7.68-0.49l4.785-0.627L581.284,419.617"
       style="fill:#4389e3;fill-opacity:1" /><path
       id="NC_Gates"
       inkscape:label="Gates, NC"
       fill="#CCCCCC"
       stroke="#FFFFFF"
       stroke-width="1.0686"
       d="M586.982,402.001   l2.393,1.996l2.352,7.171l-4.504,1.911l-5.762,3.612l-4.648-3.15l-1.186-0.134l-3.838-1.091l-1.184-0.5l-0.619-0.531l-0.141-0.214   l-0.404-3.055l0.746-0.248l0.988-2.08l0.121-0.529l-0.688-1.321L586.982,402.001"
       style="fill:#e27f90;fill-opacity:1" /><path
       id="NC_Camden"
       inkscape:label="Camden, NC"
       fill="#CCCCCC"
       stroke="#FFFFFF"
       stroke-width="1.0686"
       d="M589.185,401.784   l7.801-0.752l7.445,6.234l4.891,3.44l0.234-0.163l0.584,0.122l0.936,0.493l2.961,2.818l3.721,6.688l0.014,0.14l-7.074-0.608   l-1.158-1.642l-3.068-2.714l-6.047-4.682l-8.303-5.009l-2.746-2.152l-2.393-1.996L589.185,401.784"
       style="fill:#d40000;fill-opacity:1" /><path
       id="NC_Pasquotank"
       inkscape:label="Pasquotank, NC"
       fill="#CCCCCC"
       stroke="#FFFFFF"
       stroke-width="1.0686"
       d="   M589.374,403.997l2.746,2.152l8.303,5.009l6.047,4.682l3.068,2.714l1.158,1.642l-5.906,4.203l-4.01-3.302l-4.986-3.667   l-3.707-5.459l-0.361-0.803L589.374,403.997"
       style="fill:#b9d7ff;fill-opacity:1" /><path
       id="NC_Perquimans"
       inkscape:label="Perquimans, NC"
       fill="#CCCCCC"
       stroke="#FFFFFF"
       stroke-width="1.0686"
       d="   M591.726,411.168l0.361,0.803l3.707,5.459l4.986,3.667l4.01,3.302l-9.66,3.357l-3.93-0.21l-1.766-0.337l-0.957-0.258l-0.473-0.308   l-0.15-0.193l-1.402-7.003l0.77-6.367L591.726,411.168"
       style="fill:#cc2f4a;fill-opacity:1" /><path
       id="NC_Beaufort"
       inkscape:label="Beaufort, NC"
       fill="#CCCCCC"
       stroke="#FFFFFF"
       stroke-width="1.0686"
       d="M587.038,449.153   l7.201,6.732l-3.986,3.124l-0.529,0.233l-0.162,0.214l-0.025,0.229l0.1,0.67l1.107,2.75l1.291,2.178l0.646,0.947l-2.424,3.046   l0.09,3.325l-0.055,0.498l-0.613,2.028l-9.416,1.926l-2.402-1.881l-13.945-7.996l-0.754-17.448l4.951,1.755l3.75,1.645l1.479-0.72   l4.521-2.444L587.038,449.153"
       style="fill:#cc2f4a;fill-opacity:1" /><path
       id="NC_Washington"
       inkscape:label="Washington, NC"
       fill="#CCCCCC"
       stroke="#FFFFFF"
       stroke-width="1.0686"
       d="   M583.427,436.084l0.035,0.038l0.844,0.461l0.281,0.054l2.607-0.404l4.381-1.159l1.426-0.743l0.527-0.586l2.68-1.019l0.404,0.209   l0.395,0.428l1.15,1.524l0.057,5.87l-1.213,2.812l0.836,5.002l-10.799,0.582l-9.176,0.812l2.939-9.157L583.427,436.084"
       style="fill:#86b6f2;fill-opacity:1" /><path
       id="NC_Tyrrell"
       inkscape:label="Tyrrell, NC"
       fill="#CCCCCC"
       stroke="#FFFFFF"
       stroke-width="1.0686"
       d="M614.29,448.579   l-16.453-0.008l-0.836-5.002l1.213-2.812l-0.057-5.87l3.676-2.052l2.494-1.092l1.621-0.437l5.064-0.475l1.785,1.054l0.48,0.541   l0.746,3.011l-0.178,0.699l-0.193,1.549l0.104,3.06l0.439,3.171l0.313,3.704L614.29,448.579"
       style="fill:#e27f90;fill-opacity:1" /><path
       id="NC_Dare"
       inkscape:label="Dare, NC"
       fill="#CCCCCC"
       stroke="#FFFFFF"
       stroke-width="1.0686"
       d="M614.29,448.579   l0.219-0.961l-0.313-3.704l-0.439-3.171l-0.104-3.06l0.193-1.549l0.178-0.699l2.229-3.283l0.369-0.325l1.648-0.838l0.871-0.173   l0.844-0.064l0.475,0.07l1.873,0.754l1.375,1.593l2.609,4.725l0.414,0.877l1.318,6.783l0.018,0.256l-0.355,3.839l-1.75,2.773   l-0.934,0.381l-1.771,0.36l-1.471-0.515L614.29,448.579 M628.423,432.656l0.746,0.45l0.713,0.705l0.902,1.169l0.631,1.427   l0.352,2.231l-0.238,0.386l-0.178,0.015l-2.012-0.597l-0.348-0.328l-2.688-5.056l-0.189-0.43l-0.008-0.117l0.359-0.252l0.57-0.048   l0.654,0.074L628.423,432.656 M629.038,473.318l0.854-0.352l0.682-0.349l3.738-2.006l4.027-2.336l0.201-0.869l0.426-5.583   l0.156-3.746l0.156-5.553l-0.275-2.554l-0.26-1.291l-0.428-1.361l-0.59-0.945l-0.467-0.75l-1.68-5.024l0.182-0.173l0.238,0.065   l0.078,0.03l0.076,0.125l0.98,1.51l0.357,0.759l1.037,2.674l0.578,1.908l0.803,2.536l0.078,2.398v0.715l0.021,3.399l-0.174,4.948   l-0.27,4.025l-0.574,4.865l-0.285,0.476l-0.512-0.08l-0.705-0.139l-0.891,0.153l-1.316,0.333l-1.088,0.519l-4.877,2.438   L629.038,473.318 M622.423,416.355l1.963,4.122l0.01,0.019l1.102,2.147l1.143,1.894l2.014,2.982l2.096,3.611l2.713,4.676   l1.738,3.489l-0.275,0.611l-3.787-5.313l-6.371-9.747l-3.252-8.163L622.423,416.355"
       style="fill:#e27f90;fill-opacity:1" /><path
       id="NC_Currituck"
       inkscape:label="Currituck, NC"
       fill="#CCCCCC"
       stroke="#FFFFFF"
       stroke-width="1.0686"
       d="M605.337,400.23   l11.193-1.105l5.893,17.23l-0.908,0.329l-3.551-10.165l-2.502-3.459l-0.328-0.175l-4.344-0.701l-0.674,0.208l-0.162,0.18   l-0.229,0.383l-0.047,0.653l0.648,1.279l0.398,0.587l0.398,0.273l1.961,1.177l2.412,3.38l6.385,12.749l0.551,1.651l-0.029,0.595   l-0.268-0.03l-1.719-0.947l-0.563-0.472l-1.023-1.3l-1.061-1.747l-0.014-0.14l-3.721-6.688l-2.961-2.818l-0.936-0.493l-0.584-0.122   l-0.234,0.163l-4.891-3.44l-7.445-6.234L605.337,400.23"
       style="fill:#d40000;fill-opacity:1" /><path
       id="NC_Hyde"
       inkscape:label="Hyde, NC"
       fill="#CCCCCC"
       stroke="#FFFFFF"
       stroke-width="1.0686"
       d="M614.29,448.579   l7.496,4.07l-1.102,0.651l-2.217,2.583l-0.162,0.257l-1.541,3.007l0.1,0.648l-0.086,0.572l-0.441,1.737l-0.1,0.359l-0.258,0.375   l-1.92,2.405l-3.057,2.665l-0.287,0.14l-11.232-0.178l-0.406-0.024l-3.555-0.853l-2.842-0.764l-0.646-0.947l-1.291-2.178   l-1.107-2.75l-0.1-0.67l0.025-0.229l0.162-0.214l0.529-0.233l3.986-3.124l-7.201-6.732l10.799-0.582L614.29,448.579    M629.038,473.318l0.279,0.768l-0.871,0.367l-0.863,0.544l-2.146,1.368l-3.051,2.08l-1.346,0.938l-1.564,1.473l-0.758,0.883   l-0.488,0.354l-0.113-0.185l0.068-0.212l0.904-1.874l0.912-1.038l3.055-2.123l4.594-2.9L629.038,473.318"
       style="fill:#e27f90;fill-opacity:1" /></g></svg>