<?xml version="1.0" encoding="utf-8"?>
<!-- Generator: Adobe Illustrator 16.0.0, SVG Export Plug-In . SVG Version: 6.00 Build 0)  -->
<!DOCTYPE svg PUBLIC "-//W3C//DTD SVG 1.1//EN" "http://www.w3.org/Graphics/SVG/1.1/DTD/svg11.dtd">
<svg version="1.1"
	 id="svg8597" xmlns:svg="http://www.w3.org/2000/svg" xmlns:rdf="http://www.w3.org/1999/02/22-rdf-syntax-ns#" xmlns:cc="http://creativecommons.org/ns#" xmlns:sodipodi="http://sodipodi.sourceforge.net/DTD/sodipodi-0.dtd" xmlns:dc="http://purl.org/dc/elements/1.1/" xmlns:inkscape="http://www.inkscape.org/namespaces/inkscape" inkscape:version="0.48.3.1 r9886" sodipodi:docname="North_Dakota_Presidential_Election_Results_by_County,_2008.svg" sodipodi:version="0.32" inkscape:output_extension="org.inkscape.output.svg.inkscape"
	 xmlns="http://www.w3.org/2000/svg" xmlns:xlink="http://www.w3.org/1999/xlink" x="0px" y="0px" width="273px" height="162.6px"
	 viewBox="0 0 273 162.6" enable-background="new 0 0 273 162.6" xml:space="preserve">
<defs>
	
	
		<inkscape:perspective  id="perspective8605" inkscape:vp_z="744.09448 : 526.18109 : 1" inkscape:vp_y="0 : 1000 : 0" inkscape:vp_x="0 : 526.18109 : 1" sodipodi:type="inkscape:persp3d" inkscape:persp3d-origin="372.04724 : 350.78739 : 1">
		</inkscape:perspective>
</defs>
<sodipodi:namedview  bordercolor="#666666" pagecolor="#ffffff" objecttolerance="10" borderopacity="1.0" guidetolerance="10" showguides="true" inkscape:cx="143.02258" showgrid="false" inkscape:cy="80.783671" inkscape:zoom="2" gridtolerance="10000" id="base" inkscape:window-width="1024" inkscape:window-y="27" inkscape:current-layer="layer1" inkscape:pageopacity="0.0" inkscape:window-height="717" inkscape:window-maximized="0" inkscape:pageshadow="2" inkscape:window-x="1066" inkscape:guide-bbox="true" inkscape:document-units="px">
	</sodipodi:namedview>
<path id="Cass_x2C__ND" sodipodi:nodetypes="ccccccccccccccc" inkscape:connector-curvature="0" fill="#E27F90" stroke="#FFFFFF" stroke-width="0.9393" d="
	M235.81,92.717l20.422-0.309l0.359,4.201l0.217,6.102l1.639,4.576l0.459,1.036l-0.258,10.542l0.097,2.734l0,0l-16.626,0.381
	l-13.472,0.27l-0.384-16.838l-0.847,0.03l-0.233-12.418L235.81,92.717"/>
<path id="Richland_x2C__ND" inkscape:connector-curvature="0" fill="#CC2F4A" stroke="#FFFFFF" stroke-width="0.9393" d="
	M258.737,121.389l1.622,4.154l5.026,10.987l1.622,10.052l0.029,0.841l0.038,1.052l0.008,0.212l-0.572,1.705l0.572,4.192
	l-22.512,0.802l-0.735-2.924l-0.314-2.936l-0.173-10.738l-0.63,0.022l-0.391-16.838L258.737,121.389"/>
<path id="Burke_x2C__ND" sodipodi:nodetypes="cccccccccccc" inkscape:connector-curvature="0" fill="#AA0000" stroke="#FFFFFF" stroke-width="0.9393" d="
	M86.5,16.939l-4.215-0.062l-0.067,4.006l-2.525,0.09l-0.331,8.438l-21.09-0.724l0.06-4.215l0.065-4.215l-1.69-0.15l0.579-13.292
	l29.528,1.054L86.5,16.939"/>
<path id="Divide_x2C__ND" inkscape:connector-curvature="0" fill="#D40000" stroke="#FFFFFF" stroke-width="0.9393" d="
	M21.414,5.145l35.653,1.678l-0.58,13.292l1.69,0.15l-0.06,4.215l-37.552-1.612L21.414,5.145"/>
<path id="Williams_x2C__ND" inkscape:connector-curvature="0" fill="#AA0000" stroke="#FFFFFF" stroke-width="0.9393" d="
	M20.563,22.658l37.551,1.612l-0.059,4.214l-0.345,8.226l1.902,0.145l-0.416,12.02l-1.489-0.579l-7.4-0.79l-3.364,0.332l-0.414,0.225
	l-0.807,0.872l-0.601,0.863l0,0l0.008,0.212l0.422,0.194l0.223,0.202l0.008,0.211l0.007,0.21l-0.204,0.219l-1.444,0.683
	l-2.297,0.713l-4.808,1.015l-0.421,0.015l-1.735-1.413l-0.676-1.241l-0.053-1.471l-0.668-1.03l-2.126-0.557l-0.629,0.234
	l-0.615,0.443l-1.022,0.878l0.008,0.211l0.007,0.21l0.653,0.608l-0.784,1.503l-2.871,2.208l-2.066,1.127l-1.045,0.247L18.92,53.26
	l0.799-18.777L20.563,22.658"/>
<path id="Mountrail_x2C__ND" sodipodi:nodetypes="ccccccccccccccccccccccccccccccc" inkscape:connector-curvature="0" fill="#CC2F4A" stroke="#FFFFFF" stroke-width="0.9393" d="
	M79.145,29.206l8.43,0.122l-0.122,8.43l1.683-0.06l-0.46,16.658l-0.112,2.742l1.06,0.172l0.412,5.673L73.168,62.49l-0.06,4.215
	l-8.341-3.494l-0.217-0.202l-0.007-0.212l-0.269-1.465l-0.022-0.631l0.376-1.276l0.202-0.219l1.215-1.516l0.616-0.444l0.616-0.444
	l0.398-0.646l0.391-0.857l-0.007-0.21l-0.007-0.211l-4.793-4.462l-2.593-1.804l-1.48-0.157l0.415-12.022l-1.902-0.144l0.345-8.227
	L79.145,29.206"/>
<path id="McKenzie_x2C__ND" inkscape:connector-curvature="0" fill="#D40000" stroke="#FFFFFF" stroke-width="0.9393" d="
	M59.201,48.875l1.48,0.159l2.593,1.802l4.793,4.464l0.008,0.212l0.007,0.209l-0.391,0.857l-0.398,0.646l-0.616,0.444l-0.616,0.441
	l-1.215,1.518l-0.203,0.219l-0.376,1.276l0.022,0.631l0.268,1.465l0.008,0.21l0.217,0.204L64.617,70.8l-14.973-0.52l-0.69,16.245
	l-18.771-0.807l-12.45-0.609l0.1-3.163l1.502-28.701l4.081,2.171l1.044-0.247l2.067-1.127l2.871-2.208l0.784-1.503l-0.653-0.608
	l-0.008-0.21l-0.007-0.212l1.022-0.878l0.615-0.443l0.624-0.234l2.126,0.558l0.675,1.029l0.052,1.471l0.675,1.241l1.735,1.413
	l0.421-0.015l4.808-1.015l2.291-0.713l1.451-0.684l0.208-0.219l-0.008-0.21l-0.007-0.212l-0.223-0.202l-0.429-0.194l-0.007-0.211
	l0,0l0.603-0.863l0.806-0.872l0.414-0.225l3.357-0.331l7.401,0.789L59.201,48.875"/>
<path id="Dunn_x2C__ND" inkscape:connector-curvature="0" fill="#D40000" stroke="#FFFFFF" stroke-width="0.9393" d="M73.116,66.917
	l0.992-1.722l0.202-0.217l0.202-0.218l0.421-0.015l1.924,0.772l0.429,0.197l0.007,0.209l0.007,0.209L77.1,66.564l-0.39,6.754
	l0.007,0.21l0.217,0.205l1.756,1.832l-0.209,12.014l2.111,0.137l-0.505,15.396l-12.652-0.393l0.053,1.473l-16.868-0.452
	l0.675-16.666l-2.111-0.135l0.668-16.665l14.98,0.519l0.16-7.167L73.116,66.917"/>
<path id="Stark_x2C__ND" sodipodi:nodetypes="cccccccccccc" inkscape:connector-curvature="0" fill="#AA0000" stroke="#FFFFFF" stroke-width="0.9393" d="
	M80.092,103.111l1.688-0.061l-0.163,1.48l-0.387,12.65l-0.066,4.215l-27.837-0.902l-10.127-0.48l0.667-16.877l6.536,0.188
	l16.867,0.452l-0.052-1.473L80.092,103.111"/>
<path id="Golden_Valley_x2C__ND" inkscape:connector-curvature="0" fill="#AA0000" stroke="#FFFFFF" stroke-width="0.9393" d="
	M30.182,85.718l-0.873,16.883l1.901,0.145l-0.667,16.875l-6.326-0.196l-0.271,4.223l-8.222-0.339l0.248-4.854l1.559-33.126
	L30.182,85.718"/>
<path id="Billings_x2C__ND" inkscape:connector-curvature="0" fill="#AA0000" stroke="#FFFFFF" stroke-width="0.9393" d="
	M30.182,85.718l18.771,0.807l2.111,0.136l-0.668,16.665l-6.541-0.189l-0.664,16.877l-12.66-0.603l0.664-16.877l-1.897-0.143
	L30.182,85.718"/>
<path id="Bowman_x2C__ND" inkscape:connector-curvature="0" fill="#AA0000" stroke="#FFFFFF" stroke-width="0.9393" d="
	M50.345,137.24l-0.69,16.246l-35.44-1.477l0.685-16.243L50.345,137.24"/>
<path id="Slope_x2C__ND" inkscape:connector-curvature="0" fill="#AA0000" stroke="#FFFFFF" stroke-width="0.9393" d="
	M30.547,119.62l12.66,0.603l10.128,0.482l-0.453,16.867l-2.321-0.129l-35.23-1.483l0.602-12.66l8.229,0.339l0.271-4.223
	L30.547,119.62"/>
<path id="Hettinger_x2C__ND" sodipodi:nodetypes="cccccccccc" inkscape:connector-curvature="0" fill="#AA0000" stroke="#FFFFFF" stroke-width="0.9393" d="
	M81.165,121.396l1.481,0.16l-0.445,17.079l1.69,0.148l-0.082,3.583l-16.868-0.453l0.075-3.791l-14.335-0.332l0.452-16.868
	L81.165,121.396"/>
<path id="Adams_x2C__ND" inkscape:connector-curvature="0" fill="#D40000" stroke="#FFFFFF" stroke-width="0.9393" d="
	M50.345,137.24l2.321,0.129L67,137.699l-0.074,3.796l16.868,0.452l-0.393,12.651l0,0l-31.841-0.971l-1.902-0.143L50.345,137.24"/>
<path id="Mercer_x2C__ND" sodipodi:nodetypes="cccccccccccccccccccccccccccccc" inkscape:connector-curvature="0" fill="#AA0000" stroke="#FFFFFF" stroke-width="0.9393" d="
	M78.698,75.776l0.646,0.399l9.595,3.238l2.126,0.558l0.422-0.016l0.821-0.45l1.645-1.112l1.037-0.459l8.393-0.931l0.637-0.022
	l0.217,0.202l1.962,1.827l0.007,0.209l-0.208,0.219l-1.239,0.676l-0.208,0.217l-0.601,0.865l-0.194,0.429l0.015,0.418l2.788,7.274
	l3.029,2.42l0.038,1.052l-16.868-0.452l-0.394,12.442l-10.745-0.248l0.163-1.48l-1.688,0.061l0.504-15.396l-2.111-0.137
	L78.698,75.776"/>
<path id="Grant_x2C__ND" sodipodi:nodetypes="ccccccccccccccccccccccc" inkscape:connector-curvature="0" fill="#AA0000" stroke="#FFFFFF" stroke-width="0.9393" d="
	M81.227,117.182l12.652,0.392l-0.066,4.216l14.126,0.34l-0.189,12.436l8.43,0.119l0.78,4.186l-3.043,3.268l-3.271,2.856
	l-3.074,2.425l-7.03,3.621l-2.705,0.939l0,0l-3.393-0.513l-5.104-1.5l-2.35-0.761l-2.932,0.314l0.158-7.378l0.083-3.582l-1.69-0.151
	l0.445-17.08l-1.481-0.157L81.227,117.182"/>
<path id="Sioux_x2C__ND" inkscape:connector-curvature="0" fill="#4389E3" stroke="#FFFFFF" stroke-width="0.9393" d="
	M116.544,138.884l0.361-1.698l3.253-3.275l1.458-0.474l0.436,0.406l1.269,0.167l3.379,0.089l0.828-0.239l3.524-1.603l0.238,0.625
	l0.691,1.66l0.239,0.833l0.053,1.476l-0.259,4.432l-0.199,0.427l-0.383,1.066l-0.608,0.655l-0.786,1.501l-0.381,1.066l0.023,0.633
	l0.523,2.932l0.227,0.412l3.155,5.786l-7.597-0.153l-0.842,0.03l-0.21,0.008l-4.005-0.066l-3.163-0.098l-9.905-0.28l-3.379-0.09
	l-1.896-0.143l-4.215-0.06l-5.064-0.243l-4.846-0.037l-4.005-0.067l-0.635,0.022l0,0l-0.421,0.015l0.233-5.274l2.938-0.313
	l2.344,0.758l5.11,1.503l3.387,0.513l0,0l2.705-0.94l7.034-3.619l3.073-2.429l3.268-2.854L116.544,138.884"/>
<path id="Morton_x2C__ND" inkscape:connector-curvature="0" fill="#D40000" stroke="#FFFFFF" stroke-width="0.9393" d="
	M81.617,104.531l10.962,0.24l27.611,0.492l0.03,0.839l0.955,3.127l2.366,7.288l1.578,2.893l1.742,1.624l2.359,1.181l1.954,1.612
	l0.668,1.03l0.917,2.074l-0.999,1.512l-0.194,0.637l-0.34,2.118l0.015,0.423l0.232,0.622l-3.524,1.603l-0.829,0.239l-3.379-0.09
	l-1.269-0.167l-0.437-0.405l-1.458,0.473l-3.252,3.276l-0.782,1.713l-0.781-4.185l-8.43-0.12l0.188-12.436l-14.126-0.34l0.066-4.215
	l-12.652-0.393L81.617,104.531"/>
<path id="Oliver_x2C__ND" inkscape:connector-curvature="0" fill="#AA0000" stroke="#FFFFFF" stroke-width="0.9393" d="
	M119.26,96.869l0.721,8.401l-27.611-0.492l0.394-12.442l16.868,0.452l-0.038-1.052l4.592-1.218l1.254-0.254l0.85,0.18l0.854,0.392
	l1.082,0.805l0.664,0.817l0.217,0.204L119.26,96.869"/>
<path id="Renville_x2C__ND" sodipodi:nodetypes="cccccccccccc" inkscape:connector-curvature="0" fill="#D40000" stroke="#FFFFFF" stroke-width="0.9393" d="
	M86.5,16.939l0.307-9.28l16.868,0.452l-0.37,13.284l1.48,0.159l-0.129,8.218l12.653,0.393l-0.06,4.215l-25.514-0.566l0.4-12.443
	l-5.696-0.216L86.5,16.939"/>
<path id="Ward_x2C__ND" sodipodi:nodetypes="ccccccccccccccccccccccc" inkscape:connector-curvature="0" fill="#CC2F4A" stroke="#FFFFFF" stroke-width="0.9393" d="
	M79.145,29.206l0.331-8.438l2.525-0.09l0.067-4.003l4.215,0.06l-0.06,4.215l5.689,0.219l-0.394,12.443l25.507,0.564l-0.059,4.215
	l0.836-0.03l0.255,13.051l0.973,3.757l0.419-0.015l-0.119,8.43l-29.513-0.633l-0.414-5.673l-1.06-0.172l0.114-2.742l0.459-16.658
	l-1.676,0.06l0.122-8.43L79.145,29.206"/>
<path id="McLean_x2C__ND" inkscape:connector-curvature="0" fill="#D40000" stroke="#FFFFFF" stroke-width="0.9393" d="
	M119.758,63.569l12.646,0.183l-0.115,8.43l-2.954-0.107l-0.12,2.533l-0.134,14.118l-2.526-0.122l-0.129,8.221l-7.161,0.045
	l-0.367-4.411l-0.223-0.202l-0.661-0.82l-1.081-0.803l-0.851-0.391l-0.85-0.182l-1.254,0.257l-4.592,1.216l-3.036-2.42l-2.787-7.272
	l-0.015-0.422l0.201-0.429l0.608-0.653l0.202-0.217l1.245-0.676l0.202-0.219l-0.007-0.209l-1.956-1.827l-0.223-0.202l-0.631,0.022
	l-8.393,0.931l-1.037,0.459l-1.645,1.112l-0.828,0.451l-0.417,0.014l-2.126-0.557l-9.594-3.238l-0.649-0.398l-1.75-1.834
	l-0.218-0.202l-0.007-0.212l0.391-6.753l0.195-0.429l-0.007-0.212l-0.008-0.209l-0.424-0.195l-1.922-0.774l-0.438,0.016
	l-0.202,0.217L73.9,65.414l-0.791,1.292l0.06-4.215l16.868,0.453L119.758,63.569"/>
<path id="Bottineau_x2C__ND" sodipodi:nodetypes="ccccccccccccccc" inkscape:connector-curvature="0" fill="#D40000" stroke="#FFFFFF" stroke-width="0.9393" d="
	M103.67,8.112l42.361,0.597l-0.151,13.488l1.262-0.045l-0.13,8.219l-4.215-0.06l-4.214-0.062l0.064-4.215l-12.645-0.181l-8.43-0.122
	l-0.066,4.215l-12.652-0.391l0.128-8.221l-1.48-0.157L103.67,8.112"/>
<path id="McHenry_x2C__ND" sodipodi:nodetypes="ccccccccccccccccccc" inkscape:connector-curvature="0" fill="#D40000" stroke="#FFFFFF" stroke-width="0.9393" d="
	M142.805,30.52l-0.122,8.22l0.835-0.03l0.179,16.845l1.053-0.038l0.3,8.416l-12.646-0.181l-12.646-0.183l0.122-8.43l-0.422,0.015
	l-0.971-3.757l-0.255-13.051l-0.84,0.03l0.115-8.43l0.066-4.215l8.43,0.122l12.645,0.181l-0.064,4.215L142.805,30.52"/>
<path id="Sheridan_x2C__ND" inkscape:connector-curvature="0" fill="#AA0000" stroke="#FFFFFF" stroke-width="0.9393" d="
	M145.049,63.933l4.215,0.06l-0.115,8.43l1.261-0.045l-0.038,16.644l-2.742-0.114l-18.548-0.181l0.134-14.118l0.12-2.533l2.954,0.107
	l0.115-8.43L145.049,63.933"/>
<path id="Burleigh_x2C__ND" inkscape:connector-curvature="0" fill="#CC2F4A" stroke="#FFFFFF" stroke-width="0.9393" d="
	M147.633,89.118l-0.25,16.65l1.261-0.045l-0.235,16.859l-19.393-0.362l-2.359-1.18l-1.749-1.624l-1.572-2.893l-2.366-7.289
	l-0.955-3.126l-0.03-0.84l-0.721-8.4l7.168,0.164l0.129-8.218l2.526,0.12L147.633,89.118"/>
<path id="Emmons_x2C__ND" sodipodi:nodetypes="cccccccccccccccccccccccccccccc" inkscape:connector-curvature="0" fill="#AA0000" stroke="#FFFFFF" stroke-width="0.9393" d="
	M148.396,122.372l5.476,0.017l-0.236,16.86l1.262-0.045l-0.254,16.436l-20.872-0.31l-0.421,0.016l-3.156-5.783l-0.225-0.415
	l-0.526-2.93l-0.022-0.63l0.384-1.067l0.79-1.503l0.608-0.653l0.384-1.066l0.195-0.43l0.264-4.434l-0.052-1.471l-0.246-0.835
	l-0.69-1.661l-0.232-0.622l-0.239-0.625l-0.015-0.42l0.347-2.118l0.193-0.641l0.999-1.509l-0.917-2.074l-0.668-1.028l-1.955-1.618
	L148.396,122.372"/>
<path id="McIntosh_x2C__ND" inkscape:connector-curvature="0" fill="#D40000" stroke="#FFFFFF" stroke-width="0.9393" d="
	M155.11,139.406l28.229,0.048l1.053-0.038l-0.039,16.643l-24.014,0.013l-5.478-0.015L155.11,139.406"/>
<path id="Logan_x2C__ND" sodipodi:nodetypes="ccccccc" inkscape:connector-curvature="0" fill="#AA0000" stroke="#FFFFFF" stroke-width="0.9393" d="
	M154.084,122.381l15.585,0.074l13.913,0.138l-0.038,16.854l-28.223-0.048l-1.263,0.045L154.084,122.381"/>
<path id="Kidder_x2C__ND" inkscape:connector-curvature="0" fill="#AA0000" stroke="#FFFFFF" stroke-width="0.9393" d="
	M147.633,89.118l2.742,0.111l18.325-0.021l-0.045,16.643l1.052-0.037l-0.03,16.853l-15.585-0.076l-5.483-0.015l0.243-16.86
	l-1.264,0.045L147.633,89.118"/>
<path id="Wells_x2C__ND" inkscape:connector-curvature="0" fill="#D40000" stroke="#FFFFFF" stroke-width="0.9393" d="
	M149.264,63.992l8.43,0.122l16.854,0.031l0.09,8.422l1.051-0.038l-0.066,4.006l0.021,12.426l-7.161,0.046l-18.325,0.021
	l0.045-16.644l-1.268,0.045L149.264,63.992"/>
<path id="Pierce_x2C__ND" sodipodi:nodetypes="ccccccccccccccc" inkscape:connector-curvature="0" fill="#D40000" stroke="#FFFFFF" stroke-width="0.9393" d="
	M147.02,30.581l21.284,0.083l0.083,8.422l-11.586-0.009l-0.03,16.853l1.268-0.045l-0.121,8.43l-8.431-0.12l-4.214-0.061
	l-0.301-8.416l-1.052,0.038l-0.178-16.845l-0.848,0.03l0.13-8.219L147.02,30.581"/>
<path id="Rolette_x2C__ND" inkscape:connector-curvature="0" fill="#86B6F2" stroke="#FFFFFF" stroke-width="0.9393" d="
	M147.02,30.581l0.129-8.221l-1.262,0.045l0.152-13.487l21.276,0.085l0.064,13.48l1.052-0.038l-0.128,8.219L147.02,30.581"/>
<path id="Towner_x2C__ND" inkscape:connector-curvature="0" fill="#CC2F4A" stroke="#FFFFFF" stroke-width="0.9393" d="
	M167.308,8.794l17.068,0.023l-0.113,8.64l0.172,4.838l0.843-0.03l0.084,8.422l0.09,8.423l-7.37,0.052l-9.482-0.083l-0.09-8.423
	l0.129-8.218l-1.052,0.038L167.308,8.794"/>
<path id="Benson_x2C__ND" sodipodi:nodetypes="cccccccccccccccccc" inkscape:connector-curvature="0" fill="#F2B3BE" stroke="#FFFFFF" stroke-width="0.9393" d="
	M168.171,38.885l9.481,0.084l-0.055,10.322l0.231,0.414l4.72,2.57l2.276,4.763l1.045-0.247l4.348-2.261l1.78,2.675l4.132,3.644
	l3.164,0.099l0.12,3.365l-25.275,0.06l-16.853-0.033l0.114-8.43l-1.261,0.045l0.031-16.853L168.171,38.885"/>
<path id="Eddy_x2C__ND" inkscape:connector-curvature="0" fill="#CC2F4A" stroke="#FFFFFF" stroke-width="0.9393" d="
	M174.547,64.145l25.274-0.057l0.938,8.392l0.143,3.996l-25.276,0.06l0.067-4.006l-1.052,0.038L174.547,64.145"/>
<path id="Foster_x2C__ND" inkscape:connector-curvature="0" fill="#D40000" stroke="#FFFFFF" stroke-width="0.9393" d="
	M175.621,76.535l25.276-0.06l0.232,12.631l-25.484,0.065L175.621,76.535"/>
<path id="Stutsman_x2C__ND" sodipodi:nodetypes="ccccccccccccc" inkscape:connector-curvature="0" fill="#CC2F4A" stroke="#FFFFFF" stroke-width="0.9393" d="
	M168.692,88.999l7.155-0.045l25.274-0.058l1.053-0.037l0.149,4.207l0.028,12.638l0.844-0.029l0.178,16.845l-20.008,0.081
	l-13.906-0.138l0.031-16.853l-1.049,0.037L168.692,88.999"/>
<path id="LaMoure_x2C__ND" inkscape:connector-curvature="0" fill="#CC2F4A" stroke="#FFFFFF" stroke-width="0.9393" d="
	M203.378,122.52l13.48-0.06l0.179,16.846l-32.638,0.319l-1.053,0.037l0.031-16.853L203.378,122.52"/>
<path id="Dickey_x2C__ND" inkscape:connector-curvature="0" fill="#CC2F4A" stroke="#FFFFFF" stroke-width="0.9393" d="
	M184.601,139.409l32.638-0.32l1.053-0.037l0.177,16.633l-24.216,0.23l-9.481-0.083L184.601,139.409"/>
<path id="Sargent_x2C__ND" inkscape:connector-curvature="0" fill="#E27F90" stroke="#FFFFFF" stroke-width="0.9393" d="
	M218.082,139.06l24.417-0.451l0.637-0.022l0.167,10.736l0.319,2.938l0.737,2.923l-25.261,0.479l-1.052,0.038L218.082,139.06"/>
<path id="Ransom_x2C__ND" inkscape:connector-curvature="0" fill="#E27F90" stroke="#FFFFFF" stroke-width="0.9393" d="
	M216.851,122.252l11.788-0.211l13.473-0.271l0.384,16.838l-24.418,0.451l-1.052,0.037L216.851,122.252"/>
<path id="Barnes_x2C__ND" sodipodi:nodetypes="ccccccccccc" inkscape:connector-curvature="0" fill="#CC2F4A" stroke="#FFFFFF" stroke-width="0.9393" d="
	M218.964,92.896l8.423-0.091l0.227,12.421l0.843-0.03l0.386,16.838l-11.789,0.211l-13.479,0.057l-0.181-16.846l-0.832,0.03
	l-0.028-12.636L218.964,92.896"/>
<path id="Griggs_x2C__ND" sodipodi:nodetypes="ccccccc" inkscape:connector-curvature="0" fill="#CC2F4A" stroke="#FFFFFF" stroke-width="0.9393" d="
	M217.801,72.082l1.163,20.813l-16.844,0.179l-0.15-4.208l-1.052,0.038l-0.171-16.636L217.801,72.082"/>
<path id="Steele_x2C__ND" inkscape:connector-curvature="0" fill="#E27F90" stroke="#FFFFFF" stroke-width="0.9393" d="
	M217.801,72.082l3.365-0.12l13.473-0.268l1.164,20.811l-8.423,0.091l-8.424,0.089L217.801,72.082"/>
<path id="Nelson_x2C__ND" inkscape:connector-curvature="0" fill="#CC2F4A" stroke="#FFFFFF" stroke-width="0.9393" d="
	M207.435,47.175l12.63-0.238l0.091,8.423l0.631-0.022l0,0l0.17,16.633l-3.365,0.12l-17.061,0.186l-0.93-8.393l-0.12-3.365
	l0.029-5.058l3.371-0.12l-0.09-8.423L207.435,47.175"/>
<path id="Ramsey_x2C__ND" sodipodi:nodetypes="cccccccccccccccccccc" inkscape:connector-curvature="0" fill="#CC2F4A" stroke="#FFFFFF" stroke-width="0.9393" d="
	M206.421,30.571l-0.007,5.686l0.938,2.707l0.09,8.422l-4.207,0.15l0.09,8.423l-3.368,0.12l-0.029,5.055l-3.163-0.098l-4.133-3.644
	l-1.779-2.677l-4.343,2.261l-1.044,0.249l-2.277-4.763l-4.725-2.572l-0.232-0.411l0.055-10.325l7.371-0.052l-0.084-8.423
	L206.421,30.571"/>
<path id="Cavalier_x2C__ND" inkscape:connector-curvature="0" fill="#CC2F4A" stroke="#FFFFFF" stroke-width="0.9393" d="
	M184.161,8.825l33.905-0.367l0.265,13.473l0.637-0.023l0.084,8.423l-12.639,0.029l-21.27,0.126l-0.09-8.422l-0.84,0.03l-0.173-4.838
	L184.161,8.825"/>
<path id="Pembina_x2C__ND" inkscape:connector-curvature="0" fill="#D40000" stroke="#FFFFFF" stroke-width="0.9393" d="
	M218.063,8.458l23.156-0.403l-0.203,0.219l-0.188,0.638l0.022,0.631l0.248,1.044l2.589,7.49l0.698,1.871l1.586,3.104l-2.088,6.604
	l0.216-0.007l-25.055,0.473l-0.084-8.422l-0.637,0.022L218.063,8.458"/>
<path id="Walsh_x2C__ND" inkscape:connector-curvature="0" fill="#CC2F4A" stroke="#FFFFFF" stroke-width="0.9393" d="
	M206.421,30.571l12.638-0.03l25.051-0.471l0.217,0.204l0.873,0.81l0.621,11.563l-0.902,4.245l-24.629,0.457l-12.629,0.24
	l-0.085-8.422l-0.939-2.705L206.421,30.571"/>
<path id="Grand_Forks_x2C__ND" inkscape:connector-curvature="0" fill="#E27F90" stroke="#FFFFFF" stroke-width="0.9393" d="
	M244.911,46.683l0.037,1.052l0.008,0.209l0.948,2.917l3.56,11.247l4.553,9.528l-19.158,0.471l-13.466,0.27l-0.17-16.636l0,0
	l-0.634,0.022l-0.084-8.422L244.911,46.683"/>
<path id="Traill_x2C__ND" inkscape:connector-curvature="0" fill="#E27F90" stroke="#FFFFFF" stroke-width="0.9393" d="
	M234.646,71.904l19.15-0.473l1.352,8.378l1.087,12.599l-20.422,0.309L234.646,71.904"/>
<polyline fill="none" stroke="#FFFFFF" stroke-width="0.9393" points="267.082,154.57 244.563,155.16 219.304,155.641 
	218.252,155.678 194.035,155.907 184.554,155.825 160.546,155.837 155.063,155.823 134.204,155.514 133.783,155.529 
	126.189,155.377 125.349,155.406 125.137,155.414 121.138,155.345 117.975,155.248 108.064,154.969 104.691,154.877 102.79,154.737 
	98.575,154.676 93.514,154.435 88.664,154.396 84.665,154.328 84.023,154.352 83.604,154.366 51.757,153.395 49.862,153.253 
	14.418,151.776 15.105,135.532 15.708,122.872 15.956,118.018 17.515,84.892 17.611,81.73 19.117,53.027 19.923,34.252 
	20.563,22.644 21.414,5.129 "/>
</svg>
