<?xml version="1.0" encoding="utf-8"?>
<!-- Generator: Adobe Illustrator 16.0.0, SVG Export Plug-In . SVG Version: 6.00 Build 0)  -->
<!DOCTYPE svg PUBLIC "-//W3C//DTD SVG 1.1//EN" "http://www.w3.org/Graphics/SVG/1.1/DTD/svg11.dtd">
<svg version="1.1"
	 id="svg7709" xmlns:svg="http://www.w3.org/2000/svg" xmlns:rdf="http://www.w3.org/1999/02/22-rdf-syntax-ns#" xmlns:cc="http://creativecommons.org/ns#" xmlns:sodipodi="http://sodipodi.sourceforge.net/DTD/sodipodi-0.dtd" xmlns:dc="http://purl.org/dc/elements/1.1/" xmlns:inkscape="http://www.inkscape.org/namespaces/inkscape" inkscape:version="0.48.3.1 r9886" sodipodi:docname="Nebraska_Presidential_Election_Results_by_County,_2008.svg" sodipodi:version="0.32" inkscape:output_extension="org.inkscape.output.svg.inkscape"
	 xmlns="http://www.w3.org/2000/svg" xmlns:xlink="http://www.w3.org/1999/xlink" x="0px" y="0px" width="282.1px" height="133px"
	 viewBox="0 0 282.1 133" enable-background="new 0 0 282.1 133" xml:space="preserve">
<defs>
	
	
		<inkscape:perspective  id="perspective7717" inkscape:persp3d-origin="372.04724 : 350.78739 : 1" sodipodi:type="inkscape:persp3d" inkscape:vp_y="0 : 1000 : 0" inkscape:vp_x="0 : 526.18109 : 1" inkscape:vp_z="744.09448 : 526.18109 : 1">
		</inkscape:perspective>
</defs>
<sodipodi:namedview  bordercolor="#666666" pagecolor="#ffffff" objecttolerance="10" borderopacity="1.0" guidetolerance="10" inkscape:cx="151.9506" showgrid="false" inkscape:cy="89.805379" inkscape:zoom="2" gridtolerance="10000" id="base" inkscape:window-width="1024" inkscape:window-y="-16" inkscape:current-layer="layer1" inkscape:pageopacity="0.0" inkscape:window-height="721" inkscape:window-maximized="0" inkscape:pageshadow="2" inkscape:window-x="926" inkscape:document-units="px">
	</sodipodi:namedview>
<g>
	<path id="NE_Dawes_1_" fill="#D40000" stroke="#FFFFFF" stroke-width="0.9621" d="M28.241,4.931L43.375,5.55l6.262,0.248
		l-0.38,8.379l0.474,2.258l-0.479,11.25l-20.318-0.682l-1.07-0.048l0.677-13.57l-0.309-1.512l-0.166-2.984L28.241,4.931"/>
	<path id="NE_Sioux_1_" fill="#AA0000" stroke="#FFFFFF" stroke-width="0.9621" d="M28.241,4.931l-0.176,3.958l0.166,2.984
		l0.309,1.512l-0.677,13.57l1.07,0.048l-0.68,13.529l1.284,0.065l-0.164,3.391l-19.82-0.81l2.245-38.985L28.241,4.931"/>
	<path id="NE_Richardson_1_" fill="#D40000" stroke="#FFFFFF" stroke-width="0.9621" d="M256.775,113.219l14.305-0.51l8.021,9.969
		l-0.99,0.032l-14.044,0.498l-6.985,0.222L256.775,113.219"/>
	<path id="NE_Pawnee_1_" fill="#D40000" stroke="#FFFFFF" stroke-width="0.9621" d="M242.619,113.607l12.395-0.356l1.761-0.032
		l0.306,10.211l-7.15,0.217l-7.036,0.188L242.619,113.607"/>
	<path id="NE_Nemaha_1_" fill="#CC2F4A" stroke="#FFFFFF" stroke-width="0.9621" d="M254.689,103.03l11.108-0.397l0.385-0.832
		l1.192,0.938l-0.639,1.162l-0.344,0.323l0.191,0.683l2.179,4.742l2.241,1.932l0.086,0.194l-0.002,0.073l0.001,0.051l-0.01,0.707
		l0.004,0.107l-14.306,0.508l-1.761,0.032l-0.325-10.223"/>
	<path id="NE_Johnson_1_" fill="#CC2F4A" stroke="#FFFFFF" stroke-width="0.9621" d="M254.689,103.03l0.325,10.223l-12.395,0.354
		l-0.276-10.195L254.689,103.03"/>
	<path id="NE_Otoe_1_" fill="#CC2F4A" stroke="#FFFFFF" stroke-width="0.9621" d="M260.955,92.625l3.027,7.675l1.814,2.333
		l-11.108,0.396l-12.347,0.38l-0.285-10.226L260.955,92.625"/>
	<path id="NE_Cass_1_" fill="#CC2F4A" stroke="#FFFFFF" stroke-width="0.9621" d="M246.266,82.852l0.243,0.332l0.459,0.369
		l2.31,1.145l0.274,0.031l0.827-0.328l0.902-0.458l0.47-0.366l0.308-0.416l0.669-0.64l0.296-0.192l1.339-0.518l0.69-0.041
		l4.238,0.112l0.231,0.028l0.707,0.443l1.545,5.633l-0.815,4.641l-18.898,0.563l-0.236-9.077L246.266,82.852"/>
	<path id="NE_Sarpy_1_" fill="#E27F90" stroke="#FFFFFF" stroke-width="0.9621" d="M245.841,77.188l12.462-0.43l2.2,1.155
		l-0.278,4.438l-0.704-0.443l-0.232-0.028l-4.235-0.111l-0.691,0.039l-1.34,0.518l-0.295,0.193l-0.673,0.639l-0.305,0.416
		l-0.469,0.367l-0.902,0.458l-0.827,0.328l-0.275-0.031l-2.31-1.146l-0.461-0.369l-0.241-0.332L245.841,77.188"/>
	<path id="NE_Douglas_1_" fill="#B9D7FF" stroke="#FFFFFF" stroke-width="0.9621" d="M241.207,69.357l4.367-0.109l12.021-0.37
		l0.708,7.882l-12.462,0.428L241.207,69.357"/>
	<path id="NE_Washington_1_" fill="#CC2F4A" stroke="#FFFFFF" stroke-width="0.9621" d="M241.713,57.982l9.889-0.245l4.508,6.726
		l1.485,4.412l-12.021,0.373l-3.065-3.396l-0.309-0.697l-0.302-0.925L241.713,57.982"/>
	<path id="NE_Burt_1_" fill="#CC2F4A" stroke="#FFFFFF" stroke-width="0.9621" d="M246.557,43.632l4.272,6.952l0.771,7.155
		l-9.888,0.245l-3.439-2.186l-0.276-10.715L246.557,43.632"/>
	<path id="NE_Dakota_1_" fill="#E27F90" stroke="#FFFFFF" stroke-width="0.9621" d="M235.04,25.289l5.855,1.213l1.04,0.038
		l0.408,0.134l0.331,0.407l0.138,0.443l0.035,0.6l-0.195,0.548l0.501,4.453l0.972,1.601l-11.604,0.253L235.04,25.289"/>
	<path id="NE_Dixon_1_" fill="#D40000" stroke="#FFFFFF" stroke-width="0.9621" d="M223.356,16.411l6.378,2.022l2.503,1.386
		l0.358,0.696l0.191,0.647l-0.098,0.463l-0.006,0.354l0.104,0.349l2.254,2.962l-2.519,9.69l-2.891,0.604l-5.997-3.259
		L223.356,16.411"/>
	<path id="NE_Wayne_1_" fill="#D40000" stroke="#FFFFFF" stroke-width="0.9621" d="M213.02,32.513l10.612-0.191l5.997,3.259
		l0.105,6.804l-5.948,0.126l-10.622,0.197L213.02,32.513"/>
	<path id="NE_Pierce_1_" fill="#AA0000" stroke="#FFFFFF" stroke-width="0.9621" d="M198.98,42.99l-0.159-13.609l10.587-0.192
		l3.612,3.324l0.146,10.192L198.98,42.99"/>
	<path id="NE_Cedar_1_" fill="#AA0000" stroke="#FFFFFF" stroke-width="0.9621" d="M209.156,12.937l1.864-0.297l2.854,0.021
		l2.15,0.173l3.574,2.688l3.759,0.888l0.276,15.911l-10.613,0.191l-3.611-3.324L209.156,12.937"/>
	<path id="NE_Knox_1_" fill="#D40000" stroke="#FFFFFF" stroke-width="0.9621" d="M184.326,12.215l4.287,1.67l3.366,2.573
		l0.659,0.25l0.535,0.06l0.498-0.04l1.521-0.261l0.395-0.248l0.826-0.758l0.607-0.877l3.432-1.317l2.641,0.24l6.06-0.57
		l0.252,16.253l-10.587,0.192l-14.096,0.19l-0.229-12.665L184.326,12.215"/>
	<path id="NE_Dodge_1_" fill="#CC2F4A" stroke="#FFFFFF" stroke-width="0.9621" d="M238.274,55.798l3.439,2.186l0.184,6.246
		l0.303,0.928l0.309,0.694l3.064,3.396l-4.366,0.109l-13.417-2.016l-0.002-0.04l-0.255-11.273L238.274,55.798"/>
	<path id="NE_Colfax_1_" fill="#CC2F4A" stroke="#FFFFFF" stroke-width="0.9621" d="M224.05,56.098l3.485-0.071l0.254,11.274
		l-0.44,0.002l-0.416,0.119l-4.54,2.252l-3.2,0.798l-2.03,0.045l-0.226-14.27L224.05,56.098"/>
	<path id="NE_Cuming_1_" fill="#D40000" stroke="#FFFFFF" stroke-width="0.9621" d="M223.786,42.51l5.948-0.126l8.263,2.699
		l0.276,10.715l-10.739,0.231l-3.485,0.071L223.786,42.51"/>
	<path id="NE_Stanton_1_" fill="#D40000" stroke="#FFFFFF" stroke-width="0.9621" d="M223.786,42.51l0.26,13.587l-7.111,0.15
		l-3.541,0.061l-0.231-13.602L223.786,42.51"/>
	<path id="NE_Madison_1_" fill="#D40000" stroke="#FFFFFF" stroke-width="0.9621" d="M198.98,42.99l14.185-0.283l0.231,13.602
		l-14.152,0.258l-0.147-6.802L198.98,42.99"/>
	<path id="NE_Antelope_1_" fill="#AA0000" stroke="#FFFFFF" stroke-width="0.9621" d="M198.98,42.99l0.116,6.772l-14.111,0.22
		l-0.188-6.801l-0.074-13.611l14.097-0.191L198.98,42.99"/>
	<path id="NE_Boone_1_" fill="#AA0000" stroke="#FFFFFF" stroke-width="0.9621" d="M184.985,49.983l14.111-0.22l0.147,6.802
		l0.122,8.444l-1.695,0.044l-5.121,1.24l-1.435,0.599l-5.893,0.064l-0.195-10.19L184.985,49.983"/>
	<path id="NE_Platte_1_" fill="#D40000" stroke="#FFFFFF" stroke-width="0.9621" d="M213.396,56.308l3.541-0.061l0.225,14.27
		l-3.535-0.591l-7.051,2.549l-3.275-2.381l-3.933-5.084l-0.122-8.445L213.396,56.308"/>
	<path id="NE_Saunders_1_" fill="#D40000" stroke="#FFFFFF" stroke-width="0.9621" d="M227.791,67.342l13.416,2.016l4.636,7.83
		l0.424,5.663l-4.445,1.26l-0.014-1.129l-13.752,0.303L227.791,67.342"/>
	<path id="NE_Seward_1_" fill="#D40000" stroke="#FFFFFF" stroke-width="0.9621" d="M227.984,83.286l0.221,13.622l-14.125,0.27
		l-0.236-13.629L227.984,83.286"/>
	<path id="NE_Butler_1_" fill="#D40000" stroke="#FFFFFF" stroke-width="0.9621" d="M213.845,83.547l-0.219-13.621l3.535,0.591
		l2.03-0.044l3.2-0.799l4.539-2.251l0.414-0.12l0.442-0.002l0.002,0.038l0.265,15.944l-0.072,0.002L213.845,83.547"/>
	<path id="NE_Polk_1_" fill="#D40000" stroke="#FFFFFF" stroke-width="0.9621" d="M206.573,72.475l7.051-2.549l0.219,13.621
		l-14.151,0.233l-0.12-4.969L206.573,72.475"/>
	<path id="NE_York_1_" fill="#D40000" stroke="#FFFFFF" stroke-width="0.9621" d="M213.845,83.547l0.236,13.629l-14.17,0.209
		l-0.045,0.002l-0.17-13.607L213.845,83.547"/>
	<path id="NE_Hamilton_1_" fill="#D40000" stroke="#FFFFFF" stroke-width="0.9621" d="M199.694,83.78l0.171,13.609l-14.037,0.177
		l-0.145,0.004l-0.044-6.803l1.472-1.75l3.152-3.156l3.754-3.018l1.139-0.801l0.183,0.246l0.044-0.002l0.667-0.25l1.576-0.775
		l0.379-0.293l0.473-0.541l0.856-1.158l0.243-0.461L199.694,83.78"/>
	<path id="NE_Nance_1_" fill="#D40000" stroke="#FFFFFF" stroke-width="0.9621" d="M185.224,66.957l5.892-0.065l1.436-0.598
		l5.12-1.242l1.696-0.042l3.933,5.084l-0.006,3.352l-4.39,0.115l-4.678,0.608l-2.703,0.628l-1.306,0.566l-3.813,0.051l-0.635,0.004
		l0.01-5.064l-0.39-0.007l-0.155,0.005L185.224,66.957"/>
	<path id="NE_Merrick_1_" fill="#D40000" stroke="#FFFFFF" stroke-width="0.9621" d="M185.389,70.349l0.39,0.006l-0.01,5.063
		l0.633-0.001l3.814-0.052l1.306-0.566l2.703-0.627l4.679-0.609l4.389-0.115l0.007-3.35l3.274,2.378l-7,6.336l-0.242,0.462
		l-0.854,1.158l-0.473,0.54l-0.38,0.293l-1.576,0.774l-0.668,0.252l-0.043,0.001l-0.184-0.245l-1.139,0.801l-3.754,3.018
		l-3.151,3.156l-1.475,1.75l-0.171-6.822L185.389,70.349"/>
	<path id="NE_Hall_1_" fill="#CC2F4A" stroke="#FFFFFF" stroke-width="0.9621" d="M172.025,84.042l13.439-0.096l0.173,6.821
		l0.045,6.803l-13.625,0.07L172.025,84.042"/>
	<path id="NE_Howard_1_" fill="#D40000" stroke="#FFFFFF" stroke-width="0.9621" d="M171.317,70.434l13.915-0.079l0.155-0.005
		l0.075,13.598l-13.439,0.094l-0.821-0.004L171.317,70.434"/>
	<path id="NE_Sherman_1_" fill="#D40000" stroke="#FFFFFF" stroke-width="0.9621" d="M171.087,70.441l0.229-0.008l-0.113,13.604
		l-14.189,0.018l0.186-13.578L171.087,70.441"/>
	<path id="NE_Boyd_1_" fill="#AA0000" stroke="#FFFFFF" stroke-width="0.9621" d="M155.904,7.788l22.715-0.102l5.708,4.529
		l0.166,4.692l-4.761-0.16l-3.259-0.468l-4.971-1.413l-2.732-0.797l-3.104-1.555l-0.756-0.682l-0.366-0.1l-0.472,0.002l-0.342,0.088
		l-5.131,2.201l-2.57,1.136l-0.225,0.184L155.904,7.788"/>
	<path id="NE_Holt_1_" fill="#AA0000" stroke="#FFFFFF" stroke-width="0.9621" d="M155.802,15.345l0.225-0.184l2.57-1.136
		l5.131-2.201l0.342-0.088l0.472-0.003l0.366,0.1l0.758,0.682l3.103,1.555l2.734,0.797l4.969,1.413l3.26,0.468l4.76,0.16
		l0.23,12.665l0.074,13.611l-14.029,0.106l-14.059,0.055h-0.358l0.063-12.463l-0.299-13.414L155.802,15.345"/>
	<path id="NE_Valley_1_" fill="#AA0000" stroke="#FFFFFF" stroke-width="0.9621" d="M156.987,56.924l13.854-0.025l0.217-0.007
		l0.03,13.549l-13.886,0.035L156.987,56.924"/>
	<path id="NE_Greeley_1_" fill="#D40000" stroke="#FFFFFF" stroke-width="0.9621" d="M185.029,56.766l0.195,10.191l0.01,3.396
		l-13.915,0.079l-0.229,0.008l-0.03-13.55L185.029,56.766"/>
	<path id="NE_Wheeler_1_" fill="#AA0000" stroke="#FFFFFF" stroke-width="0.9621" d="M184.797,43.183l0.188,6.8l0.044,6.783
		l-13.972,0.126l-0.217,0.007l-0.073-13.611L184.797,43.183"/>
	<path id="NE_Garfield_1_" fill="#AA0000" stroke="#FFFFFF" stroke-width="0.9621" d="M156.681,56.914l0.026-13.571l14.06-0.056
		l0.071,13.611l-13.854,0.025L156.681,56.914"/>
	<path id="NE_Loup_1_" fill="#AA0000" stroke="#FFFFFF" stroke-width="0.9621" d="M156.349,43.342l0.358,0.001l-0.026,13.571
		l-14.219-0.017l0.113-13.521l0.749,0.012L156.349,43.342"/>
	<path id="NE_Rock_1_" fill="#AA0000" stroke="#FFFFFF" stroke-width="0.9621" d="M156.349,43.342l-13.024,0.045l0.084-13.627
		l-0.373,0.012l0.064-11.591l2.284,0.387l1.676,0.125l0.604-0.104l1.051-0.405l6.534-2.468l0.256-0.119l0.294-0.252l0.313,2.122
		l0.299,13.413L156.349,43.342"/>
	<path id="NE_Keya_Paha_1_" fill="#AA0000" stroke="#FFFFFF" stroke-width="0.9621" d="M127.548,7.622l19.958,0.152l8.399,0.014
		l-0.102,7.557l-0.294,0.251l-0.256,0.12l-6.535,2.468l-1.05,0.404l-0.605,0.104l-1.674-0.124l-2.285-0.388l-0.26,0.103
		l-0.558,0.018l-2.23-0.3l-8.348-2.011l-1.75-0.611l-0.583-0.296l-1.928-1.515L127.548,7.622"/>
	<path id="NE_Brown_1_" fill="#AA0000" stroke="#FFFFFF" stroke-width="0.9621" d="M143.1,18.182l-0.064,11.591l0.373-0.012
		l-0.083,13.627l-0.75-0.013l-14.624-0.092l0.197-13.579l-0.702-16.134l1.927,1.516l0.583,0.295l1.75,0.611l8.347,2.01l2.231,0.3
		l0.558-0.018L143.1,18.182"/>
	<path id="NE_Blaine_1_" fill="#AA0000" stroke="#FFFFFF" stroke-width="0.9621" d="M124.909,43.246l3.041,0.039l14.625,0.092
		l-0.113,13.521l-17.264-0.103l-0.446-0.015L124.909,43.246"/>
	<path id="NE_Custer_1_" fill="#AA0000" stroke="#FFFFFF" stroke-width="0.9621" d="M142.462,56.897l14.219,0.017l0.304,0.01
		l0.215,13.552l-0.186,13.577l-6.741,0.016l-24.67-0.155l-0.436,0.001l0.104-4.544l0.148-3.911l0.018-4.949l-0.454-0.161
		l0.216-13.557L142.462,56.897"/>
	<path id="NE_Buffalo_1_" fill="#D40000" stroke="#FFFFFF" stroke-width="0.9621" d="M150.273,84.068l6.741-0.016l14.189-0.018
		l0.821,0.007l0.032,13.599l-0.09,0.368l-0.978,0.138l-2.232,0.496l-1.174,0.568l-1.259,0.268l-3.793-0.001l-4.425-0.211
		l-0.266-0.079l-7.386-0.407L150.273,84.068"/>
	<path id="NE_Dawson_1_" fill="#CC2F4A" stroke="#FFFFFF" stroke-width="0.9621" d="M125.603,83.915l24.671,0.155l0.18,14.709
		l-7.022-0.577l-10.494-0.648l-7.509-0.085L125.603,83.915"/>
	<path id="NE_Phelps_1_" fill="#AA0000" stroke="#FFFFFF" stroke-width="0.9621" d="M143.434,98.202l7.021,0.577l7.386,0.406
		l-0.046,12.13l-14.088-0.039l-0.363-0.008L143.434,98.202"/>
	<path id="NE_Kearney_1_" fill="#D40000" stroke="#FFFFFF" stroke-width="0.9621" d="M171.967,98.009l0.05,13.286l-0.103-0.013
		l-14.119,0.033l0.046-12.13l0.266,0.079l4.425,0.212l3.793,0.002l1.258-0.271l1.175-0.566l2.232-0.496L171.967,98.009"/>
	<path id="NE_Adams_1_" fill="#CC2F4A" stroke="#FFFFFF" stroke-width="0.9621" d="M171.967,98.009l0.09-0.368l13.625-0.07
		l0.144-0.004l0.089,13.627l-13.897,0.102L171.967,98.009"/>
	<path id="NE_Clay_1_" fill="#D40000" stroke="#FFFFFF" stroke-width="0.9621" d="M199.865,97.39l0.045-0.001l0.175,13.636
		l-14.027,0.165l-0.143,0.004l-0.089-13.627L199.865,97.39"/>
	<path id="NE_Fillmore_1_" fill="#D40000" stroke="#FFFFFF" stroke-width="0.9621" d="M214.079,97.178l0.22,13.623l-14.114,0.221
		l-0.101,0.003l-0.175-13.636L214.079,97.178"/>
	<path id="NE_Saline_1_" fill="#E27F90" stroke="#FFFFFF" stroke-width="0.9621" d="M214.079,97.178l14.125-0.27l0.162,6.824
		l0.041,6.806l-14.108,0.263L214.079,97.178"/>
	<path id="NE_Lancaster_1_" fill="#B9D7FF" stroke="#FFFFFF" stroke-width="0.9621" d="M228.056,83.284l13.752-0.303l0.014,1.129
		l0.237,9.077l0.286,10.225l-13.977,0.322l-0.162-6.823l-0.221-13.623L228.056,83.284"/>
	<path id="NE_Gage_1_" fill="#CC2F4A" stroke="#FFFFFF" stroke-width="0.9621" d="M242.343,103.412l0.276,10.195l0.276,10.227
		l-10.713,0.255l-3.47,0.072l-0.306-13.621l-0.041-6.806L242.343,103.412"/>
	<path id="NE_Jefferson_1_" fill="#CC2F4A" stroke="#FFFFFF" stroke-width="0.9621" d="M214.299,110.801l14.108-0.263l0.305,13.62
		l-14.209,0.276L214.299,110.801"/>
	<path id="NE_Thayer_1_" fill="#D40000" stroke="#FFFFFF" stroke-width="0.9621" d="M214.299,110.801l0.203,13.636l-14.182,0.233
		l-0.134-13.649L214.299,110.801"/>
	<path id="NE_Nuckolls_1_" fill="#D40000" stroke="#FFFFFF" stroke-width="0.9621" d="M200.084,111.024l0.101-0.003l0.135,13.649
		l-3.459,0.04l-10.73,0.1l-0.075-13.621L200.084,111.024"/>
	<path id="NE_Webster_1_" fill="#D40000" stroke="#FFFFFF" stroke-width="0.9621" d="M172.017,111.295l13.897-0.102l0.143-0.004
		l0.073,13.621l-7.225,0.072l-6.961,0.038l-0.028-13.639L172.017,111.295"/>
	<path id="NE_Franklin_1_" fill="#AA0000" stroke="#FFFFFF" stroke-width="0.9621" d="M171.914,111.282l0.03,13.639l-10.673,0.028
		l-3.513,0.02l0.036-13.656L171.914,111.282"/>
	<path id="NE_Harlan_1_" fill="#AA0000" stroke="#FFFFFF" stroke-width="0.9621" d="M143.707,111.276l14.088,0.039l-0.036,13.656
		l-14.021-0.033l-0.074,0.003L143.707,111.276"/>
	<path id="NE_Gosper_1_" fill="#D40000" stroke="#FFFFFF" stroke-width="0.9621" d="M143.434,98.202l-0.09,13.066l-14.122-0.09
		l0.04-3.424l3.557,0.047l0.118-10.248L143.434,98.202"/>
	<path id="NE_Furnas_1_" fill="#AA0000" stroke="#FFFFFF" stroke-width="0.9621" d="M126.013,111.187l3.209-0.008l14.122,0.09
		l0.363,0.008l-0.043,13.665l-17.232-0.098l-0.489-0.013L126.013,111.187"/>
	<path id="NE_Red_Willow_1_" fill="#AA0000" stroke="#FFFFFF" stroke-width="0.9621" d="M108.517,110.985l17.496,0.201l-0.07,13.645
		l-17.09-0.229l-0.625-0.022L108.517,110.985"/>
	<path id="NE_Hitchcock_1_" fill="#AA0000" stroke="#FFFFFF" stroke-width="0.9621" d="M90.899,110.634l17.044,0.355l0.576-0.004
		l-0.289,13.592l-17.729-0.33L90.899,110.634"/>
	<path id="NE_Dundy_1_" fill="#AA0000" stroke="#FFFFFF" stroke-width="0.9621" d="M90.294,110.631l0.604,0.004l-0.401,13.614
		l-2.724-0.049l-20.072-0.532l0.477-13.546L90.294,110.631"/>
	<path id="NE_Frontier_1_" fill="#AA0000" stroke="#FFFFFF" stroke-width="0.9621" d="M108.206,97.254l17.224,0.215l7.509,0.084
		l-0.118,10.249l-3.559-0.048l-0.037,3.421l-3.209,0.009l-17.497-0.198l-0.576,0.004L108.206,97.254"/>
	<path id="NE_Hayes_1_" fill="#A80000" stroke="#FFFFFF" stroke-width="0.9621" d="M108.206,97.254l-0.266,13.739l-17.042-0.358
		l-0.604-0.004l0.302-13.616l3.023,0.074L108.206,97.254"/>
	<path id="NE_Chase_1_" fill="#AA0000" stroke="#FFFFFF" stroke-width="0.9621" d="M68.68,96.494l21.918,0.521l-0.3,13.614
		l-22.119-0.507L68.68,96.494"/>
	<path id="NE_Perkins_1_" fill="#AA0000" stroke="#FFFFFF" stroke-width="0.9621" d="M69.093,84.563l0.01-0.052l24.773,0.592
		L93.62,97.091l-3.022-0.076l-21.917-0.518l0.078-2.046L69.093,84.563"/>
	<path id="NE_Lincoln_1_" fill="#D40000" stroke="#FFFFFF" stroke-width="0.9621" d="M110.771,70.151l14.211,0.2l0.456,0.162
		l-0.018,4.948l-0.149,3.912l-0.103,4.544l0.435-0.002l-0.175,13.557l-17.222-0.215l-14.585-0.165l0.255-11.985l-0.199-15.303
		L110.771,70.151"/>
	<path id="NE_Keith_1_" fill="#AA0000" stroke="#FFFFFF" stroke-width="0.9621" d="M71.7,69.277l17.749,0.41l4.226,0.113l0.2,15.303
		L69.103,84.51l0.175-8.514L71.7,69.277"/>
	<path id="NE_Logan_1_" fill="#AA0000" stroke="#FFFFFF" stroke-width="0.9621" d="M111.103,56.623l13.651,0.159l0.446,0.015
		l-0.217,13.557l-14.211-0.2L111.103,56.623"/>
	<path id="NE_McPherson_1_" fill="#AA0000" stroke="#FFFFFF" stroke-width="0.9621" d="M89.855,56.087l7.853,0.203l5.393,0.18
		l4.01,0.061l3.993,0.092l-0.332,13.529l-17.094-0.347l-4.226-0.116L89.855,56.087"/>
	<path id="NE_Arthur_1_" fill="#A80000" stroke="#FFFFFF" stroke-width="0.9621" d="M72.147,55.692l17.114,0.39l0.594,0.005
		l-0.405,13.603l-17.748-0.411L72.147,55.692"/>
	<path id="NE_Thomas_1_" fill="#AA0000" stroke="#FFFFFF" stroke-width="0.9621" d="M107.294,42.923l17.615,0.323l-0.157,13.536
		l-13.651-0.159l-3.993-0.091L107.294,42.923"/>
	<path id="NE_Hooker_1_" fill="#AA0000" stroke="#FFFFFF" stroke-width="0.9621" d="M89.632,42.445l17.662,0.478l-0.185,13.608
		l-4.01-0.061l-5.391-0.18l-7.854-0.203l-0.594-0.005L89.632,42.445"/>
	<path id="NE_Grant_1_" fill="#A80000" stroke="#FFFFFF" stroke-width="0.9621" d="M70.04,45.183l1.966-3.348l17.626,0.61
		l-0.371,13.636l-17.114-0.39l-2.523-0.062L70.04,45.183"/>
	<path id="NE_Deuel_1_" fill="#AA0000" stroke="#FFFFFF" stroke-width="0.9621" d="M52.191,75.459l17.089,0.539l-0.177,8.514
		l-0.01,0.052l-17.592-0.551L52.191,75.459"/>
	<path id="NE_Garden_1_" fill="#AA0000" stroke="#FFFFFF" stroke-width="0.9621" d="M70.04,45.183L69.623,55.63l2.523,0.062
		L71.7,69.277l-2.421,6.725l-17.089-0.545l-0.459-8.535l0.393-9.685l-0.75-2.231l-0.233-1.129l-0.065-0.698l0.035-2.072l0.316-6.347
		L70.04,45.183"/>
	<path id="NE_Cheyenne_1_" fill="#D40000" stroke="#FFFFFF" stroke-width="0.9621" d="M51.735,66.922l0.457,8.535l-0.69,8.554
		l-0.996-0.021l-22.531-0.836l0.937-15.336l0.354-1.687L51.735,66.922"/>
	<path id="NE_Morrill_1_" fill="#AA0000" stroke="#FFFFFF" stroke-width="0.9621" d="M50.808,44.75l0.621,0.012l-0.316,6.345
		l-0.035,2.072l0.064,0.698l0.234,1.129l0.75,2.231l-0.392,9.685l-22.471-0.79l0.463-10.211l0.82-11.866L50.808,44.75"/>
	<path id="NE_Kimball_1_" fill="#AA0000" stroke="#FFFFFF" stroke-width="0.9621" d="M28.91,67.818l-0.937,15.336l-5.928-0.24
		L7.273,82.242l0.91-15.301L28.91,67.818"/>
	<path id="NE_Banner_1_" fill="#A80000" stroke="#FFFFFF" stroke-width="0.9621" d="M29.725,55.921l-0.463,10.212l-0.354,1.686
		L8.181,66.939l0.672-11.909L29.725,55.921"/>
	<path id="NE_Scotts_Bluff_1_" fill="#D40000" stroke="#FFFFFF" stroke-width="0.9621" d="M29.374,43.985l1.171,0.069l-0.82,11.867
		L8.853,55.032l0.7-11.857L29.374,43.985"/>
	<path id="NE_Box_Butte_1_" fill="#D40000" stroke="#FFFFFF" stroke-width="0.9621" d="M50.808,44.75l-20.263-0.696l-1.171-0.069
		l0.163-3.391l-1.282-0.065L28.935,27l20.317,0.681l0.723,0.016l-0.372,13.585l0.799,1.174L50.808,44.75"/>
	<path id="NE_Cherry_1_" fill="#AA0000" stroke="#FFFFFF" stroke-width="0.9621" d="M70.951,6.501L70.951,6.501l6.213,0.185
		l7.503,0.301l11.948,0.202l9.645,0.169l10.895,0.129l5.853,0.072l2.149,0.025l2.39,0.036l-0.102,5.95l0.702,16.134l-0.197,13.578
		l-3.041-0.038l-17.616-0.322L89.63,42.444l-17.625-0.61l-1.039-0.049l0.548-13.537l-0.428-4.473l0.029-8.909l-0.233-2.794
		L70.951,6.501"/>
	<path id="NE_Sheridan_1_" fill="#AA0000" stroke="#FFFFFF" stroke-width="0.9621" d="M70.951,6.501l-0.067,5.571l0.233,2.795
		l-0.03,8.909l0.429,4.474l-0.548,13.536l1.038,0.049l-1.966,3.348l-18.613-0.425l-0.621-0.01L50.4,42.458l-0.799-1.174
		l0.372-13.585l-0.723-0.016l0.479-11.25l-0.473-2.258l0.379-8.379L70.951,6.501"/>
	<path id="NE_Thurston_1_" fill="#F2B3BE" stroke="#FFFFFF" stroke-width="0.9621" d="M232.519,34.976l11.604-0.253l-0.296,2.418
		l2.729,6.489l-8.559,1.451l-8.264-2.699l-0.105-6.803L232.519,34.976"/>
</g>
</svg>
