<?xml version="1.0" encoding="utf-8"?>
<!-- Generator: Adobe Illustrator 16.0.0, SVG Export Plug-In . SVG Version: 6.00 Build 0)  -->
<!DOCTYPE svg PUBLIC "-//W3C//DTD SVG 1.1//EN" "http://www.w3.org/Graphics/SVG/1.1/DTD/svg11.dtd">
<svg version="1.1"
	 id="svg8177" xmlns:svg="http://www.w3.org/2000/svg" xmlns:rdf="http://www.w3.org/1999/02/22-rdf-syntax-ns#" xmlns:cc="http://creativecommons.org/ns#" xmlns:sodipodi="http://sodipodi.sourceforge.net/DTD/sodipodi-0.dtd" xmlns:dc="http://purl.org/dc/elements/1.1/" xmlns:inkscape="http://www.inkscape.org/namespaces/inkscape" inkscape:version="0.48.1 " sodipodi:docname="New_Hampshire_Election_Results_by_County,_all_Democratic[1].svg" sodipodi:version="0.32" inkscape:output_extension="org.inkscape.output.svg.inkscape"
	 xmlns="http://www.w3.org/2000/svg" xmlns:xlink="http://www.w3.org/1999/xlink" x="0px" y="0px" width="107.879px"
	 height="221.293px" viewBox="0 0 107.879 221.293" enable-background="new 0 0 107.879 221.293" xml:space="preserve">
<defs>
	
	
		<inkscape:perspective  id="perspective8185" inkscape:vp_z="744.09448 : 526.18109 : 1" inkscape:vp_y="0 : 1000 : 0" inkscape:vp_x="0 : 526.18109 : 1" sodipodi:type="inkscape:persp3d" inkscape:persp3d-origin="372.04724 : 350.78739 : 1">
		</inkscape:perspective>
</defs>
<sodipodi:namedview  bordercolor="#666666" pagecolor="#ffffff" objecttolerance="10" borderopacity="1.0" guidetolerance="10" inkscape:cx="214.76917" showgrid="false" inkscape:cy="248.17511" inkscape:zoom="0.96544708" gridtolerance="10000" id="base" inkscape:window-width="1366" inkscape:window-y="-8" inkscape:current-layer="layer1" inkscape:pageopacity="0.0" inkscape:window-height="706" inkscape:window-maximized="1" inkscape:pageshadow="2" inkscape:window-x="-8" inkscape:document-units="px">
	</sodipodi:namedview>
<g id="layer1" transform="translate(-270.16369,-324.79624)" inkscape:label="Layer 1" inkscape:groupmode="layer">
	<path id="NH_Coos" inkscape:label="Coos, NH" fill="#E27F90" stroke="#FFFFFF" stroke-width="1.0292" d="M327.246,333.81
		l1.372,5.973l7.341,34.593l0.502,2.6l6.33,32.283l-1.193,3.755l-15.993,7.905l-3.635-2.995l-1.86-2.539l-1.525-0.593l-6.765-2.423
		l-5.634-1.609l-4.925-4.602l1.107,0.229l1.813-1.043l0.156-0.188l0.836-0.864l0.357-0.412l0.252-0.313l3.094-4.259l0.311-0.418
		l0.002-0.023l0.791-1.608l1.428-6.431l-1.113-2.344l-0.19-0.396l-1.13-1.771l-2.072-3.221l-1.75-2.157l-0.302-1.296l2.124-18.351
		l1.547-2.446l0.055-4.492l2.761-13.376l4.818-5.023l0.626-0.348l1.055,0.699l0.366,0.986l0.208,0.293l1.583,1.022l2.723,0.492
		l2.351-0.22l0.373-0.246L327.246,333.81"/>
	<path id="NH_Grafton" inkscape:label="Grafton, NH" fill="#86B6F2" stroke="#FFFFFF" stroke-width="1.0292" d="M297.247,410.315
		l4.011-4.157l4.925,4.602l5.634,1.609l6.765,2.423l1.525,0.593l1.86,2.539l2.156,3.993l3.12,6.145l0.904,11.588l-10.606,3.264
		l2.194,7.074l0.941,2.248l1.299,4.99l-6.743,3.752l-2.861,7.855l-3.119,0.633l-3.946-3.271l-1.907,3.094l-1.826,3.789l-3.464-0.115
		l-6.029-0.438l-5.986-1.618l-6.543-0.201l4.89-13.721l4.804-30.008l-0.809-0.807l-0.828-1.42l-1.049-6.178l0.053-0.47l0.265-0.74
		l2.104-2.966l0.177-0.109l0.302-0.23l3.871-1.847L297.247,410.315"/>
	<path id="NH_Strafford" inkscape:label="Strafford, NH" fill="#86B6F2" stroke="#FFFFFF" stroke-width="1.0292" d="
		M343.034,466.139l1.554-2.821l1.607,4.813l6.16-1.162l1.848-3.235l-0.228,10.299l0.214,1.715l0.376,1.104l1.284,2.281l0.906,0.606
		l2.478,1.598l5.901,4.476l0.143,0.198l1.121,8.382l-2.007,3.035l-0.546,0.627l-10.73,1.533l1.863-4.591l-13.469-8.355l0.5-0.896
		l3.281-5.936l-1.939-6.095l-1.549-5.335L343.034,466.139"/>
	<path id="NH_Rockingham" inkscape:label="Rockingham, NH" fill="#E27F90" stroke="#FFFFFF" stroke-width="1.0292" d="
		M373.386,498.137l-3.963,14.991l-3.879-0.197l-1.601-0.073l-0.386,0.146l-0.449,0.133l-0.023-0.003l-5.457,3.179l-4.237,2.863
		l-1.398,0.953l-0.789,0.658l-3.612,5.6l-6.098-1.367l-4.847-3.771l-1.379-4.281l-0.987-2.993l2.352-6.327l4.879-21.003
		l13.469,8.356l-1.863,4.59l10.73-1.533l0.546-0.627l2.007-3.035L373.386,498.137"/>
	<path id="NH_Cheshire" inkscape:label="Cheshire, NH" fill="#86B6F2" stroke="#FFFFFF" stroke-width="1.0292" d="M277.475,504.485
		l1.372,1.763l3.273-0.187l0.369-1.892l1.483-0.709l9.306-2.773l-0.559,2.586l-0.09,1.335l7.634-0.84l0.07,8.377l0.568,5.595
		l3.06-0.375l5.011,11.147l1.694,5.61l-19.432,1.988l-9.639,0.963l-5.444-5.476l-1.178-3.497l-0.154-0.78l4.706-11.278l-0.535-8.158
		l-0.066-0.459L277.475,504.485"/>
	<path id="NH_Sullivan" inkscape:label="Sullivan, NH" fill="#F2B3BE" stroke="#FFFFFF" stroke-width="1.0292" d="M279.552,470.703
		l6.543,0.201l5.986,1.619l6.029,0.438l3.464,0.117l-4.751,9.688l-1.411,6.913l2.048,4.856l1.632,2.219l2.118,2.387l-0.945,4.628
		l-7.634,0.84l0.09-1.335l0.559-2.586l-9.306,2.773l-1.483,0.709l-0.369,1.892l-3.274,0.187l-1.372-1.763l0.407-5.539l0.967-6.511
		l-0.792-3.055l-1.263-12.209L279.552,470.703"/>
	<path id="NH_Hillsborough" inkscape:label="Hillsborough, NH" fill="#F2B3BE" stroke="#FFFFFF" stroke-width="1.0292" d="
		M301.21,499.141l4.979-2.199l13.896,2.155l9.561,6.575l6.986,1.972l-2.352,6.327l0.987,2.993l1.379,4.281l4.847,3.771l6.098,1.367
		l-0.438,0.75l-1.71,3.063l-18.51,2.146l-0.238,0.025l-0.832,0.09l-13.555,1.482l-1.641,0.182l-1.694-5.609l-5.011-11.146
		l-3.06,0.375l-0.568-5.596l-0.07-8.377L301.21,499.141"/>
	<path id="NH_Belknap" inkscape:label="Belknap, NH" fill="#E27F90" stroke="#FFFFFF" stroke-width="1.0292" d="M320.678,452.234
		l4.279,3.391l12.461,8.854l5.616,1.66l-1.229,2.241l1.548,5.335l1.938,6.095l-3.281,5.937l-6.709-3.715l-11.975-6.315l-2.679,1.745
		l-0.669-0.157l-4.244-4.231l-0.82-0.967l-2.542-3.271l2.861-7.855l6.743-3.752L320.678,452.234"/>
	<path id="NH_Merrimack" inkscape:label="Merrimack, NH" fill="#B9D7FF" stroke="#FFFFFF" stroke-width="1.0292" d="
		M312.372,468.831l2.542,3.272l0.82,0.968l4.244,4.23l0.669,0.156l2.679-1.744l11.975,6.316l6.709,3.713l-0.498,0.896l-4.881,21.003
		l-6.985-1.972l-9.561-6.575l-13.896-2.155l-4.979,2.199l-2.118-2.386l-1.632-2.22l-2.048-4.856l1.411-6.913l4.751-9.688
		l1.826-3.791l1.907-3.092l3.946,3.271L312.372,468.831"/>
	<path id="NH_Carroll" inkscape:label="Carroll, NH" fill="#E27F90" stroke="#FFFFFF" stroke-width="1.0292" d="M342.791,409.258
		l6.738,36.563l4.674,17.91l-1.848,3.235l-6.16,1.161l-1.607-4.813l-1.554,2.821l-5.616-1.66l-12.461-8.854l-4.279-3.39
		l-0.941-2.249l-2.194-7.074l10.606-3.263l-0.904-11.588l-3.12-6.145l-2.156-3.993l3.635,2.995l15.993-7.905L342.791,409.258"/>
</g>
</svg>
