<?xml version="1.0" encoding="UTF-8" standalone="no"?>
<svg
   xmlns:dc="http://purl.org/dc/elements/1.1/"
   xmlns:cc="http://creativecommons.org/ns#"
   xmlns:rdf="http://www.w3.org/1999/02/22-rdf-syntax-ns#"
   xmlns:svg="http://www.w3.org/2000/svg"
   xmlns="http://www.w3.org/2000/svg"
   version="1.0"
   width="368.5"
   height="687"
   id="svg6528"
   xml:space="preserve"><defs /><path
     d="m 184.96875,457.25 -5.5,6.15625 -14.34375,15.875 -10.625,11.96875 -23.28125,25.8125 27.4375,25.15625 0.15625,1.875 0.125,0.75 0.375,0.90625 0,1 -0.25,0.75 -0.125,0.5 -0.375,0.875 -0.28125,0.5 -0.125,1 0.25,0.75 0.40625,0.875 0.375,0.875 0.28125,1.03125 0.125,0.75 0,1 -0.125,1.25 -0.40625,1.15625 -0.75,2 -0.78125,2.78125 -0.375,4.15625 0,2.625 0.65625,1.875 0.90625,0.625 1.28125,0.25 2.03125,0.625 0.90625,0.125 0.90625,1.53125 0.65625,0.5 1.03125,0.375 1.65625,-0.25 2.1875,0.375 0.90625,-0.75 0.125,0 0.375,0.125 0.75,0.125 0.375,0.5 0.53125,0.125 0.375,-0.375 0.65625,-0.28125 0.78125,0.28125 1.40625,0.375 -0.125,0.625 0,0.625 0.25,0.25 0.75,-0.25 1.40625,0.375 0.78125,0.5 0.65625,-0.5 0.5,-0.5 0.40625,0.5 0.25,0.75 0.625,0.625 1.03125,-0.5 1.53125,-0.25 0.90625,-0.25 0.78125,-0.15625 1,0.28125 0.5,0.25 0.78125,0 0.53125,0.625 0.375,0.625 0.65625,0.125 0.65625,-0.375 0.25,-0.375 0.375,0 0.25,0.25 0.25,0 0.375,-0.28125 0.65625,0.28125 0.25,0.375 0.375,0.375 0.78125,0 0.78125,-0.25 0.375,-0.28125 0.625,-0.25 0.625,-0.25 0.65625,-0.125 0.65625,-0.5 0.25,-0.125 0.125,0 0.40625,0.875 0,0.375 0.125,0.5 0.125,0 0.625,-0.75 0.15625,-0.375 0.375,-0.5 0.625,-0.375 0.5,-0.125 0.78125,-0.125 0.65625,0.875 0,0.75 0.125,0.625 1.03125,-1.375 -1.03125,-1.625 -1.1875,-0.875 1.4375,-1.375 1.40625,0.75 1.15625,0.75 0.875,0.25 0.65625,-0.875 0.90625,-0.875 0.625,0.0937 0.78125,0.90625 1.25,0.75 1.8125,-0.125 1.9375,-1.15625 3.84375,0.25 1.78125,1 1.8125,-0.125 1.40625,-1.5 1.03125,-1.28125 -0.40625,-1.625 -0.90625,-1.75 1.3125,-2.78125 0.5,-1.03125 0.75,-0.375 1.53125,1 0.90625,0.53125 1.3125,-0.15625 0.125,-2.5 1,-1.375 0.875,-0.625 0.53125,-3.15625 0.25,-1.875 2.1875,-1.03125 0.75,-0.125 2.4375,0.125 1.4375,0.75 0.25,0.625 0.125,1.65625 -0.125,0.625 0,0.375 -1.40625,1.65625 -1.4375,0.75 0.65625,0.75 0.65625,0 -0.25,1 -0.15625,0.125 -0.625,0.625 -0.53125,0.5 -0.75,0.625 -0.625,0.375 -1.15625,0.625 -0.90625,0.375 -0.125,0.90625 -0.25,0.75 0,1.25 -0.40625,1.15625 -0.375,0.875 -0.78125,0.875 -0.625,0.625 -0.5,1.28125 -0.125,0.5 0.375,0.25 0.5,0 0.90625,0.125 0.90625,-0.375 1.03125,-1.15625 0.90625,-1 1.125,-0.75 1.8125,-1.28125 1.90625,-1.75 1.78125,-1.28125 2.1875,-0.75 2.5625,-1 1.9375,-0.75 2.28125,-1.375 2.6875,-1.78125 2.6875,-1.65625 1.40625,-1.125 -0.125,-0.375 0,-0.25 -0.125,-0.625 -0.125,-0.5 -0.25,-0.90625 -0.28125,-1 -0.5,-0.5 -0.75,-0.125 -1.40625,-0.25 -0.28125,-0.25 0.125,-0.5 0.28125,-0.625 -0.28125,-0.875 -0.5,-0.375 -1.3125,-0.25 -0.5,0 -0.25,0 -0.125,-0.5 0.25,-0.75 0,-0.75 -1.15625,-0.75 -2.4375,-0.75 -2.15625,0.25 -2.0625,0.625 -1.28125,1.125 0,-2.875 -0.625,-3.15625 0.75,-0.875 3.1875,-1.03125 0.90625,-1.75 0.125,-4.28125 0.90625,-1.53125 1.65625,0.125 0.625,-1.25 -0.25,-1.75 0.5,-0.625 1.15625,0.125 0.28125,1 2.03125,0.25 0.625,0.125 0,0.25 -0.25,1 0.65625,1.875 0.90625,1.40625 0.65625,1 1.28125,1 1,-0.75 1.8125,-1.15625 -1.1875,-2.375 -0.875,-1.25 -0.375,-1.5 0.5,-1 1.28125,0 0.375,-1.03125 -1.28125,-2.25 -1.40625,-0.125 -0.375,-0.875 1.15625,-1.40625 2.15625,0.25 0.53125,1.28125 1.53125,0.375 0.78125,-1.03125 -0.65625,-1.75 -3.34375,-3.15625 -1.03125,-1.75 0.125,-2.25 -2.1875,-2.375 0.125,-2.90625 0,-0.875 1.03125,-0.375 L 254.375,510 l -0.25,-1.75 -0.53125,-1.78125 -0.375,-1 -0.75,0.625 -1.15625,1 -1.15625,-0.875 -1.4375,0.375 0.25,0.78125 1.1875,1.75 -0.25,1.25 -1.3125,0.15625 -1.25,-1.03125 -0.40625,-1.5 0.53125,-1.65625 0,-0.25 -0.53125,-0.5 -0.75,-0.125 -0.40625,0.375 -0.125,1.40625 -0.125,1.125 -0.5,0.25 -0.15625,0 -0.5,-0.25 -0.25,-0.75 -0.125,-0.75 -0.375,-0.625 -0.90625,0.125 -0.78125,0.5 -1.03125,0.25 -1.15625,-0.75 -0.5,-0.625 -0.5,-0.125 -1.15625,0.5 -0.375,-0.25 -0.65625,-1.375 -1.03125,-0.625 -0.53125,-0.90625 -0.875,-0.25 -0.375,0.125 -0.53125,-0.375 -0.5,-0.375 -0.78125,-0.5 -0.5,0.125 -0.65625,0.75 -0.5,-0.125 -0.25,-1.5 -0.5,-0.625 -3.875,-2.78125 -0.875,-1.5 -0.78125,-0.375 -1.03125,-0.375 -1.28125,-0.375 -2.5625,-0.375 -3.09375,-3.375 -3.34375,-2.5 -2.8125,-1.25 -0.75,-0.375 -1.3125,1.375 -0.5,0.375 -0.40625,-0.375 0.15625,-0.75 -0.15625,-0.5 -0.25,-0.375 -0.375,0 -0.375,0.5 -0.5,0.25 -0.65625,-0.25 -0.5,0 -0.78125,-0.625 -0.90625,-0.375 -0.5,-1.15625 -0.625,-0.5 -0.28125,-1.75 0.40625,-1.5 -0.40625,-2.15625 0.25,-1.25 0.53125,-1.40625 -0.125,-1.25 -0.90625,-1.75 -0.53125,-1.03125 -0.125,-1.125 -0.125,-0.75 -0.90625,-1 -1.28125,-1.625 -9.5,-7.78125 -3.46875,-2.90625 z M 272,526.4375 l -1.1875,0.25 -1.5,0.125 -3.21875,-0.21875 -1.03125,0.5 -0.25,0.5 0.5,0.75 -0.375,0.375 -1,0 -0.78125,-0.5 -0.25,0.25 0.125,0.5 -0.125,0.78125 0.25,0.875 0.53125,1 0.625,1.125 0.375,1.15625 0.125,1.5 0,1.75 -0.25,1.28125 -0.5,1 -0.125,0.375 -0.75,0.625 -1.03125,0.375 -0.90625,0.5 -0.65625,1.125 -0.625,1 -0.28125,0.78125 0.40625,0.125 0.90625,0.25 0.625,0.375 0.40625,0.625 -0.53125,0.375 -0.625,0.25 -1.15625,0.375 -0.78125,0.5 -0.375,0.25 -1.28125,2.40625 -1.03125,0.75 -0.90625,-0.125 -0.5,-0.625 -0.25,-0.5 -0.75,-0.5 -0.28125,-0.125 -0.75,0.375 0,0.375 -0.40625,0.78125 0,0.25 0.15625,1.125 0.25,0.75 0.375,0.5 1.15625,0.875 0.75,0.25 0.40625,0.78125 0.25,1.125 0.53125,-0.25 0.625,-0.5 0.78125,-0.40625 3.0625,-1.875 1.8125,-1.53125 2.65625,-1.625 2.1875,-1.28125 1.40625,-1.25 1.78125,-2.28125 1.4375,-2.375 0.625,-1.625 0.375,-1.125 -0.25,-1.53125 -0.65625,-0.5 -0.125,-0.625 0,-1.5 0.65625,-0.40625 0.78125,0 0.875,0.375 1.40625,0 1.03125,-0.5 0.78125,-0.75 0.125,-1.125 0,-1.03125 0.375,-1.5 0.125,-1.40625 -1.03125,-0.0937 -0.375,0.875 -1.0625,0.25 -0.375,-0.125 -0.5,-0.625 -0.375,-0.75 -0.25,-0.78125 -0.28125,-1.25 -0.75,-0.125 L 272,526.4375 Z m -22.5625,13.625 -0.375,0.25 -0.625,0.25 -0.53125,0.5 -0.75,0.65625 -0.40625,0.375 0.125,0.625 0.40625,0.375 0,1 -0.25,0.625 -0.40625,0.65625 -0.625,1.25 -0.25,0.75 0.125,0.875 0.5,0.53125 0.90625,0 0.90625,-0.65625 0.5,-0.375 1.15625,-0.375 1.15625,-0.625 0.25,-0.875 -0.125,-0.90625 -0.53125,-0.5 -0.78125,-0.375 0,-0.5 0.28125,-1.375 0.125,-1.40625 -0.53125,-0.75 -0.25,0 z m 3.75,2.90625 -0.65625,0.125 -0.125,0.875 0.25,1 0.15625,0.75 0.25,0.65625 0.875,0.25 0.375,-0.53125 0,-0.5 0.125,-0.625 0,-0.875 -0.375,-0.625 -0.25,-0.25 -0.625,-0.25 z m -25.125,27.84375 -0.875,0.625 -0.375,0.5 -0.5,0.5 -0.65625,0.875 -0.375,0.75 0,1.15625 0.375,0.5 0.25,0.25 0.65625,0 0.625,-0.75 0.5,-1.03125 0.53125,-1 0.375,-1.75 -0.40625,-0.5 -0.125,-0.125 z"
     id="Atlantic"
     style="fill:#86b6f2;stroke:#ffffff;stroke-width:2" /><path
     d="m 254.78125,335.34375 -8.84375,7.6875 -16.25,14.75 -5.625,3.28125 0.25,0.46875 0.40625,1 0.25,0.53125 1.03125,2.375 0.15625,0.25 1,2.65625 1.6875,3.53125 0.5,1 1.9375,6 1.78125,4.03125 0.65625,1.40625 0.125,0.375 0,0.25 0.28125,0.375 0.125,0.5 0.625,1.40625 0.15625,0.5 0.25,0.625 0.5,1.125 0.25,0.625 0.25,0.625 0.25,0.78125 1.3125,3.125 0.5,1.625 0.28125,0.625 0.375,0.75 0.125,0.375 1,2.40625 0.28125,0.875 0.625,1.625 0.28125,0.375 0.25,0.53125 0.125,0.5 0.25,0.75 1.1875,2.78125 3.1875,7.25 0.28125,0.5 1.78125,4.4375 1.40625,3.5 2.59375,6.4375 0.375,0.875 0.125,0.25 0.375,1 0.78125,1.75 0.125,0.375 6.1875,14.21875 -0.96875,34.875 -0.25,5.90625 0,1.28125 0,2.375 -0.125,2 -0.125,0.5 -0.125,0.25 -0.25,0.5 -0.125,0.25 -0.125,0.5 -0.125,0.125 -0.125,0.65625 -0.375,1.125 0,0.75 -0.15625,0.5 -0.125,0.625 -0.375,0.53125 -0.125,0.625 -0.25,0.375 -1.03125,0.125 -0.65625,-0.125 -0.375,0 -0.53125,0.125 -0.25,0.25 -0.375,0 0.125,0.625 0.375,0.75 0,1.15625 -0.625,0.375 0.375,1 0.90625,-0.375 1.8125,1.125 1.28125,0.875 0.125,1.90625 0.375,1.125 1.15625,-0.125 1.53125,-0.125 2.3125,0.25 1.9375,0.375 -0.40625,-1.78125 0.78125,-0.75 1.40625,0.625 0.15625,1.25 2.03125,0.375 1.78125,-1 1.6875,1.375 1.40625,0.875 -0.40625,0.78125 -0.25,0.75 0.90625,0.875 0.25,0.625 -1.03125,0.25 -0.375,0.375 0.125,1 L 273,518 l -0.25,1 0.25,0.25 0.25,0.375 1.4375,-1 1.53125,0 1.40625,0.375 0,-1.5 0.625,-0.875 1.6875,-1.75 -0.53125,-1.03125 -0.125,-1.125 0.375,-0.875 -1.40625,-1.25 -1.65625,-0.625 -1.03125,-0.65625 -0.53125,-1 -0.5,-0.5 -1.03125,-0.25 -0.25,-1.125 -0.125,-0.75 -0.875,-0.625 -0.78125,-0.78125 -0.28125,-1.125 0.125,-1.625 0.28125,-0.78125 0.75,0 0.53125,0.90625 0.875,0.25 0.5,-1.03125 0.25,-0.75 0.15625,-0.625 1.15625,-0.5 1.03125,-0.125 0.125,-1.375 0.25,-1.75 0.5,-1.28125 1.28125,-0.75 0.75,-0.5 0.40625,-0.125 0.5,0.625 0.65625,1.125 0.65625,0 0.125,-1.125 -0.28125,-1.125 0.25,-0.65625 1.5625,-0.5 0.5,0.5 0.75,0.90625 1.3125,-0.15625 0.75,-0.25 0.53125,-0.5 -0.40625,-0.875 -0.5,-0.875 0.125,-0.78125 0.125,-0.375 0.90625,-0.875 0.375,-0.75 0,-1.40625 0.875,0.28125 0.90625,-0.15625 0.125,-0.25 -0.53125,-1 -0.25,-2 0.375,-0.625 0.53125,-0.25 0.25,0.25 0.90625,0.25 1.5625,-0.5 0.625,-0.625 0.875,0.125 0.65625,0.375 0.5,-0.125 0.65625,-1 0.125,-0.28125 0.25,-1.25 1.15625,-0.875 0.125,-0.75 -0.125,-1.03125 0.5,-0.375 0.375,-0.625 0.65625,-0.75 1.53125,-0.25 1.53125,-1.03125 0.90625,-0.5 0.625,-0.5 -0.125,-0.5 -0.875,-0.25 -0.78125,-0.125 -0.25,-0.25 0.375,-1.03125 0.375,-0.625 0.53125,-1 1.5,-0.75 0.53125,-0.25 0,-1.5 0.375,-1.125 0.65625,-0.125 1.15625,0.5 0.90625,-0.125 0.25,-1.03125 0.25,-0.375 0.625,-0.375 0.375,-0.5 0.125,-0.5 -1.375,-0.375 -1.28125,0 -0.65625,-0.125 -0.65625,-0.25 -0.25,-0.5 -0.375,-0.5 0,-0.5 1.03125,-0.0312 0.75,0.125 0.53125,0 0.90625,-0.125 0.125,-0.75 -0.53125,-0.625 -0.25,-0.625 0.375,-1.65625 0,-0.625 -0.125,-0.375 -1.5625,-0.25 -1.90625,-0.25 -1,-0.25 -0.90625,-0.25 -0.28125,-1.375 0.125,-1.125 0,-1.25 0.125,-0.75 0,-0.5 0.25,-1 0.53125,-0.53125 0.25,-0.625 0.53125,-0.75 0.375,-0.5 0,-0.625 -0.65625,-0.90625 -0.375,-0.75 -0.53125,-1.25 0.90625,-1 0.78125,-0.78125 1.125,-1 0.5,-2.03125 -0.125,-1.375 0.625,-1.875 1.9375,-0.875 1.3125,-0.375 -0.28125,-1.125 -1.03125,-0.25 -1.03125,0.125 -0.625,-0.25 -0.0312,-0.875 1.03125,-0.65625 1.4375,-0.375 1.28125,-0.625 0.75,-1.28125 0.625,-1.875 0.125,-1.125 0.40625,-1.03125 0.5,-0.375 1.03125,-0.25 1.03125,-0.375 0.625,-0.625 -0.75,-1 -0.78125,-0.25 -1.28125,-0.125 -0.90625,0.25 -1,0 -0.90625,-0.25 -0.5,-0.125 -0.28125,-0.375 0.25,-1 0.53125,-0.125 0.90625,-0.125 1.625,0 0.78125,-0.125 0.53125,-1 -0.15625,-0.90625 -0.125,-1.625 0.53125,-1.5 0.625,-2.03125 1.28125,-2.28125 0.75,-1.5 0.78125,-1.03125 1.15625,-1 0.625,-0.375 0.78125,-0.375 0.5,-0.5 0,-0.875 -0.375,-0.5 -0.78125,-0.25 -1.15625,0.125 -1.40625,0 -1.65625,0 -1.5625,-0.125 -1.53125,0.375 -0.75,-0.25 -0.90625,-0.625 -1.15625,-0.75 -1.03125,-1 -0.75,-0.375 -1.40625,-0.375 -0.90625,0 -1.15625,0.125 -0.40625,0 -0.5,-0.375 0,-1.375 -0.125,-0.5 2.0625,-0.125 0.875,0 0.90625,-0.25 0.90625,-0.28125 1,0.78125 0.53125,0.5 1.40625,1.25 1.3125,0.25 1.5,0.25 1.03125,0.25 0.78125,-0.125 0.78125,-0.75 0.375,-0.53125 0.625,-0.125 0.90625,0.125 0.625,-0.75 0.375,-1.125 0.125,-0.90625 0.28125,-0.5 -0.125,-0.375 -0.28125,-0.75 -0.125,-0.5 0.53125,-0.5 0.375,-1.40625 0.5,-1 0,-0.375 -0.25,-0.5 -0.78125,-0.5 -0.5,-0.625 -0.40625,-0.40625 0.125,-0.625 0.65625,-0.5 0.125,-0.5 0,-0.625 -0.375,-0.25 -0.78125,-0.5 -0.625,0.375 -0.5,0.625 -1.15625,0.375 -1.5625,-0.5 -0.78125,-0.5 -0.375,-1 0.5,-1.375 0.53125,-0.5 0.25,-0.5 1.15625,0.25 1.15625,0.375 1.15625,0 0.375,-0.5 0.75,-0.75 0.53125,0.375 0.65625,0.25 0.75,-0.25 0.40625,-1.03125 -0.53125,-0.75 -0.78125,-0.625 -1.53125,-0.5 -2.5625,0 -0.625,-0.125 -0.28125,-0.75 1.28125,-1.65625 -0.5,-0.625 -1.15625,-1 -0.53125,-0.375 -0.125,-0.5 0.78125,-0.75 1.03125,0 0.75,0.75 0.90625,1.25 1.03125,0.75 0.75,0.375 0.90625,0.25 1.15625,-0.375 0.78125,0.625 0.25,1.125 0.5,0.78125 0.90625,-0.15625 1.40625,-0.125 0.65625,-1.875 -0.28125,-1.40625 1.8125,-1.375 0.5,-0.875 0.25,-1.53125 0.125,-0.5 -0.125,-1.125 -1.40625,-0.25 -1.8125,0.375 -1.40625,0.625 -1.375,0.53125 -0.53125,-0.78125 -1.28125,0 -1.28125,0.28125 -0.75,-0.625 -0.65625,-0.78125 -1.28125,-0.125 -0.78125,-0.75 0.125,-1.125 1.40625,-0.625 1.1875,1.25 2.28125,0.375 1.6875,0.25 1.53125,0.5 1.25,-0.5 1.03125,-0.375 1.3125,-0.875 0.75,-0.5 1.03125,-0.75 0.75,-0.53125 1.6875,0.375 0.25,0.125 -0.125,0.65625 -0.375,0.75 -0.40625,1.375 -0.5,1.375 0,1.375 0.125,1.625 0,2.90625 0.15625,1.03125 -0.28125,2 -0.375,1.125 -0.375,1.15625 -0.78125,1.75 -0.25,1.15625 -0.625,2 -0.125,1.875 -0.375,1.75 -0.375,1.78125 -0.625,1.875 -0.90625,0.78125 -0.53125,0.5 0.125,1 0.40625,0.625 0.78125,0.75 0.5,1.15625 0.125,1.25 -0.25,1.5 -0.375,1.40625 -0.65625,1.125 -0.375,0.875 -0.375,0.75 -0.375,2.125 -0.28125,2.15625 -0.25,1.875 -0.25,1.78125 -0.125,1.125 0,2.03125 0.125,1.25 -0.0937,2.03125 -0.40625,2.5 -0.375,2.125 -0.125,2.125 0.125,2.40625 0.0312,2.53125 0,1 -0.65625,1.78125 -0.78125,1.875 -0.375,0.875 0,0.75 -0.125,1.25 0.40625,1.25 0.375,1 0,1.15625 -0.625,1 -0.78125,-0.125 -0.875,-0.375 -0.53125,0.375 -0.125,0.5 -0.125,0.78125 0.65625,0 0.875,0.0937 0.5,0.40625 0.65625,0.875 0.78125,-0.125 0.25,-0.125 0.125,-0.65625 0.53125,-0.75 0.25,-1 0.375,-1.25 0.25,-1.53125 0,-4.75 0.25,-2.03125 0.375,-1.375 0.375,-1.125 0.375,-2.28125 0,-2.03125 0.25,-1.5 0.375,-2.25 0.625,-2.25 0.28125,-2.15625 -0.15625,-2.28125 -0.125,-2.5 0.625,-4.28125 0.125,-3.40625 0.53125,-2.375 0.625,-3.40625 0.375,-2.65625 0.53125,-1.875 0.5,-2.28125 0.625,-2.90625 0.375,-5 1.03125,-4.03125 -0.125,-2.53125 -0.125,-1.375 0.5,-2.78125 0.5,-1.40625 0.53125,-1.875 0.5,-1.25 0.875,-2.125 0.5,-1.65625 0.53125,-1.875 0.5,-2.53125 0.125,-1.625 -0.125,-1.78125 0,-1.375 -0.40625,-0.625 -0.125,-0.125 -0.875,-0.5 -1.8125,-0.375 -2.3125,0.375 -1.78125,1.25 -1.65625,0.53125 -2.0625,-0.75 -1.28125,-0.125 -1.53125,-1.65625 -0.40625,-1.75 -0.5,-3.375 0.375,-0.75 0.5,-0.375 0.28125,0.875 0.5,-1.78125 -2.5625,-2.125 -0.5,-0.125 -1.15625,-0.5 -0.53125,-0.75 -0.375,-1.03125 -0.78125,0.78125 -0.125,0.375 -4.84375,6.53125 L 309,356.25 l -0.25,-0.375 -0.78125,-0.625 -0.25,-1.75 -0.53125,-0.90625 -1.28125,-0.125 -0.625,-0.25 -1.03125,-0.5 -1.03125,-0.125 -1.40625,-0.125 -1.125,0 -1.03125,-0.125 -0.78125,-0.21875 -0.5,0.125 -1.5625,0.75 -1.625,0.25 -0.90625,0 -1.8125,-0.25 -2.03125,-0.625 -0.78125,-1 -0.25,-0.75 0.25,-1.78125 0.25,-1 -0.65625,-1.625 -0.90625,-2.5 -1.15625,-1.375 -0.75,-0.65625 -0.25,-2.5 -0.125,-0.875 -0.53125,-1.15625 -0.5,0.125 -6.3125,-0.21875 -6.28125,-0.375 -17.65625,-0.34375 z m 69.65625,48.84375 -0.25,0.5 -0.125,0.875 -0.125,0.5 0.25,0.625 0.75,0.375 0.40625,-0.625 0,-0.75 -0.28125,-0.75 -0.25,-0.75 -0.375,0 z m -0.25,13.0625 -0.25,0.375 0,0.78125 -0.375,0.875 0.25,0.875 0.53125,0.125 0.25,0.125 0.375,-0.375 0,-0.75 0.125,-0.78125 -0.5,-1.125 -0.40625,-0.125 z m -7.875,40.9375 -0.25,0.625 0.125,0.375 0.25,0.25 0.28125,0.625 0.375,0.75 0.375,0.75 0.78125,0.5 0.53125,0.375 0.78125,-0.125 0.125,-0.625 -0.28125,-0.875 -0.5,-1.25 -0.78125,-0.5 -1.15625,-0.75 -0.65625,-0.125 z m -2.78125,8.90625 -0.78125,0.28125 -0.125,0.125 0.125,0.5 -0.125,0.25 0.125,0.375 0.53125,0.125 0.78125,0 1.125,-0.375 0.5,-0.40625 0,-0.5 -0.5,-0.25 -0.875,-0.125 -0.78125,0 z m 7.03125,1.625 -0.65625,0.65625 -0.75,1.25 -0.75,1.875 -0.375,2.28125 -0.78125,2.40625 -1.53125,1.125 -0.90625,0.125 -0.625,0.125 -0.375,0.5 0,0.5 0.25,0.75 0.125,0.5 0.375,1 -0.125,1.03125 -0.375,1.25 -0.5,1.125 -0.625,0.75 -0.65625,0.78125 -0.78125,1.25 0,1.25 -0.125,0.78125 -0.75,0.5 -0.78125,1.375 -0.53125,1.40625 -0.5,0.875 -1,0.75 -0.78125,0.625 -0.5,0.5 -0.53125,0.75 -0.375,1.25 -0.65625,0.875 -0.875,1.15625 -0.53125,1.125 -0.25,1.28125 -0.125,0.875 -0.25,1.25 -0.5,1.125 -0.75,1.15625 -1.03125,2 -1.03125,1.53125 -1.15625,2.25 -0.75,1.25 -0.78125,1 -0.25,1.03125 -0.125,0.75 -0.375,0.75 -0.90625,0.375 -0.90625,0.5 -0.625,0.65625 -0.65625,1.25 -0.375,0.875 -0.375,1.125 -0.5,1.03125 -1.15625,1.125 -0.65625,0.375 0,0.625 -0.125,0.875 -0.5,2 -0.65625,1.03125 -0.75,0.5 -1.15625,0.25 -0.25,0.25 -0.125,0.875 0,1.40625 -0.125,1.125 -0.375,0.875 -1.15625,1.15625 0,1 0.25,0.5 0.375,0.25 0.78125,-0.5 0.90625,-1.03125 0.625,-1.5 0.75,-1.25 0.78125,-1.65625 0.375,-0.5 0.78125,-1.125 0.78125,-1.53125 0.875,-1.5 1.125,-1.5 1.4375,-2.40625 1.28125,-1.25 0.78125,-1.5 0.625,-0.90625 0.875,-1.875 1.28125,-2.03125 1.15625,-2.5 0.65625,-1.625 0.75,-1.125 1.28125,-1.65625 1.15625,-1.75 1,-1.78125 0.125,-1 1.03125,-1.53125 1.4375,-2.375 0.75,-1.40625 1.25,-2.125 1.4375,-2.125 0.875,-2.28125 1.15625,-2.65625 0.5,-1.875 0.75,-1.78125 0.65625,-1.5 0.78125,-2.28125 0.5,-1.625 0.78125,-1.375 0.875,-1.375 0.28125,-0.875 0.875,-1.28125 0.625,-1.125 0.625,-1.78125 0.15625,-1.375 0.125,-1.65625 -0.53125,-0.875 z m -9.3125,14.625 -0.53125,0.25 -0.125,0.375 -0.25,0.125 0,0.625 0.125,0.375 0.25,0.25 0.40625,0.28125 0.5,-0.15625 0.40625,-0.5 0,-0.875 -0.15625,-0.375 -0.625,-0.375 z m -9.84375,14.09375 -0.40625,0.25 -0.25,0.28125 -0.5,0.25 -0.53125,0.375 -0.625,0.5 -0.125,0.75 0.125,0.75 0.25,0.375 0.90625,0.125 0.65625,-0.375 0.125,-0.375 0.125,-0.5 0.5,-0.5 0.78125,-0.5 0,-0.78125 -0.125,-0.375 -0.40625,-0.25 -0.5,0 z m -4.46875,6.1875 -0.40625,0.25 -0.375,0.53125 -0.25,0.125 -0.25,0.5 0.25,0.75 0.25,0.125 0.25,0 0.53125,-0.125 0.25,-0.375 0.25,-0.5 0.5,-0.53125 0.125,-0.5 -0.25,-0.25 -0.875,0 z m -2.3125,8.9375 -0.78125,0.125 -0.375,0.375 0,0.75 0.25,0 0.40625,0.25 0.875,0.125 0.53125,-0.5 0,-0.625 -0.40625,-0.5 -0.5,0 z m -5.90625,4.65625 -0.75,0.125 -0.40625,0.28125 -0.125,0.5 -0.25,0.25 0.125,0.5 0.53125,0.5 1.03125,0.125 0.375,-0.5 0.25,-1 -0.25,-0.53125 -0.53125,-0.25 z m -4.3125,8.09375 -0.65625,0.375 -0.125,0.25 -0.25,0.25 -0.125,0.5 0.25,0.625 0.375,0.375 0.78125,0.125 0.375,-0.875 0.28125,-0.5 0,-0.25 -0.15625,-0.375 -0.5,-0.25 -0.25,-0.25 z m -7.96875,1.125 -0.125,0.375 0,1.375 0.125,0.375 0.375,0.375 1.5625,0.25 0.5,-0.375 0.125,-0.75 -0.375,-0.25 -0.53125,-0.5 -0.25,-0.375 -0.375,-0.25 -0.40625,-0.125 -0.625,-0.125 z m 5.78125,12.1875 -0.375,0.15625 -0.375,0.375 -0.15625,0.125 -0.125,0.375 0.40625,0.5 0.625,0 0.28125,-0.125 0.375,-0.375 0,-0.375 -0.125,-0.53125 -0.53125,-0.125 z"
     id="Ocean"
     style="fill:#cc2f4a;stroke:#ffffff;stroke-width:2" /><path
     d="m 293.6,257.59999 1.4,0.4 1.7,1.3 0.4,1.1 -0.3,0.9 -0.5,0.5 1.5,-0.1 2.7,-1.6 1.4,-2.8 1.1,-1.4 1,0.8 1.8,1.5 2.3,0.4 1.9,0 1.1,-1.4 0.4,-0.1 1.2,0 1.6,1 1.6,1.1 1.1,0.9 2,0.4 3,1.1 2.4,1.5 1.4,1.3 1.9,1.1 1,0.9 1.9,0.5 1.6,0.3 1.3,0.8 2.1,0.4 4.6,0.6 1.8,0.8 0.9,1.3 0.8,1.3 1,1.1 0.1,1.3 0.1,1.6 0.3,1.4 -0.1,1 -0.8,0 -0.4,-0.5 -0.6,-0.6 -0.5,-0.4 -0.5,-0.8 -1.6,-0.3 -1,-0.5 -1.1,0.5 -0.5,0.6 -0.9,0.8 -1,0.9 -0.6,0.1 -0.9,0.4 -0.6,0.6 -0.4,0.8 -1.3,0.4 -1.1,0.4 -1.1,1 -2.1,1.3 -0.5,0.9 0.3,1.3 0.9,0.5 1,-0.5 0.8,-1 1,-0.8 1.3,-1 0.6,0 1.5,-0.1 0.6,-0.3 0.6,-1.4 0.9,-0.6 1.3,-0.3 1.1,-0.8 1.7,0.1 1.1,0.4 1.1,0.5 1.3,0.5 0.3,0.8 -0.1,1.8 -0.5,1.4 -1.3,1.1 -1.6,0.8 -1,0.9 0.5,0.8 -0.4,0.9 -1.6,0.6 -1.2,-0.4 -0.9,0 0.1,0.8 0.6,0.9 0.4,1.1 -0.5,1 0,0.9 0.4,0.5 0.8,0 0.4,-0.4 0.4,-0.8 0.6,-0.9 0.9,0.3 0.3,0.6 1,0.3 0.5,-0.9 0.1,-0.4 0.5,-0.8 -0.3,-1.1 0.8,-0.5 0.9,0.1 0.9,0 0.9,-1.9 0.5,-1.8 0.3,-1.6 0.4,-2.3 -0.3,-1.8 -0.1,-2.5 0,-1.1 -0.3,-1.1 -0.1,-0.9 0,-0.6 -0.3,-1.8 0,-1.3 -0.6,-1.6 -1.4,-3.1 -1.1,-2.9 0,-1.3 0.5,-1 0,-1 -0.9,-0.9 -0.6,0.1 -0.9,0 -1.4,-0.3 -0.1,-1.5 0,-1.3 -0.1,-0.9 -0.5,-1.3 -1,-0.6 0,-0.8 0.6,-0.5 1,-0.4 0.6,0.5 1.1,0.8 0.6,0.4 1.4,1.9 0.6,1.1 0.6,1.8 0.8,2.3 0.4,1.5 0.6,0.9 0,1.5 0.3,2.4 0.5,2.1 0.1,1.9 0.1,1.9 0.5,1.4 0.1,0.4 0.3,0.6 -0.1,1.9 0,2.1 -0.3,2.3 -0.4,3 0,3.1 0.5,2.6 -0.3,1.5 -0.1,0.5 -0.5,2.4 -1,1.8 -0.5,1.9 -0.1,2.8 0.1,1.5 0.1,2.3 -0.5,3.1 -0.6,2.3 -0.4,1.9 -1,2.8 -0.9,1.8 -0.5,1.1 -0.6,1.8 0,1.9 0,2.8 -0.6,1.9 -1,2.4 -0.5,2.1 -0.9,0.5 -1,0.1 -1.4,-0.6 -0.5,-0.5 -0.6,-0.9 -1,0 -0.3,0.6 -0.5,0.9 -1.1,0.1 -0.6,-0.5 -1,-0.9 -1.1,-0.3 -0.5,1 0.1,0.8 0.6,0.6 1.4,1.4 1.9,0.8 1.8,0.3 1.4,-0.5 1.4,-0.8 0.6,0.1 0.5,0.8 -0.1,1.5 -0.3,1.4 -0.8,2.9 -0.4,2 -0.8,2.9 -0.3,3.1 0,2.6 -0.1,2.6 -1.3,1.4 -1.7,-0.1 -0.9,-0.4 -0.6,-0.3 -0.5,0.4 -1.4,0.8 -1.8,0.9 -1.3,0.3 -0.8,-0.6 -0.6,-0.8 -1.2,-0.8 -0.9,-1.8 -0.5,-1.4 0.5,-1.8 -2.6,-2.1 -0.5,-0.1 -1.1,-0.5 -0.5,-0.8 -0.4,-1 -0.8,0.8 -0.1,0.4 -4.9,6.6 -3.5,3.8 -0.3,-0.4 -0.8,-0.6 -0.3,-1.8 -0.5,-0.9 -1.3,-0.1 -0.6,-0.3 -1.1,-0.5 -1,-0.1 -1.4,-0.1 -1.1,0 -1,-0.1 -0.8,-0.2 -0.5,0.1 -1.5,0.8 -1.6,0.3 -0.9,0 -1.8,-0.3 -2,-0.6 -0.8,-1 -0.3,-0.8 0.3,-1.8 0.3,-1 -0.6,-1.6 -0.9,-2.5 -1.1,-1.4 -0.8,-0.6 -0.3,-2.5 -0.1,-0.9 -0.5,-1.1 -0.5,0.1 -6.3,-0.2 -6.3,-0.4 -17.7,-0.4 -8.8,7.7 -16.3,14.8 -5.6,3.3 -0.6,-1.4 -2.3,-4.4 -5.4,-11.1 -4.6,-11.6 1.1,-0.8 1.5,-0.8 0.5,1.8 1.1,0.3 0.4,-0.3 0.3,-0.5 0.8,-0.4 1,-0.3 0.4,-0.3 0.5,-0.1 0.1,-0.1 0.4,-0.1 0.1,0 1.5,-0.1 0.9,-1 0.8,-1.1 0.6,-1.3 0.1,-0.3 0.3,-0.4 0.6,-0.9 0.1,-0.3 0.4,-0.3 0.3,-0.3 0.3,-0.9 0.1,-0.6 0.3,-0.4 0.1,-0.3 0.4,-0.3 0.3,-0.3 1.8,-0.9 2.8,-1.5 0.1,0 1.9,-1.1 2.1,-1.3 0.3,-0.1 0.4,-0.3 0.6,-0.4 0.8,-0.4 0.1,-0.1 0.5,-0.3 0.4,-0.3 0.6,-0.4 0.4,-0.3 0.1,-0.1 -0.1,-0.5 -0.3,-0.5 -0.5,-0.5 -0.1,-0.1 -0.3,-0.3 -0.1,-0.3 0,0.2 0.1,-0.3 0.3,-0.1 0.1,0 2.1,0.4 0.3,0.1 1.6,0 0.6,0.1 0.4,0.3 0.5,0.1 5.3,-3.3 6.9,-3.9 0.8,-0.4 0.1,0 0.1,-0.1 0.5,-1.3 0,-0.8 0.1,-0.1 0.1,-0.3 0,-0.3 19.7,-21.7 5.9,-6.1 3.9,-4 1,-1 0.1,-0.3 0.1,0 0,-1.6 0.1,-4 0,-1.9 0,-0.3 1.9,-2.4 1,-0.1 1.6,-0.5 0.7,-1.3 z"
     id="Monmouth"
     style="fill:#e27f90;stroke:#ffffff;stroke-width:2" /><path
     id="Bergen"
     d="m 295.19922,67.400391 -1.39844,3.699218 -2.10156,5.300782 -0.39844,0.90039 -1,2.699219 -0.90039,2.5 -0.30078,0.400391 -0.59961,1.90039 -0.30078,0.5 -0.5,1.199219 -0.29883,0.599609 -0.0996,0.400391 -0.10156,0.5 -0.59961,1.800781 -0.29883,0.398438 -1.4004,3.800781 -1.5,3.900391 -0.30078,0.699218 -0.5,1.400391 0.40039,0.30078 0.90039,0.89844 0.5,0.5 1.09961,2.5 0.30078,0.60156 0.5,0.89844 0.89844,1.30078 0.40039,0.59961 2.70117,2.40039 2.5,1.09961 3.59961,0.30078 2,0.29883 5.29883,0.70117 1,-1.40039 0.80078,-0.0996 0.59961,0.5 2.70117,2.09961 0.89844,0.5 1.10156,1 -0.40039,0.90039 -0.0996,0.90039 -0.60156,1 -0.39844,1.89844 L 309,120 l -0.40039,0.40039 -0.0996,0.5 0.5,0.5 0.40039,0 0.29883,0.0996 0.30078,0.0996 0.30078,0.59961 0.5,1 0.0996,0.30078 0,0.19922 -0.0996,0.40039 -0.10156,0.0996 -0.29883,0.40039 -0.0996,0.40039 0,0.40039 0.39844,0.59961 0.90039,0.40039 0.5,0.0996 0.30078,0.0996 0.29883,0.59961 0,0.60156 -0.29883,1.79883 -0.0996,2.59961 0,0.60156 0,0.29883 0.0996,0.40039 0.0996,0.30078 0.40039,2.5 0.0996,0.39844 0.19922,-0.29883 0.30078,0.29883 0.30078,0.10156 0.0996,0.0996 0.29883,0.0996 0.10156,0.0996 0.0996,0 0.90039,1.30078 0.0996,0.0996 0.90039,1.40039 1.09961,4.5 -0.80078,0.90039 -0.90039,-1.5 -0.29883,-0.30078 -0.0996,0.0996 -0.80078,0.30078 -0.0996,1 0.0996,0.90039 0,0.89844 -0.40039,2.5 0.59961,1.5 0.10156,0.30078 0,0.90039 -0.10156,0.5 0,0.29883 -0.0996,0.30078 -0.29883,0.80078 -0.10156,0.29883 -0.39844,0.40039 -0.40039,0.0996 -1,0.40039 -0.40039,0.90039 -0.80078,2 0,1.29883 0.10156,1.30078 -1.30078,2.30078 -0.59961,1.79883 1.5,0.40039 1,1.40039 0.79883,0.79883 0.80078,1.60156 0.90039,0.29883 2,-1.59961 2.40039,-0.5 0.0996,0.59961 -0.0996,2.80078 0.5,0.79883 1,0.30078 1.09961,-0.59961 0.29883,-1.59961 -0.59961,-1.80078 0.59961,-2.40039 2.20117,-2.5 2.19922,-2 2.59961,-1.09961 0.40039,0 2.20117,-0.30078 1.79883,-1 0.90039,-1.09961 1.59961,-0.40039 1.09961,-1.29883 0.5,0.0996 1.40039,1.90039 1.30078,0.5 2.69922,2.90039 -0.29883,0.89844 0.89844,0.5 0.40039,-0.59961 1.59961,-2.90039 1.40039,-2.79883 1.30078,-2.90039 0.29883,-0.69922 2.90039,-6.70117 2.59961,-7 0.40039,-1 1.40039,-3.90039 1.30078,-3.39844 0.89844,-3.30078 1.5,-5.59961 L 360,118 361.30078,112.30078 361.90039,110 362.5,105.69922 360.90039,105 360,104.5 343.40039,95 l -3.5,-1.900391 L 334.80078,90 307.69922,74.199219 l -12.5,-6.798828 z"
     style="fill:#86b6f2;stroke:#ffffff;stroke-width:2" /><path
     d="m 187.4,340.69999 1,0.3 1.3,-0.9 0.4,-0.8 1.3,-2.3 -0.6,-0.6 -0.4,-0.5 0.1,-0.6 -0.3,-0.6 -0.3,-0.5 -0.1,-0.5 0,-0.6 0.5,-0.6 0.4,-0.4 0.4,-0.1 1,0 0.8,0.5 0.6,0.6 0.5,0.3 1,0.1 1,-0.1 0.6,0 0.8,0.5 0.1,0.5 0.1,0.3 0,0.9 -0.5,0.9 0.6,0.4 1.6,0 1.8,1.3 2.7,1.3 1.8,1.4 2.6,0.6 0.5,0.9 0,1.1 0.4,0.4 4.5,1 1.8,-0.3 0.3,-0.1 5.4,11.1 2.3,4.4 0.6,1.4 0.3,0.5 0.4,1 0.3,0.5 1,2.4 0.1,0.3 1,2.6 1.7,3.5 0.5,1 1.9,6 1.8,4 0.6,1.4 0.1,0.4 0,0.3 0.3,0.4 0.1,0.5 0.6,1.4 0.1,0.5 0.3,0.6 0.5,1.1 0.3,0.6 0.3,0.6 0.3,0.8 1.3,3.1 0.5,1.6 0.3,0.6 0.4,0.8 0.1,0.4 1,2.4 0.3,0.9 0.6,1.6 0.3,0.4 0.3,0.5 0.1,0.5 0.3,0.8 1.2,2.8 3.2,7.3 0.3,0.5 1.8,4.4 1.4,3.5 2.6,6.4 0.4,0.9 0.1,0.3 0.4,1 0.8,1.8 0.1,0.4 6.2,14.2 -1,34.9 -0.3,5.9 0,1.3 0,2.4 -0.1,2 -0.1,0.5 -0.1,0.3 -0.3,0.5 -0.1,0.3 -0.1,0.5 -0.1,0.1 -0.3,0.1 -0.4,1.1 0,0.8 -0.1,0.5 -0.1,0.6 -0.4,0.5 -0.1,0.6 -0.3,0.4 -1,0.1 -0.6,-0.1 -0.4,0 -0.5,0.1 -0.3,0.3 -0.4,0 0.1,0.6 0.4,0.8 0,1.1 -0.6,0.4 -0.8,0.6 -1.1,1 -1.1,-0.9 -1.4,0.4 0.3,0.8 1.2,1.8 -0.3,1.3 -1.3,0.1 -1.3,-1 -0.4,-1.5 0.5,-1.6 0,-0.3 -0.5,-0.5 -0.8,-0.1 -0.4,0.4 -0.1,1.4 -0.1,1.1 -0.5,0.3 -0.1,0 -0.5,-0.3 -0.3,-0.8 -0.1,-0.8 -0.4,-0.6 -0.9,0.1 -0.8,0.5 -1,0.3 -1.1,-0.8 -0.5,-0.6 -0.5,-0.1 -1.1,0.5 -0.4,-0.3 -0.6,-1.4 -1,-0.6 -0.5,-0.9 -0.9,-0.3 -0.4,0.1 -0.5,-0.4 -0.5,-0.4 -0.8,-0.5 -0.5,0.1 -0.6,0.8 -0.5,-0.1 -0.3,-1.5 -0.5,-0.6 -3.9,-2.8 -0.9,-1.5 -0.8,-0.4 -1,-0.4 -1.3,-0.4 -2.6,-0.4 -3.1,-3.4 -3.4,-2.5 -2.8,-1.3 -0.8,-0.4 -1.3,1.4 -0.5,0.4 -0.4,-0.4 0.1,-0.8 -0.1,-0.5 -0.3,-0.4 -0.4,0 -0.4,0.5 -0.5,0.3 -0.6,-0.3 -0.5,0 -0.8,-0.6 -0.9,-0.4 -0.5,-1.1 -0.6,-0.5 -0.3,-1.8 0.4,-1.5 -0.4,-2.1 0.3,-1.3 0.5,-1.4 -0.1,-1.3 -0.9,-1.8 -0.5,-1 -0.1,-1.1 -0.1,-0.8 -0.9,-1 -1.3,-1.6 -9.5,-7.8 -3.5,-2.9 -2.8,-2.3 -1.3,-0.8 -1.4,-0.5 -1.3,-1.1 -1,-0.8 -0.3,-0.6 -0.3,-0.8 -0.4,-0.1 -0.8,-0.5 -0.4,-0.5 -1.2,-2.8 -1.5,-0.6 -1.7,-2.3 -1.3,-0.9 -1.9,-0.9 -1.7,-0.4 -2.6,-0.1 -1.7,0.1 -1.3,0.1 -1.4,0.6 -1.9,0.6 -1.5,0.3 -0.9,0.1 -1.1,0 -1.4,-0.3 -1.1,-0.6 -0.6,-0.6 -0.6,-0.6 -2.2,-9.2 -3.6,-13.9 -0.4,-2 -1,-1.1 -0.8,-0.9 -1,-0.9 -0.1,-0.6 -0.6,-0.9 -1.1,-1.3 -0.3,-1.6 -0.4,-0.8 -1.1,-1.8 -1,-1 -1.9,-0.3 -1.4,-0.8 -0.8,-1 0.1,-0.8 0.8,-0.4 0,-0.5 0.6,-0.3 0.4,-0.3 0,-0.6 -0.8,-0.4 -1.6,0.3 -0.9,-0.1 -0.5,0 -0.9,-0.1 -0.3,-0.1 -0.6,-0.5 -0.7,-0.1 -0.6,-0.4 -0.5,-0.4 -0.7,-0.3 -0.8,-0.3 -0.4,-0.5 0.1,-0.5 0.4,-0.5 0.3,-0.3 0.3,-0.6 -0.1,-0.4 -0.5,-0.6 -0.7,-1.5 -0.3,-0.8 0.5,-0.8 0.4,-0.6 0.2,-0.5 0.1,-0.5 0.3,-0.5 0.5,-0.4 0.3,-0.3 -0.5,-0.6 -0.7,-0.8 -0.3,-0.6 -0.8,-0.6 -0.5,-0.8 -0.7,-0.3 -0.8,0.1 -0.9,-0.1 -0.5,-0.4 -0.5,-0.4 -0.5,0.1 -0.8,0.1 -0.6,0.1 -0.9,0.9 -1.9,-0.8 0.1,-0.3 0.4,-0.8 0.4,-0.8 0.3,-0.9 0.6,-0.9 0.3,-0.6 0.7,-0.7 0.5,-0.5 0.8,-0.5 0.9,-0.5 1,-0.4 1.1,-0.4 1.4,-0.4 1.3,-0.6 0.5,-0.3 0.7,-0.5 0.9,-0.7 0.1,-0.1 0.9,-0.7 0.8,-0.7 0.2,-0.3 0.6,-0.7 1.1,-1.2 0.5,-0.6 0.8,-0.6 0.9,-0.8 0.6,0.4 0.3,-0.3 1.3,-0.8 1.6,-0.8 2.6,-1.7 2.1,-1.4 1,-0.6 1,-0.2 0.3,0 0.7,0 1.4,-0.1 0.8,-0.1 0.8,-0.2 0.8,-0.3 0.9,-0.2 0.8,-0.2 0.7,-0.3 1,-0.4 1.1,-0.4 0.9,-0.4 0.8,-0.4 0.8,-0.3 0.7,-0.3 0.8,-0.4 0.4,-0.4 0.5,-0.5 0.4,-0.5 0.4,-0.5 0.4,-0.6 0.5,-0.5 0.6,-0.4 0.9,-0.5 0.8,-0.5 0.6,-0.5 0.5,-0.6 0.3,-0.9 0.1,-1.1 0.4,-1 0.3,-0.9 0.5,-0.8 0.5,-0.6 0.5,-0.5 0.6,-0.3 0.8,-0.3 0.9,0 0.9,0.3 1.2,0.5 0.1,0.1 1.2,0.6 0.7,0.2 0.6,0.1 0.1,0.1 0.6,0 0.6,-0.1 0.5,-0.3 0.5,-0.4 0.1,-0.1 0.5,-0.5 0.6,-0.5 0.6,-0.6 0.8,-0.5 0.8,-0.4 0.1,-0.1 0.6,-0.2 1,-0.1 1,0 0.7,0 0.6,-0.2 0.9,-0.6 0.9,-0.7 1,-0.9 1,-1 1.1,-1 z"
     id="Burlington"
     style="fill:#86b6f2;stroke:#ffffff;stroke-width:2" /><path
     d="m 115.8,384.49999 1.9,0.8 0.9,-0.9 0.6,-0.1 0.8,-0.1 0.5,-0.1 0.5,0.4 0.5,0.4 0.9,0.1 0.8,-0.1 0.7,0.3 0.5,0.8 0.8,0.6 0.3,0.6 0.7,0.8 0.5,0.6 -0.3,0.3 -0.5,0.4 -0.3,0.5 -0.1,0.5 -0.2,0.5 -0.4,0.6 -0.5,0.8 0.3,0.8 0.7,1.5 0.5,0.6 0.1,0.4 -0.3,0.6 -0.3,0.3 -0.4,0.5 -0.1,0.5 0.4,0.5 0.8,0.3 0.7,0.3 0.5,0.4 0.6,0.4 0.6,0.1 0.6,0.5 0.3,0.1 0.9,0.1 0.5,0 0.9,0.1 1.6,-0.3 0.8,0.4 0,0.6 -0.4,0.3 -0.6,0.3 0,0.5 -0.8,0.4 -0.3,0.3 0.8,1 1.4,0.8 1.9,0.3 1,1 1.1,1.8 0.4,0.8 0.3,1.6 1.1,1.3 0.6,0.9 0.1,0.6 1,0.9 0.8,0.9 1,1.1 0.4,2 3.5,14.5 2.2,9.2 0.6,0.6 0.6,0.6 1.1,0.6 1.4,0.3 1.1,0 0.9,-0.1 1.5,-0.3 1.9,-0.6 1.4,-0.6 1.3,-0.1 1.7,-0.1 2.6,0.1 1.7,0.4 1.9,0.9 1.3,0.9 1.7,2.3 1.5,0.6 1.2,2.8 0.4,0.5 0.8,0.5 0.4,0.1 0.3,0.8 0.3,0.6 1,0.8 1.3,1.1 1.4,0.5 1.3,0.8 2.8,2.3 -5.5,6.2 -14.4,15.9 -10.6,12 -1.4,-1 -1.7,-1.8 0,-0.5 -0.1,-0.5 -0.1,-1.4 -0.9,-0.5 -0.8,-0.4 -0.5,-1.3 -0.5,-2.4 -0.6,-4.6 -0.4,-2 -2.1,-3.4 -1.4,-1.1 -0.4,-1.4 -1.4,-1.3 -6.3,-1.8 -3.1,-1.3 -2.9,-1.8 -0.6,-1.8 -2.8,-2.4 -1.8,-0.5 -1,-0.9 0.1,-2.6 0,-1.9 -0.5,-1 -1.7,-2 -1.2,-1.5 -0.9,-1.1 -0.3,-1.1 -0.5,-1 -0.9,-1 -0.8,-0.4 -1.3,-1 -1.2,-1.1 -0.6,-1.4 -0.3,-0.3 -0.6,-0.4 -0.4,-1 0,-2.2 -1.9,-1.6 -1,-0.9 0,-2.1 0.8,-1.5 0,-2.3 -0.2,-0.5 0.3,-1.5 -0.5,-0.9 -1.4,-1.4 -2.2,-1.3 -1.2,-1.3 -1.5,-1 -0.8,-1.6 -0.7,-1.1 -1.2,-0.8 -0.8,-0.5 0.3,-0.9 -0.6,-1.3 -1.699997,-1 0.2,-0.2 0.6,-0.8 0.6,-1 0.399997,-0.9 0.3,-1.1 0.1,-0.4 0.1,-0.9 0,-1.1 -0.1,-0.8 -0.2,-0.8 -0.3,-1 -0.199997,-0.8 -0.2,-1.1 -0.2,-1.1 -0.1,-1.1 -0.1,-1 -0.1,-1.1 0.2,-1 0.1,-0.7 0.3,-0.9 0.299997,-0.6 0.6,-0.8 0.8,-0.8 0.2,-0.3 0.4,-0.3 1.2,-0.9 1.7,-1.1 1.6,-0.6 0.9,-0.3 1.7,-0.5 1.7,-0.5 1.4,-0.7 1,-0.8 0.8,-0.5 0.8,-0.9 0.8,-0.8 0.2,-0.5 z"
     id="Camden"
     style="fill:#4389e3;stroke:#ffffff;stroke-width:2" /><path
     d="m 157.2,569.69999 0.6,1.9 0.9,0.6 1.3,0.3 2.1,0.6 0.9,0.1 0.9,1.5 0.6,0.5 1,0.4 1.7,-0.3 2.2,0.4 0.9,-0.8 0.1,0 0.4,0.1 0.8,0.1 0.4,0.5 0.5,0.1 0.4,-0.4 0.6,-0.3 0.8,0.3 1.4,0.4 -0.1,0.6 0,0.6 0.3,0.3 0.8,-0.3 1.4,0.4 0.8,0.5 0.6,-0.5 0.5,-0.5 0.4,0.5 0.3,0.8 0.6,0.6 1,-0.5 1.5,-0.3 0.9,-0.3 0.8,-0.2 1,0.3 0.5,0.3 0.8,0 0.5,0.6 0.4,0.6 0.6,0.1 0.6,-0.4 0.3,-0.4 0.4,0 0.3,0.3 0.3,0 0.4,-0.3 0.6,0.3 0.3,0.4 0.4,0.4 0.8,0 0.8,-0.3 0.4,-0.3 0.6,-0.3 0.6,-0.3 0.6,-0.1 0.6,-0.5 0.3,-0.1 0.1,0 0.4,0.9 0,0.4 0.1,0.5 0.1,0 0.6,-0.8 0.1,-0.4 0.4,-0.5 0.6,-0.4 0.5,-0.1 0.8,-0.1 0.6,0.9 0,0.8 0.1,0.6 -0.8,0.9 1.9,0.7 2.4,-0.3 2.2,0.8 1.4,0.5 0.3,1.2 -0.4,0.6 -0.9,2.9 -0.5,1.9 0.3,0.8 0.4,0.1 0.9,-1 1.3,-0.9 0.6,-0.4 0.9,-0.6 0.6,-0.8 0.1,-0.8 0,-0.8 -0.3,-0.6 -0.4,-0.5 -0.1,-0.3 0.1,-0.5 0.4,-0.8 0.4,-0.1 0.4,-0.1 1.1,0.9 1.3,0.5 1.4,-0.9 1.1,-0.8 1.4,-1 0.8,-0.8 1.4,-0.5 1.1,-0.1 0.6,0.6 0.8,1.5 -0.9,3.4 -1.3,0.8 -2.4,0.9 -2.3,0.6 -2.4,2 -2.1,2.3 -1.1,1.8 -0.6,1.9 -1.1,2.8 -0.9,1.5 -1,1 -1.3,1 -1.4,0.4 -0.9,-0.1 -1.1,-0.1 -1,0.5 0,1 -0.1,0.6 -0.5,0.9 -0.5,0.1 -0.8,0 -0.5,0.4 0.4,0.5 0.9,0.3 1,0.4 0.4,0.4 -0.1,1.4 -1.4,1.5 -0.9,1.4 -1,1.6 -0.9,1 -0.5,0.9 -0.5,1.5 -0.8,1.6 -0.4,1.3 -0.8,1.2 -0.9,1.5 -1,0.8 -1.2,0.6 -0.3,0.8 -0.5,1.3 -0.3,0.8 -0.4,1 -0.5,0.4 -0.8,0.5 -0.5,0.1 -0.4,-0.3 -0.3,-0.5 0,-1.4 0.4,-1.1 0.3,-0.9 0.1,-0.9 0.1,-0.6 -0.3,-0.4 -1,0.3 -0.3,0.1 -0.6,0.8 0,0.9 -0.3,1.1 0,1 -0.5,1 -3.2,0.4 -0.9,1 0.4,0.3 0.9,0.4 1.3,0 0.9,0 -0.4,1.2 -0.3,1.4 0,0.3 0.3,0.3 1,-0.3 1,-0.6 2.2,-0.6 0.5,0.1 0.3,0.1 0.5,1.5 0,1.3 -1.1,1.6 -1.4,1.5 -1,1.7 -1,1.8 -1.3,2.4 -1,2.3 -0.9,1.5 -1.1,1.9 -1.4,1.3 -1,0.9 -1.1,1.4 -0.6,0.9 -0.4,0.3 -0.3,0.3 -0.9,0.6 -0.5,-2.5 0.1,-0.9 0.1,-1.4 0.6,-1.1 0.3,-0.8 0.5,-1.4 1.6,-0.5 1,-0.6 0.6,-0.6 0.3,-0.6 -0.4,-0.9 -0.6,-0.9 -0.4,-0.5 -0.5,-1.5 0.1,-1 0.5,-1.1 0.3,-1.1 -0.3,-1.7 -0.1,-0.6 0,-0.4 -0.1,-0.9 -0.6,-0.9 -0.5,0 -0.9,0.4 -1.4,0.3 -1.3,0.3 -1.6,0.4 -0.3,1.3 -0.3,1.5 1.7,2.6 1.5,-1.4 0.4,-0.1 0.5,2.6 0.4,1.6 0.3,0.1 0.4,0.3 0.3,1 -0.1,1.1 -0.3,0.5 -0.5,0.5 -0.5,0.4 -1.1,1.1 -0.5,1 -0.6,1.5 -0.5,1.9 -0.4,1.5 -0.9,0.6 -1.4,0.1 -0.4,0.4 0.3,0.8 0.3,0.5 0.5,0.8 0.3,0.8 0,0.6 0.8,1.1 0.8,0.6 0.3,0.9 0,0.9 -1,1.9 -1.8,2 -2.6,2 -1.8,1.4 -1.8,1.7 -1.3,1.5 -1.3,1.1 -1.3,0.8 -1.5,1 -1.3,0.9 -0.5,0.8 -0.3,0.4 -0.4,0.3 -0.8,-0.8 0.4,-1.8 0,-1.1 -0.4,-1 -0.4,-0.9 0.1,-1.1 0.5,-0.4 0.3,-0.3 1,0 0.6,0.8 0.8,-0.1 1.2,-0.6 0.6,-0.5 0.3,-0.7 0.1,-0.5 0.5,-1 -0.1,-0.1 -0.5,-0.5 -0.4,-0.5 -0.9,-0.3 -1.6,0.8 -1,0.4 -1,0 -0.8,-0.9 -0.4,-0.1 -0.6,0.4 -0.3,0.1 0,0.6 0.5,0.6 0.4,0.8 0.1,0.6 -0.3,0.9 -1,0.5 -1,-0.6 -1,-0.4 -0.6,0.5 0.3,1.3 0.1,0.3 0.6,0.3 0.9,0.1 0.8,0.4 0.3,0.8 0,1.3 -0.1,0.1 -1.4,0.5 -1.1,0.3 -0.8,0 -2.4,0 -0.8,0.9 -0.1,0.6 0.9,0.6 1.5,-0.1 0.9,-0.4 0.3,-0.1 0.9,-0.1 0.6,-0.3 0.8,-0.3 1.1,0.3 0.3,1 -1,1.1 -1.1,0.8 -0.9,0.4 -0.5,0.1 -2.7,0.9 -1.4,0.3 -2.3,0.5 -1.9,0.5 -1.6,0.4 -2.2,0.6 -1.8,0.1 -1.5,0 -1.2,-0.4 -1,0 -0.6,-0.4 0.3,-0.6 0.5,-1.1 0.1,-0.3 -0.9,-1.4 -0.4,-0.9 0.1,-1.1 1.4,-0.8 0.4,-1.2 0.3,-1.4 0.1,-1.1 -0.1,-0.6 -0.3,-0.5 -0.3,-1.1 0.3,-0.8 0,-0.6 0.1,-1.3 0.3,-0.9 0.3,-0.6 1,-1.8 0.4,-1 1,-2.5 0.6,-2 0.4,-1.9 0.3,-1.3 0.4,-1.4 1.3,-1.4 1.1,-1.5 1.3,-1.4 1.1,-1.1 0.8,-2.3 0.5,-1.9 0.4,-2 0.5,-1.6 0.5,-1 1.6,-2.1 0.9,-2.1 0.4,-1.3 0.1,-0.6 0.9,-1.5 0.6,-1.5 0.3,-1.8 -0.3,-2.4 -0.4,-1.4 -0.3,-1.5 0.1,-1.4 -0.1,-1.3 -0.5,-0.9 -1.3,-1.3 -0.6,-1.4 -0.9,-1.6 -1,-0.9 0.3,-3.5 -0.5,-0.4 -0.1,-0.6 0.1,-0.5 -1.1,-0.6 -0.6,0.3 0,-0.6 0.4,-0.5 0.3,-0.4 -0.1,-0.1 -0.6,0 -0.5,-0.5 0,-0.5 -0.3,-0.7 0.4,-0.8 0.1,-0.8 -0.1,-0.9 -0.1,-0.8 0,-0.9 -0.1,-0.8 0.1,-1.1 1.1,-1 1.4,-0.3 1.1,-0.1 0.8,-0.4 0.9,-1 1.4,-1.3 2.3,-18.9 0.8,-1.1 0.8,-0.4 1.6,-1.5 0.9,-2.1 -0.1,-1.3 z"
     id="Cape_May"
     style="fill:#e27f90;stroke:#ffffff;stroke-width:2" /><path
     d="m 131.2,517.09999 27.4,25.2 0.1,1.9 0.1,0.8 0.4,0.9 0,1 -0.3,0.8 -0.1,0.5 -0.4,0.9 -0.3,0.5 -0.1,1 0.3,0.8 0.4,0.9 0.4,0.9 0.3,1 0.1,0.8 0,1 -0.1,1.3 -0.4,1.1 -0.8,2 -0.8,2.8 -0.4,4.2 0,2.6 -0.5,0.8 -0.9,2.2 -1.6,1.5 -0.8,0.4 -0.8,1.1 -2.3,18.9 -1.1,0.8 -0.9,1 -0.8,0.4 -1.1,0.1 -1.4,0.3 -1.1,1 -0.1,1.1 0.1,0.8 0,0.9 0.1,0.8 0.1,0.9 -0.1,0.8 -0.4,0.8 0.3,0.6 0,0.5 0.5,0.5 0.6,0 0.1,0.1 -0.3,0.4 -0.4,0.5 0,0.6 0.6,-0.3 1.1,0.6 -0.1,0.5 0.1,0.6 0.5,0.4 -0.3,3.5 -2.1,0 -1.5,-0.6 -1.4,-0.6 -2.1,-1.5 -2.1,-0.9 -2.1,-0.8 -1.9,-0.1 -4.4,0.9 -2.7,-0.8 -2.9,0.1 -1.7,0.3 -1,-0.9 0.1,-1 1.3,-1 -0.9,-2.2 -0.7,-0.6 0.3,-0.9 -0.4,-0.6 -1.3,-0.5 -1.8,0.3 -0.5,0.9 -0.3,0.8 -4.6,0.7 -3.1,-0.3 -2.8,-0.4 -0.9,0.5 -0.5,0.6 -1.4,0.1 -1,0.4 -0.3,1 -0.4,1.4 -0.1,1.5 -0.6,1.1 -1.399997,0.6 -2.1,0.6 -0.5,-0.4 -0.9,-0.9 -1.2,-1.6 -1.3,-1.8 -1.9,-1.1 -1.2,0 -0.1,-0.6 0.1,-0.9 1.2,-0.3 0.7,-0.3 0.1,-1 -0.8,-0.8 -0.8,-0.4 0,-1 0.7,-1 0.5,-1.1 -0.1,-1.8 -1.8,-2.9 -1.7,-0.9 -1,-0.1 -0.7,0.6 -0.9,0.5 -0.7,-0.1 -0.4,-1.4 -0.2,-2.2 -0.6,-0.5 -1.4,-0.6 -1.8,-0.6 -1.8,-0.6 -2.1,-1.5 -1.4,-0.9 -1,-1.4 0.9,-0.4 1,-1.1 0,-1.4 -0.9,-0.5 -1.3,-0.4 -1,-0.1 0.1,-1.7 -0.5,-0.5 -1.8,0 -2.9,0 -0.8,0.5 -0.4,0.9 -0.5,1.1 -0.9,0.9 -1.2,-0.6 -1.2,-1.5 -3.5,-2.1 -0.4,-0.7 -0.3,-0.8 0.4,-1 0,-1 -0.9,-2.3 -1,-1 -0.4,-0.8 -0.3,-1.4 -0.1,-1.5 -0.6,-1.5 -1.7,-0.7 -2.3,-0.4 -0.4,0.3 -0.4,0.1 0.5,1.7 -0.5,0.9 -1.4,0 -0.5,-0.8 -1.8,-1.9 -1.2,-1.3 -1,-0.9 -1.2,-0.5 -0.4,-0.8 -0.3,-3.5 -0.9,-1.3 0,-1.3 -1.3,-0.9 -0.3,-1.3 0.4,-1 -0.6,0.6 -1.8,0.6 0,-0.5 0.1,-0.5 0,-1.2 0.3,-0.1 1,-0.1 0,-1.5 0.3,-0.6 -0.7,-0.4 -0.3,-1.4 -0.2,-0.6 -0.5,-1 0,-0.4 0.1,-0.4 0.1,-0.9 1,-1.5 0,-0.5 -1,-0.4 -0.8,-0.5 0.1,-0.8 0.3,-0.4 0.3,-0.3 0.3,-0.8 0,-0.5 0.4,-0.5 0.3,-0.3 0.1,-1.2 0,-1 0.4,-0.9 1.2,-1.8 0.7,-0.1 4.7,1 1.3,0.3 1.2,-0.1 0.7,-1.3 0.6,-1.5 2.2,-1.6 1.2,-2 0.7,-1.8 0.8,-0.6 1.7,0.3 2.2,-0.4 1.5,-0.6 2,-2.7 14.3,-15.5 33.299997,28.2 0.4,-1.1 0,-2 1.4,-3.3 0,-0.6 -0.1,-1.4 0,-0.9 0.2,-0.4 -1.2,-1.4 0.1,-0.6 0.8,-1.4 0,-1.6 0.1,-1.9 1,-2.8 -0.4,-4.1 -0.2,-1.4 0.1,-1 0.8,-0.4 0.4,-0.3 0.2,-0.1 0,-0.4 -0.3,-0.5 0.8,-1.9 0.7,-1.3 16.3,15 z"
     id="Cumberland"
     style="fill:#86b6f2;stroke:#ffffff;stroke-width:2" /><path
     d="m 282.9,134.19999 1.4,0.4 0.1,0.1 0,0.3 0.1,0.3 0,1.1 0.1,0.3 0.1,0.1 0.5,1.1 0.4,0.3 0.5,0.4 2.2,-1.4 0.4,-1.6 0.8,-0.3 0.5,1.4 0.8,1.5 0.8,1.5 1.9,1.5 14.6,11.1 4.4,3.1 -0.4,0.9 -0.8,2 0,1.3 0.1,1.3 -1.3,2.3 -0.6,1.8 -0.6,2.3 -0.4,0.4 -0.3,0.4 -0.1,0.1 -0.4,0.8 -0.3,0.8 -0.1,0.5 -0.4,0.5 -0.3,0.4 -0.1,0.3 -0.6,1.8 -0.3,1.6 -0.1,0.5 0,0.9 0.3,0.8 0.3,0.8 0.4,0.8 0.1,0.4 0.3,0.4 0.4,0.1 1,0 1.1,-0.1 0.3,-0.1 0.1,-0.1 0.3,-0.3 0.1,-0.3 0.3,-0.4 0.3,-0.4 0.1,-0.1 0.9,-0.5 0.6,-0.1 1.8,0 0.6,0.1 0.4,0.1 0.3,0.1 0.4,0.4 0.1,0.3 0,0.8 -0.5,2.4 -0.3,1.3 -0.3,2.8 1.4,1.9 -1.1,0.8 -1,1 -0.4,1.1 -0.4,1 -0.8,1.5 -1.4,1.1 -1.1,1.1 -2.8,-2.5 -2.6,0.5 -6.6,-0.2 -1,-0.4 -1,-2.3 -1.1,-1.9 -2.6,-1.3 -4.4,-0.9 -4.4,-1.6 -3,-1.1 -1.4,0.1 -1.3,1.3 -1.8,0.8 -1.4,-0.6 -1.4,-0.5 -0.9,-0.4 -1.3,0.3 -0.8,-0.4 -3.5,-2.8 -2.3,-1.5 -2.6,-0.9 1,-1.4 0.3,-1.3 0.1,-0.9 0.8,-0.4 0.5,-0.4 0.1,-0.5 -0.6,-0.1 -0.6,-0.3 -1,-0.6 -0.5,0 -0.5,-0.3 0.4,-0.5 0.6,-1 0,-1.3 -0.5,-1.3 0.1,-1 0.9,-1.4 0,-3.9 1.1,-1.3 0.8,-0.9 1.4,-0.5 0.3,-1.6 0.5,-0.5 1.5,0.1 0.6,-0.5 0.6,-0.9 0,-1.3 0.1,-1.1 0.8,-1.4 0.1,-2.3 0.3,-1.1 -0.5,-1.1 0.6,-1.4 0.3,-1 0.6,-2.1 -0.1,-0.3 -1.3,-0.9 -1.1,-0.4 -0.3,-0.6 0.1,-1.3 -0.8,-1.5 0.9,-3.9 -0.4,-1.6 0.5,-1.1 0.6,-0.8 1.5,-0.3 0.9,0.3 0.4,0.8 0.3,0.4 1,-0.1 0.8,-0.4 0.9,-0.3 0.8,0.1 0.5,0 0.8,0.1 0.1,0.3 0.4,0.4 0.1,0.4 0.3,0.2 0.9,0.3 0.3,0.3 0,0.4 0.1,0.5 0.8,0.4 1.8,-0.4 z"
     id="Essex"
     style="fill:#1666cb;stroke:#ffffff;stroke-width:2" /><path
     d="m 98.400003,413.29999 1.699997,1 0.6,1.3 -0.3,0.9 0.8,0.5 1.2,0.8 0.7,1.1 0.8,1.6 1.5,1 1.2,1.3 2.2,1.3 1.4,1.4 0.5,0.9 -0.3,1.5 0.2,0.5 0,2.3 -0.8,1.5 0,2.1 1,0.9 1.9,1.6 0,1.9 0.4,1 0.6,0.4 0.3,0.3 0.6,1.4 1.2,1.1 1.3,1 0.8,0.4 0.9,1 0.5,1 0.3,1.1 0.9,1.1 1.2,1.5 1.7,2 0.5,1 0,1.9 -0.1,2.6 1,0.9 1.8,0.5 2.8,2.4 0.6,1.8 2.9,1.8 3.1,1.3 6.3,1.8 1.4,1.3 0.4,1.4 1.4,1.1 2.1,3.4 0.4,2 0.6,4.6 0.5,2.4 0.5,1.3 0.8,0.4 0.9,0.5 0.1,1.4 0.1,0.5 0,0.5 1.7,1.8 1.4,1 -23.3,25.8 -16.3,-15 -6.2,-5.8 -14.799997,-13.6 -5.8,-5.3 -2.9,-2.8 -1.2,-0.1 -1.2,0.1 -1.2,1 -1.3,-0.2 -0.4,0 -1.7,0.4 -1.1,-0.4 -1.6,-0.5 -0.5,-1.1 -0.7,-1.1 -0.1,-0.9 -0.3,-0.8 -0.5,-0.5 -1.3,-0.5 -1.6,-0.4 -2.2,0.5 -1,0.3 -1.4,-0.9 -1.2,-1 -0.9,-0.4 -1.4,0 -1.2,0.4 -0.9,-1.1 -0.3,-0.3 -1.2,0.4 -0.7,0 -0.1,-0.5 -0.3,-0.8 -0.6,-0.6 -1,-1.4 -0.2,-0.8 -0.5,0 -0.9,-0.1 -0.9,-0.8 -0.4,-0.5 -0.5,-0.4 -1.3,-0.1 -0.9,-0.4 -0.7,-0.9 -0.1,-0.9 -0.4,-0.6 -0.9,-0.5 -0.4,-0.5 -0.3,-0.9 0.1,-0.6 0.1,-0.9 0,-0.5 -0.1,-0.3 -0.8,-2 -0.4,-0.6 -0.9,-0.1 -0.5,-1.8 -1,-0.4 -1.2,-0.8 -0.4,-0.8 -0.5,-0.6 -0.1,-0.3 -0.7,-0.1 -0.1,-0.8 0.7,-0.9 0.5,-0.6 -0.1,-2.1 -0.8,-0.9 -0.3,-1.1 -0.7,0 -1,0.4 -1.4,0.1 -2.1,0.4 -0.5,-0.4 0.3,-0.3 1.1,-0.6 0.2,-0.1 1.1,-0.6 2,-0.9 1,-0.5 -1.9,-1.7 6.2,-4.6 3.7,-3 1.4,-1.5 1.7,-1.3 1.3,-0.8 1,-0.6 1,-0.5 0.4,-0.1 0.9,-0.3 1,-0.3 1.3,-0.1 1.3,0 1.5,0.1 2.1,0.4 2,0.3 1.4,-0.1 1.3,-0.1 1.3,-0.3 1.4,-0.4 1.6,-0.5 1.5,-0.3 1.5,-0.4 2.6,-0.9 2.3,-1 1.6,-1 0.3,-0.2 1.4,-1.2 1.6,-1.4 0.4,-0.6 0.2,-0.1 0.4,-0.3 0.2,-0.1 0.4,-0.4 0.7,-0.3 0.2,0 0.4,-0.1 0.9,0 1.5,0.2 1.7,0.1 1.5,-0.1 1.1,-0.3 0.7,-0.2 0.1,-0.1 0.8,-0.6 1.2,-0.4 z"
     id="Gloucester"
     style="fill:#f2b3be;stroke:#ffffff;stroke-width:2" /><path
     d="m 309.6,164.79999 1.5,0.4 1,1.4 0.8,0.8 0.8,1.6 0.9,0.3 2,-1.6 2.4,-0.5 0.1,0.6 -0.1,2.8 0.5,0.8 1,0.3 1.1,-0.6 0.3,-1.6 -0.6,-1.8 0.6,-2.4 2.2,-2.5 2.2,-2 2.6,-1.1 0.4,0 2.2,-0.3 1.8,-1 0.9,-1.1 1.6,-0.4 1.1,-1.3 0.5,0.1 1.4,1.9 1.3,0.5 2.7,2.9 -0.3,0.9 0.9,0.5 -1.1,2 -1.8,3.2 -1.1,2.1 -0.9,1.3 -0.6,1.2 -0.3,1.4 -0.4,1.9 -0.1,0.4 -0.7,3.3 -0.9,5.4 -0.5,3.2 0,0.1 -1.6,-0.3 -0.4,0.8 -0.3,0.5 -1.1,1 -0.5,0.4 -0.6,1 -0.8,1.3 -0.8,0.1 -1.4,0 -0.6,0.3 -0.4,0.9 -0.3,1.5 -1.4,1 -1.3,0 -1,0.5 0.6,1 1,0.5 1.5,0.6 0.6,1.3 -0.6,0.5 -0.8,-0.3 -0.8,-0.3 -0.8,-0.3 -2,-0.8 -1,-0.3 -0.6,1.1 0.4,0.8 1,0.8 0.4,0.9 -0.9,0.5 -0.8,-0.1 -0.7,0 -1.1,-0.1 -1.8,0 -1,0.6 -1.4,0.1 -0.4,-0.4 0,-0.5 0.3,-1 0.4,-1.5 0.5,-1.3 0.5,-1.5 1.1,-1.9 1,-0.5 1.1,-1.8 1.1,-1.8 0.5,-1.5 0,-0.9 -0.3,-2.4 -1.3,0 -1.3,0.4 -0.6,0.1 -1.4,-1.9 0.3,-2.8 0.3,-1.3 0.5,-2.4 0,-0.8 -0.1,-0.3 -0.4,-0.4 -0.3,-0.1 -0.4,-0.1 -0.6,-0.1 -1.8,0 -0.6,0.1 -0.9,0.5 -0.1,0.1 -0.3,0.4 -0.3,0.4 -0.1,0.3 -0.3,0.3 -0.1,0.1 -0.3,0.1 -1.1,0.1 -1,0 -0.4,-0.1 -0.3,-0.4 -0.1,-0.4 -0.4,-0.8 -0.3,-0.8 -0.3,-0.8 0,-0.9 0.1,-0.5 0.3,-1.6 0.6,-1.8 0.1,-0.3 0.3,-0.4 0.4,-0.5 0.1,-0.5 0.3,-0.8 0.4,-0.8 0.1,-0.1 0.3,-0.4 0.4,-0.4 0.7,-2 z"
     id="Hudson"
     style="fill:#1666cb;stroke:#ffffff;stroke-width:2" /><path
     d="m 153.8,163.89999 1.7,2 1,1 1,0.9 2.7,2.8 0.9,0.8 1.3,1.4 0.9,0.9 1.1,1.1 1,0.9 1.3,1.3 1.3,0 3.6,0.3 10.4,3.3 1.6,0.5 2.2,1.8 1.3,0 0.9,1.1 0.5,1.1 0.6,1.6 0.5,0.8 -0.1,1.5 -1.1,1.5 -0.3,1.1 0.5,0.6 0.8,0.4 -0.1,0.9 -0.5,1.1 -0.3,1.8 -1.5,2.1 0,0.2 0.4,1 1,1 0.4,1.5 -0.8,1.3 0.4,1.1 -1.3,1.3 0.3,0.9 1.6,0.6 1,0.1 0.6,1.6 0.9,1 0.5,0.4 0.1,0.4 -1.3,2.4 -0.5,0 -0.4,-0.3 -0.4,0.6 -1.3,2.3 -0.1,0.5 0.4,0.3 0.3,0.1 -1,2.8 2.8,1.5 -2.6,4.1 -1.3,2.4 -3.1,1.6 -0.1,0.1 -0.8,1.5 -0.5,1 -1.3,2.8 -1.6,3.1 -0.3,0.5 -0.5,1 -1.6,3.6 -0.5,-0.1 -2.8,-2.4 -0.1,-0.1 -0.3,0 -0.4,-0.3 -0.3,-0.1 -0.1,0 -0.1,-0.1 -0.3,0 1.7,3.8 0.1,0.5 0.4,1 0.5,1.5 0.4,0.9 0.1,0.3 0.3,0.5 0.1,0.5 0.3,0.6 0.3,0.5 0.3,0.5 0,0.3 0.3,0.5 0.4,1.1 0.3,0.6 0.6,1.4 0.3,0.8 0.6,1.5 0.5,1.4 0.5,1.1 1.6,3.6 0.1,0.3 0.3,0.5 0.3,0.9 0.2,0.2 0.1,0.6 -12.9,2.1 1.3,8.3 -14.1,2.7 2.4,8.8 -16.9,1.7 -0.9,-0.9 -0.5,-0.9 -0.2,-0.9 -0.3,-1.8 -0.2,-2 -0.5,-2.3 -0.8,-2.2 -0.6,-1.3 -0.6,-1.2 -0.4,-0.9 -0.4,-0.9 -0.4,-0.7 -0.4,-0.7 -0.5,-0.6 -0.1,-0.1 -0.6,-0.5 -0.7,-0.4 -0.4,-0.2 -0.9,-0.5 -0.5,-0.3 -0.5,-0.3 -0.8,-0.5 -0.9,-0.3 -0.6,-0.1 -0.2,0 -0.6,0.1 -0.6,0.1 -0.6,0.2 -1.4,0.6 -1.1,0.4 -0.7,0.2 -1,0.2 -0.7,0 -0.8,-0.3 -0.9,-0.4 -0.8,-0.6 -0.5,-0.4 -0.6,-0.6 -0.7,-0.5 -0.8,-0.4 -0.5,-0.1 -0.6,-0.5 -0.6,-0.4 -0.2,-0.5 -0.2,-0.8 -0.2,-1.2 -0.3,-1.3 0,-0.4 -0.1,-0.1 -0.2,-0.8 -0.3,-0.9 -0.3,-0.8 -0.3,-1 -0.1,-0.9 -0.1,-0.5 0,-0.4 0.2,-0.8 0,-0.8 0.3,-0.9 0.3,-0.8 0.2,-0.9 0.4,-2 0.1,-0.6 0.3,-1.1 0.1,-0.9 -0.1,-1.5 0,-2.3 -0.1,-2.3 -0.1,-0.6 -0.1,-0.5 -0.1,-0.9 0,-1.7 0.1,-1 0,-1.2 0.1,-1.3 -0.2,-0.9 -0.2,-1.1 -0.4,-0.9 -0.9,-0.9 -0.7,-0.8 -0.9,-0.9 -1.2,-1.4 -0.8,-0.5 -0.8,-0.9 -0.4,-0.4 -0.6,-0.5 -0.9,-0.6 -1.2,-0.5 -1.7,-0.6 -0.1,-0.1 -1.7,-0.3 -1.8,-0.2 -0.999997,0.1 -0.4,0.1 -0.8,0.4 -0.6,0.4 -0.7,0.5 -0.7,0.6 -0.7,0.5 -1,0.5 -1.1,0.1 -1.2,-0.2 -0.9,-0.3 -0.8,-0.2 -1,-0.7 -1.1,-1.2 -0.6,-1.4 0,-0.4 0,-0.6 0.2,-0.8 0.3,-1.2 0,-0.5 2.7,-2.3 2.6,-2.4 0.1,-0.3 0.8,-2.3 0.8,-0.8 1.9,-1 0.3,-0.1 0.7,-1.3 0.3,-0.1 1.299997,-0.6 0.9,-0.4 1.4,-1 3.8,-1.6 1.9,-1.9 1.9,-1.5 3.8,-3 1.6,-0.9 1.4,-1.8 0.4,-0.5 1.1,-0.4 0.6,-0.5 0.8,-0.4 0.8,-0.3 0.9,-0.5 0.9,-0.4 0.1,-0.1 0.5,-0.5 0.5,-0.4 0.3,-0.3 0.4,-0.4 1.3,-0.5 1.2,-0.3 1.6,-0.1 0.6,-0.1 1.8,-1.5 1.8,-1.1 0.8,-0.4 0.5,-0.5 0.1,-0.5 1.3,-0.4 1,-0.1 0.8,-0.9 1.5,-2.9 1.8,-2.3 0.9,-1.1 1.5,-2.3 2.6,-2.6 2.4,-2.1 0.8,-1.1 1.1,-0.8 0.5,-1.1 0.4,-1.5 0.5,-0.8 0.8,-0.5 1.1,-0.6 0.9,-0.3 z"
     id="Hunterdon"
     style="fill:#e27f90;stroke:#ffffff;stroke-width:2" /><path
     d="m 182.5,265.19999 0.4,0.8 1.8,4.5 0.4,0.9 1,2.8 0.8,1.8 1,2.5 0.6,0.8 13.2,-4.8 1.6,-0.1 5.5,1.3 0.4,1.3 0.3,0.6 0.1,0.9 0,1 -1.3,6.3 -0.5,1.6 -0.1,1.3 0.6,1.8 0.1,1.5 0.3,1 1.6,-0.1 1.1,0 0.9,0.8 1.4,2 1.5,0.3 1,0.3 0.4,0.5 0.9,1.3 4.1,2.5 0.9,1.3 1,0.5 1.3,0.1 1.6,0.3 0.4,0.1 0.4,-0.1 0.9,-0.4 0.8,-0.3 0.9,0.4 0.5,0.9 1.4,0.8 1.3,1.1 0.9,0.1 1.3,0.1 1,0.3 0.5,0.4 1.6,0.6 0.8,0.5 0.1,0.9 -0.8,4.7 -0.1,0 -0.3,0.1 -0.1,0.3 0,0.5 0.1,0.3 0.3,0.3 0.1,0.1 0.5,0.5 0.3,0.5 0.1,0.5 -0.1,0.1 -0.4,0.3 -0.6,0.4 -0.4,0.3 -0.5,0.3 -0.1,0.1 -0.8,0.4 -0.6,0.4 -0.4,0.3 -0.3,0.1 -2,1.3 -1.9,1.1 -0.2,0 -2.8,1.5 -1.8,0.9 -0.3,0.3 -0.4,0.3 -0.1,0.3 -0.3,0.4 -0.1,0.6 -0.3,0.9 -0.3,0.3 -0.4,0.3 -0.1,0.3 -0.6,0.9 -0.3,0.4 -0.1,0.3 -0.6,1.3 -0.8,1.1 -0.9,1 -1.5,0.1 -0.1,0 -0.4,0.1 -0.1,0.1 -0.5,0.1 -0.4,0.3 -1,0.3 -0.8,0.4 -0.3,0.5 -0.4,0.3 -1.1,-0.3 -0.5,-1.8 -1.5,0.8 -1.1,0.8 4.6,11.6 -0.3,0.1 -1.8,0.3 -4.5,-1 -0.4,-0.4 0,-1.1 -0.5,-0.9 -2.6,-0.6 -1.8,-1.4 -2.7,-1.3 -1.8,-1.3 -1.6,0 -0.6,-0.4 0.5,-0.9 0,-0.9 -0.1,-0.3 -0.1,-0.5 -0.8,-0.5 -0.6,0 -1,0.1 -1,-0.1 -0.5,-0.3 -0.6,-0.6 -0.8,-0.5 -1,0 -0.4,0.1 -0.4,0.4 -0.5,0.6 0,0.6 0.1,0.5 0.3,0.5 0.3,0.6 -0.1,0.6 0.4,0.5 0.6,0.6 -1.3,2.3 -0.4,0.8 -1.3,0.9 -1,-0.3 0.1,-0.2 0.4,-1 -0.1,-1.5 -0.4,-1.2 -0.6,-1.1 -0.9,-1.1 -0.8,-0.6 -0.1,-0.1 -0.6,-0.5 -0.4,-0.5 -0.2,-0.1 -0.9,-0.4 -0.5,-0.3 -0.5,-0.4 -0.6,-0.5 -0.5,-0.5 -0.4,-0.6 -0.2,-0.5 -0.3,-0.8 -0.1,-0.6 -0.3,-0.6 -0.5,-1.9 -0.4,-0.9 -0.4,-0.9 -0.4,-0.8 -0.5,-0.9 -0.5,-0.7 -0.3,-0.3 -0.5,-0.4 -0.9,-0.8 -0.6,-0.4 -1.3,-1.1 -1.1,-0.7 -0.1,-0.1 -1,-0.7 -0.9,-0.5 -1.1,-0.5 -1,-0.3 -0.9,-0.4 -1.5,-1 -1.5,-0.9 -0.5,-0.2 -0.4,-0.4 -0.1,-0.1 -0.3,-0.4 -0.4,-0.8 -0.6,-1 -0.5,-0.9 -0.3,-1 -0.5,-0.9 -0.4,-1.1 -0.4,-1.3 -0.6,-1.5 -0.5,-1.1 -1,-1.8 -0.4,-0.4 -0.6,-0.7 -0.8,-1.1 -1.1,-1.3 -1,-1.3 -0.6,-0.4 -0.5,-0.4 -0.6,-0.5 -0.5,-0.2 -0.8,-0.4 -0.5,-0.1 -0.6,-0.1 -0.8,-0.1 -0.9,-0.3 -0.8,-0.5 -0.1,-0.1 -0.6,-0.6 -0.9,-0.7 -1.6,-1.8 -0.5,-0.6 -0.5,-0.6 -0.7,-0.9 16.9,-1.7 -2.4,-8.8 14.1,-2.7 -1.3,-8.3 13,-2.1 z"
     id="Mercer"
     style="fill:#4389e3;stroke:#ffffff;stroke-width:2" /><path
     id="Middlesex"
     d="M 276.59961,214.40039 273.5,214.69922 256.40039,216.59961 244,217.69922 242.59961,218 l -0.79883,-1 -1.30078,0.30078 -1.80078,1.5 -2.79883,1.09961 -3.09961,1.5 -1.90039,1.90039 -0.90039,2.79883 0.40039,1.40039 0.0996,0.59961 1.59961,3.09961 1.09961,1.40039 2.30078,2 1.5,1.80078 1.69922,3.59961 0.80078,0.40039 4.09961,0.90039 0.5,2 0.59961,1.89844 -0.29883,0.90039 -1.5,0.80078 -2.5996,1.09961 -0.30078,0.0996 -0.90039,0.59961 -0.29883,0.40039 -0.40039,0.5 -0.30078,0.40039 -0.90039,1.40039 -0.79883,0.90039 -0.5,0.5 -0.5,0.39844 L 232,256.5 230.40039,258.09961 230,258.5 l -2.09961,2.09961 -0.5,0.30078 -4.90039,3.5 -1.30078,0.29883 -2.19922,0.60156 -0.30078,0.0996 -1.39844,0.90039 -0.30078,0.29883 -1.09961,5.80078 -2.80078,4.59961 -0.29883,0.0996 -1.5,0.90039 -0.40039,0.30078 -0.40039,0.29883 -0.90039,0.30078 -1.29883,6.29883 -0.5,1.60156 -0.10156,1.29883 0.60156,1.80078 0.0996,1.5 0.29883,1 1.60156,-0.0996 1.09961,0 0.90039,0.79883 1.39844,2 1.5,0.30078 1,0.29883 0.40039,0.5 0.90039,1.30078 4.09961,2.5 0.90039,1.30078 1,0.5 1.30078,0.0996 1.59961,0.29883 0.40039,0.10156 0.39844,-0.10156 0.90039,-0.39844 0.80078,-0.30078 0.90039,0.40039 0.5,0.90039 1.39844,0.79883 1.30078,1.09961 0.90039,0.10156 1.29883,0.0996 1,0.29883 0.5,0.40039 1.60156,0.59961 0.79883,0.5 0.0996,0.90039 -0.79883,4.70117 2.09961,0.39844 0.30078,0.10156 1.59961,0 0.59961,0.0996 0.40039,0.29883 0.5,0.10156 5.29883,-3.30078 6.90039,-3.90039 0.80078,-0.40039 0.0996,0 0.59961,0.40039 0.5,-1.29883 0,-0.80078 0.0996,-0.0996 0.10156,-0.30078 0,-0.29883 L 278,281.59961 283.90039,275.5 l 3.90039,-4 1,-1 0.0996,-0.30078 0.0996,0 0,-1.59961 0.0996,-4 0,-1.90039 0,-0.29883 L 291,260 l 1,-0.0996 1.59961,-0.5 0.40039,-1.5 -1.69922,-0.5 -2.80078,-1.5 -2.40039,-1.30078 -1.79883,-0.90039 -1.40039,-2.89844 -0.0996,-1.60156 -3.60156,-2.79883 -2.39844,-0.80078 -2.20117,0.80078 -1.29883,2.59961 -0.80078,2 -0.90039,1 -3.19922,0.40039 -1.70117,-0.40039 -1.09961,-0.5 1.5,-1.30078 1.30078,-0.89844 1.79883,-1 L 272.5,247 274,245.40039 274.5,244 l 0.80078,-1 1.29883,-0.30078 1.70117,0 2,0.80078 1.39844,0.5 0.90039,0.59961 0.80078,1.30078 0.59961,0.79883 1,0.10156 0.59961,-1.30078 0,-1.30078 -0.0996,-1 0.30078,-0.89844 0.0996,-1 0.40039,-0.90039 0.5,-1 0.79883,-0.90039 0.5,-1 0.0996,-1 -0.39844,-1.30078 L 287.5,233.40039 287.80078,232 l 0.5,-1.09961 0.89844,-1.80078 1.40039,-1.09961 1,-0.5 1.09961,-0.30078 1.80078,-0.29883 0.59961,-0.80078 0.5,-2.09961 0.40039,-2.5 0.59961,-1.80078 0.5,-1.59961 0,-0.40039 -0.29883,-0.0996 -0.40039,-0.79883 -0.40039,-0.60156 -0.40039,-0.0996 -0.90039,0.30078 -1.09961,0.29883 -2.5,-0.29883 -1,0.29883 -0.79883,0.10156 -2.60156,-0.5 -0.0996,0.39844 -0.5,1.10156 -1.09961,0.29883 -2.09961,0.5 -3.09961,0.5 -0.5,0.0996 -0.30078,-0.0996 -0.5,-0.5 -1.09961,-1.40039 -0.5,-0.89844 0,-1.60156 -0.30078,-0.29883 z"
     style="fill:#86b6f2;stroke:#ffffff;stroke-width:2" /><path
     d="m 178.5,129.99999 1.8,-0.4 0.9,0 1,-0.5 0.8,-0.4 1,-0.9 0.8,0 0.6,0.3 0.3,0.5 0.9,0.5 1,-0.1 1.3,0.8 0.9,1 0.3,1 0.3,0.9 0.4,0.6 1.1,0.1 1.5,-1.5 1.5,-0.6 3.6,-1.3 2.1,-1.3 0.4,-0.4 0.6,-0.6 0.3,-0.2 0.1,0 0.5,-0.1 0.3,-0.1 0.1,-0.1 0.1,-0.6 -0.1,-0.3 -0.3,-0.6 0.3,-0.6 0.1,-0.3 0.5,-0.5 1.8,-1.3 0.1,-0.1 0.1,-0.1 0.6,-1 0.4,-1.3 0,-0.3 0,-0.9 -0.1,-0.6 -0.1,-0.3 -0.5,-0.6 -0.4,-0.4 -0.4,-0.7 0,-0.8 0.3,-0.3 6.4,-8.2 1.4,-1.4 0.3,-0.4 0.4,-0.4 0.4,-0.5 0.4,-0.4 10.2,-11.799997 0.3,-0.3 0.3,-0.5 2.3,-2.7 1.1,-1.4 2.1,-2.4 3.7,-3.9 2.1,0.8 1.5,1.8 0.3,1.5 0.1,0.5 -0.4,0.8 -0.4,0.8 -0.6,0.6 -0.4,0 -0.3,0.1 -0.8,1 -1,3.4 -0.3,1.3 0.4,1.5 0.6,0.3 0.6,-0.3 0.8,-0.8 0.5,-0.6 0.6,-0.6 0.9,-0.8 3.1,-1.2 2.4,-1.4 1.1,0.5 0.8,0.6 0.9,1 2,2.5 0.4,0.9 -0.3,0.8 -0.5,1 -0.4,0.8 0,1 0.9,0.4 1,-0.5 0.3,-0.5 0.4,-0.8 0.8,-0.5 0.9,0 1.1,0.4 0.8,0.4 1.1,0.6 1.4,1.799997 0.1,0.8 1,0.5 1.4,0.1 0.6,0 1.6,-0.1 1.5,-0.6 0.8,0.1 0.9,-0.3 0.1,0.4 0.5,1.6 0.6,0 1.3,0.1 1.3,-0.1 0.6,0.3 0.6,1.3 1.9,0.1 1.5,0.1 1,1 2.1,-0.4 1.1,0.4 0.5,1 0.3,1.4 -0.8,0.8 -0.5,0.9 -0.1,0.7 0,0.4 0.4,0.5 1,0 1.3,0.1 0.4,0.6 0.6,1.8 0.3,1 -0.4,1.4 0.1,0.4 0.5,1.4 -0.3,2.1 -0.6,2.4 -0.9,1.9 -0.4,0.8 0,0.9 0.8,1.4 0.4,0.5 0.8,0.5 1,0.4 0.6,0.1 0.6,0.3 0.5,0.4 0.3,0.6 0.1,0.7 -0.1,0.8 -0.6,1.3 -0.4,1.1 -1.8,0.3 -0.8,-0.4 -0.1,-0.5 0,-0.4 -0.3,-0.3 -0.9,-0.3 -0.3,-0.1 -0.1,-0.4 -0.4,-0.4 -0.1,-0.3 -0.8,-0.1 -0.5,0 -0.8,-0.1 -0.9,0.3 -0.8,0.4 -1,0.1 -0.2,-0.4 -0.4,-0.8 -0.9,-0.2 -1.5,0.3 -0.6,0.7 -0.5,1.1 0.4,1.6 -0.9,3.9 0.8,1.5 -0.1,1.3 0.3,0.6 1.1,0.4 1.3,0.9 0.1,0.3 -0.6,2.1 -0.3,1 -0.6,1.4 0.5,1.1 -0.3,1.1 -0.1,2.3 -0.8,1.4 -0.1,1.1 0,1.3 -0.6,0.9 -0.6,0.5 -1.5,-0.1 -0.5,0.5 -0.3,1.6 -1.4,0.5 -0.8,0.9 -1.1,1.3 0,3.9 -0.9,1.4 -0.1,1 0.5,1.3 0,0.8 -0.6,1 -0.4,0.5 0.5,0.3 0.6,0 1,0.6 0.6,0.3 0.6,0.1 -0.1,0.5 -0.5,0.4 -0.8,0.4 -0.1,0.9 -0.3,1.3 -1,1.4 -3.7,3.3 -0.3,0.1 -2.6,2.5 -0.1,0.3 -1.8,1.5 -0.1,0 -1.8,1.9 -0.1,0 -1.8,2.4 -0.1,0.4 -3.1,1.5 -1.3,0.6 -0.3,0.6 0,0.4 0.3,0.5 0,0.3 -0.5,1.3 -0.3,0.1 -0.6,-0.1 -0.4,0 -0.4,1 -2.3,1 -1.3,0.4 -1,0.3 -0.9,0.1 -1,0.5 -0.5,0.3 -0.4,0.3 -1.1,0.4 -0.4,0.4 -0.3,0.6 -0.4,0.9 -0.6,0.8 -1,0.4 -1.3,-0.1 -1,-0.6 -0.3,-1.4 -0.3,-1.3 -0.3,-0.6 -0.5,-0.5 -0.1,-0.5 1,-1 0.3,-1.1 -0.4,-1 0,-1.8 0.9,-0.9 1.3,-0.3 0.5,-2.9 -0.9,-1.4 -1.1,-1.4 -0.3,-1.4 -0.8,-1 -0.5,-0.4 -0.1,-0.4 0.3,-0.5 -0.1,-0.6 0.3,-0.9 -0.8,-0.4 -1.1,-0.5 -1.7,-0.5 -0.3,-1 0.3,-1.3 -0.6,-2.1 -0.4,-1.1 -0.4,-1.3 -0.4,-0.5 -7.1,2.3 -1.3,0.4 -1.1,0.1 -3.4,1.3 -23.2,5.9 -1.3,0 -2.2,-1.8 -1.6,-0.5 -10.4,-3.3 -3.6,-0.3 -1.3,0 -1.3,-1.3 -1,-0.9 -1.1,-1.1 -0.8,-0.7 -1.3,-1.4 -0.9,-0.8 -2.7,-2.8 -1,-0.9 -1,-1 -1.7,-2 2.1,-0.9 1.8,-0.9 0.6,-1.5 0.1,0 2,-0.5 1.1,-1 1,-1.1 0.4,-1.1 1.1,-1.1 0.8,-1.4 1.3,-2.4 0.9,-0.4 0.8,-0.8 -0.1,-1.8 -0.4,-1 0.1,-0.6 0.6,-0.3 1.7,-0.9 -0.1,-1.3 0.3,-0.9 1,-0.4 0,-1.8 -0.3,-1 -0.3,-1.3 0.1,-2 1.4,-1 1.4,-0.5 0.8,-0.3 0.5,-1.9 1.4,-1.3 1.8,-1.4 0.8,-1 z"
     style="fill:#e27f90;stroke:#ffffff;stroke-width:2"
     id="Morris" /><path
     id="Passaic"
     d="M 263.30078,48.5 238,77.5 l -2.30078,2.800781 -0.59961,0.898438 2.09961,0.800781 1.5,1.800781 0.30078,1.5 0.0996,0.5 -0.40039,0.798828 -0.39844,0.800782 L 237.69922,88 237.30078,88 237,88.099609 l -0.80078,1 -1,3.400391 -0.29883,1.300781 0.40039,1.5 0.59961,0.298828 L 236.5,95.300781 237.30078,94.5 l 0.5,-0.599609 0.59961,-0.59961 0.90039,-0.800781 3.09961,-1.199219 2.40039,-1.40039 1.09961,0.5 0.79883,0.599609 0.90039,1 2,2.5 0.40039,0.900391 -0.30078,0.798828 -0.5,1 L 248.80078,98 l 0,1 0.89844,0.400391 1,-0.5 0.30078,-0.5 0.40039,-0.800782 0.79883,-0.5 0.90039,0 L 254.19922,97.5 255,97.900391 256.09961,98.5 l 1.40039,1.80078 0.0996,0.79883 1,0.5 1.40039,0.0996 0.59961,0 1.59961,-0.0996 1.5,-0.59961 0.80078,0.0996 0.90039,-0.29883 0.0996,0.39844 0.5,1.60156 0.59961,0 1.30078,0.0996 1.29883,-0.0996 0.60156,0.29883 0.59961,1.30078 1.90039,0.0996 1.5,0.0996 1,1 2.09961,-0.40039 1.09961,0.40039 0.5,1 0.3008,1.40042 -0.80078,0.80078 -0.5,0.89844 -0.0996,0.70117 0,0.40039 0.40039,0.5 1,0 1.29883,0.0996 L 280.5,112 l 0.59961,1.80078 0.30078,1 -0.40039,1.39844 0.0996,0.40039 0.5,1.40039 -0.29883,2.09961 -0.60156,2.40039 -0.89844,1.90039 -0.40039,0.79883 0,0.80078 0.79883,1.40039 0.40039,0.5 0.80078,0.5 1,0.40039 0.59961,0.0996 0.40039,0.19922 0.5,0.40039 0.29883,0.59961 -0.39844,0.90039 -0.10156,0.80078 -0.59961,1.29883 -0.40039,1.09961 1.40039,0.40039 0.0996,0.0996 0,0.5 0.10156,0.30078 0,1.09961 0.0996,0.30078 0.0996,0.0996 0.5,1.09961 0.40039,0.30078 0.5,0.40039 2.19922,-1.40039 0.40039,-1.59961 0.80078,-0.30078 0.5,1.40039 0.79883,1.5 0.80078,1.5 1.90039,1.5 14.59961,11.09961 4.40039,3.09961 1,-0.40039 0.39844,-0.0996 0.40039,-0.40039 0.0996,-0.29883 0.30078,-0.80078 0.0996,-0.29883 0,-0.30078 0.0996,-0.5 0,-0.90039 -0.0996,-0.29883 -0.59961,-1.5 0.40039,-2.5 0,-0.90039 -0.0996,-0.90039 0.0996,-1 0.79883,-0.30078 0.10156,-0.0996 0.29883,0.30078 0.90039,1.5 0.80078,-0.90039 -1.10156,-4.5 -0.89844,-1.40039 -0.10156,-0.0996 -0.89844,-1.30078 -0.10156,0 -0.0996,-0.0996 -0.29883,-0.0996 -0.10156,-0.0996 -0.29883,-0.0996 L 313.09961,137 313,136.69922 l 0,-0.39844 -0.40039,-2.5 L 312.5,133.5 l -0.0996,-0.40039 0,-0.29883 0,-0.60156 0.0996,-2.59961 0.30078,-1.79883 0,-0.60156 -0.30078,-0.59961 -0.30078,-0.0996 -0.5,-0.0996 -0.89844,-0.40039 -0.40039,-0.59961 0,-0.40039 0.0996,-0.40039 0.30078,-0.40039 0.0996,-0.0996 0.0996,-0.40039 0,-0.19922 -0.0996,-0.30078 -0.5,-1 -0.30078,-0.59961 -0.29883,-0.0996 -0.30078,-0.0996 -0.40039,0 -0.5,-0.5 0.0996,-0.5 0.40039,-0.40039 0.30078,-0.30078 0.40039,-1.5 0.59961,-1 0.0996,-0.89844 0.40039,-0.90039 -1.09961,-1 -0.90039,-0.5 -2.70117,-2.09961 -0.59961,-0.5 -0.79883,0.0996 -1,1.40039 -5.30078,-0.70117 -2.09961,-0.29883 -3.59961,-0.30078 -2.5,-1.09961 -2.70117,-2.40039 -0.40039,-0.59961 -0.89844,-1.30078 -0.5,-0.90039 -0.30078,-0.59961 -1.09961,-2.5 -0.5,-0.5 -0.90039,-0.90039 -0.40039,-0.29883 0.5,-1.40039 0.30078,-0.699219 1.5,-3.90039 1.40039,-3.800782 0.29883,-0.40039 0.59961,-1.798828 0.10156,-0.5 0.0996,-0.400391 0.29883,-0.599609 0.5,-1.201172 0.30078,-0.5 0.59961,-1.898438 0.30078,-0.40039 0.90039,-2.5 1,-2.701172 0.39844,-0.898438 2.10156,-5.300781 1.39844,-3.699219 -2.59961,-1.40039 -1.79883,-1 -17.10156,-10.09961 -1.59961,-0.90039 -1.79883,-1.201172 -7,-4.699219 z"
     style="fill:#86b6f2;stroke:#ffffff;stroke-width:2" /><path
     d="m 114.9,502.09999 -0.7,1.3 -0.8,1.9 0.3,0.5 0,0.4 -0.2,0.1 -0.4,0.3 -0.8,0.4 -0.1,1 0.2,1.4 0.4,4.1 -1,2.8 -0.1,1.9 0,1.6 -0.8,1.4 -0.1,0.6 1.2,1.4 -0.2,0.4 0,0.9 0.1,1.4 0,0.7 -1.4,3.3 0,2 -0.4,1.1 -33.299997,-28.3 -14.6,15.7 -2,2.6 -1.5,0.6 -2.2,0.4 -1.7,-0.3 -0.8,0.6 -0.7,1.8 -1.2,2 -2.2,1.6 -0.6,1.5 -0.7,1.3 -1.2,0.1 -1.3,-0.3 -4.7,-1 -0.7,0.1 -1.2,1.8 -0.4,0.9 0,1 -0.1,1.2 0,0.4 -0.4,0.5 0,0.5 -0.3,0.8 -0.3,0.3 -0.3,0.4 -0.1,0.8 0.8,0.5 1,0.4 0,0.5 -1,1.5 -0.1,0.9 -0.1,0.4 0,0.4 0.5,1 0.2,0.6 0.3,1.4 0.7,0.4 -0.3,0.6 0,1.5 -1,0.1 -0.3,0.1 0,1.1 -0.1,0.5 0,0.5 -1.4,0.5 -1.5,-0.9 -1,-1.8 -1.3,-1.1 -1,-0.6 -1.5,-1.4 -0.9,-2.3 -1.3,-2.5 -2.7,-2.8 -2.3,-2.4 -1.8,-0.8 -0.8,-0.5 -1.7,-1.6 -1.4,-1.2 -1.6,-0.1 -1,0.4 -1.7,0 -1.8,1.1 -1.8999998,-2.1 -0.7,-0.9 -1.8,-2.6 -1.1,-2.5 0,-1 0.2,-0.8 0.5,-1.6 0.3,-0.6 0.4,-0.9 1.6,0 2.2999998,-0.1 2.4,-0.1 0.4,-0.2 0.4,-0.2 0.4,-0.2 -0.5,-1.5 -0.1,-0.3 -0.1,-0.6 0.1,-0.8 0.1,-0.4 0.3,-0.6 0.1,-0.6 -0.1,-0.4 0,-1.1 0.3,-1 0.1,-1.4 0,-1 -0.1,-0.3 -0.3,-0.2 -0.4,-0.3 -0.3,-0.5 -0.1,-0.4 0.1,-0.8 0.4,-0.5 0.9,-0.8 0.8,-0.8 0.5,-0.6 0.4,-0.6 0.4,-0.7 0.4,-0.8 0.3,-0.9 0.6,-1.4 0.1,-1 -0.1,-0.9 -0.4,-0.9 -0.5,-0.6 -0.8,-0.6 -1.8,-0.5 -0.5,-0.4 -0.4,-0.4 -0.3,-0.5 -0.4,-0.5 0,-0.4 -0.1,-0.4 -0.4,-0.4 -0.5,-0.1 -0.5,-0.1 -0.5,-0.4 -1,-0.6 -0.7999998,-0.8 -0.4,-0.6 -0.1,-0.4 -0.1,-0.5 -0.4,-1.8 -0.4,-1.7 -0.1,-1.3 0.2,-0.5 0.5,-1.4 0.4,-0.8 0.5,-0.6 0.5999998,-0.5 0.4,-0.4 0.4,-0.5 0.5,-0.5 0.7,-0.5 0.9,-0.4 0.8,-0.5 0.1,-0.3 0.3,-0.3 0.4,-0.5 0.3,-0.6 0.4,-0.5 0.4,-0.6 0.5,-0.5 0.5,-0.5 0.5,-0.6 0.5,-0.6 0.5,-0.8 0.4,-0.8 0.1,-0.8 0.1,-1.1 0.1,-0.6 0.1,-1.1 0.1,-1 0.1,-1 0.3,-0.8 0.4,-0.6 0.5,-0.4 0.9,-0.8 0.3,-0.4 0.6,-1.1 0.6,-1.1 0.1,-0.5 0.3,-0.5 0.4,-0.1 0.3,0.1 0.6,0.1 0.6,0 0.3,-0.4 0.2,-0.4 0.1,-0.5 0,-0.8 0.3,-1.1 0.1,-0.8 0.1,-0.9 0.3,-0.8 0.5,-1 0.4,-0.9 0.5,-1 0.5,-1.1 0.4,-1.1 0.3,-0.8 0.4,-0.8 0.3,-0.8 0.4,-0.5 0.5,-0.5 0.5,-0.3 0.5,-0.8 0.8,-0.8 1.5,-1.6 1.5,-1.4 0.7,-0.6 0.5,0.4 2,-0.4 1.4,-0.1 1,-0.4 0.7,0 0.3,1.1 0.8,0.9 0.1,2.1 -0.5,0.6 -0.7,0.9 0.1,0.8 0.7,0.1 0.1,0.3 0.5,0.6 0.4,0.8 1.2,0.8 1,0.4 0.5,1.8 0.9,0.1 0.4,0.6 0.8,2 0.1,0.3 0,0.5 -0.1,0.9 -0.1,0.6 0.3,0.9 0.4,0.5 0.9,0.5 0.4,0.6 0.1,0.9 0.7,0.9 0.9,0.4 1.3,0.1 0.5,0.4 0.4,0.5 0.9,0.8 0.9,0.1 0.5,0 0.5,0.9 1,1.4 0.6,0.6 0.3,0.8 0.1,0.5 0.7,0 1.2,-0.4 0.3,0.3 0.9,1.1 1.2,-0.4 1.4,0 0.9,0.4 1.2,1 1.4,0.9 1,-0.3 2.2,-0.5 1.6,0.4 1.3,0.5 0.5,0.5 0.3,0.8 0.1,0.9 0.7,1.1 0.5,1.1 1.6,0.5 1.2,0.4 0.4,0 0.4,0 1.4,0.3 1.2,-1 1.2,-0.1 1.2,0.1 2.9,2.8 5.8,5.3 14.799997,13.3 6,5.7 z"
     id="Salem"
     style="fill:#e27f90;stroke:#ffffff;stroke-width:2" /><path
     d="m 187,182.59999 22.9,-6.3 3.4,-1.3 1.1,-0.1 1.3,-0.4 7.1,-2.3 0.4,0.5 0.4,1.3 0.4,1.1 0.6,2.1 -0.3,1.3 0.3,1 1.7,0.5 1.1,0.5 0.8,0.4 -0.3,0.9 0.1,0.6 -0.3,0.5 0.1,0.4 0.5,0.4 0.8,1 0.3,1.4 1.1,1.4 0.9,1.4 -0.5,2.9 -1.3,0.3 -0.9,0.9 0,1.8 0.4,1 -0.3,1.1 -1,1 0.1,0.5 0.5,0.5 0.3,0.6 0.3,1.3 0.3,1.4 1,0.6 1.3,0.1 1,-0.4 0.6,-0.7 0.4,-0.9 0.3,-0.6 0.4,-0.4 1.1,-0.4 0.4,-0.3 0.5,-0.3 1,-0.5 0.9,-0.1 1,-0.3 1.3,-0.4 2.3,-1 0.8,1.3 0.6,2.4 0.5,1.6 5.1,-2.4 1.9,0.5 2.8,-1.9 0.3,0.6 -0.1,2.5 -0.6,3 -1.4,3.3 -3.4,3.9 -4.1,3.6 -1.4,0.9 -2.3,1.1 -1.8,0.8 -1.8,1.5 -2.8,1.1 -3.1,1.5 -1.9,1.9 -0.9,2.8 0.4,1.4 0.1,0.6 1.6,3.1 1.1,1.4 2.3,2 1.5,1.8 1.7,3.6 0.8,0.4 4.1,0.9 0.5,2 0.6,1.9 -0.3,0.9 -1.5,0.8 -2.6,1.1 -0.3,0.1 -0.9,0.6 -0.3,0.4 -0.4,0.5 -0.3,0.4 -0.9,1.4 -0.8,0.9 -0.5,0.5 -0.5,0.4 -3.5,3.3 -1.5,1.6 -0.4,0.4 -2.1,2.1 -0.5,0.3 -4.9,3.5 -1.3,0.3 -2.2,0.6 -0.3,0.1 -1.4,0.9 -0.3,0.3 -1.1,5.8 -2.8,4.6 -0.3,0.1 -1.5,0.9 -0.4,0.3 -0.4,0.3 -0.9,0.3 0,-1 -0.1,-0.9 -0.3,-0.6 -0.4,-1.3 -5.5,-1.3 -1.6,0.1 -13.2,4.8 -0.6,-0.8 -1,-2.5 -0.8,-1.8 -1,-2.8 -0.4,-0.9 -1.8,-4.5 -0.4,-0.8 -0.1,-0.6 -0.2,-0.2 -0.3,-0.9 -0.3,-0.5 -0.1,-0.3 -1.6,-3.6 -0.5,-1.1 -0.5,-1.4 -0.6,-1.5 -0.3,-0.8 -0.6,-1.4 -0.3,-0.6 -0.4,-1.1 -0.3,-0.5 0,-0.3 -0.3,-0.5 -0.3,-0.5 -0.3,-0.6 -0.1,-0.5 -0.3,-0.5 -0.1,-0.3 -0.4,-0.9 -0.5,-1.5 -0.4,-1 -0.1,-0.5 -1.7,-3.8 0.3,0 0.1,0.1 0.1,0 0.3,0.1 0.4,0.3 0.3,0 0.1,0.1 2.8,2.4 0.5,0.1 1.6,-3.6 0.5,-1 0.3,-0.5 1.6,-3.1 1.3,-2.8 0.5,-1 0.8,-1.5 0.1,-0.1 3.1,-1.6 1.3,-2.4 2.6,-4.1 -2.8,-1.5 1,-2.8 -0.3,-0.1 -0.4,-0.3 0.1,-0.5 1.3,-2.3 0.4,-0.6 0.4,0.3 0.5,0 1.3,-2.4 -0.1,-0.4 -0.5,-0.4 -0.9,-1 -0.6,-1.6 -1,-0.1 -1.6,-0.6 -0.3,-0.9 1.3,-1.3 -0.4,-1.1 0.8,-1.3 -0.4,-1.5 -1,-1 -0.4,-1 0,-0.4 1.5,-2.1 0.3,-1.8 0.5,-1.1 0.1,-0.9 -0.8,-0.4 -0.5,-0.6 0.3,-1.1 1.1,-1.5 0.1,-1.5 -0.5,-0.8 -0.6,-1.6 -0.5,-1.1 -0.1,-1.2 z"
     id="Somerset"
     style="fill:#86b6f2;stroke:#ffffff;stroke-width:2" /><path
     id="Sussex"
     d="M 194.19922,5.1992188 192.80078,6 192.09961,6.4003906 191.90039,6.5 l -1.09961,0.4003906 -1,0.4003906 -1,0.5 L 188,8.0996094 l -0.59961,0.2011718 -0.90039,0 -0.90039,-0.2011718 -0.69922,0.099609 -0.5,0 L 183.5,8.4003906 182.59961,8.5996094 182,8.9003906 181.30078,9.5 l -0.20117,0.3007812 -0.40039,0.5996098 -0.39844,0.798828 -0.30078,0.90039 -0.40039,0.800782 -0.40039,0.5 -0.59961,0.40039 -0.69922,0.298828 -0.5,0.09961 -0.20117,0.101562 -0.79883,0.199219 -0.90039,0 -0.5,0.09961 -0.59961,0.09961 -0.5,0.300781 -0.30078,0.300781 -0.29883,0.298828 0,0.59961 0.0996,0.40039 0.29883,0.400391 0.10156,0.400391 0,0.5 -0.10156,0.298828 -0.0996,0.201172 -0.19922,0.199218 -0.30078,0.40039 -1.19922,0.699219 -1.30078,1 -1,0.800781 -0.79883,0.599609 -0.60156,0.5 -0.5,0.300782 L 167.59961,23 167,23.599609 166.40039,24.199219 166,24.800781 165.59961,25.5 165.19922,26.300781 164.80078,27 164.40039,27.599609 164.09961,28.400391 164,29 163.80078,29.5 163.5,30.099609 163.19922,31 l -0.29883,1.5 0,0.300781 -0.40039,1 -0.80078,0.798828 -0.5,0.201172 -0.59961,0.5 -0.40039,0.59961 -0.5,0.699218 -0.0996,0.5 -0.29883,0.59961 L 159.19922,38.5 159,39.099609 158.30078,40 l 0,0.400391 0.0996,0.798828 0.40039,0.601562 0.5,0.699219 0.0996,0.300781 L 159.5,43 159.59961,43.5 159.5,44.099609 159.19922,45 159,45.300781 l -0.19922,0.298828 -0.90039,1.5 -0.40039,0.701172 -0.5,1.09961 -0.59961,1.298828 L 155.80078,51.5 155.5,52.300781 155.19922,53 155.09962,53.5 154.9004,54 154.59962,54.699219 154.5,54.900391 154.09961,55.5 153.5,56.400391 l -0.69922,0.5 -0.40039,0.298828 -0.40039,0.5 -0.30078,0.40039 -0.29883,0.59961 -0.30078,0.5 -0.40039,0.90039 -0.69922,1.59961 -0.69922,1.201172 -0.5,0.699218 -0.90039,1.201172 -1,1.199219 -0.90039,0.699219 -1.30078,1 -0.89844,0.601562 -0.80078,0.398438 -0.80078,0.101562 -0.5,0.298828 -0.29883,0.300782 -0.5,0.40039 -0.0996,0.5 L 140.5,70.699219 140.30078,71 l -0.60156,0.400391 -0.69922,0.5 -0.19922,0.199218 -0.60156,0.300782 L 137.59961,73 137,73.300781 l -0.30078,0.09961 -0.59961,0 -0.40039,0.09961 -0.19922,0 -0.59961,0.400391 -0.30078,0.199218 -0.0996,0.09961 -0.69922,0.701172 -0.60156,0.798828 -0.59961,1.5 -0.40039,0.90039 -0.0996,0.201172 -0.40039,0.798828 -0.0996,0.300782 0,0.298828 0.0996,0.40039 L 132,80.5 132.40039,80.599609 133,80.5 l 0.40039,0 L 134,80 l 0.69922,-0.400391 0.40039,-0.40039 0.5,-0.398438 0.5,-0.300781 0.59961,-0.199219 0.30078,0.09961 0.0996,0.298828 0,0.5 2.80078,3.5 2.40039,2.800781 0.39844,0.5 7.80078,9.800781 2.59961,3 0.59961,0.898438 L 155,101.5 l 1.40039,1.80078 0.40039,0.39844 1.29883,1.5 5,6.40039 3.09961,3.90039 12.30078,14.5 1.80078,-0.40039 0.89844,0 1,-0.5 0.80078,-0.40039 1,-1 0.69922,0 0.60156,0.30078 0.29883,0.5 0.90039,0.5 1,-0.0996 1.30078,0.79883 0.89844,1 0.30078,1 0.30078,1 0.39844,0.60156 1.10156,0.0996 1.5,-1.5 1.5,-0.59961 3.59961,-1.30078 2.09961,-1.30078 0.5,-0.39844 0.59961,-0.60156 0.30078,-0.19922 0.0996,0 0.5,-0.0996 0.30078,-0.0996 0.0996,-0.10156 0.0996,-0.59961 -0.0996,-0.29883 -0.30078,-0.60156 0.30078,-0.59961 0.0996,-0.29883 0.59961,-0.60156 1.80078,-1.29883 0.0996,-0.0996 0.0996,-0.10156 0.59961,-1 0.30078,-1.09961 0,-0.29883 0,-0.90039 -0.0996,-0.59961 -0.0996,-0.30078 -0.5,-0.59961 L 205.40039,117.5 205,116.69922 205,116 l 0.30078,-0.30078 6.29883,-8.09961 1.40039,-1.40039 0.30078,-0.39844 0.39844,-0.40039 0.40039,-0.5 L 214.5,104.5 224.69922,92.699219 225,92.400391 l 0.30078,-0.5 2.29883,-2.701172 1.09961,-1.398438 2.10156,-2.40039 L 234.5,81.5 l 0.59961,-0.900391 2.30078,-2.798828 25.29883,-29 -2.89844,-2.90039 -5.70117,-3.800782 -26.5,-16.40039 L 213.19922,17 203.90039,11.300781 194.19922,5.1992188 Z"
     style="fill:#cc2f4a;stroke:#ffffff;stroke-width:2" /><path
     d="m 262.1,178.09999 2.6,0.9 2.3,1.5 3.5,2.8 0.8,0.4 1.3,-0.3 0.9,0.4 1.4,0.5 1.4,0.6 1.8,-0.8 1.3,-1.3 1.4,-0.1 3,1.1 4.4,1.6 4.4,0.9 2.6,1.3 1.1,1.9 1,2.3 1,0.4 6.6,0.2 2.6,-0.5 2.8,2.5 -0.5,1.3 -0.1,1.1 -0.4,1.3 -1.1,1.5 -1,1.5 -0.6,1.1 -1.4,1 -1.3,-0.1 -1.9,0.4 -1.4,1 -1.1,0.9 -0.9,1.1 -0.8,1.8 -0.4,1.6 -0.3,2 -0.3,2 0.1,1.6 0.1,2.3 -0.3,-0.1 -0.4,-0.8 -0.4,-0.6 -0.4,-0.1 -0.9,0.3 -1.1,0.3 -2.5,-0.3 -1,0.3 -0.8,0.1 -2.6,-0.5 -0.1,0.4 -0.5,1.1 -1.1,0.3 -2.1,0.5 -3.1,0.5 -0.5,0.1 -0.3,-0.1 -0.5,-0.5 -1.1,-1.4 -0.5,-0.9 0,-1.7 -0.3,-0.3 -3.1,0.3 -17.1,1.9 -12.3,1.2 -1.4,0.3 -0.8,-1 2.3,-1.1 1.4,-0.9 4.1,-3.6 3.4,-3.9 1.4,-3.3 0.6,-3 0.1,-2.5 -0.3,-0.6 -2.8,1.9 -1.9,-0.5 -5.1,2.4 -0.5,-1.6 -0.6,-2.4 -0.8,-1.3 0.4,-1 0.4,0 0.6,0.1 0.3,-0.1 0.5,-1.3 0,-0.3 -0.3,-0.5 0,-0.4 0.3,-0.6 1.3,-0.6 3.1,-1.5 0.1,-0.4 1.8,-2.4 0.1,0 1.8,-1.9 0.1,0 1.8,-1.5 0.1,-0.3 2.6,-2.5 0.3,-0.1 3.7,-3.3 z"
     id="Union"
     style="fill:#4389e3;stroke:#ffffff;stroke-width:2" /><path
     d="m 137.09961,79.099609 0.30078,1 -0.40039,0.59961 -0.80078,1 -1.09961,0.90039 -0.5,0.5 -0.0996,0.09961 -0.80078,0.201172 -0.89844,0.199218 -0.60156,0.300782 -0.79883,0.298828 -0.80078,0.40039 -0.59961,0.5 -0.5,0.400391 -0.30078,0.400391 -0.5,0.199218 -0.39844,0.09961 -0.40039,0.5 -0.30078,0.40039 -0.29883,0.59961 -0.20117,0.40039 -0.5,1.400391 -0.29883,0.699219 -0.40039,0.5 -0.40039,0.5 -0.40039,0.40039 -0.19922,0.59961 -0.20117,0.5 0,0.40039 -0.0996,0.59961 L 124.30078,94 l -0.40039,0.300781 -0.5,0.398438 -0.5,0.601562 -0.70117,0.5 -0.79883,0.59961 -0.5,0.40039 -0.80078,0.5 -0.40039,0.298828 -0.29883,0.201172 -1.30078,1 L 117.80078,99 l -1.70117,0.900391 -1.59961,0.699219 -1.30078,0.30078 -0.29883,0.19922 -0.59961,0.30078 -0.90039,0.40039 -1.09961,0.59961 -1.30078,0.5 -1.59961,0.59961 -1.09961,0.80078 -0.90039,0.79883 -0.30078,0.30078 L 104,106.30078 103.09961,107 102.40039,107.40039 102,107.80078 101.9004,108.5 l 0,0.30078 0,0.29883 0,0.40039 -0.0996,0.30078 -0.30078,0.59961 -0.40039,0.59961 -0.29883,0.69922 0.39844,0.90039 0.10156,0.0996 0.5,0.40039 0.39844,0.20117 0.40039,0.29883 0.90039,0.30078 0.5,0.0996 0.19922,0.40039 0.30078,0.5 0.0996,0.79883 0,0.40039 0.0996,0.70117 0.30078,0.59961 0.80078,1.5 0.29883,0.5 0.70117,0.90039 0.89844,2 1.20117,2.19922 0.79883,1.30078 0.40039,0.59961 0.5,0.59961 0.59961,0.30078 0.5,0.19922 0.5,0.5 0.5,0.69922 0.30078,0.70117 0.0996,0.69922 0.20117,0.90039 0.29883,0.90039 0.0996,0.79883 0.3008,0.8008 0.19922,0.80078 0.5,0.89844 0.40039,0.60156 0.0996,0.0996 0.60156,0.90039 0.59961,1.09961 1,1.19922 0.59961,1.20117 0.69922,1.79883 0,0.90039 -0.29883,0.69922 -0.30078,0.5 -0.59961,0.60156 -0.40039,0.39844 L 116.69922,146 116.5,146.59961 116.30078,147 l -0.40039,0.40039 -0.5,0.0996 -0.5,0 -0.70117,-0.19922 L 114,147.19922 113.69922,147.09961 113,146.80078 l -0.80078,0 -0.79883,0.0996 -0.80078,0.19922 -0.40039,0.0996 -0.39844,0.5 -0.30078,0.70117 0,0.59961 0.30078,0.59961 0.39844,0.59961 0.5,0.5 0.70117,0.5 0.5,0.60156 0.19922,1.09961 0,0.40039 0,0.59961 0,0.19922 -0.29883,0.90039 -0.20117,0.5 -0.59961,0.59961 -0.40039,0.30078 -0.29883,0.29883 L 110,157 l -0.40039,0.40039 -0.0996,0.0996 -0.30078,0.59961 -0.29883,0.70117 -0.0996,0.5 -0.40039,0.89844 -0.59961,1 -0.90039,1 -0.40039,0.40039 -0.80078,0.40039 -0.79883,0.19922 -0.59961,0.5 -0.40039,0.5 -0.5,0.5 -0.30078,0.70117 -0.40039,0.69922 -0.39844,0.5 L 102,167 l -0.0996,0.0996 -0.30078,0.0996 -0.0996,0 -0.59961,0.10156 -0.59961,-0.10156 -0.900389,-0.29883 -0.09961,-0.0996 L 98.5,166.5 97.599609,166.19922 96.699219,166 l -0.898438,-0.0996 -0.601562,0 -0.09961,0 -0.699218,0.0996 -0.5,0.40039 -0.400391,0.5 -0.300781,0.5 -0.199219,0.5 -0.09961,0.79883 -0.300782,0.60156 -0.40039,0.79883 -0.5,0.80078 L 91,171.30078 90.199219,171.59961 89,172.40039 l -0.800781,0.69922 -0.298828,0.5 -0.09961,0.5 0.199219,0.80078 0.300781,0.5 1,1 0.298828,0.29883 0.300782,0.60156 0.298828,0.39844 0.40039,0.60156 0.201172,0.79883 -0.201172,0.59961 -0.40039,0.60156 -0.199219,0.5 -0.09961,0.39844 -0.09961,0.5 -0.201172,0.5 -0.09961,0.10156 -0.400391,0.39844 -0.5,0.60156 -0.5,0.89844 -0.798828,1.60156 -0.5,1.5 -0.40039,1.59961 -0.201172,1.09961 0,0.30078 L 86.5,191.40039 86.800781,192 l 0.59961,0.5 0.90039,0.40039 1,0.19922 1.09961,0.0996 0.798828,0.10156 0.40039,0.39844 L 92,194.5 91.90039,195.30078 91.599608,196.09961 91,196.69922 l -0.5,0.5 -0.699219,0.60156 -0.701172,0.59961 -0.699218,0.79883 -0.400391,0.5 -0.400391,0.40039 -0.199218,0.5 -0.09961,0.59961 0,0.60156 0.09961,0.5 0.40039,0.29883 0.298828,0.5 0.300782,0.30078 0.40039,0.69922 0.298828,0.90039 0.09961,0.59961 0.101562,1 0.09961,1.40039 0,0.5 -0.300782,0.80078 -0.298828,0.29883 -0.201172,0.20117 -0.40039,0.0996 -0.59961,0.29883 -0.40039,0.30078 -0.09961,0.5 0,0.59961 0.201172,0.5 0.09961,0.59961 0.09961,0.40039 0.5,0.80078 0.400391,1.29883 L 88.699219,216.5 89,217.69922 l 0,0.60156 2.599609,-2.20117 2.59961,-2.40039 0,-0.29883 L 95,211.09961 l 0.800781,-0.79883 1.898438,-1 L 98,209.19922 98.699219,207.90039 99,207.80078 l 1.30078,-0.60156 0.89844,-0.39844 1.40039,-1 3.80078,-1.60156 1.90039,-1.89844 1.89844,-1.5 3.80078,-3 1.59961,-0.90039 1.40039,-1.80078 0.30078,-0.5 1.09961,-0.40039 0.59961,-0.5 0.80078,-0.29883 0.79883,-0.30078 0.90039,-0.5 0.90039,-0.40039 0.0996,-0.0996 0.5,-0.5 0.30078,-0.29883 L 123.59961,191 124,190.59961 l 1.30078,-0.5 1.19922,-0.29883 1.59961,-0.10156 0.59961,-0.19922 1.80078,-1.5 1.80078,-1.09961 0.79883,-0.40039 0.5,-0.5 0.0996,-0.5 L 135,185.09961 136,185 l 0.80078,-0.90039 1.5,-2.90039 1.79883,-2.29883 0.90039,-1.09961 1.5,-2.30078 2.59961,-2.59961 2.40039,-2.09961 0.80078,-1.10156 1.19922,-0.79883 0.5,-1.09961 0.59961,-1.60156 0.5,-0.79883 0.80078,-0.5 1.09961,-0.59961 1,-0.5 2.09961,-0.90039 1.80078,-0.90039 0.59961,-1.5 0.0996,0 2,-0.5 1.09961,-1 1,-1.09961 0.40039,-1.09961 1.09961,-1.10156 0.80078,-1.39844 1.30078,-2.20117 0.89844,-0.40039 0.80078,-0.79883 -0.0996,-1.80078 -0.40039,-1 0.0996,-0.59961 0.59961,-0.30078 1.70117,-0.89844 -0.0996,-1.30078 0.29883,-0.90039 1,-0.40039 0,-1.59961 -0.40039,-1.29883 -0.29883,-1.30078 0.0996,-2 1.40039,-1 1.40039,-0.5 0.79883,-0.30078 0.5,-1.89844 L 176,132.5 177.69922,131 178.5,129.90039 166.19922,115.5 l -3.09961,-3.90039 -5,-6.40039 -1.29883,-1.5 -0.40039,-0.39844 L 155,101.5 l -1.30078,-1.800781 -0.59961,-0.898438 -2.59961,-3 L 142.69922,86 l -0.39844,-0.5 -2.40039,-2.900391 -2.80078,-3.5 z"
     style="fill:#cc2f4a;stroke:#ffffff;stroke-width:2"
     id="Warren" /></svg>