<?xml version="1.0" encoding="utf-8"?>
<!-- Generator: Adobe Illustrator 16.0.0, SVG Export Plug-In . SVG Version: 6.00 Build 0)  -->
<!DOCTYPE svg PUBLIC "-//W3C//DTD SVG 1.1//EN" "http://www.w3.org/Graphics/SVG/1.1/DTD/svg11.dtd">
<svg version="1.1"
	 id="svg5858" xmlns:svg="http://www.w3.org/2000/svg" xmlns:rdf="http://www.w3.org/1999/02/22-rdf-syntax-ns#" xmlns:cc="http://creativecommons.org/ns#" xmlns:sodipodi="http://sodipodi.sourceforge.net/DTD/sodipodi-0.dtd" xmlns:dc="http://purl.org/dc/elements/1.1/" xmlns:inkscape="http://www.inkscape.org/namespaces/inkscape" inkscape:version="0.48.3.1 r9886" sodipodi:docname="New_Mexico_Presidential_Election_Results_by_County,_2008.svg" sodipodi:version="0.32" inkscape:output_extension="org.inkscape.output.svg.inkscape"
	 xmlns="http://www.w3.org/2000/svg" xmlns:xlink="http://www.w3.org/1999/xlink" x="0px" y="0px" width="207.9px" height="214.9px"
	 viewBox="0 0 207.9 214.9" enable-background="new 0 0 207.9 214.9" xml:space="preserve">
<defs>
	
	
		<inkscape:perspective  id="perspective5866" inkscape:persp3d-origin="372.04724 : 350.78739 : 1" sodipodi:type="inkscape:persp3d" inkscape:vp_y="0 : 1000 : 0" inkscape:vp_x="0 : 526.18109 : 1" inkscape:vp_z="744.09448 : 526.18109 : 1">
		</inkscape:perspective>
</defs>
<sodipodi:namedview  bordercolor="#666666" pagecolor="#ffffff" objecttolerance="10" borderopacity="1.0" guidetolerance="10" inkscape:cx="150.66957" showgrid="false" inkscape:cy="188.55969" inkscape:zoom="2" gridtolerance="10000" id="base" inkscape:window-width="1024" inkscape:window-y="114" inkscape:current-layer="layer1" inkscape:pageopacity="0.0" inkscape:window-height="893" inkscape:window-maximized="0" inkscape:pageshadow="2" inkscape:window-x="172" inkscape:document-units="px">
	</sodipodi:namedview>
<g>
	<path id="NM_Lea_1_" fill="#D40000" stroke="#FFFFFF" stroke-width="0.7548" d="M185.389,138.672l-0.23,6.289l-0.484,14.788
		l-0.545,30.03l-0.059,2.989l-0.678-0.019l-1.549-0.05l-1.945-0.057l-1.426-0.027l-1.621-0.051l-10.935-0.339l0.456-17.979
		l-2.49-0.073l0.369-15.252l1.313,0.042l0.379-14.829l1.39-5.965l5.688,0.161L185.389,138.672"/>
	<path id="NM_Eddy_1_" fill="#CC2F4A" stroke="#FFFFFF" stroke-width="0.7548" d="M135.471,173.092l0.264,0.002l0.574-15.24
		l27.941,1.067l-0.369,15.251l2.492,0.074l-0.459,17.979l-7.082-0.236l-1.224-0.046l-22.687-0.954l0.321-8.684l-0.106-0.004
		L135.471,173.092"/>
	<path id="NM_San_Juan_1_" fill="#CC2F4A" stroke="#FFFFFF" stroke-width="0.7548" d="M50.056,12.536l23.146,1.83l1.565,0.121
		l-0.988,1.566l-3.946,3.812l-0.611,1.345l-0.772,9.009l-0.192,2.667l-0.466,8.143l-0.541,7.561l-12.089-1.044l-24.975-2.172
		l2.715-34.35L50.056,12.536"/>
	<path id="NM_Sierra_1_" fill="#E27F90" stroke="#FFFFFF" stroke-width="0.7548" d="M59.345,135.36l17.801,1.271l2.992,0.291
		l8.577,0.609l3.877,0.231l2.945,0.038l0.585,3.122l-0.453,11.646l-15.323,6.928l-0.081,1.495l-11.21-0.821l-0.371,6.003
		l-8.426-0.628l-2.94-0.821l-0.451-0.353l0.049-0.372l0.263-0.614l0.385-2.039l0.059-1.458l-0.071-0.51l-2.337-13.976l-0.062-0.268
		l-0.362-0.597l-0.23-0.061l-3.627-0.269l0.645-9.504L59.345,135.36"/>
	<path id="NM_Catron_1_" fill="#D40000" stroke="#FFFFFF" stroke-width="0.7548" d="M61.496,97.419l-0.228,2.689l-0.51,8.278
		l0.25,0.023l-1.285,21.307l-0.379,5.644l-7.765-0.651l-0.645,9.504l-12.164-0.997l-2.522-0.463l-2.79-0.302l-10.841-0.957
		l3.727-47.113l18.118,1.627l6.365,0.46l8.854,0.768L61.496,97.419"/>
	<path id="NM_Luna_1_" fill="#F2B3BE" stroke="#FFFFFF" stroke-width="0.7548" d="M68.685,166.177l-1.642,28.23l-25.137-1.971
		l-0.052-2.774l0.144-1.997l0.13-3.621l-0.105-1.823l1.064-14.996l8.362,0.67l0.199-2.992l8.61,0.646L68.685,166.177"/>
	<path id="NM_Otero_1_" fill="#E27F90" stroke="#FFFFFF" stroke-width="0.7548" d="M96.123,140.924l9.338,0.602l7.391,0.396
		l-0.088,2.955l11.025,0.575l-0.191,5.96l-0.31,3.897l-0.411,1.952l-0.611,2.966l-0.547,12.251l5.605,0.285l1.059-0.002l7.09,0.334
		l-0.333,9.207l0.106,0.005l-0.322,8.684l-1.945-0.091l-29.729-1.639l-10.432-0.613l1.706-32.882l0.974,0.059l0.174-3.253
		L96.123,140.924"/>
	<path id="NM_Torrance_1_" fill="#E27F90" stroke="#FFFFFF" stroke-width="0.7548" d="M115.768,85.009l11.218,0.583l-0.587,14.992
		l-0.607-0.009l-0.373,8.983l-0.13,2.985l-16.346-0.886l-13.156-0.795l0.291-6.202l0.128-2.825l-1.396-0.067l0.126-3.039l0.541-6.89
		l1.53-2.018l4.82,0.338l2.112,0.095l0.135-2.879l-2.493-0.146l0.151-2.987L115.768,85.009"/>
	<path id="NM_Lincoln_1_" fill="#CC2F4A" stroke="#FFFFFF" stroke-width="0.7548" d="M125.419,109.556l11.262,0.544l-0.367,8.917
		l-0.368,9.104l0.056-0.004l0.026,0.083l-0.497,12.793l-0.763,10.751l-2.745,0.023l-8.424-0.356l0.191-5.96l-11.025-0.575
		l0.088-2.955l-7.391-0.396l-9.338-0.602l-0.585-3.122l0.303-6.219l2.835,0.189l2.945,0.449l0.232,0.095l2.622,0.155l0.302-6.054
		l3.442,0.216l0.256-6.024l0.468-8.953l16.345,0.887L125.419,109.556"/>
	<path id="NM_Union_1_" fill="#D40000" stroke="#FFFFFF" stroke-width="0.7548" d="M186.692,20.148l2.168,0.053l-0.307,17.29
		l-1.037,0.726l-0.107,5.546l-0.143,9.095l-0.207,10.93l-8.772-0.28l0.196-8.938l0.274-0.628l0.047-2.396l-11.231-0.339l0.092-3.048
		l-5.611-0.224l0.037-1.502l0.787-26.911L186.692,20.148"/>
	<path id="NM_Harding_1_" fill="#E27F90" stroke="#FFFFFF" stroke-width="0.7548" d="M150.936,45.982l11.158,0.455l-0.041,1.502
		l5.613,0.223l-0.092,3.049l11.23,0.34l-0.047,2.394l-0.273,0.628l-0.197,8.938l-0.174,3.031l-0.215,8.794l-0.268,0.262
		l-6.523-0.195l0.036-1.106l-2.31-0.09l-6.298-13.352l-3.917,0.544l-6.351-0.233L150.936,45.982"/>
	<path id="NM_Quay_1_" fill="#CC2F4A" stroke="#FFFFFF" stroke-width="0.7548" d="M178.288,63.51l8.773,0.278l-0.086,4.034
		l-0.291,15.181l-0.156,7.916l-5.301-0.141l-6.389,5.875l-6.129,2.783l-0.949,2.992l-5.61-0.195l-4.802-0.183l0.156-6.02
		l0.096-3.157l0.283-6.136l0.106-3.241l7.187-3.951l-0.019,0.762l5.83,0.246l0.117-5.153l6.524,0.196l0.268-0.262l0.217-8.794
		L178.288,63.51"/>
	<path id="NM_De_Baca_1_" fill="#CC2F4A" stroke="#FFFFFF" stroke-width="0.7548" d="M157.505,96.033l-0.153,6.021l4.801,0.182
		l-0.286,10.059l0.025,1.853l-0.16,6.113l-5.634-0.233l-0.108,3.034l-5.883-0.246l-11.028-0.613l0.104-3.036l-2.869-0.146
		l0.367-8.916l0.324-8.888l11.91,0.509l1.923-2.935l1.067-2.963L157.505,96.033"/>
	<path id="NM_Curry_1_" fill="#CC2F4A" stroke="#FFFFFF" stroke-width="0.7548" d="M186.526,90.922l-0.129,7.138l-0.314,15.007
		l-0.003,0.36l-18.632-0.576l0.313-10.421l0.949-2.992l6.129-2.783l6.389-5.875l5.301,0.146"/>
	<path id="NM_Roosevelt_1_" fill="#CC2F4A" stroke="#FFFFFF" stroke-width="0.7548" d="M167.76,102.433l-0.313,10.42l18.632,0.576
		l-0.394,16.493l-0.297,8.752l-12.371-0.341l0.084-2.999l-5.631-0.138l0.186-5.627l-3.369-0.119l0.247-9.056l-2.806-0.133
		l0.16-6.113l-0.024-1.853l0.284-10.058L167.76,102.433"/>
	<path id="NM_Chaves_1_" fill="#CC2F4A" stroke="#FFFFFF" stroke-width="0.7548" d="M161.73,120.26l2.804,0.134l-0.246,9.054
		l3.369,0.12l-0.186,5.626l5.631,0.139l-0.086,3.001l-5.686-0.163l-1.393,5.964l-0.376,14.83l-1.312-0.042l-27.943-1.068
		l-0.574,15.242l-0.264-0.002l-7.088-0.334l-1.061,0.003l-5.605-0.286l0.549-12.249l0.607-2.966l0.413-1.954l0.311-3.896
		l8.423,0.357l2.747-0.023l0.764-10.752l0.498-12.793l-0.028-0.083l-0.056,0.004l0.368-9.104l2.87,0.146l-0.106,3.035l11.031,0.613
		l5.883,0.246l0.107-3.034L161.73,120.26"/>
	<path id="NM_Los_Alamos_1_" fill="#86B6F2" stroke="#FFFFFF" stroke-width="0.7548" d="M103.236,52.25l0.008,1.234l-0.21,2.594
		l-0.753-0.035l0.667,0.518l0.061,0.081l-0.146,2.894l-0.422-0.859l-0.412-0.456l-1.09-0.59l-0.819-0.368l-0.151,0.164l-0.534,0.073
		l-0.477-0.012l-0.27-0.13l-0.191-0.324l0.694-3.573l0.394-0.952l2.284-0.376l0.948-0.013L103.236,52.25"/>
	<path id="NM_Rio_Arriba_1_" fill="#4389E3" stroke="#FFFFFF" stroke-width="0.7548" d="M74.771,14.488l10.845,0.782l3.353,0.499
		l6.527,0.413l3.637,0.222l12.125,0.679l0.408,2.354l-0.047,3.731l0.07,7.398l0.254,2.036l0.201,2.141l0.014,0.692l-0.553,3.39
		l-0.191,0.488l-0.328,0.303l-0.799,0.389l-0.648,0.07l-0.322,0.101l-0.492,0.688l-0.076,0.269l5.139,2.607l2.311,3.561l0.295,0.558
		l0.357,0.56l5.235,3.309l-4.944,0.922l0.059-0.826l-9.208-0.516l0.058,0.441l0.25,0.027l0.043,0.128l-0.084,1.891l-5.013-0.312
		l-0.008-1.23l0.046-0.242l0.042-0.966l-16.694-1l0.208-4.109l0.221-3.408l-9.192-0.634L67.8,41.027l0.462-8.141l0.193-2.667
		l0.773-9.01l0.612-1.344l3.944-3.812L74.771,14.488"/>
	<path id="NM_McKinley_1_" fill="#4389E3" stroke="#FFFFFF" stroke-width="0.7548" d="M30.191,45.374l24.975,2.173l12.087,1.043
		l8.314,0.686l-1.5,23.916l-6.179-0.396l-2.224-0.225l-2.782-0.218l-19.363-1.658l-0.033,0.484l-0.853,11.501l-15.264-1.391
		L30.191,45.374"/>
	<path id="NM_Bernalillo_1_" fill="#86B6F2" stroke="#FFFFFF" stroke-width="0.7548" d="M76.89,76.373l6.163,0.459l5.276,0.377
		l4.339,0.302l6.32,0.414l3.026,0.275l-0.281,6.043l-0.151,2.987l2.493,0.146l-0.135,2.879l-2.112-0.095l-4.824-0.337l-0.053-0.768
		l-0.223-0.335l-0.219-0.076l-6.732-0.534l-0.793,0.843l-0.197,0.338l-8.069-0.561l-0.936-3.07L76.89,76.373"/>
	<path id="NM_Valencia_1_" fill="#F2B3BE" stroke="#FFFFFF" stroke-width="0.7548" d="M79.782,85.662l0.936,3.07l8.069,0.561
		l0.196-0.338l0.793-0.844l6.733,0.535l0.218,0.076l0.223,0.334l0.053,0.768l-1.526,2.018l-0.542,6.889l-0.126,3.039l1.397,0.068
		l-0.129,2.824l-2.165-0.659l-7.159-3.185l-2.832-1.801l-0.743-0.08l-7.829-0.495l0.824-13.076L79.782,85.662"/>
	<path id="NM_Cibola_1_" fill="#B9D7FF" stroke="#FFFFFF" stroke-width="0.7548" d="M76.89,76.373l2.892,9.289l-3.608-0.297
		L75.35,98.441l-13.852-1.021l-1.815-0.185l-8.853-0.768l-6.367-0.459l-18.115-1.627l1.025-13.092l15.264,1.39l0.852-11.5
		l0.033-0.485l19.363,1.657l2.784,0.219l2.222,0.226l6.179,0.396L76.89,76.373"/>
	<path id="NM_Socorro_1_" fill="#B9D7FF" stroke="#FFFFFF" stroke-width="0.7548" d="M75.35,98.441l7.829,0.493l0.743,0.082
		l2.832,1.801l7.16,3.184l2.165,0.66l-0.291,6.202l13.156,0.795l-0.466,8.953l-0.259,6.024l-3.44-0.217l-0.303,6.054l-2.622-0.153
		l-0.232-0.097l-2.944-0.448l-2.836-0.189l-0.303,6.219l-2.946-0.038l-3.876-0.23l-8.577-0.61l-2.992-0.286l-17.801-1.274
		l0.378-5.645l1.285-21.307l-0.251-0.024l0.514-8.277l0.225-2.688L75.35,98.441"/>
	<path id="NM_Grant_1_" fill="#B9D7FF" stroke="#FFFFFF" stroke-width="0.7548" d="M22.62,141.496l10.84,0.956l2.789,0.303
		l2.522,0.462l12.164,0.998l3.628,0.269l0.229,0.061l0.363,0.597l0.062,0.268l2.337,13.975l0.071,0.511l-0.06,1.458l-0.385,2.04
		l-0.263,0.613l-0.048,0.372l0.449,0.353l2.94,0.821l-8.61-0.646l-0.199,2.992l-8.361-0.669l-1.065,14.996l0.105,1.823l-0.13,3.621
		l-0.144,1.997l-8.467-0.715l0.449-10.832l0.842-11.607l-2.755-3.239l-5.639-0.508l0.419-5.959l-5.25-0.499L22.62,141.496"/>
	<path id="NM_Hidalgo_1_" fill="#F2B3BE" stroke="#FFFFFF" stroke-width="0.7548" d="M21.453,156.303l5.25,0.499l-0.417,5.959
		l5.638,0.508l2.756,3.239l-0.843,11.607l-0.449,10.833l8.467,0.715l0.054,2.773l-0.694,9.738l-0.394,5.702l-17.815-1.508
		l-0.275-0.034l-2.199-0.202l-3.038-0.285l3.007-37.495L21.453,156.303"/>
	<path id="NM_Dona_Ana_1_" fill="#86B6F2" stroke="#FFFFFF" stroke-width="0.7548" d="M95.67,152.568l-0.175,3.256l-0.972-0.059
		l-1.706,32.882l-6.018-0.352l-0.091-0.012l-0.009,0.001v0.016l-0.517,1.501l-0.054,0.252l-0.482,2.997l0.054,0.157l0.283,0.354
		l2.264,2.3l-21.202-1.453l1.642-28.23l0.371-6.004l11.211,0.822l0.081-1.496L95.67,152.568"/>
	<path id="NM_Taos_1_" fill="#4389E3" stroke="#FFFFFF" stroke-width="0.7548" d="M118.692,17.501l12.855,0.698l0.006,2.116
		l-0.51,5.499l-1.545,1.702l-0.889,0.405l-0.801,0.441l-0.576,0.484l-0.214,2.521l0.038,1.864l0.386,3.444l-0.048,6.695
		l-5.314,8.358l-5.234-3.312l-0.359-0.561l-0.293-0.557l-2.311-3.559l-5.143-2.608l0.078-0.27l0.492-0.688l0.32-0.102l0.648-0.069
		l0.801-0.389l0.328-0.303l0.193-0.489l0.55-3.389l-0.013-0.694l-0.203-2.139l-0.254-2.034l-0.066-7.399l0.043-3.732l-0.408-2.353
		L118.692,17.501"/>
	<path id="NM_Santa_Fe_1_" fill="#1666CB" stroke="#FFFFFF" stroke-width="0.7548" d="M103.243,53.484l5.011,0.312l0.083-1.891
		l-0.042-0.127l-0.252-0.028l-0.056-0.44l9.207,0.515l-0.058,0.826l-0.242,3.711l-1.127,28.647l-14.036-0.766l0.278-6.044
		l0.852-18.662l0.171-3.456l0.209-2.602"/>
	<path id="NM_Colfax_1_" fill="#F2B3BE" stroke="#FFFFFF" stroke-width="0.7548" d="M133.24,18.284l3.992,0.261l6.93,0.311
		l18.72,0.669l-0.789,26.911l-11.154-0.456l-11.201-0.473l0.068-1.484l-12.408-0.648l0.049-6.697l-0.385-3.443l-0.039-1.862
		l0.213-2.523l0.578-0.482l0.799-0.441l0.89-0.407l1.546-1.701l0.509-5.499l-0.006-2.116L133.24,18.284"/>
	<path id="NM_Mora_1_" fill="#4389E3" stroke="#FFFFFF" stroke-width="0.7548" d="M127.395,43.373l12.41,0.649l-0.07,1.484
		l11.201,0.474l1.33,15.188l-10.068-0.309l-6.711-0.098l-2.658-1.346l-6.119-2.499l-9.814-0.557l0.242-3.711l4.943-0.921
		L127.395,43.373"/>
	<path id="NM_San_Miguel_1_" fill="#4389E3" stroke="#FFFFFF" stroke-width="0.7548" d="M116.895,56.361l9.816,0.557l6.119,2.499
		l2.66,1.346l6.707,0.099l10.068,0.309l6.352,0.231l3.92-0.545l6.295,13.354l2.311,0.09l-0.037,1.106l-0.118,5.151l-5.83-0.246
		l0.019-0.762l-7.187,3.95l0.049-2.537l-30.821-1.397l-0.232,6.027l-11.217-0.582L116.895,56.361"/>
	<path id="NM_Guadalupe_1_" fill="#86B6F2" stroke="#FFFFFF" stroke-width="0.7548" d="M157.99,83.499l-0.104,3.241l-0.284,6.137
		l-0.097,3.156l-5.602-0.208l-1.065,2.962l-1.923,2.936l-11.91-0.509l-0.324,8.887l-11.262-0.544l0.373-8.982l0.608,0.008
		l0.817-21.019l30.821,1.397L157.99,83.499"/>
	<path id="NM_Sandoval_1_" fill="#B9D7FF" stroke="#FFFFFF" stroke-width="0.7548" d="M67.797,41.027l10.067,0.866l9.191,0.635
		l-0.221,3.406l-0.208,4.111l16.694,0.998l-0.042,0.967l-0.047,0.235l-0.415-0.128l-0.948,0.012l-2.284,0.376l-0.396,0.952
		l-0.693,3.574l0.19,0.323l0.27,0.13l0.477,0.013l0.534-0.074l0.151-0.164l0.818,0.369l1.091,0.59l0.412,0.456l0.422,0.858
		l-0.851,18.663l-3.027-0.274l-6.319-0.415l-4.339-0.301L83.05,76.83l-6.162-0.46l-2.823-3.181l1.5-23.917l-8.313-0.685
		L67.797,41.027 M103.008,56.642l-0.061-0.081l-0.667-0.517l0.752,0.036L103.008,56.642"/>
</g>
</svg>
