<?xml version="1.0" encoding="utf-8"?>
<!-- Generator: Adobe Illustrator 16.0.0, SVG Export Plug-In . SVG Version: 6.00 Build 0)  -->
<!DOCTYPE svg PUBLIC "-//W3C//DTD SVG 1.1//EN" "http://www.w3.org/Graphics/SVG/1.1/DTD/svg11.dtd">
<svg version="1.1"
	 id="svg8065" xmlns:svg="http://www.w3.org/2000/svg" xmlns:rdf="http://www.w3.org/1999/02/22-rdf-syntax-ns#" xmlns:cc="http://creativecommons.org/ns#" xmlns:sodipodi="http://sodipodi.sourceforge.net/DTD/sodipodi-0.dtd" xmlns:dc="http://purl.org/dc/elements/1.1/" xmlns:inkscape="http://www.inkscape.org/namespaces/inkscape" inkscape:version="0.48.1 " sodipodi:docname="Nevada Republican Presidential Primary Election Results by County, 2012.svg" sodipodi:version="0.32" inkscape:output_extension="org.inkscape.output.svg.inkscape"
	 xmlns="http://www.w3.org/2000/svg" xmlns:xlink="http://www.w3.org/1999/xlink" x="0px" y="0px" width="200.248px"
	 height="311.342px" viewBox="0 0 200.248 311.342" enable-background="new 0 0 200.248 311.342" xml:space="preserve">
<defs>
	
	
		<inkscape:perspective  id="perspective8073" inkscape:vp_z="744.09448 : 526.18109 : 1" inkscape:vp_y="0 : 1000 : 0" inkscape:vp_x="0 : 526.18109 : 1" sodipodi:type="inkscape:persp3d" inkscape:persp3d-origin="372.04724 : 350.78739 : 1">
		</inkscape:perspective>
</defs>
<sodipodi:namedview  bordercolor="#666666" pagecolor="#ffffff" objecttolerance="10" borderopacity="1.0" guidetolerance="10" inkscape:cx="107.72211" showgrid="false" inkscape:cy="168.8337" inkscape:zoom="1.2416322" gridtolerance="10000" id="base" inkscape:window-width="1366" inkscape:window-y="-4" inkscape:current-layer="layer1" inkscape:pageopacity="0.0" inkscape:window-height="706" inkscape:window-maximized="1" inkscape:pageshadow="2" inkscape:window-x="-4" inkscape:document-units="px">
	</sodipodi:namedview>
<g id="layer1" transform="translate(-343.0713,-306.90107)" inkscape:label="Layer 1" inkscape:groupmode="layer">
	<path id="NV_Elko" inkscape:label="Elko, NV" fill="#D40000" stroke="#FFFFFF" stroke-width="0.9379" d="M507.788,331.461
		l3.593,0.11l4.368,0.319l7.669,0.745l6.274,0.437l6.943,0.478l-2.526,39.177l-2.358,34.822l-6.103-0.388l-18.301-1.505
		l-6.725-0.502l-6.804-0.591l-5.91-0.608l-9.302-0.757l-4.932-0.386l-2.263-17.149l-0.462-3.782l-0.06-1.096l1.086-12.742
		l-12.568-1.138l-12.657-1.173l3.768-39.297l11.313,1.128l3.36,0.335L507.788,331.461"/>
	<path id="NV_White_Pine" inkscape:label="White Pine, NV" fill="#D40000" stroke="#FFFFFF" stroke-width="0.9379" d="
		M478.607,403.197l9.302,0.757l5.91,0.608l6.804,0.591l6.725,0.502l18.301,1.505l6.103,0.388l-0.552,8.326l-0.939,14.328
		l-2.261,34.163l-28.867-2.004l-25.868-21.266l0.902-10.799l0.177-0.878l1.101-1.05l0.633-0.789l0.637-0.979l0.787-2.295
		l1.404-10.215l-0.138-9.947L478.607,403.197"/>
	<path id="NV_Clark" inkscape:label="Clark, NV" fill="#86B6F2" stroke="#FFFFFF" stroke-width="0.9379" d="M465.99,532.512
		l4.072,0.381l0.809-0.372l23.051,1.797l5.021,0.375l2.336,0.548l22.032,1.527l-0.412,6.566l-0.052,0.801l-0.345,7.22l-0.253,4.017
		l-0.455,7.01l-3.271,5.829l-0.362,0.531l-0.05,0.043l-0.101,0.074l-0.025,0.018l-1.896,0.197l-0.621,0.008l-0.168-0.019
		l-0.434-0.252l-0.308-0.249l-0.866-1.053l-0.3-0.625l-0.068-0.322l-0.025-0.08l-0.092-0.292l-0.501-0.905l-1.089-1.19l-0.473-0.343
		l-4.108-0.667l-1.84-0.142l-1.907,0.24l-3.38,1.259l-0.291,0.202l-0.374,0.434l0.004,0.252l0.086,3.859l0.567,11.26l0.481,6.867
		l1.017,4.764l0.572,2.246l0.187,1.139l0.383,4.775l0.07,0.875l-0.067,0.797l-0.167,0.963l-2.298,5.236l-5.057-5.798l-13.723-15.808
		l-0.95-1.086l-2.558-2.937l-7.428-8.587l-7.273-8.34L465.99,532.512"/>
	<path id="NV_Lincoln" inkscape:label="Lincoln, NV" fill="#D40000" stroke="#FFFFFF" stroke-width="0.9379" d="M499.132,462.361
		l28.867,2.004l-0.282,4.13l-1.061,16.747l-1.462,21.46l-1.479,23.851l-0.404,6.216l-22.032-1.527l-2.336-0.548l-5.021-0.375
		l-23.051-1.797l-0.809,0.372l-4.072-0.381l0.188-3.103l0.707-8.413l3.102-36.069l27.308,2.161L499.132,462.361"/>
	<path id="NV_Esmeralda" inkscape:label="Esmeralda, NV" fill="#D40000" stroke="#FFFFFF" stroke-width="0.9379" d="M416.81,463.163
		l14.146,20.175l-3.964,40.585l-18.618-21.517l-16.48-18.943l0.434,0.153l1.949,0.208l10.037-9.271L416.81,463.163"/>
	<path id="NV_Nye" inkscape:label="Nye, NV" fill="#CC2F4A" stroke="#FFFFFF" stroke-width="0.9379" d="M414.006,439.01l2.77-0.506
		l8.448-0.958l5.184-0.434l21.974,2.16l20.883,1.823l25.868,21.266l-1.838,24.728l-27.308-2.161l-3.102,36.069l-0.707,8.413
		l-0.188,3.103l-2.898,33.044l-0.419-0.475l-5.311-6.128l-1.277-1.47l-9.906-11.451l-12.216-14.076l-2.319-2.706l-3.959-4.532
		l-0.692-0.796l3.964-40.585l-27.569-39.314l0.344-3.181L414.006,439.01"/>
	<path id="NV_Eureka" inkscape:label="Eureka, NV" fill="#AA0000" stroke="#FFFFFF" stroke-width="0.9379" d="M459.409,366.904
		l12.568,1.138l-1.086,12.742l0.06,1.096l0.462,3.782l2.263,17.149l4.932,0.386l0.159,0.946l0.138,9.947l-1.404,10.215l-0.787,2.295
		l-0.637,0.979l-0.633,0.789l-1.101,1.05l-0.177,0.878l-0.902,10.799l-20.883-1.823l0.303-2.099l0.79-7.19l1.288-13.323
		l1.205-13.227l-0.184-0.047l-0.089-0.044l1.337-12.722l1.882-21.624L459.409,366.904"/>
	<path id="NV_Lander" inkscape:label="Lander, NV" fill="#D40000" stroke="#FFFFFF" stroke-width="0.9379" d="M446.752,365.731
		l12.657,1.173l-0.496,2.093l-1.882,21.624l-1.337,12.722l0.089,0.044l0.184,0.047l-1.205,13.227l-1.288,13.323l-0.79,7.19
		l-0.303,2.099l-21.974-2.16l-5.184,0.434l-8.448,0.958l-0.417-0.996l0.027-1.095l1.829-8.067l0.166-0.628l0.339-0.502l3.531-3.115
		l1.868-1.187l2.414-0.796l0.228,0.029l0.197-0.092l0.345-0.43l0.209-0.649l0.426-3.525l0.861-11.554l-1.365-2.382l9.201-19.936
		l2.038-4.432l6.729,0.628L446.752,365.731"/>
	<path id="NV_Mineral" inkscape:label="Mineral, NV" fill="#E27F90" stroke="#FFFFFF" stroke-width="0.9379" d="M387.282,436.036
		l26.724,2.974l-10.275,1.833l-0.344,3.181l13.424,19.14l-12.497,11.391l-10.037,9.271l-1.949-0.208l-0.434-0.153l-19.785-22.909
		l7.574,0.886l0.476-3.903l1.118-9.86l-0.205-3.467l-2.648-0.303l0.415-3.607l1.417-2.237l1.729-2.599L387.282,436.036"/>
	<path id="NV_Douglas" inkscape:label="Douglas, NV" fill="#CC2F4A" stroke="#FFFFFF" stroke-width="0.9379" d="M349.949,430.017
		l3.663,0.448l3.581,0.989l0.159,0.6l6.034,0.719l7.184,0.957l-0.409,3.649l-1.159,0.146l-1.612-0.186l-0.71,1.056l-0.919,2.778
		l-0.145,1.159l0.602,3.543l0.43,1.219l0.914,2.206l0.138,3.81l-0.232,2.121l-6.906-7.959l-8.528-9.846l-2.277-5.641
		L349.949,430.017"/>
	<path id="NV_Carson_City" inkscape:label="Carson City, NV" fill="#E27F90" stroke="#FFFFFF" stroke-width="0.9379" d="
		M350.181,427.927l9.157-2.234l0.717,1.734l0.93,0.683l2.597,0.31l0.04,0.2l-0.134,3.986l-0.102,0.166l-6.034-0.719l-0.159-0.6
		l-3.581-0.989l-3.663-0.448L350.181,427.927"/>
	<path id="NV_Lyon" inkscape:label="Lyon NV" fill="#CC2F4A" stroke="#FFFFFF" stroke-width="0.9379" d="M376.726,412.673
		l3.007-2.469l0.763-0.415l-0.684,3.006l-1.405,4.536l-0.612,5.104l3.401,4.489l2.093,2.557l1.629,1.852l2.525,3.235l-0.161,1.468
		l-5.298-0.572l-1.729,2.599l-1.417,2.237l-0.415,3.607l2.648,0.303l0.205,3.467l-1.118,9.86l-0.476,3.903l-7.574-0.886
		l-4.642-5.324l0.232-2.121l-0.138-3.81l-0.914-2.206l-0.43-1.219l-0.602-3.543l0.145-1.159l0.919-2.778l0.71-1.056l1.612,0.186
		l1.159-0.146l0.409-3.649l-7.184-0.957l0.102-0.166l0.134-3.986l-0.04-0.2l-2.597-0.31l-0.93-0.683l-0.717-1.734l2.041-0.38
		l5.379-2.162l7.182-10.442L376.726,412.673"/>
	<path id="NV_Churchill" inkscape:label="Churchill, NV" fill="#D40000" stroke="#FFFFFF" stroke-width="0.9379" d="
		M427.433,403.513l1.365,2.382l-0.861,11.554l-0.426,3.525l-0.209,0.649l-0.345,0.43l-0.197,0.092l-0.228-0.029l-2.414,0.796
		l-1.868,1.187l-3.531,3.115l-0.339,0.502l-0.166,0.628l-1.829,8.067l-0.027,1.095l0.417,0.996l-2.77,0.506l-26.724-2.974
		l0.161-1.468l-2.525-3.235l-1.629-1.852l-2.093-2.557l-3.401-4.489l0.612-5.104l1.405-4.536l0.684-3.006l-0.763,0.415l-3.007,2.469
		l0.508-1.904l0.367-4.205l-0.437-1.368l0.101-5.435l0.188-1.695l18.368,2.187l10.551,1l9.064,0.956L427.433,403.513"/>
	<path id="NV_Pershing" inkscape:label="Pershing, NV" fill="#D40000" stroke="#FFFFFF" stroke-width="0.9379" d="M436.635,383.577
		l-9.201,19.936l-11.997-1.305l-9.064-0.956l-10.551-1l-18.368-2.187l-3.393-0.375l2.482-20.368l0.758,0.07l2.175-17.346
		l15.305,1.783l-0.472,4.126l33.525,3.556l-0.699,6.82l9.846,1.025l0.245,0.067l0.019,0.243L436.635,383.577"/>
	<path id="NV_Storey" inkscape:label="Storey, NV" fill="#CC2F4A" stroke="#FFFFFF" stroke-width="0.9379" d="M373.94,412.709
		l-7.182,10.442l-5.379,2.162l-2.041,0.38l2.018-2.966l0.667-4.55l-0.504-1.025l-0.133-1.931l4.475-1.136l2.275-0.055l3.029-0.297
		l1.376-0.395L373.94,412.709"/>
	<path id="NV_Washoe" inkscape:label="Washoe, NV" fill="#B9D7FF" stroke="#FFFFFF" stroke-width="0.9379" d="M382.897,319.322
		l1.028,0.131l-0.72,5.372l-1.264,10.458l-0.169,6.961l-0.513,4.267l-0.501,1.833l-0.61,0.85l-0.925,7.652l-0.337,3.137l0.588,0.063
		l-2.175,17.346l-0.758-0.07l-2.482,20.368l3.393,0.375l-0.188,1.695l-0.101,5.435l0.437,1.368l-0.367,4.205l-0.508,1.904
		l-2.786,0.036l-1.398,0.631l-1.376,0.395l-3.029,0.297l-2.275,0.055l-4.475,1.136l0.133,1.931l0.504,1.025l-0.667,4.55
		l-2.018,2.966l-9.157,2.234l0.731-5.91l0.702-5.051l1.447-10.868l0.317-2.294l1.545-11.389l0.989-7.483l0.01-0.041l0.282-2.262
		l0.896-7.007l1.736-14.361l1.577-12.473l4.073-31.754L382.897,319.322"/>
	<path id="NV_Humboldt" inkscape:label="Humboldt, NV" fill="#CC2F4A" stroke="#FFFFFF" stroke-width="0.9379" d="M383.926,319.452
		l15.765,1.921l16.759,1.685l33.843,3.322l0.228,0.054l-5.118,53.339l-6.729-0.628l-2.038,4.432l0.609-5.91l-0.019-0.243
		l-0.245-0.067l-9.846-1.025l0.699-6.82l-33.525-3.556l0.472-4.126l-15.305-1.783l-0.588-0.063l0.337-3.137l0.925-7.652l0.61-0.85
		l0.501-1.833l0.513-4.267l0.169-6.961l1.264-10.458L383.926,319.452"/>
</g>
</svg>
