<?xml version="1.0" encoding="UTF-8" standalone="no"?>
<!-- Generator: Adobe Illustrator 18.1.1, SVG Export Plug-In . SVG Version: 6.00 Build 0)  -->

<svg
   xmlns:dc="http://purl.org/dc/elements/1.1/"
   xmlns:cc="http://creativecommons.org/ns#"
   xmlns:rdf="http://www.w3.org/1999/02/22-rdf-syntax-ns#"
   xmlns:svg="http://www.w3.org/2000/svg"
   xmlns="http://www.w3.org/2000/svg"
   xmlns:sodipodi="http://sodipodi.sourceforge.net/DTD/sodipodi-0.dtd"
   xmlns:inkscape="http://www.inkscape.org/namespaces/inkscape"
   version="1.1"
   id="svg5598"
   sodipodi:version="0.32"
   inkscape:version="0.91 r"
   sodipodi:docname="New_York_Presidential_Election_Results_2016.svg"
   inkscape:output_extension="org.inkscape.output.svg.inkscape"
   x="0px"
   y="0px"
   width="479.9px"
   height="379px"
   viewBox="-15 32.3 479.9 379"
   enable-background="new -15 32.3 479.9 379"
   xml:space="preserve"><metadata
     id="metadata5599"><rdf:RDF><cc:Work
         rdf:about=""><dc:format>image/svg+xml</dc:format><dc:type
           rdf:resource="http://purl.org/dc/dcmitype/StillImage" /></cc:Work></rdf:RDF></metadata><defs
     id="defs5532"><inkscape:perspective
       inkscape:persp3d-origin="372.04724 : 350.78739 : 1"
       sodipodi:type="inkscape:persp3d"
       inkscape:vp_x="0 : 526.18109 : 1"
       inkscape:vp_y="0 : 1000 : 0"
       inkscape:vp_z="744.09448 : 526.18109 : 1"
       id="perspective5606" /></defs><sodipodi:namedview
     inkscape:window-maximized="0"
     pagecolor="#ffffff"
     bordercolor="#666666"
     borderopacity="1.0"
     gridtolerance="10000"
     guidetolerance="10"
     objecttolerance="10"
     inkscape:zoom="1.1197423"
     inkscape:cx="214.18224"
     inkscape:cy="191.7735"
     showgrid="false"
     id="base"
     inkscape:document-units="px"
     inkscape:pageopacity="0.0"
     inkscape:pageshadow="2"
     inkscape:current-layer="layer1"
     inkscape:window-width="1917"
     inkscape:window-height="756"
     inkscape:window-x="0"
     inkscape:window-y="228" /><g
     id="layer1"
     transform="translate(-154.94822,-269.83278)"
     inkscape:label="Layer 1"
     inkscape:groupmode="layer"><path
       id="NY_Richmond"
       inkscape:label="Richmond, NY"
       fill="#CCCCCC"
       stroke="#FFFFFF"
       stroke-width="0.9665"
       d="M494.1,670.7   l-0.3,0.1l-0.6,0.7l-1,0.7l-0.3-0.1l-1,0.8l-0.6,0.3l-0.5,0.6l-1.5,0.4l-0.3-0.3l-0.1-0.4l0.2-0.4l0.4-0.6l0-0.9l0.2-0.7l1.3-1.3   l0.4-1.2l0-1.5l0.3-0.7l0-0.8l0.5-1.2l0.6-1.1l0.9-0.5l1.6-0.6l2-0.8l0.7,0l0.4,0.5l0.3,1.4l1.1,1.5l-0.3,0.8l-2.7,4.1l-1.6,1.3   L494.1,670.7"
       style="fill:#e27f90;fill-opacity:1" /><path
       id="NY_Clinton"
       inkscape:label="Clinton, NY"
       fill="#CCCCCC"
       stroke="#FFFFFF"
       stroke-width="0.9665"
       d="M495.9,308.9   l-0.2,1.4l0.6,13.2l1,16.9l1.3,3.3l0.8,0.9l1.5,1.1l-6.9,1.6l0.1,1.5l-1.4,2.8l-4.2,2.3l-5.3,2.5l-4.4,0.4l-9,2.2l-1.3-5.9   l-1.4-5.6l-3.2-10.3l-5.3-18.4l-1-3.9l8.5-1.5l14-2L495.9,308.9"
       style="fill:#b9d7ff;fill-opacity:1" /><path
       id="NY_Essex"
       inkscape:label="Essex, NY"
       fill="#CCCCCC"
       stroke="#FFFFFF"
       stroke-width="0.9665"
       d="M469.8,359l9-2.2   l4.4-0.4l5.3-2.5l4.2-2.3l1.4-2.8l-0.1-1.5l6.9-1.6l2.3,3.5l0.6,1.8l0.7,2.9l0,0.1l0,0.9l-0.7,3.3l0.8,9.8l-3.1,6.4l-0.8,6.6   l-0.3,2.6l-0.2,2.7l0,0l0.1,0.3l4.9,16.3l0.8,1.9l-3.3,0.8l-34.7,9.1l0.3-3l-0.2-1.2l-6.2-1.9l-2.1,0.7l-0.7,0.4l-0.6,0.9l-8.1-8.2   l4.2-4.1l-2.9-11.8l10.5-2.6l-5.3-21.1L469.8,359"
       style="fill:#f2b3be;fill-opacity:1" /><path
       id="NY_Orleans"
       inkscape:label="Orleans, NY"
       fill="#CCCCCC"
       stroke="#FFFFFF"
       stroke-width="0.9665"
       d="M246.4,486.1   l-3.9,0.4l-20.1,1.6l-3.2,0.4l-1.3-19.4l27.1-1.6L246.4,486.1"
       style="fill:#cc2f4a;fill-opacity:1" /><path
       id="NY_Genesee"
       inkscape:label="Genesee, NY"
       fill="#CCCCCC"
       stroke="#FFFFFF"
       stroke-width="0.9665"
       d="M246.4,486.1l6,11.2   l-1.8,10.2l-29.7,1.9l-1.3-17.6l-0.3-3.2l3.2-0.4l20.1-1.6L246.4,486.1"
       style="fill:#cc2f4a;fill-opacity:1" /><path
       id="NY_Wyoming"
       inkscape:label="Wyoming, NY"
       fill="#CCCCCC"
       stroke="#FFFFFF"
       stroke-width="0.9665"
       d="M221,509.4l29.7-1.9   l1.2,15.6l-1.5,4l-2.3,1.6l-0.8,2.6l-0.7,2.8l0.1,0.3l1.3,0.8l-15.8,1.2l-9.2-0.5l-1.4-19.5l-1.5,0.1l-0.4-7L221,509.4"
       style="fill:#d40000;fill-opacity:1" /><path
       id="NY_Livingston"
       inkscape:label="Livingston, NY"
       fill="#CCCCCC"
       stroke="#FFFFFF"
       stroke-width="0.9665"
       d="M252.4,497.3   l10.4-0.9l0.6,0.6l0.2,0.5l-0.6,2.2l-0.1,0.2l-1.5,0.2l-0.1,0.1l0.1,0.2l7-0.5l3.3-0.6l0.8,0.8l0.4,0.9l0.7,2.1l0.4,3.1l0,0.1   l-2.1,0.2l-0.8,7.4l1.4,7.2l5.8-0.4l0.9,3.6l0.3,3.8l-12.9,9.6l-6.9,0.3l-0.3-3.5l-11.6,0.7l-1.3-0.8l-0.1-0.3l0.7-2.8l0.8-2.6   l2.3-1.6l1.5-4l-1.2-15.6L252.4,497.3"
       style="fill:#e27f90;fill-opacity:1" /><path
       id="NY_Schenectady"
       inkscape:label="Schenectady, NY"
       fill="#CCCCCC"
       stroke="#FFFFFF"
       stroke-width="0.9665"
       d="   M473.7,477.5l2.2-0.1l7.4,2.9l2.3,2.1l0.5,2l4.6,4.9l0.4,0.2l0.8,0l-21,6.5l-5.5-4.7l-0.1-0.2l0.3-1l9.2-8L473.7,477.5"
       style="fill:#86b6f2;fill-opacity:1" /><path
       id="NY_Montgomery"
       inkscape:label="Montgomery, NY"
       fill="#CCCCCC"
       stroke="#FFFFFF"
       stroke-width="0.9665"
       d="M473.2,475.3   l0.5,2.2l1.1,4.6l-9.2,8l-0.3,1l0.1,0.2l-4.2,1.7l-6.6,1.5l-6.6-2.4l-5.2-0.8l-7-1.9l-1.5-14.7l13.2,3.5l3.1-0.3L473.2,475.3"
       style="fill:#cc2f4a;fill-opacity:1" /><path
       id="NY_Fulton"
       inkscape:label="Fulton, NY"
       fill="#CCCCCC"
       stroke="#FFFFFF"
       stroke-width="0.9665"
       d="M434.9,455.4l10.8,3.4   l17.7-3.7l4.8-1l5.1,21.3l-22.6,2.5l-3.1,0.3l-13.2-3.5L434.9,455.4"
       style="fill:#cc2f4a;fill-opacity:1" /><path
       id="NY_Seneca"
       inkscape:label="Seneca, NY"
       fill="#CCCCCC"
       stroke="#FFFFFF"
       stroke-width="0.9665"
       d="M321.5,488.3l-0.9,5.1   l1.2,13.7l0.2,1.5l0.8,3.9l0.2,0.6l0.4,0.7l3.9,6.1l-1.2,6.3l-11.6,1.5l-6.1-17.4l-1.2-7.9l0.1-0.4l0.2-0.1l0.7-0.3l-1-11.2   L321.5,488.3"
       style="fill:#e27f90;fill-opacity:1" /><path
       id="NY_Ontario"
       inkscape:label="Ontario, NY"
       fill="#CCCCCC"
       stroke="#FFFFFF"
       stroke-width="0.9665"
       d="M307.1,490.5l1,11.2   l-0.7,0.3l-0.2,0.1l-0.1,0.4l1.2,7.9l-19.8,2l-1.2,2.4l-0.5,1.6l-0.8,3.7l0.7,7.3l-7.2,0.6l-0.3-3.8l-0.9-3.6l-5.8,0.4l-1.4-7.2   l0.8-7.4l2.1-0.2l0-0.1l-0.4-3.1l-0.7-2.1l-0.4-0.9l-0.8-0.8l5.7-0.4l-0.8-7.3l6.6-0.6l7.2-1l6.5-0.6l0.2,2.2L307.1,490.5"
       style="fill:#e27f90;fill-opacity:1" /><path
       id="NY_Yates"
       inkscape:label="Yates, NY"
       fill="#CCCCCC"
       stroke="#FFFFFF"
       stroke-width="0.9665"
       d="M308.4,510.5l6.1,17.4   l-11.9,5.7l-2.2-0.7l-0.4-0.4l-0.3-3.7l0-1.8l0.1-0.7l-13,1.2l-0.7-7.3l0.8-3.7l0.5-1.6l1.2-2.4L308.4,510.5"
       style="fill:#e27f90;fill-opacity:1" /><path
       id="NY_Schuyler"
       inkscape:label="Schuyler, NY"
       fill="#CCCCCC"
       stroke="#FFFFFF"
       stroke-width="0.9665"
       d="M314.5,527.8   l11.6-1.5l0.8,5.5l1,7l-0.1,1.4l0.6,7.1l4.2-0.3l0.3,2.7l-1.2,1.3l-2.6-0.1l-2.9-1l-0.4-3.2l-6.2,0.6l-7.3,1.2l0.1,0.7l-7.2,1.2   l-0.6,0l-1.1-9.3l-0.8-7.5L314.5,527.8"
       style="fill:#cc2f4a;fill-opacity:1" /><path
       id="NY_Tompkins"
       inkscape:label="Tompkins, NY"
       fill="#CCCCCC"
       stroke="#FFFFFF"
       stroke-width="0.9665"
       d="M327.3,520l12-1.4   l0.2,0.7l11.2-1.5L353,535l-15.7,11.7l-4.7,0.4l-4.2,0.3l-0.6-7.1l0.1-1.4l-1-7l-0.8-5.5L327.3,520"
       style="fill:#4389e3;fill-opacity:1" /><path
       id="NY_Cayuga"
       inkscape:label="Cayuga, NY"
       fill="#CCCCCC"
       stroke="#FFFFFF"
       stroke-width="0.9665"
       d="M324,456.4l1.5,9.4   l2.6,3.4l5-0.6l0.3,2.3l1,6.3l0.4,3.4l-0.1,0.1l-1-0.1l-0.3,0.3l-0.1,0.4l1.2,7.4l3.6,12.5l5.4-0.8l3.7,3l1.6,2l0.1,0.7l1.7,11.7   l-11.2,1.5l-0.2-0.7l-12,1.4l-3.9-6.1l-0.4-0.7l-0.2-0.6l-0.8-3.9l-0.2-1.5l-1.2-13.7l0.9-5.1l-2.9-25.4L324,456.4"
       style="fill:#e27f90;fill-opacity:1" /><path
       id="NY_Onondaga"
       inkscape:label="Onodaga, NY"
       fill="#CCCCCC"
       stroke="#FFFFFF"
       stroke-width="0.9665"
       d="M361.9,471.5l1,1.2   l3.5,6l1.9,7.8l2.5,15.7l-21.8,3.8l-0.1-0.7l-1.6-2l-3.7-3l-5.4,0.8l-3.6-12.5l-1.2-7.4l0.1-0.4l0.3-0.3l1,0.1l0.1-0.1l-0.4-3.4   l-1-6.3l8.9-1.2l7.8-2.9l6.9,2.8L361.9,471.5"
       style="fill:#86b6f2;fill-opacity:1" /><path
       id="NY_Cortland"
       inkscape:label="Cortland, NY"
       fill="#CCCCCC"
       stroke="#FFFFFF"
       stroke-width="0.9665"
       d="M370.8,502.3   l0.9,5.3l4,24.4l-15.5,2L353,535l-2.4-17.2l-1.7-11.7L370.8,502.3"
       style="fill:#e27f90;fill-opacity:1" /><path
       id="NY_Chenango"
       inkscape:label="Chenango, NY"
       fill="#CCCCCC"
       stroke="#FFFFFF"
       stroke-width="0.9665"
       d="M371.7,507.6   l22.8-3.9l3.9-0.1l7.6-1.3l-3.3,35l0.8,9.5l-6.7,0.7l-6.1,0.6l-3.9-2.5l-7.3-0.7l-0.9,0.5l-0.6-1.2l-2.5-12.3L371.7,507.6"
       style="fill:#cc2f4a;fill-opacity:1" /><path
       id="NY_Madison"
       inkscape:label="Madison, NY"
       fill="#CCCCCC"
       stroke="#FFFFFF"
       stroke-width="0.9665"
       d="M361.9,471.5   l6.5,1.6l6.1-2l2.8,0.6l1.3,0.9l3.3,2.4l6.6,5.5l1.3,7.3l0.1,1.1l6.8,4.8l10.9-1.8l-1.7,10.4l-7.6,1.3l-3.9,0.1l-22.8,3.9l-0.9-5.3   l-2.5-15.7l-1.9-7.8l-3.5-6L361.9,471.5"
       style="fill:#e27f90;fill-opacity:1" /><path
       id="NY_Oneida"
       inkscape:label="Oneida, NY"
       fill="#CCCCCC"
       stroke="#FFFFFF"
       stroke-width="0.9665"
       d="M409.1,431.8l4.4,22.4   l1.4,8.2l-4.2,9.3l-2.9,5.6l1.9,13.7l-2,0.9l-10.9,1.8l-6.8-4.8l-0.1-1.1l-1.3-7.3l-6.6-5.5l-3.3-2.4l-1.3-0.9l-2.8-0.6l-6.1,2   l-0.1-13.2l-1.4-0.3l2.9-13.1l3.4,0.7l13.2,2.7L409.1,431.8"
       style="fill:#e27f90;fill-opacity:1" /><path
       id="NY_Lewis"
       inkscape:label="Lewis, NY"
       fill="#CCCCCC"
       stroke="#FFFFFF"
       stroke-width="0.9665"
       d="M384.7,385.9l16.7,7.9   l7.7,38L386.4,450l-13.2-2.7l-2.9-17.3l-1.5-7.8l0.9-7.4l11.5-8.4l2-3.6l0.3-4.9l-3.6-2.3L384.7,385.9"
       style="fill:#cc2f4a;fill-opacity:1" /><path
       id="NY_Herkimer"
       inkscape:label="Herkimer, NY"
       fill="#CCCCCC"
       stroke="#FFFFFF"
       stroke-width="0.9665"
       d="M401.4,393.8   l18.2,0.1l9.8,45.9l-4,12.3l9.4,3.2l-0.6,19.3l1.5,14.7l-7-2l-0.2,5.3l-0.8,0.7l-12-5.4l-1.8,4.1l-4.1,0.7l-0.3-1.8l-1.9-13.7   l2.9-5.6l4.2-9.3l-1.4-8.2l-4.4-22.4L401.4,393.8"
       style="fill:#cc2f4a;fill-opacity:1" /><path
       id="NY_Otsego"
       inkscape:label="Otsego, NY"
       fill="#CCCCCC"
       stroke="#FFFFFF"
       stroke-width="0.9665"
       d="M442.8,491.3l-0.7,3.1   l0.1,2.2l0.2,1.1l2.8,7.6l0.5,2l-1.8,5.2l-1.9,4.1l-7.7,1.3l-11,7.9l-5.6,4.2l-2.7,2.5l-6.1,3.6l-1.5,0.4l-4.7,0.8l3.3-35l1.7-10.4   l2-0.9l0.3,1.8l4.1-0.7l1.8-4.1l12,5.4l0.8-0.7l0.2-5.3l7,2L442.8,491.3"
       style="fill:#e27f90;fill-opacity:1" /><path
       id="NY_Schoharie"
       inkscape:label="Schoharie, NY"
       fill="#CCCCCC"
       stroke="#FFFFFF"
       stroke-width="0.9665"
       d="M465.4,491.3   l5.5,4.7l1,0.9l0.2,4l-0.9,4l-1.2,7.4l-1,9l0.2,1l0.5-0.1l-10.5,5.5L442,516.5l1.9-4.1l1.8-5.2l-0.5-2l-2.8-7.6l-0.2-1.1l-0.1-2.2   l0.7-3.1l5.2,0.8l6.6,2.4l6.6-1.5L465.4,491.3"
       style="fill:#cc2f4a;fill-opacity:1" /><path
       id="NY_Albany"
       inkscape:label="Albany, NY"
       fill="#CCCCCC"
       stroke="#FFFFFF"
       stroke-width="0.9665"
       d="M491.9,489.5l7.6-1.3   l-3,26.2l-26.9,7.8l-0.5,0.1l-0.2-1l1-9l1.2-7.4l0.9-4l-0.2-4l-1-0.9L491.9,489.5"
       style="fill:#86b6f2;fill-opacity:1" /><path
       id="NY_Saratoga"
       inkscape:label="Saratoga, NY"
       fill="#CCCCCC"
       stroke="#FFFFFF"
       stroke-width="0.9665"
       d="M465.8,444.8   l15.6-4l0.6,1l2.9,5.9l0.7,4.4l0.5,0.4l3.6,1.4l5.2-4l3.9-3.9l0.4,0.7l2.9,15.4l0.1,1.5l-0.4,5.5l-0.6,2.8l-1.1,3.4l-0.8,12.9   l-7.6,1.3l-0.8,0l-0.4-0.2l-4.6-4.9l-0.5-2l-2.3-2.1l-7.4-2.9l-2.2,0.1l-0.5-2.2l-5.1-21.3L465.8,444.8"
       style="fill:#f2b3be;fill-opacity:1" /><path
       id="NY_Warren"
       inkscape:label="Warren, NY"
       fill="#CCCCCC"
       stroke="#FFFFFF"
       stroke-width="0.9665"
       d="M468.1,414.5l34.7-9.1   l-0.9,6.4l-0.9,4.8l-4,7.4l-1.3,2.6l-0.9,2.8l-0.1,0.5l0,1.1l4.2,15l-3.9,3.9l-5.2,4l-3.6-1.4l-0.5-0.4l-0.7-4.4l-2.9-5.9l-0.6-1   l-15.6,4l-6.5-28L468.1,414.5"
       style="fill:#e27f90;fill-opacity:1" /><path
       id="NY_Hamilton"
       inkscape:label="Hamilton, NY"
       fill="#CCCCCC"
       stroke="#FFFFFF"
       stroke-width="0.9665"
       d="M451.7,386.1   l2.9,11.8l-4.2,4.1l8.1,8.2l0.6-0.9l0.7-0.4l2.1-0.7l6.2,1.9l0.2,1.2l-0.3,3l-8.8,2.3l6.5,28l2.3,9.2l-4.8,1l-17.7,3.7l-10.8-3.4   l-9.4-3.2l4-12.3l-9.8-45.9l17.9-4.4L451.7,386.1"
       style="fill:#cc2f4a;fill-opacity:1" /><path
       id="NY_Franklin"
       inkscape:label="Franklin, NY"
       fill="#CCCCCC"
       stroke="#FFFFFF"
       stroke-width="0.9665"
       d="M469.8,359   l-12.9,3.4l5.3,21.1l-10.5,2.6l-14.2,3.4l-0.1-5.7l-1.4-6.2l-7.7-33.4l-4.7-21.7l-4.4,0.5l-0.9-4.2l1.5,0.1l23.2-1.8l8.1-0.9l6-1.1   l0.7-0.1l1,3.9l5.3,18.4l3.2,10.3l1.4,5.6L469.8,359"
       style="fill:#e27f90;fill-opacity:1" /><path
       id="NY_St._Lawrence"
       inkscape:label="St. Lawrence, NY"
       fill="#CCCCCC"
       stroke="#FFFFFF"
       stroke-width="0.9665"
       d="   M418.3,318.8l0.9,4.2l4.4-0.5l4.7,21.7l7.7,33.4l1.4,6.2l0.1,5.7l-17.9,4.4l-18.2-0.1l-16.7-7.9l-4-2l-11.7-5.5l-9.4-4.8l2.4-5.7   l2-3.8l3.5-4.5l10.4-12.8l3-3.3l22.8-20.8l1.1-0.6l7.9-3.5l1.4-0.1L418.3,318.8"
       style="fill:#e27f90;fill-opacity:1" /><path
       id="NY_Jefferson"
       inkscape:label="Jefferson, NY"
       fill="#CCCCCC"
       stroke="#FFFFFF"
       stroke-width="0.9665"
       d="M359.6,373.6   l9.4,4.8l11.7,5.5l4,2l-4.7,9.7l3.6,2.3l-0.3,4.9l-2,3.6l-11.5,8.4l-0.9,7.4l1.5,7.8l-11.7,0.1l-2.7,0.9l0.3,2.2l-10.3,0.1   l-2.6-9.8l4.8-7.6l0.3-0.4l0-1.2l-0.9-3.3l-0.3-0.5l-0.4-0.2l-4.8-0.9l-3.3-1.8l-5-4.5l-0.6-2.3l0.1-0.9l0.3-1.8l1.9-5.5l14.2-12.1   L359.6,373.6"
       style="fill:#e27f90;fill-opacity:1" /><path
       id="NY_Oswego"
       inkscape:label="Oswego, NY"
       fill="#CCCCCC"
       stroke="#FFFFFF"
       stroke-width="0.9665"
       d="M346,433.2l10.3-0.1   l-0.3-2.2l2.7-0.9l11.7-0.1l2.9,17.3l-3.4-0.7l-2.9,13.1l1.4,0.3l0.1,13.2l-6.5-1.6l-4.8-2l-6.9-2.8l-7.8,2.9l-8.9,1.2l-0.3-2.3   l-5,0.6l-2.6-3.4l-1.5-9.4l3-2.7l7.8-6.6l0.4-0.2l2.4-0.5l1.4,0.9l0.8,0l1.9-0.3l3.4-1.6l0.4-0.4l0.5-1l0.3-1.3l0.2-1.2l0.1-2.1   l-0.2-3.9L346,433.2"
       style="fill:#e27f90;fill-opacity:1" /><path
       id="NY_Wayne"
       inkscape:label="Wayne, NY"
       fill="#CCCCCC"
       stroke="#FFFFFF"
       stroke-width="0.9665"
       d="M318.6,462.9l2.9,25.4   l-14.4,2.2l-9.8,0.9l-0.2-2.2l-6.5,0.6l-7.2,1l-1.9-19.4l3.5-0.6l9.8-1.4l1.8-0.2l2.6,0.3l2,0.6l4.4-0.3l0.3-0.1l8.8-3.9l1.4-0.9   L318.6,462.9"
       style="fill:#e27f90;fill-opacity:1" /><path
       id="NY_Monroe"
       inkscape:label="Monroe, NY"
       fill="#CCCCCC"
       stroke="#FFFFFF"
       stroke-width="0.9665"
       d="M246.4,486.1   l-1.3-18.5l2.4-0.1l9.1,1.2l5.7,2.1l2.5,1.8l0.4,0.2l4.7,2.5l1.6,0.5l1,0l8.9-4.2l1.9,19.4l-6.6,0.6l0.8,7.3l-5.7,0.4l-3.3,0.6   l-7,0.5l-0.1-0.2l0.1-0.1l1.5-0.2l0.1-0.2l0.6-2.2l-0.2-0.5l-0.6-0.6l-10.4,0.9L246.4,486.1"
       style="fill:#86b6f2;fill-opacity:1" /><path
       id="NY_Niagara"
       inkscape:label="Niagara, NY"
       fill="#CCCCCC"
       stroke="#FFFFFF"
       stroke-width="0.9665"
       d="M219.3,488.6   l0.3,3.2l-1.4,0.6l-6.2,1.3l-20.1,1.9l-4.8,0.4l-1.8-0.6l-0.5-1.2l-1.2-13.7l13.3-5.4l11.3-4l4.9-1.3l3.4-0.7l0.4,0l1.1,0.1   L219.3,488.6"
       style="fill:#e27f90;fill-opacity:1" /><path
       id="NY_Erie"
       inkscape:label="Erie, NY"
       fill="#CCCCCC"
       stroke="#FFFFFF"
       stroke-width="0.9665"
       d="M219.7,491.8l1.3,17.6   l-1.3,0.1l0.4,7l1.5-0.1l1.4,19.5l-7.8,2.6l-6.8,2.7l-7.1,3.7l-1.5,0.4l-1.5,0.2l-3.2-2.1l-7.1-5.1l-4.6-2.2l0.3-1.7l0.9-2l3.2-6.3   l1.7-1.1l4.2-2.7l1.5-0.5l2.7-2.8l0.8-1.2l0.1-0.6l-1.6-4.8l-2.6-6.2l-0.6-1.1l-0.8-0.6l-2.4-0.7l-2.4-1.3l-0.5-0.7l-0.3-1.8   l-0.6-3.9l4.8-0.4l20.1-1.9l6.2-1.3L219.7,491.8"
       style="fill:#86b6f2;fill-opacity:1" /><path
       id="NY_Chautauqua"
       inkscape:label="Chautauqua, NY"
       fill="#CCCCCC"
       stroke="#FFFFFF"
       stroke-width="0.9665"
       d="M188.1,538.3   l3,43.1l-32.3,2.1l-0.9,0.1l-8,0.5l-0.7-10.6l-0.6-9l-0.1-2.1l2.5-1.3l4.1-2.8l5.6-4.2l5.2-4.2l1.3-1.5l1.2-2.1l2.9-3l6.2-3.9   l6-3.4L188.1,538.3"
       style="fill:#e27f90;fill-opacity:1" /><path
       id="NY_Cattaraugus"
       inkscape:label="Cattaraugus, NY"
       fill="#CCCCCC"
       stroke="#FFFFFF"
       stroke-width="0.9665"
       d="M223,535.9   l9.2,0.5l3.3,41.7l-17,1.2l-16.4,1.4l-2.6,0.2l-8.4,0.5l-3-43.1l7.1,5.1l3.2,2.1l1.5-0.2l1.5-0.4l7.1-3.7l6.8-2.7L223,535.9"
       style="fill:#cc2f4a;fill-opacity:1" /><path
       id="NY_Allegany"
       inkscape:label="Allegany, NY"
       fill="#CCCCCC"
       stroke="#FFFFFF"
       stroke-width="0.9665"
       d="M247.9,535.2   l11.6-0.7l0.3,3.5l6.9-0.3l1.6,37.9l-26.9,2.1l-6,0.5l-3.3-41.7L247.9,535.2"
       style="fill:#cc2f4a;fill-opacity:1" /><path
       id="NY_Steuben"
       inkscape:label="Steuben, NY"
       fill="#CCCCCC"
       stroke="#FFFFFF"
       stroke-width="0.9665"
       d="M279.6,528l7.2-0.6   l13-1.2l-0.1,0.7l0,1.8l0.3,3.7l0.4,0.4l2.2,0.7l0.8,7.5l1.1,9.3l0.6,0l7.2-1.2l2,22.2l-37.9,3.5l-8.2,0.7l-1.6-37.9L279.6,528"
       style="fill:#cc2f4a;fill-opacity:1" /><path
       id="NY_Chemung"
       inkscape:label="Chemung, NY"
       fill="#CCCCCC"
       stroke="#FFFFFF"
       stroke-width="0.9665"
       d="M337.3,546.6l1,22.6   l-21.7,1.9l-2.3,0.2l-2-22.2l-0.1-0.7l7.3-1.2l6.2-0.6l0.4,3.2l2.9,1l2.6,0.1l1.2-1.3l-0.3-2.7L337.3,546.6"
       style="fill:#e27f90;fill-opacity:1" /><path
       id="NY_Tioga"
       inkscape:label="Tioga, NY"
       fill="#CCCCCC"
       stroke="#FFFFFF"
       stroke-width="0.9665"
       d="M360.2,534l0.4,0.6   l3.6,10.7l0.1,0.5l0.3,3.2l-0.1,2.6l-1.7,0.3l2.1,14.8l-2.4,0.2l-24.2,2.3l-1-22.6L353,535L360.2,534"
       style="fill:#cc2f4a;fill-opacity:1" /><path
       id="NY_Broome"
       inkscape:label="Broome, NY"
       fill="#CCCCCC"
       stroke="#FFFFFF"
       stroke-width="0.9665"
       d="M375.7,532l2.5,12.3   l0.6,1.2l0.9-0.5l7.3,0.7l3.9,2.5l6.1-0.6l6.7-0.7l5.1,15.2l-7.3,0.8l-36.6,3.8l-2.1-14.8l1.7-0.3l0.1-2.6l-0.3-3.2l-0.1-0.5   l-3.6-10.7l-0.4-0.6L375.7,532"
       style="fill:#f2b3be;fill-opacity:1" /><path
       id="NY_Delaware"
       inkscape:label="Delaware, NY"
       fill="#CCCCCC"
       stroke="#FFFFFF"
       stroke-width="0.9665"
       d="M442,516.5   l17.1,11.2l1,0.4l-5,12.5l5.3,2L442.5,557l-20,15.6l-7.1-2l-1.4-4.2l-0.9-1.1l-3.2-2.8l-1.1-0.4l-5.1-15.2l-0.8-9.5l4.7-0.8   l1.5-0.4l6.1-3.6l2.7-2.5l5.6-4.2l11-7.9L442,516.5"
       style="fill:#cc2f4a;fill-opacity:1" /><path
       id="NY_Sullivan"
       inkscape:label="Sullivan, NY"
       fill="#CCCCCC"
       stroke="#FFFFFF"
       stroke-width="0.9665"
       d="M422.5,572.6   l20-15.6l7.9,3.4L463,566l-1.6,3.4l-2.8,5l-1.5,2.8l5.4,3.3l6.1,3.5l2.2,4.1l-2.2,1.6l-1.4,2.3l-2,3.8l-16.3,2.7l-0.5,0.3l-0.1,0.2   l0.4,3.1l0.6,1.8l-2.6,0l-4.7-0.3l-1-0.6l-6-4l-1.6-1.9l-2.3-2.8l-1.2-3.8L422.5,572.6"
       style="fill:#e27f90;fill-opacity:1" /><path
       id="NY_Greene"
       inkscape:label="Greene, NY"
       fill="#CCCCCC"
       stroke="#FFFFFF"
       stroke-width="0.9665"
       d="M496.5,514.4l0.3,0   l0.2,0.2l0.3,1.4l1,11.3l0,2l-0.3,1.1l-2.9,5.4l-2.4,5.3l-0.4,1.1l-5.4-3l-2.7,0.6l-1.2,6.1l-9.2,0.2l-4.5,0.1l-9-3.4l-5.3-2   l5-12.5l-1-0.4l10.5-5.5L496.5,514.4"
       style="fill:#cc2f4a;fill-opacity:1" /><path
       id="NY_New_York"
       inkscape:label="New York, NY"
       fill="#CCCCCC"
       stroke="#FFFFFF"
       stroke-width="0.9665"
       d="M507.1,648l0,0.5   l-1.7,5.2l-1,0.7l-4.7,3.4l-0.2-1.8l1.4-7.4l2.4-7l3.5,2.3L507.1,648"
       style="fill:#0645b4;fill-opacity:1" /><path
       id="NY_Ulster"
       inkscape:label="Ulster, NY"
       fill="#CCCCCC"
       stroke="#FFFFFF"
       stroke-width="0.9665"
       d="M491.8,546.1   l-0.3,13.7l2.1,11l1,2.7l0.7,11.7l-5.8,1.5l-4.3,0.4l-3.6-0.5l-4.1-2l-6.6,3.6l-2.2-4.1l-6.1-3.5l-5.4-3.3l1.5-2.8l2.8-5l1.6-3.4   l-12.6-5.6l-7.9-3.4l17.9-14.4l9,3.4l4.5-0.1l9.2-0.2l1.2-6.1l2.7-0.6l5.4,3L491.8,546.1"
       style="fill:#86b6f2;fill-opacity:1" /><path
       id="NY_Bronx"
       inkscape:label="Bronx, NY"
       fill="#CCCCCC"
       stroke="#FFFFFF"
       stroke-width="0.9665"
       d="M503.9,638.6l8.3,1.9   l0.5,6.2l-5.6,1.3l-0.3-4.2l-3.5-2.3L503.9,638.6"
       style="fill:#0645b4;fill-opacity:1" /><path
       id="NY_Kings"
       inkscape:label="Kings, NY"
       fill="#CCCCCC"
       stroke="#FFFFFF"
       stroke-width="0.9665"
       d="M499.8,657.8l4.7-3.4   l1.5,0.6l1.5,4.7l-1.4,7l-3.8-0.6l-2.2-4.2L499.8,657.8"
       style="fill:#1666cb;fill-opacity:1" /><path
       id="NY_Rockland"
       inkscape:label="Rockland, NY"
       fill="#CCCCCC"
       stroke="#FFFFFF"
       stroke-width="0.9665"
       d="M496.1,606.8   l1.5,4.2l3,5.2l2.8,3.9l0.3,1l0.9,10.9l-20.3-8.6l-1.3-0.6l13.2-16.3L496.1,606.8"
       style="fill:#86b6f2;fill-opacity:1" /><path
       id="NY_Nassau"
       inkscape:label="Nassau, NY"
       fill="#CCCCCC"
       stroke="#FFFFFF"
       stroke-width="0.9665"
       d="M536.4,659.4   l-19.5,4.4l-2.9-17.1l14.9-11.7L536.4,659.4"
       style="fill:#86b6f2;fill-opacity:1" /><path
       id="NY_Orange"
       inkscape:label="Orange, NY"
       fill="#CCCCCC"
       stroke="#FFFFFF"
       stroke-width="0.9665"
       d="M495.2,585.2   l-0.2,12.2l1.1,9.1l-13.2,16.3l-8.4-3.9l-20.9-10l-4.2-5.1l-0.6-1.8l-0.4-3.1l0.1-0.2l0.5-0.3l16.3-2.7l2-3.8l1.4-2.3l2.2-1.6   l6.6-3.6l4.1,2l3.6,0.5l4.3-0.4L495.2,585.2"
       style="fill:#e27f90;fill-opacity:1" /><path
       id="NY_Queens"
       inkscape:label="Queens, NY"
       fill="#CCCCCC"
       stroke="#FFFFFF"
       stroke-width="0.9665"
       d="M507.1,648l5.6-1.3   l1.3,0l2.9,17.1l-10.8,3l1.4-7L506,655l-1.5-0.6l1-0.7l1.7-5.2L507.1,648"
       style="fill:#1666cb;fill-opacity:1" /><path
       id="NY_Suffolk"
       inkscape:label="Suffolk, NY"
       fill="#CCCCCC"
       stroke="#FFFFFF"
       stroke-width="0.9665"
       d="M536.4,659.4   l-7.5-24.4l0.1-1.5l0.4-0.4l4.9-1.3l10.7,2.6l37.3-12.5l10.1-9.4l3.6-1.4l15.5,7.2l-0.9,1.7l-15.5,10.7l-4.1,2.5L557.9,652   l-5.1,2.4l-3.6,1.7l-1.8,0.7l-1.3,0.5L536.4,659.4"
       style="fill:#e27f90;fill-opacity:1" /><path
       id="NY_Westchester"
       inkscape:label="Westchester, NY"
       fill="#CCCCCC"
       stroke="#FFFFFF"
       stroke-width="0.9665"
       d="   M496.1,606.8l25.4-6.8l0.4,5.7l-3.3,12.6l-0.4,0.3l-4.8,3.9l5.3,8.7l-6.4,9.3l-8.3-1.9l0.6-6.5l-0.9-10.9l-0.3-1l-2.8-3.9l-3-5.2   L496.1,606.8"
       style="fill:#4389e3;fill-opacity:1" /><path
       id="NY_Putnam"
       inkscape:label="Putnam, NY"
       fill="#CCCCCC"
       stroke="#FFFFFF"
       stroke-width="0.9665"
       d="M520.8,587.1l0.8,12.9   l-25.4,6.8l0-0.2l-1.1-9.1l2.3-4.3l20.5-5.7L520.8,587.1"
       style="fill:#e27f90;fill-opacity:1" /><path
       id="NY_Dutchess"
       inkscape:label="Dutchess, NY"
       fill="#CCCCCC"
       stroke="#FFFFFF"
       stroke-width="0.9665"
       d="M518,545.2   l2.1,30.8l0.7,11.2l-2.9,0.4l-20.5,5.7l-2.3,4.3l0.2-12.2l-0.7-11.7l-1-2.7l-2.1-11l0.3-13.7l0.8-0.3l0.7,0.1l9.1,3.3l2.8,1.1   l11,0.8l1-5.9L518,545.2"
       style="fill:#f2b3be;fill-opacity:1" /><path
       id="NY_Columbia"
       inkscape:label="Columbia, NY"
       fill="#CCCCCC"
       stroke="#FFFFFF"
       stroke-width="0.9665"
       d="M496.5,514.4   l24.6-6.8l-4.7,34.9l1,2.8l-1,5.9l-11-0.8l-2.8-1.1l-9.1-3.3l-0.7-0.1l-0.8,0.3l0.6-4l0.4-1.1l2.4-5.3l2.9-5.4l0.3-1.1l0-2l-1-11.3   l-0.3-1.4l-0.2-0.2L496.5,514.4"
       style="fill:#b9d7ff;fill-opacity:1" /><path
       id="NY_Rensselaer"
       inkscape:label="Rensselaer, NY"
       fill="#CCCCCC"
       stroke="#FFFFFF"
       stroke-width="0.9665"
       d="M500.3,475.3   l20.8-2.9l2.6,15.7l-2.7,19.4l-24.6,6.8l3-26.2L500.3,475.3"
       style="fill:#f2b3be;fill-opacity:1" /><path
       id="NY_Washington"
       inkscape:label="Washington, NY"
       fill="#CCCCCC"
       stroke="#FFFFFF"
       stroke-width="0.9665"
       d="M506.2,404.5   l1.6,4.2l-1.7,5.8l-0.7,3.2l0.1,4.7l0.2,0.3l1.8,1l9.3,3.1l1.6,16l2.7,29.6l-20.8,2.9l1.1-3.4l0.6-2.8l0.4-5.5l-0.1-1.5l-2.9-15.4   L499,446l-4.2-15l0-1.1l0.1-0.5l0.9-2.8l1.3-2.6l4-7.4l0.9-4.8l0.9-6.4L506.2,404.5"
       style="fill:#e27f90;fill-opacity:1" /></g></svg>