<?xml version="1.0" encoding="utf-8"?>
<!-- Generator: Adobe Illustrator 16.0.0, SVG Export Plug-In . SVG Version: 6.00 Build 0)  -->
<!DOCTYPE svg PUBLIC "-//W3C//DTD SVG 1.1//EN" "http://www.w3.org/Graphics/SVG/1.1/DTD/svg11.dtd">
<svg version="1.1"
	 id="svg8697" xmlns:svg="http://www.w3.org/2000/svg" xmlns:rdf="http://www.w3.org/1999/02/22-rdf-syntax-ns#" xmlns:cc="http://creativecommons.org/ns#" xmlns:sodipodi="http://sodipodi.sourceforge.net/DTD/sodipodi-0.dtd" xmlns:dc="http://purl.org/dc/elements/1.1/" xmlns:inkscape="http://www.inkscape.org/namespaces/inkscape" inkscape:version="0.48.2 r9819" sodipodi:docname="Ohio Republican Presidential Primary Election Results by County, 2012.svg" sodipodi:version="0.32" inkscape:output_extension="org.inkscape.output.svg.inkscape"
	 xmlns="http://www.w3.org/2000/svg" xmlns:xlink="http://www.w3.org/1999/xlink" x="0px" y="0px" width="230.074px"
	 height="260.094px" viewBox="0 0 230.074 260.094" enable-background="new 0 0 230.074 260.094" xml:space="preserve">
<defs>
	
	
		<inkscape:perspective  id="perspective8705" inkscape:persp3d-origin="372.04724 : 350.78739 : 1" sodipodi:type="inkscape:persp3d" inkscape:vp_y="0 : 1000 : 0" inkscape:vp_x="0 : 526.18109 : 1" inkscape:vp_z="744.09448 : 526.18109 : 1">
		</inkscape:perspective>
</defs>
<sodipodi:namedview  bordercolor="#666666" pagecolor="#ffffff" objecttolerance="10" borderopacity="1.0" guidetolerance="10" inkscape:cx="102.54317" showgrid="false" inkscape:cy="122.22317" inkscape:zoom="1.2588673" gridtolerance="10000" id="base" inkscape:window-width="1024" inkscape:window-y="-4" inkscape:current-layer="layer1" inkscape:pageopacity="0.0" inkscape:window-height="721" inkscape:window-maximized="0" inkscape:pageshadow="2" inkscape:window-x="-4" inkscape:document-units="px">
	</sodipodi:namedview>
<g>
	<path id="OH_Lawrence_1_" fill="#D40000" stroke="#FFFFFF" stroke-width="0.928" d="M124.562,220.742l3.684,0.138l-0.167,4.204
		l5.827,2.168l5.738,4.913l-0.061,4.858l3.711-0.015l-0.288,2.769l-0.031,0.131l-0.659,4.512l-0.132,0.453l-0.127,0.414
		l-0.173,0.358l-0.301,0.309l-0.512,0.27l-8.153,2.323l-4.349-0.558l-3.822-5.207l-7.638-3.853l3.212-1.63l3.891-10.054l0.142-0.942
		l0.2-5.563"/>
	<path id="OH_Scioto_1_" fill="#CC2F4A" stroke="#FFFFFF" stroke-width="0.928" d="M93.503,211.279l2.882,3.349l0.167,0.118
		L107,214.599l9.521,0.142l2.667,0.057l-0.087,3.206l0.894,2.614l4.565,0.13l-0.207,5.563l-0.145,0.944l-3.89,10.054l-3.212,1.633
		l-0.209-0.136l-0.994-0.802l-0.04-0.086l-0.363-0.496l-0.258-0.733l-0.09-0.262l-0.979-4.274l-0.279-2.037l0.124-0.75l-0.016-0.043
		l0.006-0.059l-0.004-0.457l-0.05-0.379l-0.013-0.091l-0.018-0.098l-0.073-0.163l-0.103-0.204l-0.058-0.121l-0.207-0.263
		l-0.48-0.269l-0.25-0.024l-0.069,0.003l-1.391,0.455l-4.293,1.46l-0.924,0.308l-0.003,0.031l-12.136,8.303L93.503,211.279"/>
	<path id="OH_Adams_1_" fill="#D40000" stroke="#FFFFFF" stroke-width="0.928" d="M93.503,211.279l0.432,26.478l-2.618-2.377
		l-0.11-0.052l-1.59-0.934l-0.12-0.08l-5.175-1.779l-1.949-0.67l-0.064-0.008l-0.418-0.09l-0.618,0.072l-4.026,1.307l-0.547,0.306
		l-0.444,0.584l-0.479,2.213l-2.876,0.057l0.766-24.629l14.087-2.696L93.503,211.279"/>
	<path id="OH_Pike_1_" fill="#CC2F4A" stroke="#FFFFFF" stroke-width="0.928" d="M89.008,199.78l27.947,0.775l-0.436,14.183
		l-9.525-0.14L96.55,214.74l-0.167-0.118l-2.881-3.349l-5.747-2.299L89.008,199.78"/>
	<path id="OH_Jackson_1_" fill="#D40000" stroke="#FFFFFF" stroke-width="0.928" d="M117.987,198.01l5.552,0.126l5.636,1.129
		l5.64,2.493l-0.226,6.607l-6.344,12.515l-3.684-0.138l-4.565-0.135l-0.893-2.614l0.091-3.204l-2.673-0.058l0.438-14.182
		L117.987,198.01"/>
	<path id="OH_Gallia_1_" fill="#D40000" stroke="#FFFFFF" stroke-width="0.928" d="M140.158,208.594l-0.026,0.938l11.301,0.118
		l-0.039,2.889l-1.692,5.95l-1.637,10.164l0.015,0.023l0.774,5.281l0.022,0.443l-0.008,0.086l-0.052,0.219l-0.055,0.372
		l-0.098,0.311l-0.233,0.306l-0.138,0.122L148,236.01l-0.127,0.103l-0.296,0.028l-0.953,0.112l-3.321,0.752l-3.727,0.019
		l0.065-4.862l-5.738-4.912l-5.827-2.171l0.163-4.198l6.347-12.515L140.158,208.594"/>
	<path id="OH_Meigs_1_" fill="#D40000" stroke="#FFFFFF" stroke-width="0.928" d="M142.275,197.193l25.573,0.273l0.388,5.387
		l-3.141,1.01l-0.054,0.558l0.154,0.887l0.466,0.744l0.519,0.455l1.033,0.848l0.48,0.674l0.68,5.205l-0.167,0.524l-5.507,3.142
		l-1.656,0.266l0.322-3.317l-0.135-0.509l-1.042-1.931l-0.847-1.276l-3.412-2.308l-0.021-0.004l-0.755-0.112l-0.882,0.362
		l-2.642,3.603l-0.24,0.866l0.038-2.888l-11.301-0.12l0.027-0.938L142.275,197.193"/>
	<path id="OH_Vinton_1_" fill="#D40000" stroke="#FFFFFF" stroke-width="0.928" d="M118.246,187.717l5.558,0.175l5.761-0.751
		l0.076-1.695l11.063,0.252l-0.18,5.741l1.886,0.022l-0.127,5.729l-2.117,11.403l-5.569-0.229l0.226-6.609l-5.64-2.49l-5.637-1.127
		l-5.551-0.131L118.246,187.717"/>
	<path id="OH_Washington_1_" fill="#CC2F4A" stroke="#FFFFFF" stroke-width="0.928" d="M189.147,168.936l1.854,1.613l10.292-0.163
		l0.028,2.037l-4.933,6.237l-10.577,7.388l-1.89-2.833l-0.313-0.416l-1.185-0.804l-0.556-0.104l-0.454,0.095l-0.553,0.392
		l-3.454,3.454l-7.139,7.439l-1.367,2.385l0.01-4.009l-4.748,0.072l-1.87-2.834l-0.045-8.469l12.067-9.436L189.147,168.936"/>
	<path id="OH_Hocking_1_" fill="#CC2F4A" stroke="#FFFFFF" stroke-width="0.928" d="M135.702,168.55l10.83,5.811l-0.115,5.795
		l-5.55-0.142l-0.169,5.685l-11.063-0.249l-0.076,1.696l-5.77,0.745l-5.545-0.168l0.107-6.423l0.199-5.545l0.923-0.891l4.512-2.824
		l6.058-3.68L135.702,168.55"/>
	<path id="OH_Ross_1_" fill="#CC2F4A" stroke="#FFFFFF" stroke-width="0.928" d="M92.479,179.229l12.654,0.137l1.016,0.971
		l0.553,0.718l11.655,0.241l-0.108,6.422l-0.257,10.292l-1.031,2.547l-27.947-0.775l-1.387-11.466L92.479,179.229"/>
	<path id="OH_Highland_1_" fill="#D40000" stroke="#FFFFFF" stroke-width="0.928" d="M76.929,188.594l10.692-0.279l1.387,11.466
		l-1.251,9.199l-14.087,2.693l-9.806,0.259l-0.142-14.49L76.929,188.594"/>
	<path id="OH_Brown_1_" fill="#D40000" stroke="#FFFFFF" stroke-width="0.928" d="M57.447,197.192l6.274,0.251l0.141,14.49
		l9.807-0.259l-0.766,24.632l-3.668-2.283l-3.901-4.892l-0.284-0.28l-0.575-0.275l-1.675-0.384l-7.363,0.068L57.447,197.192"/>
	<path id="OH_Clermont_1_" fill="#CC2F4A" stroke="#FFFFFF" stroke-width="0.928" d="M56.773,197.128l0.673,0.064l-2.012,31.066
		l-8.884-3.473l-0.191-2.939l-4.538-9.331l0.746-9.798l-0.577-2.194l2.344-4.02L56.773,197.128"/>
	<path id="OH_Clinton_1_" fill="#D40000" stroke="#FFFFFF" stroke-width="0.928" d="M72.686,177.733l4.243,10.86l-13.208,8.849
		l-6.274-0.251l-0.673-0.064l0.856-20.141L72.686,177.733"/>
	<path id="OH_Warren_1_" fill="#CC2F4A" stroke="#FFFFFF" stroke-width="0.928" d="M50.922,176.602l6.71,0.387l-0.856,20.139
		l-12.434-0.623l-4.635-1.254l-1.094-19.065L50.922,176.602"/>
	<path id="OH_Butler_1_" fill="#CC2F4A" stroke="#FFFFFF" stroke-width="0.928" d="M33.059,176.302l5.555-0.113l1.094,19.062
		l-1.876-0.286l-9.288-0.485l-3.646,0.304l-8.114,0.15l-0.08-13.901l-0.059-2.908L33.059,176.302"/>
	<path id="OH_Preble_1_" fill="#D40000" stroke="#FFFFFF" stroke-width="0.928" d="M32.192,155.277l0.866,21.024l-16.414,1.821
		l-0.177-10.198l-0.186-12.208L32.192,155.277"/>
	<path id="OH_Greene_1_" fill="#E27F90" stroke="#FFFFFF" stroke-width="0.928" d="M73.306,163.418l-0.167,3.623l-0.455,10.694
		l-15.056-0.743l-6.713-0.391l2.424-17.531l3.452,0.17l2.082,0.268l5.56,1.013l-0.067,1.602L73.306,163.418"/>
	<path id="OH_Fayette_1_" fill="#D40000" stroke="#FFFFFF" stroke-width="0.928" d="M73.139,167.041l19.6,0.689l-0.257,11.499
		l-4.858,9.089l-10.692,0.279l-4.245-10.858L73.139,167.041"/>
	<path id="OH_Pickaway_1_" fill="#CC2F4A" stroke="#FFFFFF" stroke-width="0.928" d="M92.901,160.151l20.457,0.392l-0.19,6.354
		l-0.089,8.644l5.472,0.215l-0.196,5.544l-11.656-0.244l-0.553-0.716l-1.017-0.973l-12.652-0.137l0.256-11.494L92.901,160.151"/>
	<path id="OH_Fairfield_1_" fill="#CC2F4A" stroke="#FFFFFF" stroke-width="0.928" d="M115.016,151.179l15.557-0.067l-0.182,5.98
		l2.53,0.087l2.939,5.737l-0.156,5.634l-5.657-0.191l-6.058,3.682l-4.512,2.821l-0.925,0.888l-5.471-0.212l0.099-8.638l0.18-6.361
		L115.016,151.179"/>
	<path id="OH_Perry_1_" fill="#CC2F4A" stroke="#FFFFFF" stroke-width="0.928" d="M130.57,151.111l11.178,0.563l8.127,8.759
		l2.141,14.035l-5.483-0.108l-10.83-5.811l0.156-5.635l-2.941-5.735l-2.53-0.089L130.57,151.111"/>
	<path id="OH_Monroe_1_" fill="#D40000" stroke="#FFFFFF" stroke-width="0.928" d="M190.379,152.046l5.378-0.123l11.384,0.096
		l3.555-0.059l0.452-0.268l-0.298,8.565l-5.162,7.629l-4.37,4.54l-0.027-2.035l-10.288,0.163l-1.858-1.613l-0.296-6.483l-1.842,0.09
		l-0.344-10.395L190.379,152.046"/>
	<path id="OH_Noble_1_" fill="#D40000" stroke="#FFFFFF" stroke-width="0.928" d="M190.233,146.691l0.144,5.354l-3.715,0.108
		l0.344,10.395l1.842-0.09l0.296,6.478l-14.827,2.044l-5.933-10.508l-0.13-5.57l5.549-0.09l-0.073-2.033l1.715-1.74l7.398-3.888
		l1.842-0.283L190.233,146.691"/>
	<path id="OH_Morgan_1_" fill="#CC2F4A" stroke="#FFFFFF" stroke-width="0.928" d="M149.877,160.433l18.507,0.039l5.933,10.508
		l-12.067,9.437l-10.233-5.946L149.877,160.433"/>
	<path id="OH_Muskingum_1_" fill="#CC2F4A" stroke="#FFFFFF" stroke-width="0.928" d="M143.231,135.347l22.874-0.216l0.157,14.143
		l1.821-0.036l0.17,5.666l0.13,5.568l-18.507-0.033l-8.128-8.765L143.231,135.347"/>
	<path id="OH_Belmont_1_" fill="#CC2F4A" stroke="#FFFFFF" stroke-width="0.928" d="M206.442,132.346l8.724-0.41l-0.906,8.04
		l-3.11,11.716l-0.452,0.268l-3.553,0.06l-11.386-0.097l-5.378,0.124l-0.144-5.354l-0.448-14.017L206.442,132.346"/>
	<path id="OH_Harrison_1_" fill="#D40000" stroke="#FFFFFF" stroke-width="0.928" d="M202.532,115.576l3.693-0.107l0.093,2.774
		l-0.194,0.381l0.318,13.723l-16.653,0.327l-5.609-2.509l-0.157-5.782l1.807-0.075l1.05-0.595l-0.219-7.78L202.532,115.576"/>
	<path id="OH_Guernsey_1_" fill="#CC2F4A" stroke="#FFFFFF" stroke-width="0.928" d="M170.398,130.475l13.779-0.304l5.609,2.505
		l0.446,14.016l-5.549,0.178l-1.843,0.285l-7.399,3.886l-1.714,1.742l0.074,2.029l-5.549,0.092l-0.17-5.666l-1.821,0.036
		l-0.157-14.143l1.754-0.034l0.423-0.228l-0.039-3.888L170.398,130.475"/>
	<path id="OH_Coshocton_1_" fill="#CC2F4A" stroke="#FFFFFF" stroke-width="0.928" d="M142.449,116.822l22.988-0.421l0.102,4.742
		l4.646-0.081l0.212,9.418l-2.158,0.507l0.039,3.882l-0.421,0.23l-1.754,0.032l-22.873,0.222l-0.667-4.602L142.449,116.822"/>
	<path id="OH_Licking_1_" fill="#CC2F4A" stroke="#FFFFFF" stroke-width="0.928" d="M115.524,129.524l13.415,0.211l-0.002,1.207
		l5.486,0.069l8.145-0.262l0.666,4.598l-1.483,16.326l-11.178-0.56l-15.557,0.065l0.462-11.962L115.524,129.524"/>
	<path id="OH_Delaware_1_" fill="#E27F90" stroke="#FFFFFF" stroke-width="0.928" d="M91.11,119.793l11.023,0.213l13.566,4.872
		l-0.175,4.646l-0.048,9.691l-19.825-0.317l-0.368-6.441l-3.633,0.091l-0.435-8.34L91.11,119.793"/>
	<path id="OH_Madison_1_" fill="#CC2F4A" stroke="#FFFFFF" stroke-width="0.928" d="M79.541,141.533l14.447-0.3l-1.087,18.918
		l-0.163,7.579l-19.6-0.689l0.167-3.623l5.923-15.459L79.541,141.533"/>
	<path id="OH_Clark_1_" fill="#E27F90" stroke="#FFFFFF" stroke-width="0.928" d="M53.82,146.894l25.41,1.066l-5.923,15.458
		l-8.938-1.293l0.067-1.598l-5.559-1.012l-2.082-0.271l-3.451-0.168l0.063-1.872L53.82,146.894"/>
	<path id="OH_Champaign_1_" fill="#D40000" stroke="#FFFFFF" stroke-width="0.928" d="M76.97,134.05l2.571,7.485l-0.313,6.426
		l-25.409-1.067l0.616-14.961l11.199,0.501l2.788,1.104L76.97,134.05"/>
	<path id="OH_Miami_1_" fill="#D40000" stroke="#FFFFFF" stroke-width="0.928" d="M34.31,137.347l19.888,0.323l-0.378,9.224
		l-0.416,10.305l-5.202-0.232l-0.307-0.637l-0.194-1.029l0.481-0.735l-13.083,0.559L34.31,137.347"/>
	<path id="OH_Shelby_1_" fill="#D40000" stroke="#FFFFFF" stroke-width="0.928" d="M33.982,127.264l0.684-1.54l3.705-6.695
		l1.081-0.03l15.17-0.531l-0.191,13.46l-0.235,5.739l-19.888-0.323l-0.359-10.058L33.982,127.264"/>
	<path id="OH_Darke_1_" fill="#D40000" stroke="#FFFFFF" stroke-width="0.928" d="M33.953,127.291l0.358,10.059l0.794,17.775
		l-2.91,0.152l-15.912,0.441l-0.035-5.655l-0.075-19.544l-0.073-2.727L33.953,127.291"/>
	<path id="OH_Mercer_1_" fill="#AA0000" stroke="#FFFFFF" stroke-width="0.928" d="M32.399,106.145l1.583,21.121l-0.032,0.026
		l-17.855,0.505l-0.224-14.072l-0.21-9.974L32.399,106.145"/>
	<path id="OH_Auglaize_1_" fill="#D40000" stroke="#FFFFFF" stroke-width="0.928" d="M35.235,106.073l8.378-0.294l0.054,1.864
		l9.221,0.556l7.317-0.249l0.205,6.789l-5.787,3.728l-15.169,0.53l-1.074,0.031l-3.712,6.694l-0.68,1.538l-1.587-21.122
		L35.235,106.073"/>
	<path id="OH_Logan_1_" fill="#D40000" stroke="#FFFFFF" stroke-width="0.928" d="M60.41,114.746l1.995,0.519l15.39,0.797
		l0.073,0.345l-0.896,17.64l-8.545-0.51l-2.788-1.102l-11.198-0.509l0.188-13.459L60.41,114.746"/>
	<path id="OH_Union_1_" fill="#CC2F4A" stroke="#FFFFFF" stroke-width="0.928" d="M77.867,116.406l4.897-0.26l8.347,3.647
		l0.106,4.415l0.434,8.34l3.634-0.091l0.368,6.441l-1.666,2.333l-14.448,0.304l-2.57-7.488L77.867,116.406"/>
	<path id="OH_Marion_1_" fill="#CC2F4A" stroke="#FFFFFF" stroke-width="0.928" d="M109.243,102.357l0.094,3.733l-4.714,0.275
		l-2.425,10.391l-0.065,3.25l-11.023-0.213l-8.348-3.647l-0.486-11.612l14.794-1.581L109.243,102.357"/>
	<path id="OH_Morrow_1_" fill="#D40000" stroke="#FFFFFF" stroke-width="0.928" d="M109.243,102.357l6.288-0.668l5.455,10.105
		l-0.419,3.221l-0.12,9.944l-4.747-0.083l-13.566-4.872l0.065-3.25l2.425-10.391l4.715-0.281L109.243,102.357"/>
	<path id="OH_Knox_1_" fill="#CC2F4A" stroke="#FFFFFF" stroke-width="0.928" d="M140.368,109.751l2.081,7.071l0.114,13.93
		l-8.144,0.259l-5.485-0.064l0.002-1.212l-13.417-0.205l0.174-4.646l4.749,0.083l0.119-9.945l0.419-3.218l13.798-0.939
		L140.368,109.751"/>
	<path id="OH_Holmes_1_" fill="#D40000" stroke="#FFFFFF" stroke-width="0.928" d="M167.509,101.951l0.111,2.14l-0.588,0.475
		l0.297,11.795l-1.891,0.037l-22.987,0.418l-2.081-7.071l4.209-6.625L167.509,101.951"/>
	<path id="OH_Tuscarawas_1_" fill="#CC2F4A" stroke="#FFFFFF" stroke-width="0.928" d="M183.533,102.134l0.126,5.421l2.761-0.044
		l0.454,16.204l-1.051,0.592l-1.809,0.078l0.161,5.784l-13.779,0.304l-0.212-9.413l-4.646,0.078l-0.102-4.741l1.892-0.037
		l-0.298-11.795l0.592-0.474L183.533,102.134"/>
	<path id="OH_Carroll_1_" fill="#D40000" stroke="#FFFFFF" stroke-width="0.928" d="M194.326,96.609l11.33,7.544l-3.126,11.421
		l-15.875,0.359l-0.235-8.424l-2.761,0.04l-0.126-5.422l3.694-0.146l-0.075-4.07l1.807-1.069L194.326,96.609"/>
	<path id="OH_Jefferson_1_" fill="#CC2F4A" stroke="#FFFFFF" stroke-width="0.928" d="M205.658,104.154l9.422,0.49l3.224,11.884
		l-2.432,13.475l-0.706,1.936l-8.724,0.409l-0.318-13.72l0.193-0.377l-0.092-2.778l-3.696,0.107L205.658,104.154"/>
	<path id="OH_Columbiana_1_" fill="#CC2F4A" stroke="#FFFFFF" stroke-width="0.928" d="M220.837,83.906l0.275,3.1l0.896,13.578
		l-6.929,4.06l-9.422-0.49l-11.33-7.544l-0.662-11.208L220.837,83.906"/>
	<path id="OH_Stark_1_" fill="#E27F90" stroke="#FFFFFF" stroke-width="0.928" d="M178.643,80.798l14.698-0.827l0.987,16.638
		l-5.37,0.237l-1.806,1.072l0.072,4.068l-3.693,0.148l-15.909,1.957l-0.89-17.893L178.643,80.798"/>
	<path id="OH_Wayne_1_" fill="#CC2F4A" stroke="#FFFFFF" stroke-width="0.928" d="M164.531,81.547l2.199,4.656l0.774,15.75
		l-22.934,1.171l-1.199-20.73L164.531,81.547"/>
	<path id="OH_Ashland_1_" fill="#D40000" stroke="#FFFFFF" stroke-width="0.928" d="M141.139,77.93l2.239,4.464l1.2,20.73
		l-4.21,6.626l-5.583,1.111l-0.632-11.005l-2.626-5.105l-1.514-4.5L129.579,83l-0.72,0.019l4.399-4.867L141.139,77.93"/>
	<path id="OH_Richland_1_" fill="#CC2F4A" stroke="#FFFFFF" stroke-width="0.928" d="M114.856,83.473l13.997-0.454l0.72-0.019
		l0.434,7.253l1.515,4.499l2.626,5.104l0.642,11.005l-13.806,0.936l-5.457-10.106L114.856,83.473"/>
	<path id="OH_Crawford_1_" fill="#D40000" stroke="#FFFFFF" stroke-width="0.928" d="M114.856,83.473l0.673,18.217l-6.288,0.668
		l-12.173,0.598L96.277,84.37l13.555-0.767L114.856,83.473"/>
	<path id="OH_Wyandot_1_" fill="#D40000" stroke="#FFFFFF" stroke-width="0.928" d="M81.546,84.992l14.732-0.623l0.792,18.586
		l-14.794,1.583l-0.99-0.011l-2.706-0.793l-0.286-7.471l-0.946,0.03L81.546,84.992"/>
	<path id="OH_Hardin_1_" fill="#D40000" stroke="#FFFFFF" stroke-width="0.928" d="M59.854,96.739l17.492-0.446l0.947-0.03
		l0.285,7.471l2.702,0.793l0.993,0.011l0.486,11.61l-4.896,0.26l-0.075-0.346l-15.389-0.796l-1.994-0.521L59.854,96.739"/>
	<path id="OH_Allen_1_" fill="#CC2F4A" stroke="#FFFFFF" stroke-width="0.928" d="M59.623,90.302l0.234,6.437l0.352,11.212
		l-7.318,0.248l-9.22-0.556l-0.054-1.864l-8.378,0.294l2.411-11.226l5.594-0.22l5.463-1.117l-0.07-1.885l5.505-1.119l5.492-0.205"/>
	<path id="OH_Hancock_1_" fill="#CC2F4A" stroke="#FFFFFF" stroke-width="0.928" d="M59.109,74.461l21.996-0.631l0.441,11.163
		l-4.201,11.299l-17.492,0.446l-0.234-6.434L59.109,74.461"/>
	<path id="OH_Putnam_1_" fill="#AA0000" stroke="#FFFFFF" stroke-width="0.928" d="M59.109,74.461l0.513,15.843l-5.481,0.207
		l-5.504,1.118l0.07,1.885l-5.476,1.116l-5.583,0.221l-3.031-8.334l2.496-11.282l5.403-0.175L59.109,74.461"/>
	<path id="OH_Van_Wert_1_" fill="#D40000" stroke="#FFFFFF" stroke-width="0.928" d="M15.257,87.027l19.359-0.515l3.029,8.336
		l-2.41,11.224l-2.837,0.072l-16.737-2.395l-0.298-12.443L15.257,87.027"/>
	<path id="OH_Medina_1_" fill="#CC2F4A" stroke="#FFFFFF" stroke-width="0.928" d="M163.678,63.091l0.854,18.456l-21.155,0.848
		l-2.239-4.464l-0.147-4.697l9.005-8.347l4.479-1.168L163.678,63.091"/>
	<path id="OH_Huron_1_" fill="#CC2F4A" stroke="#FFFFFF" stroke-width="0.928" d="M108.465,64.873l23.827-0.642l0.961,13.92
		l-4.399,4.867l-13.997,0.454l-5.021,0.129L108.465,64.873"/>
	<path id="OH_Seneca_1_" fill="#CC2F4A" stroke="#FFFFFF" stroke-width="0.928" d="M108.629,67.103l1.208,16.5L96.282,84.37
		l-14.733,0.622L81.107,73.83l-0.159-5.59L108.629,67.103"/>
	<path id="OH_Henry_1_" fill="#CC2F4A" stroke="#FFFFFF" stroke-width="0.928" d="M58.372,54.003l0.129,4.687l0.609,15.773
		l-16.596,0.593L42.023,58.29l-5.404,0.142l-0.107-3.69L58.372,54.003"/>
	<path id="OH_Paulding_1_" fill="#D40000" stroke="#FFFFFF" stroke-width="0.928" d="M37.11,75.229l-2.495,11.283l-19.358,0.515
		l-0.385-16.875l16.534-0.432l5.617,2.712L37.11,75.229"/>
	<path id="OH_Defiance_1_" fill="#CC2F4A" stroke="#FFFFFF" stroke-width="0.928" d="M36.618,58.436l5.404-0.142l0.491,16.767
		l-5.403,0.176l-0.089-2.796l-5.618-2.716L14.87,70.152l-0.023-1.182l-0.254-9.923L36.618,58.436"/>
	<path id="OH_Geauga_1_" fill="#CC2F4A" stroke="#FFFFFF" stroke-width="0.928" d="M176.619,43.619l4.521-0.269l-0.229-4.539
		l8.209-0.473l0.663-4.339l4.648-0.729l0.858,13.64l0.708,9.822l-18.573,1.032L176.619,43.619"/>
	<path id="OH_Lake_1_" fill="#E27F90" stroke="#FFFFFF" stroke-width="0.928" d="M193.911,24.343l0.522,8.927l-4.649,0.733
		l-0.664,4.336l-8.208,0.474l0.229,4.539l-4.521,0.269l-4.865-3.656l2.043-2.82l2.422-2.308l1.598-1.412l3.017-2.253l10.827-5.713
		L193.911,24.343"/>
	<path id="OH_Fulton_1_" fill="#CC2F4A" stroke="#FFFFFF" stroke-width="0.928" d="M35.257,40.604l22.756-1.48l0.359,14.878
		l-21.861,0.744l-3.083-14.026L35.257,40.604"/>
	<path id="OH_Williams_1_" fill="#CC2F4A" stroke="#FFFFFF" stroke-width="0.928" d="M14.144,41.768l19.284-1.049l3.083,14.026
		l0.107,3.69l-22.021,0.612l-0.159-6.665L14.144,41.768"/>
	<path id="OH_Trumbull_1_" fill="#E27F90" stroke="#FFFFFF" stroke-width="0.928" d="M218.295,45.562l0.051,0.701l1.539,22.727
		l-22.978,1.418l-0.908-13.672l-0.709-9.822L218.295,45.562"/>
	<path id="OH_Ashtabula_1_" fill="#E27F90" stroke="#FFFFFF" stroke-width="0.928" d="M216.805,23.234l1.491,22.328l-23.004,1.351
		l-0.858-13.643l-0.522-8.927l22.356-9.27L216.805,23.234"/>
	<path id="OH_Athens_1_" fill="#86B6F2" stroke="#FFFFFF" stroke-width="0.928" d="M146.531,174.366l5.484,0.105l10.233,5.946
		l0.045,8.469l1.87,2.834l4.748-0.072l-0.01,3.997l-1.052,1.825l-25.573-0.278l0.13-5.728l-1.886-0.021l0.35-11.426l5.548,0.138
		L146.531,174.366"/>
	<path id="OH_Hamilton_1_" fill="#86B6F2" stroke="#FFFFFF" stroke-width="0.928" d="M39.708,195.25l4.635,1.255l-2.345,4.021
		l0.578,2.194l-0.747,9.797l-9.309-4.478l-5.753,1.485l-9.744-1.798l-0.238-12.793l8.114-0.15l3.646-0.304l9.288,0.486
		L39.708,195.25"/>
	<path id="OH_Montgomery_1_" fill="#F2B3BE" stroke="#FFFFFF" stroke-width="0.928" d="M35.103,155.125l13.083-0.56l-0.481,0.735
		l0.194,1.028l0.307,0.639l5.201,0.231l-0.063,1.873l-2.421,17.531l-12.308-0.416L33.06,176.3l-0.866-21.026L35.103,155.125"/>
	<path id="OH_Franklin_1_" fill="#4389E3" stroke="#FFFFFF" stroke-width="0.928" d="M115.478,139.214l-0.462,11.965l-1.656,9.357
		l-20.458-0.387l1.087-18.919l1.666-2.334L115.478,139.214"/>
	<path id="OH_Mahoning_1_" fill="#B9D7FF" stroke="#FFFFFF" stroke-width="0.928" d="M219.922,69.506l0.915,14.4l-27.173,1.495
		l-0.329-5.431l3.572-9.563l22.979-1.418L219.922,69.506"/>
	<path id="OH_Portage_1_" fill="#E27F90" stroke="#FFFFFF" stroke-width="0.928" d="M177.427,57.767l18.572-1.033l0.908,13.672
		l-3.57,9.563l-14.698,0.828l-1.232-23.032L177.427,57.767"/>
	<path id="OH_Summit_1_" fill="#86B6F2" stroke="#FFFFFF" stroke-width="0.928" d="M177.406,57.765l1.232,23.032l-11.91,5.404
		l-2.197-4.656l-0.854-18.456l5.71-0.344l-1.193-2.733l-0.638-1.858L177.406,57.765"/>
	<path id="OH_Sandusky_1_" fill="#E27F90" stroke="#FFFFFF" stroke-width="0.928" d="M80.64,52.461l3.585-0.184l0.154,2.8
		l12.881-0.458l5.432-0.278l0.098,1.819l5.019-0.244l0.822,11.188l-27.683,1.135L80.64,52.461"/>
	<path id="OH_Wood_1_" fill="#E27F90" stroke="#FFFFFF" stroke-width="0.928" d="M80.324,44.883l0.315,7.578l0.305,15.779l0.16,5.59
		l-21.995,0.632L58.5,58.691l1.393-0.046l4.981-3.464l1.523-2.262l6.568-7.67L80.324,44.883"/>
	<path id="OH_Cuyahoga_1_" fill="#4389E3" stroke="#FFFFFF" stroke-width="0.928" d="M171.754,39.963l4.865,3.656l0.806,14.145
		l-0.02-0.001l-9.85,0.394l0.639,1.858l1.192,2.733l-5.711,0.344l-9.202,0.627l-0.199-4.851l-4.498,0.194l-0.382-9.928l0.301,0.321
		l0.212,0.158l0.986,0.405l2.908,0.37l6.29-0.58l0.284-0.099l1.274-0.9l3.555-2.676l1.524-1.362l4.497-4.284L171.754,39.963"/>
	<path id="OH_Lorain_1_" fill="#F2B3BE" stroke="#FFFFFF" stroke-width="0.928" d="M149.396,49.134l0.382,9.928l4.498-0.194
		l0.2,4.851l-4.479,1.168l-9.006,8.347l0.146,4.697l-7.886,0.224l-0.961-13.919l-0.697-9.24L149.396,49.134"/>
	<path id="OH_Erie_1_" fill="#E27F90" stroke="#FFFFFF" stroke-width="0.928" d="M114.921,51.545l3.882,4.018l2.88,1.701
		l2.158,0.904l0.703,0.156l0.857-0.021l0.951-0.37l1.373-0.74l3.871-2.2l0.697,9.239l-23.827,0.642l-0.657-8.956l-5.019,0.241
		l-0.098-1.822L114.921,51.545"/>
	<path id="OH_Ottawa_1_" fill="#E27F90" stroke="#FFFFFF" stroke-width="0.928" d="M91.97,44.093l4.977,1.692l10.122,1.583
		l1.638-0.486l4.936,3.672l1.271,0.996l-12.229,2.791l-5.432,0.277l-12.88,0.458l-0.154-2.8l-3.584,0.184l-0.316-7.577L91.97,44.093
		"/>
	<path id="OH_Lucas_1_" fill="#86B6F2" stroke="#FFFFFF" stroke-width="0.928" d="M63.579,38.711l14.654-1.038l13.74,6.424
		l-11.646,0.787l-7.356,0.361l-6.567,7.675l-1.524,2.26L59.9,58.641l-1.395,0.05l-0.129-4.687l-0.358-14.879L63.579,38.711"/>
</g>
</svg>
