<?xml version="1.0" encoding="utf-8"?>
<!-- Generator: Adobe Illustrator 16.0.0, SVG Export Plug-In . SVG Version: 6.00 Build 0)  -->
<!DOCTYPE svg PUBLIC "-//W3C//DTD SVG 1.1//EN" "http://www.w3.org/Graphics/SVG/1.1/DTD/svg11.dtd">
<svg version="1.1"
	 id="svg7098" xmlns:svg="http://www.w3.org/2000/svg" xmlns:rdf="http://www.w3.org/1999/02/22-rdf-syntax-ns#" xmlns:cc="http://creativecommons.org/ns#" xmlns:sodipodi="http://sodipodi.sourceforge.net/DTD/sodipodi-0.dtd" xmlns:dc="http://purl.org/dc/elements/1.1/" xmlns:inkscape="http://www.inkscape.org/namespaces/inkscape" inkscape:version="0.91 r13725" sodipodi:docname="Oklahoma_Presidential_Election_Results_2016.svg" sodipodi:version="0.32" inkscape:output_extension="org.inkscape.output.svg.inkscape"
	 xmlns="http://www.w3.org/2000/svg" xmlns:xlink="http://www.w3.org/1999/xlink" x="0px" y="0px" width="320.129px"
	 height="167.717px" viewBox="0 0 320.129 167.717" enable-background="new 0 0 320.129 167.717" xml:space="preserve">
<defs>
	
	
		<inkscape:perspective  id="perspective7106" inkscape:persp3d-origin="372.04724 : 350.78739 : 1" sodipodi:type="inkscape:persp3d" inkscape:vp_y="0 : 1000 : 0" inkscape:vp_x="0 : 526.18109 : 1" inkscape:vp_z="744.09448 : 526.18109 : 1">
		</inkscape:perspective>
</defs>
<sodipodi:namedview  bordercolor="#666666" pagecolor="#ffffff" objecttolerance="10" borderopacity="1.0" guidetolerance="10" inkscape:cx="160.0648" showgrid="false" inkscape:cy="83.858582" inkscape:zoom="1.449413" gridtolerance="10000" id="base" inkscape:window-width="1024" inkscape:window-y="-4" inkscape:current-layer="layer1" inkscape:pageopacity="0.0" inkscape:window-height="721" inkscape:window-maximized="0" inkscape:pageshadow="2" inkscape:window-x="-4" inkscape:document-units="px">
	</sodipodi:namedview>
<g>
	<path id="OK_Texas_1_" fill="#AA0000" stroke="#FFFFFF" stroke-width="1.1544" d="M58.369,9.119l17.151,0.852l4.259,0.214
		l-0.359,6.659l-0.291,0.014l-0.82,15.537l-4.635-0.226l-19.023-1.089l-14.416-0.914L41.78,8.203L58.369,9.119"/>
	<path id="OK_Cimarron_1_" fill="#AA0000" stroke="#FFFFFF" stroke-width="1.1544" d="M7.638,5.553l4.448,0.342l18.218,1.506
		l10.983,0.772l0.493,0.036l-1.546,21.964l-4.603-0.292L6,27.817L7.638,5.553"/>
	<path id="OK_Ottawa_1_" fill="#D40000" stroke="#FFFFFF" stroke-width="1.1544" d="M302.084,14.355l0.139,10.33l0.078,4.418
		l-13.477,0.046l-0.433-14.689L302.084,14.355"/>
	<path id="OK_Craig_1_" fill="#D40000" stroke="#FFFFFF" stroke-width="1.1544" d="M286.08,14.475l2.313-0.015l0.434,14.689
		l-0.139,7.183l-11.399,0.08l-3.688-3.873l0.727-17.957L286.08,14.475"/>
	<path id="OK_Mayes_1_" fill="#D40000" stroke="#FFFFFF" stroke-width="1.1544" d="M288.688,36.332l-0.036,15.539l-3.806,0.046
		l0.045,3.887l-3.192,0.014l-8.273,0.034l-0.03-7.768l0.097-11.647l3.793-0.027L288.688,36.332"/>
	<path id="OK_Delaware_1_" fill="#D40000" stroke="#FFFFFF" stroke-width="1.1544" d="M302.303,29.103l0.104,7.518l2.188,15.044
		l-8.33,0.124l-7.612,0.082l0.036-15.539l0.139-7.183L302.303,29.103"/>
	<path id="OK_Adair_1_" fill="#D40000" stroke="#FFFFFF" stroke-width="1.1544" d="M296.264,51.791l8.33-0.124l0.42,2.656
		l3.162,20.644l-11.973,0.174l-0.162-11.714l0.303-4.785L296.264,51.791"/>
	<path id="OK_Cherokee_1_" fill="#CC2F4A" stroke="#FFFFFF" stroke-width="1.1544" d="M288.652,51.873l7.612-0.082l0.08,6.849
		l-0.303,4.785l0.162,11.714l-11.466,0.109l-5.002-7.728l-0.079-0.124l-0.574-4.089l0.141-2.524l0.217-0.418l0.711-0.634l0.49-0.029
		l0.141-0.149l0.931-2.179l-0.014-1.551l3.192-0.014l-0.045-3.887L288.652,51.873"/>
	<path id="OK_Sequoyah_1_" fill="#D40000" stroke="#FFFFFF" stroke-width="1.1544" d="M308.176,74.964l1.621,10.707l-0.014,0.777
		l-2.217,2.275l-6.801,0.249l-1.644-1.089l-0.727-0.201l-0.691,0.072l-0.201,0.102l-1.366,1.344l-3.423-3.303l-1.176,0.02
		l-1.766-0.463l-0.53-0.188l-0.553-0.509l-1.104-1.507l-2.846-8.007l11.466-0.109L308.176,74.964"/>
	<path id="OK_Haskell_1_" fill="#D40000" stroke="#FFFFFF" stroke-width="1.1544" d="M287.584,83.254l1.102,1.507l0.555,0.508
		l0.53,0.189l1.766,0.463l1.176-0.02l3.423,3.303l0.03,4.444l-2.698,0.98l-1.382,0.011l0.08,6.445l-15.192,0.143l-0.034-4.561
		l-3.791,0.021l-0.04-1.894l0.132-4.154l3.819,0.102l2.592,0.454l3.439-2.033l1.142-2.268l2.763-3.256L287.584,83.254"/>
	<path id="OK_Le_Flore_1_" fill="#D40000" stroke="#FFFFFF" stroke-width="1.1544" d="M309.783,86.45l-0.214,19.933l-0.096,9.155
		l-0.074,9.867l-17.311,0.262l-4.504-7.699l-0.073-7.773l2.198-3.242l2.521-0.693l-0.141-11.619l1.382-0.011l2.698-0.98
		l-0.031-4.444l1.367-1.344l0.201-0.102l0.691-0.072l0.729,0.201l1.642,1.089l6.803-0.249L309.783,86.45"/>
	<path id="OK_Latimer_1_" fill="#D40000" stroke="#FFFFFF" stroke-width="1.1544" d="M292.169,101.083l0.061,5.176l-2.521,0.693
		l-2.198,3.242l0.074,7.773l-16.48,0.115v-4.015l0.169-11.513l4.77-0.047l0.933-1.279L292.169,101.083"/>
	<path id="OK_Pittsburg_1_" fill="#D40000" stroke="#FFFFFF" stroke-width="1.1544" d="M273.244,90.639l-0.131,4.154l0.04,1.894
		l3.793-0.021l0.032,4.561l-0.933,1.279l-4.77,0.047l-0.17,11.513v4.015l-5.687,3.914l-7.636,0.033v-3.892h-7.606v-3.868
		l0.141-12.598l1.006-1.859l1.75-2.385l0.31-0.188l0.711-0.104l1.303,0.061l7.144-1.503l1.336-0.614l6.968-3.865L273.244,90.639"/>
	<path id="OK_Coal_1_" fill="#D40000" stroke="#FFFFFF" stroke-width="1.1544" d="M250.176,114.267v11.645l-1.935,3.908
		l-9.542-0.034l-3.843-3.887l0.106-7.779h3.827l0.02-3.881L250.176,114.267"/>
	<path id="OK_Atoka_1_" fill="#AA0000" stroke="#FFFFFF" stroke-width="1.1544" d="M250.176,118.135h7.606v3.892l7.636-0.033
		l0.022,3.873l-3.894,0.308l0.019,15.304h-7.745l-15.165-0.04l0.044-11.654l9.542,0.034l1.935-3.908V118.135"/>
	<path id="OK_Pushmataha_1_" fill="#D40000" stroke="#FFFFFF" stroke-width="1.1544" d="M271.102,118.081l16.482-0.115l4.503,7.699
		l-3.956,0.029l0.121,11.748l-2.265,0.014l-1.547,0.838l-0.153,3.051l-22.725,0.139l-0.02-15.305l3.894-0.307l-0.022-3.873
		L271.102,118.081"/>
	<path id="OK_McCurtain_1_" fill="#AA0000" stroke="#FFFFFF" stroke-width="1.1544" d="M292.089,125.665l17.311-0.262l-0.115,14.158
		l-0.168,24.603l-9.586-2.759l-4.553-1.859l-6.29-5.035l-4.292-3.672l-0.11-9.496l0.157-3.051l1.547-0.838l2.265-0.014
		l-0.121-11.748L292.089,125.665"/>
	<path id="OK_Choctaw_1_" fill="#D40000" stroke="#FFFFFF" stroke-width="1.1544" d="M284.285,141.341l0.11,9.496l-2.32-0.777
		l-0.263-0.006l-0.123,0.06l-0.03,0.011h-0.023l-0.786,1.197l-0.018,0.061v0.08l-0.015,0.041l0.015,0.033l0.139,0.295v0.066
		l0.061,0.383l-0.061,0.449l-0.201,0.449l-0.203,0.194l-0.978,0.636l-0.286,0.037l-0.544,0.059l-1.067,0.143h-0.018l-2.479,0.121
		l-1.376-0.11l-3.626-0.481l-0.139-0.123l-0.143-0.248v-0.034l-0.013-0.22l0.114-0.315l0.007-0.296l-0.384-0.986l-0.281-0.114
		l-1.188-0.06l-2.681,1.39l-3.071,1.595l-0.015,0.021l-3.048-0.314l-2.851-2.244l-0.637-0.807l-0.078-0.248l-0.013-7.899
		l-1.95-1.397h7.743L284.285,141.341"/>
	<path id="OK_Bryan_1_" fill="#D40000" stroke="#FFFFFF" stroke-width="1.1544" d="M253.819,141.482l1.95,1.396l0.015,7.9
		l0.078,0.25l0.635,0.805l2.853,2.243l3.048,0.315l-3.142,1.176l-1.782-0.329l-2.12-0.417l-0.5,0.054l-0.789,0.052l-4.117,0.352
		l-1.858,0.43l-0.31,1.08l-0.234,1.076l-0.015,0.108l-0.034,0.12l-0.108,0.342l-0.09,0.297l-0.017,0.032l-0.048,0.054l-0.342,0.363
		l-0.048,0.053l-0.665,0.285l-0.758,0.205l-5.473,1.351l-0.352-0.483l-1.594-2.169v-0.014l-0.485-0.161l-0.429-0.045l-1.88,0.363
		h-0.047l-0.343-0.235l-3.759-2.53l-0.035-0.102l-0.031-0.215l-0.032-0.551l0.124-0.709l1.057-10.909l6.508-1.865L253.819,141.482"
		/>
	<path id="OK_Marshall_1_" fill="#D40000" stroke="#FFFFFF" stroke-width="1.1544" d="M219.461,140.616l9.492,0.094l1.919,0.476
		l1.398,1.646v0.283l-0.125,0.194l-1.057,10.909l-3.67,1.658l-0.032,0.014l-1.778,0.303l-3.455-1.061l-0.376-0.257l-0.597-0.681
		l-1.86-3.819l-1.226-5.235L219.461,140.616"/>
	<path id="OK_Johnston_1_" fill="#D40000" stroke="#FFFFFF" stroke-width="1.1544" d="M223.469,125.794l11.386,0.106l3.845,3.887
		l-0.044,11.654l-6.508,1.865l0.125-0.194v-0.283l-1.398-1.646l-1.919-0.476l-9.492-0.094l0.074-7.124h1.904l0.095-7.712
		L223.469,125.794"/>
	<path id="OK_Pontotoc_1_" fill="#D40000" stroke="#FFFFFF" stroke-width="1.1544" d="M235.788,107.837l3.02,6.401l-0.02,3.881
		h-3.827l-0.108,7.779l-11.386-0.106l0.026-3.887l-3.806-0.035l0.022-1.932l0.092-9.713l0.121-4.895l5.559,2.907L235.788,107.837"/>
	<path id="OK_Garvin_1_" fill="#D40000" stroke="#FFFFFF" stroke-width="1.1544" d="M219.802,110.228l-0.092,9.713l-7.625-0.094
		l-1.876,0.604l-0.093,0.109l-0.061,0.447l0.277,0.619l0.569,0.468l0.483,1.392l0.433,1.916l-1.366,0.235l-6.035-0.094l-7.639-0.128
		l-3.719-7.833l0.156-7.747L219.802,110.228"/>
	<path id="OK_Murray_1_" fill="#D40000" stroke="#FFFFFF" stroke-width="1.1544" d="M204.417,125.545l6.037,0.094l1.364-0.235
		l-0.433-1.916l-0.483-1.392l-0.569-0.468l-0.275-0.619l0.059-0.447l0.095-0.109l1.874-0.604l7.625,0.094l-0.022,1.932l3.806,0.035
		l-0.026,3.887l-1.933-0.014l-0.095,7.712h-1.906l-3.468-0.034l-0.386-0.229l-0.112-0.222v-0.086l0.424-0.295l-0.081-0.979
		l-0.108-0.108l-11.478-0.169L204.417,125.545"/>
	<path id="OK_Love_1_" fill="#D40000" stroke="#FFFFFF" stroke-width="1.1544" d="M196.517,144.845l21.578,0.293l1.226,5.235
		l-0.36,0.204l-5.515,9.559l-0.167,0.229l-0.375,0.294l-0.526,0.168l-0.587-0.072l-0.513-0.168l-10.674-4.666l-0.325-0.215
		l-0.215-0.262v-0.023l-0.03-0.08l-0.099-0.225l-0.724-3.318l-2.822,0.768L196.517,144.845"/>
	<path id="OK_Carter_1_" fill="#D40000" stroke="#FFFFFF" stroke-width="1.1544" d="M196.779,125.417l7.639,0.128l-0.093,5.826
		l11.478,0.169l0.108,0.108l0.081,0.979l-0.426,0.295v0.086l0.114,0.222l0.386,0.229l3.468,0.034l-0.072,7.124l-1.366,4.523
		l-21.58-0.293l0.097-9.707L196.779,125.417"/>
	<path id="OK_Jefferson_1_" fill="#AA0000" stroke="#FFFFFF" stroke-width="1.1544" d="M175.62,134.681l20.993,0.457l-0.095,9.707
		l-0.126,7.719l-1.314-0.922l-3.734-2.49l-1.254,1.581l-1.921,1.999l-1.828,1.435l-1.145,0.343l-0.437-0.041l-3.234-1.475
		l-0.404-0.377l0.944-2.041l0.324-2.369l-0.013-0.021l-1.364-0.537l-1.271,0.311l-0.046,0.014h-0.788l-1.551-0.465l-0.063-0.012
		l-0.092-0.096l-0.636-1.269L175.62,134.681"/>
	<path id="OK_Stephens_1_" fill="#D40000" stroke="#FFFFFF" stroke-width="1.1544" d="M193.062,117.584l3.719,7.833l-0.167,9.723
		l-20.993-0.457l0.107-9.679l2.091-7.712L193.062,117.584"/>
	<path id="OK_Cotton_1_" fill="#D40000" stroke="#FFFFFF" stroke-width="1.1544" d="M156.722,129.029l1.918,0.046l3.812-0.535
		l7.637-1.097l1.922-1.63l1.286-0.858l2.432,0.047l-0.107,9.678l0.946,11.452l-2.216-3.642l-5.672-1.779l-1.396-0.311l-0.712,0.404
		l-1.471,1.859l-1.952,1.752l-0.03,0.028l-0.014-0.013l-1.043-0.377l-1.732-2.784l-0.836-0.713l-0.808-0.529l-0.373-0.028
		l0.23-7.701l-1.902-0.034L156.722,129.029"/>
	<path id="OK_Comanche_1_" fill="#E27F90" stroke="#FFFFFF" stroke-width="1.1544" d="M158.811,109.066l19.056,0.477l-0.05,7.746
		l-2.09,7.713l-2.433-0.047l-1.286,0.858l-1.922,1.63l-7.637,1.097l-3.812,0.535l-1.917-0.046l0.104-3.371l-2.105-1.199
		l-3.827-0.109l0.11-3.885l0.34-11.633L158.811,109.066"/>
	<path id="OK_Tillman_1_" fill="#D40000" stroke="#FFFFFF" stroke-width="1.1544" d="M151.007,120.464l-0.11,3.885l3.827,0.109
		l2.105,1.199l-0.105,3.371l-0.079,3.235l1.901,0.034l-0.229,7.701l-3.313,1.02l-2.389-0.088l-3.359-0.826l-3.377-2.013
		l-0.512-0.262h-0.049l-3.359-0.264l-1.473,0.028l-0.681,0.027l-1.366-0.311l-0.741-0.227l-0.464-0.132l-0.017-0.021v-0.015
		l-0.633-3.438l0.032-0.965l0.044-1.02l0.573-0.176l0.124-0.24v-0.365l-0.542-1.529l-0.229-0.188l-0.498,0.067l-0.199-0.672
		l-0.063-0.859l0.681-2.992l1.458-3.037l0.816-1.146l0.808-0.168l1.533,0.104l0.172,0.188l0.264-0.029l0.139-0.094l0.076-1.055
		l-0.275-0.523l-0.468-0.577l2.445,0.094l1.211,1.491l-0.018,0.488L151.007,120.464"/>
	<path id="OK_Jackson_1_" fill="#D40000" stroke="#FFFFFF" stroke-width="1.1544" d="M136.118,109.817l2.045-1.53l0.338-0.045
		l0.141,0.045l0.76,0.512l0.168,0.283l3.116,6.35l-1.657,2.772l0.468,0.577l0.275,0.523l-0.076,1.055l-0.139,0.094l-0.264,0.029
		l-0.172-0.188l-1.533-0.104l-0.808,0.168l-0.816,1.146l-1.458,3.037l-0.681,2.992l0.063,0.859l0.199,0.672l0.498-0.067l0.229,0.188
		l0.542,1.529v0.365l-0.124,0.24l-0.573,0.176v-0.047l-1.718-2.993l-1.816-0.973l-1.595-0.866l-1.563,2.801l-0.014,0.033l-0.05,0.08
		h-0.03l-0.279,0.121l-1.224-0.107l-1.193-1.127l-0.898-0.529l-0.557-0.229l-1.735-0.208l-0.402-0.052l-0.2,0.075l-1.411,1.782
		l-1.41,0.015h-0.31l-1.118-0.27l-2.538-2.414l-0.914-1.082l-1.893-2.451l6.6,0.271l0.358-9.699l5.034,0.168l3.441-0.124
		l-0.171-0.403l-0.05-0.973l0.124-0.343l1.21-1.918l5.623,0.215L136.118,109.817"/>
	<path id="OK_Kiowa_1_" fill="#D40000" stroke="#FFFFFF" stroke-width="1.1544" d="M130.694,96.593l1.784-0.028l18.387,0.606
		l6.352,0.101l1.842,0.973l-0.247,10.821l-7.466-0.234l-0.34,11.633l-6.338-0.191l0.018-0.488l-1.211-1.491l-2.445-0.093
		l1.657-2.773l-3.116-6.35l-0.168-0.283l-0.76-0.512l-0.139-0.044l-0.34,0.044l-2.045,1.53l-2.216-1.899l-0.262-0.377l-0.466-5.235
		l0.34-1.208l0.156-1.006l-1.535-2.256L130.694,96.593"/>
	<path id="OK_Greer_1_" fill="#D40000" stroke="#FFFFFF" stroke-width="1.1544" d="M113.285,99.673l3.809,0.174l0.153-3.873
		l11.918,0.463l1.53,0.154l1.444,1.242l1.535,2.255l-0.156,1.007l-0.342,1.208l0.466,5.235l0.262,0.377l2.216,1.899l-0.156,0.425
		l-5.622-0.215l-1.209,1.919l-0.125,0.342l0.05,0.973l0.171,0.403l-3.441,0.124l-5.034-0.168l-1.939-9.868l-5.68-0.221
		L113.285,99.673"/>
	<path id="OK_Harmon_1_" fill="#D40000" stroke="#FFFFFF" stroke-width="1.1544" d="M109.257,99.505l4.028,0.168l-0.155,3.855
		l5.68,0.221l1.939,9.868l-0.358,9.7l-6.6-0.271l-5.31-2.645l0.249-8.244L109.257,99.505"/>
	<path id="OK_Muskogee_1_" fill="#CC2F4A" stroke="#FFFFFF" stroke-width="1.1544" d="M261.853,65.674l4.145-0.035l6.176,2.324
		l5.519-0.445h2.046l5.002,7.728l2.846,8.007l-0.583,0.384l-2.763,3.256l-1.143,2.268l-3.44,2.033l-2.589-0.454l-0.091-11.561
		l-13.184,0.081l-0.017-7.76l-1.902,0.013L261.853,65.674"/>
	<path id="OK_McIntosh_1_" fill="#CC2F4A" stroke="#FFFFFF" stroke-width="1.1544" d="M263.793,79.26l13.184-0.08l0.088,11.561
		l-3.82-0.102l-2.401,0.577l-6.968,3.865l-1.336,0.613l-7.144,1.504l-1.303-0.059l0.099-6.162v-3.893l3.789,0.021v-1.242
		l0.526-2.645l1.366-3.944L263.793,79.26"/>
	<path id="OK_Hughes_1_" fill="#D40000" stroke="#FFFFFF" stroke-width="1.1544" d="M237.647,90.92l16.545,0.054l-0.099,6.16
		l-0.711,0.104l-0.312,0.188l-1.748,2.385l-1.006,1.859l-0.141,12.598l-11.368-0.028l-3.02-6.401l0.061-9.159l1.764,0.022
		L237.647,90.92"/>
	<path id="OK_Seminole_1_" fill="#CC2F4A" stroke="#FFFFFF" stroke-width="1.1544" d="M231.123,85.941l0.233,0.227l0.215,0.062
		l2.68,0.174l0.066-0.054l0.045-0.227l-0.125-0.557l0.293-1.523l2.106-0.768l1.052-0.281l-0.042,7.927l-0.034,7.782l-1.764-0.022
		l-0.061,9.159l-10.305,0.402l0.153-22.797l1.874-0.604L231.123,85.941"/>
	<path id="OK_Pottawatomie_1_" fill="#D40000" stroke="#FFFFFF" stroke-width="1.1544" d="M212.581,82.94l18.524,0.233l0.016,2.768
		l-3.61-1.102l-1.874,0.604l-0.153,22.796l-5.559-2.906l-7.671,1.355l0.266-19.837L212.581,82.94"/>
	<path id="OK_Cleveland_1_" fill="#E27F90" stroke="#FFFFFF" stroke-width="1.1544" d="M193.512,86.544l19.006,0.308l-0.266,19.837
		l-1.969,0.122l-4.551-1.216l-0.462-0.282l-0.19-0.168l-0.233-0.711l-0.287-2.511l-0.551-2.167l-1.699-2.874l-7.266-7.264
		l-1.577-1.28L193.512,86.544"/>
	<path id="OK_McClain_1_" fill="#D40000" stroke="#FFFFFF" stroke-width="1.1544" d="M193.467,88.337l1.577,1.279l7.266,7.264
		l1.699,2.874l0.551,2.167l0.287,2.511l0.233,0.711l0.19,0.168l0.462,0.282l4.551,1.216l1.969-0.122l7.671-1.355l-0.121,4.895
		l-26.586-0.391l0.249-21.455v-0.043"/>
	<path id="OK_Grady_1_" fill="#D40000" stroke="#FFFFFF" stroke-width="1.1544" d="M178.25,86.216l4.851,1.453l4.217,0.697
		l3.838,0.498l1.053-0.02l1.259-0.465l-0.249,21.455l-0.156,7.747l-15.243-0.294l0.048-7.746L178.25,86.216"/>
	<path id="OK_Caddo_1_" fill="#CC2F4A" stroke="#FFFFFF" stroke-width="1.1544" d="M170.645,78.281h0.19l0.03,0.476l-0.153,7.316
		l7.54,0.143l-0.386,23.326l-19.052-0.477l0.247-10.821l0.125-0.182l0.126-4.571l-0.063-4.586l0.187-7.036l0.12-3.879
		L170.645,78.281"/>
	<path id="OK_Canadian_1_" fill="#D40000" stroke="#FFFFFF" stroke-width="1.1544" d="M174.63,70.628l19.053,0.363l-0.171,15.555
		l-0.045,1.792v0.044l-1.259,0.465l-1.053,0.02l-3.838-0.504l-4.217-0.693l-4.851-1.453l-7.54-0.143l0.155-7.316l-0.032-0.476
		h-0.189L174.63,70.628"/>
	<path id="OK_Oklahoma_1_" fill="#E27F90" stroke="#FFFFFF" stroke-width="1.1544" d="M193.683,70.99l19.054,0.329l-0.155,11.62
		l-0.063,3.914l-19.006-0.308L193.683,70.99"/>
	<path id="OK_Lincoln_1_" fill="#D40000" stroke="#FFFFFF" stroke-width="1.1544" d="M231.37,61.821l-0.06,13.487l-0.203,7.867
		l-18.525-0.233l0.156-11.62l0.12-9.687L231.37,61.821"/>
	<path id="OK_Okfuskee_1_" fill="#D40000" stroke="#FFFFFF" stroke-width="1.1544" d="M246.628,75.373l-0.019,3.898l3.751-0.013
		l0.014,7.821h3.817v3.893l-16.545-0.054l0.042-7.927l-1.052,0.283l-2.106,0.766l-0.293,1.523l0.125,0.557l-0.045,0.227
		l-0.066,0.054l-2.68-0.174l-0.215-0.062l-0.233-0.227l-0.016-2.768l0.203-7.867L246.628,75.373"/>
	<path id="OK_Okmulgee_1_" fill="#CC2F4A" stroke="#FFFFFF" stroke-width="1.1544" d="M261.853,65.674l0.023,5.837l1.901-0.013
		l0.018,7.76l-3.92,0.013l-1.366,3.937l-0.526,2.651V87.1l-3.789-0.021h-3.817l-0.014-7.821l-3.751,0.013l0.019-3.898l0.014-9.715
		l5.689,0.016l7.606,0.026L261.853,65.674"/>
	<path id="OK_Wagoner_1_" fill="#D40000" stroke="#FFFFFF" stroke-width="1.1544" d="M273.427,55.853l8.273-0.034l0.016,1.551
		l-0.932,2.181l-0.137,0.147l-0.494,0.029l-0.71,0.634l-0.217,0.418l-0.141,2.524l0.573,4.089l0.08,0.124h-2.046l-5.519,0.445
		l-6.178-2.324l-4.143,0.035l-1.913,0.026l2.056-13.688l5.085-0.033l1.703,2.187l0.39,0.693l-0.154,0.609l-0.559,0.069l0.087,0.207
		l0.223,0.142L273.427,55.853"/>
	<path id="OK_Rogers_1_" fill="#D40000" stroke="#FFFFFF" stroke-width="1.1544" d="M260.249,32.586l13.349-0.047l3.688,3.873
		l-3.793,0.027l-0.097,11.647l0.03,7.768l-4.659,0.035l-0.222-0.142l-0.088-0.207l0.559-0.067l0.154-0.611l-0.39-0.692l-1.703-2.188
		l-5.085,0.033l-1.824-11.653L260.249,32.586"/>
	<path id="OK_Nowata_1_" fill="#D40000" stroke="#FFFFFF" stroke-width="1.1544" d="M270.298,14.595l4.026-0.013l-0.727,17.957
		l-13.349,0.047l0.753-17.937L270.298,14.595"/>
	<path id="OK_Washington_1_" fill="#D40000" stroke="#FFFFFF" stroke-width="1.1544" d="M254.775,14.662l6.228-0.013l-0.753,17.937
		l-0.08,7.774h-6.694l0.018-25.698H254.775"/>
	<path id="OK_Tulsa_1_" fill="#E27F90" stroke="#FFFFFF" stroke-width="1.1544" d="M253.475,40.36h6.694l1.824,11.652L259.938,65.7
		l-7.606-0.026l0.141-1.989l-0.02-7.773l-9.523-0.046V52.01l1.047,0.013l9.497,0.075V40.36"/>
	<path id="OK_Creek_1_" fill="#D40000" stroke="#FFFFFF" stroke-width="1.1544" d="M231.435,52.06l11.496-0.048v3.854l9.521,0.045
		l0.021,7.774l-0.141,1.989l-5.689-0.015l-0.014,9.715l-15.319-0.067l0.06-13.487L231.435,52.06"/>
	<path id="OK_Payne_1_" fill="#CC2F4A" stroke="#FFFFFF" stroke-width="1.1544" d="M220.666,48.107l3.783,0.034l-0.048,3.921h7.033
		l-0.064,9.759l-18.514-0.189l-7.572-2.028l0.107-7.785l7.574,0.101l0.052-3.887L220.666,48.107"/>
	<path id="OK_Logan_1_" fill="#D40000" stroke="#FFFFFF" stroke-width="1.1544" d="M193.961,51.389l7.637,0.14l3.793,0.289
		l-0.108,7.785l7.572,2.028l-0.12,9.686l-19.054-0.329L193.961,51.389"/>
	<path id="OK_Kingfisher_1_" fill="#AA0000" stroke="#FFFFFF" stroke-width="1.1544" d="M174.97,51.006l3.779,0.074l15.212,0.308
		l-0.278,19.602l-19.053-0.363l0.185-7.741l0.049-6.465L174.97,51.006"/>
	<path id="OK_Blaine_1_" fill="#D40000" stroke="#FFFFFF" stroke-width="1.1544" d="M159.82,50.617l15.152,0.388l-0.108,5.417
		l-0.048,6.465l-0.184,7.741l-3.983,7.653l-11.089-0.289V66.36L159.82,50.617"/>
	<path id="OK_Washita_1_" fill="#AA0000" stroke="#FFFFFF" stroke-width="1.1544" d="M159.434,81.872l-0.187,7.036l0.063,4.586
		l-0.126,4.571l-0.125,0.182l-1.842-0.973l-6.35-0.102l-18.389-0.604l0.402-15.576L159.434,81.872"/>
	<path id="OK_Beckham_1_" fill="#AA0000" stroke="#FFFFFF" stroke-width="1.1544" d="M132.942,79.053l-0.062,1.938l-0.402,15.574
		l-1.784,0.028l-1.53-0.154l-11.918-0.463l-0.153,3.873l-3.809-0.174l-4.028-0.168l0.295-6.787l0.444-10.693l15.23,0.644
		l0.139-3.895L132.942,79.053"/>
	<path id="OK_Custer_1_" fill="#D40000" stroke="#FFFFFF" stroke-width="1.1544" d="M133.004,65.513l26.554,0.845v11.633
		l-0.122,3.879l-26.554-0.879l0.062-1.938L133.004,65.513"/>
	<path id="OK_Dewey_1_" fill="#AA0000" stroke="#FFFFFF" stroke-width="1.1544" d="M148.482,50.436l11.338,0.182l-0.262,15.74
		l-26.554-0.845l0.141-8.97l0.199-6.753L148.482,50.436"/>
	<path id="OK_Roger_Mills_1_" fill="#AA0000" stroke="#FFFFFF" stroke-width="1.1544" d="M133.145,56.543l-0.141,8.97l-0.063,13.541
		l-7.574-0.279l-0.139,3.895l-15.23-0.644l0.374-8.761l0.479-11.689l3.372-1.958l3.786,0.927l0.851,1.055l0.309,0.249l1.754,1.101
		l1.113,0.403l1.782,0.449l0.541,0.06l2.095-0.872l0.123-0.103l1.705-2.698l0.6-2.027l0.092-0.188l0.346-0.31l0.882-0.628
		l0.604-0.302l0.87-0.189h1.469"/>
	<path id="OK_Ellis_1_" fill="#AA0000" stroke="#FFFFFF" stroke-width="1.1544" d="M126.145,30.391l-0.576,15.44l0.187,3.701
		l7.587,0.26l-0.199,6.753h-1.469l-0.87,0.189l-0.604,0.302l-0.882,0.628l-0.346,0.31l-0.091,0.188l-0.601,2.027l-1.705,2.698
		l-0.123,0.103l-2.093,0.872l-0.543-0.06l-1.782-0.449l-1.113-0.403l-1.752-1.101l-0.311-0.249l-0.851-1.055l-3.784-0.927
		l-3.374,1.958l0.326-7.785l0.73-19.808l0.199-4.169L126.145,30.391"/>
	<path id="OK_Woodward_1_" fill="#AA0000" stroke="#FFFFFF" stroke-width="1.1544" d="M126.145,30.391l10.95,0.287l0.357-10.007
		l0.03,0.636l0.804,0.711l0.591,0.216l3.1-0.122l0.462,0.153l0.515,0.296l5.931,8.332l-0.076,4.12l-0.324,15.421l-15.138-0.646
		l-7.587-0.26l-0.187-3.702L126.145,30.391"/>
	<path id="OK_Major_1_" fill="#AA0000" stroke="#FFFFFF" stroke-width="1.1544" d="M179.029,37.769l-0.279,13.313l-3.779-0.075
		l-15.152-0.388l-11.338-0.182l0.324-15.421l4.124,0.155l0.804,1.596l0.402,0.464l0.524,0.355l3.254,1.754l1.938,0.9l0.648,0.22
		l0.808,0.101l2.465-0.227l0.075-2.947L179.029,37.769"/>
	<path id="OK_Garfield_1_" fill="#D40000" stroke="#FFFFFF" stroke-width="1.1544" d="M201.847,32.384h0.015L201.6,51.529
		l-7.638-0.14l-15.211-0.308l0.281-13.313l0.135-5.821L201.847,32.384"/>
	<path id="OK_Noble_1_" fill="#D40000" stroke="#FFFFFF" stroke-width="1.1544" d="M216.146,32.552l1.642,3.908l-0.788-0.021
		l-0.082,7.747l3.793,0.048l-0.044,3.872l-7.648-0.075l-0.052,3.887l-7.574-0.101l-3.792-0.289l0.262-19.145L216.146,32.552"/>
	<path id="OK_Pawnee_1_" fill="#D40000" stroke="#FFFFFF" stroke-width="1.1544" d="M220.666,48.107l0.044-3.872l-3.793-0.048
		l0.082-7.747l0.788,0.021l0.154,0.929l0.822,0.898l0.478,0.262l1.02,0.229l8.833,1.477l12.469,8.786l2.413,2.985l-1.047-0.013
		l-11.496,0.048h-7.035l0.05-3.921L220.666,48.107"/>
	<path id="OK_Osage_1_" fill="#CC2F4A" stroke="#FFFFFF" stroke-width="1.1544" d="M227.157,14.555l7.888,0.04l18.447,0.067
		l-0.018,25.698V52.1l-9.497-0.075l-2.413-2.984l-12.469-8.787l-8.831-1.477l-1.021-0.229l-0.478-0.262l-0.822-0.898l-0.158-0.929
		l-1.638-3.908l0.181-2.228l1.895-2.046l5.188-2.458l0.699,0.132l0.262-0.094l2.619-1.605L227.157,14.555"/>
	<path id="OK_Kay_1_" fill="#D40000" stroke="#FFFFFF" stroke-width="1.1544" d="M202.122,14.28l11.063,0.134l13.973,0.142
		l-0.171,9.7l-2.617,1.603l-0.262,0.094l-0.699-0.132l-5.188,2.458l-1.895,2.046l-0.181,2.228l-14.284-0.168h-0.017L202.122,14.28"
		/>
	<path id="OK_Grant_1_" fill="#AA0000" stroke="#FFFFFF" stroke-width="1.1544" d="M190.181,14.072l11.943,0.206l-0.277,18.104
		l-22.682-0.436l-0.182-0.013l0.338-15.555l-0.034-2.509L190.181,14.072"/>
	<path id="OK_Alfalfa_1_" fill="#AA0000" stroke="#FFFFFF" stroke-width="1.1544" d="M171.034,13.69l8.255,0.182l0.032,2.509
		l-0.336,15.555l0.182,0.013l-0.135,5.821l-15.181-0.38l0.234-23.92L171.034,13.69"/>
	<path id="OK_Woods_1_" fill="#AA0000" stroke="#FFFFFF" stroke-width="1.1544" d="M132.076,12.425l15.988,0.545l16.018,0.497
		l-0.236,23.92l-0.075,2.947l-2.465,0.227l-0.808-0.101l-0.648-0.22l-1.938-0.9l-3.254-1.754l-0.524-0.355l-0.402-0.464
		l-0.804-1.597l-4.124-0.153l0.076-4.12l-5.931-8.332l-0.515-0.296l-0.462-0.153l-3.101,0.122l-0.59-0.216l-0.804-0.711l-0.03-0.636
		L132.076,12.425"/>
	<path id="OK_Harper_1_" fill="#AA0000" stroke="#FFFFFF" stroke-width="1.1544" d="M112.881,11.574l16.205,0.745l2.99,0.109
		l5.376,8.244l-0.357,10.007l-10.95-0.287l-14.037-0.577L112.881,11.574"/>
	<path id="OK_Beaver_1_" fill="#AA0000" stroke="#FFFFFF" stroke-width="1.1544" d="M79.78,10.185l10.952,0.462l19.1,0.785
		l3.05,0.14l-0.773,18.239l-0.199,4.169l-19.179-0.86l-14.421-0.724l0.82-15.539l0.291-0.014L79.78,10.185"/>
</g>
</svg>
