<?xml version="1.0" encoding="UTF-8" standalone="no"?>
<!-- Generator: Adobe Illustrator 18.1.1, SVG Export Plug-In . SVG Version: 6.00 Build 0)  -->

<svg
   xmlns:dc="http://purl.org/dc/elements/1.1/"
   xmlns:cc="http://creativecommons.org/ns#"
   xmlns:rdf="http://www.w3.org/1999/02/22-rdf-syntax-ns#"
   xmlns:svg="http://www.w3.org/2000/svg"
   xmlns="http://www.w3.org/2000/svg"
   xmlns:sodipodi="http://sodipodi.sourceforge.net/DTD/sodipodi-0.dtd"
   xmlns:inkscape="http://www.inkscape.org/namespaces/inkscape"
   version="1.1"
   id="svg5938"
   sodipodi:version="0.32"
   inkscape:version="0.91 r"
   sodipodi:docname="Oregon_Presidential_Election_Results_2016.svg"
   inkscape:output_extension="org.inkscape.output.svg.inkscape"
   x="0px"
   y="0px"
   width="248.4px"
   height="188.2px"
   viewBox="-131 128.1 248.4 188.2"
   enable-background="new -131 128.1 248.4 188.2"
   xml:space="preserve"><metadata
     id="metadata7390"><rdf:RDF><cc:Work
         rdf:about=""><dc:format>image/svg+xml</dc:format><dc:type
           rdf:resource="http://purl.org/dc/dcmitype/StillImage" /></cc:Work></rdf:RDF></metadata><defs
     id="defs7349"><inkscape:perspective
       inkscape:persp3d-origin="372.04724 : 350.78739 : 1"
       sodipodi:type="inkscape:persp3d"
       inkscape:vp_x="0 : 526.18109 : 1"
       inkscape:vp_y="0 : 1000 : 0"
       inkscape:vp_z="744.09448 : 526.18109 : 1"
       id="perspective5946" /></defs><sodipodi:namedview
     inkscape:window-maximized="0"
     pagecolor="#ffffff"
     bordercolor="#666666"
     borderopacity="1.0"
     gridtolerance="10000"
     guidetolerance="10"
     objecttolerance="10"
     inkscape:zoom="2.67497"
     inkscape:cx="80.152619"
     inkscape:cy="80.048485"
     showgrid="false"
     id="base"
     inkscape:document-units="px"
     inkscape:pageopacity="0.0"
     inkscape:pageshadow="2"
     inkscape:current-layer="layer1"
     inkscape:window-width="1918"
     inkscape:window-height="795"
     inkscape:window-x="0"
     inkscape:window-y="194" /><g
     id="layer1"
     transform="translate(-341.56345,-436.5587)"
     inkscape:label="Layer 1"
     inkscape:groupmode="layer"><path
       id="OR_Clatsop"
       inkscape:label="Clatsop, OR"
       fill="#CCCCCC"
       stroke="#FFFFFF"
       stroke-width="1.1105"
       d="M260.5,573.6   l-1.1,14.7l-3.5-0.1l-6.5-0.4l-0.1,0l-0.1-0.4l-7-0.6l1.9-9l0.1-1.3l0-1.2l-0.2-1.5l0-0.3l10.5-3.8l1.1-0.7l0.1-0.4l1.8-0.3   l0.2,0.1l0.1,0l0.1,0.2l0.6,0.6l0.5,0.9l-0.2,1.9l1.5,1.6L260.5,573.6"
       style="fill:#b9d7ff;fill-opacity:1" /><path
       id="OR_Columbia"
       inkscape:label="Columbia, OR"
       fill="#CCCCCC"
       stroke="#FFFFFF"
       stroke-width="1.1105"
       d="M264.8,572.9   l1.4-0.6l1.4,0.3l5.6,4.5l0.5,1l1.7,4.1l0.6,3.8l-0.1,0.7l0.3,5l-4.7-0.1l-2.7-2.5l-9.3-0.7l1.1-14.7L264.8,572.9"
       style="fill:#e27f90;fill-opacity:1" /><path
       id="OR_Curry"
       inkscape:label="Curry, OR"
       fill="#CCCCCC"
       stroke="#FFFFFF"
       stroke-width="1.1105"
       d="M236.9,708l2.8,0.5   l-0.1,0.1l-0.4,0.5l-3.4,5.3l0,0.2l0.3,0.4l0,0.2l-0.1,0.2l-1.9,3.8l-0.5,0.5l-1.1,0.2l-1.6-0.2l-0.1-0.1l0.8,5.8l1.3,0.5l1.4,1.3   l1,3.2l0.1,1l-0.5,1.3l-0.5,1.1l-1,4.5l0.3,1.1l0.4,1l-11.6-1.1l-1.6-2.1l-2.1-3.6l-1.5-8.5l0.3-3.5l0.3-2.4l0.1-0.5l-1.9-10.8   l-0.8-3.6l2.6-4.4l6.5,0.6l0.1,0.2l1.9,3l0.3,2.2l-0.2,0.4l-0.1,1.1l0,2l0.4,2.8l0.2,0.2l4.1-0.4l1.9-1.6l0.4-0.4l0.2-1.4l2.3-0.4   L236.9,708"
       style="fill:#e27f90;fill-opacity:1" /><path
       id="OR_Coos"
       inkscape:label="Coos, OR"
       fill="#CCCCCC"
       stroke="#FFFFFF"
       stroke-width="1.1105"
       d="M236.9,708l-1.1-0.1   l-2.3,0.4l-0.2,1.4l-0.4,0.4l-1.9,1.6l-4.1,0.4l-0.2-0.2l-0.4-2.8l0-2l0.1-1.1l0.2-0.4l-0.3-2.2l-1.9-3l-0.1-0.2l-6.5-0.6l9.9-25.8   l5.6,0.5l4.4,0.4l2.7,7.4l1.2,7.2l-0.5,6.9l-1.9,2.1l-1.4,1.4l-0.5,0l-0.5,6.9L236.9,708"
       style="fill:#e27f90;fill-opacity:1" /><path
       id="OR_Josephine"
       inkscape:label="Josephine, OR"
       fill="#CCCCCC"
       stroke="#FFFFFF"
       stroke-width="1.1105"
       d="M253.8,712.8   l-2.2,28.3l-8.6-0.5l-9-0.5l-0.4-1l-0.3-1.1l1-4.5l0.5-1.1l0.5-1.3l-0.1-1l-1-3.2l-1.4-1.3l-1.3-0.5l-0.8-5.8l0.1,0.1l1.6,0.2   l1.1-0.2l0.5-0.5l1.9-3.8l0.1-0.2l0-0.2l-0.3-0.4l0-0.2l3.4-5.3l0.4-0.5l0.1-0.1l-0.1,1.8l5,1.6l1.4,0.4l1.1,0.2l1.5-0.5l0.2-0.4   l1.1-0.2l2.7,0.2l0.7,0.3L253.8,712.8"
       style="fill:#cc2f4a;fill-opacity:1" /><path
       id="OR_Jackson"
       inkscape:label="Jackson, OR"
       fill="#CCCCCC"
       stroke="#FFFFFF"
       stroke-width="1.1105"
       d="M282.5,702.9   l-1.4,20.1l-0.3,2.5l-1.2,17.4l-1.7-0.1l-1-0.1l-3.7-0.2l-4-0.1l-10.1-0.7l-0.8-0.1l-1.3-0.1l-3.2-0.4l-2.2,0h-0.1l2.2-28.3l0-0.3   l2.5-1.7l1.2,0.1l3,0.1l6.4-0.4l3.7-3.3l3.6-2.7l4.9-2L282.5,702.9"
       style="fill:#e27f90;fill-opacity:1" /><path
       id="OR_Douglas"
       inkscape:label="Douglas, OR"
       fill="#CCCCCC"
       stroke="#FFFFFF"
       stroke-width="1.1105"
       d="M288.1,685.2   l0.6,0.1l0.6,0.5l1.8,2.8l0.3,0.7l0.7,3.2l-3.7,6.9l-5.7,0.5l-0.2,2.9l-3.5-0.2l-4.9,2l-3.6,2.7l-3.7,3.3l-6.4,0.4l-3-0.1l-1.2-0.1   l-2.5,1.7l0,0.3l-0.5-0.9l-0.7-0.3l-2.7-0.2l-1.1,0.2l-0.2,0.4l-1.5,0.5l-1.1-0.2l-1.4-0.4l-5-1.6l0.1-1.8l-2.8-0.5l-0.1-1.4   l0.5-6.9l0.5,0l1.4-1.4l1.9-2.1l0.5-6.9l-1.2-7.2l-2.7-7.4l-4.4-0.4l-5.6-0.5l2.6-10.1l2.7,0.3l3.2,0.2l0.9-0.1l3.1-3l3.6,0.3   l1.3,0.5l1,1.4l0,0.5l2.4,2.7l1.6,0.9l3.5,1.5l6.1,0.5l-0.5,7l0.7,2.7l3.1,0.3l0.4,0l0-0.1l3.2,0.1l3.9,0.3l-0.3,4.3l7,0.3   L288.1,685.2"
       style="fill:#cc2f4a;fill-opacity:1" /><path
       id="OR_Klamath"
       inkscape:label="Klamath, OR"
       fill="#CCCCCC"
       stroke="#FFFFFF"
       stroke-width="1.1105"
       d="M292.3,678.4   l19.5,1.1l-0.6,10.5l-0.3,1.7l-0.4,3.4l-0.8,12.5l-0.3,7l9.8,0.5l3.9,0.3l-1.4,30.4l-16.9-1l-25.1-2l1.2-17.4l0.3-2.5l1.4-20.1   l0.2-2.9l5.7-0.5l3.7-6.9l-0.7-3.2l-0.3-0.7l-1.8-2.8l-0.6-0.5l-0.6-0.1L292.3,678.4"
       style="fill:#cc2f4a;fill-opacity:1" /><path
       id="OR_Lake"
       inkscape:label="Lake, OR"
       fill="#CCCCCC"
       stroke="#FFFFFF"
       stroke-width="1.1105"
       d="M311.8,679.5l10,0.5l0.4,0   l18.8,1.1l12.6,0.6l0,1.1l-0.8,10.9l-0.9,5.5l-0.7,10.6l-0.3,6.9l4.7,0.2l2.3,0l10.1,0.4l-0.6,19.8l0,5l-0.2,5.8l-19.1-0.7   l-8.6-0.3l-1.2,0l-10.9-0.5l0,0l-5.5-0.3l1.4-30.4l-3.9-0.3l-9.8-0.5l0.3-7l0.8-12.5l0.4-3.4l0.3-1.7L311.8,679.5"
       style="fill:#d40000;fill-opacity:1" /><path
       id="OR_Harney"
       inkscape:label="Harney, OR"
       fill="#CCCCCC"
       stroke="#FFFFFF"
       stroke-width="1.1105"
       d="M361.2,667.9l24.4,0.8   l0.1-3.5l4.4,0.2l2.2,0.3l10.4,0.3l-0.2,10.6l-0.1,1.4l-0.1,4.9l-0.2,11.2l-0.3,17.6l0.1,8.6l-0.2,17.3l0.4,0.7l0.1,1.4l-0.3,9.2   l-17.3-0.3l-16.3-0.6l-1.1,0l0.2-5.8l0-5l0.6-19.8l-10.1-0.4l-2.3,0l-4.7-0.2l0.3-6.9l0.7-10.6l0.9-5.5l0.8-10.9l0-1.1l0.1-3.6   l3.5,0.2l0.5-10.6L361.2,667.9"
       style="fill:#d40000;fill-opacity:1" /><path
       id="OR_Malheur"
       inkscape:label="Malheur, OR"
       fill="#CCCCCC"
       stroke="#FFFFFF"
       stroke-width="1.1105"
       d="M402.8,657.1l1.1,0   l1.2-0.6l1.8-2.3l1.8-2.4l0-1l0.6-0.6l1.2-0.5l11,0.1l1.8,1.2l1.2,1.1l0,3.5l8.3,0.1l0,0.2l0,0.3l0.2,0.6l0.6,0.6l3.7,0.7l0.2-0.2   l0.2,0l1.2,0.2l0.3,0.1l2.1,2.6l0,0l0.2,0.3l0,0.4l0,0l0,0l0,0.1l0,0.1l0,0.1l-1,2l-0.1,4.6l-0.8,2.8l-0.5,1.6l-1.5,8.1l-0.6,68.2   l-35-0.4l0.3-9.2l-0.1-1.4l-0.4-0.7l0.2-17.3l-0.1-8.6l0.3-17.6l0.2-11.2l0.1-4.9l0.1-1.4l0.2-10.6L402.8,657.1"
       style="fill:#d40000;fill-opacity:1" /><path
       id="OR_Baker"
       inkscape:label="Baker, OR"
       fill="#CCCCCC"
       stroke="#FFFFFF"
       stroke-width="1.1105"
       d="M403.1,628.7l0.9-1.3   l2.2-1.9l0.5-0.2l1.6,1.3l1.7,0.8l0.3,0l6.2,0.2l6.1,0.1l0.1-3.5l8.5,0.1l13.8,0.2l-1.1,1.5l-0.7,1l-0.4,1.6l0.2,0.8l0.2,0.4   l0.2,0.3l0.1,0.3l0,0l-0.6,1.8l-0.5,0.8l-0.6,1.1l-1.2,1.9l-2.4,1.5l-0.6,0.3l-0.2,0.1l-0.5,0.7l-4.3,9.7l-0.2,0.8l0.4,6.7   l-8.3-0.1l0-3.5l-1.2-1.1l-1.8-1.2l-11-0.1l-1.2,0.5l-0.6,0.6l0,1l-1.8,2.4l-1.8,2.3l-1.2,0.6l-1.1,0l-7.6-0.1l0-0.9l0-0.3l2.4-6.4   l0.2-0.4l1.3-1.8l1.6-2.8l0.3-0.7l2.6-11.5l-0.1-1.6l-0.1-1L403.1,628.7"
       style="fill:#d40000;fill-opacity:1" /><path
       id="OR_Wallowa"
       inkscape:label="Wallowa, OR"
       fill="#CCCCCC"
       stroke="#FFFFFF"
       stroke-width="1.1105"
       d="M411.6,586.8   l10.6,0.3l3.5,0.1l15.9,0.3l3.2,5.6l0.2,0.2l0.1,0.1l1.5,0.9l2.9,1.7l1.1,0.2l0,0l0.6,0.5l0.7,0.6l0,0l0.3,0.7l2,4.8l0,0.5   l-0.5,0.9l-2.1,3.3l-3.5,7.2l-0.5,2.2l-2.7,7.6l-13.8-0.2l0-3.4l-6-0.1l-1.2-4.2l-0.5-1.1l-1.2-1.7l-1.1,0l-0.6-1l-1.1-2.7   l-1.2-3.5l-1.6-7.1l0-3.4l0.8-1.1l0.4-2.3l-6.4-0.1L411.6,586.8"
       style="fill:#cc2f4a;fill-opacity:1" /><path
       id="OR_Union"
       inkscape:label="Union, OR"
       fill="#CCCCCC"
       stroke="#FFFFFF"
       stroke-width="1.1105"
       d="M411.6,592.4l6.4,0.1   l-0.4,2.3l-0.8,1.2l0,3.4l1.6,7.1l1.2,3.5l1.1,2.7l0.6,1l1.1,0l1.2,1.7l0.5,1.2l1.2,4.2l6,0.1l0,3.4l-8.5-0.1l-0.1,3.5l-6.1-0.1   l-6.2-0.2l-0.3,0l-1.7-0.8l-1.6-1.3l-0.5,0.2l-2.2,1.9l-0.9,1.3l-7.8-1.7l0.1-3.4l-0.7-4.7l-3.1-0.1l-1.1-2.5l0.1-3.5l2.4-0.3   l5.3,0.1l6.6-2.7l1.9-1.7l0.4-1.8l0.2-7l2.1-5.1L411.6,592.4"
       style="fill:#cc2f4a;fill-opacity:1" /><path
       id="OR_Grant"
       inkscape:label="Grant, OR"
       fill="#CCCCCC"
       stroke="#FFFFFF"
       stroke-width="1.1105"
       d="M362.4,626l14.5,0.4   l18.4,0.5l7.8,1.7l0.3,0.7l0.1,1l0.1,1.6l-2.6,11.5l-0.3,0.7l-1.6,2.8l-1.3,1.8l-0.2,0.4l-2.4,6.4l0,0.3l0,0.9l7.6,0.1l-0.1,8.8   l-10.4-0.3l-2.2-0.3l-4.4-0.2l-0.1,3.5l-24.4-0.8l0.6-14.1l0.9-20.9l-0.5-2.8L362.4,626"
       style="fill:#d40000;fill-opacity:1" /><path
       id="OR_Wheeler"
       inkscape:label="Wheeler, OR"
       fill="#CCCCCC"
       stroke="#FFFFFF"
       stroke-width="1.1105"
       d="M339,622l20.1,0.9   l3.3,3.1l-0.1,4.1l0.5,2.8l-0.9,20.9l-6.3-0.3l-0.5-3.2l-3.5-2.3l-10.5-0.4l0-1.6l0.2-3.6l0.9-10.4L339,622"
       style="fill:#d40000;fill-opacity:1" /><path
       id="OR_Crook"
       inkscape:label="Crook, OR"
       fill="#CCCCCC"
       stroke="#FFFFFF"
       stroke-width="1.1105"
       d="M341.2,642.5l-0.2,3.6   l0,1.6l10.5,0.4l3.5,2.3l0.5,3.2l6.3,0.3l-0.6,14.1l-3.4-0.1l-0.5,10.6l-3.5-0.2l-9.9-0.4l-0.6-0.1l0.2-3.5l-3.4-3.7l-10.7-0.5   l0.1-3.5l-2.8-0.2l-4-0.3l0.3-7l-3.3-0.3l0-3.3l0.4-7l3.4,0.2l0.2-3.5l4.6,0.2l0.2-3.5L341.2,642.5"
       style="fill:#d40000;fill-opacity:1" /><path
       id="OR_Deschutes"
       inkscape:label="Deschutes, OR"
       fill="#CCCCCC"
       stroke="#FFFFFF"
       stroke-width="1.1105"
       d="M298.9,647.3   l21.2,1.3l-0.4,7l0,3.3l3.3,0.3l-0.3,7l4,0.3l2.8,0.2l-0.1,3.5l10.7,0.5l3.4,3.7l-0.2,3.5l0.6,0.1l9.9,0.4l-0.1,3.6l-12.6-0.6   l-18.8-1.1l-0.4,0l-10-0.5l-19.5-1.1l0.5-1.5l0.5-2.2l0.5-4l3-4.5l3.2-6.6l0.2-0.9l-0.2-1.9l-0.4-4L298.9,647.3"
       style="fill:#f2b3be;fill-opacity:1" /><path
       id="OR_Jefferson"
       inkscape:label="Jefferson, OR"
       fill="#CCCCCC"
       stroke="#FFFFFF"
       stroke-width="1.1105"
       d="M302.3,629.9   l19.1,1.1l3.2,0.2l17.4,0.9l-0.9,10.4l-12.7-0.5l-0.2,3.5l-4.6-0.2l-0.2,3.5l-3.4-0.2l-21.2-1.3l2.1-11.7L302.3,629.9"
       style="fill:#cc2f4a;fill-opacity:1" /><path
       id="OR_Linn"
       inkscape:label="Linn, OR"
       fill="#CCCCCC"
       stroke="#FFFFFF"
       stroke-width="1.1105"
       d="M262.5,630.3l2.9,0.7   l3.7,0l3.2-1.2l4.5,0.2l9.2,1.6l1.1,0.3l3.7,1.6l3.4,1.5l2,0.2l4.8,0.3l-2.1,11.7l0.9,5.5l-6.6-0.4l-8.6-0.4l-0.2,0.4l0,0.2   l0.1,0.1l-0.1,0.3l-1.2,0.8l-0.4,0l-3.5-0.8l-2.1-0.7l-1.2-0.6l-1.2-0.9l-0.8-0.4l-1.8-0.6l-3-0.1l-1.2,1.1l-0.1,0.9l-0.1,1.5   l-6.4-0.5l-1.1-0.2l0.1-1.2l-0.2-1.8l-0.1-0.2l-0.2-0.2l-0.4,0l-0.1,0l-0.1-0.2l-0.6-2.1l0.9-8.1l4.6-4.3l-2-2.8L262.5,630.3"
       style="fill:#e27f90;fill-opacity:1" /><path
       id="OR_Lane"
       inkscape:label="Lane, OR"
       fill="#CCCCCC"
       stroke="#FFFFFF"
       stroke-width="1.1105"
       d="M233.1,647.2l9.8,0.5   l5.2,0.6l6.4,0.3l4.9,0.4l0.4,0l0.2,0.2l0.1,0.2l0.2,1.8l-0.1,1.2l1.1,0.2l6.4,0.5l0.1-1.5l0.1-0.9l1.2-1.1l3,0.1l1.8,0.6l0.8,0.4   l1.2,0.9l1.2,0.6l2.1,0.7l3.5,0.8l0.4,0l1.2-0.8l0.1-0.3l-0.1-0.1l0-0.2l0.2-0.4l8.6,0.4l6.6,0.4l0.4,4l0.2,1.9l-0.2,0.9l-3.2,6.6   l-3,4.5l-0.5,4l-0.5,2.2l-0.5,1.5l-4.2,6.8l-10.7-0.7l-7-0.3l0.3-4.3l-3.9-0.3l-3.2-0.1l0,0.1l-0.4,0l-3.1-0.3l-0.7-2.7l0.5-7   l-6.1-0.5l-3.5-1.5l-1.6-0.9l-2.4-2.7l0-0.5l-1-1.4l-1.3-0.5l-3.6-0.3l-3.1,3l-0.9,0.1l-3.2-0.2l-2.7-0.3L233.1,647.2"
       style="fill:#86b6f2;fill-opacity:1" /><path
       id="OR_Benton"
       inkscape:label="Benton, OR"
       fill="#CCCCCC"
       stroke="#FFFFFF"
       stroke-width="1.1105"
       d="M262.2,631.5l2,2.8   l-4.6,4.3l-0.9,8.1l0.6,2.1l0.1,0.2l0.1,0l-4.9-0.4l-6.4-0.3l-5.2-0.6l-0.2-1.3l0.1-1.1l3.8-3.3l1.9,0.2l0.7-8.5l0.1-3.1   L262.2,631.5"
       style="fill:#4389e3;fill-opacity:1" /><path
       id="OR_Lincoln"
       inkscape:label="Lincoln, OR"
       fill="#CCCCCC"
       stroke="#FFFFFF"
       stroke-width="1.1105"
       d="M246.8,617.2   l-1,12.3l0.5,0.8l2.9,0.2l-0.1,3.1l-0.7,8.5l-1.9-0.2l-3.8,3.3l-0.1,1.1l0.2,1.3l-9.8-0.5l0.6-2.2l0.9-3.5l0.1-0.4l1-7.1l2-11.7   l1.3-5.7L246.8,617.2"
       style="fill:#86b6f2;fill-opacity:1" /><path
       id="OR_Polk"
       inkscape:label="Polk, OR"
       fill="#CCCCCC"
       stroke="#FFFFFF"
       stroke-width="1.1105"
       d="M246.8,617.2l0.1-1.3   l18.6,1.5l-0.1,1.4l-1.5,4.3l-0.1,0.1l-1.1,2l-0.5,1.9l0,3l0.1,0.2l-0.3,1.2l-13-1l-2.9-0.2l-0.5-0.8L246.8,617.2"
       style="fill:#f2b3be;fill-opacity:1" /><path
       id="OR_Yamhill"
       inkscape:label="Yamhill, OR"
       fill="#CCCCCC"
       stroke="#FFFFFF"
       stroke-width="1.1105"
       d="M255.4,602l9.3,0.7   l2,1.3l1.9,1.5l2.2,2.1l1.1,0.4l0.4,2.4l-2.5-0.5l-2.5,3.1l0.1,0.6l-0.1,1.6l-0.4,1.4l-1.4,1l-18.6-1.5l-1.7-0.1l0.5-5.6l9.1,0.7   l0.3-3.9L255.4,602"
       style="fill:#e27f90;fill-opacity:1" /><path
       id="OR_Marion"
       inkscape:label="Marion, OR"
       fill="#CCCCCC"
       stroke="#FFFFFF"
       stroke-width="1.1105"
       d="M272.4,610.4l0.5-0.5   l1.4,0.1l1.2,0.7l-0.4,2.6l-0.2,0.6l-0.3,0.6l-0.2,0.1l-0.3,0.7l-0.2,0.6l2.1,3l5.2,6l3.1,1.6l11.3,0.6l7.6,0.5l-0.9,2.5l-1.3,5.7   l-4.8-0.3l-2-0.2l-3.4-1.5l-3.7-1.6l-1.1-0.3l-9.2-1.6l-4.5-0.2l-3.2,1.2l-3.7,0l-2.9-0.7l-0.1-0.2l0-3l0.5-1.9l1.1-2l0.1-0.1   l1.5-4.3l0.1-1.4l1.4-1l0.4-1.4l0.1-1.6l-0.1-0.6l2.5-3.1L272.4,610.4"
       style="fill:#f2b3be;fill-opacity:1" /><path
       id="OR_Clackamas"
       inkscape:label="Clackamas, OR"
       fill="#CCCCCC"
       stroke="#FFFFFF"
       stroke-width="1.1105"
       d="M275.9,603.6   l2.7,0.2l-0.3-1l0.6-0.1l23.3,1.5l3,8.4l-1.6,2l-0.1,0.3l-2,7.4l0,0.2l0,2.8l0.1,0.1l1.6,2l-7.6-0.5l-11.3-0.6l-3.1-1.6l-5.2-6   l-2.1-3l0.2-0.6l0.3-0.7l0.2-0.1l0.3-0.6l0.2-0.6l0.4-2.6l-1.2-0.7l-1.4-0.1l-0.5,0.5L272,608L275.9,603.6"
       style="fill:#b9d7ff;fill-opacity:1" /><path
       id="OR_Umatilla"
       inkscape:label="Umatilla, OR"
       fill="#CCCCCC"
       stroke="#FFFFFF"
       stroke-width="1.1105"
       d="M383.2,586.1   l27.9,0.7l0.5,0l0,5.7l-2.1,1.7l-2.1,5.1l-0.2,7l-0.4,1.8l-1.9,1.7l-6.6,2.7l-5.3-0.1l-2.4,0.3l-0.1,3.5l1.1,2.5l3.1,0.1l0.7,4.7   l-0.1,3.4l-18.4-0.5l0.6-3.5l0.6-17.5l-2.8-3.6l-5.3-0.2l0.4-10.6l0.1-2l1.6-0.2l4.3-0.3l0.8,0.2l0.7,0l1.2-0.2l0.9-0.4l1.9-1   l0.5-0.4L383.2,586.1"
       style="fill:#cc2f4a;fill-opacity:1" /><path
       id="OR_Morrow"
       inkscape:label="Morrow, OR"
       fill="#CCCCCC"
       stroke="#FFFFFF"
       stroke-width="1.1105"
       d="M354.3,592.6l3.8-0.8   l2.7-0.3l2.9-0.3l5.2-1.8l1.6-0.2l-0.1,2l-0.4,10.6l5.3,0.2l2.8,3.6l-0.6,17.5l-0.6,3.5l-14.5-0.4l-3.3-3.1l0.9-0.5l0.1-3.5   l-3.4-2.7l-3.5-1.2l0.5-10.5l0.3-4L354.3,592.6"
       style="fill:#cc2f4a;fill-opacity:1" /><path
       id="OR_Gilliam"
       inkscape:label="Gilliam, OR"
       fill="#CCCCCC"
       stroke="#FFFFFF"
       stroke-width="1.1105"
       d="M335.7,594.8   l0.5-0.3l1.2,0l0.9,0.4l1,1.2l0.4,0.4l0.6,0.3l2.2-0.1l5.5-0.8l1.2-1.4l0.8-0.4l4-1.4l0,0l-0.4,7.9l-0.3,4l-0.5,10.5l3.5,1.2   l3.4,2.7l-0.1,3.5l-0.9,0.5L339,622l-0.2-0.6l0.8-1.1l-0.3-3.5l-1.5-2.3l0.7-3l0.9-3.2l2.9-2.5l0.9-0.7l0.3-0.1l0.2-0.5l-1.3-3.6   l-2.7-2.9l-3-2.4L335.7,594.8"
       style="fill:#cc2f4a;fill-opacity:1" /><path
       id="OR_Sherman"
       inkscape:label="Sherman, OR"
       fill="#CCCCCC"
       stroke="#FFFFFF"
       stroke-width="1.1105"
       d="M328.1,598.3   l1.3-0.7l2.3-0.9l2.9-1l1.1-0.8l1,0.7l3,2.4l2.7,2.9l1.3,3.6l-0.2,0.5l-0.3,0.1l-0.9,0.7l-2.9,2.5l-0.9,3.2l-0.7,3l1.5,2.3l0.3,3.5   l-0.8,1.1l-4.5-0.2l-1.6-1l-4.9-4.1l-1.1-5.2l2.4-2.7l1-3.2l0.3-1.1l0-0.3L328.1,598.3"
       style="fill:#d40000;fill-opacity:1" /><path
       id="OR_Wasco"
       inkscape:label="Wasco, OR"
       fill="#CCCCCC"
       stroke="#FFFFFF"
       stroke-width="1.1105"
       d="M313.4,595.3l1.9-0.1   l1,0l11,2.5l0.8,0.7l2.1,5.2l0,0.3l-0.3,1.1l-1,3.2l-2.4,2.7l1.1,5.2l4.9,4.1l1.6,1l4.5,0.2l0.2,0.6l3.1,10.1l-17.4-0.9l-3.2-0.2   l-19.1-1.1l0.9-2.5l-1.6-2l-0.1-0.1l0-2.8l0-0.2l2-7.4l0.1-0.3l1.6-2l6.1,0.3l0.1-1.3l0.5-9.3l0.9-2.3L313.4,595.3"
       style="fill:#e27f90;fill-opacity:1" /><path
       id="OR_Hood_River"
       inkscape:label="Hood River, OR"
       fill="#CCCCCC"
       stroke="#FFFFFF"
       stroke-width="1.1105"
       d="M299.7,596.4   l0.6-0.9l1-0.9l1.6-0.4l2.1,0.6l0.8,0l2.3-0.3l3-0.6l2.2,1.2l-0.7,4.8l-0.9,2.3l-0.5,9.3l-0.1,1.3l-6.1-0.3l-3-8.4L299.7,596.4"
       style="fill:#4389e3;fill-opacity:1" /><path
       id="OR_Multnomah"
       inkscape:label="Multnomah, OR"
       fill="#CCCCCC"
       stroke="#FFFFFF"
       stroke-width="1.1105"
       d="M276.2,591.7   l-0.4,1.1l-0.1,0.8l0.2,1l0.7,0.6l1.7,1.2l0.9,0.4l8.7,3.1l1,0.2l0,0l0.8,0l0.1,0l0.5-0.1l9.5-3.5l2.4,7.7l-23.3-1.5l-0.6,0.1   l0.3,1l-2.7-0.2l-0.3-3.9l-0.6-0.2l-2.2-2.5l-1.6-2.2l0.2-3.2L276.2,591.7"
       style="fill:#1666cb;fill-opacity:1" /><path
       id="OR_Washington"
       inkscape:label="Washington, OR"
       fill="#CCCCCC"
       stroke="#FFFFFF"
       stroke-width="1.1105"
       d="M271.5,591.6   l-0.2,3.2l1.6,2.2l2.2,2.5l0.6,0.2l0.3,3.9L272,608l-1.1-0.4l-2.2-2.1l-1.9-1.5l-2-1.3l-9.3-0.7l-0.6,0l0.1-0.6l2.3-7.4l2-2.8   l0.2-2.8l9.3,0.7L271.5,591.6"
       style="fill:#86b6f2;fill-opacity:1" /><path
       id="OR_Tillamook"
       inkscape:label="Tillamook, OR"
       fill="#CCCCCC"
       stroke="#FFFFFF"
       stroke-width="1.1105"
       d="M259.5,588.4   l-0.2,2.8l-2,2.8l-2.3,7.4l-0.1,0.6l0.6,0l-0.3,4.8l-0.3,3.9l-9.1-0.7l-0.5,5.6l1.7,0.1l-0.1,1.3l-8-0.7l0.6-1.9l0.1-0.2l0,0   l0.5-1.7l0-0.1l0.1-0.6l0.3-1.7l2.4-18.5l0.1-1.9l0-0.7l-0.1-0.3l-0.5-2.1l7,0.6l0.1,0.4l0.1,0l6.5,0.4L259.5,588.4"
       style="fill:#f2b3be;fill-opacity:1" /></g></svg>