<?xml version="1.0" encoding="UTF-8" standalone="no"?>
<!-- Generator: Adobe Illustrator 18.1.1, SVG Export Plug-In . SVG Version: 6.00 Build 0)  -->

<svg
   xmlns:dc="http://purl.org/dc/elements/1.1/"
   xmlns:cc="http://creativecommons.org/ns#"
   xmlns:rdf="http://www.w3.org/1999/02/22-rdf-syntax-ns#"
   xmlns:svg="http://www.w3.org/2000/svg"
   xmlns="http://www.w3.org/2000/svg"
   xmlns:sodipodi="http://sodipodi.sourceforge.net/DTD/sodipodi-0.dtd"
   xmlns:inkscape="http://www.inkscape.org/namespaces/inkscape"
   version="1.1"
   id="svg7095"
   sodipodi:version="0.32"
   inkscape:version="0.91 r"
   sodipodi:docname="Pennsylvania_Presidential_Election_Results_2016.svg"
   inkscape:output_extension="org.inkscape.output.svg.inkscape"
   x="0px"
   y="0px"
   width="223.1px"
   height="130px"
   viewBox="-143 157.3 223.1 130"
   enable-background="new -143 157.3 223.1 130"
   xml:space="preserve"><metadata
     id="metadata5514"><rdf:RDF><cc:Work
         rdf:about=""><dc:format>image/svg+xml</dc:format><dc:type
           rdf:resource="http://purl.org/dc/dcmitype/StillImage" /></cc:Work></rdf:RDF></metadata><defs
     id="defs5442"><inkscape:perspective
       inkscape:persp3d-origin="372.04724 : 350.78739 : 1"
       sodipodi:type="inkscape:persp3d"
       inkscape:vp_x="0 : 526.18109 : 1"
       inkscape:vp_y="0 : 1000 : 0"
       inkscape:vp_z="744.09448 : 526.18109 : 1"
       id="perspective7103" /></defs><sodipodi:namedview
     inkscape:window-maximized="0"
     pagecolor="#ffffff"
     bordercolor="#666666"
     borderopacity="1.0"
     gridtolerance="10000"
     guidetolerance="10"
     objecttolerance="10"
     inkscape:zoom="2.4555103"
     inkscape:cx="79.550277"
     inkscape:cy="50.497452"
     showgrid="false"
     id="base"
     inkscape:document-units="px"
     inkscape:pageopacity="0.0"
     inkscape:pageshadow="2"
     inkscape:current-layer="layer1"
     inkscape:window-width="1917"
     inkscape:window-height="789"
     inkscape:window-x="0"
     inkscape:window-y="200" /><g
     id="layer1"
     transform="translate(-339.51327,-422.56309)"
     inkscape:label="Layer 1"
     inkscape:groupmode="layer"><path
       id="PA_Philadelphia"
       inkscape:label="Philadelphia, PA"
       fill="#CCCCCC"
       stroke="#FFFFFF"
       stroke-width="0.9443"
       d="   M404.4,677.9l-2.7,3l-3.3,4.6l-1.7,1.8l-2.8-5l2-2l-1.7-1.7l2.4-2.8l1.8,1.6l4.1-3.5L404.4,677.9"
       style="fill:#0645b4;fill-opacity:1" /><path
       id="PA_Bucks"
       inkscape:label="Bucks, PA"
       fill="#CCCCCC"
       stroke="#FFFFFF"
       stroke-width="0.9443"
       d="M394.4,652.9l4.7,2.7   l1.9,5.7l3.1,2.5l0.2,0.2l8.5,8.5l-8.5,5.5l-1.8-4.1L384.8,662l4.8-6.1l4.6-3.8L394.4,652.9"
       style="fill:#b9d7ff;fill-opacity:1" /><path
       id="PA_Greene"
       inkscape:label="Greene, PA"
       fill="#CCCCCC"
       stroke="#FFFFFF"
       stroke-width="0.9443"
       d="M206.4,694.3l7.7-3   l0.4,0l3.9,0.5l6.6,0.9l3.4,12.3l-18.2,0.6l-3.5,0.1L206.4,694.3"
       style="fill:#cc2f4a;fill-opacity:1" /><path
       id="PA_Fayette"
       inkscape:label="Fayette, PA"
       fill="#CCCCCC"
       stroke="#FFFFFF"
       stroke-width="0.9443"
       d="M229.1,685.7   l4.8-0.3l8.5-1l0.9-0.1l0.9,0.3l0.3,0.2l5.7,4l-1.2,2.3l-2.2,4.5l-0.6,2.3l0.5,5.6l0.7,0.6l-3,0.1l-10.3,0.5l-5.5,0.2l-3.4-12.3   L229.1,685.7"
       style="fill:#cc2f4a;fill-opacity:1" /><path
       id="PA_Washington"
       inkscape:label="Washington, PA"
       fill="#CCCCCC"
       stroke="#FFFFFF"
       stroke-width="0.9443"
       d="M211.2,669.7   l6.6,6.7l7.8,4.5l3.6,1.5l-0.1,3.4l-4,7l-6.6-0.9l-3.9-0.5l-0.4,0l-7.7,3l-0.3-9.4l-0.4-11.4l-0.1-3.7L211.2,669.7"
       style="fill:#cc2f4a;fill-opacity:1" /><path
       id="PA_Allegheny"
       inkscape:label="Allegheny, PA"
       fill="#CCCCCC"
       stroke="#FFFFFF"
       stroke-width="0.9443"
       d="M234.6,659.7   L234.6,659.7l0.1,10.7v0.8l-0.1,0.2l-3.1,9.2l-0.4,0.8l-1.9,0.9l-3.6-1.5l-7.8-4.5l-6.6-6.7l4.6-4.7l2.9-2l-0.2-2.9L234.6,659.7"
       style="fill:#86b6f2;fill-opacity:1" /><path
       id="PA_Beaver"
       inkscape:label="Beaver, PA"
       fill="#CCCCCC"
       stroke="#FFFFFF"
       stroke-width="0.9443"
       d="M205,652.2l12.7-0.6   l0.7,8.5l0.2,2.9l-2.9,2l-4.6,4.7l-5.6,0.2l-0.3-7.7L205,652.2"
       style="fill:#e27f90;fill-opacity:1" /><path
       id="PA_Lawrence"
       inkscape:label="Lawrence, PA"
       fill="#CCCCCC"
       stroke="#FFFFFF"
       stroke-width="0.9443"
       d="M219.5,641.3   l-1.8,10.3l-12.7,0.6l-0.1-2.3l-0.3-10.7l9.2-0.4l3.9,0.5L219.5,641.3"
       style="fill:#cc2f4a;fill-opacity:1" /><path
       id="PA_Butler"
       inkscape:label="Butler, PA"
       fill="#CCCCCC"
       stroke="#FFFFFF"
       stroke-width="0.9443"
       d="M233.7,635.9l0.9,23.8   l-16.2,0.4l-0.7-8.5l1.8-10.3l3.2-5l10.7-0.5L233.7,635.9"
       style="fill:#cc2f4a;fill-opacity:1" /><path
       id="PA_Armstrong"
       inkscape:label="Armstrong, PA"
       fill="#CCCCCC"
       stroke="#FFFFFF"
       stroke-width="0.9443"
       d="M250.7,640.9   l0.3,6.6l0.3,6.4l-5.3,8.2l-2.5,3.8l-8.9-6.2l0,0l-0.9-23.8l0.5,3.3l0.1,0.4l0.6,2l3.5,2.9l0.7,0.2l1,0.2l0.7-0.1l2.6-0.6l4-1   L250.7,640.9"
       style="fill:#d40000;fill-opacity:1" /><path
       id="PA_Clarion"
       inkscape:label="Clarion, PA"
       fill="#CCCCCC"
       stroke="#FFFFFF"
       stroke-width="0.9443"
       d="M240.7,625.4   l2.7-0.1l-0.1-2.3l1.5-0.1l5.3,0l0.2,4.7l0.4,13.3l-3.4,2.4l-4,1l-2.6,0.6L240,645l-1-0.2l-0.7-0.2l-3.5-2.9l-0.6-2l-0.1-0.4   l-0.5-3.3l-0.2-0.1l1.4-3.9l0.7-1.1l0.8-0.9l1.8-1.3l0.4,0l2.2-0.8L240.7,625.4"
       style="fill:#d40000;fill-opacity:1" /><path
       id="PA_Forest"
       inkscape:label="Forest, PA"
       fill="#CCCCCC"
       stroke="#FFFFFF"
       stroke-width="0.9443"
       d="M239,614.2l19.5-0.9   l0.2,6.4l-0.5,1.8l-3,0.1l-1,1.5l0.1,3.9l-4,0.6l-0.2-4.7l-5.3,0l-1.5,0.1l0.1,2.3l-2.7,0.1l-0.1-2.6l-1.3-3.1L239,614.2"
       style="fill:#d40000;fill-opacity:1" /><path
       id="PA_Venango"
       inkscape:label="Venango, PA"
       fill="#CCCCCC"
       stroke="#FFFFFF"
       stroke-width="0.9443"
       d="M239,614.2l0.3,5.6   l1.3,3.1l0.1,2.6l0.1,2.4l-2.2,0.8l-0.4,0l-1.8,1.3l-0.8,0.9l-0.7,1.1l-1.4,3.9l-10.7,0.5l-0.6-15.1l1.4-1.2l4.4-4.4l7.6-1l0-0.3   L239,614.2"
       style="fill:#cc2f4a;fill-opacity:1" /><path
       id="PA_Mercer"
       inkscape:label="Mercer, PA"
       fill="#CCCCCC"
       stroke="#FFFFFF"
       stroke-width="0.9443"
       d="M204,622l18.2-0.7   l0.6,15.1l-3.2,5l-1.9-2l-3.9-0.5l-9.2,0.4l0-0.4L204,622"
       style="fill:#cc2f4a;fill-opacity:1" /><path
       id="PA_Crawford"
       inkscape:label="Crawford, PA"
       fill="#CCCCCC"
       stroke="#FFFFFF"
       stroke-width="0.9443"
       d="M235,603.6   l0.4,10.7l0,0.3l-7.6,1l-4.4,4.4l-1.4,1.2L204,622l0-0.5l-0.5-16.6l21.3-0.8l7.9-0.4L235,603.6"
       style="fill:#cc2f4a;fill-opacity:1" /><path
       id="PA_Erie"
       inkscape:label="Erie, PA"
       fill="#CCCCCC"
       stroke="#FFFFFF"
       stroke-width="0.9443"
       d="M234.8,596.6l0.2,7.1   l-2.5,0l-7.9,0.4l-21.3,0.8l-0.2-6.1l6.5-3l8.8-5.5l6.9-4.3l3.6-2l0,1.3l0.2,5.3l0.3,6.3l4.7-0.2L234.8,596.6"
       style="fill:#f2b3be;fill-opacity:1" /><path
       id="PA_Westmoreland"
       inkscape:label="Westmoreland, PA"
       fill="#CCCCCC"
       stroke="#FFFFFF"
       stroke-width="0.9443"
       d="   M243.5,665.9l-0.3,0.6l0.3,1.6l0.1,0.1l2.2,1.2l8.5,1.6l6.4,0.4l-2.6,5.4l-7.9,12l-5.7-4l-0.3-0.2l-0.9-0.3l-0.9,0.1l-8.5,1   l-4.8,0.3l0.1-3.4l1.9-0.9l0.4-0.8l3.1-9.2l0.1-0.2v-0.8l-0.1-10.7L243.5,665.9"
       style="fill:#cc2f4a;fill-opacity:1" /><path
       id="PA_Indiana"
       inkscape:label="Indiana, PA"
       fill="#CCCCCC"
       stroke="#FFFFFF"
       stroke-width="0.9443"
       d="M251,647.5l14.5-0.4   l0.6,8.6l-5.4,15.9l-6.4-0.4l-8.5-1.6l-2.2-1.2l-0.1-0.1l-0.3-1.6l0.3-0.6l2.5-3.8l5.3-8.2L251,647.5"
       style="fill:#cc2f4a;fill-opacity:1" /><path
       id="PA_Jefferson"
       inkscape:label="Jefferson, PA"
       fill="#CCCCCC"
       stroke="#FFFFFF"
       stroke-width="0.9443"
       d="M250.3,627.5   l4-0.6l0.8-0.6l4-0.6l8.1,4.3l1,1.5l0.1,1.4l-2,0.1l-1,2.8l0,0.1l-0.1,1.4l0.5,9.9l-14.5,0.4l-0.3-6.6L250.3,627.5"
       style="fill:#d40000;fill-opacity:1" /><path
       id="PA_Warren"
       inkscape:label="Warren, PA"
       fill="#CCCCCC"
       stroke="#FFFFFF"
       stroke-width="0.9443"
       d="M253.9,595.7l5-0.2   l0.2,2.1l0.3,5.3l-0.2,0.5l-1,0.1l0.2,9.8l-19.5,0.9l-3.5,0.2l-0.4-10.7l-0.2-7.1L253.9,595.7"
       style="fill:#cc2f4a;fill-opacity:1" /><path
       id="PA_McKean"
       inkscape:label="McKean, PA"
       fill="#CCCCCC"
       stroke="#FFFFFF"
       stroke-width="0.9443"
       d="M280.2,594.3l3.5-0.2   l1.1,18.1l-7.5,1.2l-2.3-1.2l-4.8,0.3l-1.8,0.2l-5.4,0.4l-4.5,0.2l-0.2-9.8l1-0.1l0.2-0.5l-0.3-5.3l-0.2-2.1l1.5-0.1l9.7-0.6   L280.2,594.3"
       style="fill:#d40000;fill-opacity:1" /><path
       id="PA_Cameron"
       inkscape:label="Cameron, PA"
       fill="#CCCCCC"
       stroke="#FFFFFF"
       stroke-width="0.9443"
       d="M277.3,613.3   l7.5-1.2l7.9,6.3l-2.9,12.4l-5.1-0.4l-0.2-4.4l-0.9-3.8l-5.8,0.3L277.3,613.3"
       style="fill:#d40000;fill-opacity:1" /><path
       id="PA_Elk"
       inkscape:label="Elk, PA"
       fill="#CCCCCC"
       stroke="#FFFFFF"
       stroke-width="0.9443"
       d="M258.5,613.3l4.5-0.2   l5.4-0.4l1.8-0.2l4.8-0.3l2.3,1.2l0.5,9.3l5.8-0.3l0.9,3.8l0.2,4.4l-11.3-0.2l-3.1,0.2l-2.1,2.3l-0.1-1.4l-1-1.5l-8.1-4.3l-4,0.6   l-0.8,0.6l-0.1-3.9l1-1.5l3-0.1l0.5-1.8L258.5,613.3"
       style="fill:#d40000;fill-opacity:1" /><path
       id="PA_Clearfield"
       inkscape:label="Clearfield, PA"
       fill="#CCCCCC"
       stroke="#FFFFFF"
       stroke-width="0.9443"
       d="M284.7,630.6   l5.1,0.4l2.1,2.9l-0.4,5.6l-0.1,1.1l-0.8,2.9l-0.2,0.2l-2.1,0.5l-1.9,1.3l-0.4,0.4l-5,7.7l0,0.2l0.5,0.8l0.5,0.4l-16,0.9l-0.6-8.6   l-0.5-9.9l0.1-1.4l0-0.1l1-2.8l2-0.1l2.1-2.3l3.1-0.2L284.7,630.6"
       style="fill:#d40000;fill-opacity:1" /><path
       id="PA_Blair"
       inkscape:label="Blair, PA"
       fill="#CCCCCC"
       stroke="#FFFFFF"
       stroke-width="0.9443"
       d="M281.6,654.4l8.7-0.8   l-2.9,2.1l-0.5,0.7l-0.2,0.5l1.2,5.4l1.8,1.5l0.8,1.7l0,0.3l-0.1,0.4l-0.6,1.7l-3.2,6.9l-0.4,1.2l-0.5,1.3l-5.6-1.1l-6.5-2.1   l8.6-19.4L281.6,654.4"
       style="fill:#d40000;fill-opacity:1" /><path
       id="PA_Cambria"
       inkscape:label="Cambria, PA"
       fill="#CCCCCC"
       stroke="#FFFFFF"
       stroke-width="0.9443"
       d="M266,655.6l16-0.9   l-8.6,19.4l-1.1,4.1l-3.3,0.2l-4.7,0.1l-0.6-1.1l-1.2-0.7l-4.6,0.2l2.6-5.4L266,655.6"
       style="fill:#cc2f4a;fill-opacity:1" /><path
       id="PA_Somerset"
       inkscape:label="Somerset, PA"
       fill="#CCCCCC"
       stroke="#FFFFFF"
       stroke-width="0.9443"
       d="M272.3,678.2   l-2.5,8.4l0,11.7l-0.3,1.3l-1.3,3.5l-21,1.1l-0.7-0.6l-0.5-5.6l0.6-2.3l2.2-4.5l1.2-2.3l7.9-12l4.6-0.2l1.2,0.7l0.6,1.1l4.7-0.1   L272.3,678.2"
       style="fill:#d40000;fill-opacity:1" /><path
       id="PA_Bedford"
       inkscape:label="Bedford, PA"
       fill="#CCCCCC"
       stroke="#FFFFFF"
       stroke-width="0.9443"
       d="M273.5,674.1   l6.5,2.1l5.6,1.1l0.5-1.3l0.4-1.2l4.7,6l-0.7,2.1l-2,6.7l-2.2,7.6l-1.4,3l-1.3,2.1l-15.4,0.8l1.3-3.5l0.3-1.3l0-11.7l2.5-8.4   L273.5,674.1"
       style="fill:#aa0000;fill-opacity:1" /><path
       id="PA_Fulton"
       inkscape:label="Fulton, PA"
       fill="#CCCCCC"
       stroke="#FFFFFF"
       stroke-width="0.9443"
       d="M291.2,680.8l2.1,1.4   l5.5,1.1l2.3,1.8l-0.4,0.3l-0.2,0.3l-1.2,2.2l-0.5,2.6l-1.4,4.4l-0.7,1.6l-2.1,3.7l-1,1.4l-8.8,0.5l-1.4,0.1l1.3-2.1l1.4-3l2.2-7.6   l2-6.7L291.2,680.8"
       style="fill:#aa0000;fill-opacity:1" /><path
       id="PA_Huntingdon"
       inkscape:label="Huntingdon, PA"
       fill="#CCCCCC"
       stroke="#FFFFFF"
       stroke-width="0.9443"
       d="M290.3,653.6   l6.2,1.9l8.2-1.6l1-0.8l-0.4,1l-2.5,4.1l-1.3,1.8l-0.6,1.1l-0.4,0.8l-2,6.7l1.6,1.8l0.3,0.3l0.9,0l2.4-0.4l0.3-0.5l2.1,5.4   l-5.2,9.9l-2.3-1.8l-5.5-1.1l-2.1-1.4l-4.7-6l3.2-6.9l0.6-1.7l0.1-0.4l0-0.3l-0.8-1.7l-1.8-1.5l-1.2-5.4l0.2-0.5l0.5-0.7   L290.3,653.6"
       style="fill:#d40000;fill-opacity:1" /><path
       id="PA_Franklin"
       inkscape:label="Franklin, PA"
       fill="#CCCCCC"
       stroke="#FFFFFF"
       stroke-width="0.9443"
       d="M306.4,675.2   l1-1.3l2.3,4.2l-0.5,0.5l0.8,1.6l4.5,6.7l1,2.8l1.1,10.6l-0.4,0l-22.6,1.3l1-1.4l2.1-3.7l0.7-1.6l1.4-4.4l0.5-2.6l1.2-2.2l0.2-0.3   l0.4-0.3L306.4,675.2"
       style="fill:#d40000;fill-opacity:1" /><path
       id="PA_Mifflin"
       inkscape:label="Mifflin, PA"
       fill="#CCCCCC"
       stroke="#FFFFFF"
       stroke-width="0.9443"
       d="M316.6,646.8   l0.4,1.9l2.8,5.2l-2.1,1.1l-1.2,0.7l-2.4,1.6l-1.3,1l-3.9,5l-4.5,6.7l-0.3,0.5l-2.4,0.4l-0.9,0l-0.3-0.3l-1.6-1.8l2-6.7l0.4-0.8   l0.6-1.1l1.3-1.8l2.5-4.1l0.4-1L316.6,646.8"
       style="fill:#d40000;fill-opacity:1" /><path
       id="PA_Potter"
       inkscape:label="Potter, PA"
       fill="#CCCCCC"
       stroke="#FFFFFF"
       stroke-width="0.9443"
       d="M304.4,592.9l1.7,21.6   l0.3,3l-13.7,1l-7.9-6.3l-1.1-18.1l15.9-0.9L304.4,592.9"
       style="fill:#aa0000;fill-opacity:1" /><path
       id="PA_Clinton"
       inkscape:label="Clinton, PA"
       fill="#CCCCCC"
       stroke="#FFFFFF"
       stroke-width="0.9443"
       d="M306.4,617.5   l0.1,1.8l2.1,2.6l3.7,4.3l10.6,9.7l0.7-0.1l0.1,1.2l-6.8,3.1l-5.9,1.6l-2.8-3.8l-0.4-1.1l-1.2-0.9l-11.5-4.9l-3.4,2.9l-2.1-2.9   l2.9-12.4L306.4,617.5"
       style="fill:#cc2f4a;fill-opacity:1" /><path
       id="PA_Centre"
       inkscape:label="Centre, PA"
       fill="#CCCCCC"
       stroke="#FFFFFF"
       stroke-width="0.9443"
       d="M291.9,633.8l3.4-2.9   l11.5,4.9l1.2,0.9l0.4,1.1l2.8,3.8l5.9-1.6l6.8-3.1l-2,2.6l-2.3,4l-2.9,3.3l-10.9,6.3l-1,0.8l-8.2,1.6l-6.2-1.9l-8.7,0.8l-0.5-0.8   l0-0.2l5-7.7l0.4-0.4l1.9-1.3l2.1-0.5l0.2-0.2l0.8-2.9l0.1-1.1L291.9,633.8"
       style="fill:#b9d7ff;fill-opacity:1" /><path
       id="PA_Union"
       inkscape:label="Union, PA"
       fill="#CCCCCC"
       stroke="#FFFFFF"
       stroke-width="0.9443"
       d="M323.7,635.8l5.8-1.3   l0.4-2.9l2.3,0.3l0.6,2.1l0.6,5.3l-0.1,0.6l0.3,0.9l0.9,1.7l1.1,1l0.9,0.4l-1.1-0.2l-3.9,0.3l-4.8,1.3l-8.1,2.8l-1.5,0.7l-0.4-1.9   l2.9-3.3l2.3-4l2-2.6L323.7,635.8"
       style="fill:#cc2f4a;fill-opacity:1" /><path
       id="PA_Montour"
       inkscape:label="Montour, PA"
       fill="#CCCCCC"
       stroke="#FFFFFF"
       stroke-width="0.9443"
       d="M337.8,629.9   l3.3,0.5l1.1,3.7l1.7,0.9l2.2,4.3l0.2,0.6l-0.3,3l-3.3-3l-0.7-0.5l-1-0.1l-2.5,0.8l-2.1,0.5l-0.1-0.1l1-4.8L337.8,629.9"
       style="fill:#cc2f4a;fill-opacity:1" /><path
       id="PA_Tioga"
       inkscape:label="Tioga, PA"
       fill="#CCCCCC"
       stroke="#FFFFFF"
       stroke-width="0.9443"
       d="M328.2,591.2l3.2,19   l-0.2,0.4l-2.6,2l-8.1,0.8l-14.3,1.1l-1.7-21.6l22.4-1.6L328.2,591.2"
       style="fill:#d40000;fill-opacity:1" /><path
       id="PA_Lycoming"
       inkscape:label="Lycoming, PA"
       fill="#CCCCCC"
       stroke="#FFFFFF"
       stroke-width="0.9443"
       d="M331.4,610.2   l2.2,0.1l2.8,8.5l5.9,4.4l1.6,0.4l3.6,0.6l-6.4,6.2l-3.3-0.5l-5.7,2l-2.3-0.3l-0.4,2.9l-5.8,1.3l-0.7,0.1l-10.6-9.7l-3.7-4.3   l-2.1-2.6l-0.1-1.8l-0.3-3l14.3-1.1l8.1-0.8l2.6-2L331.4,610.2"
       style="fill:#d40000;fill-opacity:1" /><path
       id="PA_Wyoming"
       inkscape:label="Wyoming, PA"
       fill="#CCCCCC"
       stroke="#FFFFFF"
       stroke-width="0.9443"
       d="M357.7,605.6   l0.1,0.4l8.6-0.7l5.2-0.3l-0.3,0.3l-1.3,3l-0.8,2.5l1.1,0.7l-1.9,3.9l-0.6,0.3l-5.4,2.2l-9.6,1.1l1.6-8L357.7,605.6"
       style="fill:#cc2f4a;fill-opacity:1" /><path
       id="PA_Sullivan"
       inkscape:label="Sullivan, PA"
       fill="#CCCCCC"
       stroke="#FFFFFF"
       stroke-width="0.9443"
       d="M333.5,610.3   l20.9,0.7l-1.6,8l-0.7,3.3l-4.7,1.9l-3.6-0.6l-1.6-0.4l-5.9-4.4L333.5,610.3"
       style="fill:#d40000;fill-opacity:1" /><path
       id="PA_Columbia"
       inkscape:label="Columbia, PA"
       fill="#CCCCCC"
       stroke="#FFFFFF"
       stroke-width="0.9443"
       d="M352.1,622.3   l0,3.8l0.1,1.1l1.7,3.3l3.1,8.4l-1.3,1.7l-1.1,1.6l-0.5,3.9l-2.5,1.4l-5.6-4.7l0.3-3l-0.2-0.6l-2.2-4.3l-1.7-0.9l-1.1-3.7l6.4-6.2   L352.1,622.3"
       style="fill:#cc2f4a;fill-opacity:1" /><path
       id="PA_Northumberland"
       inkscape:label="Northumberland, PA"
       fill="#CCCCCC"
       stroke="#FFFFFF"
       stroke-width="0.9443"
       d="   M332.1,631.9l5.7-2l-0.4,5.9l-1,4.8l0.1,0.1l2.1-0.5l2.5-0.8l1,0.1l0.7,0.5l3.3,3l5.6,4.7l-11,6.4l-1.5,0.3l-4.4,2.1l-1.7,0.4   l-0.2,0l-0.4-0.2l-0.5-0.7l0.3-0.5l0.3-0.3l1.6-2.1l0.3-0.6l0.2-0.6l0.2-0.8l-0.1-1.3l0.9-4.1l0.6-2.1l-0.9-0.4l-1.1-1l-0.9-1.7   l-0.3-0.9l0.1-0.6l-0.6-5.3L332.1,631.9"
       style="fill:#cc2f4a;fill-opacity:1" /><path
       id="PA_Snyder"
       inkscape:label="Snyder, PA"
       fill="#CCCCCC"
       stroke="#FFFFFF"
       stroke-width="0.9443"
       d="M336.4,643.8l-0.6,2.1   l-0.9,4.1l0.1,1.3l-0.2,0.8l-0.2,0.6l-0.3,0.6l-1.6,2.1l-0.3,0.3l-0.1-0.4l-0.2-0.2l-3.5-1.1l-2.4-0.4l-1.5,0.6l-4.9-0.3l-2.8-5.2   l1.5-0.7l8.1-2.8l4.8-1.3l3.9-0.3L336.4,643.8"
       style="fill:#d40000;fill-opacity:1" /><path
       id="PA_Juniata"
       inkscape:label="Juniata, PA"
       fill="#CCCCCC"
       stroke="#FFFFFF"
       stroke-width="0.9443"
       d="M332.3,655.7   l-0.3,0.5l-7.6,3.6l-4.1,2.4l-5.6,3.9l-3,2.3l-3.6,4.4l-0.7,1.1l-1,1.3l-2.1-5.4l4.5-6.7l3.9-5l1.3-1l2.4-1.6l1.2-0.7l2.1-1.1   l4.9,0.3l1.5-0.6l2.4,0.4l3.5,1.1l0.2,0.2L332.3,655.7"
       style="fill:#d40000;fill-opacity:1" /><path
       id="PA_Perry"
       inkscape:label="Perry, PA"
       fill="#CCCCCC"
       stroke="#FFFFFF"
       stroke-width="0.9443"
       d="M334.3,670.3l-2.1,1.1   l-1.6,0.4l-13.4,3.1l-7,3.9l-0.3-0.6l-2.3-4.2l0.7-1.1l3.6-4.4l3-2.3l5.6-3.9l4.1-2.4l7.6-3.6l-0.6,2.1l-1.5,9.4l0,0.2l0.4,0.9   l0.5,0.3L334.3,670.3"
       style="fill:#d40000;fill-opacity:1" /><path
       id="PA_Cumberland"
       inkscape:label="Cumberland, PA"
       fill="#CCCCCC"
       stroke="#FFFFFF"
       stroke-width="0.9443"
       d="M334.3,670.3   l2.3,4.7l-1.8,2l-4.8,3l-2.8,3.1l-1.1,1.2l-1.4,1l-2.6,0.7l-4.2,1.3l-2.3,2.5l-1-2.8l-4.5-6.7l-0.8-1.6l0.5-0.5l0.3,0.6l7-3.9   l13.4-3.1l1.6-0.4L334.3,670.3"
       style="fill:#e27f90;fill-opacity:1" /><path
       id="PA_Adams"
       inkscape:label="Adams, PA"
       fill="#CCCCCC"
       stroke="#FFFFFF"
       stroke-width="0.9443"
       d="M327.2,683.1l0.4,0.1   l1.3,0.6l2.7,1.7l2.1,3.6l0.1,0.7l0,2.3l-0.8,2l0,0.2l0.3,5.1l-7.8,0.5l-8.7,0.6l-1.1-10.6l2.3-2.5l4.2-1.3l2.6-0.7l1.4-1   L327.2,683.1"
       style="fill:#cc2f4a;fill-opacity:1" /><path
       id="PA_York"
       inkscape:label="York, PA"
       fill="#CCCCCC"
       stroke="#FFFFFF"
       stroke-width="0.9443"
       d="M336.6,675l5.2,4.7l3,2.7   l2.3,0.4l1,0l0.8,0.3l6,6.7l5.5,7l0.2,0.3l0,0.2l-11.8,0.9l-7.8,0.6l-7.6,0.6l-0.3-5.1l0-0.2l0.8-2l0-2.3l-0.1-0.7l-2.1-3.6   l-2.7-1.7l-1.3-0.6l-0.4-0.1l2.8-3.1l4.8-3L336.6,675"
       style="fill:#cc2f4a;fill-opacity:1" /><path
       id="PA_Dauphin"
       inkscape:label="Dauphin, PA"
       fill="#CCCCCC"
       stroke="#FFFFFF"
       stroke-width="0.9443"
       d="M340.7,654.1   l6.3,4.4l-4.8,4.2l4.8,12.9l0.1-0.1l-5.3,4l-5.2-4.7l-2.3-4.7l-3.5-1.2l-0.5-0.3l-0.4-0.9l0-0.2l1.5-9.4l0.6-2.1l0.5,0.7l0.4,0.2   l0.2,0l1.7-0.4l4.4-2.1L340.7,654.1"
       style="fill:#b9d7ff;fill-opacity:1" /><path
       id="PA_Lebanon"
       inkscape:label="Lebanon, PA"
       fill="#CCCCCC"
       stroke="#FFFFFF"
       stroke-width="0.9443"
       d="M346.9,658.6   l3.6,2.6l10.9,7.7l-5.3,3.3l-4.5,1.2l-4.5,2.3l-0.1,0.1l-4.8-12.9L346.9,658.6"
       style="fill:#cc2f4a;fill-opacity:1" /><path
       id="PA_Lancaster"
       inkscape:label="Lancaster, PA"
       fill="#CCCCCC"
       stroke="#FFFFFF"
       stroke-width="0.9443"
       d="M361.4,668.8   l10.6,7.7l-2.4,1.6l-1.2,7.5l0,1.2l0.1,0.8l0.3,1.3l-0.7,2.5l-0.8,2l-0.6,1.2l-2.4,2.4l-3.5,0.3l-0.2,0l0-0.2l-0.2-0.3l-5.5-7   l-6-6.7l-0.8-0.3l-1,0l-2.3-0.4l-3-2.7l5.3-4l4.5-2.3l4.5-1.2L361.4,668.8"
       style="fill:#e27f90;fill-opacity:1" /><path
       id="PA_Berks"
       inkscape:label="Berks, PA"
       fill="#CCCCCC"
       stroke="#FFFFFF"
       stroke-width="0.9443"
       d="M383,660.8l-5.1,10.2   l-5.9,5.5l-10.6-7.7l-10.9-7.7l4.7-1.3l1.7-0.2l0.7-0.3l6.1-3.1l1.8-1.7l0.2-1.5l3.5-2.1L383,660.8"
       style="fill:#e27f90;fill-opacity:1" /><path
       id="PA_Schuylkill"
       inkscape:label="Schuylkill, PA"
       fill="#CCCCCC"
       stroke="#FFFFFF"
       stroke-width="0.9443"
       d="M357.1,639   l7.6,1.1l9.1,7.7l-4.5,3.1l-3.5,2.1l-0.2,1.5l-1.8,1.7l-6.1,3.1l-0.7,0.3l-1.7,0.2l-4.7,1.3l-3.6-2.6l-6.3-4.4l11-6.4l2.5-1.4   l0.5-3.9l1.1-1.6L357.1,639"
       style="fill:#d40000;fill-opacity:1" /><path
       id="PA_Carbon"
       inkscape:label="Carbon, PA"
       fill="#CCCCCC"
       stroke="#FFFFFF"
       stroke-width="0.9443"
       d="M364.6,640.2l9-5.3   l-0.3-1l-1.2-1.3l0-1l0.1-0.4l0.1-0.2l2.2-2l0.2-0.1l0.9-0.2l0.7,0.5l1.1,0.5l4.9,5.4l-2.4,2.2l3.9,5.9l-4.7,1.7l-5,2.9   L364.6,640.2"
       style="fill:#cc2f4a;fill-opacity:1" /><path
       id="PA_Luzerne"
       inkscape:label="Luzerne, PA"
       fill="#CCCCCC"
       stroke="#FFFFFF"
       stroke-width="0.9443"
       d="M352.9,619l9.6-1.1   l5.4-2.2l0.6-0.3l0.2,0.9l0.7,1l2,1l2,0.7l2.2,3.8l0.4,3.3l0.2,0.5l0.4,0.3l1.1,0.3l-1.5,2l-0.7-0.5l-0.9,0.2l-0.2,0.1l-2.2,2   l-0.1,0.2l-0.1,0.4l0,1l1.2,1.3l0.3,1l-9,5.3l-7.6-1.1l-3.1-8.4l-1.7-3.3l-0.1-1.1l0-3.8L352.9,619"
       style="fill:#e27f90;fill-opacity:1" /><path
       id="PA_Lackawanna"
       inkscape:label="Lackawanna, PA"
       fill="#CCCCCC"
       stroke="#FFFFFF"
       stroke-width="0.9443"
       d="M371.5,604.9   l9-0.7l2.3,18l-0.7,0.6l-1.5,0.8l-3,3.6l-1.1-0.3l-0.4-0.3l-0.2-0.5l-0.4-3.3l-2.2-3.8l-2-0.7l-2-1l-0.7-1l-0.2-0.9l1.9-3.9   l-1.1-0.7l0.8-2.5l1.3-3L371.5,604.9"
       style="fill:#86b6f2;fill-opacity:1" /><path
       id="PA_Bradford"
       inkscape:label="Bradford, PA"
       fill="#CCCCCC"
       stroke="#FFFFFF"
       stroke-width="0.9443"
       d="M341,590.3l14.3-1   l2.4,16.3l-3.2,5.5l-20.9-0.7l-2.2-0.1l-3.2-19L341,590.3"
       style="fill:#d40000;fill-opacity:1" /><path
       id="PA_Susquehanna"
       inkscape:label="Susquehanna, PA"
       fill="#CCCCCC"
       stroke="#FFFFFF"
       stroke-width="0.9443"
       d="   M356.7,589.1l21.6-1.8l2.2,16.8l-9,0.7l-5.2,0.3l-8.6,0.7l-0.1-0.4l-2.4-16.3L356.7,589.1"
       style="fill:#cc2f4a;fill-opacity:1" /><path
       id="PA_Wayne"
       inkscape:label="Wayne, PA"
       fill="#CCCCCC"
       stroke="#FFFFFF"
       stroke-width="0.9443"
       d="M378.3,587.3l4.3-0.4   l0.6,0.2l1.9,1.7l0.5,0.7l0.8,2.5l4.2,1.3l4.2,10.7l-3.6,7.4l-4.2,7.2l-1.3,4.3l-5.1,0.8l1.5-0.8l0.7-0.6l-2.3-18L378.3,587.3"
       style="fill:#cc2f4a;fill-opacity:1" /><path
       id="PA_Pike"
       inkscape:label="Pike, PA"
       fill="#CCCCCC"
       stroke="#FFFFFF"
       stroke-width="0.9443"
       d="M394.9,604l0.7,2.3   l1.3,1.7l0.9,1.1l3.5,2.4l0.6,0.4l2.8,0.2l1.6,0l2.4,3.1l-2.3,1.2l-1.1,0.9l-1.1,1.6l-0.2,0.5l-0.7,1.8l-0.1,0.6l0.1,0.2l0,0.8   l-0.4,1.4l-1.3,2.1l-1.6,1.8l-0.6,0.6l-1.3,0.6l-4.8-2.8l0.6-4.9l-8.1,1.3l1.3-4.3l4.2-7.2L394.9,604"
       style="fill:#cc2f4a;fill-opacity:1" /><path
       id="PA_Monroe"
       inkscape:label="Monroe, PA"
       fill="#CCCCCC"
       stroke="#FFFFFF"
       stroke-width="0.9443"
       d="M385.8,622.8l8.1-1.3   l-0.6,4.9l4.8,2.8l1.3-0.6l0.6-0.6l0.2,0.3l-4.7,6.6l-11.8,8.4l-3.9-5.9l2.4-2.2l-4.9-5.4l-1.1-0.5l1.5-2l3-3.6L385.8,622.8"
       style="fill:#b9d7ff;fill-opacity:1" /><path
       id="PA_Northampton"
       inkscape:label="Northampton, PA"
       fill="#CCCCCC"
       stroke="#FFFFFF"
       stroke-width="0.9443"
       d="   M395.3,634.9l2.8,4.3l0.1,0.3l-0.1,0.3l-1.6,3.4l-0.8,0.9l-0.5,0l-0.5-0.1l-0.3,0l-0.8,1.3l0,2.9l0.4,3.4l0.2,0.5l-4.6,3.8   l-2.4-2.5l-3.3-2.7l-4.3-3.5l-0.4-0.6l-0.4-1.7l4.7-1.7L395.3,634.9"
       style="fill:#e27f90;fill-opacity:1" /><path
       id="PA_Lehigh"
       inkscape:label="Lehigh, PA"
       fill="#CCCCCC"
       stroke="#FFFFFF"
       stroke-width="0.9443"
       d="M378.8,645l0.4,1.7   l0.4,0.6l4.3,3.5l3.3,2.7l2.4,2.5l-4.8,6.1l-1.7-1.2l-13.7-9.8l4.5-3.1L378.8,645"
       style="fill:#86b6f2;fill-opacity:1" /><path
       id="PA_Delaware"
       inkscape:label="Delaware, PA"
       fill="#CCCCCC"
       stroke="#FFFFFF"
       stroke-width="0.9443"
       d="M390.6,678.3   l3.3,4l2.8,5l-7,3.7l-6.6-1.1L390.6,678.3"
       style="fill:#86b6f2;fill-opacity:1" /><path
       id="PA_Montgomery"
       inkscape:label="Montgomery, PA"
       fill="#CCCCCC"
       stroke="#FFFFFF"
       stroke-width="0.9443"
       d="M384.8,662   l17.9,11.8l-4.1,3.5l-1.8-1.6l-2.4,2.8l1.7,1.7l-2,2l-3.3-4l-3.8-1.4l-3.1-3.2l-0.3-0.5l-0.1-0.2l-3.4-2l-2,0l5.1-10.2L384.8,662"
       style="fill:#86b6f2;fill-opacity:1" /><path
       id="PA_Chester"
       inkscape:label="Chester, PA"
       fill="#CCCCCC"
       stroke="#FFFFFF"
       stroke-width="0.9443"
       d="M377.9,671l2,0   l3.4,2l0.1,0.2l0.3,0.5l3.1,3.2l3.8,1.4l-7.5,11.6l-6.4,6l-12.5,1l2.4-2.4l0.6-1.2l0.8-2l0.7-2.5l-0.3-1.3l-0.1-0.8l0-1.2l1.2-7.5   l2.4-1.6L377.9,671"
       style="fill:#86b6f2;fill-opacity:1" /></g></svg>