<?xml version="1.0" encoding="UTF-8" standalone="no"?>
<!-- Generator: Adobe Illustrator 18.1.1, SVG Export Plug-In . SVG Version: 6.00 Build 0)  -->

<svg
   xmlns:dc="http://purl.org/dc/elements/1.1/"
   xmlns:cc="http://creativecommons.org/ns#"
   xmlns:rdf="http://www.w3.org/1999/02/22-rdf-syntax-ns#"
   xmlns:svg="http://www.w3.org/2000/svg"
   xmlns="http://www.w3.org/2000/svg"
   xmlns:sodipodi="http://sodipodi.sourceforge.net/DTD/sodipodi-0.dtd"
   xmlns:inkscape="http://www.inkscape.org/namespaces/inkscape"
   version="1.1"
   id="svg5598"
   sodipodi:version="0.32"
   inkscape:version="0.91 r13725"
   sodipodi:docname="Rhode_Island_Presidential_Election_Results_2016.svg"
   inkscape:output_extension="org.inkscape.output.svg.inkscape"
   x="0px"
   y="0px"
   width="87.1px"
   height="105px"
   viewBox="-211 169.3 87.1 105"
   enable-background="new -211 169.3 87.1 105"
   xml:space="preserve"><metadata
     id="metadata13"><rdf:RDF><cc:Work
         rdf:about=""><dc:format>image/svg+xml</dc:format><dc:type
           rdf:resource="http://purl.org/dc/dcmitype/StillImage" /></cc:Work></rdf:RDF></metadata><defs
     id="defs3"><inkscape:perspective
       inkscape:persp3d-origin="372.04724 : 350.78739 : 1"
       sodipodi:type="inkscape:persp3d"
       inkscape:vp_x="0 : 526.18109 : 1"
       inkscape:vp_y="0 : 1000 : 0"
       inkscape:vp_z="744.09448 : 526.18109 : 1"
       id="perspective5606" /></defs><sodipodi:namedview
     inkscape:window-maximized="1"
     pagecolor="#ffffff"
     bordercolor="#666666"
     borderopacity="1.0"
     gridtolerance="10000"
     guidetolerance="10"
     objecttolerance="10"
     inkscape:zoom="1.7107027"
     inkscape:cx="-49.967374"
     inkscape:cy="52.494545"
     showgrid="false"
     id="base"
     inkscape:document-units="px"
     inkscape:pageopacity="0.0"
     inkscape:pageshadow="2"
     inkscape:current-layer="layer1"
     inkscape:window-width="1920"
     inkscape:window-height="1017"
     inkscape:window-x="-8"
     inkscape:window-y="-8" /><g
     id="layer1"
     transform="translate(-381.14659,-432.89814)"
     inkscape:label="Layer 1"
     inkscape:groupmode="layer"><path
       id="RI_Kent"
       inkscape:label="Kent, RI"
       fill="#CCCCCC"
       stroke="#FFFFFF"
       stroke-width="0.9329"
       d="M224.3,640l-2.6,10   l-5.4,8.3l-28.3,8.2l-1.4-5.5l-2.8-10.7l30.7-9.1l0.3-0.1l0.7-1.2l-0.3-1.3l0.3-1.3l0.3-0.3l2.9-1.7l1.3,0.2l1.2,0.9l1.9,2.1   L224.3,640"
       style="fill:#f2b3be;fill-opacity:1" /><path
       id="RI_Providence"
       inkscape:label="Providence, RI"
       fill="#CCCCCC"
       stroke="#FFFFFF"
       stroke-width="0.9329"
       d="M201.2,606.2   l11.9,1.2l12.9,24.8l-3.1,6.3l-1.9-2.1l-1.2-0.9l-1.3-0.2l-2.9,1.7l-0.3,0.3l-0.3,1.3l0.3,1.3l-0.7,1.2l-0.3,0.1l-30.7,9.1   l-10.2-35.7L201.2,606.2"
       style="fill:#86b6f2;fill-opacity:1" /><path
       id="RI_Bristol"
       inkscape:label="Bristol, RI"
       fill="#CCCCCC"
       stroke="#FFFFFF"
       stroke-width="0.9329"
       d="M224.3,640l-1.3-1.5   l3.1-6.3l10.9,6l4,3.7l-4,6l-1.5,2.4l-0.1,0.5l-7.1-2.2L224.3,640"
       style="fill:#86b6f2;fill-opacity:1" /><path
       id="RI_Newport"
       inkscape:label="Newport, RI"
       fill="#CCCCCC"
       stroke="#FFFFFF"
       stroke-width="0.9329"
       d="M240.9,642l13,20.6   l-3.4,4.4l-12.8,6.2l-3.7,1l-1.4-0.9l-0.1-0.6l2.9-21.7l0-0.1l0.1-0.5l1.5-2.4L240.9,642"
       style="fill:#86b6f2;fill-opacity:1" /><path
       id="RI_Washington"
       inkscape:label="Washington, RI"
       fill="#CCCCCC"
       stroke="#FFFFFF"
       stroke-width="0.9329"
       d="M188,666.5   l28.3-8.2l5.4-8.3l2.6,8l1.4,9.5l0.6,4.1l0.1,1.6l0.1,2.5l-0.2,1.3l-0.8,5.2l-1.4,5.3l-31,15.7l-2.6-0.2L188,666.5"
       style="fill:#86b6f2;fill-opacity:1" /></g></svg>