<?xml version="1.0" encoding="UTF-8" standalone="no"?>
<!-- Created with Inkscape (http://www.inkscape.org/) -->

<svg
   xmlns:dc="http://purl.org/dc/elements/1.1/"
   xmlns:cc="http://creativecommons.org/ns#"
   xmlns:rdf="http://www.w3.org/1999/02/22-rdf-syntax-ns#"
   xmlns:svg="http://www.w3.org/2000/svg"
   xmlns="http://www.w3.org/2000/svg"
   xmlns:sodipodi="http://sodipodi.sourceforge.net/DTD/sodipodi-0.dtd"
   xmlns:inkscape="http://www.inkscape.org/namespaces/inkscape"
   width="304.12592"
   height="231.21155"
   id="svg7197"
   sodipodi:version="0.32"
   inkscape:version="0.91 r13725"
   version="1.0"
   sodipodi:docname="South_Carolina_Presidential_Election_Results_2016.svg"
   inkscape:output_extension="org.inkscape.output.svg.inkscape">
  <defs
     id="defs7199">
    <inkscape:perspective
       sodipodi:type="inkscape:persp3d"
       inkscape:vp_x="0 : 526.18109 : 1"
       inkscape:vp_y="0 : 1000 : 0"
       inkscape:vp_z="744.09448 : 526.18109 : 1"
       inkscape:persp3d-origin="372.04724 : 350.78739 : 1"
       id="perspective7205" />
  </defs>
  <sodipodi:namedview
     id="base"
     pagecolor="#ffffff"
     bordercolor="#666666"
     borderopacity="1.0"
     gridtolerance="10000"
     guidetolerance="10"
     objecttolerance="10"
     inkscape:pageopacity="0.0"
     inkscape:pageshadow="2"
     inkscape:zoom="2.7353846"
     inkscape:cx="106.48593"
     inkscape:cy="119.4433"
     inkscape:document-units="px"
     inkscape:current-layer="layer1"
     showgrid="false"
     inkscape:window-width="1920"
     inkscape:window-height="1017"
     inkscape:window-x="-8"
     inkscape:window-y="-8"
     inkscape:window-maximized="1" />
  <metadata
     id="metadata7202">
    <rdf:RDF>
      <cc:Work
         rdf:about="">
        <dc:format>image/svg+xml</dc:format>
        <dc:type
           rdf:resource="http://purl.org/dc/dcmitype/StillImage" />
      </cc:Work>
    </rdf:RDF>
  </metadata>
  <g
     inkscape:label="Layer 1"
     inkscape:groupmode="layer"
     id="layer1"
     transform="translate(-349.15674,-349.78272)">
    <path
       style="font-size:12px;fill:#d40000;fill-opacity:1;fill-rule:nonzero;stroke:#ffffff;stroke-width:1.15651929"
       d="M 385.7718,375.01427 L 396.91128,373.72224 L 399.53464,376.96353 L 403.72529,386.15376 L 404.36008,387.85024 L 404.84318,390.30509 L 404.55669,390.65897 L 385.85043,407.75301 L 380.0251,391.95102 L 376.12096,382.28332 L 377.14332,378.55891 L 378.15446,376.96353 L 385.7718,375.01427"
       id="SC_Pickens"
       inkscape:label="Pickens, SC" />
    <path
       style="font-size:12px;fill:#d40000;fill-opacity:1;fill-rule:nonzero;stroke:#ffffff;stroke-width:1.15651929"
       d="M 378.15446,376.96353 L 377.14332,378.55891 L 376.12096,382.28332 L 380.0251,391.95102 L 385.85043,407.75301 L 378.35671,419.3756 L 374.68286,418.86442 L 371.05394,416.33655 L 356.02155,407.09577 L 354.85311,405.14649 L 355.81934,399.67507 L 359.71224,392.60826 L 365.08256,388.43446 L 366.35212,382.6653 L 371.97522,379.94643 L 378.15446,376.96353"
       id="SC_Oconee"
       inkscape:label="Oconee, SC" />
    <path
       style="font-size:12px;fill:#e27f90;fill-opacity:1;fill-rule:nonzero;stroke:#ffffff;stroke-width:1.15651929"
       d="M 526.09114,527.91119 L 549.63404,540.02249 L 553.12813,545.10633 L 553.43709,545.71302 L 553.61123,546.57248 L 553.48203,547.66229 L 552.7967,551.38106 L 552.21809,552.01585 L 537.25308,567.61561 L 533.78709,570.42437 L 530.21439,573.132 L 528.69765,571.91861 L 521.42861,566.0933 L 520.47365,564.55409 L 519.96246,562.90816 L 520.03547,562.52055 L 520.79384,559.33543 L 524.00706,556.54355 L 527.17531,553.1562 L 528.84932,550.95413 L 529.27627,548.9487 L 529.25378,544.2974 L 526.9731,535.71388 L 526.66975,535.02292 L 525.60803,533.46127 L 523.99018,531.43337 L 526.09114,527.91119"
       id="SC_Beaufort"
       inkscape:label="Beaufort, SC" />
    <path
       style="font-size:12px;fill:#86b6f2;fill-opacity:1;fill-rule:nonzero;stroke:#ffffff;stroke-width:1.15651929"
       d="M 526.09114,527.91119 L 523.99018,531.43337 L 522.46784,534.57353 L 521.37806,534.32073 L 519.57485,533.66349 L 519.0749,532.29844 L 519.27712,531.25922 L 519.0749,530.21434 L 516.87284,528.16398 L 514.36743,526.54051 L 513.12595,527.65841 L 499.83497,543.58399 L 493.50407,541.05051 L 490.89193,530.46714 L 492.0379,529.91663 L 494.64441,528.16398 L 497.17227,523.88906 L 497.6554,520.43991 L 497.82954,517.76599 L 498.86877,514.87299 L 499.67767,513.76073 L 500.35739,513.12595 L 507.04783,507.23319 L 526.09114,527.91119"
       id="SC_Hampton"
       inkscape:label="Hampton, SC" />
    <path
       style="font-size:12px;fill:#86b6f2;fill-opacity:1;fill-rule:nonzero;stroke:#ffffff;stroke-width:1.15651929"
       d="M 523.99018,531.43337 L 525.60803,533.46127 L 526.66975,535.02292 L 526.9731,535.71388 L 529.25378,544.2974 L 529.27627,548.9487 L 528.84932,550.95413 L 527.17531,553.1562 L 524.00706,556.54355 L 520.79384,559.33543 L 520.03547,562.52055 L 519.96246,562.90816 L 520.47365,564.55409 L 521.42861,566.0933 L 528.69765,571.91861 L 530.21439,573.132 L 530.24246,576.52496 L 518.97941,574.40154 L 515.55832,573.08143 L 515.27747,572.80617 L 514.49102,569.666 L 513.91803,566.773 L 513.60345,565.35739 L 512.817,561.5094 L 506.3906,548.47123 L 500.9978,544.01653 L 499.83497,543.58399 L 513.12595,527.65841 L 514.36743,526.54051 L 516.87284,528.16398 L 519.0749,530.21434 L 519.27712,531.25922 L 519.0749,532.29844 L 519.57485,533.66349 L 521.37806,534.32073 L 522.46784,534.57353 L 523.99018,531.43337"
       id="SC_Jasper"
       inkscape:label="Jasper, SC" />
    <path
       style="font-size:12px;fill:#86b6f2;fill-opacity:1;fill-rule:nonzero;stroke:#ffffff;stroke-width:1.15651929"
       d="M 583.5637,405.68017 L 584.24342,404.07917 L 587.52965,400.64127 L 590.65299,399.24251 L 592.47303,398.88862 L 604.74726,397.67522 L 607.84249,399.62449 L 603.53951,413.37613 L 601.83741,416.3871 L 599.33201,419.90364 L 599.12978,420.35868 L 599.38255,422.54387 L 599.61288,423.34718 L 605.69663,432.48684 L 608.93229,436.84602 L 611.23548,439.55364 L 602.80361,435.58206 L 602.09018,434.28443 L 590.93386,425.93122 L 590.32155,425.32453 L 589.35533,423.49885 L 582.95701,409.80339 L 582.70424,409.26973 L 582.70424,408.99447 L 583.5637,405.68017"
       id="SC_Marion"
       inkscape:label="Marion, SC" />
    <path
       style="font-size:12px;fill:#b9d7ff;fill-opacity:1;fill-rule:nonzero;stroke:#ffffff;stroke-width:1.15651929"
       d="M 584.34453,376.63772 L 610.6007,395.7709 L 607.84249,399.62449 L 604.74726,397.67522 L 592.47303,398.88862 L 590.65299,399.24251 L 587.52965,400.64127 L 584.24342,404.07917 L 583.5637,405.68017 L 577.65972,401.6805 L 584.34453,376.63772"
       id="SC_Dillon"
       inkscape:label="Dillon, SC" />
    <path
       style="font-size:12px;fill:#cc2f4a;fill-opacity:1;fill-rule:nonzero;stroke:#ffffff;stroke-width:1.15651929"
       d="M 607.84249,399.62449 L 610.6007,395.7709 L 639.91838,416.71292 L 647.58627,422.18436 L 645.10896,423.14493 L 640.32286,426.00986 L 638.07022,427.70072 L 635.03678,430.6162 L 634.75028,430.91956 L 633.56501,432.20596 L 633.00887,432.84636 L 632.12692,434.00918 L 630.90793,435.60454 L 630.5484,436.08765 L 626.95884,441.60403 L 624.82982,445.68233 L 624.07144,447.14288 L 611.23548,439.55364 L 608.93229,436.84602 L 605.69663,432.48684 L 599.61288,423.34718 L 599.38255,422.54387 L 599.12978,420.35868 L 599.33201,419.90364 L 601.83741,416.3871 L 603.53951,413.37613 L 607.84249,399.62449"
       id="SC_Horry"
       inkscape:label="Horry, SC" />
    <path
       style="font-size:12px;fill:#86b6f2;fill-opacity:1;fill-rule:nonzero;stroke:#ffffff;stroke-width:1.15651929"
       d="M 602.29805,477.53351 L 612.84769,483.30267 L 610.06702,491.43118 L 607.48861,492.08281 L 602.78114,493.09959 L 596.39406,499.78439 L 592.04612,506.11531 L 583.10308,516.18747 L 572.82868,527.48426 L 572.19389,527.73704 L 571.68832,528.01791 L 569.71097,529.10208 L 565.10462,532.44449 L 562.75088,534.74768 L 562.72279,534.71959 L 562.24531,534.32073 L 558.52091,535.93858 L 557.86366,536.77559 L 558.549,537.38228 L 558.62765,537.55642 L 558.549,538.09007 L 558.094,538.21929 L 556.95926,537.93279 L 554.39206,534.3713 L 550.82495,526.42254 L 548.59482,522.5184 L 549.91493,516.165 L 549.73516,512.69902 L 556.84691,512.42375 L 564.71701,513.14841 L 565.30686,513.081 L 567.61002,507.73876 L 568.17178,504.51995 L 562.82393,498.46429 L 570.01994,502.04261 L 576.17106,504.59297 L 578.19338,510.08688 L 579.07533,510.49135 L 579.66516,510.29472 L 580.14265,509.85657 L 586.5241,499.27882 L 588.09702,494.08826 L 591.5911,486.54396 L 600.22518,478.6233 L 602.29805,477.53351"
       id="SC_Charleston"
       inkscape:label="Charleston, SC" />
    <path
       style="font-size:12px;fill:#e27f90;fill-opacity:1;fill-rule:nonzero;stroke:#ffffff;stroke-width:1.15651929"
       d="M 547.33087,483.68466 L 548.34201,484.35876 L 552.16754,488.62245 L 551.56085,490.16724 L 550.9991,490.82449 L 552.95399,492.16709 L 562.82393,498.46429 L 568.17178,504.51995 L 567.61002,507.73876 L 565.30686,513.081 L 564.71701,513.14841 L 556.84691,512.42375 L 549.73516,512.69902 L 548.44313,499.99225 L 548.16227,499.27882 L 547.46008,498.75078 L 547.30841,498.75078 L 539.98882,499.32376 L 535.93298,500.24502 L 534.03988,499.95853 L 533.76463,499.80686 L 522.72065,493.35236 L 538.03392,479.53332 L 538.33727,479.78612 L 538.64623,480.21305 L 538.78667,480.80289 L 538.82599,481.57811 L 538.99452,482.11177 L 539.70793,483.20157 L 540.3708,483.55546 L 543.45479,484.29135 L 547.33087,483.68466"
       id="SC_Dorchester"
       inkscape:label="Dorchester, SC" />
    <path
       style="font-size:12px;fill:#e27f90;fill-opacity:1;fill-rule:nonzero;stroke:#ffffff;stroke-width:1.15651929"
       d="M 559.91406,463.91109 L 561.00385,463.02351 L 561.45326,462.89431 L 566.29552,462.26517 L 567.99201,462.41684 L 572.37367,464.9728 L 574.39597,466.5176 L 575.2779,467.80402 L 575.71608,468.16353 L 581.99081,471.5565 L 587.45663,473.34849 L 602.29805,477.53351 L 600.22518,478.6233 L 591.5911,486.54396 L 588.09702,494.08826 L 586.5241,499.27882 L 580.14265,509.85657 L 579.66516,510.29472 L 579.07533,510.49135 L 578.19338,510.08688 L 576.17106,504.59297 L 570.01994,502.04261 L 562.82393,498.46429 L 552.95399,492.16709 L 550.9991,490.82449 L 551.56085,490.16724 L 552.16754,488.62245 L 548.34201,484.35876 L 547.33087,483.68466 L 553.40899,468.91627 L 559.91406,463.91109"
       id="SC_Berkeley"
       inkscape:label="Berkeley, SC" />
    <path
       style="font-size:12px;fill:#e27f90;fill-opacity:1;fill-rule:nonzero;stroke:#ffffff;stroke-width:1.15651929"
       d="M 602.80361,435.58206 L 611.23548,439.55364 L 624.07144,447.14288 L 620.32458,454.33888 L 620.15043,454.7939 L 619.74037,455.8556 L 619.62241,456.16456 L 619.58868,456.28253 L 619.56059,456.33871 L 618.35284,460.61924 L 618.19554,461.32703 L 617.99331,462.33818 L 617.94275,462.56851 L 617.74053,466.38839 L 617.68436,468.39383 L 617.61695,471.70255 L 617.58885,471.80927 L 617.61695,471.83175 L 617.76861,472.74179 L 617.79108,472.97213 L 618.67866,475.12923 L 618.17308,477.65709 L 617.81917,478.28625 L 615.33062,481.75785 L 612.84769,483.30267 L 602.29805,477.53351 L 587.45663,473.34849 L 587.05216,472.33732 L 587.08026,470.99475 L 590.87768,462.54042 L 597.71978,450.05833 L 598.44444,443.17691 L 599.23089,441.17149 L 601.59024,436.21123 L 601.93852,435.90227 L 602.80361,435.58206"
       id="SC_Georgetown"
       inkscape:label="Georgetown, SC" />
    <path
       style="font-size:12px;fill:#86b6f2;fill-opacity:1;fill-rule:nonzero;stroke:#ffffff;stroke-width:1.15651929"
       d="M 561.93636,430.36342 L 568.52007,433.77886 L 559.91406,463.91109 L 553.40899,468.91627 L 547.5331,470.84308 L 545.83662,471.1745 L 545.05578,471.09586 L 543.19639,470.49478 L 540.77527,468.89381 L 538.87656,467.07375 L 535.78131,463.37744 L 532.51755,457.63074 L 539.15182,447.3732 L 550.24073,440.28954 L 561.93636,430.36342"
       id="SC_Clarendon"
       inkscape:label="Clarendon, SC" />
    <path
       style="font-size:12px;fill:#4389e3;fill-opacity:1;fill-rule:nonzero;stroke:#ffffff;stroke-width:1.15651929"
       d="M 602.09018,434.28443 L 602.80361,435.58206 L 601.93852,435.90227 L 601.59024,436.21123 L 599.23089,441.17149 L 598.44444,443.17691 L 597.71978,450.05833 L 590.87768,462.54042 L 587.08026,470.99475 L 587.05216,472.33732 L 587.45663,473.34849 L 581.99081,471.5565 L 575.71608,468.16353 L 575.2779,467.80402 L 574.39597,466.5176 L 572.37367,464.9728 L 567.99201,462.41684 L 566.29552,462.26517 L 561.45326,462.89431 L 561.00385,463.02351 L 559.91406,463.91109 L 568.52007,433.77886 L 573.71061,436.54265 L 578.31697,437.3235 L 592.32138,437.62685 L 595.41101,436.54265 L 595.88848,435.72812 L 598.73093,433.54856 L 599.15787,433.37441 L 600.34316,433.44743 L 602.09018,434.28443"
       id="SC_Williamsburg"
       inkscape:label="Williamsburg, SC" />
    <path
       style="font-size:12px;fill:#e27f90;fill-opacity:1;fill-rule:nonzero;stroke:#ffffff;stroke-width:1.15651929"
       d="M 576.13739,401.4221 L 577.65972,401.6805 L 583.5637,405.68017 L 582.70424,408.99447 L 582.70424,409.26973 L 582.95701,409.80339 L 589.35533,423.49885 L 590.32155,425.32453 L 590.93386,425.93122 L 602.09018,434.28443 L 600.34316,433.44743 L 599.15787,433.37441 L 598.73093,433.54856 L 595.88848,435.72812 L 595.41101,436.54265 L 592.32138,437.62685 L 578.31697,437.3235 L 573.71061,436.54265 L 568.52007,433.77886 L 561.93636,430.36342 L 559.17815,423.34718 L 554.4707,421.32488 L 566.49776,408.41027 L 572.06469,402.86578 L 576.13739,401.4221"
       id="SC_Florence"
       inkscape:label="Florence, SC" />
    <path
       style="font-size:12px;fill:#86b6f2;fill-opacity:1;fill-rule:nonzero;stroke:#ffffff;stroke-width:1.15651929"
       d="M 554.16737,368.13284 L 568.17178,365.85213 L 583.54123,376.0816 L 584.34453,376.63772 L 577.65972,401.6805 L 576.13739,401.4221 L 576.13739,401.14122 L 574.36787,396.6641 L 573.43537,394.88896 L 571.20521,394.00139 L 570.8457,394.02386 L 570.67718,394.10813 L 570.47494,394.00139 L 563.40815,388.59175 L 563.29018,388.40638 L 563.12726,387.24355 L 563.25647,386.88965 L 554.16737,368.13284"
       id="SC_Marlboro"
       inkscape:label="Marlboro, SC" />
    <path
       style="font-size:12px;fill:#e27f90;fill-opacity:1;fill-rule:nonzero;stroke:#ffffff;stroke-width:1.15651929"
       d="M 563.25647,386.88965 L 563.12726,387.24355 L 563.29018,388.40638 L 563.40815,388.59175 L 570.47494,394.00139 L 570.67718,394.10813 L 570.8457,394.02386 L 571.20521,394.00139 L 573.43537,394.88896 L 574.36787,396.6641 L 576.13739,401.14122 L 576.13739,401.4221 L 572.06469,402.86578 L 566.49776,408.41027 L 554.4707,421.32488 L 554.24039,421.37543 L 549.38126,417.9263 L 548.49369,416.76348 L 550.13963,414.58951 L 550.44296,411.47179 L 548.03869,407.57326 L 545.56137,405.09594 L 543.55592,404.48925 L 538.42152,403.50057 L 538.42152,403.34892 L 551.12831,391.87799 L 563.25647,386.88965"
       id="SC_Darlington"
       inkscape:label="Darlington, SC" />
    <path
       style="font-size:12px;fill:#4389e3;fill-opacity:1;fill-rule:nonzero;stroke:#ffffff;stroke-width:1.15651929"
       d="M 538.42152,403.50057 L 543.55592,404.48925 L 545.56137,405.09594 L 548.03869,407.57326 L 550.44296,411.47179 L 550.13963,414.58951 L 548.49369,416.76348 L 549.38126,417.9263 L 554.24039,421.37543 L 554.4707,421.32488 L 559.17815,423.34718 L 558.11647,426.43679 L 550.62835,431.49816 L 549.75763,432.03742 L 530.54581,423.55503 L 529.53467,419.39807 L 530.29302,418.53862 L 531.71423,414.71309 L 531.46146,412.53351 L 531.23114,411.59539 L 532.90515,409.29783 L 538.42152,403.50057"
       id="SC_Lee"
       inkscape:label="Lee, SC" />
    <path
       style="font-size:12px;fill:#cc2f4a;fill-opacity:1;fill-rule:nonzero;stroke:#ffffff;stroke-width:1.15651929"
       d="M 528.41678,386.63686 L 538.42152,403.34892 L 538.42152,403.50057 L 532.90515,409.29783 L 531.23114,411.59539 L 531.46146,412.53351 L 531.71423,414.71309 L 530.29302,418.53862 L 529.53467,419.39807 L 522.31618,425.67281 L 516.59196,428.86917 L 506.4187,422.13381 L 508.01406,415.522 L 502.69428,402.41079 L 509.71053,395.22039 L 510.03635,395.1923 L 510.2105,397.52356 L 512.08672,398.13024 L 516.08639,398.20328 L 522.78245,395.74843 L 520.74329,391.92292 L 528.41678,386.63686"
       id="SC_Kershaw"
       inkscape:label="Kershaw, SC" />
    <path
       style="font-size:12px;fill:#86b6f2;fill-opacity:1;fill-rule:nonzero;stroke:#ffffff;stroke-width:1.15651929"
       d="M 529.53467,419.39807 L 530.54581,423.55503 L 549.75763,432.03742 L 550.62835,431.49816 L 558.11647,426.43679 L 559.17815,423.34718 L 561.93636,430.36342 L 550.24073,440.28954 L 539.15182,447.3732 L 532.51755,457.63074 L 526.26529,451.3279 L 522.31618,425.67281 L 529.53467,419.39807"
       id="SC_Sumter"
       inkscape:label="Sumter, SC" />
    <path
       style="font-size:12px;fill:#e27f90;fill-opacity:1;fill-rule:nonzero;stroke:#ffffff;stroke-width:1.15651929"
       d="M 501.4809,445.22732 L 504.58737,447.12039 L 513.78321,451.02456 L 518.51876,451.21555 L 526.26529,451.3279 L 532.51755,457.63074 L 535.78131,463.37744 L 535.12407,464.9728 L 529.00099,470.7476 L 527.14723,471.24754 L 507.17704,463.09656 L 501.66066,457.92844 L 506.46362,454.91749 L 508.08707,453.27154 L 507.25006,452.71542 L 505.60414,452.00763 L 502.52014,452.33904 L 501.60448,453.75466 L 500.11586,453.15358 L 499.99226,447.01929 L 500.08777,446.13733 L 501.4809,445.22732"
       id="SC_Calhoun"
       inkscape:label="Calhoun, SC" />
    <path
       style="font-size:12px;fill:#e27f90;fill-opacity:1;fill-rule:nonzero;stroke:#ffffff;stroke-width:1.15651929"
       d="M 522.72065,493.35236 L 533.76463,499.80686 L 534.03988,499.95853 L 535.93298,500.24502 L 539.98882,499.32376 L 547.30841,498.75078 L 547.46008,498.75078 L 548.16227,499.27882 L 548.44313,499.99225 L 549.73516,512.69902 L 549.91493,516.165 L 548.59482,522.5184 L 550.82495,526.42254 L 554.39206,534.3713 L 556.95926,537.93279 L 558.094,538.21929 L 558.549,538.09007 L 558.62765,537.55642 L 558.549,537.38228 L 557.86366,536.77559 L 558.52091,535.93858 L 562.24531,534.32073 L 562.72279,534.71959 L 562.75088,534.74768 L 558.36924,539.28662 L 558.01534,539.28662 L 553.04948,539.23605 L 549.63404,540.02249 L 526.09114,527.91119 L 507.04783,507.23319 L 522.31618,493.70628 L 522.72065,493.35236"
       id="SC_Colleton"
       inkscape:label="Colleton, SC" />
    <path
       style="font-size:12px;fill:#1666cb;fill-opacity:1;fill-rule:nonzero;stroke:#ffffff;stroke-width:1.15651929"
       d="M 507.04783,507.23319 L 500.35739,513.12595 L 499.67767,513.76073 L 498.86877,514.87299 L 497.82954,517.76599 L 497.6554,520.43991 L 497.17227,523.88906 L 494.64441,528.16398 L 492.0379,529.91663 L 490.89193,530.46714 L 479.37608,510.13743 L 474.41019,507.40732 L 478.1346,502.04261 L 483.70716,502.8965 L 489.27409,504.00874 L 494.11076,503.22791 L 499.40804,501.66063 L 507.04783,507.23319"
       id="SC_Allendale"
       inkscape:label="Allendale, SC" />
    <path
       style="font-size:12px;fill:#4389e3;fill-opacity:1;fill-rule:nonzero;stroke:#ffffff;stroke-width:1.15651929"
       d="M 522.31618,493.70628 L 507.04783,507.23319 L 499.40804,501.66063 L 497.279,499.25637 L 496.99814,498.21152 L 495.22302,483.40379 L 494.72307,480.8422 L 494.00966,478.84237 L 501.12138,481.98819 L 507.65452,484.21271 L 509.55324,484.86994 L 515.63137,488.03821 L 522.31618,493.70628"
       id="SC_Bamberg"
       inkscape:label="Bamberg, SC" />
    <path
       style="font-size:12px;fill:#4389e3;fill-opacity:1;fill-rule:nonzero;stroke:#ffffff;stroke-width:1.15651929"
       d="M 501.66066,457.92844 L 507.17704,463.09656 L 527.14723,471.24754 L 529.00099,470.7476 L 535.12407,464.9728 L 535.78131,463.37744 L 538.87656,467.07375 L 540.77527,468.89381 L 543.19639,470.49478 L 545.05578,471.09586 L 545.83662,471.1745 L 547.5331,470.84308 L 553.40899,468.91627 L 547.33087,483.68466 L 543.45479,484.29135 L 540.3708,483.55546 L 539.70793,483.20157 L 538.99452,482.11177 L 538.82599,481.57811 L 538.78667,480.80289 L 538.64623,480.21305 L 538.33727,479.78612 L 538.03392,479.53332 L 522.72065,493.35236 L 522.31618,493.70628 L 515.63137,488.03821 L 509.55324,484.86994 L 507.65452,484.21271 L 501.12138,481.98819 L 494.00966,478.84237 L 484.51046,476.59538 L 493.7344,463.19767 L 501.66066,457.92844"
       id="SC_Orangeburg"
       inkscape:label="Orangeburg, SC" />
    <path
       style="font-size:12px;fill:#e27f90;fill-opacity:1;fill-rule:nonzero;stroke:#ffffff;stroke-width:1.15651929"
       d="M 494.00966,478.84237 L 494.72307,480.8422 L 495.22302,483.40379 L 496.99814,498.21152 L 497.279,499.25637 L 499.40804,501.66063 L 494.11076,503.22791 L 489.27409,504.00874 L 483.70716,502.8965 L 478.1346,502.04261 L 474.41019,507.40732 L 464.30435,502.67179 L 484.51046,476.59538 L 494.00966,478.84237"
       id="SC_Barnwell"
       inkscape:label="Barnwell, SC" />
    <path
       style="font-size:12px;fill:#cc2f4a;fill-opacity:1;fill-rule:nonzero;stroke:#ffffff;stroke-width:1.15651929"
       d="M 468.46129,450.59202 L 468.71407,450.96838 L 471.19699,453.47378 L 479.32552,459.60248 L 480.71304,459.77661 L 482.84206,459.73168 L 484.19028,459.91142 L 487.90905,460.93943 L 493.7344,463.19767 L 484.51046,476.59538 L 464.30435,502.67179 L 458.66999,498.41374 L 454.73775,492.84679 L 453.3165,487.35851 L 449.3,482.67351 L 446.46318,479.98836 L 445.952,479.50523 L 464.38861,455.83313 L 468.46129,450.59202"
       id="SC_Aiken"
       inkscape:label="Aiken, SC" />
    <path
       style="font-size:12px;fill:#cc2f4a;fill-opacity:1;fill-rule:nonzero;stroke:#ffffff;stroke-width:1.15651929"
       d="M 478.64018,425.42003 L 485.65641,431.34647 L 487.40348,431.34647 L 489.5999,431.5768 L 491.80758,432.8632 L 497.22286,436.76736 L 498.21152,437.80659 L 500.44166,441.22203 L 500.6439,441.62649 L 501.4809,445.22732 L 500.08777,446.13733 L 499.99226,447.01929 L 500.11586,453.15358 L 501.60448,453.75466 L 502.52014,452.33904 L 505.60414,452.00763 L 507.25006,452.71542 L 508.08707,453.27154 L 506.46362,454.91749 L 501.66066,457.92844 L 493.7344,463.19767 L 487.90905,460.93943 L 484.19028,459.91142 L 482.84206,459.73168 L 480.71304,459.77661 L 479.32552,459.60248 L 471.19699,453.47378 L 468.71407,450.96838 L 468.46129,450.59202 L 472.14075,435.35175 L 478.64018,425.42003"
       id="SC_Lexington"
       inkscape:label="Lexington, SC" />
    <path
       style="font-size:12px;fill:#4389e3;fill-opacity:1;fill-rule:nonzero;stroke:#ffffff;stroke-width:1.15651929"
       d="M 508.01406,415.522 L 506.4187,422.13381 L 516.59196,428.86917 L 522.31618,425.67281 L 526.26529,451.3279 L 518.51876,451.21555 L 513.78321,451.02456 L 504.58737,447.12039 L 501.4809,445.22732 L 500.6439,441.62649 L 500.44166,441.22203 L 498.21152,437.80659 L 497.22286,436.76736 L 491.80758,432.8632 L 489.5999,431.5768 L 487.40348,431.34647 L 485.65641,431.34647 L 478.64018,425.42003 L 479.44911,422.21244 L 481.44892,422.35849 L 491.02114,422.13381 L 500.17763,418.00493 L 508.01406,415.522"
       id="SC_Richland"
       inkscape:label="Richland, SC" />
    <path
       style="font-size:12px;fill:#4389e3;fill-opacity:1;fill-rule:nonzero;stroke:#ffffff;stroke-width:1.15651929"
       d="M 501.80672,396.25964 L 502.69428,402.41079 L 508.01406,415.522 L 500.17763,418.00493 L 491.02114,422.13381 L 481.44892,422.35849 L 479.44911,422.21244 L 470.36561,404.81505 L 469.52301,399.22005 L 479.75244,398.20328 L 493.37487,397.11909 L 501.80672,396.25964"
       id="SC_Fairfield"
       inkscape:label="Fairfield, SC" />
    <path
       style="font-size:12px;fill:#e27f90;fill-opacity:1;fill-rule:nonzero;stroke:#ffffff;stroke-width:1.15651929"
       d="M 470.36561,404.81505 L 479.44911,422.21244 L 478.64018,425.42003 L 472.14075,435.35175 L 470.36561,435.80679 L 467.75911,435.20009 L 466.03451,434.5653 L 462.15845,432.36325 L 457.62515,430.46454 L 456.08593,430.03762 L 449.42361,431.72847 L 447.77768,433.57664 L 448.00238,434.66641 L 442.86799,430.43646 L 444.3847,426.89181 L 449.11462,418.8925 L 450.69316,417.32523 L 454.33328,410.2809 L 457.02405,403.97807 L 464.73688,408.43273 L 466.81535,405.68017 L 467.70853,405.24201 L 469.45558,404.75889 L 470.24203,404.74204 L 470.36561,404.81505"
       id="SC_Newberry"
       inkscape:label="Newberry, SC" />
    <path
       style="font-size:12px;fill:#cc2f4a;fill-opacity:1;fill-rule:nonzero;stroke:#ffffff;stroke-width:1.15651929"
       d="M 448.00238,434.66641 L 447.77768,433.57664 L 449.42361,431.72847 L 456.08593,430.03762 L 457.62515,430.46454 L 462.15845,432.36325 L 466.03451,434.5653 L 467.75911,435.20009 L 470.36561,435.80679 L 472.14075,435.35175 L 468.46129,450.59202 L 464.38861,455.83313 L 452.88958,453.75466 L 451.40096,452.86708 L 450.62012,452.18737 L 448.28323,446.41259 L 446.05311,446.64292 L 441.72201,448.38995 L 448.00238,434.66641"
       id="SC_Saluda"
       inkscape:label="Saluda, SC" />
    <path
       style="font-size:12px;fill:#e27f90;fill-opacity:1;fill-rule:nonzero;stroke:#ffffff;stroke-width:1.15651929"
       d="M 441.72201,448.38995 L 446.05311,446.64292 L 448.28323,446.41259 L 450.62012,452.18737 L 451.40096,452.86708 L 452.88958,453.75466 L 464.38861,455.83313 L 445.952,479.50523 L 444.96892,478.5896 L 439.1155,476.1123 L 433.89684,467.01757 L 433.34633,452.00763 L 439.51996,449.35054 L 441.72201,448.38995"
       id="SC_Edgefield"
       inkscape:label="Edgefield, SC" />
    <path
       style="font-size:12px;fill:#e27f90;fill-opacity:1;fill-rule:nonzero;stroke:#ffffff;stroke-width:1.15651929"
       d="M 439.51996,449.35054 L 433.34633,452.00763 L 433.89684,467.01757 L 439.1155,476.1123 L 432.18352,470.06224 L 429.77923,465.52893 L 426.05483,462.46739 L 424.48755,461.3495 L 419.31945,458.743 L 419.04419,458.72053 L 418.20158,459.04635 L 417.8252,458.94524 L 408.86532,453.60861 L 406.38237,449.83365 L 409.70229,444.94645 L 412.2021,444.15998 L 414.40977,445.12058 L 415.06701,445.07564 L 418.89254,444.69364 L 421.80239,443.77801 L 424.71788,449.60335 L 429.32421,448.4405 L 433.0149,447.82822 L 439.29527,447.14288 L 439.51996,449.35054"
       id="SC_McCormick"
       inkscape:label="McCormick, SC" />
    <path
       style="font-size:12px;fill:#e27f90;fill-opacity:1;fill-rule:nonzero;stroke:#ffffff;stroke-width:1.15651929"
       d="M 422.93712,418.1847 L 424.00445,419.29696 L 429.09953,423.01573 L 437.80664,427.54907 L 442.86799,430.43646 L 448.00238,434.66641 L 441.72201,448.38995 L 439.51996,449.35054 L 439.29527,447.14288 L 433.0149,447.82822 L 429.32421,448.4405 L 424.71788,449.60335 L 421.80239,443.77801 L 423.72358,441.62649 L 424.85829,440.08168 L 425.62229,438.03132 L 425.87506,435.90227 L 425.59981,433.85189 L 424.83584,431.88576 L 423.5719,430.21174 L 422.70682,429.39723 L 421.5496,428.56583 L 420.71259,428.23437 L 418.45436,423.75163 L 422.93712,418.1847"
       id="SC_Greenwood"
       inkscape:label="Greenwood, SC" />
    <path
       style="font-size:12px;fill:#cc2f4a;fill-opacity:1;fill-rule:nonzero;stroke:#ffffff;stroke-width:1.15651929"
       d="M 444.00273,401.44457 L 457.02405,403.97807 L 454.33328,410.2809 L 450.69316,417.32523 L 449.11462,418.8925 L 444.3847,426.89181 L 442.86799,430.43646 L 437.80664,427.54907 L 429.09953,423.01573 L 424.00445,419.29696 L 422.93712,418.1847 L 418.18472,413.39861 L 422.20684,408.99447 L 421.5496,405.32063 L 423.3472,396.91688 L 424.81335,390.23206 L 444.00273,401.44457"
       id="SC_Laurens" />
    <path
       style="font-size:12px;fill:#cc2f4a;fill-opacity:1;fill-rule:nonzero;stroke:#ffffff;stroke-width:1.15651929"
       d="M 418.18472,413.39861 L 422.93712,418.1847 L 418.45436,423.75163 L 420.71259,428.23437 L 421.5496,428.56583 L 422.70682,429.39723 L 423.5719,430.21174 L 424.83584,431.88576 L 425.59981,433.85189 L 425.87506,435.90227 L 425.62229,438.03132 L 424.85829,440.08168 L 423.72358,441.62649 L 421.80239,443.77801 L 418.89254,444.69364 L 415.06701,445.07564 L 414.40977,445.12058 L 412.2021,444.15998 L 409.70229,444.94645 L 406.38237,449.83365 L 395.8496,436.84602 L 418.18472,413.39861"
       id="SC_Abbeville"
       inkscape:label="Abbeville, SC" />
    <path
       style="font-size:12px;fill:#cc2f4a;fill-opacity:1;fill-rule:nonzero;stroke:#ffffff;stroke-width:1.15651929"
       d="M 385.85043,407.75301 L 404.55669,390.65897 L 407.2924,401.44457 L 407.49464,402.07935 L 408.5114,404.4106 L 411.11791,408.73607 L 418.18472,413.39861 L 395.8496,436.84602 L 393.61944,431.04315 L 387.3447,422.21244 L 385.37295,419.16776 L 385.39542,418.97115 L 384.78872,418.51051 L 383.54727,418.15661 L 381.42386,418.43748 L 379.0645,419.0217 L 379.01395,419.04419 L 378.35671,419.3756 L 385.85043,407.75301"
       id="SC_Anderson"
       inkscape:label="Anderson, SC" />
    <path
       style="font-size:12px;fill:#e27f90;fill-opacity:1;fill-rule:nonzero;stroke:#ffffff;stroke-width:1.15651929"
       d="M 448.86186,377.26688 L 452.91207,377.80053 L 460.83835,378.15445 L 461.97869,378.48589 L 462.6865,378.86788 L 464.54028,380.27787 L 463.50105,381.74964 L 469.52301,399.22005 L 470.36561,404.81505 L 470.24203,404.74204 L 469.45558,404.75889 L 467.70853,405.24201 L 466.81535,405.68017 L 464.73688,408.43273 L 457.02405,403.97807 L 444.00273,401.44457 L 444.88467,393.56886 L 445.49696,383.34501 L 447.37322,379.77229 L 448.86186,377.26688"
       id="SC_Union"
       inkscape:label="Union, SC" />
    <path
       style="font-size:12px;fill:#e27f90;fill-opacity:1;fill-rule:nonzero;stroke:#ffffff;stroke-width:1.15651929"
       d="M 531.17495,371.46401 L 554.16737,368.13284 L 563.25647,386.88965 L 551.12831,391.87799 L 538.42152,403.34892 L 528.41678,386.63686 L 517.08069,373.55373 L 531.17495,371.46401"
       id="SC_Chesterfield"
       inkscape:label="Chesterfield, SC" />
    <path
       style="font-size:12px;fill:#cc2f4a;fill-opacity:1;fill-rule:nonzero;stroke:#ffffff;stroke-width:1.15651929"
       d="M 493.95908,358.12809 L 498.66654,362.93666 L 502.81787,367.11606 L 503.22233,374.5087 L 503.25042,375.19404 L 504.44133,375.41874 L 517.08069,373.55373 L 528.41678,386.63686 L 520.74329,391.92292 L 522.78245,395.74843 L 516.08639,398.20328 L 512.08672,398.13024 L 510.2105,397.52356 L 510.03635,395.1923 L 509.71053,395.22039 L 502.69428,402.41079 L 501.80672,396.25964 L 499.63275,389.82197 L 499.70578,387.34467 L 500.54276,384.35617 L 499.27324,380.71041 L 498.00929,377.4691 L 497.37453,376.48044 L 493.95908,358.12809"
       id="SC_Lancaster"
       inkscape:label="Lancaster, SC" />
    <path
       style="font-size:12px;fill:#e27f90;fill-opacity:1;fill-rule:nonzero;stroke:#ffffff;stroke-width:1.15651929"
       d="M 497.37453,376.48044 L 498.00929,377.4691 L 499.27324,380.71041 L 500.54276,384.35617 L 499.70578,387.34467 L 499.63275,389.82197 L 501.80672,396.25964 L 493.37487,397.11909 L 479.75244,398.20328 L 469.52301,399.22005 L 463.50105,381.74964 L 497.37453,376.48044"
       id="SC_Chester"
       inkscape:label="Chester, SC" />
    <path
       style="font-size:12px;fill:#e27f90;fill-opacity:1;fill-rule:nonzero;stroke:#ffffff;stroke-width:1.15651929"
       d="M 468.46129,355.77435 L 485.16769,354.25202 L 493.95908,358.12809 L 497.37453,376.48044 L 463.50105,381.74964 L 464.54028,380.27787 L 463.44486,378.23309 L 461.54616,373.24476 L 460.61365,366.86329 L 460.63611,366.45882 L 464.48972,358.3584 L 466.18057,355.99905 L 468.46129,355.77435"
       id="SC_York"
       inkscape:label="York, SC" />
    <path
       style="font-size:12px;fill:#cc2f4a;fill-opacity:1;fill-rule:nonzero;stroke:#ffffff;stroke-width:1.15651929"
       d="M 442.66576,358.48199 L 466.18057,355.99905 L 464.48972,358.3584 L 460.63611,366.45882 L 460.61365,366.86329 L 461.54616,373.24476 L 463.44486,378.23309 L 464.54028,380.27787 L 462.6865,378.86788 L 461.97869,378.48589 L 460.83835,378.15445 L 452.91207,377.80053 L 448.86186,377.26688 L 445.87897,375.67152 L 442.71632,369.12151 L 436.43595,359.11677 L 442.66576,358.48199"
       id="SC_Cherokee"
       inkscape:label="Cherokee, SC" />
    <path
       style="font-size:12px;fill:#cc2f4a;fill-opacity:1;fill-rule:nonzero;stroke:#ffffff;stroke-width:1.15651929"
       d="M 430.88588,359.72346 L 436.43595,359.11677 L 442.71632,369.12151 L 445.87897,375.67152 L 448.86186,377.26688 L 447.37322,379.77229 L 445.49696,383.34501 L 444.88467,393.56886 L 444.00273,401.44457 L 424.81335,390.23206 L 419.62279,386.10319 L 419.39811,385.5246 L 418.078,374.18287 L 416.40398,361.21771 L 430.88588,359.72346"
       id="SC_Spartanburg"
       inkscape:label="Spartanburg, SC" />
    <path
       style="font-size:12px;fill:#e27f90;fill-opacity:1;fill-rule:nonzero;stroke:#ffffff;stroke-width:1.15651929"
       d="M 408.21367,361.59409 L 416.40398,361.21771 L 418.078,374.18287 L 419.39811,385.5246 L 419.62279,386.10319 L 424.81335,390.23206 L 423.3472,396.91688 L 421.5496,405.32063 L 422.20684,408.99447 L 418.18472,413.39861 L 411.11791,408.73607 L 408.5114,404.4106 L 407.49464,402.07935 L 407.2924,401.44457 L 404.55669,390.65897 L 404.84318,390.30509 L 404.36008,387.85024 L 403.72529,386.15376 L 399.53464,376.96353 L 396.91128,373.72224 L 385.7718,375.01427 L 396.15291,367.92498 L 408.21367,361.59409"
       id="SC_Greenville"
       inkscape:label="Greenville, SC" />
  </g>
</svg>
