<?xml version="1.0" encoding="utf-8"?>
<!-- Generator: Adobe Illustrator 16.0.0, SVG Export Plug-In . SVG Version: 6.00 Build 0)  -->
<!DOCTYPE svg PUBLIC "-//W3C//DTD SVG 1.1//EN" "http://www.w3.org/Graphics/SVG/1.1/DTD/svg11.dtd">
<svg version="1.1"
	 id="svg5794" xmlns:svg="http://www.w3.org/2000/svg" xmlns:rdf="http://www.w3.org/1999/02/22-rdf-syntax-ns#" xmlns:cc="http://creativecommons.org/ns#" xmlns:sodipodi="http://sodipodi.sourceforge.net/DTD/sodipodi-0.dtd" xmlns:dc="http://purl.org/dc/elements/1.1/" xmlns:inkscape="http://www.inkscape.org/namespaces/inkscape" inkscape:version="0.48.3.1 r9886" sodipodi:docname="South_Dakota_Presidential_Election_Results_by_County,_2012.svg" sodipodi:version="0.32" inkscape:output_extension="org.inkscape.output.svg.inkscape"
	 xmlns="http://www.w3.org/2000/svg" xmlns:xlink="http://www.w3.org/1999/xlink" x="0px" y="0px" width="242.9px" height="152.2px"
	 viewBox="0 0 242.9 152.2" enable-background="new 0 0 242.9 152.2" xml:space="preserve">
<defs>
	
	
		<inkscape:perspective  id="perspective5802" inkscape:persp3d-origin="372.04724 : 350.78739 : 1" sodipodi:type="inkscape:persp3d" inkscape:vp_y="0 : 1000 : 0" inkscape:vp_x="0 : 526.18109 : 1" inkscape:vp_z="744.09448 : 526.18109 : 1">
		</inkscape:perspective>
</defs>
<sodipodi:namedview  bordercolor="#666666" pagecolor="#ffffff" objecttolerance="10" borderopacity="1.0" guidetolerance="10" inkscape:cx="97.046322" showgrid="false" inkscape:cy="104.47605" inkscape:zoom="1" gridtolerance="10000" id="base" inkscape:window-width="813" inkscape:window-y="14" inkscape:current-layer="layer1" inkscape:pageopacity="0.0" inkscape:window-height="709" inkscape:window-maximized="0" inkscape:pageshadow="2" inkscape:window-x="1086" inkscape:document-units="px">
	</sodipodi:namedview>
<g>
	<path id="SD_Perkins_1_" fill="#AA0000" stroke="#FFFFFF" stroke-width="0.9546" d="M44.506,12.421l27.327,0.586l-0.425,18.406
		L71.007,48.35l-28.182-0.616l0.23-6.768l0.246-6.763l0.676-13.515l0.222,0.003L44.506,12.421"/>
	<path id="SD_Harding_1_" fill="#A80000" stroke="#FFFFFF" stroke-width="0.9546" d="M12.479,11.44l30.466,0.942l1.56,0.039
		l-0.311,8.269l-0.222-0.003l-0.676,13.515l-0.246,6.763l-31.765-0.979l1.107-26.078L12.479,11.44"/>
	<path id="SD_Custer_1_" fill="#CC2F4A" stroke="#FFFFFF" stroke-width="0.9546" d="M8.36,93.072l20.35,0.547l20.615,0.575
		l-0.059,0.575l-0.373,1.489l-3.477,4.398l-3.021,0.468l-2.813,2.61l-0.174,5.061l-31.721-1.024l0.043-0.983L8.36,93.072"/>
	<path id="SD_Fall_River_1_" fill="#D40000" stroke="#FFFFFF" stroke-width="0.9546" d="M7.687,107.775l31.721,1.023l-0.659,18.657
		l-15.286-0.441l-16.608-0.55L7.687,107.775"/>
	<path id="SD_Bennett_1_" fill="#E27F90" stroke="#FFFFFF" stroke-width="0.9546" d="M92.74,113.126l-0.226,15.347l-12.064-0.062
		l-7.578-0.213l-6.274-0.112l0.156-5.08l-0.828-0.025l0.197-10.217L92.74,113.126"/>
	<path id="SD_Mellette_1_" fill="#E27F90" stroke="#FFFFFF" stroke-width="0.9546" d="M97.934,95.442l0.199-0.214l0.674-0.178
		l1.286,0.079l1.867,0.788l1.639,1.243l9.705,2.008l5.4,0.38l0.627,0.393l0.298,0.454l3.25,0.112l0.445,12.681l-30.585-0.062
		l0.229-15.163l0.38-0.904l0.233-0.341l2.187-1.278l1.482-0.302l0.503,0.156L97.934,95.442"/>
	<path id="SD_Tripp_1_" fill="#D40000" stroke="#FFFFFF" stroke-width="0.9546" d="M122.88,100.507l0.891,0.743l4.643,0.005
		l5.692-0.287l2.885-1.575l2.998-1.017l0.279,0.121l0.804,0.799l0.051,9.515l2.707-0.011l0.067,19.657l-20.149,0.083l-0.424-15.353
		L122.88,100.507"/>
	<path id="SD_Gregory_1_" fill="#D40000" stroke="#FFFFFF" stroke-width="0.9546" d="M150.928,108.725l1.285,2.447l13.15,10.971
		l2.827,1.797l3.226,1.186l0.394,0.014l1.683,0.526l0.911,0.688l0.385,0.454l0.407,0.668l0.085,0.24l0.026,0.288l-22.931,0.371
		l-8.48,0.085l-0.067-19.657L150.928,108.725"/>
	<path id="SD_Brule_1_" fill="#CC2F4A" stroke="#FFFFFF" stroke-width="0.9546" d="M161.909,91.528l3.579-0.049l0.595,17.054
		l-15.14,0.192l0.164-0.197l0.227-0.417l0.088-0.36l-0.023-0.187l-2.242-4.408l-0.142-0.2l1.503-8.297l0.024-0.191l-0.05-0.115
		l-1.407-2.589L161.909,91.528"/>
	<path id="SD_Aurora_1_" fill="#CC2F4A" stroke="#FFFFFF" stroke-width="0.9546" d="M179.731,91.107l0.251,3.401l0.377,13.782
		l-11.586,0.207l-2.69,0.034l-0.595-17.055L179.731,91.107"/>
	<path id="SD_Davison_1_" fill="#CC2F4A" stroke="#FFFFFF" stroke-width="0.9546" d="M190.697,94.293l0.394,13.737l-4.521,0.143
		l-6.207,0.116l-0.381-13.781L190.697,94.293"/>
	<path id="SD_Douglas_1_" fill="#AA0000" stroke="#FFFFFF" stroke-width="0.9546" d="M168.773,108.498l11.586-0.207l6.211-0.117
		l0.383,11.789l-16.868-6.346l-0.497-0.106l-0.787,0.052l-0.052-2.262L168.773,108.498"/>
	<path id="SD_Charles_Mix_1_" fill="#CC2F4A" stroke="#FFFFFF" stroke-width="0.9546" d="M150.943,108.725l15.14-0.192l2.69-0.033
		l-0.025,2.799l0.053,2.26l0.786-0.051l0.498,0.108l16.868,6.347l0.921,1.125l-0.293,0.666l-0.57,5.933l-0.223,3.594l-0.887,2.759
		l-0.432,0.07l-4.348-1.627l-5.814-4.479l-0.026-0.288l-0.085-0.24l-0.407-0.668l-0.385-0.454l-0.911-0.688l-1.683-0.526
		l-0.394-0.014l-3.226-1.186l-2.827-1.797l-13.15-10.971l-1.285-2.447H150.943"/>
	<path id="SD_Bon_Homme_1_" fill="#D40000" stroke="#FFFFFF" stroke-width="0.9546" d="M187.874,121.089l13.371-0.351l-1.159,12.82
		l-2.669-0.209l-3.449,1.361l-0.605,0.889l-0.822,0.77l-0.396,0.255l-1.533,0.281l-0.502,0.045l-0.542-0.054l-0.667-0.243
		l-3.43-2.543l0.432-0.07l0.887-2.76l0.223-3.593l0.574-5.934L187.874,121.089"/>
	<path id="SD_Yankton_1_" fill="#E27F90" stroke="#FFFFFF" stroke-width="0.9546" d="M201.245,120.737l7.224-0.236l7.327,3.165
		l0.974,11.722l-3.64-2.658l-2.174-0.147l-2.884,0.012l-1.878,0.321l-6.108,0.645L201.245,120.737"/>
	<path id="SD_Hutchinson_1_" fill="#D40000" stroke="#FFFFFF" stroke-width="0.9546" d="M186.57,108.173l4.521-0.143l10.754-0.288
		l6.197-0.176l0.427,12.936l-7.224,0.236l-13.371,0.351l-0.921-1.127L186.57,108.173"/>
	<path id="SD_Hanson_1_" fill="#D40000" stroke="#FFFFFF" stroke-width="0.9546" d="M194.19,94.236l7.265-0.156l0.39,13.663
		l-10.754,0.29l-0.394-13.739L194.19,94.236"/>
	<path id="SD_McCook_1_" fill="#CC2F4A" stroke="#FFFFFF" stroke-width="0.9546" d="M208.618,93.892l7.199-0.218l0.4,13.652
		l-8.179,0.243l-6.198,0.173l-0.386-13.663L208.618,93.892"/>
	<path id="SD_Turner_1_" fill="#D40000" stroke="#FFFFFF" stroke-width="0.9546" d="M216.221,107.324l6.172-0.243l0.549,16.328
		l-7.146,0.257l-7.327-3.165l-0.431-12.935L216.221,107.324"/>
	<path id="SD_Union_1_" fill="#CC2F4A" stroke="#FFFFFF" stroke-width="0.9546" d="M237.15,122.899l-1.807,6.903l-1.09,3.105
		l-0.991,5.282l0.823,0.537l1.039,0.829l0.84,1.149l1.219,2.68l1.213,2.773l-5.926-1.147l-2.31-2.949l-0.107-0.349l0.002-0.354
		l0.094-0.466l-0.203-0.648l-0.369-0.694l-2.544-1.362l-0.501-14.893L237.15,122.899"/>
	<path id="SD_Lincoln_1_" fill="#CC2F4A" stroke="#FFFFFF" stroke-width="0.9546" d="M222.39,107.081l9.809-0.355l0.93,9.387
		l0.73,1.388l2.167-0.082l0.291,0.11l1.335,3.875l-0.077,0.275l-0.425,1.219l-10.622,0.396l-3.59,0.115L222.39,107.081"/>
	<path id="SD_Minnehaha_1_" fill="#E27F90" stroke="#FFFFFF" stroke-width="0.9546" d="M223.018,93.431l13.031-0.536l0.537,13.668
		l-4.385,0.16l-9.809,0.355l-6.172,0.245l-0.405-13.652L223.018,93.431"/>
	<path id="SD_Lyman_1_" fill="#CC2F4A" stroke="#FFFFFF" stroke-width="0.9546" d="M142.45,81.692l0.444,3.621l0.119,0.295
		l0.569,0.726l0.831,0.717l0.848,0.149l0.994,0.081l0.667,0.221l1.521,1.198l0.697,0.645l0.243,0.534l0.004,0.466l-0.118,0.898
		l-0.181,0.517l1.406,2.589l0.049,0.114l-0.022,0.193l-1.504,8.296l0.141,0.201l2.242,4.407l0.025,0.188l-0.088,0.358l-0.227,0.418
		l-0.164,0.197l-0.017,0.001l-7.098,0.074l-2.707,0.012l-0.052-9.516l-0.803-0.798l-0.279-0.123l-3,1.019l-2.885,1.573l-5.69,0.289
		l-4.644-0.006l-0.89-0.742l-3.251-0.113l0.009-4.192l-0.798-0.894l0.037-12.582l0.014-1.024l12.789-0.052l0.084,0.267l1.065,1.796
		l0.221,0.307l0.224,0.179l0.268,0.125l0.458,0.104l6.879,0.969l0.529-0.228l0.204-0.257l0.166-0.318l0.018-0.223l-0.043-0.364
		l-0.073-0.241l-0.233-0.375l-1.584-2.676L142.45,81.692"/>
	<path id="SD_Jones_1_" fill="#AA0000" stroke="#FFFFFF" stroke-width="0.9546" d="M118.878,82.727l-0.037,12.581l0.799,0.895
		l-0.009,4.191l-0.296-0.453l-0.629-0.393l-5.4-0.381l-9.703-2.007l-1.641-1.243l-1.868-0.788l-1.285-0.079l-0.674,0.178l-0.2,0.214
		l0.077-5.995l0.592-6.782L118.878,82.727"/>
	<path id="SD_Jackson_1_" fill="#CC2F4A" stroke="#FFFFFF" stroke-width="0.9546" d="M69.81,89.141l28.198,0.308l-0.075,5.996
		l-0.18-0.146l-0.503-0.157l-1.482,0.302l-2.187,1.279l-0.233,0.34l-0.38,0.905l-0.229,15.162l-26.616-0.365l0.084-3.397
		l-0.843-0.005l0.211-8.787l1.291,0.53l1.208-0.034l0.084-0.004l1.035-0.707l0.268-11.213L69.81,89.141"/>
	<path id="SD_Stanley_1_" fill="#D40000" stroke="#FFFFFF" stroke-width="0.9546" d="M108.656,59.151l2.479,1.243l0.096,0.079
		l0.473,1.176l0.023,0.534l-0.37,1.638l-0.283,0.792l-0.274,0.431l-0.076,0.879l0.156,0.551l0.216,0.318l0.349,0.353l0.39,0.23
		l0.427,0.162l1.965,0.364l-1.259,1.841l-0.205,0.299l-0.146,0.619l-0.028,0.436l0.037,0.15l0.292,0.345l6.141,3.979l0.12,0.088
		l0.651,0.245l2.791,0.629l1.069,0.103l1.219-0.027l0.456,0.105l1.927,0.521l4.829,1.631l0.268,0.112l0.421,0.318l0.243,0.521
		l-0.027,0.095l-1.348,1.741l-12.79,0.052l-0.015,1.024l-20.275-0.062l-3.564-0.009l0.091-6.857l0.559-13.55l0.548-2.232
		l3.373,0.931l0.974-0.303l0.435-0.753l1.8-0.763l2.436-0.473L108.656,59.151"/>
	<path id="SD_Haakon_1_" fill="#AA0000" stroke="#FFFFFF" stroke-width="0.9546" d="M70.505,68.927l0.134-0.279l0.309-0.244
		l8.101-2.033l1.521-0.188l0.813,0.002l0.204,0.293l4.821-1.522l7.07-2.815l2.029-1.151l0.729-0.973L95.69,62.25l-0.559,13.548
		l-0.095,6.86l3.565,0.008l-0.591,6.782l-28.202-0.308l0.326-13.658l0.188,0.004l0.153-6.542L70.505,68.927"/>
	<path id="SD_Pennington_1_" fill="#CC2F4A" stroke="#FFFFFF" stroke-width="0.9546" d="M8.903,81.829l17.952,0.61l31.745,0.803
		l0.914-3.707l0.369-2.896l1.527-4.329l0.22-0.359l0.376-0.417l0.38-0.244l1.538-0.055l1.933,0.61l1.24-0.01l2.057-2.49l0.243-0.124
		l1.081-0.278l-0.153,6.542l-0.189-0.003L69.81,89.138l-0.346,0.005l-0.268,11.214l-1.035,0.705l-0.083,0.004l-1.209,0.036
		l-1.291-0.53l-1.186,0.503l-18.98-0.418l3.479-4.398l0.373-1.489l0.057-0.575l-20.613-0.575L8.356,93.072L8.903,81.829"/>
	<path id="SD_Lawrence_1_" fill="#CC2F4A" stroke="#FFFFFF" stroke-width="0.9546" d="M9.655,65.036l4.55-0.772l2.476-0.315
		l7.489,0.264L23.535,74.98l-0.125,2.831l3.613,0.091l-0.169,4.537L8.903,81.831l0.077-1.531L9.655,65.036"/>
	<path id="SD_Butte_1_" fill="#D40000" stroke="#FFFFFF" stroke-width="0.9546" d="M43.052,40.967l-0.231,6.768l-0.043,0.002
		l-0.412,12l-0.322,4.986l-17.877-0.51l-7.489-0.264l-2.477,0.315l-4.55,0.772l0.733-16.654l0.898-8.394L43.052,40.967"/>
	<path id="SD_Meade_1_" fill="#D40000" stroke="#FFFFFF" stroke-width="0.9546" d="M71.005,48.351l-0.5,20.576l-0.029,0.018
		l-1.081,0.277l-0.242,0.124l-2.057,2.49l-1.24,0.012l-1.933-0.611l-1.538,0.055l-0.38,0.244l-0.376,0.416l-0.22,0.359l-1.527,4.331
		l-0.369,2.896l-0.913,3.706l-31.746-0.804l0.169-4.537l-3.613-0.091l0.125-2.831l0.635-10.767l17.877,0.51l0.322-4.986l0.412-12
		l0.043-0.002L71.005,48.351"/>
	<path id="SD_Walworth_1_" fill="#D40000" stroke="#FFFFFF" stroke-width="0.9546" d="M117.342,26.999l20.825-0.007l0.278,0.005
		l-0.022,13.565l-16.166,0.02l-1.371-1.758l-0.276-1.023l0.114-0.335l0.135-0.207l0.762-0.906l0.258-0.788l0.003-0.235l-1.973-3.571
		L117.342,26.999"/>
	<path id="SD_Potter_1_" fill="#AA0000" stroke="#FFFFFF" stroke-width="0.9546" d="M122.257,40.584l16.164-0.02l3.973-0.021
		l0.08,13.59l-2.997,0.007l-21.548,0.074l-0.228-0.586l-0.093-0.421l-0.215-1.943l0.009-0.741l0.393-0.698l0.595-0.665l0.302-0.115
		l0.496,0.036l1.161-1.757l1.339-3.316l0.641-2.992L122.257,40.584"/>
	<path id="SD_Sully_1_" fill="#D40000" stroke="#FFFFFF" stroke-width="0.9546" d="M139.476,54.139l-0.03,13.666l-25.216,0.097
		l-1.966-0.364l-0.426-0.162l-0.39-0.23l-0.349-0.353l-0.216-0.318l-0.156-0.551l0.076-0.88l0.274-0.431l0.283-0.792l0.37-1.638
		l-0.023-0.534l-0.473-1.177l-0.094-0.079l-2.481-1.243l-0.199-0.172l-0.108-0.238l-0.033-0.394l0.084-0.4l0.104-0.307l0.267-0.5
		l0.356-0.234l0.13-0.019l0.547,0.18l0.359,0.302l0.243,0.243l0.501,0.73l0.896,0.848l0.749,0.216l1.103,0.183l0.54-0.23
		l3.321-3.023l0.47-0.521l0.261-0.41l0.031-0.297l-0.346-0.891L139.476,54.139"/>
	<path id="SD_Hughes_1_" fill="#CC2F4A" stroke="#FFFFFF" stroke-width="0.9546" d="M139.446,67.805l0.415,12.92l1.585,2.672
		l0.232,0.376l0.073,0.24l0.044,0.364l-0.019,0.224l-0.165,0.319l-0.205,0.257l-0.529,0.227L134,84.435l-0.458-0.103l-0.269-0.127
		l-0.223-0.178l-0.221-0.308l-1.067-1.795l-0.083-0.269l1.349-1.74l0.027-0.096l-0.244-0.521l-0.42-0.317l-0.267-0.114l-4.83-1.633
		l-1.928-0.518l-0.456-0.104l-1.218,0.029l-1.07-0.105l-2.79-0.63l-0.652-0.245l-0.12-0.088l-6.139-3.979l-0.293-0.344l-0.037-0.15
		l0.027-0.436l0.146-0.619l0.205-0.299l1.259-1.841L139.446,67.805"/>
	<path id="SD_Jerauld_1_" fill="#CC2F4A" stroke="#FFFFFF" stroke-width="0.9546" d="M161.827,81.294l6.734-0.101l10.994-0.205
		l0.176,10.118l-14.243,0.369l-3.579,0.048L161.827,81.294"/>
	<path id="SD_Sanborn_1_" fill="#D40000" stroke="#FFFFFF" stroke-width="0.9546" d="M179.555,80.989l14.247-0.262l0.129-0.005
		l0.255,13.514l-3.489,0.058l-10.719,0.215l-0.251-3.401L179.555,80.989"/>
	<path id="SD_Miner_1_" fill="#CC2F4A" stroke="#FFFFFF" stroke-width="0.9546" d="M208.222,80.336l0.396,13.556l-7.163,0.188
		l-7.265,0.156l-0.256-13.514L208.222,80.336"/>
	<path id="SD_Lake_1_" fill="#E27F90" stroke="#FFFFFF" stroke-width="0.9546" d="M208.222,80.336l7.16-0.264l7.166-0.223
		l0.473,13.583l-7.204,0.241l-7.195,0.217L208.222,80.336"/>
	<path id="SD_Moody_1_" fill="#E27F90" stroke="#FFFFFF" stroke-width="0.9546" d="M235.545,79.321l0.505,13.574l-13.031,0.536
		l-0.474-13.583L235.545,79.321"/>
	<path id="SD_Brookings_1_" fill="#E27F90" stroke="#FFFFFF" stroke-width="0.9546" d="M215.011,66.512l7.188-0.276l12.847-0.46
		l0.498,13.545l-13,0.527l-7.166,0.221L215.011,66.512"/>
	<path id="SD_Hamlin_1_" fill="#D40000" stroke="#FFFFFF" stroke-width="0.9546" d="M221.893,56.054l0.311,10.182l-7.189,0.276
		l-10.797,0.289l-0.237-10.156L221.893,56.054"/>
	<path id="SD_Kingsbury_1_" fill="#CC2F4A" stroke="#FFFFFF" stroke-width="0.9546" d="M204.215,66.799l10.797-0.291l0.371,13.56
		l-7.16,0.266l-14.292,0.384l-0.128,0.005l-0.286-13.647L204.215,66.799"/>
	<path id="SD_Beadle_1_" fill="#CC2F4A" stroke="#FFFFFF" stroke-width="0.9546" d="M189.748,63.746l3.769,3.33l0.286,13.651
		l-14.247,0.262l-10.994,0.207l-0.378-17.1L189.748,63.746"/>
	<path id="SD_Hyde_1_" fill="#D40000" stroke="#FFFFFF" stroke-width="0.9546" d="M142.471,54.132l7.713-0.063l0.054,13.658
		l0.362,0.001l0.106,13.793l-8.259,0.17l-2.59-0.97l-0.414-12.917l0.03-13.667L142.471,54.132"/>
	<path id="SD_Hand_1_" fill="#D40000" stroke="#FFFFFF" stroke-width="0.9546" d="M150.184,54.069l17.553-0.245l0.446,10.272
		l0.378,17.1l-6.734,0.101l-11.12,0.226l-0.106-13.79l-0.362-0.005L150.184,54.069"/>
	<path id="SD_Edmunds_1_" fill="#D40000" stroke="#FFFFFF" stroke-width="0.9546" d="M138.443,26.997l28.698-0.252l0.239,13.543
		l-24.985,0.253l-3.973,0.021L138.443,26.997"/>
	<path id="SD_Faulk_1_" fill="#D40000" stroke="#FFFFFF" stroke-width="0.9546" d="M167.381,40.29l0.146,0.006l0.21,13.529
		l-17.553,0.245l-7.713,0.063l-0.078-13.59L167.381,40.29"/>
	<path id="SD_Spink_1_" fill="#CC2F4A" stroke="#FFFFFF" stroke-width="0.9546" d="M189.136,39.984l0.063,3.409l0.153,9.615
		l0.024,0.555l0.162,0.012l0.213,10.169l-21.568,0.35l-0.446-10.272l-0.21-13.529L189.136,39.984"/>
	<path id="SD_Clark_1_" fill="#CC2F4A" stroke="#FFFFFF" stroke-width="0.9546" d="M203.515,43.085l0.465,13.558l0.237,10.156
		l-10.701,0.276l-3.765-3.33l-0.213-10.169l-0.162-0.011l-0.024-0.555l-0.153-9.615L203.515,43.085"/>
	<path id="SD_Codington_1_" fill="#CC2F4A" stroke="#FFFFFF" stroke-width="0.9546" d="M203.515,43.085l7.88-0.244l10.072-0.276
		l0.262,6.759l0.164,6.731l-17.913,0.589L203.515,43.085"/>
	<path id="SD_Deuel_1_" fill="#CC2F4A" stroke="#FFFFFF" stroke-width="0.9546" d="M234.395,48.827l0.278,6.716l0.253,6.814
		l0.12,3.419l-12.843,0.459l-0.311-10.182l-0.164-6.732L234.395,48.827"/>
	<path id="SD_Grant_1_" fill="#CC2F4A" stroke="#FFFFFF" stroke-width="0.9546" d="M233.355,35.234l0.582,2.23l0.455,11.365
		l-12.663,0.496l-0.262-6.759l-10.072,0.276l-0.181-5.7l6.429-0.181l2.11-1.228L233.355,35.234"/>
	<path id="SD_Brown_1_" fill="#E27F90" stroke="#FFFFFF" stroke-width="0.9546" d="M166.974,13.203l20.81-0.319l0.857-0.009
		l0.255,13.527l0.24,13.584l-21.609,0.312l-0.146-0.005l-0.238-13.544L166.974,13.203"/>
	<path id="SD_McPherson_1_" fill="#D40000" stroke="#FFFFFF" stroke-width="0.9546" d="M138.117,13.446l20.695-0.161l8.162-0.083
		l0.167,13.542l-28.699,0.252l-0.279-0.004L138.117,13.446"/>
	<path id="SD_Campbell_1_" fill="#AA0000" stroke="#FFFFFF" stroke-width="0.9546" d="M133.403,13.449l4.714-0.002l0.048,13.546
		l-20.825,0.007l0.4-1.559l0.294-0.59l0.565-0.38l1.249-0.066l0.213-0.062l0.497-0.323l0.148-0.212l0.197-0.495l0-0.709
		l-2.043-5.866l-0.179-0.428l-3.255-2.901L133.403,13.449"/>
	<path id="SD_Shannon_1_" fill="#0645B4" stroke="#FFFFFF" stroke-width="0.9546" d="M65.577,100.575l-0.213,8.784l0.845,0.006
		l-0.086,3.399l-0.195,10.217l0.828,0.022l-0.156,5.081l-21.529-0.456l-6.323-0.176l0.658-18.657l0.175-5.061l2.813-2.609
		l3.019-0.469l18.98,0.418L65.577,100.575"/>
	<path id="SD_Todd_1_" fill="#1666CB" stroke="#FFFFFF" stroke-width="0.9546" d="M92.74,113.126l30.585,0.063l0.425,15.353
		l-2.416-0.008l-2.169-0.001l-5.908-0.002h-11l-9.74-0.057L92.74,113.126"/>
	<path id="SD_Clay_1_" fill="#86B6F2" stroke="#FFFFFF" stroke-width="0.9546" d="M222.942,123.409l3.59-0.115l0.501,14.895
		l-6.461-1.955l-3.804-0.849l-0.973-11.719L222.942,123.409"/>
	<path id="SD_Ziebach_1_" fill="#F2B3BE" stroke="#FFFFFF" stroke-width="0.9546" d="M71.406,31.413l15.492,0.196l-1.211,16.939
		l-0.028,1.747l10.728,0.083l-0.149,9.641l-0.729,0.972l-2.029,1.152l-7.07,2.815l-4.821,1.522l-0.203-0.293l-0.813-0.002
		l-1.521,0.188l-8.102,2.033l-0.309,0.244l-0.135,0.279l0.5-20.576L71.406,31.413"/>
	<path id="SD_Dewey_1_" fill="#86B6F2" stroke="#FFFFFF" stroke-width="0.9546" d="M119.908,31.761l1.973,3.571l-0.002,0.235
		l-0.258,0.788l-0.763,0.906l-0.136,0.207l-0.114,0.335l0.276,1.023l1.372,1.758l0.076,0.435l-0.643,2.992l-1.339,3.315
		l-1.161,1.758l-0.496-0.036l-0.302,0.115l-0.594,0.664l-0.393,0.698l-0.009,0.741l0.214,1.942l0.094,0.422l0.573,1.476
		l-0.032,0.298l-0.26,0.409l-0.47,0.522l-3.321,3.021l-0.54,0.231l-1.102-0.184l-0.749-0.216l-0.895-0.848l-0.5-0.73l-0.245-0.243
		l-0.359-0.301l-0.547-0.18l-0.13,0.019l-0.355,0.234l-0.27,0.5l-0.103,0.307l-0.084,0.4l0.033,0.393l0.108,0.238l0.197,0.171
		l-3.399-0.493l-2.436,0.473l-1.8,0.762l-0.435,0.753l-0.974,0.304l-3.373-0.931l0.149-9.641L85.66,50.292l0.028-1.746l1.211-16.939
		L119.908,31.761"/>
	<path id="SD_Buffalo_1_" fill="#4389E3" stroke="#FFFFFF" stroke-width="0.9546" d="M142.45,81.692l8.259-0.17l11.119-0.228
		l0.083,10.232l-12.822,0.232l0.181-0.517l0.119-0.898l-0.005-0.466l-0.243-0.534l-0.697-0.645l-1.521-1.198l-0.667-0.221
		l-0.994-0.081l-0.848-0.149l-0.831-0.717l-0.569-0.726l-0.117-0.295L142.45,81.692"/>
	<path id="SD_Day_1_" fill="#E27F90" stroke="#FFFFFF" stroke-width="0.9546" d="M188.896,26.4l17.703-0.427l0.28,1.109l4.025-0.092
		l0.49,15.85l-7.88,0.244l-14.316,0.308L188.896,26.4"/>
	<path id="SD_Roberts_1_" fill="#E27F90" stroke="#FFFFFF" stroke-width="0.9546" d="M229.741,11.635l-0.09,1.707l0.004,0.083
		l-0.013,0.04l-0.086,1.043l-0.064,0.846l-0.056,0.355l-0.02,0.197l-0.032,0.083l-0.022,0.054l-0.042,0.097l-1.908,2.922
		l-0.57,0.585l-1.091,0.622l-0.979,0.654l-2.567,2.114l-0.045,0.059l-0.054,0.07l-0.044,0.046l-0.091,0.22l-0.349,1.326l0.123,0.143
		l0.544,0.602l2.149,2.461l4.461,4.252l2.857,1.16l0.986,0.682l0.607,1.169l-13.599,0.497l-2.112,1.228l-6.429,0.182l-0.31-10.151
		l-0.481-14.693L229.741,11.635"/>
	<path id="SD_Marshall_1_" fill="#E27F90" stroke="#FFFFFF" stroke-width="0.9546" d="M210.428,12.297l0.477,14.693l-4.025,0.092
		l-0.28-1.109L188.896,26.4l-0.256-13.527L210.428,12.297"/>
	<path id="SD_Corson_1_" fill="#E27F90" stroke="#FFFFFF" stroke-width="0.9546" d="M71.887,13.005l0.189,0.009l0.072,0.009
		l0.468,0.007l3.508,0.053l4.179,0.047l4.397,0.069l3.641,0.033l1.689,0.021L93,13.276l8.444,0.072l2.636,0.021l3.49,0.011
		l0.235,0.005l0.655,0.003l6.607,0.027l0.362-0.004l3.253,2.902l0.179,0.428l2.043,5.866l0.001,0.708l-0.198,0.497l-0.148,0.212
		l-0.496,0.323l-0.213,0.062l-1.249,0.066l-0.565,0.38l-0.294,0.59l-0.4,1.559l2.568,4.762l-33.011-0.152l-15.492-0.196
		l0.427-18.407l0.052-0.002"/>
</g>
</svg>
