<?xml version="1.0" encoding="UTF-8" standalone="no"?>
<!-- Created with Inkscape (http://www.inkscape.org/) -->

<svg
   xmlns:dc="http://purl.org/dc/elements/1.1/"
   xmlns:cc="http://creativecommons.org/ns#"
   xmlns:rdf="http://www.w3.org/1999/02/22-rdf-syntax-ns#"
   xmlns:svg="http://www.w3.org/2000/svg"
   xmlns="http://www.w3.org/2000/svg"
   xmlns:sodipodi="http://sodipodi.sourceforge.net/DTD/sodipodi-0.dtd"
   xmlns:inkscape="http://www.inkscape.org/namespaces/inkscape"
   width="420.73184"
   height="123.14631"
   id="svg7448"
   sodipodi:version="0.32"
   inkscape:version="0.91 r13725"
   version="1.0"
   sodipodi:docname="Tennessee_Presidential_Election_Results_2016.svg"
   inkscape:output_extension="org.inkscape.output.svg.inkscape">
  <defs
     id="defs7450">
    <inkscape:perspective
       sodipodi:type="inkscape:persp3d"
       inkscape:vp_x="0 : 526.18109 : 1"
       inkscape:vp_y="0 : 1000 : 0"
       inkscape:vp_z="744.09448 : 526.18109 : 1"
       inkscape:persp3d-origin="372.04724 : 350.78739 : 1"
       id="perspective7456" />
  </defs>
  <sodipodi:namedview
     id="base"
     pagecolor="#ffffff"
     bordercolor="#666666"
     borderopacity="1.0"
     gridtolerance="10000"
     guidetolerance="10"
     objecttolerance="10"
     inkscape:pageopacity="0.0"
     inkscape:pageshadow="2"
     inkscape:zoom="2.7353846"
     inkscape:cx="175.6262"
     inkscape:cy="64.15878"
     inkscape:document-units="px"
     inkscape:current-layer="layer1"
     showgrid="false"
     inkscape:window-width="1920"
     inkscape:window-height="1017"
     inkscape:window-x="-8"
     inkscape:window-y="-8"
     inkscape:window-maximized="1" />
  <metadata
     id="metadata7453">
    <rdf:RDF>
      <cc:Work
         rdf:about="">
        <dc:format>image/svg+xml</dc:format>
        <dc:type
           rdf:resource="http://purl.org/dc/dcmitype/StillImage" />
      </cc:Work>
    </rdf:RDF>
  </metadata>
  <g
     inkscape:label="Layer 1"
     inkscape:groupmode="layer"
     id="layer1"
     transform="translate(-312.91345,-391.09889)">
    <path
       style="font-size:12px;fill:#d40000;fill-opacity:1;fill-rule:nonzero;stroke:#ffffff;stroke-width:0.97625071"
       d="M 719.64147,393.75978 L 712.83637,400.81647 L 698.49466,408.89764 L 696.29786,409.07182 L 695.56183,408.81207 L 693.29671,406.97989 L 691.67597,406.56379 L 688.79747,407.3136 L 682.898,408.16296 L 680.25652,408.43925 L 682.77199,398.43824 L 697.67103,396.99091 L 700.05593,396.75698 L 704.66438,396.36875 L 714.69368,395.44427 L 715.09725,394.06804 L 719.64147,393.75978"
       id="TN_Sullivan"
       inkscape:label="Sullivan, TN" />
    <path
       style="font-size:12px;fill:#aa0000;fill-opacity:1;fill-rule:nonzero;stroke:#ffffff;stroke-width:0.97625071"
       d="M 719.64147,393.75978 L 728.16113,393.04933 L 726.85047,394.61497 L 725.9992,406.80126 L 726.03393,409.64313 L 725.02501,409.92446 L 724.93735,409.91996 L 724.19272,409.91879 L 722.96743,409.45819 L 722.70716,408.76027 L 722.45071,408.89053 L 722.38837,408.9336 L 719.93383,410.43597 L 717.62151,412.77361 L 717.22194,413.71062 L 716.65016,415.11984 L 715.79881,415.39538 L 714.28569,413.96253 L 711.21554,410.41927 L 710.56454,408.95198 L 714.56482,402.9218 L 714.57427,402.73726 L 712.83637,400.81647 L 719.64147,393.75978"
       id="TN_Johnson"
       inkscape:label="Johnson, TN" />
    <path
       style="font-size:12px;fill:#d40000;fill-opacity:1;fill-rule:nonzero;stroke:#ffffff;stroke-width:0.97625071"
       d="M 412.15059,487.40678 L 411.96405,510.5388 L 392.28169,511.09339 L 392.1371,495.95582 L 395.84578,494.35122 L 396.50283,492.09063 L 397.46049,490.55316 L 398.76971,489.0152 L 401.15908,487.97203 L 402.06888,487.63938 L 404.75209,487.3606 L 412.15059,487.40678"
       id="TN_McNairy"
       inkscape:label="McNairy, TN" />
    <path
       style="font-size:12px;fill:#d40000;fill-opacity:1;fill-rule:nonzero;stroke:#ffffff;stroke-width:0.97625071"
       d="M 399.72115,475.3261 L 412.18388,485.13273 L 412.15059,487.40678 L 404.75209,487.3606 L 402.06888,487.63938 L 401.15908,487.97203 L 398.76971,489.0152 L 397.46049,490.55316 L 396.50283,492.09063 L 395.84578,494.35122 L 392.1371,495.95582 L 391.36418,491.45257 L 389.0245,487.82649 L 388.97746,485.22452 L 399.72115,475.3261"
       id="TN_Chester"
       inkscape:label="Chester, TN" />
    <path
       style="font-size:12px;fill:#e27f90;fill-opacity:1;fill-rule:nonzero;stroke:#ffffff;stroke-width:0.97625071"
       d="M 377.531,485.28077 L 388.97746,485.22452 L 389.0245,487.82649 L 391.36418,491.45257 L 392.1371,495.95582 L 392.28169,511.09339 L 390.50718,511.15045 L 381.08612,511.3984 L 372.32465,511.59228 L 372.5217,487.44316 L 377.531,485.28077"
       id="TN_Hardeman"
       inkscape:label="Hardeman, TN" />
    <path
       style="font-size:12px;fill:#cc2f4a;fill-opacity:1;fill-rule:nonzero;stroke:#ffffff;stroke-width:0.97625071"
       d="M 358.51598,487.34511 L 372.5217,487.44316 L 372.32465,511.59228 L 364.83318,511.73559 L 350.68775,511.9264 L 350.80761,503.9026 L 350.72627,496.1044 L 350.87691,489.10442 L 358.51598,487.34511"
       id="TN_Fayette"
       inkscape:label="Fayette, TN" />
    <path
       style="font-size:12px;fill:#86b6f2;fill-opacity:1;fill-rule:nonzero;stroke:#ffffff;stroke-width:0.97625071"
       d="M 363.73145,462.38934 L 363.73926,462.59789 L 364.38174,463.50968 L 364.87539,464.07616 L 366.0258,465.00473 L 368.02498,466.06931 L 369.02491,466.14369 L 374.07735,468.01236 L 377.64618,469.58758 L 377.531,485.28077 L 372.5217,487.44316 L 358.51598,487.34511 L 356.95577,476.72352 L 357.33821,476.57198 L 358.5009,475.81748 L 360.38637,467.09783 L 360.39039,466.65862 L 359.78602,466.62763 L 359.78611,465.81354 L 360.1069,464.78923 L 361.53936,462.11046 L 363.73145,462.38934"
       id="TN_Haywood"
       inkscape:label="Haywood, TN" />
    <path
       style="font-size:12px;fill:#e27f90;fill-opacity:1;fill-rule:nonzero;stroke:#ffffff;stroke-width:0.97625071"
       d="M 399.73398,463.2541 L 399.72115,475.3261 L 388.97746,485.22452 L 377.531,485.28077 L 377.64618,469.58758 L 384.88139,463.16351 L 394.91284,463.27989 L 399.73398,463.2541"
       id="TN_Madison"
       inkscape:label="Madison, TN" />
    <path
       style="font-size:12px;fill:#d40000;fill-opacity:1;fill-rule:nonzero;stroke:#ffffff;stroke-width:0.97625071"
       d="M 371.53399,451.30406 L 374.11306,453.1477 L 374.44187,456.38856 L 374.86065,457.6034 L 375.68947,459.48224 L 381.82583,461.23068 L 384.88139,463.16351 L 377.64618,469.58758 L 374.07735,468.01236 L 369.02491,466.14369 L 368.02498,466.06931 L 366.0258,465.00473 L 364.87539,464.07616 L 364.38174,463.50968 L 363.73926,462.59789 L 363.73145,462.38934 L 364.30236,458.56091 L 371.53399,451.30406"
       id="TN_Crockett"
       inkscape:label="Crockett, TN" />
    <path
       style="font-size:12px;fill:#d40000;fill-opacity:1;fill-rule:nonzero;stroke:#ffffff;stroke-width:0.97625071"
       d="M 372.92019,438.96939 L 382.20069,437.6735 L 383.51213,439.34117 L 386.90343,442.66498 L 387.24992,442.85389 L 387.6281,442.78539 L 391.8268,444.25411 L 395.1891,446.97051 L 394.91284,463.27989 L 384.88139,463.16351 L 381.82583,461.23068 L 375.68947,459.48224 L 374.86065,457.6034 L 374.44187,456.38856 L 374.11306,453.1477 L 371.53399,451.30406 L 372.92019,438.96939"
       id="TN_Gibson"
       inkscape:label="Gibson, TN" />
    <path
       style="font-size:12px;fill:#d40000;fill-opacity:1;fill-rule:nonzero;stroke:#ffffff;stroke-width:0.97625071"
       d="M 402.8056,441.50035 L 418.046,442.86895 L 420.19781,459.27504 L 420.19582,461.02803 L 401.45461,461.08964 L 400.70985,461.72219 L 400.04565,462.4976 L 399.73398,463.2541 L 394.91284,463.27989 L 395.1891,446.97051 L 402.8056,441.50035"
       id="TN_Carroll"
       inkscape:label="Carroll, TN" />
    <path
       style="font-size:12px;fill:#d40000;fill-opacity:1;fill-rule:nonzero;stroke:#ffffff;stroke-width:0.97625071"
       d="M 388.63408,420.72224 L 402.89129,420.42616 L 402.8056,441.50035 L 395.1891,446.97051 L 391.8268,444.25411 L 387.6281,442.78539 L 387.24992,442.85389 L 386.90343,442.66498 L 383.51213,439.34117 L 382.20069,437.6735 L 382.39464,426.48965 L 382.55658,426.30829 L 383.44484,426.39544 L 384.11912,426.59653 L 384.75496,427.2767 L 385.47501,427.39686 L 388.76697,426.25194 L 388.78413,422.66803 L 388.11526,420.73728 L 388.63408,420.72224"
       id="TN_Weakley"
       inkscape:label="Weakley, TN" />
    <path
       style="font-size:12px;fill:#d40000;fill-opacity:1;fill-rule:nonzero;stroke:#ffffff;stroke-width:0.97625071"
       d="M 387.75907,420.73751 L 388.11526,420.73728 L 388.78413,422.66803 L 388.76697,426.25194 L 385.47501,427.39686 L 384.75496,427.2767 L 384.11912,426.59653 L 383.44484,426.39544 L 382.55658,426.30829 L 382.39464,426.48965 L 382.20069,437.6735 L 372.92019,438.96939 L 357.25338,438.79083 L 363.44438,421.24431 L 387.75907,420.73751"
       id="TN_Obion"
       inkscape:label="Obion, TN" />
    <path
       style="font-size:12px;fill:#cc2f4a;fill-opacity:1;fill-rule:nonzero;stroke:#ffffff;stroke-width:0.97625071"
       d="M 363.44438,421.24431 L 357.25338,438.79083 L 350.27641,440.53783 L 354.14932,431.39738 L 354.26664,421.70825 L 356.83419,421.70109 L 360.07067,421.54782 L 363.44438,421.24431"
       id="TN_Lake"
       inkscape:label="Lake, TN" />
    <path
       style="font-size:12px;fill:#d40000;fill-opacity:1;fill-rule:nonzero;stroke:#ffffff;stroke-width:0.97625071"
       d="M 357.25338,438.79083 L 372.92019,438.96939 L 371.53399,451.30406 L 364.30236,458.56091 L 363.76138,457.47392 L 363.39039,456.95073 L 361.12881,454.68856 L 357.1278,454.68699 L 350.12363,456.96455 L 347.74927,457.44417 L 345.49506,451.69933 L 350.27641,440.53783 L 357.25338,438.79083"
       id="TN_Dyer"
       inkscape:label="Dyer, TN" />
    <path
       style="font-size:12px;fill:#e27f90;fill-opacity:1;fill-rule:nonzero;stroke:#ffffff;stroke-width:0.97625071"
       d="M 347.74927,457.44417 L 350.12363,456.96455 L 357.1278,454.68699 L 361.12881,454.68856 L 363.39039,456.95073 L 363.76138,457.47392 L 364.30236,458.56091 L 363.73145,462.38934 L 361.53936,462.11046 L 360.1069,464.78923 L 359.78611,465.81354 L 359.78602,466.62763 L 360.39039,466.65862 L 360.38637,467.09783 L 358.5009,475.81748 L 357.33821,476.57198 L 356.95577,476.72352 L 354.9289,475.11632 L 351.18679,472.86152 L 344.5463,473.18724 L 343.08505,473.6304 L 341.91657,474.40773 L 339.32673,476.56463 L 338.35214,477.62018 L 337.39626,479.57404 L 339.35688,467.04219 L 344.01455,458.2935 L 344.33276,458.04153 L 344.49506,457.94345 L 345.56074,457.45688 L 346.43563,457.35371 L 347.74927,457.44417"
       id="TN_Lauderdale"
       inkscape:label="Lauderdale, TN" />
    <path
       style="font-size:12px;fill:#d40000;fill-opacity:1;fill-rule:nonzero;stroke:#ffffff;stroke-width:0.97625071"
       d="M 356.95577,476.72352 L 358.51598,487.34511 L 350.87691,489.10442 L 349.97442,488.39208 L 347.49144,487.20095 L 347.16624,487.13803 L 331.14779,488.13481 L 328.8217,489.11645 L 325.75962,485.77712 L 337.39626,479.57404 L 338.35214,477.62018 L 339.32673,476.56463 L 341.91657,474.40773 L 343.08505,473.6304 L 344.5463,473.18724 L 351.18679,472.86152 L 354.9289,475.11632 L 356.95577,476.72352"
       id="TN_Tipton"
       inkscape:label="Tipton, TN" />
    <path
       style="font-size:12px;fill:#4389e3;fill-opacity:1;fill-rule:nonzero;stroke:#ffffff;stroke-width:0.97625071"
       d="M 328.8217,489.11645 L 331.14779,488.13481 L 347.16624,487.13803 L 347.49144,487.20095 L 349.97442,488.39208 L 350.87691,489.10442 L 350.72627,496.1044 L 350.80761,503.9026 L 350.68775,511.9264 L 346.80704,512.01427 L 318.43809,512.29476 L 318.39761,511.46008 L 319.07396,509.63527 L 323.99988,508.28734 L 329.29846,504.63182 L 330.06841,503.77856 L 330.16292,503.64927 L 330.18327,503.61332 L 330.18611,503.55795 L 330.20786,503.4943 L 328.97409,489.75333 L 328.8217,489.11645"
       id="TN_Shelby"
       inkscape:label="Shelby, TN" />
    <path
       style="font-size:12px;fill:#d40000;fill-opacity:1;fill-rule:nonzero;stroke:#ffffff;stroke-width:0.97625071"
       d="M 420.19582,461.02803 L 420.03788,473.495 L 417.65453,478.39156 L 417.60831,484.70767 L 417.91884,484.69585 L 412.18388,485.13273 L 399.72115,475.3261 L 399.73398,463.2541 L 400.04565,462.4976 L 400.70985,461.72219 L 401.45461,461.08964 L 420.19582,461.02803"
       id="TN_Henderson"
       inkscape:label="Henderson, TN" />
    <path
       style="font-size:12px;fill:#d40000;fill-opacity:1;fill-rule:nonzero;stroke:#ffffff;stroke-width:0.97625071"
       d="M 404.18271,420.40908 L 424.9013,420.0325 L 428.18354,428.10117 L 423.25239,428.28784 L 423.18355,428.36757 L 422.89319,430.33241 L 422.9513,431.27437 L 423.82225,434.67716 L 419.76403,440.93564 L 418.046,442.86895 L 402.8056,441.50035 L 402.89129,420.42616 L 404.18271,420.40908"
       id="TN_Henry"
       inkscape:label="Henry, TN" />
    <path
       style="font-size:12px;fill:#d40000;fill-opacity:1;fill-rule:nonzero;stroke:#ffffff;stroke-width:0.97625071"
       d="M 428.18354,428.10117 L 428.61993,428.52133 L 430.34599,435.09481 L 432.10134,439.83344 L 432.11517,453.8218 L 432.05653,454.96593 L 431.61395,457.46417 L 431.35821,458.12175 L 430.52357,459.2446 L 430.19086,460.77249 L 420.19781,459.27504 L 418.046,442.86895 L 419.76403,440.93564 L 423.82225,434.67716 L 422.9513,431.27437 L 422.89319,430.33241 L 423.18355,428.36757 L 423.25239,428.28784 L 428.18354,428.10117"
       id="TN_Benton"
       inkscape:label="Benton, TN" />
    <path
       style="font-size:12px;fill:#d40000;fill-opacity:1;fill-rule:nonzero;stroke:#ffffff;stroke-width:0.97625071"
       d="M 420.19781,459.27504 L 430.19086,460.77249 L 428.43432,465.08135 L 427.52093,467.74048 L 427.41379,482.916 L 427.8289,483.75137 L 428.16309,484.18018 L 428.48673,484.3633 L 429.19543,484.34411 L 428.42741,486.24284 L 417.91884,484.69585 L 417.60831,484.70767 L 417.65453,478.39156 L 420.03788,473.495 L 420.19582,461.02803 L 420.19781,459.27504"
       id="TN_Decatur"
       inkscape:label="Decatur, TN" />
    <path
       style="font-size:12px;fill:#aa0000;fill-opacity:1;fill-rule:nonzero;stroke:#ffffff;stroke-width:0.97625071"
       d="M 412.18388,485.13273 L 417.91884,484.69585 L 428.42741,486.24284 L 428.46303,487.26229 L 429.05022,491.23797 L 430.84206,498.87408 L 431.12565,509.31459 L 420.71037,510.27941 L 412.77884,510.52507 L 411.96405,510.5388 L 412.15059,487.40678 L 412.18388,485.13273"
       id="TN_Hardin"
       inkscape:label="Hardin, TN" />
    <path
       style="font-size:12px;fill:#d40000;fill-opacity:1;fill-rule:nonzero;stroke:#ffffff;stroke-width:0.97625071"
       d="M 463.51291,481.80598 L 467.78364,482.32092 L 467.60033,483.91196 L 467.49852,485.44704 L 468.13427,501.47013 L 468.05898,508.3537 L 449.49508,508.8361 L 450.08748,485.09581 L 452.05302,485.01153 L 456.15182,483.55644 L 456.07204,481.32282 L 461.98242,481.16321 L 463.51291,481.80598"
       id="TN_Lawrence"
       inkscape:label="Lawrence, TN" />
    <path
       style="font-size:12px;fill:#aa0000;fill-opacity:1;fill-rule:nonzero;stroke:#ffffff;stroke-width:0.97625071"
       d="M 443.05829,480.28111 L 450.08748,485.09581 L 449.49508,508.8361 L 431.12565,509.31459 L 430.84206,498.87408 L 429.05022,491.23797 L 428.46303,487.26229 L 428.42741,486.24284 L 429.19543,484.34411 L 443.05829,480.28111"
       id="TN_Wayne"
       inkscape:label="Wayne, TN" />
    <path
       style="font-size:12px;fill:#d40000;fill-opacity:1;fill-rule:nonzero;stroke:#ffffff;stroke-width:0.97625071"
       d="M 460.85986,469.04227 L 460.28739,471.54772 L 460.27061,472.77726 L 460.39841,473.53314 L 461.08961,474.21614 L 462.24131,474.48795 L 463.50174,475.61643 L 464.57757,478.09074 L 464.30542,480.24155 L 464.12623,480.94006 L 463.51291,481.80598 L 461.98242,481.16321 L 456.07204,481.32282 L 456.15182,483.55644 L 452.05302,485.01153 L 450.08748,485.09581 L 443.05829,480.28111 L 445.64372,472.61497 L 447.55662,471.48262 L 450.81983,471.16883 L 455.1574,471.91384 L 455.52152,471.84924 L 457.52501,470.93433 L 460.85986,469.04227"
       id="TN_Lewis"
       inkscape:label="Lewis, TN" />
    <path
       style="font-size:12px;fill:#d40000;fill-opacity:1;fill-rule:nonzero;stroke:#ffffff;stroke-width:0.97625071"
       d="M 442.3196,458.95651 L 445.64372,472.61497 L 443.05829,480.28111 L 429.19543,484.34411 L 428.48673,484.3633 L 428.16309,484.18018 L 427.8289,483.75137 L 427.41379,482.916 L 427.52093,467.74048 L 428.43432,465.08135 L 430.19086,460.77249 L 430.52357,459.2446 L 436.24838,460.26887 L 437.48511,459.33316 L 438.34248,459.21058 L 442.3196,458.95651"
       id="TN_Perry"
       inkscape:label="Perry, TN" />
    <path
       style="font-size:12px;fill:#d40000;fill-opacity:1;fill-rule:nonzero;stroke:#ffffff;stroke-width:0.97625071"
       d="M 466.58713,450.79666 L 466.33074,457.33328 L 460.85986,469.04227 L 457.52501,470.93433 L 455.52152,471.84924 L 455.1574,471.91384 L 450.81983,471.16883 L 447.55662,471.48262 L 445.64372,472.61497 L 442.3196,458.95651 L 450.71103,449.37695 L 466.58713,450.79666"
       id="TN_Hickman"
       inkscape:label="Hickman, TN" />
    <path
       style="font-size:12px;fill:#cc2f4a;fill-opacity:1;fill-rule:nonzero;stroke:#ffffff;stroke-width:0.97625071"
       d="M 448.75502,438.35579 L 450.71103,449.37695 L 442.3196,458.95651 L 438.34248,459.21058 L 437.48511,459.33316 L 436.24838,460.26887 L 430.52357,459.2446 L 431.35821,458.12175 L 431.61395,457.46417 L 432.05653,454.96593 L 432.11517,453.8218 L 432.10134,439.83344 L 430.34599,435.09481 L 435.82166,435.56511 L 437.55605,434.75666 L 439.49249,434.87904 L 447.79102,437.21937 L 448.75502,438.35579"
       id="TN_Humphreys"
       inkscape:label="Humphreys, TN" />
    <path
       style="font-size:12px;fill:#cc2f4a;fill-opacity:1;fill-rule:nonzero;stroke:#ffffff;stroke-width:0.97625071"
       d="M 447.10135,427.03097 L 450.93054,428.8508 L 448.75502,438.35579 L 447.79102,437.21937 L 439.49249,434.87904 L 437.55605,434.75666 L 435.82166,435.56511 L 430.34599,435.09481 L 428.61993,428.52133 L 433.7282,429.66202 L 434.66165,429.76998 L 436.06355,429.7632 L 436.99935,429.64465 L 438.03984,429.37883 L 439.35985,428.80354 L 440.23946,428.2473 L 440.91999,427.69474 L 447.10135,427.03097"
       id="TN_Houston"
       inkscape:label="Houston, TN" />
    <path
       style="font-size:12px;fill:#d40000;fill-opacity:1;fill-rule:nonzero;stroke:#ffffff;stroke-width:0.97625071"
       d="M 441.68965,411.05448 L 444.20018,410.89638 L 447.10135,427.03097 L 440.91999,427.69474 L 440.23946,428.2473 L 439.35985,428.80354 L 438.03984,429.37883 L 436.99935,429.64465 L 436.06355,429.7632 L 434.66165,429.76998 L 433.7282,429.66202 L 428.61993,428.52133 L 428.18354,428.10117 L 424.9013,420.0325 L 423.74531,409.19573 L 426.5265,409.17176 L 434.25102,409.71573 L 434.1387,411.5463 L 441.68965,411.05448"
       id="TN_Stewart"
       inkscape:label="Stewart, TN" />
    <path
       style="font-size:12px;fill:#e27f90;fill-opacity:1;fill-rule:nonzero;stroke:#ffffff;stroke-width:0.97625071"
       d="M 469.13104,409.64871 L 469.35111,420.87692 L 461.77326,429.20303 L 450.93054,428.8508 L 447.10135,427.03097 L 444.20018,410.89638 L 458.66629,410.13456 L 469.13104,409.64871"
       id="TN_Montgomery"
       inkscape:label="Montgomery, TN" />
    <path
       style="font-size:12px;fill:#d40000;fill-opacity:1;fill-rule:nonzero;stroke:#ffffff;stroke-width:0.97625071"
       d="M 485.78059,408.52237 L 495.26578,409.00854 L 493.87664,412.10585 L 490.8535,419.82818 L 489.67739,422.10842 L 486.87375,423.11184 L 479.38243,424.78625 L 469.35111,420.87692 L 469.13104,409.64871 L 471.70199,409.48445 L 485.78059,408.52237"
       id="TN_Robertson"
       inkscape:label="Robertson, TN" />
    <path
       style="font-size:12px;fill:#d40000;fill-opacity:1;fill-rule:nonzero;stroke:#ffffff;stroke-width:0.97625071"
       d="M 469.35111,420.87692 L 479.38243,424.78625 L 473.55657,445.31645 L 467.41411,445.31152 L 468.21898,436.8279 L 467.66887,434.56556 L 466.74522,433.81513 L 468.13937,431.88374 L 468.30446,430.28715 L 468.1741,429.94279 L 467.09715,429.47591 L 464.65427,429.03617 L 461.77326,429.20303 L 469.35111,420.87692 z M 468.49408,430.64838 L 468.24853,430.92724 L 468.86199,430.69039 L 468.72997,430.55872 L 468.63842,430.72055 L 468.49408,430.64838"
       id="TN_Cheatham"
       inkscape:label="Cheatham, TN" />
    <path
       style="font-size:12px;fill:#d40000;fill-opacity:1;fill-rule:nonzero;stroke:#ffffff;stroke-width:0.97625071"
       d="M 450.93054,428.8508 L 461.77326,429.20303 L 464.65427,429.03617 L 467.09715,429.47591 L 468.1741,429.94279 L 468.30446,430.28715 L 468.13937,431.88374 L 466.74522,433.81513 L 467.66887,434.56556 L 468.21898,436.8279 L 467.41411,445.31152 L 466.58713,450.79666 L 450.71103,449.37695 L 448.75502,438.35579 L 450.93054,428.8508"
       id="TN_Dickson"
       inkscape:label="Dickson, TN" />
    <path
       style="font-size:12px;fill:#cc2f4a;fill-opacity:1;fill-rule:nonzero;stroke:#ffffff;stroke-width:0.97625071"
       d="M 467.41411,445.31152 L 473.55657,445.31645 L 474.34223,448.6686 L 474.97392,448.61772 L 479.51282,444.62262 L 486.34117,445.32418 L 494.57042,449.01623 L 492.08158,464.63401 L 487.49987,465.04209 L 466.33074,457.33328 L 466.58713,450.79666 L 467.41411,445.31152"
       id="TN_Williamson"
       inkscape:label="Williamson, TN" />
    <path
       style="font-size:12px;fill:#cc2f4a;fill-opacity:1;fill-rule:nonzero;stroke:#ffffff;stroke-width:0.97625071"
       d="M 466.33074,457.33328 L 487.49987,465.04209 L 479.66177,482.77711 L 467.78364,482.32092 L 463.51291,481.80598 L 464.12623,480.94006 L 464.30542,480.24155 L 464.57757,478.09074 L 463.50174,475.61643 L 462.24131,474.48795 L 461.08961,474.21614 L 460.39841,473.53314 L 460.27061,472.77726 L 460.28739,471.54772 L 460.85986,469.04227 L 466.33074,457.33328"
       id="TN_Maury"
       inkscape:label="Maury, TN" />
    <path
       style="font-size:12px;fill:#d40000;fill-opacity:1;fill-rule:nonzero;stroke:#ffffff;stroke-width:0.97625071"
       d="M 487.49987,465.04209 L 492.08158,464.63401 L 494.39021,465.9781 L 493.74948,477.66639 L 493.78834,479.79612 L 494.2018,481.02459 L 496.33591,485.05182 L 497.05111,485.17635 L 497.22073,485.11566 L 486.46183,491.7014 L 479.66177,482.77711 L 487.49987,465.04209"
       id="TN_Marshall"
       inkscape:label="Marshall, TN" />
    <path
       style="font-size:12px;fill:#d40000;fill-opacity:1;fill-rule:nonzero;stroke:#ffffff;stroke-width:0.97625071"
       d="M 467.78364,482.32092 L 479.66177,482.77711 L 486.46183,491.7014 L 486.81995,507.99706 L 468.66109,508.33832 L 468.05898,508.3537 L 468.13427,501.47013 L 467.49852,485.44704 L 467.60033,483.91196 L 467.78364,482.32092"
       id="TN_Giles"
       inkscape:label="Giles, TN" />
    <path
       style="font-size:12px;fill:#d40000;fill-opacity:1;fill-rule:nonzero;stroke:#ffffff;stroke-width:0.97625071"
       d="M 500.82925,485.55504 L 511.51734,498.67046 L 511.89976,506.82177 L 489.36064,507.88212 L 486.81995,507.99706 L 486.46183,491.7014 L 497.22073,485.11566 L 500.82925,485.55504"
       id="TN_Lincoln"
       inkscape:label="Lincoln, TN" />
    <path
       style="font-size:12px;fill:#d40000;fill-opacity:1;fill-rule:nonzero;stroke:#ffffff;stroke-width:0.97625071"
       d="M 513.56572,481.44817 L 513.614,486.19182 L 511.51734,498.67046 L 500.82925,485.55504 L 513.56572,481.44817"
       id="TN_Moore"
       inkscape:label="Moore, TN" />
    <path
       style="font-size:12px;fill:#d40000;fill-opacity:1;fill-rule:nonzero;stroke:#ffffff;stroke-width:0.97625071"
       d="M 513.49159,468.27547 L 513.56572,481.44817 L 500.82925,485.55504 L 497.22073,485.11566 L 497.05111,485.17635 L 496.33591,485.05182 L 494.2018,481.02459 L 493.78834,479.79612 L 493.74948,477.66639 L 494.39021,465.9781 L 494.50008,465.00774 L 495.19849,464.91866 L 498.98504,465.04336 L 510.76834,466.98874 L 513.49159,468.27547"
       id="TN_Bedford"
       inkscape:label="Bedford, TN" />
    <path
       style="font-size:12px;fill:#cc2f4a;fill-opacity:1;fill-rule:nonzero;stroke:#ffffff;stroke-width:0.97625071"
       d="M 499.14363,440.83214 L 501.14827,442.3318 L 508.52488,447.31694 L 509.29795,447.66648 L 512.41864,448.59892 L 516.88964,448.72631 L 515.10014,463.87577 L 513.49159,468.27547 L 510.76834,466.98874 L 498.98504,465.04336 L 495.19849,464.91866 L 494.50008,465.00774 L 494.39021,465.9781 L 492.08158,464.63401 L 494.57042,449.01623 L 499.14363,440.83214"
       id="TN_Rutherford"
       inkscape:label="Rutherford, TN" />
    <path
       style="font-size:12px;fill:#4389e3;fill-opacity:1;fill-rule:nonzero;stroke:#ffffff;stroke-width:0.97625071"
       d="M 479.38243,424.78625 L 486.87375,423.11184 L 494.96178,432.35658 L 499.14363,440.83214 L 494.57042,449.01623 L 486.34117,445.32418 L 479.51282,444.62262 L 474.97392,448.61772 L 474.34223,448.6686 L 473.55657,445.31645 L 479.38243,424.78625"
       id="TN_Davidson"
       inkscape:label="Davidson, TN" />
    <path
       style="font-size:12px;fill:#d40000;fill-opacity:1;fill-rule:nonzero;stroke:#ffffff;stroke-width:0.97625071"
       d="M 502.46931,407.6247 L 512.30003,407.77705 L 511.64468,416.95292 L 509.47707,425.49158 L 508.78002,427.62984 L 507.15289,427.33829 L 506.53385,426.69137 L 506.46048,425.77638 L 506.22686,425.37124 L 505.72504,425.0541 L 505.47013,425.06417 L 501.49624,426.60893 L 496.47491,429.72819 L 494.96178,432.35658 L 486.87375,423.11184 L 489.67739,422.10842 L 490.8535,419.82818 L 493.87664,412.10585 L 495.26578,409.00854 L 502.46931,407.6247"
       id="TN_Sumner"
       inkscape:label="Sumner, TN" />
    <path
       style="font-size:12px;fill:#cc2f4a;fill-opacity:1;fill-rule:nonzero;stroke:#ffffff;stroke-width:0.97625071"
       d="M 516.60876,428.21614 L 520.93753,440.59394 L 523.49603,447.98255 L 516.88964,448.72631 L 512.41864,448.59892 L 509.29795,447.66648 L 508.52488,447.31694 L 501.14827,442.3318 L 499.14363,440.83214 L 494.96178,432.35658 L 496.47491,429.72819 L 501.49624,426.60893 L 505.47013,425.06417 L 505.72504,425.0541 L 506.22686,425.37124 L 506.46048,425.77638 L 506.53385,426.69137 L 507.15289,427.33829 L 508.78002,427.62984 L 509.47707,425.49158 L 516.60876,428.21614"
       id="TN_Wilson"
       inkscape:label="Wilson, TN" />
    <path
       style="font-size:12px;fill:#d40000;fill-opacity:1;fill-rule:nonzero;stroke:#ffffff;stroke-width:0.97625071"
       d="M 523.49603,447.98255 L 530.08404,454.90701 L 525.89274,465.92761 L 515.10014,463.87577 L 516.88964,448.72631 L 523.49603,447.98255"
       id="TN_Cannon"
       inkscape:label="Cannon, TN" />
    <path
       style="font-size:12px;fill:#d40000;fill-opacity:1;fill-rule:nonzero;stroke:#ffffff;stroke-width:0.97625071"
       d="M 525.89274,465.92761 L 531.54023,473.78449 L 531.38255,473.88279 L 531.26497,474.19129 L 531.20405,478.6287 L 531.61365,481.64704 L 532.34425,482.37371 L 531.91323,484.28508 L 530.83981,487.44944 L 530.53996,487.97526 L 524.44248,485.01691 L 518.57905,484.17055 L 514.13139,485.48289 L 513.65007,485.93928 L 513.614,486.19182 L 513.56572,481.44817 L 513.49159,468.27547 L 515.10014,463.87577 L 525.89274,465.92761"
       id="TN_Coffee"
       inkscape:label="Coffee, TN" />
    <path
       style="font-size:12px;fill:#d40000;fill-opacity:1;fill-rule:nonzero;stroke:#ffffff;stroke-width:0.97625071"
       d="M 513.614,486.19182 L 513.65007,485.93928 L 514.13139,485.48289 L 518.57905,484.17055 L 524.44248,485.01691 L 530.53996,487.97526 L 532.72256,491.77831 L 533.9405,505.82838 L 512.26515,506.822 L 511.89976,506.82177 L 511.51734,498.67046 L 513.614,486.19182"
       id="TN_Franklin"
       inkscape:label="Franklin, TN" />
    <path
       style="font-size:12px;fill:#d40000;fill-opacity:1;fill-rule:nonzero;stroke:#ffffff;stroke-width:0.97625071"
       d="M 532.72256,491.77831 L 547.5667,485.1753 L 548.08674,486.03918 L 552.11678,487.91094 L 553.33272,488.28319 L 555.18855,490.33952 L 555.85942,491.4193 L 556.4293,494.46899 L 556.44529,494.96936 L 552.92882,505.00694 L 546.49134,505.34306 L 533.9405,505.82838 L 532.72256,491.77831"
       id="TN_Marion"
       inkscape:label="Marion, TN" />
    <path
       style="font-size:12px;fill:#d40000;fill-opacity:1;fill-rule:nonzero;stroke:#ffffff;stroke-width:0.97625071"
       d="M 553.16332,469.92961 L 563.46434,482.11396 L 556.44529,494.96936 L 556.4293,494.46899 L 555.85942,491.4193 L 555.18855,490.33952 L 553.33272,488.28319 L 552.11678,487.91094 L 548.08674,486.03918 L 547.5667,485.1753 L 544.48368,472.58845 L 546.86715,472.3822 L 553.16332,469.92961"
       id="TN_Sequatchie"
       inkscape:label="Sequatchie, TN" />
    <path
       style="font-size:12px;fill:#d40000;fill-opacity:1;fill-rule:nonzero;stroke:#ffffff;stroke-width:0.97625071"
       d="M 544.48368,472.58845 L 547.5667,485.1753 L 532.72256,491.77831 L 530.53996,487.97526 L 530.83981,487.44944 L 531.91323,484.28508 L 532.34425,482.37371 L 531.61365,481.64704 L 531.20405,478.6287 L 531.26497,474.19129 L 531.38255,473.88279 L 531.54023,473.78449 L 533.68323,474.20886 L 534.43428,474.26587 L 537.45545,473.4401 L 539.87632,473.04612 L 544.48368,472.58845"
       id="TN_Grundy"
       inkscape:label="Grundy, TN" />
    <path
       style="font-size:12px;fill:#d40000;fill-opacity:1;fill-rule:nonzero;stroke:#ffffff;stroke-width:0.97625071"
       d="M 559.73852,455.98756 L 559.62095,456.29608 L 560.60031,457.49342 L 560.59605,457.57647 L 553.16332,469.92961 L 546.86715,472.3822 L 543.77032,456.81579 L 559.73852,455.98756"
       id="TN_Van_Buren"
       inkscape:label="Van Buren, TN" />
    <path
       style="font-size:12px;fill:#d40000;fill-opacity:1;fill-rule:nonzero;stroke:#ffffff;stroke-width:0.97625071"
       d="M 539.84603,454.86619 L 543.77032,456.81579 L 546.86715,472.3822 L 544.48368,472.58845 L 539.87632,473.04612 L 537.45545,473.4401 L 534.43428,474.26587 L 533.68323,474.20886 L 531.54023,473.78449 L 525.89274,465.92761 L 530.08404,454.90701 L 539.84603,454.86619"
       id="TN_Warren"
       inkscape:label="Warren, TN" />
    <path
       style="font-size:12px;fill:#d40000;fill-opacity:1;fill-rule:nonzero;stroke:#ffffff;stroke-width:0.97625071"
       d="M 559.30753,444.8133 L 559.73852,455.98756 L 543.77032,456.81579 L 539.84603,454.86619 L 540.99887,443.74534 L 541.03529,443.39567 L 541.26535,442.96804 L 542.16447,442.1214 L 544.8214,440.00955 L 545.52145,439.70778 L 547.31061,439.36469 L 553.89151,440.74274 L 556.1941,441.75351 L 556.89395,442.35831 L 559.30753,444.8133"
       id="TN_White"
       inkscape:label="White, TN" />
    <path
       style="font-size:12px;fill:#d40000;fill-opacity:1;fill-rule:nonzero;stroke:#ffffff;stroke-width:0.97625071"
       d="M 532.82786,437.2023 L 540.99887,443.74534 L 539.84603,454.86619 L 530.08404,454.90701 L 523.49603,447.98255 L 520.93753,440.59394 L 532.82786,437.2023"
       id="TN_DeKalb"
       inkscape:label="DeKalb, TN" />
    <path
       style="font-size:12px;fill:#d40000;fill-opacity:1;fill-rule:nonzero;stroke:#ffffff;stroke-width:0.97625071"
       d="M 533.78197,430.77083 L 540.68142,431.6194 L 543.72696,430.85965 L 545.23506,430.22462 L 545.57194,429.78858 L 547.06273,427.50597 L 547.1332,426.13117 L 550.96551,429.87538 L 561.54157,434.25668 L 565.59675,434.46453 L 566.53827,434.77645 L 564.18123,437.26444 L 560.20458,437.14849 L 559.71143,437.47475 L 559.30753,444.8133 L 556.89395,442.35831 L 556.1941,441.75351 L 553.89151,440.74274 L 547.31061,439.36469 L 545.52145,439.70778 L 544.8214,440.00955 L 542.16447,442.1214 L 541.26535,442.96804 L 541.03529,443.39567 L 540.99887,443.74534 L 532.82786,437.2023 L 533.78197,430.77083"
       id="TN_Putnam"
       inkscape:label="Putnam, TN" />
    <path
       style="font-size:12px;fill:#cc2f4a;fill-opacity:1;fill-rule:nonzero;stroke:#ffffff;stroke-width:0.97625071"
       d="M 523.70387,420.01331 L 516.60876,428.21614 L 509.47707,425.49158 L 511.64468,416.95292 L 523.70387,420.01331"
       id="TN_Trousdale"
       inkscape:label="Trousdale, TN" />
    <path
       style="font-size:12px;fill:#aa0000;fill-opacity:1;fill-rule:nonzero;stroke:#ffffff;stroke-width:0.97625071"
       d="M 523.15575,407.87555 L 532.08295,407.78731 L 531.28702,415.19362 L 530.91986,420.46181 L 523.70387,420.01331 L 511.64468,416.95292 L 512.30003,407.77705 L 523.15575,407.87555"
       id="TN_Macon"
       inkscape:label="Macon, TN" />
    <path
       style="font-size:12px;fill:#d40000;fill-opacity:1;fill-rule:nonzero;stroke:#ffffff;stroke-width:0.97625071"
       d="M 523.70387,420.01331 L 530.91986,420.46181 L 533.78197,430.77083 L 532.82786,437.2023 L 520.93753,440.59394 L 516.60876,428.21614 L 523.70387,420.01331"
       id="TN_Smith"
       inkscape:label="Smith, TN" />
    <path
       style="font-size:12px;fill:#d40000;fill-opacity:1;fill-rule:nonzero;stroke:#ffffff;stroke-width:0.97625071"
       d="M 531.28702,415.19362 L 533.45351,413.98641 L 539.49866,415.25837 L 542.66018,416.20676 L 544.9822,418.10199 L 546.75923,420.07104 L 547.1332,426.13117 L 547.06273,427.50597 L 545.57194,429.78858 L 545.23506,430.22462 L 543.72696,430.85965 L 540.68142,431.6194 L 533.78197,430.77083 L 530.91986,420.46181 L 531.28702,415.19362"
       id="TN_Jackson"
       inkscape:label="Jackson, TN" />
    <path
       style="font-size:12px;fill:#d40000;fill-opacity:1;fill-rule:nonzero;stroke:#ffffff;stroke-width:0.97625071"
       d="M 556.27224,411.8025 L 564.56107,418.75399 L 564.85697,424.89337 L 565.56014,427.05717 L 567.1759,431.27059 L 565.59675,434.46453 L 561.54157,434.25668 L 550.96551,429.87538 L 547.1332,426.13117 L 546.75923,420.07104 L 556.27224,411.8025"
       id="TN_Overton"
       inkscape:label="Overton, TN" />
    <path
       style="font-size:12px;fill:#d40000;fill-opacity:1;fill-rule:nonzero;stroke:#ffffff;stroke-width:0.97625071"
       d="M 556.33457,406.07465 L 556.27224,411.8025 L 546.75923,420.07104 L 544.9822,418.10199 L 542.66018,416.20676 L 539.49866,415.25837 L 533.45351,413.98641 L 531.28702,415.19362 L 532.08295,407.78731 L 548.7777,407.04259 L 555.41281,406.18929 L 556.33457,406.07465"
       id="TN_Clay"
       inkscape:label="Clay, TN" />
    <path
       style="font-size:12px;fill:#d40000;fill-opacity:1;fill-rule:nonzero;stroke:#ffffff;stroke-width:0.97625071"
       d="M 570.97848,405.90476 L 579.6905,405.9535 L 582.54254,410.50322 L 576.1794,408.21584 L 574.15173,407.79736 L 572.30212,407.78582 L 569.33959,408.54982 L 567.46364,410.22525 L 566.29329,411.94146 L 565.73085,413.07828 L 564.56107,418.75399 L 556.27224,411.8025 L 556.33457,406.07465 L 570.97848,405.90476"
       id="TN_Pickett"
       inkscape:label="Pickett, TN" />
    <path
       style="font-size:12px;fill:#d40000;fill-opacity:1;fill-rule:nonzero;stroke:#ffffff;stroke-width:0.97625071"
       d="M 560.59605,457.57647 L 566.37641,456.97539 L 568.61156,457.3166 L 571.25387,457.47516 L 573.10905,457.4685 L 576.79398,456.77851 L 571.29038,465.33583 L 568.34001,468.7509 L 566.79821,473.65358 L 567.40378,475.64587 L 563.46434,482.11396 L 553.16332,469.92961 L 560.59605,457.57647"
       id="TN_Bledsoe"
       inkscape:label="Bledsoe, TN" />
    <path
       style="font-size:12px;fill:#aa0000;fill-opacity:1;fill-rule:nonzero;stroke:#ffffff;stroke-width:0.97625071"
       d="M 582.54254,410.50322 L 584.64259,419.6168 L 577.08181,424.81228 L 576.67358,425.28629 L 575.14004,430.02748 L 575.67527,433.12165 L 566.53827,434.77645 L 565.59675,434.46453 L 567.1759,431.27059 L 565.56014,427.05717 L 564.85697,424.89337 L 564.56107,418.75399 L 565.73085,413.07828 L 566.29329,411.94146 L 567.46364,410.22525 L 569.33959,408.54982 L 572.30212,407.78582 L 574.15173,407.79736 L 576.1794,408.21584 L 582.54254,410.50322"
       id="TN_Fentress"
       inkscape:label="Fentress, TN" />
    <path
       style="font-size:12px;fill:#d40000;fill-opacity:1;fill-rule:nonzero;stroke:#ffffff;stroke-width:0.97625071"
       d="M 566.53827,434.77645 L 575.67527,433.12165 L 587.47794,447.23322 L 582.97289,452.55295 L 576.79398,456.77851 L 573.10905,457.4685 L 571.25387,457.47516 L 568.61156,457.3166 L 566.37641,456.97539 L 560.59605,457.57647 L 560.60031,457.49342 L 559.62095,456.29608 L 559.73852,455.98756 L 559.30753,444.8133 L 559.71143,437.47475 L 560.20458,437.14849 L 564.18123,437.26444 L 566.53827,434.77645"
       id="TN_Cumberland"
       sodipodi:nodetypes="cccccccccccccccccc"
       inkscape:label="Cumberland, TN" />
    <path
       style="font-size:12px;fill:#d40000;fill-opacity:1;fill-rule:nonzero;stroke:#ffffff;stroke-width:0.97625071"
       d="M 586.05405,456.69346 L 586.60601,457.65612 L 586.73544,458.01893 L 586.42688,460.339 L 583.40188,469.00023 L 578.10374,475.98614 L 577.77476,476.17743 L 573.36568,478.18094 L 567.40378,475.64587 L 566.79821,473.65358 L 568.34001,468.7509 L 571.29038,465.33583 L 576.79398,456.77851 L 582.97289,452.55295 L 586.05405,456.69346"
       id="TN_Rhea"
       inkscape:label="Rhea, TN" />
    <path
       style="font-size:12px;fill:#d40000;fill-opacity:1;fill-rule:nonzero;stroke:#ffffff;stroke-width:0.97625071"
       d="M 591.47532,462.82727 L 581.1053,481.2281 L 577.19015,485.23664 L 573.36568,478.18094 L 577.77476,476.17743 L 578.10374,475.98614 L 583.40188,469.00023 L 586.42688,460.339 L 586.73544,458.01893 L 586.60601,457.65612 L 586.05405,456.69346 L 591.47532,462.82727"
       id="TN_Meigs"
       inkscape:label="Meigs, TN" />
    <path
       style="font-size:12px;fill:#e27f90;fill-opacity:1;fill-rule:nonzero;stroke:#ffffff;stroke-width:0.97625071"
       d="M 573.36568,478.18094 L 577.19015,485.23664 L 574.95597,490.56178 L 574.60975,491.63103 L 574.00193,495.09679 L 575.47717,499.88583 L 576.89464,503.27501 L 576.74583,503.29051 L 562.95114,504.30877 L 558.18006,504.71179 L 552.92882,505.00694 L 556.44529,494.96936 L 563.46434,482.11396 L 567.40378,475.64587 L 573.36568,478.18094"
       id="TN_Hamilton"
       inkscape:label="Hamilton, TN" />
    <path
       style="font-size:12px;fill:#d40000;fill-opacity:1;fill-rule:nonzero;stroke:#ffffff;stroke-width:0.97625071"
       d="M 581.1053,481.2281 L 589.09057,487.24354 L 586.61378,502.62604 L 584.94693,502.74874 L 576.89464,503.27501 L 575.47717,499.88583 L 574.00193,495.09679 L 574.60975,491.63103 L 574.95597,490.56178 L 577.19015,485.23664 L 581.1053,481.2281"
       id="TN_Bradley"
       inkscape:label="Bradley, TN" />
    <path
       style="font-size:12px;fill:#d40000;fill-opacity:1;fill-rule:nonzero;stroke:#ffffff;stroke-width:0.97625071"
       d="M 598.9393,483.88604 L 609.08029,487.91199 L 608.5865,501.06485 L 594.08798,502.09791 L 586.61378,502.62604 L 589.09057,487.24354 L 590.46404,486.16681 L 592.7797,485.38814 L 598.02517,485.11583 L 598.9393,483.88604"
       id="TN_Polk"
       inkscape:label="Polk, TN" />
    <path
       style="font-size:12px;fill:#d40000;fill-opacity:1;fill-rule:nonzero;stroke:#ffffff;stroke-width:0.97625071"
       d="M 612.33093,463.38746 L 612.69411,464.0629 L 617.55837,467.16619 L 619.9337,466.84852 L 624.81086,469.79057 L 624.86315,469.85338 L 624.79596,470.08121 L 623.91223,471.34955 L 621.41405,481.91576 L 620.20961,483.39434 L 618.31046,484.80029 L 613.17855,484.66215 L 609.08029,487.91199 L 598.9393,483.88604 L 602.84253,480.92223 L 602.61672,476.84481 L 598.13545,467.98384 L 596.29615,464.70257 L 596.26467,464.05338 L 596.07775,463.72926 L 597.78525,461.73066 L 599.2005,461.01225 L 600.30072,460.57369 L 600.63645,460.52153 L 605.45096,460.62491 L 612.08995,462.94493 L 612.33093,463.38746 z"
       id="TN_Monroe"
       sodipodi:nodetypes="ccccccccccccccccccccccccccc"
       inkscape:label="Monroe, TN" />
    <path
       style="font-size:12px;fill:#d40000;fill-opacity:1;fill-rule:nonzero;stroke:#ffffff;stroke-width:0.97625071"
       d="M 593.16867,462.72905 L 596.07775,463.72926 L 596.26467,464.05338 L 596.29615,464.70257 L 598.13545,467.98384 L 602.61672,476.84481 L 602.84253,480.92223 L 598.9393,483.88604 L 598.02517,485.11583 L 592.7797,485.38814 L 590.46404,486.16681 L 589.09057,487.24354 L 581.1053,481.2281 L 591.47532,462.82727 L 593.16867,462.72905"
       id="TN_McMinn"
       sodipodi:nodetypes="ccccccccccccccc"
       inkscape:label="McMinn, TN" />
    <path
       style="font-size:12px;fill:#d40000;fill-opacity:1;fill-rule:nonzero;stroke:#ffffff;stroke-width:0.97625071"
       d="M 595.19002,461.01483 L 593.16867,462.72905 L 591.47532,462.82727 L 586.05405,456.69346 L 582.97289,452.55295 L 587.47794,447.23322 L 594.63133,442.76617 L 598.3625,441.80567 L 600.01702,440.47968 L 603.0785,437.69475 L 607.02233,445.76032 L 607.48713,446.52887 L 606.60584,446.21541 L 604.31346,446.99063 L 596.13973,458.45931 L 595.19002,461.01483 z M 595.19002,461.01483 L 595.19002,461.01483"
       id="TN_Roane"
       sodipodi:nodetypes="cccccccccccccccccc"
       inkscape:label="Roane, TN" />
    <path
       style="font-size:12px;fill:#aa0000;fill-opacity:1;fill-rule:nonzero;stroke:#ffffff;stroke-width:0.97625071"
       d="M 597.87131,431.17411 L 603.0785,437.69475 L 600.01702,440.47968 L 598.3625,441.80567 L 594.63133,442.76617 L 587.47794,447.23322 L 575.67527,433.12165 L 575.14004,430.02748 L 576.67358,425.28629 L 577.08181,424.81228 L 584.64259,419.6168 L 589.33103,425.33837 L 591.46932,427.11779 L 596.23846,429.18932 L 597.87131,431.17411"
       id="TN_Morgan"
       inkscape:label="Morgan, TN" />
    <path
       style="font-size:12px;fill:#aa0000;fill-opacity:1;fill-rule:nonzero;stroke:#ffffff;stroke-width:0.97625071"
       d="M 580.04207,405.95303 L 604.57358,404.91616 L 604.0155,410.11905 L 601.27999,424.32264 L 600.90449,427.76791 L 597.87131,431.17411 L 596.23846,429.18932 L 591.46932,427.11779 L 589.33103,425.33837 L 584.64259,419.6168 L 582.54254,410.50322 L 579.6905,405.9535 L 580.04207,405.95303"
       id="TN_Scott"
       inkscape:label="Scott, TN" />
    <path
       style="font-size:12px;fill:#d40000;fill-opacity:1;fill-rule:nonzero;stroke:#ffffff;stroke-width:0.97625071"
       d="M 617.54376,404.10079 L 622.20581,413.947 L 620.97419,415.59534 L 619.50658,421.48705 L 618.93322,422.47528 L 618.18458,423.27413 L 600.90449,427.76791 L 601.27999,424.32264 L 604.0155,410.11905 L 604.57358,404.91616 L 606.20697,404.81485 L 617.54376,404.10079"
       id="TN_Campbell"
       inkscape:label="Campbell, TN" />
    <path
       style="font-size:12px;fill:#cc2f4a;fill-opacity:1;fill-rule:nonzero;stroke:#ffffff;stroke-width:0.97625071"
       d="M 618.18458,423.27413 L 621.54195,428.07176 L 621.41739,428.06539 L 620.54749,428.79326 L 615.15243,435.23302 L 615.17778,436.00215 L 616.13943,437.90629 L 607.88526,445.25873 L 607.02233,445.76032 L 603.0785,437.69475 L 597.87131,431.17411 L 600.90449,427.76791 L 618.18458,423.27413"
       id="TN_Anderson"
       inkscape:label="Anderson, TN" />
    <path
       style="font-size:12px;fill:#d40000;fill-opacity:1;fill-rule:nonzero;stroke:#ffffff;stroke-width:0.97625071"
       d="M 607.48713,446.52887 L 612.53846,451.66772 L 612.33093,463.38746 L 612.08995,462.94493 L 605.45096,460.62491 L 600.63645,460.52153 L 600.30072,460.57369 L 599.2005,461.01225 L 597.78525,461.73066 L 596.07775,463.72926 L 593.16867,462.72905 L 595.19002,461.01483 L 596.13973,458.45931 L 604.31346,446.99063 L 606.60584,446.21541 L 607.48713,446.52887"
       id="TN_Loudon"
       inkscape:label="Loudon, TN" />
    <path
       style="font-size:12px;fill:#d40000;fill-opacity:1;fill-rule:nonzero;stroke:#ffffff;stroke-width:0.97625071"
       d="M 629.95408,445.43244 L 633.64984,452.65269 L 635.52782,455.81105 L 637.14822,456.68508 L 637.71514,463.94385 L 624.30189,471.50831 L 623.91223,471.34955 L 624.79596,470.08121 L 624.86315,469.85338 L 624.81086,469.79057 L 619.9337,466.84852 L 617.55837,467.16619 L 612.69411,464.0629 L 612.33093,463.38746 L 612.53846,451.66772 L 613.38799,449.35224 L 620.25326,446.35524 L 622.77659,446.6696 L 625.69846,448.32266 L 626.38586,448.3579 L 629.95408,445.43244"
       id="TN_Blount"
       inkscape:label="Blount, TN" />
    <path
       style="font-size:12px;fill:#d40000;fill-opacity:1;fill-rule:nonzero;stroke:#ffffff;stroke-width:0.97625071"
       d="M 653.0088,443.06634 L 656.54601,453.65049 L 656.69568,454.79143 L 654.84068,457.23113 L 646.25243,463.3407 L 645.64713,463.68896 L 638.81562,464.04189 L 637.94463,463.97874 L 637.71514,463.94385 L 637.14822,456.68508 L 635.52782,455.81105 L 633.64984,452.65269 L 629.95408,445.43244 L 635.02469,435.93706 L 638.2663,437.03758 L 647.77454,441.40576 L 653.0088,443.06634"
       id="TN_Sevier"
       inkscape:label="Sevier, TN" />
    <path
       style="font-size:12px;fill:#e27f90;fill-opacity:1;fill-rule:nonzero;stroke:#ffffff;stroke-width:0.97625071"
       d="M 631.61212,428.60642 L 635.09596,433.37354 L 635.02469,435.93706 L 629.95408,445.43244 L 626.38586,448.3579 L 625.69846,448.32266 L 622.77659,446.6696 L 620.25326,446.35524 L 613.38799,449.35224 L 612.53846,451.66772 L 607.48713,446.52887 L 607.02233,445.76032 L 607.88526,445.25873 L 616.13943,437.90629 L 615.17778,436.00215 L 615.15243,435.23302 L 620.54749,428.79326 L 621.41739,428.06539 L 621.54195,428.07176 L 631.61212,428.60642"
       id="TN_Knox"
       inkscape:label="Knox, TN" />
    <path
       style="font-size:12px;fill:#aa0000;fill-opacity:1;fill-rule:nonzero;stroke:#ffffff;stroke-width:0.97625071"
       d="M 622.20581,413.947 L 623.56521,413.41536 L 626.87952,412.64626 L 627.14415,412.80785 L 630.14686,416.40315 L 633.86057,417.588 L 631.61212,428.60642 L 621.54195,428.07176 L 618.18458,423.27413 L 618.93322,422.47528 L 619.50658,421.48705 L 620.97419,415.59534 L 622.20581,413.947"
       id="TN_Union"
       inkscape:label="Union, TN" />
    <path
       style="font-size:12px;fill:#aa0000;fill-opacity:1;fill-rule:nonzero;stroke:#ffffff;stroke-width:0.97625071"
       d="M 632.27163,402.29315 L 641.9081,401.7232 L 646.86875,412.42194 L 633.86057,417.588 L 630.14686,416.40315 L 627.14415,412.80785 L 626.87952,412.64626 L 623.56521,413.41536 L 622.20581,413.947 L 617.54376,404.10079 L 620.23789,403.9706 L 632.27163,402.29315"
       id="TN_Claiborne"
       inkscape:label="Claiborne, TN" />
    <path
       style="font-size:12px;fill:#aa0000;fill-opacity:1;fill-rule:nonzero;stroke:#ffffff;stroke-width:0.97625071"
       d="M 672.29767,399.38155 L 666.88505,402.91556 L 665.6652,402.70964 L 664.12479,401.89985 L 663.91503,401.93072 L 662.12697,403.06484 L 659.7434,404.80677 L 657.44776,407.27014 L 651.97759,413.1001 L 646.86875,412.42194 L 641.9081,401.7232 L 664.98968,400.00608 L 672.29767,399.38155"
       id="TN_Hancock"
       inkscape:label="Hancock, TN" />
    <path
       style="font-size:12px;fill:#aa0000;fill-opacity:1;fill-rule:nonzero;stroke:#ffffff;stroke-width:0.97625071"
       d="M 646.86875,412.42194 L 651.97759,413.1001 L 653.70338,419.31741 L 644.20635,427.00395 L 635.09596,433.37354 L 631.61212,428.60642 L 633.86057,417.588 L 646.86875,412.42194"
       id="TN_Grainger"
       inkscape:label="Grainger, TN" />
    <path
       style="font-size:12px;fill:#d40000;fill-opacity:1;fill-rule:nonzero;stroke:#ffffff;stroke-width:0.97625071"
       d="M 662.16576,421.43948 L 658.4963,425.43751 L 655.70899,431.44662 L 644.20635,427.00395 L 653.70338,419.31741 L 662.16576,421.43948"
       id="TN_Hamblen"
       inkscape:label="Hamblen, TN" />
    <path
       style="font-size:12px;fill:#d40000;fill-opacity:1;fill-rule:nonzero;stroke:#ffffff;stroke-width:0.97625071"
       d="M 655.70899,431.44662 L 653.0088,443.06634 L 647.77454,441.40576 L 638.2663,437.03758 L 635.02469,435.93706 L 635.09596,433.37354 L 644.20635,427.00395 L 655.70899,431.44662"
       id="TN_Jefferson"
       inkscape:label="Jefferson, TN" />
    <path
       style="font-size:12px;fill:#aa0000;fill-opacity:1;fill-rule:nonzero;stroke:#ffffff;stroke-width:0.97625071"
       d="M 658.4963,425.43751 L 658.29913,426.84745 L 658.61651,427.24301 L 660.40988,428.71334 L 664.43438,431.14451 L 669.50559,435.53505 L 672.43623,438.46059 L 670.11474,447.74534 L 656.54601,453.65049 L 653.0088,443.06634 L 655.70899,431.44662 L 658.4963,425.43751"
       id="TN_Cocke"
       inkscape:label="Cocke, TN" />
    <path
       style="font-size:12px;fill:#d40000;fill-opacity:1;fill-rule:nonzero;stroke:#ffffff;stroke-width:0.97625071"
       d="M 697.37843,417.67984 L 703.53702,422.87545 L 694.72896,428.76097 L 691.02514,434.78323 L 686.05676,431.54511 L 686.13001,428.13057 L 689.03543,424.69007 L 690.91947,424.12056 L 692.02846,424.05252 L 694.15414,422.82931 L 695.76287,420.68228 L 697.37843,417.67984"
       id="TN_Unicoi"
       inkscape:label="Unicoi, TN" />
    <path
       style="font-size:12px;fill:#aa0000;fill-opacity:1;fill-rule:nonzero;stroke:#ffffff;stroke-width:0.97625071"
       d="M 682.77199,398.43824 L 680.25652,408.43925 L 679.33044,409.81182 L 674.1849,413.008 L 671.86698,413.55987 L 670.96606,413.99013 L 668.47911,415.40297 L 667.35028,416.58012 L 666.37808,418.13073 L 665.21021,419.34753 L 663.10167,421.04803 L 662.56002,421.41807 L 662.16576,421.43948 L 653.70338,419.31741 L 651.97759,413.1001 L 657.44776,407.27014 L 659.7434,404.80677 L 662.12697,403.06484 L 663.91503,401.93072 L 664.12479,401.89985 L 665.6652,402.70964 L 666.88505,402.91556 L 672.29767,399.38155 L 682.77199,398.43824"
       id="TN_Hawkins"
       inkscape:label="Hawkins, TN" />
    <path
       style="font-size:12px;fill:#d40000;fill-opacity:1;fill-rule:nonzero;stroke:#ffffff;stroke-width:0.97625071"
       d="M 679.33044,409.81182 L 682.65031,409.0245 L 682.76742,409.4468 L 683.20365,422.14314 L 683.53353,425.45345 L 686.13001,428.13057 L 686.05676,431.54511 L 685.1926,430.62658 L 685.19379,430.6035 L 684.50189,430.11474 L 684.27393,430.14007 L 683.02052,430.95004 L 682.15452,431.51159 L 679.01368,434.31097 L 674.614,438.02641 L 672.43623,438.46059 L 669.50559,435.53505 L 664.43438,431.14451 L 660.40988,428.71334 L 658.61651,427.24301 L 658.29913,426.84745 L 658.4963,425.43751 L 662.16576,421.43948 L 662.56002,421.41807 L 663.10167,421.04803 L 665.21021,419.34753 L 666.37808,418.13073 L 667.35028,416.58012 L 668.47911,415.40297 L 670.96606,413.99013 L 671.86698,413.55987 L 674.1849,413.008 L 679.33044,409.81182"
       id="TN_Greene"
       inkscape:label="Greene, TN" />
    <path
       style="font-size:12px;fill:#cc2f4a;fill-opacity:1;fill-rule:nonzero;stroke:#ffffff;stroke-width:0.97625071"
       d="M 680.25652,408.43925 L 682.898,408.16296 L 688.79747,407.3136 L 691.67597,406.56379 L 693.29671,406.97989 L 695.56183,408.81207 L 696.29786,409.07182 L 698.49466,408.89764 L 697.37843,417.67984 L 695.76287,420.68228 L 694.15414,422.82931 L 692.02846,424.05252 L 690.91947,424.12056 L 689.03543,424.69007 L 686.13001,428.13057 L 683.53353,425.45345 L 683.20365,422.14314 L 682.76742,409.4468 L 682.65031,409.0245 L 679.33044,409.81182 L 680.25652,408.43925"
       id="TN_Washington"
       inkscape:label="Washington, TN" />
    <path
       style="font-size:12px;fill:#aa0000;fill-opacity:1;fill-rule:nonzero;stroke:#ffffff;stroke-width:0.97625071"
       d="M 712.83637,400.81647 L 714.57427,402.73726 L 714.56482,402.9218 L 710.56454,408.95198 L 711.21554,410.41927 L 714.28569,413.96253 L 715.79881,415.39538 L 716.65016,415.11984 L 710.5226,425.29188 L 703.53702,422.87545 L 697.37843,417.67984 L 698.49466,408.89764 L 712.83637,400.81647"
       id="TN_Carter"
       inkscape:label="Carter, TN" />
  </g>
</svg>
