<?xml version="1.0" encoding="UTF-8" standalone="no"?>
<!-- Generator: Adobe Illustrator 16.0.0, SVG Export Plug-In . SVG Version: 6.00 Build 0)  -->

<svg
   xmlns:dc="http://purl.org/dc/elements/1.1/"
   xmlns:cc="http://creativecommons.org/ns#"
   xmlns:rdf="http://www.w3.org/1999/02/22-rdf-syntax-ns#"
   xmlns:svg="http://www.w3.org/2000/svg"
   xmlns="http://www.w3.org/2000/svg"
   xmlns:sodipodi="http://sodipodi.sourceforge.net/DTD/sodipodi-0.dtd"
   xmlns:inkscape="http://www.inkscape.org/namespaces/inkscape"
   version="1.1"
   id="svg5598"
   sodipodi:version="0.32"
   inkscape:version="0.91 r"
   sodipodi:docname="Texas_Presidential_Election_Results_2016.svg"
   inkscape:output_extension="org.inkscape.output.svg.inkscape"
   x="0px"
   y="0px"
   width="321.782px"
   height="314.67px"
   viewBox="0 0 321.782 314.67"
   enable-background="new 0 0 321.782 314.67"
   xml:space="preserve"><metadata
     id="metadata8241"><rdf:RDF><cc:Work
         rdf:about=""><dc:format>image/svg+xml</dc:format><dc:type
           rdf:resource="http://purl.org/dc/dcmitype/StillImage" /></cc:Work></rdf:RDF></metadata><defs
     id="defs7982"><inkscape:perspective
       sodipodi:type="inkscape:persp3d"
       inkscape:vp_x="0 : 526.18109 : 1"
       inkscape:vp_y="0 : 1000 : 0"
       inkscape:vp_z="744.09448 : 526.18109 : 1"
       id="perspective5606"
       inkscape:persp3d-origin="372.04724 : 350.78739 : 1" /></defs><sodipodi:namedview
     pagecolor="#ffffff"
     bordercolor="#666666"
     borderopacity="1.0"
     gridtolerance="10000"
     guidetolerance="10"
     objecttolerance="10"
     inkscape:zoom="1.4142136"
     inkscape:cx="122.59336"
     inkscape:cy="166.38682"
     showgrid="false"
     id="base"
     inkscape:pageopacity="0.0"
     inkscape:pageshadow="2"
     inkscape:document-units="px"
     inkscape:current-layer="layer1"
     inkscape:window-width="1918"
     inkscape:window-height="798"
     inkscape:window-x="0"
     inkscape:window-y="191"
     inkscape:window-maximized="0" /><g
     id="layer1"
     transform="translate(-272.57928,-299.86126)"
     inkscape:label="Layer 1"
     inkscape:groupmode="layer"><path
       id="TX_Bowie"
       inkscape:label="Bowie, TX"
       fill="#CCCCCC"
       stroke="#FFFFFF"
       stroke-width="0.9697"
       d="M565.436,391.474   l0.185,0.481l0.179,0.409l0.155,0.207l0.953,0.609l0.342,0.225l1.256,0.686l2.258-1.146l0.117-0.106l0.342-0.041l1.307-0.189   l2.257,0.452l0.431,0.177l0.561,0.462l0.167,7.928l-0.198-0.441l-0.49-0.253l-2.109-0.337l-0.578,0.13l-0.734,0.255l-0.374,0.666   l0.067,0.588l0.08,0.255l-0.049,0.08l-8.802-0.05l-0.786-0.154l-0.195-0.157l-0.059-0.27l-2.236-1.665l-0.117-10.548   L565.436,391.474"
       style="fill:#d40000;fill-opacity:1" /><path
       id="TX_Red_River"
       inkscape:label="Red River, TX"
       fill="#CCCCCC"
       stroke="#FFFFFF"
       stroke-width="0.9697"
       d="   M549.775,383.034l2.719,2.325l3.984,3.188l2.885,1.178l0.117,10.548l-1.465-0.963l-7.397-0.645l-4.219,0.354l-0.048-0.072   l-0.146-13.843l0.344-0.039l0.184-0.02l0.618-0.403l0.13-0.126l0.127-0.285l0.039-0.283l-0.039-0.244v-0.041l-0.09-0.188   l-0.008-0.02l0.008-0.028v-0.05l0.012-0.039l0.498-0.756h0.014l0.02-0.008l0.078-0.04l0.166,0.007L549.775,383.034"
       style="fill:#d40000;fill-opacity:1" /><path
       id="TX_Crosby"
       inkscape:label="Crosby, TX"
       fill="#CCCCCC"
       stroke="#FFFFFF"
       stroke-width="0.9697"
       d="M401.198,382.542   l12.108,0.592l-0.599,12.291l-12.078-0.607L401.198,382.542"
       style="fill:#cc2f4a;fill-opacity:1" /><path
       id="TX_Lubbock"
       inkscape:label="Lubbock, TX"
       fill="#CCCCCC"
       stroke="#FFFFFF"
       stroke-width="0.9697"
       d="M389.091,381.965   l12.108,0.577l-0.568,12.275l-12.097-0.59L389.091,381.965"
       style="fill:#cc2f4a;fill-opacity:1" /><path
       id="TX_Hockley"
       inkscape:label="Hockley, TX"
       fill="#CCCCCC"
       stroke="#FFFFFF"
       stroke-width="0.9697"
       d="M376.826,381.132   l12.265,0.833l-0.557,12.263l-12.078-0.772L376.826,381.132"
       style="fill:#d40000;fill-opacity:1" /><path
       id="TX_Cochran"
       inkscape:label="Cochran, TX"
       fill="#CCCCCC"
       stroke="#FFFFFF"
       stroke-width="0.9697"
       d="M366.829,380.426   l9.997,0.706l-0.37,12.323l-10.754-0.775l0.481-5.122L366.829,380.426"
       style="fill:#d40000;fill-opacity:1" /><path
       id="TX_Floyd"
       inkscape:label="Floyd, TX"
       fill="#CCCCCC"
       stroke="#FFFFFF"
       stroke-width="0.9697"
       d="M404.113,369.093   l9.898,0.54l-0.705,13.501l-12.108-0.592l0.767-13.577L404.113,369.093"
       style="fill:#d40000;fill-opacity:1" /><path
       id="TX_Hale"
       inkscape:label="Hale, TX"
       fill="#CCCCCC"
       stroke="#FFFFFF"
       stroke-width="0.9697"
       d="M389.868,368.198   l2.129,0.138l9.968,0.629l-0.767,13.577l-12.108-0.577L389.868,368.198"
       style="fill:#d40000;fill-opacity:1" /><path
       id="TX_Lamb"
       inkscape:label="Lamb, TX"
       fill="#CCCCCC"
       stroke="#FFFFFF"
       stroke-width="0.9697"
       d="M377.799,367.393   l2.059,0.15l10.01,0.655l-0.777,13.767l-12.265-0.833L377.799,367.393"
       style="fill:#d40000;fill-opacity:1" /><path
       id="TX_Bailey"
       inkscape:label="Bailey, TX"
       fill="#CCCCCC"
       stroke="#FFFFFF"
       stroke-width="0.9697"
       d="M377.799,367.393   l-0.973,13.739l-9.997-0.706l1.08-13.442l0.02-0.294L377.799,367.393"
       style="fill:#d40000;fill-opacity:1" /><path
       id="TX_Briscoe"
       inkscape:label="Briscoe, TX"
       fill="#CCCCCC"
       stroke="#FFFFFF"
       stroke-width="0.9697"
       d="M404.819,356.828   l8.723,0.46l3.337,0.178l-0.668,12.273l-2.199-0.106l-9.898-0.54L404.819,356.828"
       style="fill:#aa0000;fill-opacity:1" /><path
       id="TX_Swisher"
       inkscape:label="Swisher, TX"
       fill="#CCCCCC"
       stroke="#FFFFFF"
       stroke-width="0.9697"
       d="M392.761,356.07   l8.449,0.54l3.609,0.218l-0.706,12.265l-2.148-0.128l-9.968-0.629L392.761,356.07"
       style="fill:#d40000;fill-opacity:1" /><path
       id="TX_Castro"
       inkscape:label="Castro, TX"
       fill="#CCCCCC"
       stroke="#FFFFFF"
       stroke-width="0.9697"
       d="M388.858,355.847   l3.903,0.224l-0.764,12.266l-2.129-0.138l-10.01-0.655l0.845-12.228L388.858,355.847"
       style="fill:#d40000;fill-opacity:1" /><path
       id="TX_Parmer"
       inkscape:label="Parmer, TX"
       fill="#CCCCCC"
       stroke="#FFFFFF"
       stroke-width="0.9697"
       d="M368.871,354.453   l11.832,0.862l-0.845,12.228l-2.059-0.15l-9.87-0.703L368.871,354.453"
       style="fill:#cc2f4a;fill-opacity:1" /><path
       id="TX_Armstrong"
       inkscape:label="Armstrong, TX"
       fill="#CCCCCC"
       stroke="#FFFFFF"
       stroke-width="0.9697"
       d="M402.082,344.34   l12.215,0.716l-0.755,12.232l-8.723-0.46l-3.609-0.218L402.082,344.34"
       style="fill:#800000;fill-opacity:1" /><path
       id="TX_Randall"
       inkscape:label="Randall, TX"
       fill="#CCCCCC"
       stroke="#FFFFFF"
       stroke-width="0.9697"
       d="M389.692,343.563   l12.391,0.777l-0.873,12.271l-8.449-0.54l-3.903-0.224L389.692,343.563"
       style="fill:#aa0000;fill-opacity:1" /><path
       id="TX_Deaf_Smith"
       inkscape:label="Deaf Smith, TX"
       fill="#CCCCCC"
       stroke="#FFFFFF"
       stroke-width="0.9697"
       d="   M368.871,354.453l0.431-5.818l0.49-6.455l4.652,0.324l4.835,0.244l10.412,0.814l-0.834,12.284l-8.155-0.531L368.871,354.453"
       style="fill:#cc2f4a;fill-opacity:1" /><path
       id="TX_Carson"
       inkscape:label="Carson, TX"
       fill="#CCCCCC"
       stroke="#FFFFFF"
       stroke-width="0.9697"
       d="M402.818,332.005   v-0.106l12.156,0.646l-0.011,0.176l-0.666,12.335l-12.215-0.716L402.818,332.005"
       style="fill:#aa0000;fill-opacity:1" /><path
       id="TX_Potter"
       inkscape:label="Potter, TX"
       fill="#CCCCCC"
       stroke="#FFFFFF"
       stroke-width="0.9697"
       d="M390.592,331.25   l12.226,0.755l-0.736,12.335l-12.391-0.777L390.592,331.25"
       style="fill:#cc2f4a;fill-opacity:1" /><path
       id="TX_Oldham"
       inkscape:label="Oldham, TX"
       fill="#CCCCCC"
       stroke="#FFFFFF"
       stroke-width="0.9697"
       d="M390.612,331.043   l-0.02,0.207l-0.901,12.313l-10.412-0.814l-4.835-0.244l-4.652-0.324l0.932-12.38L390.612,331.043"
       style="fill:#aa0000;fill-opacity:1" /><path
       id="TX_Hutchinson"
       inkscape:label="Hutchinson, TX"
       fill="#CCCCCC"
       stroke="#FFFFFF"
       stroke-width="0.9697"
       d="   M403.524,319.721l12.108,0.686l-0.657,12.139l-12.156-0.646L403.524,319.721"
       style="fill:#aa0000;fill-opacity:1" /><path
       id="TX_Moore"
       inkscape:label="Moore, TX"
       fill="#CCCCCC"
       stroke="#FFFFFF"
       stroke-width="0.9697"
       d="M391.387,318.974   l12.136,0.747l-0.706,12.178v0.106l-12.226-0.755l0.02-0.207L391.387,318.974"
       style="fill:#d40000;fill-opacity:1" /><path
       id="TX_Hartley"
       inkscape:label="Hartley, TX"
       fill="#CCCCCC"
       stroke="#FFFFFF"
       stroke-width="0.9697"
       d="M371.647,317.601   l19.74,1.373l-0.775,12.069l-19.889-1.243l0.255-3.289L371.647,317.601"
       style="fill:#aa0000;fill-opacity:1" /><path
       id="TX_Hansford"
       inkscape:label="Hansford, TX"
       fill="#CCCCCC"
       stroke="#FFFFFF"
       stroke-width="0.9697"
       d="M416.309,307.869   l-0.677,12.47v0.067l-12.108-0.686l0.736-12.539L416.309,307.869"
       style="fill:#aa0000;fill-opacity:1" /><path
       id="TX_Sherman"
       inkscape:label="Sherman, TX"
       fill="#CCCCCC"
       stroke="#FFFFFF"
       stroke-width="0.9697"
       d="M395.127,306.605   l9.132,0.577l-0.736,12.539l-12.136-0.747l0.825-12.559L395.127,306.605"
       style="fill:#aa0000;fill-opacity:1" /><path
       id="TX_Dallam"
       inkscape:label="Dallam, TX"
       fill="#CCCCCC"
       stroke="#FFFFFF"
       stroke-width="0.9697"
       d="M392.212,306.415   l-0.825,12.559l-19.74-1.373l0.531-7.417l0.342-4.523l0.923-0.549L392.212,306.415"
       style="fill:#aa0000;fill-opacity:1" /><path
       id="TX_Hudspeth"
       inkscape:label="Hudspeth, TX"
       fill="#CCCCCC"
       stroke="#FFFFFF"
       stroke-width="0.9697"
       d="M318.752,427.952   l-0.361,3.954l-0.601,7.634l-1.598,18.523l-0.235,1.657l-0.227,0.816l-0.47,4.814l-1.6,0.828l-0.148,0.126l-1.254-1.805   l-1.866-2.053l-1.824-1.567l-0.932-0.081l-0.363-0.126l-2.943-1.883l-3.514-4.034l-4.129-5.377l-3.181-4.151l-2.068-2.656   l1.136-0.92l0.05-1.555l-0.696-1.019l1.323-13.728L318.752,427.952"
       style="fill:#e27f90;fill-opacity:1" /><path
       id="TX_El_Paso"
       inkscape:label="El Paso, TX"
       fill="#CCCCCC"
       stroke="#FFFFFF"
       stroke-width="0.9697"
       d="M293.252,425.352   l-1.323,13.728l0.696,1.019l-0.05,1.555l-1.136,0.92l-2.336-1.04l-0.767-0.386l-1.236-1.01l-0.313-0.255l-0.009-0.021l-0.089-0.098   l-0.031-0.037l-0.194-0.313l-0.64-1.992l-1.973-4.593l-0.468-0.891l-0.816-0.662l-2.521-1.173l-1.844-1.973l-0.227-0.305   l-0.039-0.129l0.549-2.423l0.059-0.204l0.512-1.206v-0.011h0.008l0.079,0.011l5.162,0.546L293.252,425.352"
       style="fill:#4389e3;fill-opacity:1" /><path
       id="TX_Lynn"
       inkscape:label="Lynn, TX"
       fill="#CCCCCC"
       stroke="#FFFFFF"
       stroke-width="0.9697"
       d="M400.631,394.818   l-0.727,12.206l-3.128-0.204l-9.017-0.503l0.775-12.089L400.631,394.818"
       style="fill:#d40000;fill-opacity:1" /><path
       id="TX_Terry"
       inkscape:label="Terry, TX"
       fill="#CCCCCC"
       stroke="#FFFFFF"
       stroke-width="0.9697"
       d="M376.456,393.455   l12.078,0.772l-0.775,12.089l-3.1-0.177l-9.047-0.607L376.456,393.455"
       style="fill:#d40000;fill-opacity:1" /><path
       id="TX_Yoakum"
       inkscape:label="Yoakum, TX"
       fill="#CCCCCC"
       stroke="#FFFFFF"
       stroke-width="0.9697"
       d="M376.456,393.455   l-0.845,12.077l-10.989-0.803l1.08-12.05L376.456,393.455"
       style="fill:#d40000;fill-opacity:1" /><path
       id="TX_Dawson"
       inkscape:label="Dawson, TX"
       fill="#CCCCCC"
       stroke="#FFFFFF"
       stroke-width="0.9697"
       d="M387.758,406.317   l9.017,0.503l-0.677,12.273l-12.11-0.697l0.67-12.256L387.758,406.317"
       style="fill:#d40000;fill-opacity:1" /><path
       id="TX_Gaines"
       inkscape:label="Gaines, TX"
       fill="#CCCCCC"
       stroke="#FFFFFF"
       stroke-width="0.9697"
       d="M364.622,404.73   l10.989,0.803l9.047,0.607l-0.67,12.256l-0.194-0.011l-20.084-1.384L364.622,404.73"
       style="fill:#aa0000;fill-opacity:1" /><path
       id="TX_Martin"
       inkscape:label="Martin, TX"
       fill="#CCCCCC"
       stroke="#FFFFFF"
       stroke-width="0.9697"
       d="M383.794,418.385   l0.194,0.011l12.11,0.697l-0.884,12.295l-1.924-0.098l-10.301-0.651L383.794,418.385"
       style="fill:#aa0000;fill-opacity:1" /><path
       id="TX_Andrews"
       inkscape:label="Andrews, TX"
       fill="#CCCCCC"
       stroke="#FFFFFF"
       stroke-width="0.9697"
       d="M363.71,417.001   l20.084,1.384l-0.806,12.254l-1.785-0.117l-12.128-0.806l-6.27-0.498L363.71,417.001"
       style="fill:#d40000;fill-opacity:1" /><path
       id="TX_Midland"
       inkscape:label="Midland, TX"
       fill="#CCCCCC"
       stroke="#FFFFFF"
       stroke-width="0.9697"
       d="M381.204,430.522   l1.785,0.117l10.301,0.651l-0.733,12.223l-12.178-0.772L381.204,430.522"
       style="fill:#d40000;fill-opacity:1" /><path
       id="TX_Ector"
       inkscape:label="Ector, TX"
       fill="#CCCCCC"
       stroke="#FFFFFF"
       stroke-width="0.9697"
       d="M381.204,430.522   l-0.825,12.219l-0.736-0.041l-10.684-0.758l-0.755-0.046l0.873-12.18L381.204,430.522"
       style="fill:#cc2f4a;fill-opacity:1" /><path
       id="TX_Crane"
       inkscape:label="Crane, TX"
       fill="#CCCCCC"
       stroke="#FFFFFF"
       stroke-width="0.9697"
       d="M368.959,441.942   l10.684,0.758l-0.646,15.863l-2.101-0.166l-0.755-2.943l-0.216-0.542l-0.067-0.115l-0.307-0.294l-1.156-1.001l-0.313-0.246   l-2.943-1.688l-0.305,0.012l-2.59,0.4L368.959,441.942"
       style="fill:#d40000;fill-opacity:1" /><path
       id="TX_Presidio"
       inkscape:label="Presidio, TX"
       fill="#CCCCCC"
       stroke="#FFFFFF"
       stroke-width="0.9697"
       d="M341.536,474.743   l-0.196,3.05l-0.688,8.469l-1.03,14.052l-0.531,6.535l-4.09-1.337L333.666,505l-0.148-0.057l-0.098-0.08l-0.873-0.697l-1.757-1.391   l-8.438-7.998l-0.47-1.049l-2.717-6.827l-0.1-0.287l-0.078-2.765l0.375-2.031l0.185-2.434l-0.373-1.618l-4.386-10.646l-1.276-0.814   l0.148-0.126l25.453,8.365L341.536,474.743"
       style="fill:#4389e3;fill-opacity:1" /><path
       id="TX_Culberson"
       inkscape:label="Culberson, TX"
       fill="#CCCCCC"
       stroke="#FFFFFF"
       stroke-width="0.9697"
       d="M320.422,428.11   l19.475,1.746l-3.984,24.901l-20.652,10.595l0.47-4.814l0.227-0.816l0.235-1.657l1.598-18.523l0.601-7.634l0.361-3.954   L320.422,428.11"
       style="fill:#86b6f2;fill-opacity:1" /><path
       id="TX_Ward"
       inkscape:label="Ward, TX"
       fill="#CCCCCC"
       stroke="#FFFFFF"
       stroke-width="0.9697"
       d="M368.203,441.896   l0.755,0.046l-0.716,10.038l-1.707,0.11l-1.021-1.021l-0.677-0.601l-0.755-0.453l-1.502-0.627l-1.404,0.072l-0.882-0.02   l-0.568-0.062l-1.217-0.274l-6.575-2.177l-0.302-0.315l-0.276-0.492l-0.235-1.41l0.059-1.681l0.137-0.963l-0.146-0.594   l-0.394-0.632l-1.875-0.418l6.733,0.538L368.203,441.896"
       style="fill:#d40000;fill-opacity:1" /><path
       id="TX_Winkler"
       inkscape:label="Winkler, TX"
       fill="#CCCCCC"
       stroke="#FFFFFF"
       stroke-width="0.9697"
       d="M362.806,429.218   l6.27,0.498l-0.873,12.18l-12.567-0.934l0.784-9.783l1.393,0.111l1.226,0.085l1.67,0.128l1.332,0.106l0.581,0.042L362.806,429.218"
       style="fill:#d40000;fill-opacity:1" /><path
       id="TX_Loving"
       inkscape:label="Loving, TX"
       fill="#CCCCCC"
       stroke="#FFFFFF"
       stroke-width="0.9697"
       d="M340.946,429.945   l6.082,0.499l9.392,0.735l-0.784,9.783l-6.733-0.538l-0.509-1.118l-1.178-1.709l-0.235-0.048l-0.47,0.098l-0.02,0.057l-0.059,0.05   l-0.218,0.011l-0.518-0.117l-0.187-0.246l-3.167-4.554L340.946,429.945"
       style="fill:#aa0000;fill-opacity:1" /><path
       id="TX_Reeves"
       inkscape:label="Reeves, TX"
       fill="#CCCCCC"
       stroke="#FFFFFF"
       stroke-width="0.9697"
       d="M339.897,429.856   l1.049,0.089l1.396,2.902l3.167,4.554l0.187,0.246l0.518,0.117l0.218-0.011l0.059-0.05l0.02-0.057l0.47-0.098l0.235,0.048   l1.178,1.709l0.509,1.118l1.875,0.418l0.394,0.632l0.146,0.594l-0.137,0.963l-0.059,1.681l0.235,1.41l0.276,0.492l0.302,0.315   l6.575,2.177l1.217,0.274l0.568,0.062l0.882,0.02l1.404-0.072l-15.049,15.876l-11.618-10.508L339.897,429.856"
       style="fill:#86b6f2;fill-opacity:1" /><path
       id="TX_Jeff_Davis"
       inkscape:label="Jeff Davis, TX"
       fill="#CCCCCC"
       stroke="#FFFFFF"
       stroke-width="0.9697"
       d="   M347.531,465.265l3.266,3.092l-9.261,6.387l-2.423-0.198l-25.453-8.365l1.6-0.828l20.652-10.595L347.531,465.265"
       style="fill:#e27f90;fill-opacity:1" /><path
       id="TX_Brewster"
       inkscape:label="Brewster, TX"
       fill="#CCCCCC"
       stroke="#FFFFFF"
       stroke-width="0.9697"
       d="M350.797,468.357   l19.83,18.71l5.771,5.366l-1.256,0.806l-3.083,1.396l-4.434,1.066l-0.568,0.344l-0.059,0.04l-3.298,5.377l-1.981,4.591l-6.633,9.84   l-1.041,0.276h-0.176l-2.865-0.717l-2.414-1.146l-7.771-5.104l-0.224-0.234l-0.982-1.011l-0.521-1.107l0.531-6.535l1.03-14.052   l0.688-8.469l0.196-3.05L350.797,468.357"
       style="fill:#f2b3be;fill-opacity:1" /><path
       id="TX_Terrell"
       inkscape:label="Terrell, TX"
       fill="#CCCCCC"
       stroke="#FFFFFF"
       stroke-width="0.9697"
       d="M390.652,481.751   l-0.932,14.293l-0.431-0.128l-0.179-0.057l-2.344-0.54l-1.48-0.235l-2.355,0.166l-0.235,0.126l-1.6-0.312l-4.698-2.632   l-5.771-5.366l0.453-6.456l5.416,0.344l0.588-8.804l3.326-0.303l1.727-0.971l8.888,0.627l0.353-0.037l1.326,0.274l0.962,0.775   l0.157,1.773l-0.039,0.246l-2.563,6.172L390.652,481.751"
       style="fill:#cc2f4a;fill-opacity:1" /><path
       id="TX_Pecos"
       inkscape:label="Pecos, TX"
       fill="#CCCCCC"
       stroke="#FFFFFF"
       stroke-width="0.9697"
       d="M368.242,451.98   l2.59-0.4l0.305-0.012l2.943,1.688l0.313,0.246l1.156,1.001l0.307,0.294l0.067,0.115l0.216,0.542l0.755,2.943l3.268,1.482   l4.728,1.472l1.533,0.479l2.434,2.033l2.04,6.918l0.126,0.723l-8.888-0.627l-1.727,0.971l-3.326,0.303l-0.588,8.804l-5.416-0.344   l-0.453,6.456l-19.83-18.71l-3.266-3.092l15.049-15.876l1.502,0.627l0.755,0.453l0.677,0.601l1.021,1.021L368.242,451.98"
       style="fill:#e27f90;fill-opacity:1" /><path
       id="TX_Upton"
       inkscape:label="Upton, TX"
       fill="#CCCCCC"
       stroke="#FFFFFF"
       stroke-width="0.9697"
       d="M379.643,442.699   l0.736,0.041l12.178,0.772l-0.993,16.031l-12.567-0.981L379.643,442.699"
       style="fill:#d40000;fill-opacity:1" /><path
       id="TX_Reagan"
       inkscape:label="Reagan, TX"
       fill="#CCCCCC"
       stroke="#FFFFFF"
       stroke-width="0.9697"
       d="M392.556,443.513   l12.106,0.726l-0.157,2.649l-0.048,0.774l-0.864,12.601l-12.03-0.719L392.556,443.513"
       style="fill:#d40000;fill-opacity:1" /><path
       id="TX_Glasscock"
       inkscape:label="Glasscock, TX"
       fill="#CCCCCC"
       stroke="#FFFFFF"
       stroke-width="0.9697"
       d="   M395.214,431.388l10.195,0.597l-0.747,12.254l-12.106-0.726l0.733-12.223L395.214,431.388"
       style="fill:#800000;fill-opacity:1" /><path
       id="TX_Howard"
       inkscape:label="Howard, TX"
       fill="#CCCCCC"
       stroke="#FFFFFF"
       stroke-width="0.9697"
       d="M408.204,419.82   l-0.893,12.271l-1.902-0.106l-10.195-0.597l0.884-12.295L408.204,419.82"
       style="fill:#d40000;fill-opacity:1" /><path
       id="TX_Borden"
       inkscape:label="Borden, TX"
       fill="#CCCCCC"
       stroke="#FFFFFF"
       stroke-width="0.9697"
       d="M399.904,407.024   l9.008,0.442l-0.696,12.254l-0.011,0.1l-12.105-0.727l0.677-12.273L399.904,407.024"
       style="fill:#800000;fill-opacity:1" /><path
       id="TX_Garza"
       inkscape:label="Garza, TX"
       fill="#CCCCCC"
       stroke="#FFFFFF"
       stroke-width="0.9697"
       d="M412.708,395.425   l-0.638,12.021l-3.159,0.02l-9.008-0.442l0.727-12.206L412.708,395.425"
       style="fill:#aa0000;fill-opacity:1" /><path
       id="TX_Scurry"
       inkscape:label="Scurry, TX"
       fill="#CCCCCC"
       stroke="#FFFFFF"
       stroke-width="0.9697"
       d="M412.07,407.446   l8.958,0.648l-0.716,12.323l-12.097-0.698l0.696-12.254L412.07,407.446"
       style="fill:#aa0000;fill-opacity:1" /><path
       id="TX_Mitchell"
       inkscape:label="Mitchell, TX"
       fill="#CCCCCC"
       stroke="#FFFFFF"
       stroke-width="0.9697"
       d="M408.215,419.72   l12.097,0.698l-0.716,12.36l-3.699-0.226l-8.586-0.462l0.893-12.271L408.215,419.72"
       style="fill:#aa0000;fill-opacity:1" /><path
       id="TX_Sterling"
       inkscape:label="Sterling, TX"
       fill="#CCCCCC"
       stroke="#FFFFFF"
       stroke-width="0.9697"
       d="M405.409,431.985   l1.902,0.106l8.586,0.462l-0.649,10.969l-0.832-0.302l-0.307,4.012l-9.604-0.344l0.157-2.649L405.409,431.985"
       style="fill:#aa0000;fill-opacity:1" /><path
       id="TX_Irion"
       inkscape:label="Irion, TX"
       fill="#CCCCCC"
       stroke="#FFFFFF"
       stroke-width="0.9697"
       d="M404.458,447.662   l6.603,0.384l7.103,0.472l-0.509,12.273l-6.565-0.215l-7.495-0.313L404.458,447.662"
       style="fill:#aa0000;fill-opacity:1" /><path
       id="TX_Crockett"
       inkscape:label="Crockett, TX"
       fill="#CCCCCC"
       stroke="#FFFFFF"
       stroke-width="0.9697"
       d="M376.896,458.397   l2.101,0.166l12.567,0.981l12.03,0.719l7.495,0.313l-0.51,10.558l-0.607,11.714l-19.32-1.097l0.568-1.043l2.563-6.172l0.039-0.246   l-0.157-1.773l-0.962-0.775l-1.326-0.274l-0.353,0.037l-0.126-0.723l-2.04-6.918l-2.434-2.033l-1.533-0.479l-4.728-1.472   L376.896,458.397"
       style="fill:#d40000;fill-opacity:1" /><path
       id="TX_Val_Verde"
       inkscape:label="Val Verde, TX"
       fill="#CCCCCC"
       stroke="#FFFFFF"
       stroke-width="0.9697"
       d="   M390.652,481.751l19.32,1.097l6.297,0.303l-0.912,18.596l-0.246,5.14l-0.274,2.101l-0.137,0.677l-0.979,2.314l-0.316,0.461   l-0.098,0.02l-0.755-0.137l-5.751-5.153l-4.815-5.973l-0.059-0.159l-3.542-3.944l-1.217-0.421l-0.109-0.011l-3.503-0.224   l-0.557-0.028l-3.278-0.364L390.652,481.751"
       style="fill:#86b6f2;fill-opacity:1" /><path
       id="TX_Zapata"
       inkscape:label="Zapata, TX"
       fill="#CCCCCC"
       stroke="#FFFFFF"
       stroke-width="0.9697"
       d="M443.398,568.864   l2.148-1.441l0.885,1.315l9.517,0.422l-0.403,13.44l-5.701,5.811l-0.371-1.493l-0.451-1.824v-0.028l-0.756-2.778l-0.607-1.541   l-1.286-1.815l-1.413-0.823l-1.619-2.522l-0.098-1.108l0.029-0.109l0.118-0.096l0.442-0.648l0.176-2.274l-0.313-2.062l-0.255-0.405   l-0.021-0.007L443.398,568.864"
       style="fill:#4389e3;fill-opacity:1" /><path
       id="TX_Jim_Hogg"
       inkscape:label="Jim Hogg, TX"
       fill="#CCCCCC"
       stroke="#FFFFFF"
       stroke-width="0.9697"
       d="M459.951,566.923   l6.172,0.028l0.744,0.459l-0.086,2.182l0.744,0.854l1.768,5.041l-0.316,7.559l-13.432-0.444l0.403-13.44L459.951,566.923"
       style="fill:#1666cb;fill-opacity:1" /><path
       id="TX_Starr"
       inkscape:label="Starr, TX"
       fill="#CCCCCC"
       stroke="#FFFFFF"
       stroke-width="0.9697"
       d="M455.545,582.601   l13.432,0.444l2.572,0.078l-2.029,4.326l-2.377,4.591l-2.707,5.494l-1.188,0.168l-1.824-0.806l-8.575-3.855l-1.443-0.932   l-1.472-3.358l-0.051-0.194l-0.039-0.146L455.545,582.601"
       style="fill:#1666cb;fill-opacity:1" /><path
       id="TX_Willacy"
       inkscape:label="Willacy, TX"
       fill="#CCCCCC"
       stroke="#FFFFFF"
       stroke-width="0.9697"
       d="M496.813,588.677   l0.774,0.02l1.559,5.257h-0.43L496.813,588.677 M480.633,588.087l13.059,0.528l1.424,5.286l-0.99,1.229l-2.738,1.824l-8.477-1.502   l0.039-2.06l-1.168-0.374l-2.422-0.429l0.215-1.197l0.334-1.236L480.633,588.087"
       style="fill:#4389e3;fill-opacity:1" /><path
       id="TX_Hidalgo"
       inkscape:label="Hidalgo, TX"
       fill="#CCCCCC"
       stroke="#FFFFFF"
       stroke-width="0.9697"
       d="M471.549,583.123   l8.477,0.244l0.607,4.72l-0.725,2.07l-0.334,1.236l-0.215,1.197l2.422,0.429l1.168,0.374l-0.039,2.06l-0.157,7.959l-0.177-0.039   l-0.5-0.076l-2.286,0.023l-0.765,0.014l-0.098,0.126l-0.836,0.333l-3.15-0.607l-1.852-0.363l-0.58-0.313l-0.363-0.244l-2.697-1.837   l-1.286-1.537l-0.686-0.326l-0.06-0.02l-2.965-1.011h-0.018l2.707-5.494l2.377-4.591L471.549,583.123"
       style="fill:#4389e3;fill-opacity:1" /><path
       id="TX_Brooks"
       inkscape:label="Brooks, TX"
       fill="#CCCCCC"
       stroke="#FFFFFF"
       stroke-width="0.9697"
       d="M466.781,569.592   l7.318,0.254l4.375,0.14l1.785,1.48l-0.234,11.901l-8.477-0.244l-2.572-0.078l0.316-7.559l-1.768-5.041L466.781,569.592"
       style="fill:#1666cb;fill-opacity:1" /><path
       id="TX_Kenedy"
       inkscape:label="Kenedy, TX"
       fill="#CCCCCC"
       stroke="#FFFFFF"
       stroke-width="0.9697"
       d="M495.703,569.829   l0.648,0.006l-0.078,0.269l-0.354,1.608l-0.204,1.365l-0.178,1.665l-0.078,1.472v1.541l0.157,2.316l0.118,0.951l0.02,0.098   l0.305,1.768l0.441,2.001l0.775,2.823l0.039,0.109l0.039,0.106l0.234,0.769l-0.774-0.02l-1.659-6.146v-3.481l0.02-2.956   l0.012-1.167l0.039-1.734l0.106-1.335l0.12-0.677L495.703,569.829 M480.259,571.466l8.793-1.768l-0.059,0.218l0.009,0.489   l0.101,0.177l0.154,0.117l2.159,0.412l0.567-0.048l0.266-0.107l0.168-0.119l0.078-0.127l0.381-0.176l0.873-0.315l0.669-0.026   l0.042,0.176l-0.602,3.923l-1.068,3.209l-0.736,5.464l0.951,1.257l0.619,3.491l0.066,0.903l-13.059-0.528l-0.607-4.72   L480.259,571.466"
       style="fill:#86b6f2;fill-opacity:1" /><path
       id="TX_Kleberg"
       inkscape:label="Kleberg, TX"
       fill="#CCCCCC"
       stroke="#FFFFFF"
       stroke-width="0.9697"
       d="M495.703,569.829   l3.259-8.412l0.649,0.159l-3.26,8.259L495.703,569.829 M481.605,559.612l1.648,1.069l0.873,1.13l0.215,0.009l12.676,0.147   l-1.264,4.424l-0.756,1.815l-0.078,0.159l-0.207,0.234l-0.176,0.109l-2.236,1.145l-3.248-0.156l-8.793,1.768l-1.785-1.48   l0.188-10.432L481.605,559.612"
       style="fill:#b9d7ff;fill-opacity:1" /><path
       id="TX_Jim_Wells"
       inkscape:label="Jim Wells, TX"
       fill="#CCCCCC"
       stroke="#FFFFFF"
       stroke-width="0.9697"
       d="   M474.541,547.692l8.771,0.216l2.081,1.746l-3.455,3.013l-0.039,3.021l-0.294,3.925l-2.943-0.059l-0.188,10.432l-4.375-0.14   L474.541,547.692"
       style="fill:#86b6f2;fill-opacity:1" /><path
       id="TX_Nueces"
       inkscape:label="Nueces, TX"
       fill="#CCCCCC"
       stroke="#FFFFFF"
       stroke-width="0.9697"
       d="M504.103,554.364   l-4.492,7.212l-0.649-0.159l5.014-7.408L504.103,554.364 M481.605,559.612l0.294-3.925l0.039-3.021l3.455-3.013l-0.274,0.659   l0.252,1.019l3.299,1.72l0.646,0.303l1.286,0.283l1.785,0.148l0.216-0.728l4.014-0.087l1.727,0.087l-0.451,0.081l-1.639,0.744   l-0.473,0.344l-0.33,0.666l-0.051,0.864l0.177,0.453l0.431,0.705l0.531,0.462l0.756,0.361l1.244,0.971l-0.785,1.787l-0.736,1.472   l-12.676-0.147l-0.215-0.009l-0.873-1.13L481.605,559.612"
       style="fill:#f2b3be;fill-opacity:1" /><path
       id="TX_San_Patricio"
       inkscape:label="San Patricio, TX"
       fill="#CCCCCC"
       stroke="#FFFFFF"
       stroke-width="0.9697"
       d="   M485,544.599l6.879,0.455l6.943,2.588l3.074,4.879l-3.553,0.537l-1.727-0.087l-4.014,0.087l-0.216,0.728l-1.785-0.148l-1.286-0.283   l-0.646-0.303l-3.299-1.72l-0.252-1.019l0.274-0.659l-2.081-1.746L485,544.599"
       style="fill:#cc2f4a;fill-opacity:1" /><path
       id="TX_Calhoun"
       inkscape:label="Calhoun, TX"
       fill="#CCCCCC"
       stroke="#FFFFFF"
       stroke-width="0.9697"
       d="M509.558,546.751   l0.334-1.286l5.602-3.838l0.293-0.135l1.298-0.56l1.931-0.403l0.297,0.512l-2.365,1.165l-0.346,0.156l-0.028,0.028l-1.805,1.112   l-1.824,1.313l-1.591,1.247l-2.295,1.994l-0.05,0.048l-0.06,0.057L509.558,546.751 M515.887,529.993l6.328,1.098l0.009,0.942   l-1.53,0.716l-2.435,0.991l-1.98-1.808l-0.227-0.652L515.887,529.993 M508.144,535.703l-0.361-0.707l-0.6-1.521l1.914-1.335   l3.729-1.275l1.324-0.736l-0.363,0.327l1.307,3.104l0.066,0.076l1.089,0.202l0.688,0.473l2.875,2.59l0.225,0.225l0.207,0.285   l-0.039,0.188l-4.672,2.342l-0.216,0.09l-1.805,0.509l-0.63-0.204l-0.176-0.168l-1.589-1.709L508.144,535.703"
       style="fill:#cc2f4a;fill-opacity:1" /><path
       id="TX_Refugio"
       inkscape:label="Refugio, TX"
       fill="#CCCCCC"
       stroke="#FFFFFF"
       stroke-width="0.9697"
       d="M501.474,534.339   l6.67,1.364l2.974,2.754l-0.549,2.525l-8.261,1.204l0.039,0.57l0.557,0.746l0.953,0.57l0.541,0.079l0.518,0.018l-0.154,0.422   l-3.15,2.375l-2.227,1.08l-0.078-0.011l-0.484-0.395l-6.943-2.588l4.207-6.183L501.474,534.339"
       style="fill:#cc2f4a;fill-opacity:1" /><path
       id="TX_Bee"
       inkscape:label="Bee, TX"
       fill="#CCCCCC"
       stroke="#FFFFFF"
       stroke-width="0.9697"
       d="M486.236,530.905   l1.963,3.562l3.542,2.159l4.345,2.245l-4.207,6.183L485,544.599l0.234-0.184l-6.689-13.521l2.099-0.716l2.249-0.775l0.322,0.196   l0.195,0.342l0.873,0.483l0.777,0.321L486.236,530.905"
       style="fill:#e27f90;fill-opacity:1" /><path
       id="TX_Live_Oak"
       inkscape:label="Live Oak, TX"
       fill="#CCCCCC"
       stroke="#FFFFFF"
       stroke-width="0.9697"
       d="M478.408,527.42   l2.235,2.759l-2.099,0.716l6.689,13.521L485,544.599l-1.688,3.309l-8.771-0.216l-2.464-0.061l0.364-15.48L478.408,527.42"
       style="fill:#aa0000;fill-opacity:1" /><path
       id="TX_McMullen"
       inkscape:label="McMullen, TX"
       fill="#CCCCCC"
       stroke="#FFFFFF"
       stroke-width="0.9697"
       d="M460.933,531.13   l11.529,0.156l-0.386,16.345l-11.675-0.301L460.933,531.13"
       style="fill:#800000;fill-opacity:1" /><path
       id="TX_Duval"
       inkscape:label="Duval, TX"
       fill="#CCCCCC"
       stroke="#FFFFFF"
       stroke-width="0.9697"
       d="M460.402,547.33   l11.675,0.301l2.464,0.061l-0.441,22.154l-7.318-0.254l0.086-2.182l-0.744-0.459l-6.172-0.028L460.402,547.33"
       style="fill:#4389e3;fill-opacity:1" /><path
       id="TX_Webb"
       inkscape:label="Webb, TX"
       fill="#CCCCCC"
       stroke="#FFFFFF"
       stroke-width="0.9697"
       d="M425.571,542.15   l2.384,0.078l17.888,0.521l-0.051,4.856l14.609-0.274l-0.451,19.593l-4.003,2.237l-9.517-0.422l-0.885-1.315l-2.148,1.441   l-0.422-0.037l-0.538-0.337l-0.05-0.018l-0.845-0.823l-0.106-0.117l-0.039-0.05l-0.02-0.02l-0.029-0.107l0.115-0.156l0.697-0.934   l0.395-0.933l0.147-0.539l0.263-2.099l-0.893-2.484l-0.52-0.912l-0.336-0.246l-1.107-0.806l-0.568-0.098l-0.067,0.039l-0.03,0.12   l-0.971-0.039l-4.289-3.965l-0.775-0.92l-2.66-5.36l-2.107-4.267l-0.12-0.098L425.571,542.15"
       style="fill:#1666cb;fill-opacity:1" /><path
       id="TX_La_Salle"
       inkscape:label="La Salle, TX"
       fill="#CCCCCC"
       stroke="#FFFFFF"
       stroke-width="0.9697"
       d="M460.951,530.875   l-0.018,0.255l-0.531,16.2l-14.609,0.274l0.051-4.856l0.391-12.167L460.951,530.875"
       style="fill:#86b6f2;fill-opacity:1" /><path
       id="TX_Dimmit"
       inkscape:label="Dimmit, TX"
       fill="#CCCCCC"
       stroke="#FFFFFF"
       stroke-width="0.9697"
       d="M428.484,529.667   l17.426,0.903l0.324,0.011l-0.391,12.167l-17.888-0.521L428.484,529.667"
       style="fill:#4389e3;fill-opacity:1" /><path
       id="TX_Maverick"
       inkscape:label="Maverick, TX"
       fill="#CCCCCC"
       stroke="#FFFFFF"
       stroke-width="0.9697"
       d="M429.085,517.444   l-0.601,12.224l-0.529,12.561l-2.384-0.078l-0.089-0.098l-1.058-1.167l-0.786-1.011l-1.217-3.739l-3.531-9.487l-3.141-6.957   l-0.364-2.828L429.085,517.444"
       style="fill:#1666cb;fill-opacity:1" /><path
       id="TX_Kinney"
       inkscape:label="Kinney, TX"
       fill="#CCCCCC"
       stroke="#FFFFFF"
       stroke-width="0.9697"
       d="M415.357,501.746   l14.355,0.688l-0.627,15.01l-13.7-0.581l-2.834-4.541l0.755,0.137l0.098-0.02l0.316-0.461l0.979-2.314l0.137-0.677l0.274-2.101   L415.357,501.746"
       style="fill:#cc2f4a;fill-opacity:1" /><path
       id="TX_Edwards"
       inkscape:label="Edwards, TX"
       fill="#CCCCCC"
       stroke="#FFFFFF"
       stroke-width="0.9697"
       d="M430.417,483.751   l8.782,0.361l-0.324,6.057l-2.138-0.078l-2.954-0.353l-1.452,5.326l-0.266,4.05l0.039,3.415l-2.392-0.096l-14.355-0.688   l0.912-18.596L430.417,483.751"
       style="fill:#cc2f4a;fill-opacity:1" /><path
       id="TX_Real"
       inkscape:label="Real, TX"
       fill="#CCCCCC"
       stroke="#FFFFFF"
       stroke-width="0.9697"
       d="M438.875,490.169   l1.65,0.065l-0.177,3.67l0.489,0.99l1.62,0.092l-0.305,7.837l-10.049-0.294l-0.039-3.415l0.266-4.05l1.452-5.326l2.954,0.353   L438.875,490.169"
       style="fill:#aa0000;fill-opacity:1" /><path
       id="TX_Uvalade"
       inkscape:label="Uvalade, TX"
       fill="#CCCCCC"
       stroke="#FFFFFF"
       stroke-width="0.9697"
       d="M429.712,502.434   l2.392,0.096l10.049,0.294l4.669,0.165l-0.588,14.995l-17.149-0.54L429.712,502.434"
       style="fill:#e27f90;fill-opacity:1" /><path
       id="TX_Zavala"
       inkscape:label="Zavala, TX"
       fill="#CCCCCC"
       stroke="#FFFFFF"
       stroke-width="0.9697"
       d="M446.234,517.984   l-0.324,12.587l-17.426-0.903l0.601-12.224L446.234,517.984"
       style="fill:#1666cb;fill-opacity:1" /><path
       id="TX_Frio"
       inkscape:label="Frio, TX"
       fill="#CCCCCC"
       stroke="#FFFFFF"
       stroke-width="0.9697"
       d="M461.218,518.493   l-0.268,12.382l-14.717-0.294l-0.324-0.011l0.324-12.587L461.218,518.493"
       style="fill:#86b6f2;fill-opacity:1" /><path
       id="TX_Goliad"
       inkscape:label="Goliad, TX"
       fill="#CCCCCC"
       stroke="#FFFFFF"
       stroke-width="0.9697"
       d="M498,525.615   l1.824-0.009l0.717,0.331l0.354,0.719l0.471,1.217l0.109,6.466l-5.389,4.532l-4.345-2.245l-3.542-2.159l-1.963-3.562l5.113-3.969   l3.925-3.066h0.155l0.648,0.245l1.088,0.607l0.336,0.297L498,525.615"
       style="fill:#d40000;fill-opacity:1" /><path
       id="TX_Victoria"
       inkscape:label="Victoria, TX"
       fill="#CCCCCC"
       stroke="#FFFFFF"
       stroke-width="0.9697"
       d="M506.193,519.016   l0.922,1.145l2.443,1.08l0.166,0.117l1.766,3.492l2.807,5.211l-0.146,0.067l-1.324,0.736l-3.729,1.275l-1.914,1.335l0.6,1.521   l0.361,0.707l-6.67-1.364l-0.109-6.466l-0.471-1.217l-0.354-0.719l-0.717-0.331L498,525.615L506.193,519.016"
       style="fill:#cc2f4a;fill-opacity:1" /><path
       id="TX_DeWitt"
       inkscape:label="DeWitt, TX"
       fill="#CCCCCC"
       stroke="#FFFFFF"
       stroke-width="0.9697"
       d="M499.815,511.085   l6.378,7.931l-8.193,6.6l-0.498-0.596l-0.336-0.297l-1.088-0.607l-0.648-0.245h-0.155l-3.925,3.066l-4.358-5.489l3.542-2.807   L499.815,511.085"
       style="fill:#aa0000;fill-opacity:1" /><path
       id="TX_Karnes"
       inkscape:label="Karnes, TX"
       fill="#CCCCCC"
       stroke="#FFFFFF"
       stroke-width="0.9697"
       d="M487.758,515.451   l2.775,3.189l-3.542,2.807l4.358,5.489l-5.113,3.969l-1.176-0.159l-0.777-0.321l-0.873-0.483l-0.195-0.342l-0.322-0.196   l-2.249,0.775l-2.235-2.759l-2.228-2.717L487.758,515.451"
       style="fill:#d40000;fill-opacity:1" /><path
       id="TX_Wilson"
       inkscape:label="Wilson, TX"
       fill="#CCCCCC"
       stroke="#FFFFFF"
       stroke-width="0.9697"
       d="M485.088,511.066   l2.67,4.386l-11.577,9.252l-5.173-6.613l6.947-9.008l0.148,1.443l0.086,0.353l0.207,0.374l0.705-0.392L485.088,511.066"
       style="fill:#d40000;fill-opacity:1" /><path
       id="TX_Atascosa"
       inkscape:label="Atascosa, TX"
       fill="#CCCCCC"
       stroke="#FFFFFF"
       stroke-width="0.9697"
       d="M461.355,514.02   l9.652,4.07l5.173,6.613l2.228,2.717l-5.967,4.73l0.021-0.864l-11.529-0.156l0.018-0.255l0.268-12.382L461.355,514.02"
       style="fill:#cc2f4a;fill-opacity:1" /><path
       id="TX_Medina"
       inkscape:label="Medina, TX"
       fill="#CCCCCC"
       stroke="#FFFFFF"
       stroke-width="0.9697"
       d="M461.67,501.706   l-0.314,12.313l-0.137,4.474l-14.984-0.51l0.588-14.995l10.459,0.462l0.167,0.259l0.02,0.136l-0.078,0.305l-0.214,0.322l0.01,0.562   l0.145,0.333l0.099,0.085l0.089,0.013l1.1-0.257L461.67,501.706"
       style="fill:#d40000;fill-opacity:1" /><path
       id="TX_Bandera"
       inkscape:label="Bandera, TX"
       fill="#CCCCCC"
       stroke="#FFFFFF"
       stroke-width="0.9697"
       d="M442.458,494.987   l7.526,0.353l2.824,0.361l1.285,0.666l4.945,2.708l3.326,1.824l-0.695,0.808l-3.053,3.501l-1.1,0.257l-0.089-0.013l-0.099-0.085   l-0.145-0.333l-0.01-0.562l0.214-0.322l0.078-0.305l-0.02-0.136l-0.167-0.259l-10.459-0.462l-4.669-0.165L442.458,494.987"
       style="fill:#d40000;fill-opacity:1" /><path
       id="TX_Kerr"
       inkscape:label="Kerr, TX"
       fill="#CCCCCC"
       stroke="#FFFFFF"
       stroke-width="0.9697"
       d="M450.148,484.624   l-0.117,4.267l9.252,0.198l-0.244,9.985l-4.945-2.708l-1.285-0.666l-2.824-0.361l-7.526-0.353l-1.62-0.092l-0.489-0.99l0.177-3.67   l-1.65-0.065l0.324-6.057L450.148,484.624"
       style="fill:#d40000;fill-opacity:1" /><path
       id="TX_Gillespie"
       inkscape:label="Gillespie, TX"
       fill="#CCCCCC"
       stroke="#FFFFFF"
       stroke-width="0.9697"
       d="   M450.316,478.649l8.211,0.312l9.009,0.227l-0.187,10.116l-8.066-0.214l-9.252-0.198L450.316,478.649"
       style="fill:#d40000;fill-opacity:1" /><path
       id="TX_Blanco"
       inkscape:label="Blanco, TX"
       fill="#CCCCCC"
       stroke="#FFFFFF"
       stroke-width="0.9697"
       d="M473.375,479.729   l5.385,1.805l-1.197,1.933l-3.229,8.85l-2.903,2.736l-4.081-5.749l0.187-10.116L473.375,479.729"
       style="fill:#d40000;fill-opacity:1" /><path
       id="TX_Kendall"
       inkscape:label="Kendall, TX"
       fill="#CCCCCC"
       stroke="#FFFFFF"
       stroke-width="0.9697"
       d="M459.283,489.089   l8.066,0.214l4.081,5.749l-5.8,5.24l-3.266,0.606l-3.326-1.824L459.283,489.089"
       style="fill:#d40000;fill-opacity:1" /><path
       id="TX_Bexar"
       inkscape:label="Bexar, TX"
       fill="#CCCCCC"
       stroke="#FFFFFF"
       stroke-width="0.9697"
       d="M465.631,500.292   l2.228-0.274l0.198,0.011l3.108,0.402l1.502,1.206l1.04,3.092l0.244,0.774l0.697,0.54l1.188,0.381l2.325,1.561l0.039,0.834   l-0.246,0.264l-6.947,9.008l-9.652-4.07l0.314-12.313l0.695-0.808L465.631,500.292"
       style="fill:#86b6f2;fill-opacity:1" /><path
       id="TX_Guadalupe"
       inkscape:label="Guadalupe, TX"
       fill="#CCCCCC"
       stroke="#FFFFFF"
       stroke-width="0.9697"
       d="   M484.509,497.575l5.799,5.936l-5.221,7.555l-5.986-0.205l-0.705,0.392l-0.207-0.374l-0.086-0.353l-0.148-1.443l0.246-0.264   l-0.039-0.834l-2.325-1.561l-1.188-0.381l-0.697-0.54l-0.244-0.774l7.711-4.25L484.509,497.575"
       style="fill:#cc2f4a;fill-opacity:1" /><path
       id="TX_Comal"
       inkscape:label="Comal, TX"
       fill="#CCCCCC"
       stroke="#FFFFFF"
       stroke-width="0.9697"
       d="M474.334,492.316   l6.379,5.455l0.705,2.708l-7.711,4.25l-1.04-3.092l-1.502-1.206l-3.108-0.402l-0.198-0.011l-2.228,0.274l5.8-5.24L474.334,492.316"
       style="fill:#d40000;fill-opacity:1" /><path
       id="TX_Hays"
       inkscape:label="Hays, TX"
       fill="#CCCCCC"
       stroke="#FFFFFF"
       stroke-width="0.9697"
       d="M477.562,483.466   l11.049,9.526l-1.346,1.206l-3.197,2.641l-0.157,0.744l0.226,0.042l0.373-0.05l-3.092,2.903l-0.705-2.708l-6.379-5.455   L477.562,483.466"
       style="fill:#f2b3be;fill-opacity:1" /><path
       id="TX_Caldwell"
       inkscape:label="Caldwell, TX"
       fill="#CCCCCC"
       stroke="#FFFFFF"
       stroke-width="0.9697"
       d="M488.611,492.992   l1.461-1.236l8.037,8.055l-0.051,0.05l-7.75,3.65l-5.799-5.936l-0.373,0.05l-0.226-0.042l0.157-0.744l3.197-2.641L488.611,492.992"
       style="fill:#cc2f4a;fill-opacity:1" /><path
       id="TX_Gonzales"
       inkscape:label="Gonzales, TX"
       fill="#CCCCCC"
       stroke="#FFFFFF"
       stroke-width="0.9697"
       d="M498.058,499.861   l4.211,4.445l-1.503,1.307l0.02,2.048l-0.971,3.425l-9.282,7.556l-2.775-3.189l-2.67-4.386l5.221-7.555L498.058,499.861"
       style="fill:#d40000;fill-opacity:1" /><path
       id="TX_Lavaca"
       inkscape:label="Lavaca, TX"
       fill="#CCCCCC"
       stroke="#FFFFFF"
       stroke-width="0.9697"
       d="M502.269,504.306   l6.571-0.059l0.207,0.059l0.452,0.274l1.324,1.236l5.641,6.799l-2.412,1.991l-6.938,5.554l-7.3-9.075l0.971-3.425l-0.02-2.048   L502.269,504.306"
       style="fill:#aa0000;fill-opacity:1" /><path
       id="TX_Jackson"
       inkscape:label="Jackson, TX"
       fill="#CCCCCC"
       stroke="#FFFFFF"
       stroke-width="0.9697"
       d="M514.052,514.607   l0.441,0.451l8.105,7.998l-0.384,8.035l-6.328-1.098l-1.591,0.067l-2.807-5.211l-1.766-3.492l-0.166-0.117l-2.443-1.08   L514.052,514.607"
       style="fill:#aa0000;fill-opacity:1" /><path
       id="TX_Matagorda"
       inkscape:label="Matagorda, TX"
       fill="#CCCCCC"
       stroke="#FFFFFF"
       stroke-width="0.9697"
       d="   M522.599,523.056l8.475-5.12l2.237-2.318l0.579,0.551l0.148,0.147l1.01,3.361l0.627,2.437l0.207,0.696l0.059,0.089l4.857,3.827   l0.088,0.048l1.492,0.138l-0.471,0.313l-1.031,0.657l-0.46,0.274l-5.563,3.239l-1.766,0.893l-2.885,1.256l-1.914,0.884   l-3.533,1.805l-1.244,0.836l-0.09,0.057l-1.678,1.176l-0.736,0.551l-0.205,0.324l-0.059-0.205l0.146-0.237l3.992-3.002l0.609-5.15   l-0.117-0.126l-0.166-0.062l-0.502,0.07l-1.126,0.266l-0.483,0.156l-0.402,0.32l-0.471,0.827l-0.009-0.942L522.599,523.056"
       style="fill:#cc2f4a;fill-opacity:1" /><path
       id="TX_Wharton"
       inkscape:label="Wharton, TX"
       fill="#CCCCCC"
       stroke="#FFFFFF"
       stroke-width="0.9697"
       d="M528.043,505.207   l1.99,4.828l1.404,2.61l1.756,1.953l0.765,0.098l-0.646,0.921l-2.237,2.318l-8.475,5.12l-8.105-7.998l0.882-0.499l6.3-3.955   l0.402-1.169l1.176-2.382l2.67-2.747L528.043,505.207"
       style="fill:#cc2f4a;fill-opacity:1" /><path
       id="TX_Colorado"
       inkscape:label="Colorado, TX"
       fill="#CCCCCC"
       stroke="#FFFFFF"
       stroke-width="0.9697"
       d="M516.338,495.093   l0.826,1.52l0.998,0.906l0.246,0.222l1.541,1.071l0.244,0.117l0.434,0.087l4.689,4.633l0.607,0.657l-2.67,2.747l-1.176,2.382   l-0.402,1.169l-6.3,3.955l-0.882,0.499l-0.441-0.451l2.412-1.991l-5.641-6.799l-1.324-1.236l-0.452-0.274l-0.207-0.059   L516.338,495.093"
       style="fill:#d40000;fill-opacity:1" /><path
       id="TX_Bastrop"
       inkscape:label="Bastrop, TX"
       fill="#CCCCCC"
       stroke="#FFFFFF"
       stroke-width="0.9697"
       d="M497.902,482.532   l3.236,1.863l2.837,2.24l1.325,5.845l-7.191,7.33l-8.037-8.055l1.07-0.981l2.846-2.894l3.068-5.832L497.902,482.532"
       style="fill:#e27f90;fill-opacity:1" /><path
       id="TX_Fayette"
       inkscape:label="Fayette, TX"
       fill="#CCCCCC"
       stroke="#FFFFFF"
       stroke-width="0.9697"
       d="M510.922,489.468   l0.629,0.551l0.804-0.165l0.813-0.288l0.364-0.185l0.932,0.618l0.354,1.029l0.225,1.102l0.051,0.625l1.244,2.338l-7.497,9.154   l-6.571,0.059l-4.211-4.445l0.051-0.05l7.191-7.33L510.922,489.468"
       style="fill:#d40000;fill-opacity:1" /><path
       id="TX_Lee"
       inkscape:label="Lee, TX"
       fill="#CCCCCC"
       stroke="#FFFFFF"
       stroke-width="0.9697"
       d="M502.258,481.061   l4.661-2.747l2.798,3.553l2.215,2.563l2.748,1.254l-3.758,3.785l-5.621,3.013l-1.325-5.845l-2.837-2.24l-3.236-1.863   L502.258,481.061"
       style="fill:#d40000;fill-opacity:1" /><path
       id="TX_Austin"
       inkscape:label="Austin, TX"
       inkscape:connector-curvature="0"
       fill="#CCCCCC"
       stroke="#FFFFFF"
       stroke-width="0.9697"
       d="   M515.093,492.755l0.872-0.56l7.132-0.851l0.441,0.089l1.119,0.487l1.197,0.425l0.568,0.039l0.257-0.305l2.736,9.596l-1.374,3.531   l-2.119-0.901l-0.607-0.657l-4.689-4.633l-0.434-0.087l-0.244-0.117l-1.541-1.071l-0.246-0.222l-0.999-0.906l-0.825-1.52   L515.093,492.755"
       style="fill:#d40000;fill-opacity:1" /><path
       id="TX_Washington"
       inkscape:label="Washington, TX"
       fill="#CCCCCC"
       stroke="#FFFFFF"
       stroke-width="0.9697"
       d="   M522.961,483.388l0.266,0.353l0.273,0.196l0.174,0.059l1.318-0.45l0.413-0.501l0.165-0.126l0.324,0.039l0.678,0.714l-0.107,1.11   l1.48,2.963l-1.265,4.336l-0.257,0.305l-0.568-0.039l-1.197-0.425l-1.119-0.487l-0.441-0.089l-7.132,0.851l-0.872,0.56   l-0.051-0.625l-0.225-1.102l-0.354-1.029l-0.932-0.618l-0.364,0.185l-0.813,0.288l-0.804,0.165l-0.629-0.551l3.758-3.785   l3.58-0.882l0.708-0.198l3.669-1.335l0.215,0.033L522.961,483.388"
       style="fill:#d40000;fill-opacity:1" /><path
       id="TX_Waller"
       inkscape:label="Waller, TX"
       fill="#CCCCCC"
       stroke="#FFFFFF"
       stroke-width="0.9697"
       d="M527.945,487.744   l7.014-0.579l0.039,4.355l-1.303-0.322l-1.315-0.735l-0.491-0.464l-0.717-0.531l0.335,1.082l2.954,9.431l-5.044,1.695l-2.736-9.596   L527.945,487.744"
       style="fill:#cc2f4a;fill-opacity:1" /><path
       id="TX_Fort_Bend"
       inkscape:label="Fort Bend, TX"
       fill="#CCCCCC"
       stroke="#FFFFFF"
       stroke-width="0.9697"
       d="   M529.417,501.676l5.044-1.695l9.84,5.788l-0.912,3.953l-3.17,3.17l-0.834,0.431l-2.156-0.03l-0.943-0.335l-1.107,0.472l-1.22,1.268   l-0.765-0.098l-1.756-1.953l-1.404-2.61l-1.99-4.828L529.417,501.676"
       style="fill:#86b6f2;fill-opacity:1" /><path
       id="TX_Brazoria"
       inkscape:label="Brazoria, TX"
       fill="#CCCCCC"
       stroke="#FFFFFF"
       stroke-width="0.9697"
       d="M544.3,505.769   l5.083,0.646l-0.381,2.532l2.815,4.719l1.588,2.687l-1.775,3.2l0.266,0.207l-0.148,0.303l-6.16,5.388l-3.209,1.461l-1.492-0.138   l-0.088-0.048l-4.857-3.827l-0.059-0.089l-0.207-0.696l-0.627-2.437l-1.01-3.361l-0.148-0.147l-0.579-0.551l0.646-0.921l1.22-1.268   l1.107-0.472l0.943,0.335l2.156,0.03l0.834-0.431l3.17-3.17L544.3,505.769"
       style="fill:#cc2f4a;fill-opacity:1" /><path
       id="TX_Galveston"
       inkscape:label="Galveston, TX"
       fill="#CCCCCC"
       stroke="#FFFFFF"
       stroke-width="0.9697"
       d="   M570.076,506.169l-0.729,0.336l-2.176,1.001l-0.168,0.078l-0.107,0.059l-1.961,0.912l-0.305,0.145l-0.881,0.472l-0.16,0.099   l-0.5,0.315l-0.294,0.176l-0.087,0.067l-0.285,0.218l-0.207,0.146l-0.098,0.117l-0.07,0.059l-0.176,0.188l-0.059,0.087   l-0.214,0.324l-0.101,0.148l-0.117,0.283l-0.05,0.11l-0.745,0.214l-0.422,0.021l-0.087-0.078l-0.02-0.329l0.392-0.498l2.062-2.208   l0.214-0.154l1.874-0.893l1.256-0.433l0.315-0.04l0.233-0.098l-0.126-0.305v-0.402L570.076,506.169 M554.24,506.396l1.128,1.275   l4.024,4.307l1.951,0.579l-1.334,1.169l-0.42,0.324l-2.328,1.598l-2.926,2.012l-0.176,0.115l-0.313,0.248l-0.882,0.675   l-0.156,0.129l-0.09,0.069l-0.353,0.333l-0.263,0.246l-0.207,0.285l-0.266-0.207l1.775-3.2l-1.588-2.687l-2.815-4.719l0.381-2.532   l1.178,1.178l2.442-1.258L554.24,506.396"
       style="fill:#e27f90;fill-opacity:1" /><path
       id="TX_Montgomery"
       inkscape:label="Montgomery, TX"
       fill="#CCCCCC"
       stroke="#FFFFFF"
       stroke-width="0.9697"
       d="   M534.312,476.371l5.602,3.396l2.602-0.011l1.58-0.009l1.629,0.106l4.709,4.437l1.717,4.973l-2.444,2.315l-1.589,1.503l-0.717,0.08   l-0.429-0.092l-0.259-0.56l-0.703-0.657l-1.768-0.949l-3.07-1.628l-1.148,0.999l-1.718,0.814l-1.608,0.324l-0.531,0.048   l-1.168,0.059l-0.039-4.355L534.312,476.371"
       style="fill:#d40000;fill-opacity:1" /><path
       id="TX_Harris"
       inkscape:label="Harris, TX"
       fill="#CCCCCC"
       stroke="#FFFFFF"
       stroke-width="0.9697"
       d="M534.998,491.521   l1.168-0.059l0.531-0.048l1.608-0.324l1.718-0.814l1.148-0.999l3.07,1.628l1.768,0.949l0.703,0.657l0.259,0.56l0.429,0.092   l0.717-0.08l1.589-1.503l2.444-2.315l2.915,7.899l1.245,5.834l-2.07,3.398l-1.236-0.061l-2.442,1.258l-1.178-1.178l-5.083-0.646   l-9.84-5.788l-2.954-9.431l-0.335-1.082l0.717,0.531l0.491,0.464l1.315,0.735L534.998,491.521"
       style="fill:#86b6f2;fill-opacity:1" /><path
       id="TX_Chambers"
       inkscape:label="Chambers, TX"
       fill="#CCCCCC"
       stroke="#FFFFFF"
       stroke-width="0.9697"
       d="M568.173,496.839   l2.06,0.018l0.268,8.756l-0.021,0.37l-0.402,0.187l-3.797,0.138l-5.111-0.814l0.617-1.156l0.354-1.943l0.008-0.255l-0.078-0.551   l-0.725-1.431l-0.266-0.296l-0.137-0.05l-1.248,0.57l-0.576,0.305l-2.807,2.312l-1.245-5.834L568.173,496.839"
       style="fill:#d40000;fill-opacity:1" /><path
       id="TX_Hardin"
       inkscape:label="Hardin, TX"
       fill="#CCCCCC"
       stroke="#FFFFFF"
       stroke-width="0.9697"
       d="M565.386,479.012   l11.459-0.176l-0.609,1.489l-0.213,0.648l-0.266,1.088l0.068,0.393l0.44,1.003l0.079,0.026l0.245,0.257l-0.442,2.736l-0.252,0.355   l0.087,2.268l-0.157-0.158l-1.797-0.599l-0.34,0.048l-1.583,0.512l-0.059,0.078l-0.02,0.313l0.059,0.444l-0.067,0.176l-0.324,0.468   l-0.177,0.099l-2.453,0.522l-0.384-0.072l-0.676-0.353l-3.68,0.078l-3.455-10.545L565.386,479.012"
       style="fill:#aa0000;fill-opacity:1" /><path
       id="TX_Liberty"
       inkscape:label="Liberty, TX"
       fill="#CCCCCC"
       stroke="#FFFFFF"
       stroke-width="0.9697"
       d="M558.048,480.051   l2.823,0.061l3.455,10.545l3.68-0.078l0.167,6.261l-13.107,0.324l-2.915-7.899l-1.717-4.973L558.048,480.051"
       style="fill:#d40000;fill-opacity:1" /><path
       id="TX_Jefferson"
       inkscape:label="Jefferson, TX"
       fill="#CCCCCC"
       stroke="#FFFFFF"
       stroke-width="0.9697"
       d="   M568.006,490.578l0.676,0.353l0.384,0.072l2.453-0.522l0.177-0.099l0.324-0.468l0.067-0.176l-0.059-0.444l0.02-0.313l0.059-0.078   l1.583-0.512l0.34-0.048l1.797,0.599l0.157,0.158l0.06,0.342l0.509,1.766l0.067,0.076l3.379,2.199l2.029,0.522l0.313,0.137   l0.375,0.577l0.09,0.227l0.047,0.276l-0.041,0.638l0.217,6.259l-2.266,0.363l-0.602-0.011l-1.115-0.011l-1.344,0.315l-1.846,0.735   l-5.377,2.472l0.021-0.37l-0.268-8.756l-2.06-0.018L568.006,490.578"
       style="fill:#f2b3be;fill-opacity:1" /><path
       id="TX_Orange"
       inkscape:label="Orange, TX"
       fill="#CCCCCC"
       stroke="#FFFFFF"
       stroke-width="0.9697"
       d="M585.625,486.538   l-0.018,5.423l-2.797,3.898l0.041-0.638l-0.047-0.276l-0.09-0.227l-0.375-0.577l-0.313-0.137l-2.029-0.522l-3.379-2.199   l-0.067-0.076l-0.509-1.766l-0.06-0.342l-0.087-2.268l5.238-0.14L585.625,486.538"
       style="fill:#d40000;fill-opacity:1" /><path
       id="TX_Travis"
       inkscape:label="Travis, TX"
       fill="#CCCCCC"
       stroke="#FFFFFF"
       stroke-width="0.9697"
       d="M478.759,481.533   l1.953-5.515l2.246-0.067l0.952,0.675l1.149,1.659l0.429,2.062l0.895,0.755l0.767,0.255l0.557-0.02l1.64-0.577l2.257-1.088h0.49   l1.539,0.487l3.424,1.89l-3.068,5.832l-2.846,2.894l-1.07,0.981l-1.461,1.236l-11.049-9.526L478.759,481.533"
       style="fill:#4389e3;fill-opacity:1" /><path
       id="TX_Kent"
       inkscape:label="Kent, TX"
       fill="#CCCCCC"
       stroke="#FFFFFF"
       stroke-width="0.9697"
       d="M424.855,396.015   l-0.618,12.245l-3.209-0.165l-8.958-0.648l0.638-12.021L424.855,396.015"
       style="fill:#aa0000;fill-opacity:1" /><path
       id="TX_Kimble"
       inkscape:label="Kimble, TX"
       fill="#CCCCCC"
       stroke="#FFFFFF"
       stroke-width="0.9697"
       d="M446.175,472.584   l-0.227,5.917l4.367,0.147l-0.168,5.976l-10.949-0.512l-8.782-0.361l0.521-11.766L446.175,472.584"
       style="fill:#aa0000;fill-opacity:1" /><path
       id="TX_Sutton"
       inkscape:label="Sutton, TX"
       fill="#CCCCCC"
       stroke="#FFFFFF"
       stroke-width="0.9697"
       d="M430.938,471.986   l-0.521,11.766l-14.148-0.601l-6.297-0.303l0.607-11.714L430.938,471.986"
       style="fill:#d40000;fill-opacity:1" /><path
       id="TX_Schleicher"
       inkscape:label="Schleicher, TX"
       fill="#CCCCCC"
       stroke="#FFFFFF"
       stroke-width="0.9697"
       d="   M417.654,460.791l13.765,0.599l-0.481,10.596l-20.359-0.852l0.51-10.558L417.654,460.791"
       style="fill:#d40000;fill-opacity:1" /><path
       id="TX_Menard"
       inkscape:label="Menard, TX"
       fill="#CCCCCC"
       stroke="#FFFFFF"
       stroke-width="0.9697"
       d="M431.419,461.39   l12.284,0.519l2.688,4.221l-0.216,6.455l-15.238-0.599L431.419,461.39"
       style="fill:#d40000;fill-opacity:1" /><path
       id="TX_Mason"
       inkscape:label="Mason, TX"
       fill="#CCCCCC"
       stroke="#FFFFFF"
       stroke-width="0.9697"
       d="M446.391,466.129   l9.439,0.322l3.05,0.648l-0.354,11.86l-8.211-0.312l-4.367-0.147l0.227-5.917L446.391,466.129"
       style="fill:#aa0000;fill-opacity:1" /><path
       id="TX_Llano"
       inkscape:label="Llano, TX"
       fill="#CCCCCC"
       stroke="#FFFFFF"
       stroke-width="0.9697"
       d="M458.881,467.1   l12.482,0.354l1.598,2.514l0.107,7.328l0.307,2.434l-5.839-0.542l-9.009-0.227L458.881,467.1"
       style="fill:#d40000;fill-opacity:1" /><path
       id="TX_Burnet"
       inkscape:label="Burnet, TX"
       fill="#CCCCCC"
       stroke="#FFFFFF"
       stroke-width="0.9697"
       d="M484.283,464.56   l1.924,3.648l-5.494,7.811l-1.953,5.515l-5.385-1.805l-0.307-2.434l-0.107-7.328l-1.598-2.514l0.225-3.03L484.283,464.56"
       style="fill:#d40000;fill-opacity:1" /><path
       id="TX_Williamson"
       inkscape:label="Williamson, TX"
       fill="#CCCCCC"
       stroke="#FFFFFF"
       stroke-width="0.9697"
       d="   M486.207,468.208l4.17,0.926l0.715,0.176l7.4,3.422l3.766,8.329l-4.355,1.472l-0.846-0.483l-3.424-1.89l-1.539-0.487h-0.49   l-2.257,1.088l-1.64,0.577l-0.557,0.02l-0.767-0.255l-0.895-0.755l-0.429-2.062l-1.149-1.659l-0.952-0.675l-2.246,0.067   L486.207,468.208"
       style="fill:#e27f90;fill-opacity:1" /><path
       id="TX_Burleson"
       inkscape:label="Burleson, TX"
       fill="#CCCCCC"
       stroke="#FFFFFF"
       stroke-width="0.9697"
       d="M515.23,473.516   l1.293,0.99l-0.137,0.179l-0.687,1.293v0.078l2.238,0.533l2.06,0.96l2.602,3.71l0.361,2.129l-0.109-0.087l-0.215-0.033   l-3.669,1.335l-0.708,0.198l-3.58,0.882l-2.748-1.254l-2.215-2.563l-2.798-3.553L515.23,473.516"
       style="fill:#d40000;fill-opacity:1" /><path
       id="TX_San_Jacinto"
       inkscape:label="San Jacinto, TX"
       fill="#CCCCCC"
       stroke="#FFFFFF"
       stroke-width="0.9697"
       d="   M546.41,469.885l3.082,0.964l1.657,1.727l6.124,5.869l0.774,1.606l-7.614,4.24l-4.709-4.437L546.41,469.885"
       style="fill:#d40000;fill-opacity:1" /><path
       id="TX_Walker"
       inkscape:label="Walker, TX"
       fill="#CCCCCC"
       stroke="#FFFFFF"
       stroke-width="0.9697"
       d="M543.802,464.335   l2.607,5.55l-0.686,9.97l-1.629-0.106l-1.58,0.009l-2.602,0.011l-5.602-3.396l-0.794-6.555l5.896-1.883L543.802,464.335"
       style="fill:#cc2f4a;fill-opacity:1" /><path
       id="TX_Grimes"
       inkscape:label="Grimes, TX"
       fill="#CCCCCC"
       stroke="#FFFFFF"
       stroke-width="0.9697"
       d="M526.16,470.964   l7.358-1.147l0.794,6.555l0.646,10.794l-7.014,0.579l-1.48-2.963l1.696-2.523l-0.862-0.599l-0.178-0.313l-0.275-0.507l-1.127-3.781   l0.205-2.904L526.16,470.964"
       style="fill:#d40000;fill-opacity:1" /><path
       id="TX_Brazos"
       inkscape:label="Brazos, TX"
       fill="#CCCCCC"
       stroke="#FFFFFF"
       stroke-width="0.9697"
       d="M526.16,470.964   l-0.236,3.189l-0.205,2.904l1.127,3.781l0.275,0.507l0.178,0.313l0.862,0.599l-1.696,2.523l0.107-1.11l-0.678-0.714l-0.324-0.039   l-0.165,0.126l-0.413,0.501l-1.318,0.45l-0.174-0.059l-0.273-0.196l-0.266-0.353l-0.361-2.129l-2.602-3.71l-2.06-0.96l-2.238-0.533   v-0.078l0.687-1.293l0.137-0.179l2.671-1.352l0.657-1.147l0.479-1.11l0.541-1.027l0.648-1.013l0.303-0.394l0.394-0.342l0.716-0.492   l0.982-0.648l0.51-0.244L526.16,470.964"
       style="fill:#e27f90;fill-opacity:1" /><path
       id="TX_Madison"
       inkscape:label="Madison, TX"
       fill="#CCCCCC"
       stroke="#FFFFFF"
       stroke-width="0.9697"
       d="M524.424,466.737   l1.667-0.579l2.169-1.44l2.531-1.296l5.083-0.069l3.54,4.582l-5.896,1.883l-7.358,1.147L524.424,466.737"
       style="fill:#d40000;fill-opacity:1" /><path
       id="TX_Leon"
       inkscape:label="Leon, TX"
       fill="#CCCCCC"
       stroke="#FFFFFF"
       stroke-width="0.9697"
       d="M536.431,451.833   l0.246,0.412l0.441,0.99l1.068,3.059l-0.537,1.367l-0.1-0.02l-0.205,0.117l-0.54,0.607l-1.206,3.814l0.028,0.365l0.246,0.806   l-5.083,0.069l-2.531,1.296l-2.169,1.44l-1.667,0.579l-1.847-10.782l1.983-1.571l10.734-5.756L536.431,451.833"
       style="fill:#aa0000;fill-opacity:1" /><path
       id="TX_Robertson"
       inkscape:label="Robertson, TX"
       fill="#CCCCCC"
       stroke="#FFFFFF"
       stroke-width="0.9697"
       d="   M515.907,459.751l6.67-3.797l1.847,10.782l-0.51,0.244l-0.982,0.648l-0.716,0.492l-0.394,0.342l-0.303,0.394l-0.648,1.013   l-0.541,1.027l-0.479,1.11l-0.657,1.147l-2.671,1.352l-1.293-0.99l-1.158-2.913l-2.07-2.649l-1.404-4.101l-0.285-0.912   L515.907,459.751"
       style="fill:#cc2f4a;fill-opacity:1" /><path
       id="TX_Milam"
       inkscape:label="Milam, TX"
       fill="#CCCCCC"
       stroke="#FFFFFF"
       stroke-width="0.9697"
       d="M510.312,462.941   l0.285,0.912l1.404,4.101l2.07,2.649l1.158,2.913l-8.312,4.798l-4.661,2.747l-3.766-8.329l1.412-3.829l4.583-2.655L510.312,462.941   "
       style="fill:#d40000;fill-opacity:1" /><path
       id="TX_Bell"
       inkscape:label="Bell, TX"
       fill="#CCCCCC"
       stroke="#FFFFFF"
       stroke-width="0.9697"
       d="M496.243,456.758   l3.346,1.18l4.898,8.31l-4.583,2.655l-1.412,3.829l-7.4-3.422l-0.715-0.176l-4.17-0.926l-1.924-3.648l0.129-0.962L496.243,456.758"
       style="fill:#e27f90;fill-opacity:1" /><path
       id="TX_Coryell"
       inkscape:label="Coryell, TX"
       fill="#CCCCCC"
       stroke="#FFFFFF"
       stroke-width="0.9697"
       d="M491.906,449.164   l4.337,7.594l-11.831,6.84l-6.301-11.227l9.99-5.66L491.906,449.164"
       style="fill:#cc2f4a;fill-opacity:1" /><path
       id="TX_Lampasas"
       inkscape:label="Lampasas, TX"
       fill="#CCCCCC"
       stroke="#FFFFFF"
       stroke-width="0.9697"
       d="M475.904,453.657   l2.207-1.286l6.301,11.227l-0.129,0.962l-12.695-0.137l-2.796-5.722L475.904,453.657"
       style="fill:#d40000;fill-opacity:1" /><path
       id="TX_Mills"
       inkscape:label="Mills, TX"
       fill="#CCCCCC"
       stroke="#FFFFFF"
       stroke-width="0.9697"
       d="M471.489,446.024   l4.415,7.634l-7.112,5.044l-0.061-0.335l-0.912-1.992l-3.15-2.765l-0.765,0.726l-4.639-1.746l-0.62-0.814l0.089-0.501l1.236-0.776   l3.926-2.628l0.539-2.148l2.186-0.294L471.489,446.024"
       style="fill:#aa0000;fill-opacity:1" /><path
       id="TX_San_Saba"
       inkscape:label="San Saba, TX"
       fill="#CCCCCC"
       stroke="#FFFFFF"
       stroke-width="0.9697"
       d="M458.734,451.274   l-0.089,0.501l0.62,0.814l4.639,1.746l0.765-0.726l3.15,2.765l0.912,1.992l0.061,0.335l2.796,5.722l-0.225,3.03l-12.482-0.354   l-3.05-0.648l0.519-14.599L458.734,451.274"
       style="fill:#aa0000;fill-opacity:1" /><path
       id="TX_McCulloch"
       inkscape:label="McCulloch, TX"
       fill="#CCCCCC"
       stroke="#FFFFFF"
       stroke-width="0.9697"
       d="   M453.672,451.587l2.678,0.266l-0.519,14.599l-9.439-0.322l-2.688-4.221l0.461-11.359l1.551,0.303l2.168,0.335l4.611,0.115   L453.672,451.587"
       style="fill:#aa0000;fill-opacity:1" /><path
       id="TX_Concho"
       inkscape:label="Concho, TX"
       fill="#CCCCCC"
       stroke="#FFFFFF"
       stroke-width="0.9697"
       d="M441.398,448.055   l2.766,2.494l-0.461,11.359l-12.284-0.519l0.697-13.814L441.398,448.055"
       style="fill:#aa0000;fill-opacity:1" /><path
       id="TX_Tom_Green"
       inkscape:label="Tom Green, TX"
       d="   M415.248,443.522l14.033,0.754l2.834,3.3l-0.697,13.814l-13.765-0.599l0.509-12.273l-7.103-0.472l-6.603-0.384l0.048-0.774   l9.604,0.344l0.307-4.012L415.248,443.522"
       stroke-width="0.9697"
       stroke="#FFFFFF"
       fill="#CCCCCC"
       style="fill:#d40000;fill-opacity:1" /><path
       id="TX_Coke"
       inkscape:label="Coke, TX"
       fill="#CCCCCC"
       stroke="#FFFFFF"
       stroke-width="0.9697"
       d="M415.897,432.553   l3.699,0.226l10.194,0.558l-0.509,10.939l-14.033-0.754L415.897,432.553"
       style="fill:#aa0000;fill-opacity:1" /><path
       id="TX_Runnels"
       inkscape:label="Runnels, TX"
       fill="#CCCCCC"
       stroke="#FFFFFF"
       stroke-width="0.9697"
       d="M431.762,433.417   l10.371,0.45l-0.735,14.188l-9.283-0.479l-2.834-3.3l0.509-10.939L431.762,433.417"
       style="fill:#aa0000;fill-opacity:1" /><path
       id="TX_Coleman"
       inkscape:label="Coleman, TX"
       fill="#CCCCCC"
       stroke="#FFFFFF"
       stroke-width="0.9697"
       d="M444.095,433.965   l10.322,0.425l-0.746,17.197l-1.178-0.285l-4.611-0.115l-2.168-0.335l-1.551-0.303l-2.766-2.494l0.735-14.188L444.095,433.965"
       style="fill:#aa0000;fill-opacity:1" /><path
       id="TX_Brown"
       inkscape:label="Brown, TX"
       fill="#CCCCCC"
       stroke="#FFFFFF"
       stroke-width="0.9697"
       d="M456.251,434.446   l4.604,0.188l5.766,10.793l-2.186,0.294l-0.539,2.148l-3.926,2.628l-1.236,0.776l-2.385,0.579l-2.678-0.266l0.746-17.197   L456.251,434.446"
       style="fill:#aa0000;fill-opacity:1" /><path
       id="TX_Comanche"
       inkscape:label="Comanche, TX"
       fill="#CCCCCC"
       stroke="#FFFFFF"
       stroke-width="0.9697"
       d="M469.84,429.729   l5.074,9.142l1.835-1.048l0.979,1.785l1.18,2.157l-7.419,4.259l-4.868-0.597l-5.766-10.793L469.84,429.729"
       style="fill:#aa0000;fill-opacity:1" /><path
       id="TX_Hamilton"
       inkscape:label="Hamilton, TX"
       fill="#CCCCCC"
       stroke="#FFFFFF"
       stroke-width="0.9697"
       d="M477.728,439.608   l4.887-2.719l5.486,9.822l-9.99,5.66l-2.207,1.286l-4.415-7.634l7.419-4.259L477.728,439.608"
       style="fill:#aa0000;fill-opacity:1" /><path
       id="TX_Bosque"
       inkscape:label="Bosque, TX"
       fill="#CCCCCC"
       stroke="#FFFFFF"
       stroke-width="0.9697"
       d="M491.967,431.838   l3.276,0.901l-0.266,1.737l-0.168,1.461l0.129,1.188l3.768,6.79l0.285,0.439l0.793,0.492l-7.879,4.316l-3.805-2.453l-5.486-9.822   l3.365-1.883L491.967,431.838"
       style="fill:#aa0000;fill-opacity:1" /><path
       id="TX_Falls"
       inkscape:label="Falls, TX"
       fill="#CCCCCC"
       stroke="#FFFFFF"
       stroke-width="0.9697"
       d="M511.078,451.243   l4.829,8.508l-5.595,3.189l-5.825,3.307l-4.898-8.31L511.078,451.243"
       style="fill:#cc2f4a;fill-opacity:1" /><path
       id="TX_McLennan"
       inkscape:label="McLennan, TX"
       fill="#CCCCCC"
       stroke="#FFFFFF"
       stroke-width="0.9697"
       d="M507.998,445.976   l3.08,5.268l-11.489,6.694l-3.346-1.18l-4.337-7.594l7.879-4.316l5.76-3.237L507.998,445.976"
       style="fill:#cc2f4a;fill-opacity:1" /><path
       id="TX_Hill"
       inkscape:label="Hill, TX"
       fill="#CCCCCC"
       stroke="#FFFFFF"
       stroke-width="0.9697"
       d="M495.244,432.739   l9.26-2.462l4.457,5.436l4.141,7.328l-5.104,2.935l-2.453-4.365l-5.76,3.237l-0.793-0.492l-0.285-0.439l-3.768-6.79l-0.129-1.188   l0.168-1.461L495.244,432.739"
       style="fill:#d40000;fill-opacity:1" /><path
       id="TX_Limestone"
       inkscape:label="Limestone, TX"
       fill="#CCCCCC"
       stroke="#FFFFFF"
       stroke-width="0.9697"
       d="   M513.101,443.041l5.287,0.56l6.172,10.782l-1.983,1.571l-6.67,3.797l-4.829-8.508l-3.08-5.268L513.101,443.041"
       style="fill:#d40000;fill-opacity:1" /><path
       id="TX_Freestone"
       inkscape:label="Freestone, TX"
       fill="#CCCCCC"
       stroke="#FFFFFF"
       stroke-width="0.9697"
       d="   M528.965,437.725l-0.214,1.313l2.107,3.914l1.521,1.533l0.806,0.296l1.902,2.244l0.207,1.603l-10.734,5.756l-6.172-10.782   l10.527-6.063L528.965,437.725"
       style="fill:#d40000;fill-opacity:1" /><path
       id="TX_Navarro"
       inkscape:label="Navarro, TX"
       fill="#CCCCCC"
       stroke="#FFFFFF"
       stroke-width="0.9697"
       d="M508.961,435.713   l12.184-7.086l2.229,1.03l1.296,1.18l0.842,1.01l2.012,2.435l1.1,1.637l0.293,1.619l-10.527,6.063l-5.287-0.56L508.961,435.713"
       style="fill:#d40000;fill-opacity:1" /><path
       id="TX_Somervell"
       inkscape:label="Somervell, TX"
       fill="#CCCCCC"
       stroke="#FFFFFF"
       stroke-width="0.9697"
       d="   M484.156,430.859l7.859-2.257l-0.048,3.236l-5.987,3.168L484.156,430.859"
       style="fill:#aa0000;fill-opacity:1" /><path
       id="TX_Ellis"
       inkscape:label="Ellis, TX"
       fill="#CCCCCC"
       stroke="#FFFFFF"
       stroke-width="0.9697"
       d="M504.583,422.279   l1.149,0.042l11.99,0.197l1.813,5.258l1.608,0.851l-12.184,7.086l-4.457-5.436L504.583,422.279"
       style="fill:#d40000;fill-opacity:1" /><path
       id="TX_Johnson"
       inkscape:label="Johnson, TX"
       fill="#CCCCCC"
       stroke="#FFFFFF"
       stroke-width="0.9697"
       d="M492.086,421.938   l1.566,0.03l10.931,0.312l-0.079,7.998l-9.26,2.462l-3.276-0.901l0.048-3.236L492.086,421.938"
       style="fill:#d40000;fill-opacity:1" /><path
       id="TX_Hood"
       inkscape:label="Hood, TX"
       fill="#CCCCCC"
       stroke="#FFFFFF"
       stroke-width="0.9697"
       d="M481.488,421.633   l10.598,0.305l-0.07,6.664l-7.859,2.257l-2.738-7.889L481.488,421.633"
       style="fill:#aa0000;fill-opacity:1" /><path
       id="TX_Erath"
       inkscape:label="Erath, TX"
       fill="#CCCCCC"
       stroke="#FFFFFF"
       stroke-width="0.9697"
       d="M481.418,422.97   l2.738,7.889l1.824,4.147l-3.365,1.883l-4.887,2.719l-0.979-1.785l-1.835,1.048l-5.074-9.142l1.982-7.035L481.418,422.97"
       style="fill:#aa0000;fill-opacity:1" /><path
       id="TX_Eastland"
       inkscape:label="Eastland, TX"
       fill="#CCCCCC"
       stroke="#FFFFFF"
       stroke-width="0.9697"
       d="M457.185,422.212   l12.254,0.363l2.383,0.118l-1.982,7.035l-8.984,4.905l-4.604-0.188l0.501-12.247L457.185,422.212"
       style="fill:#aa0000;fill-opacity:1" /><path
       id="TX_Callahan"
       inkscape:label="Callahan, TX"
       fill="#CCCCCC"
       stroke="#FFFFFF"
       stroke-width="0.9697"
       d="M445.017,421.79   l11.734,0.409l-0.501,12.247l-1.833-0.057l-10.322-0.425l0.511-12.194L445.017,421.79"
       style="fill:#aa0000;fill-opacity:1" /><path
       id="TX_Taylor"
       inkscape:label="Taylor, TX"
       fill="#CCCCCC"
       stroke="#FFFFFF"
       stroke-width="0.9697"
       d="M444.606,421.771   l-0.511,12.194l-1.962-0.098l-10.371-0.45l0.667-12.372L444.606,421.771"
       style="fill:#d40000;fill-opacity:1" /><path
       id="TX_Nolan"
       inkscape:label="Nolan, TX"
       fill="#CCCCCC"
       stroke="#FFFFFF"
       stroke-width="0.9697"
       d="M432.429,421.045   l-0.667,12.372l-1.972-0.081l-10.194-0.558l0.716-12.36L432.429,421.045"
       style="fill:#d40000;fill-opacity:1" /><path
       id="TX_Fisher"
       inkscape:label="Fisher, TX"
       fill="#CCCCCC"
       stroke="#FFFFFF"
       stroke-width="0.9697"
       d="M424.237,408.26   l8.782,0.49l-0.59,12.295l-12.117-0.627l0.716-12.323L424.237,408.26"
       style="fill:#d40000;fill-opacity:1" /><path
       id="TX_Jones"
       inkscape:label="Jones, TX"
       fill="#CCCCCC"
       stroke="#FFFFFF"
       stroke-width="0.9697"
       d="M433.019,408.75   l3.639,0.148l8.83,0.441l-0.471,12.45l-0.411-0.02l-12.177-0.726L433.019,408.75"
       style="fill:#aa0000;fill-opacity:1" /><path
       id="TX_Shackelford"
       inkscape:label="Shackelford, TX"
       fill="#CCCCCC"
       stroke="#FFFFFF"
       stroke-width="0.9697"
       d="   M445.488,409.34l3.307,0.12l8.793,0.303l-0.402,12.449l-0.434-0.013l-11.734-0.409L445.488,409.34"
       style="fill:#800000;fill-opacity:1" /><path
       id="TX_Stephens"
       inkscape:label="Stephens, TX"
       fill="#CCCCCC"
       stroke="#FFFFFF"
       stroke-width="0.9697"
       d="M460.992,409.88   l8.799,0.322l-0.352,12.373l-12.254-0.363l0.402-12.449L460.992,409.88"
       style="fill:#aa0000;fill-opacity:1" /><path
       id="TX_Palo_Pinto"
       inkscape:label="Palo Pinto, TX"
       fill="#CCCCCC"
       stroke="#FFFFFF"
       stroke-width="0.9697"
       d="   M473.324,408.791l8.684,0.333l-0.52,12.509l-0.07,1.337l-9.596-0.276l-2.383-0.118l0.352-12.373L473.324,408.791"
       style="fill:#aa0000;fill-opacity:1" /><path
       id="TX_Parker"
       inkscape:label="Parker, TX"
       fill="#CCCCCC"
       stroke="#FFFFFF"
       stroke-width="0.9697"
       d="M482.008,409.124   l3.15,0.127l8.85,0.353l-0.355,12.364l-1.566-0.03l-10.598-0.305L482.008,409.124"
       style="fill:#aa0000;fill-opacity:1" /><path
       id="TX_Tarrant"
       inkscape:label="Tarrant, TX"
       fill="#CCCCCC"
       stroke="#FFFFFF"
       stroke-width="0.9697"
       d="M494.008,409.604   l3.413,0.167l8.585,0.264l-0.273,12.287l-1.149-0.042l-10.931-0.312L494.008,409.604"
       style="fill:#e27f90;fill-opacity:1" /><path
       id="TX_Dallas"
       inkscape:label="Dallas, TX"
       fill="#CCCCCC"
       stroke="#FFFFFF"
       stroke-width="0.9697"
       d="M506.006,410.034   l4.396-0.037l7.693,0.205l-0.079,4.75l-0.294,7.566l-11.99-0.197L506.006,410.034"
       style="fill:#4389e3;fill-opacity:1" /><path
       id="TX_Rockwall"
       inkscape:label="Rockwall, TX"
       fill="#CCCCCC"
       stroke="#FFFFFF"
       stroke-width="0.9697"
       d="M523.248,410.241   l-0.014,3.942l-5.218,0.769l0.079-4.75L523.248,410.241"
       style="fill:#d40000;fill-opacity:1" /><path
       id="TX_Kaufman"
       inkscape:label="Kaufman, TX"
       fill="#CCCCCC"
       stroke="#FFFFFF"
       stroke-width="0.9697"
       d="M523.234,414.184   l5.184,0.101l0.009,13.549l-8.891-0.057l-1.813-5.258l0.294-7.566L523.234,414.184"
       style="fill:#d40000;fill-opacity:1" /><path
       id="TX_Rains"
       inkscape:label="Rains, TX"
       fill="#CCCCCC"
       stroke="#FFFFFF"
       stroke-width="0.9697"
       d="M533.439,410.311   l4.631,0.529l0.725,6.762l-7.033-3.278L533.439,410.311"
       style="fill:#aa0000;fill-opacity:1" /><path
       id="TX_Van_Zandt"
       inkscape:label="Van Zandt, TX"
       fill="#CCCCCC"
       stroke="#FFFFFF"
       stroke-width="0.9697"
       d="   M531.761,414.323l7.033,3.278l0.963,0.934l0.041,5.834l2.902,3.092l0.531,0.404l-14.806-0.032l-0.009-13.549L531.761,414.323"
       style="fill:#aa0000;fill-opacity:1" /><path
       id="TX_Henderson"
       inkscape:label="Henderson, TX"
       fill="#CCCCCC"
       stroke="#FFFFFF"
       stroke-width="0.9697"
       d="   M528.426,427.833l14.806,0.032l-0.217,6.183l0.754,1.431l-14.805,2.246l-0.049-0.188l-0.293-1.619l-1.1-1.637l-2.012-2.435   l-0.842-1.01l-1.296-1.18l-2.229-1.03l-1.608-0.851L528.426,427.833"
       style="fill:#d40000;fill-opacity:1" /><path
       id="TX_Anderson"
       inkscape:label="Anderson, TX"
       fill="#CCCCCC"
       stroke="#FFFFFF"
       stroke-width="0.9697"
       d="M543.769,435.479   l-0.42,3.818l0.383,2.026l0.884,3.181l1.665,1.52l0.324,0.069l0.543,0.657l0.332,0.697l0.342,1.088l0.07,0.276l-0.333,0.471   l-5.242,0.816l-3.786,0.666l-2.1,1.068l-1.137-3.206l-0.207-1.603l-1.902-2.244l-0.806-0.296l-1.521-1.533l-2.107-3.914   l0.214-1.313L543.769,435.479"
       style="fill:#d40000;fill-opacity:1" /><path
       id="TX_Houston"
       inkscape:label="Houston, TX"
       fill="#CCCCCC"
       stroke="#FFFFFF"
       stroke-width="0.9697"
       d="M536.431,451.833   l2.1-1.068l3.786-0.666l5.242-0.816l1.53,0.59l2.373,2.432l2.59,1.6l1.1,1.091l-11.35,9.341l-4.389,3.599l-3.54-4.582l-0.246-0.806   l-0.028-0.365l1.206-3.814l0.54-0.607l0.205-0.117l0.1,0.02l0.537-1.367l-1.068-3.059l-0.441-0.99L536.431,451.833"
       style="fill:#d40000;fill-opacity:1" /><path
       id="TX_Trinity"
       inkscape:label="Trinity, TX"
       fill="#CCCCCC"
       stroke="#FFFFFF"
       stroke-width="0.9697"
       d="M557.989,461.712   l-8.497,9.137l-3.082-0.964l-2.607-5.55l11.35-9.341L557.989,461.712"
       style="fill:#d40000;fill-opacity:1" /><path
       id="TX_Polk"
       inkscape:label="Polk, TX"
       fill="#CCCCCC"
       stroke="#FFFFFF"
       stroke-width="0.9697"
       d="M564.767,464.078   l-2.296,1.363l2.915,13.57l-4.516,1.1l-2.823-0.061l-0.774-1.606l-6.124-5.869l-1.657-1.727l8.497-9.137l2.726,1.141l2.092,0.44   L564.767,464.078"
       style="fill:#d40000;fill-opacity:1" /><path
       id="TX_Newton"
       inkscape:label="Newton, TX"
       fill="#CCCCCC"
       stroke="#FFFFFF"
       stroke-width="0.9697"
       d="M587.797,460.33   l1.117-0.294l0.09,8.899l-0.434,1.883l-3.443,6.485l-0.275,0.981v0.011l0.07,0.074l0.678,0.816l0.342,1.75l-0.01,0.146   l-0.098,0.244l-0.926,0.777l-0.025,0.026l0.742,4.408l-4.49,0.154l0.363-11.919l0.059-7.871l-1.219-5.887L587.797,460.33"
       style="fill:#d40000;fill-opacity:1" /><path
       id="TX_Jasper"
       inkscape:label="Jasper, TX"
       fill="#CCCCCC"
       stroke="#FFFFFF"
       stroke-width="0.9697"
       d="M577.277,461.742   l3.061-0.727l1.219,5.887l-0.059,7.871l-0.363,11.919l-5.238,0.14l0.252-0.355l0.442-2.736l-0.245-0.257l-0.079-0.026l-0.44-1.003   l-0.068-0.393l0.266-1.088l0.213-0.648l0.609-1.489l-0.363-0.59l-0.253-0.825l0.065-0.216l0.542-1.043l-0.118-1.125l-1.715-3.404   l-0.218-0.186l-0.542-0.078l-0.146-0.03l-0.056-0.067l-1.62-4.723l0.166-0.94l-0.088-0.224l-0.285-0.296l-1.119-0.432l-1.423,0.039   l-2.393,0.068l7.851-1.992L577.277,461.742"
       style="fill:#d40000;fill-opacity:1" /><path
       id="TX_Tyler"
       inkscape:label="Tyler, TX"
       fill="#CCCCCC"
       stroke="#FFFFFF"
       stroke-width="0.9697"
       d="M567.28,464.765   l2.393-0.068l1.423-0.039l1.119,0.432l0.285,0.296l0.088,0.224l-0.166,0.94l1.62,4.723l0.056,0.067l0.146,0.03l0.542,0.078   l0.218,0.186l1.715,3.404l0.118,1.125l-0.542,1.043l-0.065,0.216l0.253,0.825l0.363,0.59l-11.459,0.176l-2.915-13.57l2.296-1.363   L567.28,464.765"
       style="fill:#aa0000;fill-opacity:1" /><path
       id="TX_Angelina"
       inkscape:label="Angelina, TX"
       fill="#CCCCCC"
       stroke="#FFFFFF"
       stroke-width="0.9697"
       d="M557.312,451.039   l1.019,1.127l4.435,1.139l1.07-0.176l0.941,0.394l1.267,0.664l0.305,0.326l3.981,4.827l4.801,3.433l-7.851,1.992l-2.513-0.687   l-1.961-0.785l-2.092-0.44l-2.726-1.141l-2.837-6.718l-1.1-1.091L557.312,451.039"
       style="fill:#d40000;fill-opacity:1" /><path
       id="TX_Sabine"
       inkscape:label="Sabine, TX"
       fill="#CCCCCC"
       stroke="#FFFFFF"
       stroke-width="0.9697"
       d="M581.888,448.936   l2.58,2.711l2.199,3.188l0.717,3.122l0.164,0.921l0.248,1.452l-7.459,0.686l-3.061,0.727l-0.205-0.657l-0.088-3.914l0.02-3.169   l1.02-1.098l0.4-0.512l-0.096-2.893L581.888,448.936"
       style="fill:#aa0000;fill-opacity:1" /><path
       id="TX_San_Augustine"
       inkscape:label="San Augustine, TX"
       fill="#CCCCCC"
       stroke="#FFFFFF"
       stroke-width="0.9697"
       d="   M578.328,449.5l0.096,2.893l-0.4,0.512l-1.02,1.098l-0.02,3.169l0.088,3.914l0.205,0.657l-2.146,1.03l-4.801-3.433l0.129-3.355   l0.176-6.408l-1.668-1.863l-0.567-0.395l7.368,0.786L578.328,449.5"
       style="fill:#d40000;fill-opacity:1" /><path
       id="TX_Shelby"
       inkscape:label="Shelby, TX"
       fill="#CCCCCC"
       stroke="#FFFFFF"
       stroke-width="0.9697"
       d="M565.574,438.352   l11.771-0.381l3.346,3.738l1.197,7.227l-3.561,0.564l-2.561-1.396l-7.368-0.786l-1.365-5.347L565.574,438.352"
       style="fill:#d40000;fill-opacity:1" /><path
       id="TX_Nacogdoches"
       inkscape:label="Nacogdoches, TX"
       fill="#CCCCCC"
       stroke="#FFFFFF"
       stroke-width="0.9697"
       d="   M555.508,442.101l11.526-0.129l1.365,5.347l0.567,0.395l1.668,1.863l-0.176,6.408l-0.129,3.355l-3.981-4.827l-0.305-0.326   l-1.267-0.664l-0.941-0.394l-1.07,0.176l-4.435-1.139l-1.019-1.127l-1.298-1.278l-0.115-0.185l-0.588-1.598l-0.435-1.62   l-0.256-2.515L555.508,442.101"
       style="fill:#cc2f4a;fill-opacity:1" /><path
       id="TX_Cherokee"
       inkscape:label="Cherokee, TX"
       fill="#CCCCCC"
       stroke="#FFFFFF"
       stroke-width="0.9697"
       d="M543.015,434.048   l11.256-0.161l1.236,8.214l-0.887,1.743l0.256,2.515l0.435,1.62l0.588,1.598l0.115,0.185l1.298,1.278l-3.26,2.864l-2.59-1.6   l-2.373-2.432l-1.53-0.59l0.333-0.471l-0.07-0.276l-0.342-1.088l-0.332-0.697l-0.543-0.657l-0.324-0.069l-1.665-1.52l-0.884-3.181   l-0.383-2.026l0.42-3.818L543.015,434.048"
       style="fill:#d40000;fill-opacity:1" /><path
       id="TX_Panola"
       inkscape:label="Panola, TX"
       fill="#CCCCCC"
       stroke="#FFFFFF"
       stroke-width="0.9697"
       d="M576.463,426.383   l0.119,5.523l0.764,6.064l-11.771,0.381l-2.1,0.05l-0.08-3.002l0.459-3.474l0.521-1.298l0.755-1.332l0.711-1.718l0.017-1.069   l0.677,0.6l2.561,1.099l0.197,0.037L576.463,426.383"
       style="fill:#aa0000;fill-opacity:1" /><path
       id="TX_Rusk"
       inkscape:label="Rusk, TX"
       fill="#CCCCCC"
       stroke="#FFFFFF"
       stroke-width="0.9697"
       d="M563.786,426.527   l2.07-0.018l-0.017,1.069l-0.711,1.718l-0.755,1.332l-0.521,1.298l-0.459,3.474l0.08,3.002l2.1-0.05l1.46,3.62l-11.526,0.129   l-1.236-8.214l-0.09-6.514l4.171-0.089l3.915-0.039L563.786,426.527"
       style="fill:#d40000;fill-opacity:1" /><path
       id="TX_Gregg"
       inkscape:label="Gregg, TX"
       fill="#CCCCCC"
       stroke="#FFFFFF"
       stroke-width="0.9697"
       d="M554.091,422.643   l0.384-0.039l3.553-1.521l1.401-1.95l0.177-0.078l1.108,0.126l0.069,0.137l0.087,5.614l0.031,0.843l1.404,0.677l1.244,0.164   l0.235-0.088l-1.519,0.719l-3.915,0.039l-4.171,0.089L554.091,422.643"
       style="fill:#cc2f4a;fill-opacity:1" /><path
       id="TX_Smith"
       inkscape:label="Smith, TX"
       fill="#CCCCCC"
       stroke="#FFFFFF"
       stroke-width="0.9697"
       d="M539.758,418.535   l2.131,1.909l0.675,0.296l6.778,1.698l0.17-0.02l0.451-0.22l0.215-0.438l3.914,0.881l0.09,4.73l0.09,6.514l-11.256,0.161   l0.217-6.183l-0.531-0.404l-2.902-3.092L539.758,418.535"
       style="fill:#d40000;fill-opacity:1" /><path
       id="TX_Wood"
       inkscape:label="Wood, TX"
       fill="#CCCCCC"
       stroke="#FFFFFF"
       stroke-width="0.9697"
       d="M550.091,409.273   l0.027,3.128l0.059,9.361l-0.215,0.438l-0.451,0.22l-0.17,0.02l-6.778-1.698l-0.675-0.296l-2.131-1.909l-0.963-0.934l-0.725-6.762   l8.359-0.106L550.091,409.273"
       style="fill:#aa0000;fill-opacity:1" /><path
       id="TX_Harrison"
       inkscape:label="Harrison, TX"
       fill="#CCCCCC"
       stroke="#FFFFFF"
       stroke-width="0.9697"
       d="M560.725,415.363   l4.63,2.726l2.887-0.026l0.775-0.394l2.797-0.361l1.654-0.138l1.199,0.146l1.609,0.599l0.186,8.468l-7.172,1.861l-0.197-0.037   l-2.561-1.099l-0.677-0.6l-2.07,0.018l-0.235,0.088l-1.244-0.164l-1.404-0.677l-0.031-0.843l-0.087-5.614L560.725,415.363"
       style="fill:#d40000;fill-opacity:1" /><path
       id="TX_Upshur"
       inkscape:label="Upshur, TX"
       fill="#CCCCCC"
       stroke="#FFFFFF"
       stroke-width="0.9697"
       d="M550.119,412.401   l10.145-0.179l0.344,0.717l0.118,2.425l0.059,3.953l-0.069-0.137l-1.108-0.126l-0.177,0.078l-1.401,1.95l-3.553,1.521l-0.384,0.039   l-3.914-0.881L550.119,412.401"
       style="fill:#aa0000;fill-opacity:1" /><path
       id="TX_Camp"
       inkscape:label="Camp, TX"
       fill="#CCCCCC"
       stroke="#FFFFFF"
       stroke-width="0.9697"
       d="M550.091,409.273   l0.607-0.601l2-1.091l0.521-0.101l0.423-0.006l1.382,0.021l0.315,0.106l1.245,1.541l1.315,0.901l2.363,2.177l-10.145,0.179   L550.091,409.273"
       style="fill:#d40000;fill-opacity:1" /><path
       id="TX_Marion"
       inkscape:label="Marion, TX"
       fill="#CCCCCC"
       stroke="#FFFFFF"
       stroke-width="0.9697"
       d="M561.824,412.912   l14.355-0.296l0.098,5.299l-1.609-0.599l-1.199-0.146l-1.654,0.138l-2.797,0.361l-0.775,0.394l-2.887,0.026l-4.63-2.726   l-0.118-2.425L561.824,412.912"
       style="fill:#d40000;fill-opacity:1" /><path
       id="TX_Cass"
       inkscape:label="Cass, TX"
       fill="#CCCCCC"
       stroke="#FFFFFF"
       stroke-width="0.9697"
       d="M561.716,401.939   l0.059,0.27l0.195,0.157l0.786,0.154l8.802,0.05l0.049-0.08l-0.08-0.255l-0.067-0.588l0.374-0.666l0.734-0.255l0.578-0.13   l2.109,0.337l0.49,0.253l0.198,0.441l0.147,7.095l0.088,3.895l-14.355,0.296L561.716,401.939"
       style="fill:#d40000;fill-opacity:1" /><path
       id="TX_Morris"
       inkscape:label="Morris, TX"
       fill="#CCCCCC"
       stroke="#FFFFFF"
       stroke-width="0.9697"
       d="M558.015,399.311   l1.465,0.963l2.236,1.665l0.107,10.974l-1.217,0.026l-0.344-0.717l-2.363-2.177L558.015,399.311"
       style="fill:#cc2f4a;fill-opacity:1" /><path
       id="TX_Titus"
       inkscape:label="Titus, TX"
       fill="#CCCCCC"
       stroke="#FFFFFF"
       stroke-width="0.9697"
       d="M558.015,399.311   l-0.115,10.734l-1.315-0.901l-1.245-1.541l-0.315-0.106l-1.382-0.021l-0.423,0.006l-0.521,0.101l-2,1.091l-0.081-10.006   L558.015,399.311"
       style="fill:#cc2f4a;fill-opacity:1" /><path
       id="TX_Franklin"
       inkscape:label="Franklin, TX"
       fill="#CCCCCC"
       stroke="#FFFFFF"
       stroke-width="0.9697"
       d="M550.618,398.666   l0.081,10.006l-0.607,0.601l-3.662,1.461l-0.078-11.677l0.048-0.037L550.618,398.666"
       style="fill:#aa0000;fill-opacity:1" /><path
       id="TX_Hopkins"
       inkscape:label="Hopkins, TX"
       fill="#CCCCCC"
       stroke="#FFFFFF"
       stroke-width="0.9697"
       d="M533.449,403.552   l1.924-1.141l1.049-1.226l2.904-1.326l0.561-0.235l1.197-0.039l5.268-0.528l0.078,11.677l-8.359,0.106l-4.631-0.529   L533.449,403.552"
       style="fill:#d40000;fill-opacity:1" /><path
       id="TX_Delta"
       inkscape:label="Delta, TX"
       fill="#CCCCCC"
       stroke="#FFFFFF"
       stroke-width="0.9697"
       d="M533.538,396.723   l1.815-0.845l0.432-0.117l3.236,0.234l0.453,0.07l2.561,0.803l0.452,0.196l2.364,1.608l1.5,0.274l0.048,0.072l-0.048,0.037   l-5.268,0.528l-1.197,0.039l-0.561,0.235l-2.904,1.326l-1.049,1.226l-1.924,1.141l0.061-5.366L533.538,396.723"
       style="fill:#aa0000;fill-opacity:1" /><path
       id="TX_Hunt"
       inkscape:label="Hunt, TX"
       fill="#CCCCCC"
       stroke="#FFFFFF"
       stroke-width="0.9697"
       d="M533.509,398.186   l-0.061,5.366l-0.01,6.759l-1.678,4.013l-3.344-0.039l-5.184-0.101l0.014-3.942l0.076-10.438L533.509,398.186"
       style="fill:#d40000;fill-opacity:1" /><path
       id="TX_Collin"
       inkscape:label="Collin, TX"
       fill="#CCCCCC"
       stroke="#FFFFFF"
       stroke-width="0.9697"
       d="M510.754,398.223   l10.491,0.283l2.079,1.297l-0.076,10.438l-5.152-0.039l-7.693-0.205L510.754,398.223"
       style="fill:#e27f90;fill-opacity:1" /><path
       id="TX_Denton"
       inkscape:label="Denton, TX"
       fill="#CCCCCC"
       stroke="#FFFFFF"
       stroke-width="0.9697"
       d="M497.961,397.369   l10.244,0.521l2.549,0.333l-0.352,11.774l-4.396,0.037l-8.585-0.264L497.961,397.369"
       style="fill:#e27f90;fill-opacity:1" /><path
       id="TX_Wise"
       inkscape:label="Wise, TX"
       fill="#CCCCCC"
       stroke="#FFFFFF"
       stroke-width="0.9697"
       d="M485.489,397.056   l10.048,0.185l2.424,0.129l-0.54,12.401l-3.413-0.167l-8.85-0.353L485.489,397.056"
       style="fill:#aa0000;fill-opacity:1" /><path
       id="TX_Jack"
       inkscape:label="Jack, TX"
       fill="#CCCCCC"
       stroke="#FFFFFF"
       stroke-width="0.9697"
       d="M473.777,395.859   l10.311,0.235l1.401,0.962l-0.331,12.195l-3.15-0.127l-8.684-0.333l0.423-10.938L473.777,395.859"
       style="fill:#aa0000;fill-opacity:1" /><path
       id="TX_Young"
       inkscape:label="Young, TX"
       fill="#CCCCCC"
       stroke="#FFFFFF"
       stroke-width="0.9697"
       d="M461.305,397.458   l12.441,0.395l-0.423,10.938l-3.533,1.411l-8.799-0.322L461.305,397.458"
       style="fill:#aa0000;fill-opacity:1" /><path
       id="TX_Throckmorton"
       inkscape:label="Throckmorton, TX"
       fill="#CCCCCC"
       stroke="#FFFFFF"
       stroke-width="0.9697"
       d="   M449.216,397.008l12.089,0.45l-0.313,12.422l-3.404-0.117l-8.793-0.303L449.216,397.008"
       style="fill:#aa0000;fill-opacity:1" /><path
       id="TX_Haskell"
       inkscape:label="Haskell, TX"
       fill="#CCCCCC"
       stroke="#FFFFFF"
       stroke-width="0.9697"
       d="M437.129,396.585   l12.088,0.423l-0.422,12.452l-3.307-0.12l-8.83-0.441L437.129,396.585"
       style="fill:#d40000;fill-opacity:1" /><path
       id="TX_Stonewall"
       inkscape:label="Stonewall, TX"
       fill="#CCCCCC"
       stroke="#FFFFFF"
       stroke-width="0.9697"
       d="   M424.855,396.015l12.273,0.57l-0.471,12.313l-3.639-0.148l-8.782-0.49L424.855,396.015"
       style="fill:#d40000;fill-opacity:1" /><path
       id="TX_Dickens"
       inkscape:label="Dickens, TX"
       fill="#CCCCCC"
       stroke="#FFFFFF"
       stroke-width="0.9697"
       d="M413.307,383.134   l12.108,0.549l-0.56,12.332l-12.147-0.59L413.307,383.134"
       style="fill:#aa0000;fill-opacity:1" /><path
       id="TX_Motley"
       inkscape:label="Motley, TX"
       fill="#CCCCCC"
       stroke="#FFFFFF"
       stroke-width="0.9697"
       d="M414.012,369.633   l2.199,0.106l9.881,0.458l-0.677,13.485l-12.108-0.549L414.012,369.633"
       style="fill:#800000;fill-opacity:1" /><path
       id="TX_Hall"
       inkscape:label="Hall, TX"
       fill="#CCCCCC"
       stroke="#FFFFFF"
       stroke-width="0.9697"
       d="M426.131,357.937   l2.865,0.146l-0.618,12.236l-2.286-0.121l-9.881-0.458l0.668-12.273L426.131,357.937"
       style="fill:#aa0000;fill-opacity:1" /><path
       id="TX_Donley"
       inkscape:label="Donley, TX"
       fill="#CCCCCC"
       stroke="#FFFFFF"
       stroke-width="0.9697"
       d="M426.758,345.653   l-0.627,12.284l-9.252-0.471l-3.337-0.178l0.755-12.232L426.758,345.653"
       style="fill:#aa0000;fill-opacity:1" /><path
       id="TX_Gray"
       inkscape:label="Gray, TX"
       fill="#CCCCCC"
       stroke="#FFFFFF"
       stroke-width="0.9697"
       d="M414.963,332.721   l12.354,0.619l-0.559,12.313l-12.461-0.597L414.963,332.721"
       style="fill:#aa0000;fill-opacity:1" /><path
       id="TX_Roberts"
       inkscape:label="Roberts, TX"
       fill="#CCCCCC"
       stroke="#FFFFFF"
       stroke-width="0.9697"
       d="M415.632,320.406   v-0.067l12.136,0.646l0.148,0.009l-0.599,12.346l-12.354-0.619l0.011-0.176L415.632,320.406"
       style="fill:#800000;fill-opacity:1" /><path
       id="TX_Ochiltree"
       inkscape:label="Ochiltree, TX"
       fill="#CCCCCC"
       stroke="#FFFFFF"
       stroke-width="0.9697"
       d="   M419.243,308.016l9.134,0.459l-0.61,12.511l-12.136-0.646l0.677-12.47L419.243,308.016"
       style="fill:#aa0000;fill-opacity:1" /><path
       id="TX_Lipscomb"
       inkscape:label="Lipscomb, TX"
       fill="#CCCCCC"
       stroke="#FFFFFF"
       stroke-width="0.9697"
       d="M428.378,308.475   l12.147,0.542l-0.462,12.55l-12.147-0.572l-0.148-0.009L428.378,308.475"
       style="fill:#aa0000;fill-opacity:1" /><path
       id="TX_Hemphill"
       inkscape:label="Hemphill, TX"
       fill="#CCCCCC"
       stroke="#FFFFFF"
       stroke-width="0.9697"
       d="M440.063,321.567   l-0.207,4.934l-0.302,7.398l-12.237-0.559l0.599-12.346L440.063,321.567"
       style="fill:#aa0000;fill-opacity:1" /><path
       id="TX_Wheeler"
       inkscape:label="Wheeler, TX"
       fill="#CCCCCC"
       stroke="#FFFFFF"
       stroke-width="0.9697"
       d="M427.317,333.34   l12.237,0.559l-0.521,12.324l-12.275-0.57L427.317,333.34"
       style="fill:#800000;fill-opacity:1" /><path
       id="TX_Collingsworth"
       inkscape:label="Collingsworth, TX"
       fill="#CCCCCC"
       stroke="#FFFFFF"
       stroke-width="0.9697"
       d="   M426.758,345.653l12.275,0.57l-0.187,4.297l-0.333,8.016l-9.518-0.453l-2.865-0.146L426.758,345.653"
       style="fill:#aa0000;fill-opacity:1" /><path
       id="TX_Childress"
       inkscape:label="Childress, TX"
       fill="#CCCCCC"
       stroke="#FFFFFF"
       stroke-width="0.9697"
       d="   M428.996,358.082l9.518,0.453l-0.156,5.22l-0.306,7.045l-9.674-0.481L428.996,358.082"
       style="fill:#aa0000;fill-opacity:1" /><path
       id="TX_Cottle"
       inkscape:label="Cottle, TX"
       fill="#CCCCCC"
       stroke="#FFFFFF"
       stroke-width="0.9697"
       d="M426.091,370.197   l2.286,0.121l9.674,0.481l-0.098,2.464l-0.257-0.503l-0.646,0.062l-0.227,0.246l-0.51,11.094l-10.899-0.479L426.091,370.197"
       style="fill:#aa0000;fill-opacity:1" /><path
       id="TX_King"
       inkscape:label="King, TX"
       fill="#CCCCCC"
       stroke="#FFFFFF"
       stroke-width="0.9697"
       d="M425.415,383.683   l10.899,0.479l1.209,0.061l-0.395,12.362l-12.273-0.57L425.415,383.683"
       style="fill:#800000;fill-opacity:1" /><path
       id="TX_Knox"
       inkscape:label="Knox, TX"
       fill="#CCCCCC"
       stroke="#FFFFFF"
       stroke-width="0.9697"
       d="M449.511,387.577   l-0.295,9.431l-12.088-0.423l0.395-12.362l3.727,0.157l3.131,0.606l3.561,0.786l1.178,0.834l0.334,0.607L449.511,387.577"
       style="fill:#d40000;fill-opacity:1" /><path
       id="TX_Foard"
       inkscape:label="Foard, TX"
       fill="#CCCCCC"
       stroke="#FFFFFF"
       stroke-width="0.9697"
       d="M437.954,373.264   l4.199,3.246l5.965,1.925l1.384-0.229l0.264-0.274l0.09-0.274l-0.266,7.086l-0.078,2.834l-0.059-0.363l-0.334-0.607l-1.178-0.834   l-3.561-0.786l-3.131-0.606l-3.727-0.157l-1.209-0.061l0.51-11.094l0.227-0.246l0.646-0.062L437.954,373.264"
       style="fill:#d40000;fill-opacity:1" /><path
       id="TX_Hardeman"
       inkscape:label="Hardeman, TX"
       fill="#CCCCCC"
       stroke="#FFFFFF"
       stroke-width="0.9697"
       d="M441.72,365.432   l1.197,1.552l0.578,0.686l1.609,1.531l0.707,0.167h0.196l0.892-0.009l0.896-1.13l0.126-0.048l0.255,0.037l1.1,0.129l0.353,0.147   l0.57,0.333l-0.344,8.83l-0.09,0.274l-0.264,0.274l-1.384,0.229l-5.965-1.925l-4.199-3.246l0.098-2.464l0.306-7.045L441.72,365.432   "
       style="fill:#d40000;fill-opacity:1" /><path
       id="TX_Archer"
       inkscape:label="Archer, TX"
       fill="#CCCCCC"
       stroke="#FFFFFF"
       stroke-width="0.9697"
       d="M461.709,385.154   l12.281,0.294l-0.213,10.41l-0.03,1.994l-12.441-0.395L461.709,385.154"
       style="fill:#aa0000;fill-opacity:1" /><path
       id="TX_Baylor"
       inkscape:label="Baylor, TX"
       fill="#CCCCCC"
       stroke="#FFFFFF"
       stroke-width="0.9697"
       d="M461.709,385.154   l-0.403,12.304l-12.089-0.45l0.295-9.431l0.078-2.834L461.709,385.154"
       style="fill:#aa0000;fill-opacity:1" /><path
       id="TX_Wilbarger"
       inkscape:label="Wilbarger, TX"
       fill="#CCCCCC"
       stroke="#FFFFFF"
       stroke-width="0.9697"
       d="   M456.203,370.779l-0.028,0.648l-0.02,0.609l0.4,2.177v0.009l0.011,0.014l0.294,0.087l0.47,0.146l0.865,0.196l0.431-0.02   l0.932-0.018l2.129,0.167h0.03l0.324,0.164l-0.332,10.196l-12.119-0.411l0.266-7.086l0.344-8.83l0.756,0.717l0.774,0.067   l0.177-0.076h0.02l0.03-0.05l0.009-0.022l0.99-1.773l1.01,0.548l1.15,0.618l1.088,1.895V370.779"
       style="fill:#d40000;fill-opacity:1" /><path
       id="TX_Wichita"
       inkscape:label="Wichita, TX"
       fill="#CCCCCC"
       stroke="#FFFFFF"
       stroke-width="0.9697"
       d="M469.92,376.166   l0.234,0.018l0.512,0.337l0.529,0.451l1.098,1.766l0.659,0.237l0.009,0.008l0.02-0.02l1.236-1.11l-0.227,7.596l-12.281-0.294   l0.332-10.196l2.139,1.277l2.129,0.521l1.511,0.057L469.92,376.166"
       style="fill:#d40000;fill-opacity:1" /><path
       id="TX_Clay"
       inkscape:label="Clay, TX"
       fill="#CCCCCC"
       stroke="#FFFFFF"
       stroke-width="0.9697"
       d="M481.476,380.052   l0.403,0.806l0.059,0.059l0.04,0.009l0.98,0.294h0.502l0.027-0.009l0.806-0.196l0.864,0.342l0.009,0.011l-0.207,1.5l-0.599,1.296   l-0.273,11.932l-10.311-0.235l0.213-10.41l0.227-7.596l0.932-1.178l0.451-0.254l0.884,0.198l3.592,1.127L481.476,380.052"
       style="fill:#aa0000;fill-opacity:1" /><path
       id="TX_Montague"
       inkscape:label="Montague, TX"
       fill="#CCCCCC"
       stroke="#FFFFFF"
       stroke-width="0.9697"
       d="M495.822,383.644   l-0.285,13.597l-10.048-0.185l-1.401-0.962l0.273-11.932l0.258,0.237l2.048,0.934l0.276,0.026l0.725-0.216l1.158-0.912l1.217-1.265   l0.795-1.002l2.364,1.579l0.833,0.581L495.822,383.644"
       style="fill:#aa0000;fill-opacity:1" /><path
       id="TX_Cooke"
       inkscape:label="Cooke, TX"
       fill="#CCCCCC"
       stroke="#FFFFFF"
       stroke-width="0.9697"
       d="M508.332,382.866   l-0.127,15.023l-10.244-0.521l-2.424-0.129l0.285-13.597l0.46,2.099l0.062,0.146l0.02,0.051v0.011l0.137,0.165l0.205,0.138   l6.762,2.954l0.324,0.108l0.371,0.048l0.334-0.106l0.234-0.188l0.109-0.146L508.332,382.866"
       style="fill:#aa0000;fill-opacity:1" /><path
       id="TX_Fannin"
       inkscape:label="Fannin, TX"
       fill="#CCCCCC"
       stroke="#FFFFFF"
       stroke-width="0.9697"
       d="M533.851,386.028   l-0.313,10.695l-0.028,1.463l-10.186,1.617l-2.079-1.297l0.157-9.3l0.224,0.307l3.464-0.855l0.48-0.129l0.422-0.181l0.029-0.034   l0.217-0.227l0.029-0.037l0.01-0.02l0.06-0.188l0.067-0.216l0.02-0.078l0.012-0.069l0.145-0.677l0.196-0.688l1.178-0.271   l2.61-0.218l0.5-0.037l0.316-0.033l1.344,0.266L533.851,386.028"
       style="fill:#d40000;fill-opacity:1" /><path
       id="TX_Grayson"
       inkscape:label="Grayson, TX"
       fill="#CCCCCC"
       stroke="#FFFFFF"
       stroke-width="0.9697"
       d="M508.558,382.74   l1.178,2.421l0.381,0.427l0.234,0.163l2.189,0.67l1.129-0.188l0.02-0.009l2.324-1.05l-0.078,0.451l0.02,0.346l0.02,0.135   l0.02,0.067l2.384,1.601l0.216,0.147h0.03l1.188-0.226l0.274,0.03l0.305,0.098v0.009l1.011,1.374l-0.157,9.3l-10.491-0.283   l-2.549-0.333l0.127-15.023L508.558,382.74"
       style="fill:#d40000;fill-opacity:1" /><path
       id="TX_Lamar"
       inkscape:label="Lamar, TX"
       fill="#CCCCCC"
       stroke="#FFFFFF"
       stroke-width="0.9697"
       d="M546.205,385.105   l0.146,13.843l-1.5-0.274l-2.364-1.608l-0.452-0.196l-2.561-0.803l-0.453-0.07l-3.236-0.234l-0.432,0.117l-1.815,0.845   l0.313-10.695l1.992-0.747l0.008-0.009l1.945-1.012l1.697-0.882l0.754,0.039l0.176,0.07l0.246,0.627l-0.007,0.187l-0.069,0.198   l0.006,0.144v0.02l0.092,0.157l0.087,0.078l2.297,0.305l0.87,0.069l1.572-0.078h0.011L546.205,385.105"
       style="fill:#d40000;fill-opacity:1" /><path
       id="TX_Arkansas"
       inkscape:label="Arkansas, TX"
       fill="#CCCCCC"
       stroke="#FFFFFF"
       stroke-width="0.9697"
       d="M498.822,547.642   l0.484,0.395l0.078,0.011l2.227-1.08l3.15-2.375l0.154-0.422l-0.518-0.018l-0.541-0.079l-0.953-0.57l-0.557-0.746l-0.039-0.57   l8.261-1.204l-0.206,1.293l0.293,0.473v0.156l-0.333,0.726l-0.245,0.187l-3.129,2.571l-0.697,0.009l-2.17,2.809l-2.186,3.315   L498.822,547.642 M509.558,546.751l-0.609,1.411l-4.846,6.202l-0.128-0.355L509.558,546.751"
       style="fill:#d40000;fill-opacity:1" /><path
       id="TX_Cameron"
       inkscape:label="Cameron, TX"
       fill="#CCCCCC"
       stroke="#FFFFFF"
       stroke-width="0.9697"
       d="M482.91,595.453   l8.477,1.502l2.738-1.824l0.99-1.229l0.12,0.061l1.175,1.648l-0.066,2.355l0.881,4.375l1.883,3.133l0.062,0.067l-0.296,0.96   l-4.639,2.78l-2.258-0.69l-0.355-0.216l-0.35-0.271l-1.455-1.149l-2.137-2.384l-0.09-0.315l-2.904-0.508l-1.933-0.335   L482.91,595.453 M498.716,593.953h0.43l0.697,2.924l0.218,1.1l0.294,2.07l0.441,3.493l-0.117-0.021l-0.07-0.009l-0.204-0.285   l-0.226-1.892l0.027-0.864l-0.117-1.032l-0.246-1.587l-0.49-2.285l-0.293-0.893L498.716,593.953"
       style="fill:#4389e3;fill-opacity:1" /></g></svg>