<?xml version="1.0" encoding="utf-8"?>
<!-- Generator: Adobe Illustrator 16.0.0, SVG Export Plug-In . SVG Version: 6.00 Build 0)  -->
<!DOCTYPE svg PUBLIC "-//W3C//DTD SVG 1.1//EN" "http://www.w3.org/Graphics/SVG/1.1/DTD/svg11.dtd">
<svg version="1.1"
	 id="svg8851" xmlns:svg="http://www.w3.org/2000/svg" xmlns:rdf="http://www.w3.org/1999/02/22-rdf-syntax-ns#" xmlns:cc="http://creativecommons.org/ns#" xmlns:sodipodi="http://sodipodi.sourceforge.net/DTD/sodipodi-0.dtd" xmlns:dc="http://purl.org/dc/elements/1.1/" xmlns:inkscape="http://www.inkscape.org/namespaces/inkscape" inkscape:version="0.48.3.1 r9886" sodipodi:docname="Utah_Presidential_Election_Results_by_County,_2008.svg" sodipodi:version="0.32" inkscape:output_extension="org.inkscape.output.svg.inkscape"
	 xmlns="http://www.w3.org/2000/svg" xmlns:xlink="http://www.w3.org/1999/xlink" x="0px" y="0px" width="274.662px"
	 height="351.773px" viewBox="0 0 274.662 351.773" enable-background="new 0 0 274.662 351.773" xml:space="preserve">
<defs>
	
	
		<inkscape:perspective  id="perspective8859" inkscape:persp3d-origin="372.04724 : 350.78739 : 1" sodipodi:type="inkscape:persp3d" inkscape:vp_y="0 : 1000 : 0" inkscape:vp_x="0 : 526.18109 : 1" inkscape:vp_z="744.09448 : 526.18109 : 1">
		</inkscape:perspective>
</defs>
<sodipodi:namedview  bordercolor="#666666" pagecolor="#ffffff" objecttolerance="10" borderopacity="1.0" guidetolerance="10" showguides="true" inkscape:cx="151.25739" showgrid="false" inkscape:cy="161.13068" inkscape:zoom="1" gridtolerance="10000" id="base" inkscape:window-width="1024" inkscape:window-y="-4" inkscape:current-layer="layer1" inkscape:pageopacity="0.0" inkscape:window-height="721" inkscape:window-maximized="0" inkscape:pageshadow="2" inkscape:window-x="-4" inkscape:document-units="px" inkscape:guide-bbox="true">
	</sodipodi:namedview>
<g>
	<path id="UT_San_Juan_1_" fill="#E27F90" stroke="#FFFFFF" stroke-width="1.0997" d="M257.582,239.103l0.953,21.708l0.072,16.993
		l0.058,24.786l0.039,30.402l-47.509-0.289l-16.417-0.25l-8.157-0.479l-12.699-0.189l-32.926-0.673l1.507-0.07l3.596-0.399
		l16.066-5.882l1.565-0.782l3.022-3.427l8.236-10.204l0.642-1.406l3.902-10.685l9.194-14.3l9.123-6.675l7.586-7.819l5.384-6.06
		l0.255-0.213l4.113-2.615l1.201-1.649l0.051-3.162l-0.438-2.588l-4.326-13.183l-0.077-0.208l-1.052-1.035L257.582,239.103"/>
	<path id="UT_Garfield_1_" fill="#CC2F4A" stroke="#FFFFFF" stroke-width="1.0997" d="M90.364,257.783l1.714-0.096l18.736,0.714
		l1.201,0.188l2.414,0.16l1.744,0.022l5.312-0.134l20.965,0.681l13.965,0.225l58.782,1.037l-4.116,2.613l-0.257,0.215l-5.381,6.061
		l-7.586,7.817l-9.124,6.676l-9.191,14.301l-58.929-1.415l-0.219,0.181l-0.41,0.076l-25.045-0.922l-6.795-0.642l-9.071-0.385
		l0.123-11.594l0.146-4.825l5.602-4.561l3.838-0.363l1.596,0.043l0.234-5.432L90.364,257.783"/>
	<path id="UT_Morgan_1_" fill="#CC2F4A" stroke="#FFFFFF" stroke-width="1.0997" d="M146.336,58.56l4.315,0.833l4.688,8.843
		l-0.123,1.157l-0.336,0.916l-0.455,0.783l-1.063,1.217l-4.958,1.523l-7.326,3.652l-0.811,0.661l-0.698,0.843l-1.823,2.366
		l-0.037,0.401l0.237,1.291l0.188,0.296l0.294,0.18l2.331,2.229l1.868,3.254l0.284,0.91l-1.995,4.123l-0.628,0.389l-0.762,0.255
		l-0.422-0.01l-3.895-1.268l-4.513-4.018l-5.113-17.534l-0.849-2.06l0.165-1.002l0.954-0.582l2.517-1.12l1.127-0.017l1.291,0.225
		l0.448,0.832l0.96,0.972l1.474,0.419l1.331-0.293l7.408-2.439l1.423-1.445l1.243-1.675l0.323-0.964L146.336,58.56"/>
	<path id="UT_Davis_1_" fill="#F2B3BE" stroke="#FFFFFF" stroke-width="1.0997" d="M125.585,71.843l5.11,17.534l-0.709,0.447
		l-1.228,0.537l-4.301,1.281l-2.181-0.078l-1.175-0.057l-0.703-5.149l0.042-1.099l-2.267-0.074l-6.565,4.29l-5.798,4.558
		L95.579,74.703l11.505-3.458l2.899-0.771l7.4,0.276L125.585,71.843"/>
	<path id="UT_Weber_1_" fill="#F2B3BE" stroke="#FFFFFF" stroke-width="1.0997" d="M142.202,54.601l4.134,3.962l-0.932,4.129
		l-0.325,0.965l-1.24,1.676l-1.426,1.445l-7.406,2.438l-1.331,0.292l-1.474-0.417l-0.96-0.972l-0.447-0.831l-1.293-0.225
		l-1.126,0.017l-2.518,1.12l-0.953,0.581l-0.161,1.001l0.845,2.061l-8.198-1.09l-7.401-0.276l-2.899,0.771l-11.505,3.457
		l12.474-15.786l9.798,0.341l3.145-1.675l3.688-3.714l0.459,1.363l0.307,0.393l4.838,1.978l0.771-0.007L142.202,54.601"/>
	<path id="UT_Rich_1_" fill="#D40000" stroke="#FFFFFF" stroke-width="1.0997" d="M164.502,19.018l-0.782,46.835l-10.362,6.457
		l1.061-1.217l0.457-0.782l0.334-0.917l0.125-1.157l-4.687-8.842l-4.318-0.833l-4.134-3.961l3.803-8.041l1.599-6.246l-0.024-0.297
		l-2.849-16.901l-1.574-4.506L164.502,19.018"/>
	<path id="UT_Cache_1_" fill="#F2B3BE" stroke="#FFFFFF" stroke-width="1.0997" d="M112.684,17.851l2.537,0.057l27.933,0.703
		l1.575,4.506l2.849,16.9l0.021,0.3l-1.597,6.243l-3.8,8.041l-11.148,3.001l-0.771,0.007l-4.839-1.978l-0.301-0.394l-0.466-1.363
		l-0.797-4.429l-0.358-2.072l-1.036-1.349l-0.22-0.15l-2.36-0.12l-1.578-8.063l0.084-5.382l0.189-2.522l-0.963-3.49l-1.465-2.489
		l-1.648-1.618L112.684,17.851"/>
	<path id="UT_Box_Elder_1_" fill="#CC2F4A" stroke="#FFFFFF" stroke-width="1.0997" d="M25.645,14.156l3.124,0.346l3.747,0.369
		l0.552,0.028l3.957,0.151l1.467,0.04l15.438,0.514l1.355,0.037l18.611,0.599l13.53,0.436l11.972,0.427l9.825,0.349l0.022-0.003
		l3.438,0.403l1.841,4.338l1.649,1.618l1.465,2.489l0.962,3.489l-0.19,2.521l-0.082,5.382l1.577,8.063l2.361,0.121l0.22,0.15
		l1.036,1.35l0.358,2.069l0.797,4.431l-3.688,3.714l-3.143,1.675l-9.801-0.341L95.574,74.706L81.03,78.913l-58.429-2.774
		L25.645,14.156"/>
	<path id="UT_Daggett_1_" fill="#D40000" stroke="#FFFFFF" stroke-width="1.0997" d="M257.391,82.723l0.156,21.69l-3.543-0.028
		l-1.799-1.883l-0.009-4.091l-0.111-2.292l-1.883-4.539l-9.029-0.02l-6.121,2.012l-14.625,3.44l-1.581,0.252l-5.171-2.913
		l-1.076-0.273l0.049-11.465l0.048-0.007l6.787,0.058l6.596,0.022l1.845,0.018l22.049-0.053L257.391,82.723"/>
	<path id="UT_Salt_Lake_1_" fill="#B9D7FF" stroke="#FFFFFF" stroke-width="1.0997" d="M105.812,94.041l5.798-4.559l6.564-4.29
		l2.269,0.074l-0.048,1.099l0.703,5.15l1.18,0.057l2.178,0.077l4.304-1.282l1.225-0.537l0.712-0.447l4.512,4.015l3.886,11.981
		l-1.969,1.962l-4.388,2.727l-12.52,6.271l-1.743,0.624l-6.039-1.873l-2.92-1.735L105.812,94.041"/>
	<path id="UT_Summit_1_" fill="#86B6F2" stroke="#FFFFFF" stroke-width="1.0997" d="M163.72,65.853l-0.283,15.855l25.677,0.728
		l21.292,0.153l2.237,0.03l-0.046,11.464l-7.878-0.038l-8.845,0.621l-23.394,4.29l-2.525,2.883l-2.961,4.499l-0.623,0.691
		l-2.054,0.647l-6.969,1.469l-3.853-1.521l-5.354-3.286l-9.049,1.042l-3.886-11.98l3.896,1.269l0.424,0.009l0.755-0.254l0.633-0.389
		l1.994-4.124l-0.283-0.91l-1.866-3.255l-2.333-2.229l-0.292-0.18l-0.195-0.296l-0.233-1.291l0.038-0.404l1.82-2.364l0.696-0.844
		l0.817-0.662l7.322-3.652l4.959-1.523L163.72,65.853"/>
	<path id="UT_Wasatch_1_" fill="#E27F90" stroke="#FFFFFF" stroke-width="1.0997" d="M139.097,105.374l9.047-1.042l5.354,3.286
		l3.851,1.521l6.975-1.47l2.05-0.646l0.626-0.691l2.961-4.499l-0.302,15.436l0.196,21.797l-0.17,11.453l-9.143-0.231l-7.211-8.804
		l-0.396-0.602l-0.141-0.503l1.368-4.456l-1.906-7.28l-0.683-1.048l-1.391-1.672l-0.213-0.124l-5.807-2.239l-5.581-2.343
		l-1.602-4.541l-0.057-2.535l0.195-6.805L139.097,105.374"/>
	<path id="UT_Utah_1_" fill="#E27F90" stroke="#FFFFFF" stroke-width="1.0997" d="M137.122,107.337l-0.191,6.804l0.056,2.536
		l1.603,4.541l5.581,2.343l5.806,2.239l0.213,0.124l1.388,1.672l0.686,1.048l1.906,7.279l-1.366,4.458l0.139,0.501l0.396,0.602
		l7.21,8.805l9.144,0.229l1.535,5.433l-18.636-0.432l-18.864-0.509l-5.21-0.088l0.402-2.433l-0.11-1.117l-1.915-3.632l-0.29-0.313
		l-1.201-0.796l-4.333,2.907l-2.643,4.078l-0.023,0.753l-0.34,0.537l-2.718,1.421l-1.226,0.384l-1.318-0.222l-0.556-0.202
		l0.732-4.438l0.271-1.04l0.651-1.009l0.29-0.438l-2.837-5.094l-2.053-2.155l-0.933-0.329l1.152-4.778l0.667-6.252l-1.391-3.817
		l-0.696-3.612l-0.566-9.148l0.095-0.43l1.076-0.536l0.816,0.139l2.922,1.734l6.04,1.875l1.743-0.626l12.52-6.27L137.122,107.337"/>
	<path id="UT_Tooele_1_" fill="#E27F90" stroke="#FFFFFF" stroke-width="1.0997" d="M22.604,76.138l58.433,2.775l14.543-4.208
		l10.231,19.333l3.705,19.313l-0.818-0.14l-1.074,0.536l-0.097,0.43l0.569,9.148l0.696,3.612l1.39,3.824l-0.672,6.245l-1.151,4.778
		l-2.824,3.115l-1.152,1.045l-3.961,2.268l-18.183-0.665l-63.191-3.138l0.665-13.171L22.604,76.138"/>
	<path id="UT_Juab_1_" fill="#CC2F4A" stroke="#FFFFFF" stroke-width="1.0997" d="M108.363,141.786l0.933,0.329l2.05,2.156
		l2.838,5.094l-0.284,0.437l-0.651,1.009l-0.274,1.042l-0.731,4.437l0.556,0.202l1.317,0.221l1.224-0.384l2.721-1.42l0.34-0.539
		l0.021-0.753l2.644-4.077l4.334-2.908l1.199,0.797l0.294,0.312l1.911,3.632l0.111,1.117l-0.403,2.433l5.209,0.088l-0.136,4.603
		l-3.7,2.71l0.037,9.148l-0.138,5.514l-1.743,4.781l-8.425-0.188l-4.57,2.656l-0.044,1.384l-2.719-0.119l-5.904-1.111l0.307-3.09
		l0.328-6.746l-0.129-2.918l-0.191-0.583l-0.907-0.742l-10.371-0.353l-3.279-0.042L29.07,167.06l-11.163,0.016l1.139-22.671
		l63.192,3.138l18.181,0.665l3.963-2.269l1.152-1.047L108.363,141.786"/>
	<path id="UT_Millard_1_" fill="#D40000" stroke="#FFFFFF" stroke-width="1.0997" d="M17.909,167.083l11.167-0.014l63.065,2.852
		l3.276,0.043l10.371,0.352l0.905,0.74l0.193,0.583l0.132,2.92l-0.328,6.745l-0.307,3.092l5.903,1.109l2.714,0.121l-0.384,16.831
		l-10.429,17.236l-6.813,4.787l-0.818-0.038l-3.6,0.03l-0.931,0.427l-0.914,1.793l-1.658,4.467l-13.988-0.567v-0.132l-5.67-0.356
		l-54.979-2.431l0.346-6.53L17.909,167.083"/>
	<path id="UT_Sevier_1_" fill="#D40000" stroke="#FFFFFF" stroke-width="1.0997" d="M149.149,204.287l-0.02,5.098l-0.411,17.407
		l-0.38-0.016l-0.134,10.138l-22.451-0.108l-14.396-0.474l0.014-0.524l-3.082-0.202l-19.116-0.548l0.283-3.901l1.657-4.469
		l0.914-1.794l0.929-0.425l3.603-0.034l0.82,0.043l6.811-4.787l10.426-17.237l7.934,0.242l0.755,0.799L149.149,204.287"/>
	<path id="UT_Sanpete_1_" fill="#CC2F4A" stroke="#FFFFFF" stroke-width="1.0997" d="M152.589,155.519l-0.399,21.638l-2.601-0.063
		l-0.439,27.196l-25.845-0.79l-0.755-0.802l-7.933-0.242l0.388-16.833l0.047-1.386l4.57-2.653l8.425,0.185l1.742-4.779l0.138-5.513
		l-0.037-9.149l3.701-2.708l0.134-4.604L152.589,155.519"/>
	<path id="UT_Carbon_1_" fill="#CC2F4A" stroke="#FFFFFF" stroke-width="1.0997" d="M152.589,155.519l18.636,0.432l15.313,0.387
		l0.638,0.115l0.292,0.216l26.354,0.444l3.962,0.057l0.424,0.79l0.084,0.434l-0.191,0.197l-0.204-0.012l-2.724,2.096l-1.864,2.112
		l-2.511,7.125l-0.415,2.04l0.097,2.808l0.51,3.397l-50.633-0.95l-1.321-4.265l-5.472-9.906l-0.589-0.555l-0.512-0.179
		L152.589,155.519"/>
	<path id="UT_Duchesne_1_" fill="#D40000" stroke="#FFFFFF" stroke-width="1.0997" d="M212.599,94.08l1.076,0.273l-0.134,38.11
		l0.063,10.766l0.211,13.887l-26.354-0.445l-0.294-0.217l-0.635-0.114l-15.313-0.387l-1.535-5.433l0.17-11.453l-0.196-21.797
		l0.302-15.436l2.523-2.882l23.391-4.29l8.847-0.621L212.599,94.08"/>
	<path id="UT_Uintah_1_" fill="#D40000" stroke="#FFFFFF" stroke-width="1.0997" d="M213.675,94.353l5.171,2.913l1.581-0.252
		l14.625-3.44l6.121-2.012l9.029,0.02l1.883,4.539l0.111,2.292l0.009,4.091l1.799,1.883l3.543,0.028l0.007,26.937l0.129,35.161
		l0.049,10.183l-2.664,2.219l-44.083-0.302l-0.002-0.455l-0.51-3.397l-0.097-2.813l0.415-2.031l2.509-7.124l1.867-2.113l2.726-2.096
		l0.202,0.012l0.19-0.197l-0.086-0.435l-0.421-0.789l-3.963-0.056l-0.211-13.887l-0.063-10.766L213.675,94.353"/>
	<path id="UT_Grand_1_" fill="#F2B3BE" stroke="#FFFFFF" stroke-width="1.0997" d="M257.733,176.691l0.079,23.322l-0.042,11.377
		l-0.006,2.411l-0.237,11.556l0.055,13.745l-47.032-0.348l1.522-1.56l0.325-2.353l-0.416-2.895l-0.195-0.542l-1.226,0.534
		l-1.273,0.223l-0.408-0.062l-0.214-0.143l-0.182-0.308l-2.12-7.225l-1.658-12.286l0.2-7.546l1.524-6.925l0.542-1.585l0.174-0.325
		l1.975-4.87l2.022-6.071l0.308-2.764l-0.468-3.442l44.08,0.302L257.733,176.691"/>
	<path id="UT_Emery_1_" fill="#D40000" stroke="#FFFFFF" stroke-width="1.0997" d="M152.461,162.3l0.512,0.179l0.589,0.555
		l5.474,9.905l1.319,4.264l50.633,0.95v0.452l0.468,3.443l-0.308,2.766l-2.023,6.068l-1.972,4.873l-0.176,0.322l-0.543,1.586
		l-1.523,6.925l-0.2,7.545l1.66,12.286l2.119,7.225l0.181,0.309l0.213,0.142l0.408,0.063l1.276-0.222l1.224-0.537l0.195,0.544
		l0.415,2.894l-0.325,2.353l-1.521,1.56l-62.363-1.198l0.014-0.64l0.134-10.136l0.378,0.015l0.413-17.406l0.02-5.098l0.437-27.199
		l2.604,0.066L152.461,162.3"/>
	<path id="UT_Wayne_1_" fill="#CC2F4A" stroke="#FFFFFF" stroke-width="1.0997" d="M125.752,236.806l22.451,0.108l-0.014,0.64
		l62.365,1.196l1.05,1.037l0.072,0.211l4.331,13.18l0.435,2.589l-0.053,3.161l-1.199,1.651l-58.78-1.035l-13.962-0.229l-20.966-0.68
		l0.137-5.172l0.01-11.961l1.277-1.982L125.752,236.806"/>
	<path id="UT_Piute_1_" fill="#AA0000" stroke="#FFFFFF" stroke-width="1.0997" d="M89.172,235.058l19.118,0.548l3.079,0.202
		l-0.013,0.524l14.396,0.474l-2.845,2.707l-1.278,1.987l-0.004,11.959l-0.141,5.174l-5.313,0.134l-1.744-0.023l-2.412-0.157
		l-1.201-0.191l-18.736-0.714l3.404-6.313l1.473-1.861l0.777-3.059l-0.138-0.521l-2.847-4.249l-2.526-1.435l-2.848-2.616
		l-0.127-0.533L89.172,235.058"/>
	<path id="UT_Beaver_1_" fill="#D40000" stroke="#FFFFFF" stroke-width="1.0997" d="M14.817,227.669l54.979,2.436l5.671,0.353v0.134
		l13.988,0.567l-0.282,3.901l0.071,2.04l0.126,0.535l2.85,2.615l2.527,1.435l2.846,4.25l0.135,0.521l-0.775,3.056l-1.473,1.861
		l-3.404,6.315l-1.713,0.096l-76.814-3.61L14.817,227.669"/>
	<path id="UT_Iron_1_" fill="#CC2F4A" stroke="#FFFFFF" stroke-width="1.0997" d="M13.553,254.173l76.812,3.61l0.247,10.637
		l-0.235,5.431l-1.595-0.04l-3.837,0.361l-5.604,4.563l-0.146,4.823l-0.121,11.595l-10.841,2.28l-6.708-0.219l-1.836,0.925
		l-3.615,0.36l-5.28-0.743l-10.702-4.813l-5.458-3.634l-22.873-1.188L13.553,254.173"/>
	<path id="UT_Washington_1_" fill="#CC2F4A" stroke="#FFFFFF" stroke-width="1.0997" d="M11.756,288.122l22.871,1.189l5.462,3.632
		l10.701,4.813l5.281,0.743l3.617-0.36l1.831-0.923l6.708,0.217l-1.061,31.202L10,325.861L11.756,288.122"/>
	<path id="UT_Kane_1_" fill="#CC2F4A" stroke="#FFFFFF" stroke-width="1.0997" d="M68.233,297.435l10.84-2.279l9.069,0.384
		l6.797,0.643l25.045,0.92l0.41-0.074l0.218-0.181l58.93,1.413l-3.902,10.684l-0.644,1.406l-8.236,10.202l-3.022,3.429l-1.563,0.778
		l-16.071,5.888l-3.593,0.396l-1.509,0.072l-55.989-1.766l-17.838-0.71L68.233,297.435"/>
</g>
</svg>
