<?xml version="1.0" encoding="utf-8"?>
<!-- Generator: Adobe Illustrator 16.0.0, SVG Export Plug-In . SVG Version: 6.00 Build 0)  -->
<!DOCTYPE svg PUBLIC "-//W3C//DTD SVG 1.1//EN" "http://www.w3.org/Graphics/SVG/1.1/DTD/svg11.dtd">
<svg version="1.1"
	 id="svg8974" xmlns:svg="http://www.w3.org/2000/svg" xmlns:rdf="http://www.w3.org/1999/02/22-rdf-syntax-ns#" xmlns:cc="http://creativecommons.org/ns#" xmlns:sodipodi="http://sodipodi.sourceforge.net/DTD/sodipodi-0.dtd" xmlns:dc="http://purl.org/dc/elements/1.1/" xmlns:inkscape="http://www.inkscape.org/namespaces/inkscape" inkscape:version="0.48.2 r9819" sodipodi:docname="Vermont Republican Presidential Primary Election Results by County, 2012.svg" sodipodi:version="0.32" inkscape:output_extension="org.inkscape.output.svg.inkscape"
	 xmlns="http://www.w3.org/2000/svg" xmlns:xlink="http://www.w3.org/1999/xlink" x="0px" y="0px" width="92.047px"
	 height="166.756px" viewBox="0 0 92.047 166.756" enable-background="new 0 0 92.047 166.756" xml:space="preserve">
<defs>
	
	
		<inkscape:perspective  id="perspective8982" inkscape:vp_z="744.09448 : 526.18109 : 1" inkscape:vp_y="0 : 1000 : 0" inkscape:vp_x="0 : 526.18109 : 1" sodipodi:type="inkscape:persp3d" inkscape:persp3d-origin="372.04724 : 350.78739 : 1">
		</inkscape:perspective>
</defs>
<sodipodi:namedview  bordercolor="#666666" pagecolor="#ffffff" objecttolerance="10" borderopacity="1.0" guidetolerance="10" inkscape:cx="50.753688" showgrid="false" inkscape:cy="84.934743" inkscape:zoom="2.5177345" gridtolerance="10000" id="base" inkscape:window-width="1024" inkscape:window-y="-4" inkscape:current-layer="layer1" inkscape:pageopacity="0.0" inkscape:window-height="721" inkscape:window-maximized="0" inkscape:pageshadow="2" inkscape:window-x="-4" inkscape:document-units="px">
	</sodipodi:namedview>
<g id="layer1" transform="translate(-372.09726,-404.0866)" inkscape:label="Layer 1" inkscape:groupmode="layer">
	<path id="VT_Essex" inkscape:label="Essex, VT" fill="#E27F90" stroke="#FFFFFF" stroke-width="0.865" d="M438.968,418.353
		l16.347-2.575l-1.223,1.919l-1.719,14.417l0.233,1.02l1.37,1.699l1.619,2.537l0.884,1.395l0.148,0.313l0.868,1.846l-1.14,5.05
		l-0.626,1.262l-0.002,0.019l-0.245,0.327l-2.444,3.339l-0.198,0.245l-0.282,0.323l-0.66,0.677l-0.123,0.147l-1.428,0.814
		l-0.87-0.184l-3.164,3.257l-4.187-4.31l-0.579-12.138l2.34-4.602l-4.714-2.454l-1.572-0.828l0.913-7.366L438.968,418.353"/>
	<path id="VT_Orleans" inkscape:label="Orleans, VT" fill="#B9D7FF" stroke="#FFFFFF" stroke-width="0.865" d="M438.968,418.353
		l-0.453,6.148l-0.913,7.366l1.572,0.828l-1.877,3.469l-1.188,0.735l-4.056-2.073l-2.518,7.477l-2.011,5.55l-4.994-1.821
		l-0.672-0.825l-3.051-4.784l0.02-2.579l-6.333-2.266l-0.845-13.646L438.968,418.353"/>
	<path id="VT_Bennington" inkscape:label="Bennington, VT" fill="#86B6F2" stroke="#FFFFFF" stroke-width="0.865" d="
		M414.128,526.671l-1.287-0.255l-0.148,3.46l0.415,5.46l-5.541,0.359l0.063,1.254l0.896,9.948l3.744-0.276l1.047,11.129l-4,0.371
		l-10.438,1.029l-1.85-11.618l-1.923-21.97l16.588-1.296L414.128,526.671"/>
	<path id="VT_Grand_Isle" inkscape:label="Grand Isle, VT" fill="#86B6F2" stroke="#FFFFFF" stroke-width="0.865" d="
		M385.193,425.255l0.613,17.257l-4.407,10.09l-0.613-0.652l-0.965-2.442l-0.681-12.505l-0.396-9.807l0.18-1L385.193,425.255"/>
	<path id="VT_Washington" inkscape:label="Washington, VT" fill="#4389E3" stroke="#FFFFFF" stroke-width="0.865" d="
		M420.655,450.937l9.448,3.604l0.149,0.146l0.244,0.61l-0.173,0.936l-4.509,12.097l-2.292-0.703l-6.657,4.521l-1.118,4.424
		l-1.716,4.758l-2.563-0.65l-9.919-6.613l1.524-7.065l-0.684-0.244l2.119-7.542l1.055-3.019l6.725,2.312l6.64-2.523L420.655,450.937
		"/>
	<path id="VT_Caledonia" inkscape:label="Caledonia, VT" fill="#B9D7FF" stroke="#FFFFFF" stroke-width="0.865" d="M439.174,432.696
		l4.714,2.454l-2.34,4.602l0.579,12.138l4.187,4.31l-3.084,1.478l-3.047,1.441l-0.237,0.181l-0.14,0.085l-1.662,2.326l-0.21,0.58
		l-0.042,0.369l0.808,4.858l0.646,1.118l0.634,0.636l-5.753-1.373l-5.602,1.29l-2.811-0.858l4.509-12.097l0.173-0.936l-0.244-0.61
		l-0.149-0.146l-9.448-3.604l1.876-4.905l4.994,1.821l2.011-5.55l2.518-7.477l4.056,2.073l1.188-0.735L439.174,432.696"/>
	<path id="VT_Lamoille" inkscape:label="Lamoille, VT" fill="#4389E3" stroke="#FFFFFF" stroke-width="0.865" d="M412.495,435.578
		l6.333,2.266l-0.02,2.579l3.051,4.784l0.672,0.825l-1.876,4.905l-1.726,5.047l-6.64,2.523l-6.725-2.312l-6.36-10.018l2.443-4.982
		l3.764-4.979l5.512-1.633L412.495,435.578"/>
	<path id="VT_Franklin" inkscape:label="Franklin, VT" fill="#B9D7FF" stroke="#FFFFFF" stroke-width="0.865" d="M411.65,421.932
		l0.845,13.646l-1.571-0.994l-5.512,1.633l-3.764,4.979l-2.443,4.982l-13.398-3.666l-0.613-17.257L411.65,421.932"/>
	<path id="VT_Chittenden" inkscape:label="Chittenden,VT" fill="#1666CB" stroke="#FFFFFF" stroke-width="0.865" d="
		M385.806,442.512l13.398,3.666l6.36,10.018l-1.055,3.019l-2.119,7.542l0.684,0.244l-1.524,7.065l-1.306-5.105l-2.291-1.801
		l-10.493,2.786l-2.247-0.009l-0.555-7.305l0.512-2.438l0.01-0.646l-0.019-0.039l-0.524-2.143l-0.441-1.344l-1.684-2.586
		l-1.113-0.835L385.806,442.512"/>
	<path id="VT_Addison" inkscape:label="Addison, VT" fill="#4389E3" stroke="#FFFFFF" stroke-width="0.865" d="M385.213,469.937
		l2.247,0.009l10.493-2.786l2.291,1.801l1.306,5.105l9.919,6.613l-1.574,4.251l-1.159,2.494l-1.987,1.498l-3.765,2.499l0.545,1.646
		l0.312,0.743l-3.177-0.805l-5.286,0.911l-2.592,0.657l1.043,4.096l-6.448,1.59l-1.183-3.133l-0.566-1.377l-3.567-12.13
		l-0.068-0.211l0.002-0.018l0.125-1.967l0.22-1.914l0.583-4.86L385.213,469.937"/>
	<path id="VT_Rutland" inkscape:label="Rutland, VT" fill="#B9D7FF" stroke="#FFFFFF" stroke-width="0.865" d="M387.38,500.26
		l6.448-1.59l-1.043-4.096l2.592-0.657l5.286-0.911l3.177,0.805l3.333-2.322l3.494,1.256l0.642,0.882l4.562,7.229l-0.464,12.539
		l-2.525,5.976l-1.187,4.896l-16.588,1.296l-1.157-11.853l-6.884-2.372l-1.328-0.739l-0.139-0.237l-0.021-3.479l0.507-2.356
		L387.38,500.26"/>
	<path id="VT_Windham" inkscape:label="Windham, VT" fill="#4389E3" stroke="#FFFFFF" stroke-width="0.865" d="M414.128,526.671
		l5.957,1.202l5.589-1.541l5.177-0.526l-0.335,4.353l1.133,2.314l0.051,0.361l0.398,6.414l-3.729,8.852l0.119,0.614l0.916,2.751
		l4.264,4.319l-20.35,1.966l-1.047-11.129l-3.744,0.276l-0.896-9.948l-0.063-1.254l5.541-0.359l-0.415-5.46l0.148-3.46
		L414.128,526.671"/>
	<path id="VT_Windsor" inkscape:label="Windsor, VT" fill="#4389E3" stroke="#FFFFFF" stroke-width="0.865" d="M409.895,484.93
		l0.142,0.936l0.455,0.948l3.316,0.673l4.755,1.129l12.16,2.835l5.398,1.393l-3.88,10.77l-2.187,5.077l0.959,9.6l0.615,2.402
		l-0.778,5.114l-5.177,0.526l-5.589,1.541l-5.957-1.202l-2.434-2.404l1.187-4.896l2.525-5.976l0.464-12.539l-4.562-7.229
		l-0.642-0.882l-3.494-1.256l-3.333,2.322l-0.312-0.743l-0.545-1.646l3.765-2.499l1.987-1.498L409.895,484.93"/>
	<path id="VT_Orange" inkscape:label="Orange, VT" fill="#86B6F2" stroke="#FFFFFF" stroke-width="0.865" d="M439.98,469.271
		l-3.858,23.572l-5.398-1.393l-12.16-2.835l-4.755-1.129l-3.316-0.673l-0.455-0.948l-0.142-0.936l1.574-4.251l2.563,0.65
		l1.716-4.758l1.118-4.424l6.657-4.521l2.292,0.703l2.811,0.858l5.602-1.29L439.98,469.271"/>
</g>
</svg>
