<?xml version="1.0" encoding="UTF-8" standalone="no"?>
<!-- Generator: Adobe Illustrator 18.1.1, SVG Export Plug-In . SVG Version: 6.00 Build 0)  -->

<svg
   xmlns:dc="http://purl.org/dc/elements/1.1/"
   xmlns:cc="http://creativecommons.org/ns#"
   xmlns:rdf="http://www.w3.org/1999/02/22-rdf-syntax-ns#"
   xmlns:svg="http://www.w3.org/2000/svg"
   xmlns="http://www.w3.org/2000/svg"
   xmlns:sodipodi="http://sodipodi.sourceforge.net/DTD/sodipodi-0.dtd"
   xmlns:inkscape="http://www.inkscape.org/namespaces/inkscape"
   version="1.1"
   id="svg7565"
   sodipodi:version="0.32"
   inkscape:version="0.91 r"
   sodipodi:docname="Washington_Presidential_Election_Results_2016.svg"
   inkscape:output_extension="org.inkscape.output.svg.inkscape"
   x="0px"
   y="0px"
   width="166.1px"
   height="123.7px"
   viewBox="-172 160.6 166.1 123.7"
   enable-background="new -172 160.6 166.1 123.7"
   xml:space="preserve"><metadata
     id="metadata7398"><rdf:RDF><cc:Work
         rdf:about=""><dc:format>image/svg+xml</dc:format><dc:type
           rdf:resource="http://purl.org/dc/dcmitype/StillImage" /></cc:Work></rdf:RDF></metadata><defs
     id="defs7353"><inkscape:perspective
       inkscape:persp3d-origin="372.04724 : 350.78739 : 1"
       sodipodi:type="inkscape:persp3d"
       inkscape:vp_x="0 : 526.18109 : 1"
       inkscape:vp_y="0 : 1000 : 0"
       inkscape:vp_z="744.09448 : 526.18109 : 1"
       id="perspective7573" /><inkscape:perspective
       inkscape:persp3d-origin="372.04724 : 350.78739 : 1"
       sodipodi:type="inkscape:persp3d"
       inkscape:vp_x="0 : 526.18109 : 1"
       inkscape:vp_y="0 : 1000 : 0"
       inkscape:vp_z="744.09448 : 526.18109 : 1"
       id="perspective7633" /></defs><sodipodi:namedview
     inkscape:window-maximized="0"
     showguides="true"
     pagecolor="#ffffff"
     bordercolor="#666666"
     borderopacity="1.0"
     gridtolerance="10000"
     guidetolerance="10"
     objecttolerance="10"
     inkscape:zoom="3.6893456"
     inkscape:cx="78.556107"
     inkscape:cy="59.445272"
     showgrid="false"
     id="base"
     inkscape:guide-bbox="true"
     inkscape:document-units="px"
     inkscape:pageopacity="0.0"
     inkscape:pageshadow="2"
     inkscape:current-layer="layer1"
     inkscape:window-width="1918"
     inkscape:window-height="765"
     inkscape:window-x="0"
     inkscape:window-y="224" /><g
     id="layer1"
     transform="translate(-101.27071,-134.33111)"
     inkscape:label="Layer 1"
     inkscape:groupmode="layer"><path
       id="WA_Okanogan"
       inkscape:label="Okanogan, WA"
       fill="#CCCCCC"
       stroke="#FFFFFF"
       stroke-width="0.7892"
       d="M11.8,310.9   l22.2,1.9l11,0.8l5.7,0.4l-0.2,2.6l-0.6,4.9l-0.6,2.4l-0.3,4.9l0.3,2.3l-0.9,12.6l-0.1,0.2l-2.4,0.2l-0.1-0.5l0.4-0.7l0.3-0.6   l0.1-0.4l-1.4-2.9l-0.2-0.3l-0.4-0.4l-1.3-0.5l-0.4,0.1l-2,1.1l-1.9,1.4l-5.3,0.7l-1.5-1l0.1-1.5l-1.8-0.4l-1.4,0.6l-0.9,0.5   l-0.1,0.1l0,0.1l0,2.2l0,0.1l0.2,0.3l-2.1-0.2l-1.8-0.5l-5-6.9l-3.8-5.6l-1.3-4.3l-0.1-0.3l-0.7,0l-0.7-3.7l0.3-0.1l1.5-1.5l0-0.3   l-1.5-5.4l-0.5-1.1L11.8,310.9"
       style="fill:#e27f90;fill-opacity:1" /><path
       id="WA_Whatcom"
       inkscape:label="Whatcom, WA"
       fill="#CCCCCC"
       stroke="#FFFFFF"
       stroke-width="0.7892"
       d="M11.8,310.9l0.8,1.5   l0.5,1.1l1.5,5.4l0,0.3l-1.5,1.5l-0.3,0.1l-2.1,0l-1.1,0.2L3,320.5l-16.8-1.8l-6.7-0.7l-0.4,0l-0.4-2.1l-2.2-2.3l-2.3-3.4l-0.6-1.4   l0-0.1l0.1-0.3l0.4-0.5l0.5-0.4l0.4-0.3l6.8,0.7l5.9,0.6l6.7,0.8l12.1,1.1L11.8,310.9 M-31.4,306.5l0.1,0l0.9,0.1l0.2,0.7l-0.1,0.1   l-1.1-0.2L-31.4,306.5"
       style="fill:#86b6f2;fill-opacity:1" /><path
       id="WA_Wahkiakum"
       inkscape:label="Wahkiakum, WA"
       fill="#CCCCCC"
       stroke="#FFFFFF"
       stroke-width="0.7892"
       d="M-53.1,382.8   l0.4-2.8l4.5,0.6l2.9,0.3l2.8,0.3l-0.6,6.1l-3.1,0.4l-0.2,0l-1.1-1.2l0.2-1.4l-0.3-0.6l-0.4-0.5l-0.1-0.1l-0.1,0l-0.1,0l-1.3,0.2   L-53.1,382.8"
       style="fill:#e27f90;fill-opacity:1" /><path
       id="WA_Asotin"
       inkscape:label="Asotin, WA"
       fill="#CCCCCC"
       stroke="#FFFFFF"
       stroke-width="0.7892"
       d="M77.9,389.2l3.7,1.3   l-0.2,1.3l1.1,2.4l0,0.1l0.5,1.5l0.5,2.4l-0.5,2.8l0.5,2l-11.4-0.7l0.2-3.6l1.2,0.1l0.3-5.9l0.1-1.7l0.4-0.4l0.9-0.4l2.6,0.2   L77.9,389.2"
       style="fill:#e27f90;fill-opacity:1" /><path
       id="WA_Garfield"
       inkscape:label="Garfield, WA"
       fill="#CCCCCC"
       stroke="#FFFFFF"
       stroke-width="0.7892"
       d="M65.6,383.8   l2.1-1.8l0.2-0.1l1.2-0.2l0.5,0.1l3.1,0.7l1,0.4l1.1,0.6l2.6,3.2l0.4,1.2l0,1.2l-0.1,1.5l-2.6-0.2l-0.9,0.4l-0.4,0.4l-0.1,1.7   l-0.3,5.9l-1.2-0.1l-0.2,3.6l-2.5-0.2l0.2-3.5l0.2-6.3l-2.3-4l-2.5-0.1l0.2-2.6L65.6,383.8"
       style="fill:#cc2f4a;fill-opacity:1" /><path
       id="WA_Columbia"
       inkscape:label="Columbia, WA"
       fill="#CCCCCC"
       stroke="#FFFFFF"
       stroke-width="0.7892"
       d="M58,384.2l0.3,0.2   l0.8,1l0.2,0.1l0.9,0l0.2,0l4.7-1.1l0.6-0.5l-0.3,1.9l-0.2,2.6l2.5,0.1l2.3,4l-0.2,6.3l-0.2,3.5l-7.6-0.5l-0.4,0l0.1-1l0.3-5   l-2.5-0.2l-2.4-2.7l0.5-7.7L58,384.2"
       style="fill:#cc2f4a;fill-opacity:1" /><path
       id="WA_Walla_Walla"
       inkscape:label="Walla Walla, WA"
       fill="#CCCCCC"
       stroke="#FFFFFF"
       stroke-width="0.7892"
       d="M58,384.2   l-0.3,0.9l-0.5,7.7l2.4,2.7l2.5,0.2l-0.3,5l-0.1,1l-20-1.3l-0.7-5.7l0.2-0.4l0.2-0.3l0.8-0.4l0.5-0.1l2-0.2l1.3-1.1l2.3-2l0.9-1.1   l0.5-0.8l0.5-1.8l0.1-0.3l0.5-0.6l0.9-0.8l1.6-1.1l0.1,0l3.1,0l1.4,0.3L58,384.2"
       style="fill:#e27f90;fill-opacity:1" /><path
       id="WA_Franklin"
       inkscape:label="Franklin, WA"
       fill="#CCCCCC"
       stroke="#FFFFFF"
       stroke-width="0.7892"
       d="M35.4,378.5   l3.6,0.2l8.3,0.7l10.7,0.6l0.2,4.4l-0.3-0.2l-0.3-0.2l-1.4-0.3l-3.1,0l-0.1,0l-1.6,1.1l-0.9,0.8l-0.5,0.6l-0.1,0.3l-0.5,1.8   l-0.5,0.8l-0.9,1.1l-2.3,2l-1.3,1.1l-2,0.2l-0.5,0.1l-0.8,0.4l-0.2,0.3l-0.2,0.4l-1.5-1l-0.5-0.2l-0.6-0.1l-0.7-0.3l-1.1-1.2   l-0.1-0.2l0.1-0.3l0.6-5.8l-0.2-0.9l-0.8-0.9l-1.1-1.1l-0.6-0.9l-0.8-1.6l0-0.4L35.4,378.5"
       style="fill:#e27f90;fill-opacity:1" /><path
       id="WA_Whitman"
       inkscape:label="Whitman, WA"
       fill="#CCCCCC"
       stroke="#FFFFFF"
       stroke-width="0.7892"
       d="M67.3,365.4   l15.6,0.9l-0.2,3.8l-0.9,16.9l-0.2,3.4l-3.7-1.3l0-1.2l-0.4-1.2l-2.6-3.2l-1.1-0.6l-1-0.4l-3.1-0.7l-0.5-0.1l-1.2,0.2l-0.2,0.1   l-2.1,1.8l-0.6,0.5l-4.7,1.1l-0.2,0l-0.9,0l-0.2-0.1l-0.8-1l-0.2-4.4l3.9-0.6l0.6-0.8l0.4-0.7l0.6-1.3l0.3-1.4l0.6-10L67.3,365.4"
       style="fill:#b9d7ff;fill-opacity:1" /><path
       id="WA_Spokane"
       inkscape:label="Spokane, WA"
       fill="#CCCCCC"
       stroke="#FFFFFF"
       stroke-width="0.7892"
       d="M76.2,343.2l7.8,0.5   l-0.1,2L83,363.2l-0.2,3.1l-15.6-0.9l1-16.3l0.3,0.4l0.2,0.1l4.2,0.7l0.8,0l0.4-7.3L76.2,343.2"
       style="fill:#f2b3be;fill-opacity:1" /><path
       id="WA_Pend_Oreille"
       inkscape:label="Pend Oreille, WA"
       fill="#CCCCCC"
       stroke="#FFFFFF"
       stroke-width="0.7892"
       d="   M85.6,316.2l-0.2,4.4l-1.3,23l-7.8-0.5l0.1-2.5l-1-3.3l0.7-11.7l-2.5-0.1l0.1-2.5l1.6-2.6l1.2-1.4l1.4-0.9l0.1-2.2L85.6,316.2"
       style="fill:#cc2f4a;fill-opacity:1" /><path
       id="WA_Stevens"
       inkscape:label="Stevens, WA"
       fill="#CCCCCC"
       stroke="#FFFFFF"
       stroke-width="0.7892"
       d="M77.9,315.8   l-0.1,2.2l-1.4,0.9l-1.2,1.4l-1.6,2.6l-0.1,2.5l2.5,0.1l-0.7,11.7l1,3.3l-0.1,2.5l-1.9-0.1l-0.4,7.3l-0.8,0l-4.2-0.7l-0.2-0.1   l-0.3-0.4l-3.8,0.2l-1.5,0l-0.2-0.6l-0.7-1.4l-1.3-2l-0.1-0.1l-0.9,0.2l-1.2,0.7l-0.5,0.4l-1-3.8l0-0.1l0.1-0.1l0.8-0.5l0.4,0   l2.2-1l1.9-4.4l0.2-0.6l1.4-10.8l-0.2-2.9l-0.2-0.8l-0.8-1.9l-0.3-0.2l-0.3-1l0-1.6l0.1-1l0.2-0.4l0.3-0.4L77.9,315.8"
       style="fill:#cc2f4a;fill-opacity:1" /><path
       id="WA_Lincoln"
       inkscape:label="Lincoln, WA"
       fill="#CCCCCC"
       stroke="#FFFFFF"
       stroke-width="0.7892"
       d="M45.8,344.3l2.4-0.2   l0.4,0.8l0.2,0.2l1.5,0.7l0.5-0.1l0.1-0.2l3.4,0.5l0.6,0.8l1.2,1l0.8,0.3l0.2,0l0.3,0l0.3-0.2l0.4-1.5l0.5-0.4l1.2-0.7l0.9-0.2   l0.1,0.1l1.3,2l0.7,1.4l0.2,0.6l1.5,0l3.8-0.2l-1,16.3l-2.7-0.2l-20.2-1.4L45.8,344.3"
       style="fill:#d40000;fill-opacity:1" /><path
       id="WA_Adams"
       inkscape:label="Adams, WA"
       fill="#CCCCCC"
       stroke="#FFFFFF"
       stroke-width="0.7892"
       d="M64.6,365.3l-0.6,10   l-0.3,1.4l-0.6,1.3l-0.4,0.7l-0.6,0.8l-3.9,0.6l-10.7-0.6l-8.3-0.7l-3.6-0.2l0.4-5.1l2.7,0.2l5,0.4l0.8-10.1L64.6,365.3"
       style="fill:#cc2f4a;fill-opacity:1" /><path
       id="WA_Grant"
       inkscape:label="Grant, WA"
       fill="#CCCCCC"
       stroke="#FFFFFF"
       stroke-width="0.7892"
       d="M45.7,343.7l0.1,0.5   l-1.5,19.7L43.5,374l-5-0.4l-2.7-0.2l-0.4,5.1l-1.8,1.5l0.1-0.1l-0.1-0.2l-0.6-0.9l-0.3-0.2l-0.3-0.1l-0.1,0.1l-0.7,0.8l-0.5,0.6   l-0.6,0.5l-0.5,0.3l-0.5,0.1L26,381l-0.7-0.1l-0.2-0.1l-1.7-3.3l0.7-1.1l0.3-0.6l0.1-0.4l-0.5-3.9l-1-3.3l0.3-1.6l0.5-1.2l0.2-1.7   l0-0.2l-0.1-0.1l0.7-2.9l2.4-3.2l6.8,0.4l4.6-5l2.6-5.9l0.1-1.5l2.3-2L45.7,343.7"
       style="fill:#cc2f4a;fill-opacity:1" /><path
       id="WA_Benton"
       inkscape:label="Benton, WA"
       fill="#CCCCCC"
       stroke="#FFFFFF"
       stroke-width="0.7892"
       d="M25.1,380.8l0.2,0.1   L26,381l3.6-0.2l0.5-0.1l0.5-0.3l0.6-0.5l0.5-0.6l0.7-0.8l0.1-0.1l0.3,0.1l0.3,0.2l0.6,0.9l0.1,0.2l-0.1,0.1l0,0.4l0.8,1.6l0.6,0.9   l1.1,1.1l0.8,0.9l0.2,0.9l-0.6,5.8l-0.1,0.3l0.1,0.2l1.1,1.2l0.7,0.3l0.6,0.1l0.5,0.2l1.5,1l0.7,5.7l-0.5,0.6l-0.4,0.3l-1.4,0.7   l-0.7,0.2l-0.9,0.1l-0.5,0l-0.6-0.2l-3.1,0.1l-1.1,0.1l-1.1,0.1l-3.8,1.1l-2.1,0.2l-1.9,0.1l0.7-8.2l0.1-1.9l-0.1-0.8L25.1,380.8"
       style="fill:#cc2f4a;fill-opacity:1" /><path
       id="WA_Klickitat"
       inkscape:label="Klickitat, WA"
       fill="#CCCCCC"
       stroke="#FFFFFF"
       stroke-width="0.7892"
       d="M23.9,397.8   l-0.5,5.9l-2.8,0.5l-2.9,0.9l-0.6,0.3l-0.9,1l-4,0.4l-1.6,0l-0.5-0.2l-0.3-0.3l-0.7-0.9l-0.6-0.3L7.6,405l-0.4,0.2l-0.8,0.6   l-2.1,0.7L2.6,407l-1,0.5L1.1,407l-7.9-2.2l-0.7,0l-1.4,0l-1.6-0.9l0.3-1.6l-1.9-0.3l0.2-2.7l0.5-4.9l1.8,0.2l2,0.2l5.5,0.5   l1.7,0.2l9.6,0.9L23.9,397.8"
       style="fill:#e27f90;fill-opacity:1" /><path
       id="WA_Clark"
       inkscape:label="Clark, WA"
       fill="#CCCCCC"
       stroke="#FFFFFF"
       stroke-width="0.7892"
       d="M-35.7,397.6l2.8-2.1   l2.9-1.2l0.9,0l0.5,0.1l0.4,0.3l0.6,0.2l1.7-1l1.7-1l-0.4,4.2l-0.6,4.5l-0.6,5.8l-0.3,0.1l0,0l-0.6,0l0,0l-0.7-0.2l-6.1-2.5   l-0.6-0.3l-1.2-0.9l-0.5-0.4l-0.1-0.7l0.1-0.6l0.3-0.8L-35.7,397.6"
       style="fill:#b9d7ff;fill-opacity:1" /><path
       id="WA_Cowlitz"
       inkscape:label="Cowlitz, WA"
       fill="#CCCCCC"
       stroke="#FFFFFF"
       stroke-width="0.7892"
       d="M-23,383.4l-1.1,9.6   l-1.7,1l-1.7,1l-0.6-0.2l-0.4-0.3l-0.5-0.1l-0.9,0l-2.9,1.2l-2.8,2.1l0.1-0.5l-0.3-2.8l-1.1-3l-0.3-0.7l-3.9-3.4l-1-0.2l-1,0.4   l0.6-6.1l2.5,0.2l1.6,0.2l11.8,1.3L-23,383.4"
       style="fill:#e27f90;fill-opacity:1" /><path
       id="WA_Lewis"
       inkscape:label="Lewis, WA"
       fill="#CCCCCC"
       stroke="#FFFFFF"
       stroke-width="0.7892"
       d="M-44.3,369.2l4.2,0.5   l-0.1,0.8l4.6,0.5l14.5,1.6l3.3,0.9l4.1,0.7l0.3-0.4l0.7-0.7l0.2-0.2l0.4-0.2l6.1,0.6l1,1.8l0.2,0.8l-0.9,8.3L-6,385l-0.1,0l-0.1,0   l-2.4-0.2l-14.4-1.4l-3.6-0.4l-11.8-1.3l-1.6-0.2l-2.5-0.2l-2.8-0.3l0.3-2.7l0.2-2.1l0.1-2.1L-44.3,369.2"
       style="fill:#cc2f4a;fill-opacity:1" /><path
       id="WA_Thurston"
       inkscape:label="Thurston, WA"
       fill="#CCCCCC"
       stroke="#FFFFFF"
       stroke-width="0.7892"
       d="M-39.9,361.1   l2.5,0.3l4.1-1.6l0.5-0.3l0.7-0.6l1.9,3.7l0.5,1.7l0.7,1l2.6,3.4l0.7,0.7l0.8,0.4l0.6,0.2l3.3,2.6l-14.5-1.6l-4.6-0.5l0.1-0.8   L-39.9,361.1"
       style="fill:#86b6f2;fill-opacity:1" /><path
       id="WA_Pierce"
       inkscape:label="Pierce, WA"
       fill="#CCCCCC"
       stroke="#FFFFFF"
       stroke-width="0.7892"
       d="M-31,352.9l5.6,0.6   l-0.4,1.2l2.1,1.3l1.5,1.8l5.4,3.3l1.8,0.6l2.4,0.4l0-0.1l0.6-0.4l0.1-0.1l0.1,0l0.3,0l2.9,0.9l1.5,1l2.5,1.3l0.7,0.1l-0.1,0.9   l-2.5,3.9l0.4,3.4l0,0.1l-0.2,0.2l-6.1-0.6l-0.4,0.2l-0.2,0.2l-0.7,0.7l-0.3,0.4l-4.1-0.7l-3.3-0.9l-3.3-2.6l-0.6-0.2l-0.8-0.4   l-0.7-0.7l-2.6-3.4l-0.7-1l-0.5-1.7l-1.9-3.7l-0.4-1.8l0-0.2l0.1-0.4l0.1-0.2l0.4-0.3l0.3-0.4l0.2-0.5l0.1-0.9L-31,352.9"
       style="fill:#86b6f2;fill-opacity:1" /><path
       id="WA_Yakima"
       inkscape:label="Yakima, WA"
       fill="#CCCCCC"
       stroke="#FFFFFF"
       stroke-width="0.7892"
       d="M-3.8,364.9l2,0.1   l0.5,0.2l2,1.9l0.8,1l0,0.1l0.2,0.6l0.8,1.4l0.3,0.3l7.8,0.7l0.4,2.5l1.7,2.7l7.2,0.7l3.5,0.2l1.7,3.3l-1,12l0.1,0.8l-0.1,1.9   l-0.2,2.3l-14.7-1.2l-9.6-0.9l-1.7-0.2l-5.5-0.5l-2-0.2l1-9.9l2.4,0.2l0.1,0l0.1,0l0.2-0.6l0.9-8.3l-0.2-0.8l-1-1.8l0.2-0.2l0-0.1   l-0.4-3.4l2.5-3.9L-3.8,364.9"
       style="fill:#e27f90;fill-opacity:1" /><path
       id="WA_Kittitas"
       inkscape:label="Kittitas, WA"
       fill="#CCCCCC"
       stroke="#FFFFFF"
       stroke-width="0.7892"
       d="M-3.8,364.9   l-0.2-1.3l-0.8-6.6l0-0.4l2.1-2.4l3.3-2.9l2.1-0.6l1.4,2l2,2.7l1.8,0.9l1.8,1l4.1,2.3l1.3,1.1l0.5,0.6l0.6,0.5l5.8,0.5l1.6,1.4   l0.1,0.1l0,0.2l-0.2,1.7l-0.5,1.2l-0.3,1.6l1,3.3l0.5,3.9l-0.1,0.4l-0.3,0.6l-0.7,1.1l-3.5-0.2l-7.2-0.7l-1.7-2.7l-0.4-2.5   l-7.8-0.7l-0.3-0.3l-0.8-1.4l-0.2-0.6l0-0.1l-0.8-1l-2-1.9l-0.5-0.2L-3.8,364.9"
       style="fill:#e27f90;fill-opacity:1" /><path
       id="WA_Douglas"
       inkscape:label="Douglas, WA"
       fill="#CCCCCC"
       stroke="#FFFFFF"
       stroke-width="0.7892"
       d="M45.7,343.7   l-2.4-0.2l-2.3,2l-0.1,1.5l-2.6,5.9l-4.6,5l-6.8-0.4l-2.4,3.2l-0.7,2.9l-1.6-1.4l0.1-0.4l0.1-0.7l0.1-0.9l0-0.2l-0.8-0.9l-2.1-0.5   l-0.3-0.1l-0.6-0.4l-0.1-0.2l-0.2-1l-0.1-0.7l0.1-0.4l0.4-1.4l2.2-6.1l0.2-0.4l0.2-0.2l0.3-0.2l1.2-0.4l0.3,0.1l0.3,0.2l0.1,0.1   l0.1,0l1.9-0.4l1.9-2.7l1.1-1.7l0-0.2l-0.1-0.3l-0.2-0.3l0-0.1l0-2.2l0-0.1l0.1-0.1l0.9-0.5l1.4-0.6l1.8,0.4l-0.1,1.5l1.5,1   l5.3-0.7l1.9-1.4l2-1.1l0.4-0.1l1.3,0.5l0.4,0.4l0.2,0.3l1.4,2.9l-0.1,0.4l-0.3,0.6L45.7,343.7"
       style="fill:#cc2f4a;fill-opacity:1" /><path
       id="WA_Ferry"
       inkscape:label="Ferry, WA"
       fill="#CCCCCC"
       stroke="#FFFFFF"
       stroke-width="0.7892"
       d="M50.7,314.1l12.4,0.8   l-0.3,0.4l-0.2,0.4l-0.1,1l0,1.6l0.3,1l0.3,0.2l0.8,1.9l0.2,0.8l0.2,2.9L62.8,336l-0.2,0.6l-1.9,4.4l-2.2,1l-0.4,0l-0.8,0.5   l-0.1,0.1l0,0.1l1,3.8l-0.4,1.5l-0.3,0.2l-0.3,0l-0.2,0l-0.8-0.3l-1.2-1l-0.6-0.8l-3.4-0.5l-0.1,0.2l-0.5,0.1l-1.5-0.7l-0.2-0.2   l-0.4-0.8l0.1-0.2l0.9-12.6l-0.3-2.3l0.3-4.9l0.6-2.4l0.6-4.9L50.7,314.1"
       style="fill:#cc2f4a;fill-opacity:1" /><path
       id="WA_San_Juan"
       inkscape:label="San Juan, WA"
       fill="#CCCCCC"
       stroke="#FFFFFF"
       stroke-width="0.7892"
       d="M-29.6,323.4   l-0.1-1l0.2-1l0.3-0.7l0.9-0.1l1.4-0.3l-0.2,0.7l-0.1,0.3l-0.7,2.2l-0.2,0.2l-1.2,0l-0.2,0L-29.6,323.4 M-32.8,317.3l0.2,1.5   l0.8,1.5l0.7,1.5l-0.5,0.7l-0.6-0.3l-1.5-1.1l-0.4-0.4l-0.2-0.3l-0.2-0.5l-0.6-1.8l0-0.2l0.2-0.3l0.4-0.4l0.5,0L-32.8,317.3    M-26.7,317.6l-0.2,0l-0.4,0.4l0,0.1l0,0.6l0,0.3l0.1,0.1l-3.6,0.9l-0.4-0.9l-0.5-1.4l-0.1-0.5l0.7-0.7l1.5-1.3l0.5-0.1l0.5,0   l0.4,0.1l0.8,0.5l1.6,1.2l0,0l-0.3,0.3L-26.7,317.6"
       style="fill:#4389e3;fill-opacity:1" /><path
       id="WA_Island"
       inkscape:label="Island, WA"
       fill="#CCCCCC"
       stroke="#FFFFFF"
       stroke-width="0.7892"
       d="M-24.3,324.6   L-24.3,324.6l0.3-0.2l0.1,0.1l0.1,0.1l0.2,0.3l1.1,2.3l0.1,0.3l0,0.3l0,0.1l-0.4,0.3l-0.2,0.1l-0.4,0l-0.1,0l-0.3-0.4l-0.2-0.1   l-0.3,0l-0.4,0.1l-0.2,0.1l-0.6,0.6l-0.4,0.7l0,0.5l1.8,3.2l0.6,0.7l0.2,0l0.4,0.1l1.6,1.8l0.6,1.2l0,0.9l-0.2,0.7l-0.6,0.6l-0.7,0   l-2.4-3.3l-0.7-1.6l-0.6-1.3l-1.7-2.8l0.3-1.5l2.2-3.9l0.4-0.1L-24.3,324.6"
       style="fill:#b9d7ff;fill-opacity:1" /><path
       id="WA_Snohomish"
       inkscape:label="Snohomish, WA"
       fill="#CCCCCC"
       stroke="#FFFFFF"
       stroke-width="0.7892"
       d="M-19.9,328.1   l10.6,1.1l5.1,0.5l1.5,0.2l9.7,1l0.7,2.5l-0.1,1.6l-0.1,1.2l-1.5,0.8l-0.1,0l-1.4,0.4l-0.8,0.4l-1,3.2l0.2,2.5l0.5,1.9l-5.9-0.6   l-0.7,0l-2.5-0.2l-9.6-1l-6.3-0.7l0-0.1l0.1-0.7l2.2-4l0.6-0.2l0.6,0l0.4-0.3l0.1-0.1l0.1-1.1l-0.1-0.4l-0.9-0.7l-1.1-1.5l-0.3-0.8   l0,0l0.1-0.7l0.1-0.7l-0.5-1.6l-0.1-0.7L-19.9,328.1"
       style="fill:#86b6f2;fill-opacity:1" /><path
       id="WA_King"
       inkscape:label="King, WA"
       fill="#CCCCCC"
       stroke="#FFFFFF"
       stroke-width="0.7892"
       d="M3.3,345.5l0.7,1.2   l-0.1,0.5l-1,1.3l0,0.1l0,0.5l0.1,1.7l-2.1,0.6l-3.3,2.9l-2.1,2.4l0,0.4l0.8,6.6l0.2,1.3l-0.7-0.1l-2.5-1.3l-1.5-1l-2.9-0.9l-0.3,0   l-0.1,0l-0.1,0.1l-0.6,0.4l0,0.1l-2.4-0.4l-1.8-0.6l-5.4-3.3l-1.5-1.8l1.7-0.4l0.3-0.2l0.1-1.2l0-0.3l-0.4-2.4l-0.2-6.1l0.4-2.5   l6.3,0.7l9.6,1l2.5,0.2l0.7,0L3.3,345.5"
       style="fill:#1666cb;fill-opacity:1" /><path
       id="WA_Kitsap"
       inkscape:label="Kitsap, WA"
       fill="#CCCCCC"
       stroke="#FFFFFF"
       stroke-width="0.7892"
       d="M-28.9,343.3l3.2-3   l0.5-1.9l0.8,0.2l0.4,0.4l0.2,0.8l0.1,2.7l-0.6,5.7l-0.1,2.2l-1,3.1l-5.6-0.6l0.4-3.3l-3-0.4l-0.9,0l-0.9-0.1l0.2-0.4l1.3-1.6   l0.1-0.1l0.4-0.2L-28.9,343.3"
       style="fill:#86b6f2;fill-opacity:1" /><path
       id="WA_Mason"
       inkscape:label="Mason, WA"
       fill="#CCCCCC"
       stroke="#FFFFFF"
       stroke-width="0.7892"
       d="M-44.5,348l0.3-2.6   l10.9,1.3l-0.4,0.2l-0.1,0.1l-1.3,1.6l-0.2,0.4l0.9,0.1l0.9,0l3,0.4l-0.6,4.6l-0.1,0.9l-0.2,0.5l-0.3,0.4l-0.4,0.3l-0.1,0.2   l-0.1,0.4l0,0.2l0.4,1.8l-0.7,0.6l-0.5,0.3l-4.1,1.6l-2.5-0.3l-5.6-0.6l-0.1,0l0.3-5.1L-44.5,348"
       style="fill:#f2b3be;fill-opacity:1" /><path
       id="WA_Grays_Harbor"
       inkscape:label="Grays Harbor, WA"
       fill="#CCCCCC"
       stroke="#FFFFFF"
       stroke-width="0.7892"
       d="   M-61.1,345.5l4.5,0.6l1.5,0.6l10.7,1.3l-0.9,7.4l-0.3,5.1l0.1,0l5.6,0.6l-0.1,8.5l-4.2-0.5l-4.7-0.6l-5-0.5l-4.8-0.7l-0.2-2.5   l0.7-0.5l0.9,0.3l3.4-0.9l0.5-0.2l0,0l-0.3-0.4l-2.7-2.4l-0.7-0.4l-0.8-0.2l-3.1-9.5l-0.1-0.4l-0.1-1.4L-61.1,345.5"
       style="fill:#f2b3be;fill-opacity:1" /><path
       id="WA_Jefferson"
       inkscape:label="Jefferson, WA"
       fill="#CCCCCC"
       stroke="#FFFFFF"
       stroke-width="0.7892"
       d="M-64.9,334.9   l3.4,0.4l1.2,0.2l4.9,0.6l7.3,0.9l3.1,0.5l1.5,0.5l11,1.3l0.7-6.6l2.4-0.8l1-0.1l0.5,0l1.3,1.4l0.1,5.4l-2.2,3.1l-0.3,1.2l0,0.3   l0.1,0.1l-4.4,3.5l-10.9-1.3l-0.3,2.6l-10.7-1.3l-1.5-0.6l-4.5-0.6l0-0.4l-0.1-1.2l-0.1-1.4l-0.4-3.1l-0.1-0.2l-0.9-2.2l-0.1-0.2   l-1.1-1.4l0,0l0,0l-0.4-0.3L-64.9,334.9"
       style="fill:#4389e3;fill-opacity:1" /><path
       id="WA_Clallam"
       inkscape:label="Clallam, WA"
       fill="#CCCCCC"
       stroke="#FFFFFF"
       stroke-width="0.7892"
       d="M-64.9,334.9   l-0.3-0.5l-0.5-2.5l-0.3-5l0.7-6.5l0.1-0.1l0.2-0.1l1.2,0.1l0.8,0.5l0.7,0.4l0.9,0.6l0.3,0.2l1.7,1.5l6.6,4.4l1.3,0.5l2.2,0.6   l8.5,2.1l4.1,0.2l2.9,0.5l2.2,0.9l-0.7,6.6l-11-1.3l-1.5-0.5L-48,337l-7.3-0.9l-4.9-0.6l-1.2-0.2L-64.9,334.9"
       style="fill:#b9d7ff;fill-opacity:1" /><path
       id="WA_Skagit"
       inkscape:label="Skagit, WA"
       fill="#CCCCCC"
       stroke="#FFFFFF"
       stroke-width="0.7892"
       d="M12.8,321l0.7,3.7   l-3.1-0.7l-1.8,0.3l-2,1.1l-0.2,0.2l-0.2,0.5l-0.5,3.8l1.2,1l-9.7-1l-1.5-0.2l-5.1-0.5l-10.6-1.1l-0.5-0.9l-1.4-4l0.6-0.2l0,0   l1.3-3.5l-0.4-0.7l-0.7-0.6l0.4,0l6.7,0.7L3,320.5l6.6,0.6l1.1-0.2L12.8,321"
       style="fill:#86b6f2;fill-opacity:1" /><path
       id="WA_Chelan"
       inkscape:label="Chelan, WA"
       fill="#CCCCCC"
       stroke="#FFFFFF"
       stroke-width="0.7892"
       d="M13.4,324.7l0.7,0   l0.1,0.3l1.3,4.3l3.8,5.6l5,6.9l1.8,0.5l2.1,0.2l0.1,0.3l0,0.2l-1.1,1.7l-1.9,2.7l-1.9,0.4l-0.1,0l-0.1-0.1l-0.3-0.2l-0.3-0.1   l-1.2,0.4l-0.3,0.2l-0.2,0.2l-0.2,0.4l-2.2,6.1l-0.4,1.4l-0.1,0.4l0.1,0.7l0.2,1l0.1,0.2l0.6,0.4l0.3,0.1l2.1,0.5l0.8,0.9l0,0.2   l-0.1,0.9l-0.1,0.7l-0.1,0.4l-5.8-0.5l-0.6-0.5l-0.5-0.6l-1.3-1.1l-4.1-2.3l-1.8-1l-1.8-0.9l-2-2.7l-1.4-2L2.8,349l0-0.5l0-0.1   l1-1.3l0.1-0.5l-0.7-1.2l-0.5-1.9L2.6,341l1-3.2l0.8-0.4l1.4-0.4l0.1,0l1.5-0.8l0.1-1.2l0.1-1.6L7,330.9l-1.2-1l0.5-3.8l0.2-0.5   l0.2-0.2l2-1.1l1.8-0.3L13.4,324.7"
       style="fill:#e27f90;fill-opacity:1" /><path
       id="WA_Skamania"
       inkscape:label="Skamania, WA"
       fill="#CCCCCC"
       stroke="#FFFFFF"
       stroke-width="0.7892"
       d="M-8.6,384.8   l-1,9.9l-1.8-0.2l-0.5,4.9l-0.2,2.7l1.9,0.3l-0.3,1.6l-2.2,0.3l-1.7,0.2l-0.6,0l-1.5-0.5l-1.2,0.3l-0.8,0.6l-0.5,0.6l-6.9,2.2   l0.6-5.8l0.6-4.5l0.4-4.2l1.1-9.6L-8.6,384.8"
       style="fill:#e27f90;fill-opacity:1" /><path
       id="WA_Pacific"
       inkscape:label="Pacific, WA"
       fill="#CCCCCC"
       stroke="#FFFFFF"
       stroke-width="0.7892"
       d="M-58.7,367.3   l4.8,0.7l5,0.5l4.7,0.6l-0.5,4.8l-0.1,2.1l-0.2,2.1l-0.3,2.7l-2.9-0.3l-4.5-0.6l-0.4,2.8l-3.1,1.1l-0.7-0.2l-2.8-2.7l0.7-4.8l0.5,1   l0.5,0.1l0.2-0.1l1-0.3l1.1-1.2l0.1-0.4l0.5-4.2l-0.2-1.7l-1.5,0.8l-0.3,0.1l-0.3-0.2l-1.1-0.9l-0.1-0.2l-0.1-0.1l-0.1-0.1   L-58.7,367.3"
       style="fill:#e27f90;fill-opacity:1" /></g></svg>