<?xml version="1.0" encoding="UTF-8" standalone="no"?>
<!-- Generator: Adobe Illustrator 16.0.0, SVG Export Plug-In . SVG Version: 6.00 Build 0)  -->

<svg
   xmlns:dc="http://purl.org/dc/elements/1.1/"
   xmlns:cc="http://creativecommons.org/ns#"
   xmlns:rdf="http://www.w3.org/1999/02/22-rdf-syntax-ns#"
   xmlns:svg="http://www.w3.org/2000/svg"
   xmlns="http://www.w3.org/2000/svg"
   xmlns:sodipodi="http://sodipodi.sourceforge.net/DTD/sodipodi-0.dtd"
   xmlns:inkscape="http://www.inkscape.org/namespaces/inkscape"
   version="1.1"
   id="svg9022"
   inkscape:output_extension="org.inkscape.output.svg.inkscape"
   sodipodi:docname="Wisconsin_Presidential_Election_Results_2016.svg"
   inkscape:version="0.91 r"
   sodipodi:version="0.32"
   x="0px"
   y="0px"
   width="245.229px"
   height="261.912px"
   viewBox="0 0 245.229 261.912"
   enable-background="new 0 0 245.229 261.912"
   xml:space="preserve"><metadata
     id="metadata5453"><rdf:RDF><cc:Work
         rdf:about=""><dc:format>image/svg+xml</dc:format><dc:type
           rdf:resource="http://purl.org/dc/dcmitype/StillImage" /></cc:Work></rdf:RDF></metadata><defs
     id="defs5376"><inkscape:perspective
       id="perspective9030"
       inkscape:vp_z="744.09448 : 526.18109 : 1"
       inkscape:vp_y="0 : 1000 : 0"
       inkscape:vp_x="0 : 526.18109 : 1"
       sodipodi:type="inkscape:persp3d"
       inkscape:persp3d-origin="372.04724 : 350.78739 : 1" /></defs><sodipodi:namedview
     showgrid="false"
     inkscape:cy="101.00185"
     inkscape:cx="122.86292"
     inkscape:zoom="1.5125338"
     objecttolerance="10"
     guidetolerance="10"
     gridtolerance="10000"
     borderopacity="1.0"
     bordercolor="#666666"
     pagecolor="#ffffff"
     id="base"
     inkscape:window-maximized="0"
     inkscape:window-y="140"
     inkscape:window-x="1920"
     inkscape:window-height="666"
     inkscape:window-width="1598"
     inkscape:current-layer="layer1"
     inkscape:document-units="px"
     inkscape:pageshadow="2"
     inkscape:pageopacity="0.0" /><g
     id="layer1"
     transform="translate(-316.52106,-331.8672)"
     inkscape:label="Layer 1"
     inkscape:groupmode="layer"><path
       id="WI_Door"
       inkscape:label="Door, WI"
       fill="#CCCCCC"
       stroke="#FFFFFF"
       stroke-width="1.0675"
       d="M525.152,461.648   l0.459-2.634l3.003-5.023l0.97-1.418l10.563-11.278l7.521-12.609l2.104-1.702l1.286-0.787l0.897,0.011l0.41,0.112l0.225,0.237   l0.341,0.66l-0.009,1.753l-0.152,1.045l-2.244,7.688l-1.205,1.71l-3.635,7.523l-5.418,11.598l-1.042,2.465L525.152,461.648"
       style="fill:#f2b3be;fill-opacity:1" /><path
       id="WI_Kewaunee"
       inkscape:label="Kewaunee, WI"
       fill="#CCCCCC"
       stroke="#FFFFFF"
       stroke-width="1.0675"
       d="M525.152,461.648   l14.073-0.649l-2.286,3.961l-1.021,2.961l-0.484,2.252l-1.779,10.166l-8.701,0.464l-0.727-17.333L525.152,461.648"
       style="fill:#cc2f4a;fill-opacity:1" /><path
       id="WI_Pierce"
       inkscape:label="Pierce, WI"
       fill="#CCCCCC"
       stroke="#FFFFFF"
       stroke-width="1.0675"
       d="M330.079,456.255   l24.218,0.209l0.093,9.472l-7.022,7.876l-0.128-0.212l-0.364-0.34l-0.433-0.228l-0.662-0.176l-5.232-0.397l-1.65-0.255   l-0.604-0.306l-2.719-2.906l-0.078-0.536l-0.399-0.548l-3.894-3.559l-2.708-1.699L330.079,456.255"
       style="fill:#e27f90;fill-opacity:1" /><path
       id="WI_Pepin"
       inkscape:label="Pepin, WI"
       fill="#CCCCCC"
       stroke="#FFFFFF"
       stroke-width="1.0675"
       d="M354.389,465.936   l18.821-0.079l0.057,4.753l-13.728,0.095l-0.758,0.354l-0.25,0.22l-0.269,0.998l-1.622,7.348l-0.187,1.521l-6.164-2.607   l-2.924-4.726L354.389,465.936"
       style="fill:#e27f90;fill-opacity:1" /><path
       id="WI_Buffalo"
       inkscape:label="Buffalo, WI"
       fill="#CCCCCC"
       stroke="#FFFFFF"
       stroke-width="1.0675"
       d="M377.985,470.59   l0.188,19.109l-0.646,7.649l-0.394,4.546l-11.979-9.136l-8.7-11.614l0.187-1.521l1.622-7.348l0.269-0.998l0.25-0.22l0.758-0.354   l13.728-0.095L377.985,470.59"
       style="fill:#e27f90;fill-opacity:1" /><path
       id="WI_Trempealeau"
       inkscape:label="Trempealeau, WI"
       fill="#CCCCCC"
       stroke="#FFFFFF"
       stroke-width="1.0675"
       d="   M392.116,470.358l0.26,19.111h0.479l0.201,9.171l-1.388-0.283l-4.696,1.185l-1.184,1.563l-0.058,0.188l-0.118,1.046l0.234,0.428   l0.35,0.301l0.265,0.619l-0.009,0.267l-3.839,0.051l-5.479-2.108l0.394-4.546l0.646-7.649l-0.188-19.109L392.116,470.358"
       style="fill:#e27f90;fill-opacity:1" /><path
       id="WI_Jackson"
       inkscape:label="Jackson, WI"
       fill="#CCCCCC"
       stroke="#FFFFFF"
       stroke-width="1.0675"
       d="M392.116,470.358   l9.447-0.115l0.057,4.736l4.798,4.676l14.247-0.284l4.7-0.231l0.375,9.634l0.111,5.099l-5.172-0.188l-13.624,0.383l-4.142,0.116   l-1.911,0.638l-1.09,0.973l0.153,3.232l-7.011-0.386l-0.201-9.171h-0.479L392.116,470.358"
       style="fill:#e27f90;fill-opacity:1" /><path
       id="WI_Eau_Claire"
       inkscape:label="Eau Claire, WI"
       fill="#CCCCCC"
       stroke="#FFFFFF"
       stroke-width="1.0675"
       d="   M401.318,455.976l0.245,14.267l-9.447,0.115l-14.131,0.232l-4.718,0.02l-0.057-4.753l-0.098-9.435L401.318,455.976"
       style="fill:#86b6f2;fill-opacity:1" /><path
       id="WI_Clark"
       inkscape:label="Clark, WI"
       fill="#CCCCCC"
       stroke="#FFFFFF"
       stroke-width="1.0675"
       d="M401.112,446.483   l23.512-0.616l0.402,19.04l0.339,14.232l-4.7,0.231l-14.247,0.284l-4.798-4.676l-0.057-4.736l-0.245-14.267L401.112,446.483"
       style="fill:#cc2f4a;fill-opacity:1" /><path
       id="WI_Chippewa"
       inkscape:label="Chippewa, WI"
       fill="#CCCCCC"
       stroke="#FFFFFF"
       stroke-width="1.0675"
       d="M377.095,432.577   l23.712-0.325l0.512,23.724l-28.205,0.446l-0.752-19.205L377.095,432.577"
       style="fill:#e27f90;fill-opacity:1" /><path
       id="WI_Dunn"
       inkscape:label="Dunn, WI"
       fill="#CCCCCC"
       stroke="#FFFFFF"
       stroke-width="1.0675"
       d="M372.361,437.217   l0.752,19.205l0.098,9.435l-18.821,0.079l-0.093-9.472l-0.849-19.209L372.361,437.217"
       style="fill:#e27f90;fill-opacity:1" /><path
       id="WI_St._Croix"
       inkscape:label="St. Croix, WI"
       fill="#CCCCCC"
       stroke="#FFFFFF"
       stroke-width="1.0675"
       d="   M353.448,437.255l0.849,19.209l-24.218-0.209l0.445-4.104l-0.69-3.861l-0.874-2.056l-0.053-1.798l1.063-7.155L353.448,437.255"
       style="fill:#e27f90;fill-opacity:1" /><path
       id="WI_Polk"
       inkscape:label="Polk, WIO"
       fill="#CCCCCC"
       stroke="#FFFFFF"
       stroke-width="1.0675"
       d="M353.397,413.777   l0.051,23.479l-23.478,0.025l0.76-4.724l0.477-0.402l0.052-0.04l1.061-1.22l1.581-3.644l-0.622-3.88l-1.753-3.63l-2.956-1.732   l-0.766,0.091l-1.82-0.376l-0.501-0.416l-0.093-1.074l-0.044-1.45l-0.004-0.36l0.082-0.86l13.647,0.113l0.04-4.711l14.286,0.137   V413.777"
       style="fill:#cc2f4a;fill-opacity:1" /><path
       id="WI_Barron"
       inkscape:label="Barron, WI"
       fill="#CCCCCC"
       stroke="#FFFFFF"
       stroke-width="1.0675"
       d="M358.133,413.758   l18.802-0.025l0.16,18.845l-4.733,4.64l-18.913,0.038l-0.051-23.479L358.133,413.758"
       style="fill:#cc2f4a;fill-opacity:1" /><path
       id="WI_Rusk"
       inkscape:label="Rusk, WI"
       fill="#CCCCCC"
       stroke="#FFFFFF"
       stroke-width="1.0675"
       d="M409.912,413.193   l0.289,14.209l-9.395,4.851l-23.712,0.325l-0.16-18.845L409.912,413.193"
       style="fill:#cc2f4a;fill-opacity:1" /><path
       id="WI_Taylor"
       inkscape:label="Taylor, WI"
       fill="#CCCCCC"
       stroke="#FFFFFF"
       stroke-width="1.0675"
       d="M434.642,426.607   l0.325,14.27l-3.729,0.093l-2.16,1.642l0.076,3.153l-4.53,0.103l-23.512,0.616l-0.306-14.23l9.395-4.851l8.479-0.129l5.147-0.313   l7.625-0.312L434.642,426.607"
       style="fill:#d40000;fill-opacity:1" /><path
       id="WI_Price"
       inkscape:label="Price, WI"
       fill="#CCCCCC"
       stroke="#FFFFFF"
       stroke-width="1.0675"
       d="M423.886,394.173   l9.825-0.271l0.176,4.622l0.467,18.646l0.289,9.437l-3.19,0.041l-7.625,0.312l-5.147,0.313l-8.479,0.129l-0.289-14.209   l-0.291-18.715L423.886,394.173"
       style="fill:#cc2f4a;fill-opacity:1" /><path
       id="WI_Sawyer"
       inkscape:label="Sawyer, WI"
       fill="#CCCCCC"
       stroke="#FFFFFF"
       stroke-width="1.0675"
       d="M376.225,385.424   l23.806-0.208l0.066,8.688l0.068,0.786l9.455-0.212l0.291,18.715l-32.978,0.54L376.225,385.424"
       style="fill:#e27f90;fill-opacity:1" /><path
       id="WI_Washburn"
       inkscape:label="Washburn, WI"
       fill="#CCCCCC"
       stroke="#FFFFFF"
       stroke-width="1.0675"
       d="M357.288,385.537   l18.938-0.113l0.709,28.309l-18.802,0.025l-0.176-18.749l-0.652-0.002L357.288,385.537"
       style="fill:#e27f90;fill-opacity:1" /><path
       id="WI_Burnett"
       inkscape:label="Burnett, WI"
       fill="#CCCCCC"
       stroke="#FFFFFF"
       stroke-width="1.0675"
       d="M348.008,385.604   l9.28-0.066l0.017,9.47l0.652,0.002l0.176,18.749l-4.735,0.019v-4.675l-14.286-0.137l-0.04,4.711l-13.647-0.113l1.724-4.688   l4.105-7.524l0.504-0.837l0.501-0.613l1.955-1.589l0.014-0.021l8.118-4.919l5.674-3.262l0.001-2.139L348.008,385.604"
       style="fill:#cc2f4a;fill-opacity:1" /><path
       id="WI_Douglas"
       inkscape:label="Douglas, WI"
       fill="#CCCCCC"
       stroke="#FFFFFF"
       stroke-width="1.0675"
       d="M347.999,358.062   l0.833,0.623l1.045,0.131l1.132-0.035l0.19-0.107l0.18-0.163l0.561-1.317l-0.017-0.61l-0.036-0.04l-0.183-0.218l0.001-0.038   l-0.118-0.348l0.052-0.4l0.228-0.428l2.73-1.718l1.018-0.039l2.093,2.197l0.521,0.247l0.199-0.128l1.023,0.744l0.559,0.347   l0.438,0.206l0.715,0.141l4.624-0.595l1.115-0.269l8.978-3.396l0.047,12.964l0.114,4.662l0.187,14.95l-18.938,0.113l-9.28,0.066   l0.002-14.165L347.999,358.062"
       style="fill:#86b6f2;fill-opacity:1" /><path
       id="WI_Bayfield"
       inkscape:label="Bayfield, WI"
       fill="#CCCCCC"
       stroke="#FFFFFF"
       stroke-width="1.0675"
       d="M399.508,361.801   l0.523,23.415l-23.806,0.208l-0.187-14.95l-0.114-4.662l-0.047-12.964l0.535,0.062l0.977-0.177l15.169-5.636l0.334-0.213   l1.62-1.105l0.494-0.443l1.273-1.479l1.16-1.39l0.195-0.146l3.644-0.994l0.575-0.076l0.677,0.257l1.985,1.652l1.199,1.495   l0.146,0.294l-0.01,0.267l-1.729,3.562l-2.488,3.229l-3.049,8.978l0.006,0.19l0.369,0.449L399.508,361.801"
       style="fill:#86b6f2;fill-opacity:1" /><path
       id="WI_Ashland"
       inkscape:label="Ashland, WI"
       fill="#CCCCCC"
       stroke="#FFFFFF"
       stroke-width="1.0675"
       d="M399.508,361.801   l0.356,0.106l0.326,0.012l0.154-0.05l4.132-2.314l0.916-0.632l0.559-0.556l4.825,1.111l2.993,2.111l0.144,4.565l0.153,7.793   l0.004,6.318l4.793-0.093l4.755,4.563l0.231,4.722l0.036,4.714l-14.265,0.305l-9.455,0.212l-0.068-0.786l-0.066-8.688   L399.508,361.801"
       style="fill:#86b6f2;fill-opacity:1" /><path
       id="WI_Iron"
       inkscape:label="Iron, WI"
       fill="#CCCCCC"
       stroke="#FFFFFF"
       stroke-width="1.0675"
       d="M418.76,362.461   l4.221,2.499l7.321,9.695l3.479,0.867l3.82,0.939l0.507,17.313l-4.396,0.128l-9.825,0.271l-0.036-4.714l-0.231-4.722l-4.755-4.563   l-4.793,0.093l-0.004-6.318l-0.153-7.793l-0.144-4.565L418.76,362.461"
       style="fill:#cc2f4a;fill-opacity:1" /><path
       id="WI_Vilas"
       inkscape:label="Vilas, WI"
       fill="#CCCCCC"
       stroke="#FFFFFF"
       stroke-width="1.0675"
       d="M437.6,376.462   l27.133,6.599l2.04,0.493l1.595,0.401l2.561,0.969l2.638,1.413l2.268,1.208l0.158,4.99l-4.354,0.147l0.188,4.74l-4.807,2.096   l-7.202-1.866l-25.931,0.872l-0.176-4.622l4.396-0.128L437.6,376.462"
       style="fill:#cc2f4a;fill-opacity:1" /><path
       id="WI_Oneida"
       inkscape:label="Oneida, WI"
       fill="#CCCCCC"
       stroke="#FFFFFF"
       stroke-width="1.0675"
       d="M471.826,397.423   l0.907,23.45l-14.521,0.371l-0.283-4.804l-9.382,0.291l-14.193,0.438l-0.467-18.646l25.931-0.872l7.202,1.866L471.826,397.423"
       style="fill:#e27f90;fill-opacity:1" /><path
       id="WI_Lincoln"
       inkscape:label="Lincoln, WI"
       fill="#CCCCCC"
       stroke="#FFFFFF"
       stroke-width="1.0675"
       d="M458.212,421.244   l0.573,18.987l-23.817,0.645l-0.325-14.27l-0.289-9.437l14.193-0.438l9.382-0.291L458.212,421.244"
       style="fill:#e27f90;fill-opacity:1" /><path
       id="WI_Langlade"
       inkscape:label="Langlade, WI"
       fill="#CCCCCC"
       stroke="#FFFFFF"
       stroke-width="1.0675"
       d="M458.212,421.244   l14.521-0.371l4.72-0.192l0.079,4.716l9.541-0.378l0.279,9.479l1.623-0.056l0.081,4.771l-13.152,0.48l0.208,4.873l-9.344,0.31   l-7.983-4.644L458.212,421.244"
       style="fill:#cc2f4a;fill-opacity:1" /><path
       id="WI_Marathon"
       inkscape:label="Marathon, WI"
       fill="#CCCCCC"
       stroke="#FFFFFF"
       stroke-width="1.0675"
       d="M434.968,440.876   l23.817-0.645l7.983,4.644l0.666,18.994l-24.128,0.578l-18.28,0.459l-0.402-19.04l4.53-0.103l-0.076-3.153l2.16-1.642   L434.968,440.876"
       style="fill:#e27f90;fill-opacity:1" /><path
       id="WI_Wood"
       inkscape:label="Wood, WI"
       fill="#CCCCCC"
       stroke="#FFFFFF"
       stroke-width="1.0675"
       d="M425.026,464.906   l18.28-0.459l0.304,9.475l4.587-0.121l0.279,7.459l0.21,6.952l-6.949,0.112l-15.997,0.448l-0.375-9.634L425.026,464.906"
       style="fill:#e27f90;fill-opacity:1" /><path
       id="WI_Adams"
       inkscape:label="Adams, WI"
       fill="#CCCCCC"
       stroke="#FFFFFF"
       stroke-width="1.0675"
       d="M453.651,488.159   l0.45,14.431l0.486,18.586l-7.312,0.307l-3.856-8.097l-3.447-3.944l-0.819-2.528l-2.11-9.752l0.632-1.676l4.063-7.161l6.949-0.112   L453.651,488.159"
       style="fill:#e27f90;fill-opacity:1" /><path
       id="WI_Juneau"
       inkscape:label="Juneau, WI"
       fill="#CCCCCC"
       stroke="#FFFFFF"
       stroke-width="1.0675"
       d="M425.74,488.773   l15.997-0.448l-4.063,7.161l-0.632,1.676l2.11,9.752l0.819,2.528l3.447,3.944l3.856,8.097l-20.773,0.547l-0.104-4.95l-0.547-23.208   L425.74,488.773"
       style="fill:#cc2f4a;fill-opacity:1" /><path
       id="WI_Monroe"
       inkscape:label="Monroe, WI"
       fill="#CCCCCC"
       stroke="#FFFFFF"
       stroke-width="1.0675"
       d="M400.066,499.026   l-0.153-3.232l1.09-0.973l1.911-0.638l4.142-0.116l13.624-0.383l5.172,0.188l0.547,23.208l-23.544,0.811l-0.193-11.114l-0.25-7.817   L400.066,499.026"
       style="fill:#e27f90;fill-opacity:1" /><path
       id="WI_La_Crosse"
       inkscape:label="La Crosse, WI"
       fill="#CCCCCC"
       stroke="#FFFFFF"
       stroke-width="1.0675"
       d="M393.055,498.64   l7.011,0.386l2.345-0.067l0.25,7.817l0.193,11.114l-14.091,0.192l-0.717-6.628l-5.434-7.451l3.839-0.051l0.009-0.267l-0.265-0.619   l-0.35-0.301l-0.234-0.428l0.118-1.046l0.058-0.188l1.184-1.563l4.696-1.185L393.055,498.64"
       style="fill:#86b6f2;fill-opacity:1" /><path
       id="WI_Vernon"
       inkscape:label="Vernon, WI"
       fill="#CCCCCC"
       stroke="#FFFFFF"
       stroke-width="1.0675"
       d="M426.398,517.079   l0.104,4.95l0.171,4.757l-14.229,0.361l0.258,7.132l-21.241,0.352l-0.532-4.237l-2.166-12.312l14.091-0.192L426.398,517.079"
       style="fill:#f2b3be;fill-opacity:1" /><path
       id="WI_Sauk"
       inkscape:label="Sauk, WI"
       fill="#CCCCCC"
       stroke="#FFFFFF"
       stroke-width="1.0675"
       d="M426.503,522.03   l20.773-0.547l1.933,2.306l5.296,1.776l0.259,0.233l0.243,9.744l-0.746,0.625l-0.974,0.439l-0.423,0.115l-0.568-0.092l-0.368,0.101   l-1.676,2.552l-0.125,0.741l0.289,0.446l-4.526,4.9l-14.045,2.658l0.038-0.139l-0.503-21.275l-4.706,0.172L426.503,522.03"
       style="fill:#b9d7ff;fill-opacity:1" /><path
       id="WI_Richland"
       inkscape:label="Richland, WI"
       fill="#CCCCCC"
       stroke="#FFFFFF"
       stroke-width="1.0675"
       d="M426.674,526.786   l4.706-0.172l0.503,21.275l-0.038,0.139l-9.429-1.794l-9.356,1.799l-0.356-13.754l-0.258-7.132L426.674,526.786"
       style="fill:#e27f90;fill-opacity:1" /><path
       id="WI_Crawford"
       inkscape:label="Crawford, WI"
       fill="#CCCCCC"
       stroke="#FFFFFF"
       stroke-width="1.0675"
       d="M391.462,534.631   l21.241-0.352l0.356,13.754l-2.96,2.696l-12.385,7.321l-0.326,0.115l-3.87,0.456l-0.658-5.215l1.183-3.984l3.23-5.02l0.177-0.676   l-1.127-1.967l-0.875-1.196l-4.126-3.131L391.462,534.631"
       style="fill:#e27f90;fill-opacity:1" /><path
       id="WI_Iowa"
       inkscape:label="Iowa, WI"
       fill="#CCCCCC"
       stroke="#FFFFFF"
       stroke-width="1.0675"
       d="M445.889,545.37   l0.544,19.101l0.069,2.391l-23.5,0.651l-0.587-21.278l9.429,1.794L445.889,545.37"
       style="fill:#86b6f2;fill-opacity:1" /><path
       id="WI_Grant"
       inkscape:label="Grant, WI"
       fill="#CCCCCC"
       stroke="#FFFFFF"
       stroke-width="1.0675"
       d="M413.059,548.033   l9.356-1.799l0.587,21.278l0.404,16.771l-8.588,0.112l0.162-0.257l-0.015-0.31l-0.386-1.39l-2.37-4.706l-0.276-0.298l-0.449-0.241   l-1.982-0.55l-5.128-1.177l-2.08-0.575l-1.089-0.552l-3.141-2.253l-0.458-1.046l-3.348-8.218l-0.741-4.202l3.87-0.456l0.326-0.115   l12.385-7.321L413.059,548.033"
       style="fill:#e27f90;fill-opacity:1" /><path
       id="WI_Lafayette"
       inkscape:label="Lafayette, WI"
       fill="#CCCCCC"
       stroke="#FFFFFF"
       stroke-width="1.0675"
       d="   M423.003,567.513l23.5-0.651l0.514,16.906l-3.572,0.078l-20.037,0.438L423.003,567.513"
       style="fill:#e27f90;fill-opacity:1" /><path
       id="WI_Green"
       inkscape:label="Green, WI"
       fill="#CCCCCC"
       stroke="#FFFFFF"
       stroke-width="1.0675"
       d="M446.433,564.471   l18.722,0.091l0.763,18.9l-1.433,0.037l-17.469,0.269l-0.514-16.906L446.433,564.471"
       style="fill:#b9d7ff;fill-opacity:1" /><path
       id="WI_Marquette"
       inkscape:label="Marquette, WI"
       fill="#CCCCCC"
       stroke="#FFFFFF"
       stroke-width="1.0675"
       d="   M470.935,501.977l0.229,5.831l-1.06,3.531l-1.775,2.607l0.229,6.745l-13.971,0.484l-0.486-18.586L470.935,501.977"
       style="fill:#cc2f4a;fill-opacity:1" /><path
       id="WI_Portage"
       inkscape:label="Portage, WI"
       fill="#CCCCCC"
       stroke="#FFFFFF"
       stroke-width="1.0675"
       d="M443.306,464.448   l24.128-0.578l0.792,23.941l-14.575,0.349l-4.965,0.053l-0.21-6.952l-0.279-7.459l-4.587,0.121L443.306,464.448"
       style="fill:#b9d7ff;fill-opacity:1" /><path
       id="WI_Waupaca"
       inkscape:label="Waupaca, WI"
       fill="#CCCCCC"
       stroke="#FFFFFF"
       stroke-width="1.0675"
       d="M467.434,463.869   l23.999-0.751l0.169,4.8l-5.067,0.214l0.253,6.688l0.38,12.285l-5.735,0.271l-13.206,0.436L467.434,463.869"
       style="fill:#cc2f4a;fill-opacity:1" /><path
       id="WI_Waushara"
       inkscape:label="Waushara, WI"
       fill="#CCCCCC"
       stroke="#FFFFFF"
       stroke-width="1.0675"
       d="M481.432,487.375   l0.57,14.182l-11.067,0.42l-16.834,0.613l-0.45-14.431l14.575-0.349L481.432,487.375"
       style="fill:#cc2f4a;fill-opacity:1" /><path
       id="WI_Green_Lake"
       inkscape:label="Green Lake, WI"
       fill="#CCCCCC"
       stroke="#FFFFFF"
       stroke-width="1.0675"
       d="   M482.003,501.557l0.189,4.8l0.548,14.333l-4.759,0.208l-4.747,0.247l-0.011-0.647l-4.665,0.194l-0.229-6.745l1.775-2.607   l1.06-3.531l-0.229-5.831L482.003,501.557"
       style="fill:#cc2f4a;fill-opacity:1" /><path
       id="WI_Columbia"
       inkscape:label="Columbia, WI"
       fill="#CCCCCC"
       stroke="#FFFFFF"
       stroke-width="1.0675"
       d="M468.558,520.692   l4.665-0.194l0.011,0.647l4.747-0.247l0.63,19.074l-3.809,0.261l-10.212,0.43l-0.029-0.704l-14.146,0.512l-0.289-0.446l0.125-0.741   l1.676-2.552l0.368-0.101l0.568,0.092l0.423-0.115l0.974-0.439l0.746-0.625l-0.243-9.744l-0.259-0.233l-5.296-1.776l-1.933-2.306   l7.312-0.307L468.558,520.692"
       style="fill:#f2b3be;fill-opacity:1" /><path
       id="WI_Dane"
       inkscape:label="Dane, WI"
       fill="#CCCCCC"
       stroke="#FFFFFF"
       stroke-width="1.0675"
       d="M478.611,539.972   l0.188,4.754l0.518,19.223l-14.161,0.613l-18.722-0.091l-0.544-19.101l4.526-4.9l14.146-0.512l0.029,0.704l10.212-0.43   L478.611,539.972"
       style="fill:#1666cb;fill-opacity:1" /><path
       id="WI_Rock"
       inkscape:label="Rock, WI"
       fill="#CCCCCC"
       stroke="#FFFFFF"
       stroke-width="1.0675"
       d="M488.756,563.813   l0.793,19.135l-6.571,0.198l-17.06,0.316l-0.763-18.9l14.161-0.613L488.756,563.813"
       style="fill:#86b6f2;fill-opacity:1" /><path
       id="WI_Kenosha"
       inkscape:label="Kenosha, WI"
       fill="#CCCCCC"
       stroke="#FFFFFF"
       stroke-width="1.0675"
       d="M508.116,575.736   l4.722-0.227l-0.155-3.211l7.416-0.362l7.862-0.324l0.682,9.7l-16.018,0.524l-4.172,0.269L508.116,575.736"
       style="fill:#f2b3be;fill-opacity:1" /><path
       id="WI_Racine"
       inkscape:label="Racine, WI"
       fill="#CCCCCC"
       stroke="#FFFFFF"
       stroke-width="1.0675"
       d="M516.949,562.561   l9.658-0.45l1.354,9.501l-7.862,0.324l-7.416,0.362l0.155,3.211l-4.722,0.227l-0.591-12.674L516.949,562.561"
       style="fill:#f2b3be;fill-opacity:1" /><path
       id="WI_Walworth"
       inkscape:label="Walworth, WI"
       fill="#CCCCCC"
       stroke="#FFFFFF"
       stroke-width="1.0675"
       d="M498.162,563.429   l9.363-0.367l0.591,12.674l0.337,6.369l-16.132,0.753l-2.772,0.09l-0.793-19.135L498.162,563.429"
       style="fill:#e27f90;fill-opacity:1" /><path
       id="WI_Dodge"
       inkscape:label="Dodge, WI"
       fill="#CCCCCC"
       stroke="#FFFFFF"
       stroke-width="1.0675"
       d="M482.74,520.69   l4.762-0.171l14.363-0.474l0.179,3.598l0.051,1.183l0.362,9.503l-0.67,0.031l0.439,9.594l-4.662,0.119l-18.766,0.653l-0.188-4.754   l-0.63-19.074L482.74,520.69"
       style="fill:#cc2f4a;fill-opacity:1" /><path
       id="WI_Jefferson"
       inkscape:label="Jefferson, WI"
       fill="#CCCCCC"
       stroke="#FFFFFF"
       stroke-width="1.0675"
       d="   M478.799,544.726l18.766-0.653l0.598,19.356l-9.406,0.384l-9.439,0.136L478.799,544.726"
       style="fill:#e27f90;fill-opacity:1" /><path
       id="WI_Waukesha"
       inkscape:label="Waukesha, WI"
       fill="#CCCCCC"
       stroke="#FFFFFF"
       stroke-width="1.0675"
       d="M516.287,543.455   l0.662,19.105l-9.424,0.501l-9.363,0.367l-0.598-19.356l4.662-0.119L516.287,543.455"
       style="fill:#cc2f4a;fill-opacity:1" /><path
       id="WI_Milwaukee"
       inkscape:label="Milwaukee, WI"
       fill="#CCCCCC"
       stroke="#FFFFFF"
       stroke-width="1.0675"
       d="   M523.095,543.148l3.513,18.963l-9.658,0.45l-0.662-19.105L523.095,543.148"
       style="fill:#4389e3;fill-opacity:1" /><path
       id="WI_Ozaukee"
       inkscape:label="Ozaukee, WI"
       fill="#CCCCCC"
       stroke="#FFFFFF"
       stroke-width="1.0675"
       d="M516.298,524.236   l9.716-0.508l0.166,2.755l-0.482,1.757l-0.706,1.486l-1.034,1.66l-0.324,0.653l-0.277,0.756l-0.157,0.604l-1.044,6.585l0.111,0.783   l0.648,2.086l0.181,0.294l-6.808,0.308l-0.395-9.575l0.658-4.024L516.298,524.236"
       style="fill:#e27f90;fill-opacity:1" /><path
       id="WI_Washington"
       inkscape:label="Washington, WI"
       fill="#CCCCCC"
       stroke="#FFFFFF"
       stroke-width="1.0675"
       d="   M511.54,524.423l4.758-0.188l0.253,5.62l-0.658,4.024l0.395,9.575l-14.061,0.498l-0.439-9.594l0.67-0.031l-0.362-9.503   L511.54,524.423"
       style="fill:#cc2f4a;fill-opacity:1" /><path
       id="WI_Winnebago"
       inkscape:label="Winnebago, WI"
       fill="#CCCCCC"
       stroke="#FFFFFF"
       stroke-width="1.0675"
       d="   M500.279,486.496l0.886,19.231l-18.973,0.629l-0.189-4.8l-0.57-14.182l5.735-0.271L500.279,486.496"
       style="fill:#e27f90;fill-opacity:1" /><path
       id="WI_Fond_du_Lac"
       inkscape:label="Fond du Lac, WI"
       fill="#CCCCCC"
       stroke="#FFFFFF"
       stroke-width="1.0675"
       d="   M510.63,505.364l0.91,19.06l-9.445,0.402l-0.051-1.183l-0.179-3.598l-14.363,0.474l-4.762,0.171l-0.548-14.333l18.973-0.629   l-0.116-2.507L510.63,505.364"
       style="fill:#cc2f4a;fill-opacity:1" /><path
       id="WI_Sheboygan"
       inkscape:label="Sheboygan, WI"
       fill="#CCCCCC"
       stroke="#FFFFFF"
       stroke-width="1.0675"
       d="   M527.529,504.448l1.569,6.814l0.126,4.375l-0.127,0.453l-3.084,7.637l-9.716,0.508l-4.758,0.188l-0.91-19.06l4.722-0.23   L527.529,504.448"
       style="fill:#e27f90;fill-opacity:1" /><path
       id="WI_Calumet"
       inkscape:label="Calumet, WI"
       fill="#CCCCCC"
       stroke="#FFFFFF"
       stroke-width="1.0675"
       d="M508.536,486.258   l5.848-0.225l0.968,19.1l-4.722,0.23l-9.581-2.143l-0.77-16.725L508.536,486.258"
       style="fill:#e27f90;fill-opacity:1" /><path
       id="WI_Manitowoc"
       inkscape:label="Manitowoc, WI"
       fill="#CCCCCC"
       stroke="#FFFFFF"
       stroke-width="1.0675"
       d="   M524.953,480.802l8.701-0.464l1.643,5.269l0.077,1.036l-0.15,0.985l-0.237,0.72l-0.729,1.155l-0.87,0.883l-1.421,0.77l-0.766,0.565   l-0.955,0.994l-1.2,4.708l-0.383,1.684l-1.134,5.342l-12.178,0.685l-0.968-19.1l6.057-0.259l-0.229-4.759l2.375-0.104   L524.953,480.802"
       style="fill:#e27f90;fill-opacity:1" /><path
       id="WI_Brown"
       inkscape:label="Brown, WI"
       fill="#CCCCCC"
       stroke="#FFFFFF"
       stroke-width="1.0675"
       d="M505.505,462.443   l9.804-0.368l-0.432,0.784l-1.288,5.052l-0.029,0.342l1.511,1.432l1.378,0.41l1.051-0.018l0.547-0.361l0.444-0.69l0.559-1.166   l0.062-0.281l-0.189-0.388l0.083-0.188l1.27-1.369l2.177-1.636l1.776-0.528l0.727,17.333l-2.367,0.109l-2.375,0.104l0.229,4.759   l-6.057,0.259l-5.848,0.225l-0.08-3.149l-0.71-15.698l-2.104,0.212L505.505,462.443"
       style="fill:#e27f90;fill-opacity:1" /><path
       id="WI_Outagamie"
       inkscape:label="Outagamie, WI"
       fill="#CCCCCC"
       stroke="#FFFFFF"
       stroke-width="1.0675"
       d="   M491.602,467.918l14.04-0.296l2.104-0.212l0.71,15.698l0.08,3.149l-8.257,0.238l-13.111,0.608l-0.38-12.285l-0.253-6.688   L491.602,467.918"
       style="fill:#e27f90;fill-opacity:1" /><path
       id="WI_Shawano"
       inkscape:label="Shawano, WI"
       fill="#CCCCCC"
       stroke="#FFFFFF"
       stroke-width="1.0675"
       d="M476.112,444.566   l0.19,4.682l9.499-0.379l0.154,4.735l9.574-0.339l9.316-0.251l0.658,9.429l0.138,5.18l-14.04,0.296l-0.169-4.8l-23.999,0.751   l-0.666-18.994L476.112,444.566"
       style="fill:#cc2f4a;fill-opacity:1" /><path
       id="WI_Menominee"
       inkscape:label="Menominee, WI"
       fill="#CCCCCC"
       stroke="#FFFFFF"
       stroke-width="1.0675"
       d="   M476.112,444.566l-0.208-4.873l13.152-0.48l6.073-0.236l0.192,8.459l0.208,5.83l-9.574,0.339l-0.154-4.735l-9.499,0.379   L476.112,444.566"
       style="fill:#1666cb;fill-opacity:1" /><path
       id="WI_Oconto"
       inkscape:label="Oconto, WI"
       fill="#CCCCCC"
       stroke="#FFFFFF"
       stroke-width="1.0675"
       d="M496.663,424.701   l4.699-0.063l7.848,14.085l0.134,4.718l6.892,1.359l7.18,1.116l-0.252,0.05l-1.74,0.699l-0.239,0.182l-0.704,1.08l-5.028,11.822   l-0.164,1.849l0.021,0.476l-9.804,0.368l-0.658-9.429l-9.316,0.251l-0.208-5.83l-0.192-8.459l-6.073,0.236l-0.081-4.771   l-1.623,0.056l-0.279-9.479L496.663,424.701"
       style="fill:#cc2f4a;fill-opacity:1" /><path
       id="WI_Forest"
       inkscape:label="Forest, WI"
       fill="#CCCCCC"
       stroke="#FFFFFF"
       stroke-width="1.0675"
       d="M475.834,387.545   l9.591,2.83l0.425,1.827l0.507,14.048l9.58-0.377l0.727,18.828l-9.59,0.317l-9.541,0.378l-0.079-4.716l-4.72,0.192l-0.907-23.45   l-0.188-4.74l4.354-0.147L475.834,387.545"
       style="fill:#cc2f4a;fill-opacity:1" /><path
       id="WI_Florence"
       inkscape:label="Florence, WI"
       fill="#CCCCCC"
       stroke="#FFFFFF"
       stroke-width="1.0675"
       d="M485.425,390.375   l0.731,1.419l6.695-0.464l11.042,1.794l0.084,0.023l0.941,0.187l1.426,0.755l0.875,0.629l0.573,0.397l1.063,1.644l0.111,0.178   l0.049,0.192l-0.566,0.895l-0.64,0.836l-0.274,0.202l-0.699,0.83l-0.022,0.037l-0.062,0.188l0.228,0.486l0.037,0.022l1.412,1.232   l0.318,0.088l0.512,0.154l0.037,0.019l0.519-0.058l0.129,3.688l-4.541-0.067l-9.467,0.19l-9.58,0.377l-0.507-14.048   L485.425,390.375"
       style="fill:#d40000;fill-opacity:1" /><path
       id="WI_Marinette"
       inkscape:label="Marinette, WI"
       fill="#CCCCCC"
       stroke="#FFFFFF"
       stroke-width="1.0675"
       d="   M509.815,402.062l8.924,2.75l0.702,0.614l0.058,0.044l0.094,0.097l1.091,1.45l0.024,9.851l2.786,16.345l0.02,0.038l0.298,1.134   l0.163,0.294l2.896,3.293l0.037,0.019l0.984,0.205l1.724,0.333l-6.2,7.39l-7.18-1.116l-6.892-1.359l-0.134-4.718l-7.848-14.085   l-4.699,0.063l-0.727-18.828l9.467-0.19l4.541,0.067L509.815,402.062"
       style="fill:#cc2f4a;fill-opacity:1" /></g></svg>