<?xml version="1.0" encoding="utf-8"?>
<!-- Generator: Adobe Illustrator 18.1.1, SVG Export Plug-In . SVG Version: 6.00 Build 0)  -->
<svg version="1.1"
	 id="svg7114" sodipodi:version="0.32" inkscape:version="0.48.1 " sodipodi:docname="West_Virginia_Presidential_Election_Results_by_County,_2008[1].svg" inkscape:output_extension="org.inkscape.output.svg.inkscape" xmlns:dc="http://purl.org/dc/elements/1.1/" xmlns:cc="http://creativecommons.org/ns#" xmlns:rdf="http://www.w3.org/1999/02/22-rdf-syntax-ns#" xmlns:svg="http://www.w3.org/2000/svg" xmlns:sodipodi="http://sodipodi.sourceforge.net/DTD/sodipodi-0.dtd" xmlns:inkscape="http://www.inkscape.org/namespaces/inkscape"
	 xmlns="http://www.w3.org/2000/svg" xmlns:xlink="http://www.w3.org/1999/xlink" x="0px" y="0px" width="290.3px" height="275.5px"
	 viewBox="-110 83.8 290.3 275.5" enable-background="new -110 83.8 290.3 275.5" xml:space="preserve">
<defs>
	
	
		<inkscape:perspective  inkscape:persp3d-origin="372.04724 : 350.78739 : 1" sodipodi:type="inkscape:persp3d" inkscape:vp_x="0 : 526.18109 : 1" inkscape:vp_y="0 : 1000 : 0" inkscape:vp_z="744.09448 : 526.18109 : 1" id="perspective7122">
		</inkscape:perspective>
</defs>
<sodipodi:namedview  inkscape:window-maximized="1" pagecolor="#ffffff" bordercolor="#666666" borderopacity="1.0" gridtolerance="10000" guidetolerance="10" objecttolerance="10" inkscape:zoom="1.1043478" inkscape:cx="242.02857" inkscape:cy="175.21766" showgrid="false" id="base" inkscape:document-units="px" inkscape:pageopacity="0.0" inkscape:pageshadow="2" inkscape:current-layer="layer1" inkscape:window-width="1366" inkscape:window-height="706" inkscape:window-x="-8" inkscape:window-y="-8">
	</sodipodi:namedview>
<g id="layer1" transform="translate(-323.58511,-352.16614)" inkscape:label="Layer 1" inkscape:groupmode="layer">
	<path id="WV_Berkeley" inkscape:label="Berkeley, WV" fill="#cc2f4a" stroke="#FFFFFF" stroke-width="1.2599" d="M474.9,507.4l12,8
		l-0.9,3.4l-0.6,1l-3.4,4.3l-1.1,0.6l-0.4,0.7l-3.2,6.5l-0.1,0.4l-0.1,1.1l-11.9-8.2l3.3-15l0.2-0.3L474.9,507.4"/>
	<path id="WV_Jefferson" inkscape:label="Jefferson, WV" fill="#e27f90" stroke="#FFFFFF" stroke-width="1.2599" d="M486.9,515.4
		l7.3,12l-4.6,14.5l-12.5-8.5l0.1-1.1l0.1-0.4l3.2-6.5l0.4-0.7l1.1-0.6l3.4-4.3l0.6-1L486.9,515.4"/>
	<path id="WV_Cabell" inkscape:label="Cabell, WV" fill="#cc2f4a" stroke="#FFFFFF" stroke-width="1.2599" d="M245.6,602l9.8,8.1
		l0.9,7.3l-11.7,11.4l-14.5-12.5l9.3-2.8l0.6-0.3l0.3-0.4l0.2-0.4l0.1-0.5l0.1-0.5l0.7-5.2l0-0.2l0.3-3.2L245.6,602"/>
	<path id="WV_Wayne" inkscape:label="Wayne, WV" fill="#d40000" stroke="#FFFFFF" stroke-width="1.2599" d="M230.1,616.3l14.5,12.5
		l-0.6,2l1,6.4l0.2,0.4l1.8,2.2l1.3,4.2l-4.7,5.9l-5.5,6.5l-5.4-5.9l1.7-2.4l0-0.4l0-0.1l-0.1-0.1l-8.2-9.3l-0.1-0.1l-1.1-0.3
		l-0.9-1l0-0.1l-0.4-1.3l-0.2-0.7l0,0l2-6.1l-0.1-12.9L230.1,616.3"/>
	<path id="WV_Mingo" inkscape:label="Mingo, WV" fill="#aa0000" stroke="#FFFFFF" stroke-width="1.2599" d="M243.5,650l6.5-2.7
		l-0.3,0.9l3.5,8.9l2.7,6.4l6.4,6.1l1.4-0.5l2-0.7l3.7,0l4.2,0.6l-2.5,8.4l-4,3l-2.4-1.8l-2.3,0.5l-2.3,0.3l-4-1.9l0,0l-10.9-8.8
		l-1.8-3.5l-0.1-0.4l0,0l-5.2-8.5L243.5,650"/>
	<path id="WV_Logan" inkscape:label="Logan, WV" fill="#aa0000" stroke="#FFFFFF" stroke-width="1.2599" d="M264.5,642.7l-1.6,1.5
		l-1,1.2l0,0.4l0.2,0.3l6.8,2.1l2.4-0.1l2.2,1l7.5,6.8l2.5,2.3l0.6,0.8l-7.1,2.4l-0.8,1.7l2.9,2.7l-2.6,1.7l-3,1.7l-4.2-0.6l-3.7,0
		l-2,0.7l-1.4,0.5l-6.4-6.1l-2.7-6.4l-3.5-8.9l0.3-0.9L264.5,642.7"/>
	<path id="WV_Wyoming" inkscape:label="Wyoming, WV" fill="#aa0000" stroke="#FFFFFF" stroke-width="1.2599" d="M284.2,658.9
		l5.3-0.5l3.3,0.4l1.8,2.3l5.6,8.8l7.4,7.9l-4.7,6.7l-8.6-2.8l-8.5-1.1l-7.3,0.3l-4.9-0.6l-2.6-2.9l2.5-8.4l3-1.7l2.6-1.7l-2.9-2.7
		l0.8-1.7L284.2,658.9"/>
	<path id="WV_McDowell" inkscape:label="McDowell, WV" fill="#d40000" stroke="#FFFFFF" stroke-width="1.2599" d="M271.1,677.4
		l2.6,2.9l4.9,0.6l7.3-0.3l8.5,1.1l8.6,2.8l-2.5,6.6l-2.5,4.1l-5.4,4.1l0,0l-2.7,2.1l-0.2,0.1l-6.8,0.8l-3.6-2.6l-6.3-2.9l-0.6-0.4
		l0,0l-4.4-4.6l-4.3-7.4l-0.3-1.1l0.2-0.5l2.8-2.1l0.8-0.3L271.1,677.4"/>
	<path id="WV_Mercer" inkscape:label="Mercer, WV" fill="#d40000" stroke="#FFFFFF" stroke-width="1.2599" d="M314.5,671.6
		l14.3,10.7l-6.2,10.5l-13.8,5.3l-8.4-7l2.5-6.6l4.7-6.7L314.5,671.6"/>
	<path id="WV_Monroe" inkscape:label="Monroe, WV" fill="#d40000" stroke="#FFFFFF" stroke-width="1.2599" d="M338.5,659.3l21.2,1.3
		l4.7,4.4l-3.6,3.7l-2.1,3.5l1.1,2.5l-7,5.2l-1.8,1.3l-2.4-4.2l-6.1,4l-0.6,0.4l-7.5,4.7l-5.4-3.7l4.3-9.9l5-10.7l0.5-1.3
		L338.5,659.3"/>
	<path id="WV_Summers" inkscape:label="Summers, WV" fill="#d40000" stroke="#FFFFFF" stroke-width="1.2599" d="M329.5,649.8
		l8.9,9.5l0.3,1.2l-0.5,1.3l-5,10.7l-4.3,9.9l-0.1-0.1l-14.3-10.7l0.9-3.3l0.3-0.6l4.9-5.8l1.8-0.2l0.6,0.2l1.8,0.9l0.5,0.6
		l-0.1,0.8l0.4,0.1l0.8-0.5l0.1-0.2l0-0.5l-1.4-6l-2-2.4l-0.7-0.5l-0.4-0.1L329.5,649.8"/>
	<path id="WV_Raleigh" inkscape:label="Raleigh, WV" fill="#d40000" stroke="#FFFFFF" stroke-width="1.2599" d="M291.8,643.7l4.4,1
		l5,5.3l0.3,0.3l12.7,1.3l7.6,2.5l0.4,0.1l0.7,0.5l2,2.4l1.4,6l0,0.5l-0.1,0.2l-0.8,0.5l-0.4-0.1l0.1-0.8l-0.5-0.6l-1.8-0.9
		l-0.6-0.2l-1.8,0.2l-4.9,5.8l-0.3,0.6l-0.9,3.3l-6.9,6.3l-7.4-7.9l-5.6-8.8l-1.8-2.3l-3.3-0.4L291.8,643.7"/>
	<path id="WV_Boone" inkscape:label="Boone, WV" fill="#d40000" stroke="#FFFFFF" stroke-width="1.2599" d="M291.8,643.7l-2.3,14.6
		l-5.3,0.5l-0.6-0.8l-2.5-2.3l-7.5-6.8l-2.2-1l-2.4,0.1l-6.8-2.1l-0.2-0.3l0-0.4l1-1.2l1.6-1.5l4.8-13.9l6.2-1.4l1.5-0.3l1.2,0.2
		l9.2,7.2l3.6,6.6L291.8,643.7"/>
	<path id="WV_Lincoln" inkscape:label="Lincoln, WV" fill="#d40000" stroke="#FFFFFF" stroke-width="1.2599" d="M256.4,617.4
		l7.7,3.1l5.2,8.2l-4.8,13.9l-14.5,4.6l-6.5,2.7l4.7-5.9l-1.3-4.2l-1.8-2.2l-0.2-0.4l-1-6.4l0.6-2L256.4,617.4"/>
	<path id="WV_Putnam" inkscape:label="Putnam, WV" fill="#d40000" stroke="#FFFFFF" stroke-width="1.2599" d="M275,597.6l-3.1,3.6
		l-7.4,13.9l-0.5,5.4l-7.7-3.1l-0.9-7.3l-1.1-9.8l5.9-4l10.2-2.4L275,597.6"/>
	<path id="WV_Mason" inkscape:label="Mason, WV" fill="#d40000" stroke="#FFFFFF" stroke-width="1.2599" d="M261.9,579.9l-0.1,0.2
		l0.5,0.9l6.9,9.2l1.3,3.8l-10.2,2.4l-5.9,4l1.1,9.8l-9.8-8.1l1.1-0.1l0.3,0l0.1-0.1l0.3-0.2l0.2-0.1l0.3-0.4l0.1-0.3l0.1-0.4l0-0.3
		l0-0.1l0-0.5l-0.9-6.1l0,0l1.7-11.7l1.9-6.9l0.3-1l3-4.2l1-0.4l0.9,0.1l0,0l3.9,2.6l1,1.5l1.2,2.2l0.2,0.6L261.9,579.9"/>
	<path id="WV_Jackson" inkscape:label="Jackson, WV" fill="#d40000" stroke="#FFFFFF" stroke-width="1.2599" d="M279.6,567.8
		l4.9,7.7L285,598l-9.9-0.4l-4.6-3.7l-1.3-3.8l-6.9-9.2l-0.5-0.9l0.1-0.2l1.9-0.3l6.3-3.7l0.2-0.6l-0.9-6l-0.5-0.8l-1.2-1l-0.6-0.5
		l-0.5-0.8l-0.2-1l0.1-0.6l3.6-1.2L279.6,567.8"/>
	<path id="WV_Kanawha" inkscape:label="Kanawha, WV" fill="#e27f90" stroke="#FFFFFF" stroke-width="1.2599" d="M275,597.6l9.9,0.4
		l3.5,4.5l14,0.2l1.5,0.2l-4.8,4.4l2.2,7l1.9,8.1l0,0l-7,22.2l-4.4-1l-0.8-2.6l-3.6-6.6l-9.2-7.2l-1.2-0.2l-1.5,0.3l-6.2,1.4
		l-5.2-8.2l0.5-5.4l7.4-13.9L275,597.6"/>
	<path id="WV_Fayette" inkscape:label="Fayette, WV" fill="#cc2f4a" stroke="#FFFFFF" stroke-width="1.2599" d="M324,632.9l5.6,16.9
		l-7.7,4.2l-7.6-2.5l-12.7-1.3l-0.3-0.3l-5-5.3l7-22.2l4.6,2.4l4.5,1.8l0.4,0l0.2-0.2l0-1l1.3-1.2l3.3,0.1l0.9,0.4l1.6,1.5
		L324,632.9"/>
	<path id="WV_Clay" inkscape:label="Clay, WV" fill="#d40000" stroke="#FFFFFF" stroke-width="1.2599" d="M309.8,596.3l2.7-4.3
		l9.4,11.2l3.2,0.7l0.5,1.1l-5,5.1l-17.4,12.4l-1.9-8.1l-2.2-7l4.8-4.4L309.8,596.3"/>
	<path id="WV_Roane" inkscape:label="Roane, WV" fill="#d40000" stroke="#FFFFFF" stroke-width="1.2599" d="M284.5,575.5l4.9-0.6
		l4.1,1.6l3.6-1.7l3.6,5l0.4,3.3l4.1,11.1l4.4,2L304,603l-1.5-0.2l-14-0.2L285,598L284.5,575.5"/>
	<path id="WV_Calhoun" inkscape:label="Calhoun, WV" fill="#d40000" stroke="#FFFFFF" stroke-width="1.2599" d="M310.5,566.9
		l1.7,2.9l0.3,0.5l0.7,8.4l1.7,9.4l-2.4,3.9l-2.7,4.3l-4.4-2l-4.1-11.1l-0.4-3.3l-3.6-5l5.9-8.9L310.5,566.9"/>
	<path id="WV_Wirt" inkscape:label="Wirt, WV" fill="#d40000" stroke="#FFFFFF" stroke-width="1.2599" d="M294.7,555.1l8.4,10.8
		l-5.9,8.9l-3.6,1.7l-4.1-1.6l-4.9,0.6l-4.9-7.7L294.7,555.1"/>
	<path id="WV_Wood" inkscape:label="Wood, WV" fill="#d40000" stroke="#FFFFFF" stroke-width="1.2599" d="M289.8,543.8l7.8,4.9
		l-2.8,6.3l-15.1,12.8l-9.7-4.5l-0.5-6.2l2.7-4.8l8.1-8.6l3.9-4l0.6-0.5l0.5-0.1l0.6,0.1l1.4,0.9l0.4,0.5L289.8,543.8"/>
	<path id="WV_Pleasants" inkscape:label="Pleasants, WV" fill="#d40000" stroke="#FFFFFF" stroke-width="1.2599" d="M310.1,541.8
		l-4.1,1.9l-7.4,2.1l-0.4,0.5l-0.3,0.9l-0.3,1.6l-7.8-4.9l12-8.6L310.1,541.8"/>
	<path id="WV_Ritchie" inkscape:label="Ritchie, WV" fill="#aa0000" stroke="#FFFFFF" stroke-width="1.2599" d="M310.1,541.8l7,3.7
		l5.3,13.3l-11.9,8.2l-7.3-1l-8.4-10.8l2.8-6.3l0.3-1.6l0.3-0.9l0.4-0.5l7.4-2.1L310.1,541.8"/>
	<path id="WV_Gilmer" inkscape:label="Gilmer, WV" fill="#d40000" stroke="#FFFFFF" stroke-width="1.2599" d="M322.4,558.7l4.8,0.7
		l8,13.5l-0.2,0l-0.6,0.2l-2.9,1.2l-1.6,0.9l-9.2,8.1l-5.9,4.9l-1.7-9.4l-0.7-8.4l-0.3-0.5l-1.7-2.9L322.4,558.7"/>
	<path id="WV_Braxton" inkscape:label="Braxton, WV" fill="#cc2f4a" stroke="#FFFFFF" stroke-width="1.2599" d="M335.1,572.9
		l0.9,2.5l0.6,0.8l3.1-0.4l3.2,1.8l1.7,4.6l0,1.4l-0.3,0.8l-9.7,16.5l-13,2.4l-9.4-11.2l2.4-3.9l5.9-4.9l9.2-8.1l1.6-0.9l2.9-1.2
		l0.6-0.2L335.1,572.9"/>
	<path id="WV_Nicholas" inkscape:label="Nicholas, WV" fill="#d40000" stroke="#FFFFFF" stroke-width="1.2599" d="M334.7,600.8
		l-1.3,2l2,5.8l2.6,4.3l10.3,5.9l-5.1,5.5l-8.4,8.6l-1.2,1l-9.8-1.1l-4-6.4l-1.6-1.5l-0.9-0.4l-3.3-0.1l-1.3,1.2l0,1l-0.2,0.2
		l-0.4,0l-4.5-1.8l-4.6-2.4l0,0l17.4-12.4l5-5.1l-0.5-1.1l-3.2-0.7L334.7,600.8"/>
	<path id="WV_Greenbrier" inkscape:label="Greenbrier, WV" fill="#cc2f4a" stroke="#FFFFFF" stroke-width="1.2599" d="M352.9,621.6
		l0.5,8.2l6,4.5l3.1,0.4l2.4-0.1l3.4-1.7l8.3-1.3l-4.7,8.6l-12.2,20.2l-21.2-1.3l-8.9-9.5l-5.6-16.9l9.8,1.1l1.2-1l8.4-8.6l5.1-5.5
		L352.9,621.6"/>
	<path id="WV_Webster" inkscape:label="Webster, WV" fill="#d40000" stroke="#FFFFFF" stroke-width="1.2599" d="M344.4,584.3
		l3.7,0.6l6.6,1.9l6.4,12l-2.7,10.3l-4.5,4.3l-1.3-0.6l0.3,8.8l-4.6-2.7L338,613l-2.6-4.3l-2-5.8l1.3-2L344.4,584.3"/>
	<path id="WV_Upshur" inkscape:label="Upshur, WV" fill="#d40000" stroke="#FFFFFF" stroke-width="1.2599" d="M351.2,556.9l4-1
		l9,11.5l-0.1,7.9l-1,7.1l-6.2,0.6l-2.1,3.8l-6.6-1.9L347,582l0.7-7.9l0.1-0.8l0.2-0.2l0.4,0l1.2-2.2l1.2-3l0.4-7.9L351.2,556.9"/>
	<path id="WV_Lewis" inkscape:label="Lewis, WV" fill="#d40000" stroke="#FFFFFF" stroke-width="1.2599" d="M334.2,553.5l17,3.3
		l0,3.1l-0.4,7.9l-1.2,3l-1.2,2.2l-0.4,0l-0.2,0.2l-0.1,0.8L347,582l1.2,2.9l-3.7-0.6l0.3-0.8l0-1.4l-1.7-4.6l-3.2-1.8l-3.1,0.4
		l-0.6-0.8l-0.9-2.5l-8-13.5L334.2,553.5"/>
	<path id="WV_Doddridge" inkscape:label="Doddridge, WV" fill="#aa0000" stroke="#FFFFFF" stroke-width="1.2599" d="M331.3,532.8
		l4.3,1.2l-1.4,19.5l-7,5.8l-4.8-0.7l-5.3-13.3L331.3,532.8"/>
	<path id="WV_Tyler" inkscape:label="Tyler, WV" fill="#aa0000" stroke="#FFFFFF" stroke-width="1.2599" d="M312.3,522.7l19,10.1
		l-14.2,12.6l-7-3.7l-8.3-6.6l5.6-7.2L312.3,522.7"/>
	<path id="WV_Harrison" inkscape:label="Harrison, WV" fill="#cc2f4a" stroke="#FFFFFF" stroke-width="1.2599" d="M338.2,530.9
		l17,4.3l2.6,10.9l-2.7,9.8l-4,1l-17-3.3l1.4-19.5L338.2,530.9"/>
	<path id="WV_Hancock" inkscape:label="Hancock, WV" fill="#d40000" stroke="#FFFFFF" stroke-width="1.2599" d="M330.1,445.1
		l0.9,11.8l0.5,5.8l-5.5,0.8l-3.8-13.6L330.1,445.1"/>
	<path id="WV_Brooke" inkscape:label="Brooke, WV" fill="#cc2f4a" stroke="#FFFFFF" stroke-width="1.2599" d="M331.6,462.7l1.3,17.6
		l-9.4-1.3l2.6-15.5L331.6,462.7"/>
	<path id="WV_Ohio" inkscape:label="Ohio, WV" fill="#cc2f4a" stroke="#FFFFFF" stroke-width="1.2599" d="M323.5,479l9.4,1.3
		l0.8,10.5l-11.9-0.3l0.9-9.3L323.5,479"/>
	<path id="WV_Marshall" inkscape:label="Marshall, WV" fill="#d40000" stroke="#FFFFFF" stroke-width="1.2599" d="M333.7,490.8
		l1.7,21.6l-17.2,1.4l0.2-9.8l3.4-13.5L333.7,490.8"/>
	<path id="WV_Wetzel" inkscape:label="Wetzel, WV" fill="#d40000" stroke="#FFFFFF" stroke-width="1.2599" d="M340.8,512.1l1.9,6.1
		l-4.5,12.7l-2.6,3.2l-4.3-1.2l-19-10.1l5.8-8.8l17.2-1.4L340.8,512.1"/>
	<path id="WV_Marion" inkscape:label="Marion, WV" fill="#cc2f4a" stroke="#FFFFFF" stroke-width="1.2599" d="M342.7,518.1l2.9,1.7
		l10.8-0.8l4.1,3.7l2.6,2.7l6.3,4.2l-14.1,5.6l-17-4.3L342.7,518.1"/>
	<path id="WV_Barbour" inkscape:label="Barbour, WV" fill="#d40000" stroke="#FFFFFF" stroke-width="1.2599" d="M377.9,545.3
		l-0.1,8.5l-1.3,1.7l-0.2,0.5l-1.2,6l-0.2,2.1l-0.2,0.6l-10.4,2.8l-9-11.5l2.7-9.8l14.8-5.5L377.9,545.3"/>
	<path id="WV_Taylor" inkscape:label="Taylor, WV" fill="#d40000" stroke="#FFFFFF" stroke-width="1.2599" d="M369.3,529.6l2.6,1
		l0.8,10l-14.8,5.5l-2.6-10.9L369.3,529.6"/>
	<path id="WV_Monongalia" inkscape:label="Monongalia, WV" fill="#e27f90" stroke="#FFFFFF" stroke-width="1.2599" d="M377.4,509.1
		l0.2,1.8l-1,5.5l-5.3,10.9l0.6,3.4l-2.6-1l-6.3-4.2l-2.6-2.7l-4.1-3.7l-10.8,0.8l-2.9-1.7l-1.9-6.1l28.1-2.3L377.4,509.1"/>
	<path id="WV_Pocahontas" inkscape:label="Pocahontas, WV" fill="#cc2f4a" stroke="#FFFFFF" stroke-width="1.2599" d="M391.8,586
		l-0.8,5.4l-0.6,6l-0.7,5.1l-2,5.2l-3.9,5.1l0,0.3l0,0.1l1.1,2.9l-8.1,15.6l-8.3,1.3l-3.4,1.7l-2.4,0.1l-3.1-0.4l-6-4.5l-0.5-8.2
		l-0.3-8.8l1.3,0.6l4.5-4.3l5.6-5.7l6.2-0.5l8.8-7.5l0.9-5.8l0.3-1.2l2.3-7l0.3-0.2l1.2,0.3l7.6,3.4L391.8,586"/>
	<path id="WV_Preston" inkscape:label="Preston, WV" fill="#d40000" stroke="#FFFFFF" stroke-width="1.2599" d="M393.4,507.7
		l2.8,37.8l0,0.8l-1.3-1.5l-10.4-3.2l-6.6,3.6l-5.2-4.6l-0.8-10l-0.6-3.4l5.3-10.9l1-5.5l-0.2-1.8L393.4,507.7"/>
	<path id="WV_Randolph" inkscape:label="Randolph, WV" fill="#d40000" stroke="#FFFFFF" stroke-width="1.2599" d="M405,562.6
		l0.5,0.5l-5.4,3.7L397,570l-1.4,2.4l0,0.1l0.8,1.9l0.4,0.2l0.8,0.7l0.1,0.4l-0.2,1l-1.1,2.5l-3.3,5.3l-1.3,1.3l-0.1-1.1l-7.6-3.4
		l-1.2-0.3l-0.3,0.2l-2.3,7l-0.3,1.2l-0.9,5.8l-8.8,7.5l-6.2,0.5l-5.6,5.7l2.7-10.3l-6.4-12l2.1-3.8l6.2-0.6l1-7.1l0.1-7.9l10.4-2.8
		l0.2-0.6l0.2-2.1l1.2-6l0.2-0.5l1.3-1.7l2.9,5.4l16.5,3.2L405,562.6"/>
	<path id="WV_Pendleton" inkscape:label="Pendleton, WV" fill="#d40000" stroke="#FFFFFF" stroke-width="1.2599" d="M405.5,563.1
		l13.1,9.4l4.7,3.4l-7.6,21.6l-4.4,5.4l-9.6-2.5l-3-5.4l-1-1.2l-1.1-0.6l-5.5-1.8l0.8-5.4l1.3-1.3l3.3-5.3l1.1-2.5l0.2-1l-0.1-0.4
		l-0.8-0.7l-0.4-0.2l-0.8-1.9l0-0.1l1.4-2.4l3.1-3.2L405.5,563.1"/>
	<path id="WV_Tucker" inkscape:label="Tucker, WV" fill="#d40000" stroke="#FFFFFF" stroke-width="1.2599" d="M377.9,545.3l6.6-3.6
		l10.4,3.2l1.3,1.5l5.3-0.5l3.8,3l2.4,5.5l-0.1,2l-0.3,2.1l-0.8,2.4l-1.4,1.8l-7.8-0.3l-16.5-3.2l-2.9-5.4L377.9,545.3"/>
	<path id="WV_Grant" inkscape:label="Grant, WV" fill="#aa0000" stroke="#FFFFFF" stroke-width="1.2599" d="M406.2,535.4l18.1,5.3
		l-0.4,0.7l-2,5.8l-2.4,8.7l0.7,2.6l1,7.6l-2.6,6.5l-13.1-9.4l-0.5-0.5l1.4-1.8l0.8-2.4l0.3-2.1l0.1-2l-2.4-5.5l-3.8-3l-5.3,0.5
		l0-0.8L406.2,535.4"/>
	<path id="WV_Hardy" inkscape:label="Hardy, WV" fill="#d40000" stroke="#FFFFFF" stroke-width="1.2599" d="M424.3,540.6l4.8,2.4
		l8.3,2.3l5,1l3.6-0.3l0.5-0.3l2,0.4l1.4,1l1.9,1.8l-1.8,2.5l-0.3,2.8l-0.1,0.5l-2.1,3.8l-5.8,4.6l-0.2,0l-0.2-0.4l-0.2-0.4
		l-3.1,2.5l-0.3,0.4l-0.1,0.2l-0.9,2.2l-2.8,7.2l-10.6,1.1l-4.7-3.4l2.6-6.5l-1-7.6l-0.7-2.6l2.4-8.7l2-5.8L424.3,540.6"/>
	<path id="WV_Mineral" inkscape:label="Mineral, WV" fill="#d40000" stroke="#FFFFFF" stroke-width="1.2599" d="M440.2,517.1
		l-15.9,23.5l-18.1-5.3l11.4-11.6l5.9,1.9l10.2-11.8L440.2,517.1"/>
	<path id="WV_Hampshire" inkscape:label="Hampshire, WV" fill="#d40000" stroke="#FFFFFF" stroke-width="1.2599" d="M440.2,517.1
		l10.7,0.3l7.1,3l0,8l-1.3,13.9l-0.3,1.2l-1,1.9l-1,1.5l-1.9,1.5l-0.7,0.6l-1.9-1.8l-1.4-1l-2-0.4l-0.5,0.3l-3.6,0.3l-5-1l-8.3-2.3
		l-4.8-2.4L440.2,517.1"/>
	<path id="WV_Morgan" inkscape:label="Morgan, WV" fill="#d40000" stroke="#FFFFFF" stroke-width="1.2599" d="M457.5,507.9l2.9,0.8
		l0.7,0l2.3-3.5l1.6-2.2l0.4-0.4l0.3-0.1l1.9,0.2l2,0.4l2,0.9l2.4,2.1l0.8,1.1l-6.3,2.5l-0.2,0.3l-3.3,15l-7.2-4.8l-7.1-3
		L457.5,507.9"/>
</g>
</svg>